<?xml version="1.0" encoding="UTF-8" standalone="no"?>
<!DOCTYPE svg PUBLIC "-//W3C//DTD SVG 1.1//EN"
 "http://www.w3.org/Graphics/SVG/1.1/DTD/svg11.dtd">
<!-- Generated by graphviz version 2.36.0 (20140111.2315)
 -->
<!-- Title: FrontEndCommands.ClearCommand Pages: 1 -->
<svg width="202pt" height="140pt"
 viewBox="0.00 0.00 202.00 140.00" xmlns="http://www.w3.org/2000/svg" xmlns:xlink="http://www.w3.org/1999/xlink">
<g id="graph0" class="graph" transform="scale(1 1) rotate(0) translate(4 136)">
<title>FrontEndCommands.ClearCommand</title>
<polygon fill="white" stroke="none" points="-4,4 -4,-136 198,-136 198,4 -4,4"/>
<!-- Node1 -->
<g id="node1" class="node"><title>Node1</title>
<polygon fill="#bfbfbf" stroke="black" points="1,-0.5 1,-19.5 193,-19.5 193,-0.5 1,-0.5"/>
<text text-anchor="middle" x="97" y="-7.5" font-family="Helvetica,sans-Serif" font-size="10.00">FrontEndCommands.ClearCommand</text>
</g>
<!-- Node2 -->
<g id="node2" class="node"><title>Node2</title>
<g id="a_node2"><a xlink:href="../../de/d36/class_front_end_commands_1_1_super_command.html" target="_top" xlink:title="FrontEndCommands.SuperCommand">
<polygon fill="white" stroke="black" points="-1,-56.5 -1,-75.5 195,-75.5 195,-56.5 -1,-56.5"/>
<text text-anchor="middle" x="97" y="-63.5" font-family="Helvetica,sans-Serif" font-size="10.00">FrontEndCommands.SuperCommand</text>
</a>
</g>
</g>
<!-- Node2&#45;&gt;Node1 -->
<g id="edge1" class="edge"><title>Node2&#45;&gt;Node1</title>
<path fill="none" stroke="midnightblue" d="M97,-45.8045C97,-36.9102 97,-26.7798 97,-19.7511"/>
<polygon fill="midnightblue" stroke="midnightblue" points="93.5001,-46.083 97,-56.083 100.5,-46.083 93.5001,-46.083"/>
</g>
<!-- Node3 -->
<g id="node3" class="node"><title>Node3</title>
<polygon fill="white" stroke="#bfbfbf" points="61.5,-112.5 61.5,-131.5 132.5,-131.5 132.5,-112.5 61.5,-112.5"/>
<text text-anchor="middle" x="97" y="-119.5" font-family="Helvetica,sans-Serif" font-size="10.00">Observable</text>
</g>
<!-- Node3&#45;&gt;Node2 -->
<g id="edge2" class="edge"><title>Node3&#45;&gt;Node2</title>
<path fill="none" stroke="midnightblue" d="M97,-101.805C97,-92.9102 97,-82.7798 97,-75.7511"/>
<polygon fill="midnightblue" stroke="midnightblue" points="93.5001,-102.083 97,-112.083 100.5,-102.083 93.5001,-102.083"/>
</g>
</g>
</svg>
