<?xml version="1.0" encoding="UTF-8" standalone="no"?>
<!DOCTYPE svg PUBLIC "-//W3C//DTD SVG 1.1//EN"
 "http://www.w3.org/Graphics/SVG/1.1/DTD/svg11.dtd">
<!-- Generated by graphviz version 2.36.0 (20140111.2315)
 -->
<!-- Title: Nodes.turtlecommands.OneChildNode Pages: 1 -->
<!--zoomable 191 -->
<svg id="main" version="1.1" xmlns="http://www.w3.org/2000/svg" xmlns:xlink="http://www.w3.org/1999/xlink" xml:space="preserve" onload="init(evt)">
<style type="text/css"><![CDATA[
.edge:hover path { stroke: red; }
.edge:hover polygon { stroke: red; fill: red; }
]]></style>
<script type="text/javascript"><![CDATA[
var edges = document.getElementsByTagName('g');
if (edges && edges.length) {
  for (var i=0;i<edges.length;i++) {
    if (edges[i].id.substr(0,4)=='edge') {
      edges[i].setAttribute('class','edge');
    }
  }
}
]]></script>
        <defs>
                <circle id="rim" cx="0" cy="0" r="7"/>
                <circle id="rim2" cx="0" cy="0" r="3.5"/>
                <g id="zoomPlus">
                        <use xlink:href="#rim" fill="#404040">
                                <set attributeName="fill" to="#808080" begin="zoomplus.mouseover" end="zoomplus.mouseout"/>
                        </use>
                        <path d="M-4,0h8M0,-4v8" fill="none" stroke="white" stroke-width="1.5" pointer-events="none"/>
                </g>
                <g id="zoomMin">
                        <use xlink:href="#rim" fill="#404040">
                                <set attributeName="fill" to="#808080" begin="zoomminus.mouseover" end="zoomminus.mouseout"/>
                        </use>
                        <path d="M-4,0h8" fill="none" stroke="white" stroke-width="1.5" pointer-events="none"/>
                </g>
                <g id="dirArrow">
                        <path fill="none" stroke="white" stroke-width="1.5" d="M0,-3.0v7 M-2.5,-0.5L0,-3.0L2.5,-0.5"/>
                </g>
               <g id="resetDef">
                       <use xlink:href="#rim2" fill="#404040">
                               <set attributeName="fill" to="#808080" begin="reset.mouseover" end="reset.mouseout"/>
                       </use>
               </g>
        </defs>

<script type="text/javascript">
var viewWidth = 758;
var viewHeight = 191;
var sectionId = 'dynsection-0';
</script>
<script xlink:href="../../svgpan.js"/>
<svg id="graph" class="graph">
<g id="viewport">
<title>Nodes.turtlecommands.OneChildNode</title>
<polygon fill="white" stroke="none" points="-4,4 -4,-187 754,-187 754,4 -4,4"/>
<!-- Node1 -->
<g id="node1" class="node"><title>Node1</title>
<polygon fill="#bfbfbf" stroke="black" points="358,-82 358,-112 510,-112 510,-82 358,-82"/>
<text text-anchor="start" x="366" y="-100" font-family="Helvetica,sans-Serif" font-size="10.00">Nodes.turtlecommands.One</text>
<text text-anchor="middle" x="434" y="-89" font-family="Helvetica,sans-Serif" font-size="10.00">ChildNode</text>
</g>
<!-- Node4 -->
<g id="node4" class="node"><title>Node4</title>
<g id="a_node4"><a xlink:href="../../dc/db0/class_nodes_1_1turtlecommands_1_1_backward_node.html" target="_top" xlink:title="Nodes.turtlecommands.BackwardNode">
<polygon fill="white" stroke="black" points="546,-163.5 546,-182.5 750,-182.5 750,-163.5 546,-163.5"/>
<text text-anchor="middle" x="648" y="-170.5" font-family="Helvetica,sans-Serif" font-size="10.00">Nodes.turtlecommands.BackwardNode</text>
</a>
</g>
</g>
<!-- Node1&#45;&gt;Node4 -->
<g id="edge3" class="edge"><title>Node1&#45;&gt;Node4</title>
<path fill="none" stroke="midnightblue" d="M467.951,-117.12C489.468,-129.441 518.565,-144.598 546,-154 557.14,-157.818 569.249,-160.93 581.087,-163.447"/>
<polygon fill="midnightblue" stroke="midnightblue" points="469.623,-114.044 459.22,-112.038 466.102,-120.093 469.623,-114.044"/>
</g>
<!-- Node5 -->
<g id="node5" class="node"><title>Node5</title>
<g id="a_node5"><a xlink:href="../../d8/ddb/class_nodes_1_1turtlecommands_1_1_forward_node.html" target="_top" xlink:title="Nodes.turtlecommands.ForwardNode">
<polygon fill="white" stroke="black" points="550,-125.5 550,-144.5 746,-144.5 746,-125.5 550,-125.5"/>
<text text-anchor="middle" x="648" y="-132.5" font-family="Helvetica,sans-Serif" font-size="10.00">Nodes.turtlecommands.ForwardNode</text>
</a>
</g>
</g>
<!-- Node1&#45;&gt;Node5 -->
<g id="edge4" class="edge"><title>Node1&#45;&gt;Node5</title>
<path fill="none" stroke="midnightblue" d="M520.201,-112.272C545.035,-116.723 571.454,-121.459 593.713,-125.449"/>
<polygon fill="midnightblue" stroke="midnightblue" points="520.502,-108.77 510.042,-110.451 519.267,-115.66 520.502,-108.77"/>
</g>
<!-- Node6 -->
<g id="node6" class="node"><title>Node6</title>
<g id="a_node6"><a xlink:href="../../d8/d7e/class_nodes_1_1turtlecommands_1_1_left_node.html" target="_top" xlink:title="Nodes.turtlecommands.LeftNode">
<polygon fill="white" stroke="black" points="560,-87.5 560,-106.5 736,-106.5 736,-87.5 560,-87.5"/>
<text text-anchor="middle" x="648" y="-94.5" font-family="Helvetica,sans-Serif" font-size="10.00">Nodes.turtlecommands.LeftNode</text>
</a>
</g>
</g>
<!-- Node1&#45;&gt;Node6 -->
<g id="edge5" class="edge"><title>Node1&#45;&gt;Node6</title>
<path fill="none" stroke="midnightblue" d="M520.341,-97C533.317,-97 546.724,-97 559.741,-97"/>
<polygon fill="midnightblue" stroke="midnightblue" points="520.042,-93.5001 510.042,-97 520.042,-100.5 520.042,-93.5001"/>
</g>
<!-- Node7 -->
<g id="node7" class="node"><title>Node7</title>
<g id="a_node7"><a xlink:href="../../d0/dcd/class_nodes_1_1turtlecommands_1_1_right_node.html" target="_top" xlink:title="Nodes.turtlecommands.RightNode">
<polygon fill="white" stroke="black" points="557,-49.5 557,-68.5 739,-68.5 739,-49.5 557,-49.5"/>
<text text-anchor="middle" x="648" y="-56.5" font-family="Helvetica,sans-Serif" font-size="10.00">Nodes.turtlecommands.RightNode</text>
</a>
</g>
</g>
<!-- Node1&#45;&gt;Node7 -->
<g id="edge6" class="edge"><title>Node1&#45;&gt;Node7</title>
<path fill="none" stroke="midnightblue" d="M520.201,-81.7281C545.035,-77.2768 571.454,-72.5413 593.713,-68.5514"/>
<polygon fill="midnightblue" stroke="midnightblue" points="519.267,-78.3396 510.042,-83.5491 520.502,-85.2298 519.267,-78.3396"/>
</g>
<!-- Node8 -->
<g id="node8" class="node"><title>Node8</title>
<g id="a_node8"><a xlink:href="../../dc/d88/class_nodes_1_1turtlecommands_1_1_set_heading_node.html" target="_top" xlink:title="Nodes.turtlecommands.Set\lHeadingNode">
<polygon fill="white" stroke="black" points="573.5,-0 573.5,-30 722.5,-30 722.5,-0 573.5,-0"/>
<text text-anchor="start" x="581.5" y="-18" font-family="Helvetica,sans-Serif" font-size="10.00">Nodes.turtlecommands.Set</text>
<text text-anchor="middle" x="648" y="-7" font-family="Helvetica,sans-Serif" font-size="10.00">HeadingNode</text>
</a>
</g>
</g>
<!-- Node1&#45;&gt;Node8 -->
<g id="edge7" class="edge"><title>Node1&#45;&gt;Node8</title>
<path fill="none" stroke="midnightblue" d="M468.991,-76.9321C490.494,-64.903 519.197,-50.0434 546,-40 555.895,-36.292 566.543,-32.9732 577.081,-30.0593"/>
<polygon fill="midnightblue" stroke="midnightblue" points="467.216,-73.9151 460.243,-81.8918 470.668,-80.0045 467.216,-73.9151"/>
</g>
<!-- Node2 -->
<g id="node2" class="node"><title>Node2</title>
<g id="a_node2"><a xlink:href="../../dc/d38/class_nodes_1_1turtlecommands_1_1_command_node.html" target="_top" xlink:title="Nodes.turtlecommands.CommandNode">
<polygon fill="white" stroke="black" points="112.5,-87.5 112.5,-106.5 321.5,-106.5 321.5,-87.5 112.5,-87.5"/>
<text text-anchor="middle" x="217" y="-94.5" font-family="Helvetica,sans-Serif" font-size="10.00">Nodes.turtlecommands.CommandNode</text>
</a>
</g>
</g>
<!-- Node2&#45;&gt;Node1 -->
<g id="edge1" class="edge"><title>Node2&#45;&gt;Node1</title>
<path fill="none" stroke="midnightblue" d="M331.961,-97C340.673,-97 349.329,-97 357.697,-97"/>
<polygon fill="midnightblue" stroke="midnightblue" points="331.721,-93.5001 321.721,-97 331.721,-100.5 331.721,-93.5001"/>
</g>
<!-- Node3 -->
<g id="node3" class="node"><title>Node3</title>
<g id="a_node3"><a xlink:href="../../df/dac/class_nodes_1_1_node.html" target="_top" xlink:title="Nodes.Node">
<polygon fill="white" stroke="black" points="0,-87.5 0,-106.5 76,-106.5 76,-87.5 0,-87.5"/>
<text text-anchor="middle" x="38" y="-94.5" font-family="Helvetica,sans-Serif" font-size="10.00">Nodes.Node</text>
</a>
</g>
</g>
<!-- Node3&#45;&gt;Node2 -->
<g id="edge2" class="edge"><title>Node3&#45;&gt;Node2</title>
<path fill="none" stroke="midnightblue" d="M86.1525,-97C94.367,-97 103.194,-97 112.241,-97"/>
<polygon fill="midnightblue" stroke="midnightblue" points="86.105,-93.5001 76.105,-97 86.105,-100.5 86.105,-93.5001"/>
</g>
</g>
</svg>
        <g id="navigator" transform="translate(0 0)" fill="#404254">
                <rect fill="#f2f5e9" fill-opacity="0.5" stroke="#606060" stroke-width=".5" x="0" y="0" width="60" height="60"/>
                <use id="zoomplus" xlink:href="#zoomPlus" x="17" y="9" onmousedown="handleZoom(evt,'in')"/>
                <use id="zoomminus" xlink:href="#zoomMin" x="42" y="9" onmousedown="handleZoom(evt,'out')"/>
                <use id="reset" xlink:href="#resetDef" x="30" y="36" onmousedown="handleReset()"/>
                <g id="arrowUp" xlink:href="#dirArrow" transform="translate(30 24)" onmousedown="handlePan(0,-1)">
                  <use xlink:href="#rim" fill="#404040">
                        <set attributeName="fill" to="#808080" begin="arrowUp.mouseover" end="arrowUp.mouseout"/>
                  </use>
                  <path fill="none" stroke="white" stroke-width="1.5" d="M0,-3.0v7 M-2.5,-0.5L0,-3.0L2.5,-0.5"/>
                </g>
                <g id="arrowRight" xlink:href="#dirArrow" transform="rotate(90) translate(36 -43)" onmousedown="handlePan(1,0)">
                  <use xlink:href="#rim" fill="#404040">
                        <set attributeName="fill" to="#808080" begin="arrowRight.mouseover" end="arrowRight.mouseout"/>
                  </use>
                  <path fill="none" stroke="white" stroke-width="1.5" d="M0,-3.0v7 M-2.5,-0.5L0,-3.0L2.5,-0.5"/>
                </g>
                <g id="arrowDown" xlink:href="#dirArrow" transform="rotate(180) translate(-30 -48)" onmousedown="handlePan(0,1)">
                  <use xlink:href="#rim" fill="#404040">
                        <set attributeName="fill" to="#808080" begin="arrowDown.mouseover" end="arrowDown.mouseout"/>
                  </use>
                  <path fill="none" stroke="white" stroke-width="1.5" d="M0,-3.0v7 M-2.5,-0.5L0,-3.0L2.5,-0.5"/>
                </g>
                <g id="arrowLeft" xlink:href="#dirArrow" transform="rotate(270) translate(-36 17)" onmousedown="handlePan(-1,0)">
                  <use xlink:href="#rim" fill="#404040">
                        <set attributeName="fill" to="#808080" begin="arrowLeft.mouseover" end="arrowLeft.mouseout"/>
                  </use>
                  <path fill="none" stroke="white" stroke-width="1.5" d="M0,-3.0v7 M-2.5,-0.5L0,-3.0L2.5,-0.5"/>
                </g>
        </g>
        <svg viewBox="0 0 15 15" width="100%" height="30px" preserveAspectRatio="xMaxYMin meet">
         <g id="arrow_out" transform="scale(0.3 0.3)">
          <a xlink:href="class_nodes_1_1turtlecommands_1_1_one_child_node__inherit__graph_org.svg" target="_base">
           <rect id="button" ry="5" rx="5" y="6" x="6" height="38" width="38"
                fill="#f2f5e9" fill-opacity="0.5" stroke="#606060" stroke-width="1.0"/>
           <path id="arrow"
             d="M 11.500037,31.436501 C 11.940474,20.09759 22.043105,11.32322 32.158766,21.979434 L 37.068811,17.246167 C 37.068811,17.246167 37.088388,32 37.088388,32 L 22.160133,31.978069 C 22.160133,31.978069 26.997745,27.140456 26.997745,27.140456 C 18.528582,18.264221 13.291696,25.230495 11.500037,31.436501 z"
             style="fill:#404040;"/>
          </a>
         </g>
        </svg>
</svg>
