<?xml version="1.0" encoding="UTF-8" standalone="no"?>
<!DOCTYPE svg PUBLIC "-//W3C//DTD SVG 1.1//EN"
 "http://www.w3.org/Graphics/SVG/1.1/DTD/svg11.dtd">
<!-- Generated by graphviz version 2.36.0 (20140111.2315)
 -->
<!-- Title: Nodes.turtlecommands.OneChildNode Pages: 1 -->
<svg width="758pt" height="191pt"
 viewBox="0.00 0.00 758.00 191.00" xmlns="http://www.w3.org/2000/svg" xmlns:xlink="http://www.w3.org/1999/xlink">
<g id="graph0" class="graph" transform="scale(1 1) rotate(0) translate(4 187)">
<title>Nodes.turtlecommands.OneChildNode</title>
<polygon fill="white" stroke="none" points="-4,4 -4,-187 754,-187 754,4 -4,4"/>
<!-- Node1 -->
<g id="node1" class="node"><title>Node1</title>
<polygon fill="#bfbfbf" stroke="black" points="358,-82 358,-112 510,-112 510,-82 358,-82"/>
<text text-anchor="start" x="366" y="-100" font-family="Helvetica,sans-Serif" font-size="10.00">Nodes.turtlecommands.One</text>
<text text-anchor="middle" x="434" y="-89" font-family="Helvetica,sans-Serif" font-size="10.00">ChildNode</text>
</g>
<!-- Node4 -->
<g id="node4" class="node"><title>Node4</title>
<g id="a_node4"><a xlink:href="../../dc/db0/class_nodes_1_1turtlecommands_1_1_backward_node.html" target="_top" xlink:title="Nodes.turtlecommands.BackwardNode">
<polygon fill="white" stroke="black" points="546,-163.5 546,-182.5 750,-182.5 750,-163.5 546,-163.5"/>
<text text-anchor="middle" x="648" y="-170.5" font-family="Helvetica,sans-Serif" font-size="10.00">Nodes.turtlecommands.BackwardNode</text>
</a>
</g>
</g>
<!-- Node1&#45;&gt;Node4 -->
<g id="edge3" class="edge"><title>Node1&#45;&gt;Node4</title>
<path fill="none" stroke="midnightblue" d="M467.951,-117.12C489.468,-129.441 518.565,-144.598 546,-154 557.14,-157.818 569.249,-160.93 581.087,-163.447"/>
<polygon fill="midnightblue" stroke="midnightblue" points="469.623,-114.044 459.22,-112.038 466.102,-120.093 469.623,-114.044"/>
</g>
<!-- Node5 -->
<g id="node5" class="node"><title>Node5</title>
<g id="a_node5"><a xlink:href="../../d8/ddb/class_nodes_1_1turtlecommands_1_1_forward_node.html" target="_top" xlink:title="Nodes.turtlecommands.ForwardNode">
<polygon fill="white" stroke="black" points="550,-125.5 550,-144.5 746,-144.5 746,-125.5 550,-125.5"/>
<text text-anchor="middle" x="648" y="-132.5" font-family="Helvetica,sans-Serif" font-size="10.00">Nodes.turtlecommands.ForwardNode</text>
</a>
</g>
</g>
<!-- Node1&#45;&gt;Node5 -->
<g id="edge4" class="edge"><title>Node1&#45;&gt;Node5</title>
<path fill="none" stroke="midnightblue" d="M520.201,-112.272C545.035,-116.723 571.454,-121.459 593.713,-125.449"/>
<polygon fill="midnightblue" stroke="midnightblue" points="520.502,-108.77 510.042,-110.451 519.267,-115.66 520.502,-108.77"/>
</g>
<!-- Node6 -->
<g id="node6" class="node"><title>Node6</title>
<g id="a_node6"><a xlink:href="../../d8/d7e/class_nodes_1_1turtlecommands_1_1_left_node.html" target="_top" xlink:title="Nodes.turtlecommands.LeftNode">
<polygon fill="white" stroke="black" points="560,-87.5 560,-106.5 736,-106.5 736,-87.5 560,-87.5"/>
<text text-anchor="middle" x="648" y="-94.5" font-family="Helvetica,sans-Serif" font-size="10.00">Nodes.turtlecommands.LeftNode</text>
</a>
</g>
</g>
<!-- Node1&#45;&gt;Node6 -->
<g id="edge5" class="edge"><title>Node1&#45;&gt;Node6</title>
<path fill="none" stroke="midnightblue" d="M520.341,-97C533.317,-97 546.724,-97 559.741,-97"/>
<polygon fill="midnightblue" stroke="midnightblue" points="520.042,-93.5001 510.042,-97 520.042,-100.5 520.042,-93.5001"/>
</g>
<!-- Node7 -->
<g id="node7" class="node"><title>Node7</title>
<g id="a_node7"><a xlink:href="../../d0/dcd/class_nodes_1_1turtlecommands_1_1_right_node.html" target="_top" xlink:title="Nodes.turtlecommands.RightNode">
<polygon fill="white" stroke="black" points="557,-49.5 557,-68.5 739,-68.5 739,-49.5 557,-49.5"/>
<text text-anchor="middle" x="648" y="-56.5" font-family="Helvetica,sans-Serif" font-size="10.00">Nodes.turtlecommands.RightNode</text>
</a>
</g>
</g>
<!-- Node1&#45;&gt;Node7 -->
<g id="edge6" class="edge"><title>Node1&#45;&gt;Node7</title>
<path fill="none" stroke="midnightblue" d="M520.201,-81.7281C545.035,-77.2768 571.454,-72.5413 593.713,-68.5514"/>
<polygon fill="midnightblue" stroke="midnightblue" points="519.267,-78.3396 510.042,-83.5491 520.502,-85.2298 519.267,-78.3396"/>
</g>
<!-- Node8 -->
<g id="node8" class="node"><title>Node8</title>
<g id="a_node8"><a xlink:href="../../dc/d88/class_nodes_1_1turtlecommands_1_1_set_heading_node.html" target="_top" xlink:title="Nodes.turtlecommands.Set\lHeadingNode">
<polygon fill="white" stroke="black" points="573.5,-0 573.5,-30 722.5,-30 722.5,-0 573.5,-0"/>
<text text-anchor="start" x="581.5" y="-18" font-family="Helvetica,sans-Serif" font-size="10.00">Nodes.turtlecommands.Set</text>
<text text-anchor="middle" x="648" y="-7" font-family="Helvetica,sans-Serif" font-size="10.00">HeadingNode</text>
</a>
</g>
</g>
<!-- Node1&#45;&gt;Node8 -->
<g id="edge7" class="edge"><title>Node1&#45;&gt;Node8</title>
<path fill="none" stroke="midnightblue" d="M468.991,-76.9321C490.494,-64.903 519.197,-50.0434 546,-40 555.895,-36.292 566.543,-32.9732 577.081,-30.0593"/>
<polygon fill="midnightblue" stroke="midnightblue" points="467.216,-73.9151 460.243,-81.8918 470.668,-80.0045 467.216,-73.9151"/>
</g>
<!-- Node2 -->
<g id="node2" class="node"><title>Node2</title>
<g id="a_node2"><a xlink:href="../../dc/d38/class_nodes_1_1turtlecommands_1_1_command_node.html" target="_top" xlink:title="Nodes.turtlecommands.CommandNode">
<polygon fill="white" stroke="black" points="112.5,-87.5 112.5,-106.5 321.5,-106.5 321.5,-87.5 112.5,-87.5"/>
<text text-anchor="middle" x="217" y="-94.5" font-family="Helvetica,sans-Serif" font-size="10.00">Nodes.turtlecommands.CommandNode</text>
</a>
</g>
</g>
<!-- Node2&#45;&gt;Node1 -->
<g id="edge1" class="edge"><title>Node2&#45;&gt;Node1</title>
<path fill="none" stroke="midnightblue" d="M331.961,-97C340.673,-97 349.329,-97 357.697,-97"/>
<polygon fill="midnightblue" stroke="midnightblue" points="331.721,-93.5001 321.721,-97 331.721,-100.5 331.721,-93.5001"/>
</g>
<!-- Node3 -->
<g id="node3" class="node"><title>Node3</title>
<g id="a_node3"><a xlink:href="../../df/dac/class_nodes_1_1_node.html" target="_top" xlink:title="Nodes.Node">
<polygon fill="white" stroke="black" points="0,-87.5 0,-106.5 76,-106.5 76,-87.5 0,-87.5"/>
<text text-anchor="middle" x="38" y="-94.5" font-family="Helvetica,sans-Serif" font-size="10.00">Nodes.Node</text>
</a>
</g>
</g>
<!-- Node3&#45;&gt;Node2 -->
<g id="edge2" class="edge"><title>Node3&#45;&gt;Node2</title>
<path fill="none" stroke="midnightblue" d="M86.1525,-97C94.367,-97 103.194,-97 112.241,-97"/>
<polygon fill="midnightblue" stroke="midnightblue" points="86.105,-93.5001 76.105,-97 86.105,-100.5 86.105,-93.5001"/>
</g>
</g>
</svg>
