<?xml version="1.0" encoding="UTF-8" standalone="no"?>
<!DOCTYPE svg PUBLIC "-//W3C//DTD SVG 1.1//EN"
 "http://www.w3.org/Graphics/SVG/1.1/DTD/svg11.dtd">
<!-- Generated by graphviz version 2.36.0 (20140111.2315)
 -->
<!-- Title: Nodes.turtlecommands.YCoordinateNode.update Pages: 1 -->
<svg width="592pt" height="77pt"
 viewBox="0.00 0.00 592.00 77.00" xmlns="http://www.w3.org/2000/svg" xmlns:xlink="http://www.w3.org/1999/xlink">
<g id="graph0" class="graph" transform="scale(1 1) rotate(0) translate(4 73)">
<title>Nodes.turtlecommands.YCoordinateNode.update</title>
<polygon fill="white" stroke="none" points="-4,4 -4,-73 588,-73 588,4 -4,4"/>
<!-- Node1 -->
<g id="node1" class="node"><title>Node1</title>
<polygon fill="#bfbfbf" stroke="black" points="0,-17 0,-47 190,-47 190,-17 0,-17"/>
<text text-anchor="start" x="8" y="-35" font-family="Helvetica,sans-Serif" font-size="10.00">Nodes.turtlecommands.YCoordinate</text>
<text text-anchor="middle" x="95" y="-24" font-family="Helvetica,sans-Serif" font-size="10.00">Node.update</text>
</g>
<!-- Node2 -->
<g id="node2" class="node"><title>Node2</title>
<g id="a_node2"><a xlink:href="../../de/d3e/class_turtle_view_1_1_point_converter.html#ac4e8c4424f8610544630608ee76496d8" target="_top" xlink:title="TurtleView.PointConverter.convert\lActualToUserY">
<polygon fill="white" stroke="black" points="226,-39 226,-69 402,-69 402,-39 226,-39"/>
<text text-anchor="start" x="234" y="-57" font-family="Helvetica,sans-Serif" font-size="10.00">TurtleView.PointConverter.convert</text>
<text text-anchor="middle" x="314" y="-46" font-family="Helvetica,sans-Serif" font-size="10.00">ActualToUserY</text>
</a>
</g>
</g>
<!-- Node1&#45;&gt;Node2 -->
<g id="edge1" class="edge"><title>Node1&#45;&gt;Node2</title>
<path fill="none" stroke="midnightblue" d="M190.233,-41.5535C198.608,-42.4027 207.099,-43.2635 215.501,-44.1153"/>
<polygon fill="midnightblue" stroke="midnightblue" points="215.39,-47.6219 225.692,-45.1485 216.096,-40.6576 215.39,-47.6219"/>
</g>
<!-- Node3 -->
<g id="node3" class="node"><title>Node3</title>
<g id="a_node3"><a xlink:href="../../d1/de0/class_backend_1_1_turtle.html#a692174eccea232fc58e725cff6f50359" target="_top" xlink:title="Backend.Turtle.getYCord">
<polygon fill="white" stroke="black" points="248,-0.5 248,-19.5 380,-19.5 380,-0.5 248,-0.5"/>
<text text-anchor="middle" x="314" y="-7.5" font-family="Helvetica,sans-Serif" font-size="10.00">Backend.Turtle.getYCord</text>
</a>
</g>
</g>
<!-- Node1&#45;&gt;Node3 -->
<g id="edge2" class="edge"><title>Node1&#45;&gt;Node3</title>
<path fill="none" stroke="midnightblue" d="M190.233,-22.4465C206.031,-20.8448 222.241,-19.2014 237.489,-17.6555"/>
<polygon fill="midnightblue" stroke="midnightblue" points="238.28,-21.0934 247.876,-16.6025 237.574,-14.1291 238.28,-21.0934"/>
</g>
<!-- Node4 -->
<g id="node4" class="node"><title>Node4</title>
<g id="a_node4"><a xlink:href="../../d1/de0/class_backend_1_1_turtle.html#a33957258db9a7205d470c5a2d22b89af" target="_top" xlink:title="Backend.Turtle.getLocation">
<polygon fill="white" stroke="black" points="438,-0.5 438,-19.5 584,-19.5 584,-0.5 438,-0.5"/>
<text text-anchor="middle" x="511" y="-7.5" font-family="Helvetica,sans-Serif" font-size="10.00">Backend.Turtle.getLocation</text>
</a>
</g>
</g>
<!-- Node3&#45;&gt;Node4 -->
<g id="edge3" class="edge"><title>Node3&#45;&gt;Node4</title>
<path fill="none" stroke="midnightblue" d="M380.203,-10C395.371,-10 411.714,-10 427.518,-10"/>
<polygon fill="midnightblue" stroke="midnightblue" points="427.808,-13.5001 437.807,-10 427.807,-6.5001 427.808,-13.5001"/>
</g>
</g>
</svg>
