<?xml version="1.0" encoding="UTF-8" standalone="no"?>
<!DOCTYPE svg PUBLIC "-//W3C//DTD SVG 1.1//EN"
 "http://www.w3.org/Graphics/SVG/1.1/DTD/svg11.dtd">
<!-- Generated by graphviz version 2.36.0 (20140111.2315)
 -->
<!-- Title: Nodes.math.SineNode Pages: 1 -->
<svg width="172pt" height="290pt"
 viewBox="0.00 0.00 172.00 290.00" xmlns="http://www.w3.org/2000/svg" xmlns:xlink="http://www.w3.org/1999/xlink">
<g id="graph0" class="graph" transform="scale(1 1) rotate(0) translate(4 286)">
<title>Nodes.math.SineNode</title>
<polygon fill="white" stroke="none" points="-4,4 -4,-286 168,-286 168,4 -4,4"/>
<!-- Node1 -->
<g id="node1" class="node"><title>Node1</title>
<polygon fill="#bfbfbf" stroke="black" points="10.5,-0.5 10.5,-19.5 135.5,-19.5 135.5,-0.5 10.5,-0.5"/>
<text text-anchor="middle" x="73" y="-7.5" font-family="Helvetica,sans-Serif" font-size="10.00">Nodes.math.SineNode</text>
</g>
<!-- Node2 -->
<g id="node2" class="node"><title>Node2</title>
<g id="a_node2"><a xlink:href="../../db/d09/class_nodes_1_1math_1_1_one_child_node.html" target="_top" xlink:title="Nodes.math.OneChildNode">
<polygon fill="white" stroke="black" points="-0.5,-58.5 -0.5,-77.5 146.5,-77.5 146.5,-58.5 -0.5,-58.5"/>
<text text-anchor="middle" x="73" y="-65.5" font-family="Helvetica,sans-Serif" font-size="10.00">Nodes.math.OneChildNode</text>
</a>
</g>
</g>
<!-- Node2&#45;&gt;Node1 -->
<g id="edge1" class="edge"><title>Node2&#45;&gt;Node1</title>
<path fill="none" stroke="midnightblue" d="M73,-47.953C73,-38.2875 73,-27.0312 73,-19.5052"/>
<polygon fill="midnightblue" stroke="midnightblue" points="69.5001,-48.25 73,-58.25 76.5001,-48.25 69.5001,-48.25"/>
</g>
<!-- Node3 -->
<g id="node3" class="node"><title>Node3</title>
<g id="a_node3"><a xlink:href="../../de/d80/class_nodes_1_1math_1_1_math_node.html" target="_top" xlink:title="Nodes.math.MathNode">
<polygon fill="white" stroke="black" points="9,-116.5 9,-135.5 137,-135.5 137,-116.5 9,-116.5"/>
<text text-anchor="middle" x="73" y="-123.5" font-family="Helvetica,sans-Serif" font-size="10.00">Nodes.math.MathNode</text>
</a>
</g>
</g>
<!-- Node3&#45;&gt;Node2 -->
<g id="edge2" class="edge"><title>Node3&#45;&gt;Node2</title>
<path fill="none" stroke="midnightblue" d="M73,-105.953C73,-96.2875 73,-85.0312 73,-77.5052"/>
<polygon fill="midnightblue" stroke="midnightblue" points="69.5001,-106.25 73,-116.25 76.5001,-106.25 69.5001,-106.25"/>
</g>
<!-- Node4 -->
<g id="node4" class="node"><title>Node4</title>
<g id="a_node4"><a xlink:href="../../df/dac/class_nodes_1_1_node.html" target="_top" xlink:title="Nodes.Node">
<polygon fill="white" stroke="black" points="35,-194.5 35,-213.5 111,-213.5 111,-194.5 35,-194.5"/>
<text text-anchor="middle" x="73" y="-201.5" font-family="Helvetica,sans-Serif" font-size="10.00">Nodes.Node</text>
</a>
</g>
</g>
<!-- Node4&#45;&gt;Node3 -->
<g id="edge3" class="edge"><title>Node4&#45;&gt;Node3</title>
<path fill="none" stroke="midnightblue" d="M71.4399,-184.382C71.2572,-181.575 71.1003,-178.713 71,-176 70.6386,-166.229 70.6386,-163.771 71,-154 71.2293,-147.8 71.7539,-140.815 72.2083,-135.503"/>
<polygon fill="midnightblue" stroke="midnightblue" points="67.9607,-184.791 72.2083,-194.497 74.9406,-184.26 67.9607,-184.791"/>
</g>
<!-- Node4&#45;&gt;Node3 -->
<g id="edge6" class="edge"><title>Node4&#45;&gt;Node3</title>
<path fill="none" stroke="#9a32cd" stroke-dasharray="5,2" d="M73,-184.224C73,-168.697 73,-147.358 73,-135.616"/>
<polygon fill="#9a32cd" stroke="#9a32cd" points="69.5001,-184.282 73,-194.282 76.5001,-184.282 69.5001,-184.282"/>
<text text-anchor="middle" x="85.5" y="-168" font-family="Helvetica,sans-Serif" font-size="10.00"> right</text>
<text text-anchor="middle" x="85.5" y="-157" font-family="Helvetica,sans-Serif" font-size="10.00">left</text>
</g>
<!-- Node4&#45;&gt;Node4 -->
<g id="edge5" class="edge"><title>Node4&#45;&gt;Node4</title>
<path fill="none" stroke="#9a32cd" stroke-dasharray="5,2" d="M121.289,-209.176C126.006,-208.133 129,-206.407 129,-204 129,-200.148 121.335,-198.042 111.214,-197.681"/>
<polygon fill="#9a32cd" stroke="#9a32cd" points="120.756,-205.714 111.214,-210.319 121.545,-212.67 120.756,-205.714"/>
<text text-anchor="middle" x="146.5" y="-201.5" font-family="Helvetica,sans-Serif" font-size="10.00"> parent</text>
</g>
<!-- Node5 -->
<g id="node5" class="node"><title>Node5</title>
<polygon fill="white" stroke="#bfbfbf" points="3,-262.5 3,-281.5 143,-281.5 143,-262.5 3,-262.5"/>
<text text-anchor="middle" x="73" y="-269.5" font-family="Helvetica,sans-Serif" font-size="10.00">ArrayList&lt; Nodes.Node &gt;</text>
</g>
<!-- Node5&#45;&gt;Node4 -->
<g id="edge4" class="edge"><title>Node5&#45;&gt;Node4</title>
<path fill="none" stroke="#9a32cd" stroke-dasharray="5,2" d="M73,-252.041C73,-239.472 73,-223.563 73,-213.841"/>
<polygon fill="#9a32cd" stroke="#9a32cd" points="69.5001,-252.372 73,-262.372 76.5001,-252.372 69.5001,-252.372"/>
<text text-anchor="middle" x="102" y="-235.5" font-family="Helvetica,sans-Serif" font-size="10.00"> myChildren</text>
</g>
</g>
</svg>
