<?xml version="1.0" encoding="UTF-8" standalone="no"?>
<!DOCTYPE svg PUBLIC "-//W3C//DTD SVG 1.1//EN"
 "http://www.w3.org/Graphics/SVG/1.1/DTD/svg11.dtd">
<!-- Generated by graphviz version 2.36.0 (20140111.2315)
 -->
<!-- Title: Nodes.turtlecommands.SetTowardsNode.update Pages: 1 -->
<svg width="582pt" height="192pt"
 viewBox="0.00 0.00 582.00 192.00" xmlns="http://www.w3.org/2000/svg" xmlns:xlink="http://www.w3.org/1999/xlink">
<g id="graph0" class="graph" transform="scale(1 1) rotate(0) translate(4 188)">
<title>Nodes.turtlecommands.SetTowardsNode.update</title>
<polygon fill="white" stroke="none" points="-4,4 -4,-188 578,-188 578,4 -4,4"/>
<!-- Node1 -->
<g id="node1" class="node"><title>Node1</title>
<polygon fill="#bfbfbf" stroke="black" points="0.5,-52 0.5,-82 149.5,-82 149.5,-52 0.5,-52"/>
<text text-anchor="start" x="8.5" y="-70" font-family="Helvetica,sans-Serif" font-size="10.00">Nodes.turtlecommands.Set</text>
<text text-anchor="middle" x="75" y="-59" font-family="Helvetica,sans-Serif" font-size="10.00">TowardsNode.update</text>
</g>
<!-- Node2 -->
<g id="node2" class="node"><title>Node2</title>
<g id="a_node2"><a xlink:href="../../de/d3e/class_turtle_view_1_1_point_converter.html#a88e94febc045d8717ec2d41522b9ebcf" target="_top" xlink:title="TurtleView.PointConverter.convert\lUserToActualPoint">
<polygon fill="white" stroke="black" points="186,-115 186,-145 362,-145 362,-115 186,-115"/>
<text text-anchor="start" x="194" y="-133" font-family="Helvetica,sans-Serif" font-size="10.00">TurtleView.PointConverter.convert</text>
<text text-anchor="middle" x="274" y="-122" font-family="Helvetica,sans-Serif" font-size="10.00">UserToActualPoint</text>
</a>
</g>
</g>
<!-- Node1&#45;&gt;Node2 -->
<g id="edge1" class="edge"><title>Node1&#45;&gt;Node2</title>
<path fill="none" stroke="midnightblue" d="M117.876,-82.0484C138.334,-89.2509 163.364,-97.8433 186,-105 193.48,-107.365 201.352,-109.758 209.177,-112.079"/>
<polygon fill="midnightblue" stroke="midnightblue" points="208.451,-115.513 219.032,-114.972 210.423,-108.797 208.451,-115.513"/>
</g>
<!-- Node5 -->
<g id="node5" class="node"><title>Node5</title>
<g id="a_node5"><a xlink:href="../../d1/de0/class_backend_1_1_turtle.html#a715f94909b1ba74dc9e4f9eb4fd91e10" target="_top" xlink:title="Backend.Turtle.getXCord">
<polygon fill="white" stroke="black" points="207.5,-76.5 207.5,-95.5 340.5,-95.5 340.5,-76.5 207.5,-76.5"/>
<text text-anchor="middle" x="274" y="-83.5" font-family="Helvetica,sans-Serif" font-size="10.00">Backend.Turtle.getXCord</text>
</a>
</g>
</g>
<!-- Node1&#45;&gt;Node5 -->
<g id="edge4" class="edge"><title>Node1&#45;&gt;Node5</title>
<path fill="none" stroke="midnightblue" d="M149.636,-74.1019C165.145,-75.5977 181.534,-77.1784 197.124,-78.6821"/>
<polygon fill="midnightblue" stroke="midnightblue" points="196.947,-82.1811 207.237,-79.6573 197.619,-75.2134 196.947,-82.1811"/>
</g>
<!-- Node7 -->
<g id="node7" class="node"><title>Node7</title>
<g id="a_node7"><a xlink:href="../../d1/de0/class_backend_1_1_turtle.html#a692174eccea232fc58e725cff6f50359" target="_top" xlink:title="Backend.Turtle.getYCord">
<polygon fill="white" stroke="black" points="208,-38.5 208,-57.5 340,-57.5 340,-38.5 208,-38.5"/>
<text text-anchor="middle" x="274" y="-45.5" font-family="Helvetica,sans-Serif" font-size="10.00">Backend.Turtle.getYCord</text>
</a>
</g>
</g>
<!-- Node1&#45;&gt;Node7 -->
<g id="edge6" class="edge"><title>Node1&#45;&gt;Node7</title>
<path fill="none" stroke="midnightblue" d="M149.636,-59.8981C165.324,-58.385 181.913,-56.785 197.665,-55.2658"/>
<polygon fill="midnightblue" stroke="midnightblue" points="198.259,-58.7249 207.877,-54.2809 197.587,-51.7572 198.259,-58.7249"/>
</g>
<!-- Node8 -->
<g id="node8" class="node"><title>Node8</title>
<g id="a_node8"><a xlink:href="../../d1/de0/class_backend_1_1_turtle.html#a8b2127f59e8089449229ab93a0ac8ce3" target="_top" xlink:title="Backend.Turtle.setAngle">
<polygon fill="white" stroke="black" points="208.5,-0.5 208.5,-19.5 339.5,-19.5 339.5,-0.5 208.5,-0.5"/>
<text text-anchor="middle" x="274" y="-7.5" font-family="Helvetica,sans-Serif" font-size="10.00">Backend.Turtle.setAngle</text>
</a>
</g>
</g>
<!-- Node1&#45;&gt;Node8 -->
<g id="edge8" class="edge"><title>Node1&#45;&gt;Node8</title>
<path fill="none" stroke="midnightblue" d="M115.871,-51.9582C136.602,-44.4617 162.463,-35.6108 186,-29 195.169,-26.4247 204.963,-23.9886 214.55,-21.7739"/>
<polygon fill="midnightblue" stroke="midnightblue" points="215.444,-25.1604 224.431,-19.5495 213.906,-18.3313 215.444,-25.1604"/>
</g>
<!-- Node3 -->
<g id="node3" class="node"><title>Node3</title>
<g id="a_node3"><a xlink:href="../../de/d3e/class_turtle_view_1_1_point_converter.html#ac71ac226b80010680a67fdeb56f538af" target="_top" xlink:title="TurtleView.PointConverter.convert\lUserToActualX">
<polygon fill="white" stroke="black" points="398,-154 398,-184 574,-184 574,-154 398,-154"/>
<text text-anchor="start" x="406" y="-172" font-family="Helvetica,sans-Serif" font-size="10.00">TurtleView.PointConverter.convert</text>
<text text-anchor="middle" x="486" y="-161" font-family="Helvetica,sans-Serif" font-size="10.00">UserToActualX</text>
</a>
</g>
</g>
<!-- Node2&#45;&gt;Node3 -->
<g id="edge2" class="edge"><title>Node2&#45;&gt;Node3</title>
<path fill="none" stroke="midnightblue" d="M355.891,-145.023C368.381,-147.342 381.353,-149.751 394.046,-152.108"/>
<polygon fill="midnightblue" stroke="midnightblue" points="393.68,-155.6 404.151,-153.985 394.958,-148.718 393.68,-155.6"/>
</g>
<!-- Node4 -->
<g id="node4" class="node"><title>Node4</title>
<g id="a_node4"><a xlink:href="../../de/d3e/class_turtle_view_1_1_point_converter.html#ad02a24b86b9d916f627a7a125b4de02d" target="_top" xlink:title="TurtleView.PointConverter.convert\lUserToActualY">
<polygon fill="white" stroke="black" points="398,-105 398,-135 574,-135 574,-105 398,-105"/>
<text text-anchor="start" x="406" y="-123" font-family="Helvetica,sans-Serif" font-size="10.00">TurtleView.PointConverter.convert</text>
<text text-anchor="middle" x="486" y="-112" font-family="Helvetica,sans-Serif" font-size="10.00">UserToActualY</text>
</a>
</g>
</g>
<!-- Node2&#45;&gt;Node4 -->
<g id="edge3" class="edge"><title>Node2&#45;&gt;Node4</title>
<path fill="none" stroke="midnightblue" d="M362.235,-125.846C370.567,-125.449 379.052,-125.045 387.474,-124.644"/>
<polygon fill="midnightblue" stroke="midnightblue" points="387.877,-128.129 397.699,-124.157 387.544,-121.137 387.877,-128.129"/>
</g>
<!-- Node6 -->
<g id="node6" class="node"><title>Node6</title>
<g id="a_node6"><a xlink:href="../../d1/de0/class_backend_1_1_turtle.html#a33957258db9a7205d470c5a2d22b89af" target="_top" xlink:title="Backend.Turtle.getLocation">
<polygon fill="white" stroke="black" points="413,-57.5 413,-76.5 559,-76.5 559,-57.5 413,-57.5"/>
<text text-anchor="middle" x="486" y="-64.5" font-family="Helvetica,sans-Serif" font-size="10.00">Backend.Turtle.getLocation</text>
</a>
</g>
</g>
<!-- Node5&#45;&gt;Node6 -->
<g id="edge5" class="edge"><title>Node5&#45;&gt;Node6</title>
<path fill="none" stroke="midnightblue" d="M340.582,-80.0664C360.335,-78.2792 382.266,-76.295 402.948,-74.4238"/>
<polygon fill="midnightblue" stroke="midnightblue" points="403.341,-77.9026 412.985,-73.5156 402.711,-70.931 403.341,-77.9026"/>
</g>
<!-- Node7&#45;&gt;Node6 -->
<g id="edge7" class="edge"><title>Node7&#45;&gt;Node6</title>
<path fill="none" stroke="midnightblue" d="M340.007,-53.8816C359.883,-55.6799 382.006,-57.6815 402.865,-59.5687"/>
<polygon fill="midnightblue" stroke="midnightblue" points="402.712,-63.0691 412.987,-60.4845 403.343,-56.0976 402.712,-63.0691"/>
</g>
</g>
</svg>
