<?xml version="1.0" encoding="UTF-8" standalone="no"?>
<!DOCTYPE svg PUBLIC "-//W3C//DTD SVG 1.1//EN"
 "http://www.w3.org/Graphics/SVG/1.1/DTD/svg11.dtd">
<!-- Generated by graphviz version 2.36.0 (20140111.2315)
 -->
<!-- Title: Nodes.turtlecommands.ForwardNode.update Pages: 1 -->
<svg width="1220pt" height="180pt"
 viewBox="0.00 0.00 1220.00 180.00" xmlns="http://www.w3.org/2000/svg" xmlns:xlink="http://www.w3.org/1999/xlink">
<g id="graph0" class="graph" transform="scale(1 1) rotate(0) translate(4 176)">
<title>Nodes.turtlecommands.ForwardNode.update</title>
<polygon fill="white" stroke="none" points="-4,4 -4,-176 1216,-176 1216,4 -4,4"/>
<!-- Node1 -->
<g id="node1" class="node"><title>Node1</title>
<polygon fill="#bfbfbf" stroke="black" points="0,-90 0,-120 170,-120 170,-90 0,-90"/>
<text text-anchor="start" x="8" y="-108" font-family="Helvetica,sans-Serif" font-size="10.00">Nodes.turtlecommands.Forward</text>
<text text-anchor="middle" x="85" y="-97" font-family="Helvetica,sans-Serif" font-size="10.00">Node.update</text>
</g>
<!-- Node2 -->
<g id="node2" class="node"><title>Node2</title>
<g id="a_node2"><a xlink:href="../../d1/de0/class_backend_1_1_turtle.html#ad5f5520cb6970723e121a8d17f2c0a5c" target="_top" xlink:title="Backend.Turtle.addLocation">
<polygon fill="white" stroke="black" points="208,-114.5 208,-133.5 356,-133.5 356,-114.5 208,-114.5"/>
<text text-anchor="middle" x="282" y="-121.5" font-family="Helvetica,sans-Serif" font-size="10.00">Backend.Turtle.addLocation</text>
</a>
</g>
</g>
<!-- Node1&#45;&gt;Node2 -->
<g id="edge1" class="edge"><title>Node1&#45;&gt;Node2</title>
<path fill="none" stroke="midnightblue" d="M170.112,-113.196C179.249,-114.086 188.546,-114.992 197.674,-115.881"/>
<polygon fill="midnightblue" stroke="midnightblue" points="197.597,-119.39 207.89,-116.876 198.276,-112.423 197.597,-119.39"/>
</g>
<!-- Node13 -->
<g id="node13" class="node"><title>Node13</title>
<g id="a_node13"><a xlink:href="../../d1/de0/class_backend_1_1_turtle.html#a0b22f8773c7d4f8b57177df1b8b2ae0d" target="_top" xlink:title="Backend.Turtle.nextLocation">
<polygon fill="white" stroke="black" points="206.5,-76.5 206.5,-95.5 357.5,-95.5 357.5,-76.5 206.5,-76.5"/>
<text text-anchor="middle" x="282" y="-83.5" font-family="Helvetica,sans-Serif" font-size="10.00">Backend.Turtle.nextLocation</text>
</a>
</g>
</g>
<!-- Node1&#45;&gt;Node13 -->
<g id="edge13" class="edge"><title>Node1&#45;&gt;Node13</title>
<path fill="none" stroke="midnightblue" d="M170.112,-96.8044C178.781,-95.9598 187.593,-95.1012 196.268,-94.2559"/>
<polygon fill="midnightblue" stroke="midnightblue" points="196.758,-97.7248 206.372,-93.2715 196.08,-90.7578 196.758,-97.7248"/>
</g>
<!-- Node3 -->
<g id="node3" class="node"><title>Node3</title>
<g id="a_node3"><a xlink:href="../../d5/d67/class_front_end_1_1_boundary.html#a0431407e4d8e1dee03220aba60caef08" target="_top" xlink:title="FrontEnd.Boundary.checkBoundary">
<polygon fill="white" stroke="black" points="394,-133.5 394,-152.5 576,-152.5 576,-133.5 394,-133.5"/>
<text text-anchor="middle" x="485" y="-140.5" font-family="Helvetica,sans-Serif" font-size="10.00">FrontEnd.Boundary.checkBoundary</text>
</a>
</g>
</g>
<!-- Node2&#45;&gt;Node3 -->
<g id="edge2" class="edge"><title>Node2&#45;&gt;Node3</title>
<path fill="none" stroke="midnightblue" d="M356.134,-130.913C365.119,-131.763 374.42,-132.642 383.719,-133.521"/>
<polygon fill="midnightblue" stroke="midnightblue" points="383.508,-137.016 393.793,-134.473 384.166,-130.047 383.508,-137.016"/>
</g>
<!-- Node4 -->
<g id="node4" class="node"><title>Node4</title>
<g id="a_node4"><a xlink:href="../../d1/de0/class_backend_1_1_turtle.html#a94cbed3c9c0c33e1ea8e8b3c51c26c73" target="_top" xlink:title="Backend.Turtle.move">
<polygon fill="white" stroke="black" points="427,-95.5 427,-114.5 543,-114.5 543,-95.5 427,-95.5"/>
<text text-anchor="middle" x="485" y="-102.5" font-family="Helvetica,sans-Serif" font-size="10.00">Backend.Turtle.move</text>
</a>
</g>
</g>
<!-- Node2&#45;&gt;Node4 -->
<g id="edge3" class="edge"><title>Node2&#45;&gt;Node4</title>
<path fill="none" stroke="midnightblue" d="M356.134,-117.087C376.016,-115.207 397.445,-113.182 416.97,-111.336"/>
<polygon fill="midnightblue" stroke="midnightblue" points="417.363,-114.815 426.989,-110.389 416.704,-107.846 417.363,-114.815"/>
</g>
<!-- Node5 -->
<g id="node5" class="node"><title>Node5</title>
<g id="a_node5"><a xlink:href="../../dc/ded/class_turtle_view_1_1_active_ring.html#ae05a085760f46b9f8e6927001c363e39" target="_top" xlink:title="TurtleView.ActiveRing.update">
<polygon fill="white" stroke="black" points="628,-114.5 628,-133.5 780,-133.5 780,-114.5 628,-114.5"/>
<text text-anchor="middle" x="704" y="-121.5" font-family="Helvetica,sans-Serif" font-size="10.00">TurtleView.ActiveRing.update</text>
</a>
</g>
</g>
<!-- Node4&#45;&gt;Node5 -->
<g id="edge4" class="edge"><title>Node4&#45;&gt;Node5</title>
<path fill="none" stroke="midnightblue" d="M543.014,-109.992C565.86,-111.992 592.671,-114.34 617.744,-116.535"/>
<polygon fill="midnightblue" stroke="midnightblue" points="617.726,-120.047 627.993,-117.433 618.337,-113.074 617.726,-120.047"/>
</g>
<!-- Node6 -->
<g id="node6" class="node"><title>Node6</title>
<g id="a_node6"><a xlink:href="../../d9/d38/class_turtle_view_1_1_turtle_information.html#ad65201793ce738f9c6d6e592271c14e1" target="_top" xlink:title="TurtleView.TurtleInformation.update">
<polygon fill="white" stroke="black" points="612.5,-76.5 612.5,-95.5 795.5,-95.5 795.5,-76.5 612.5,-76.5"/>
<text text-anchor="middle" x="704" y="-83.5" font-family="Helvetica,sans-Serif" font-size="10.00">TurtleView.TurtleInformation.update</text>
</a>
</g>
</g>
<!-- Node4&#45;&gt;Node6 -->
<g id="edge5" class="edge"><title>Node4&#45;&gt;Node6</title>
<path fill="none" stroke="midnightblue" d="M543.014,-100.008C561.252,-98.4111 582.016,-96.5931 602.405,-94.8078"/>
<polygon fill="midnightblue" stroke="midnightblue" points="602.716,-98.2942 612.372,-93.9352 602.105,-91.3208 602.716,-98.2942"/>
</g>
<!-- Node7 -->
<g id="node7" class="node"><title>Node7</title>
<g id="a_node7"><a xlink:href="../../d9/d38/class_turtle_view_1_1_turtle_information.html#aca65258778dade3baa31e0d5ec643b3b" target="_top" xlink:title="TurtleView.TurtleInformation.emptyInfo">
<polygon fill="white" stroke="black" points="832.5,-152.5 832.5,-171.5 1029.5,-171.5 1029.5,-152.5 832.5,-152.5"/>
<text text-anchor="middle" x="931" y="-159.5" font-family="Helvetica,sans-Serif" font-size="10.00">TurtleView.TurtleInformation.emptyInfo</text>
</a>
</g>
</g>
<!-- Node6&#45;&gt;Node7 -->
<g id="edge6" class="edge"><title>Node6&#45;&gt;Node7</title>
<path fill="none" stroke="midnightblue" d="M773.73,-95.6175C781.499,-98.0703 789.095,-101.145 796,-105 816.314,-116.339 811.605,-131.806 832,-143 836.195,-145.302 840.624,-147.329 845.19,-149.113"/>
<polygon fill="midnightblue" stroke="midnightblue" points="844.124,-152.448 854.719,-152.443 846.434,-145.84 844.124,-152.448"/>
</g>
<!-- Node8 -->
<g id="node8" class="node"><title>Node8</title>
<g id="a_node8"><a xlink:href="../../d1/de0/class_backend_1_1_turtle.html#adc7cb6cc95ee918547d2b18d8bb20183" target="_top" xlink:title="Backend.Turtle.getID">
<polygon fill="white" stroke="black" points="873.5,-114.5 873.5,-133.5 988.5,-133.5 988.5,-114.5 873.5,-114.5"/>
<text text-anchor="middle" x="931" y="-121.5" font-family="Helvetica,sans-Serif" font-size="10.00">Backend.Turtle.getID</text>
</a>
</g>
</g>
<!-- Node6&#45;&gt;Node8 -->
<g id="edge7" class="edge"><title>Node6&#45;&gt;Node8</title>
<path fill="none" stroke="midnightblue" d="M761.487,-95.54C792.379,-100.757 830.837,-107.253 863.21,-112.72"/>
<polygon fill="midnightblue" stroke="midnightblue" points="863.047,-116.242 873.49,-114.456 864.213,-109.34 863.047,-116.242"/>
</g>
<!-- Node9 -->
<g id="node9" class="node"><title>Node9</title>
<g id="a_node9"><a xlink:href="../../d9/d38/class_turtle_view_1_1_turtle_information.html#a15bd13ad05cabb76c0861d0ab42722ef" target="_top" xlink:title="TurtleView.TurtleInformation.truncate">
<polygon fill="white" stroke="black" points="836,-76.5 836,-95.5 1026,-95.5 1026,-76.5 836,-76.5"/>
<text text-anchor="middle" x="931" y="-83.5" font-family="Helvetica,sans-Serif" font-size="10.00">TurtleView.TurtleInformation.truncate</text>
</a>
</g>
</g>
<!-- Node6&#45;&gt;Node9 -->
<g id="edge8" class="edge"><title>Node6&#45;&gt;Node9</title>
<path fill="none" stroke="midnightblue" d="M795.544,-86C805.526,-86 815.749,-86 825.88,-86"/>
<polygon fill="midnightblue" stroke="midnightblue" points="825.969,-89.5001 835.969,-86 825.969,-82.5001 825.969,-89.5001"/>
</g>
<!-- Node10 -->
<g id="node10" class="node"><title>Node10</title>
<g id="a_node10"><a xlink:href="../../d1/de0/class_backend_1_1_turtle.html#a715f94909b1ba74dc9e4f9eb4fd91e10" target="_top" xlink:title="Backend.Turtle.getXCord">
<polygon fill="white" stroke="black" points="864.5,-38.5 864.5,-57.5 997.5,-57.5 997.5,-38.5 864.5,-38.5"/>
<text text-anchor="middle" x="931" y="-45.5" font-family="Helvetica,sans-Serif" font-size="10.00">Backend.Turtle.getXCord</text>
</a>
</g>
</g>
<!-- Node6&#45;&gt;Node10 -->
<g id="edge9" class="edge"><title>Node6&#45;&gt;Node10</title>
<path fill="none" stroke="midnightblue" d="M761.487,-76.46C792.379,-71.2426 830.837,-64.7475 863.21,-59.28"/>
<polygon fill="midnightblue" stroke="midnightblue" points="864.213,-62.6604 873.49,-57.5439 863.047,-55.7581 864.213,-62.6604"/>
</g>
<!-- Node12 -->
<g id="node12" class="node"><title>Node12</title>
<g id="a_node12"><a xlink:href="../../d1/de0/class_backend_1_1_turtle.html#a692174eccea232fc58e725cff6f50359" target="_top" xlink:title="Backend.Turtle.getYCord">
<polygon fill="white" stroke="black" points="865,-0.5 865,-19.5 997,-19.5 997,-0.5 865,-0.5"/>
<text text-anchor="middle" x="931" y="-7.5" font-family="Helvetica,sans-Serif" font-size="10.00">Backend.Turtle.getYCord</text>
</a>
</g>
</g>
<!-- Node6&#45;&gt;Node12 -->
<g id="edge11" class="edge"><title>Node6&#45;&gt;Node12</title>
<path fill="none" stroke="midnightblue" d="M722.988,-76.3266C747.138,-63.7161 791.68,-41.7684 832,-29 840.675,-26.2527 849.915,-23.8331 859.122,-21.7223"/>
<polygon fill="midnightblue" stroke="midnightblue" points="860.047,-25.1028 869.072,-19.5522 858.555,-18.2636 860.047,-25.1028"/>
</g>
<!-- Node11 -->
<g id="node11" class="node"><title>Node11</title>
<g id="a_node11"><a xlink:href="../../d1/de0/class_backend_1_1_turtle.html#a33957258db9a7205d470c5a2d22b89af" target="_top" xlink:title="Backend.Turtle.getLocation">
<polygon fill="white" stroke="black" points="1066,-19.5 1066,-38.5 1212,-38.5 1212,-19.5 1066,-19.5"/>
<text text-anchor="middle" x="1139" y="-26.5" font-family="Helvetica,sans-Serif" font-size="10.00">Backend.Turtle.getLocation</text>
</a>
</g>
</g>
<!-- Node10&#45;&gt;Node11 -->
<g id="edge10" class="edge"><title>Node10&#45;&gt;Node11</title>
<path fill="none" stroke="midnightblue" d="M997.746,-41.936C1016.2,-40.2344 1036.49,-38.3627 1055.77,-36.5845"/>
<polygon fill="midnightblue" stroke="midnightblue" points="1056.11,-40.0682 1065.74,-35.6645 1055.46,-33.0978 1056.11,-40.0682"/>
</g>
<!-- Node12&#45;&gt;Node11 -->
<g id="edge12" class="edge"><title>Node12&#45;&gt;Node11</title>
<path fill="none" stroke="midnightblue" d="M997.18,-16.0117C1015.75,-17.7245 1036.22,-19.6129 1055.67,-21.4067"/>
<polygon fill="midnightblue" stroke="midnightblue" points="1055.45,-24.9014 1065.73,-22.3347 1056.1,-17.931 1055.45,-24.9014"/>
</g>
</g>
</svg>
