<?xml version="1.0" encoding="UTF-8" standalone="no"?>
<!DOCTYPE svg PUBLIC "-//W3C//DTD SVG 1.1//EN"
 "http://www.w3.org/Graphics/SVG/1.1/DTD/svg11.dtd">
<!-- Generated by graphviz version 2.36.0 (20140111.2315)
 -->
<!-- Title: Nodes.math.TwoChildNode Pages: 1 -->
<svg width="171pt" height="232pt"
 viewBox="0.00 0.00 171.00 232.00" xmlns="http://www.w3.org/2000/svg" xmlns:xlink="http://www.w3.org/1999/xlink">
<g id="graph0" class="graph" transform="scale(1 1) rotate(0) translate(4 228)">
<title>Nodes.math.TwoChildNode</title>
<polygon fill="white" stroke="none" points="-4,4 -4,-228 167,-228 167,4 -4,4"/>
<!-- Node1 -->
<g id="node1" class="node"><title>Node1</title>
<polygon fill="#bfbfbf" stroke="black" points="0,-0.5 0,-19.5 144,-19.5 144,-0.5 0,-0.5"/>
<text text-anchor="middle" x="72" y="-7.5" font-family="Helvetica,sans-Serif" font-size="10.00">Nodes.math.TwoChildNode</text>
</g>
<!-- Node2 -->
<g id="node2" class="node"><title>Node2</title>
<g id="a_node2"><a xlink:href="../../de/d80/class_nodes_1_1math_1_1_math_node.html" target="_top" xlink:title="Nodes.math.MathNode">
<polygon fill="white" stroke="black" points="8,-58.5 8,-77.5 136,-77.5 136,-58.5 8,-58.5"/>
<text text-anchor="middle" x="72" y="-65.5" font-family="Helvetica,sans-Serif" font-size="10.00">Nodes.math.MathNode</text>
</a>
</g>
</g>
<!-- Node2&#45;&gt;Node1 -->
<g id="edge1" class="edge"><title>Node2&#45;&gt;Node1</title>
<path fill="none" stroke="midnightblue" d="M72,-47.953C72,-38.2875 72,-27.0312 72,-19.5052"/>
<polygon fill="midnightblue" stroke="midnightblue" points="68.5001,-48.25 72,-58.25 75.5001,-48.25 68.5001,-48.25"/>
</g>
<!-- Node3 -->
<g id="node3" class="node"><title>Node3</title>
<g id="a_node3"><a xlink:href="../../df/dac/class_nodes_1_1_node.html" target="_top" xlink:title="Nodes.Node">
<polygon fill="white" stroke="black" points="34,-136.5 34,-155.5 110,-155.5 110,-136.5 34,-136.5"/>
<text text-anchor="middle" x="72" y="-143.5" font-family="Helvetica,sans-Serif" font-size="10.00">Nodes.Node</text>
</a>
</g>
</g>
<!-- Node3&#45;&gt;Node2 -->
<g id="edge2" class="edge"><title>Node3&#45;&gt;Node2</title>
<path fill="none" stroke="midnightblue" d="M70.4399,-126.382C70.2572,-123.575 70.1003,-120.713 70,-118 69.6386,-108.229 69.6386,-105.771 70,-96 70.2293,-89.7998 70.7539,-82.8151 71.2083,-77.5033"/>
<polygon fill="midnightblue" stroke="midnightblue" points="66.9607,-126.791 71.2083,-136.497 73.9406,-126.26 66.9607,-126.791"/>
</g>
<!-- Node3&#45;&gt;Node2 -->
<g id="edge5" class="edge"><title>Node3&#45;&gt;Node2</title>
<path fill="none" stroke="#9a32cd" stroke-dasharray="5,2" d="M72,-126.224C72,-110.697 72,-89.3582 72,-77.6165"/>
<polygon fill="#9a32cd" stroke="#9a32cd" points="68.5001,-126.282 72,-136.282 75.5001,-126.282 68.5001,-126.282"/>
<text text-anchor="middle" x="84.5" y="-110" font-family="Helvetica,sans-Serif" font-size="10.00"> right</text>
<text text-anchor="middle" x="84.5" y="-99" font-family="Helvetica,sans-Serif" font-size="10.00">left</text>
</g>
<!-- Node3&#45;&gt;Node3 -->
<g id="edge4" class="edge"><title>Node3&#45;&gt;Node3</title>
<path fill="none" stroke="#9a32cd" stroke-dasharray="5,2" d="M120.289,-151.176C125.006,-150.133 128,-148.407 128,-146 128,-142.148 120.335,-140.042 110.214,-139.681"/>
<polygon fill="#9a32cd" stroke="#9a32cd" points="119.756,-147.714 110.214,-152.319 120.545,-154.67 119.756,-147.714"/>
<text text-anchor="middle" x="145.5" y="-143.5" font-family="Helvetica,sans-Serif" font-size="10.00"> parent</text>
</g>
<!-- Node4 -->
<g id="node4" class="node"><title>Node4</title>
<polygon fill="white" stroke="#bfbfbf" points="2,-204.5 2,-223.5 142,-223.5 142,-204.5 2,-204.5"/>
<text text-anchor="middle" x="72" y="-211.5" font-family="Helvetica,sans-Serif" font-size="10.00">ArrayList&lt; Nodes.Node &gt;</text>
</g>
<!-- Node4&#45;&gt;Node3 -->
<g id="edge3" class="edge"><title>Node4&#45;&gt;Node3</title>
<path fill="none" stroke="#9a32cd" stroke-dasharray="5,2" d="M72,-194.041C72,-181.472 72,-165.563 72,-155.841"/>
<polygon fill="#9a32cd" stroke="#9a32cd" points="68.5001,-194.372 72,-204.372 75.5001,-194.372 68.5001,-194.372"/>
<text text-anchor="middle" x="101" y="-177.5" font-family="Helvetica,sans-Serif" font-size="10.00"> myChildren</text>
</g>
</g>
</svg>
