<?xml version="1.0" encoding="UTF-8" standalone="no"?>
<!DOCTYPE svg PUBLIC "-//W3C//DTD SVG 1.1//EN"
 "http://www.w3.org/Graphics/SVG/1.1/DTD/svg11.dtd">
<!-- Generated by graphviz version 2.36.0 (20140111.2315)
 -->
<!-- Title: FrontEnd.HistoryBox.addEntry Pages: 1 -->
<svg width="896pt" height="38pt"
 viewBox="0.00 0.00 896.00 38.00" xmlns="http://www.w3.org/2000/svg" xmlns:xlink="http://www.w3.org/1999/xlink">
<g id="graph0" class="graph" transform="scale(1 1) rotate(0) translate(4 34)">
<title>FrontEnd.HistoryBox.addEntry</title>
<polygon fill="white" stroke="none" points="-4,4 -4,-34 892,-34 892,4 -4,4"/>
<!-- Node1 -->
<g id="node1" class="node"><title>Node1</title>
<polygon fill="#bfbfbf" stroke="black" points="0.5,-5.5 0.5,-24.5 159.5,-24.5 159.5,-5.5 0.5,-5.5"/>
<text text-anchor="middle" x="80" y="-12.5" font-family="Helvetica,sans-Serif" font-size="10.00">FrontEnd.HistoryBox.addEntry</text>
</g>
<!-- Node2 -->
<g id="node2" class="node"><title>Node2</title>
<g id="a_node2"><a xlink:href="../../df/dec/class_front_end_1_1_view.html#a0dc533900f63d1fda3d421c4252b497d" target="_top" xlink:title="FrontEnd.View.addHistory\lEntry">
<polygon fill="white" stroke="black" points="196.5,-0 196.5,-30 333.5,-30 333.5,-0 196.5,-0"/>
<text text-anchor="start" x="204.5" y="-18" font-family="Helvetica,sans-Serif" font-size="10.00">FrontEnd.View.addHistory</text>
<text text-anchor="middle" x="265" y="-7" font-family="Helvetica,sans-Serif" font-size="10.00">Entry</text>
</a>
</g>
</g>
<!-- Node1&#45;&gt;Node2 -->
<g id="edge1" class="edge"><title>Node1&#45;&gt;Node2</title>
<path fill="none" stroke="midnightblue" d="M169.735,-15C178.678,-15 187.657,-15 196.329,-15"/>
<polygon fill="midnightblue" stroke="midnightblue" points="169.671,-11.5001 159.671,-15 169.67,-18.5001 169.671,-11.5001"/>
</g>
<!-- Node3 -->
<g id="node3" class="node"><title>Node3</title>
<g id="a_node3"><a xlink:href="../../dd/d2e/class_front_end_1_1_controller.html#a0ad45a00bc5c4475d3b1c6a4dbf74a91" target="_top" xlink:title="FrontEnd.Controller.interpret">
<polygon fill="white" stroke="black" points="370,-5.5 370,-24.5 522,-24.5 522,-5.5 370,-5.5"/>
<text text-anchor="middle" x="446" y="-12.5" font-family="Helvetica,sans-Serif" font-size="10.00">FrontEnd.Controller.interpret</text>
</a>
</g>
</g>
<!-- Node2&#45;&gt;Node3 -->
<g id="edge2" class="edge"><title>Node2&#45;&gt;Node3</title>
<path fill="none" stroke="midnightblue" d="M343.721,-15C352.355,-15 361.139,-15 369.742,-15"/>
<polygon fill="midnightblue" stroke="midnightblue" points="343.672,-11.5001 333.672,-15 343.672,-18.5001 343.672,-11.5001"/>
</g>
<!-- Node4 -->
<g id="node4" class="node"><title>Node4</title>
<g id="a_node4"><a xlink:href="../../dd/d2e/class_front_end_1_1_controller.html#a41885f349a8f334750e26d685a8981d2" target="_top" xlink:title="FrontEnd.Controller.execute\lCommand">
<polygon fill="white" stroke="black" points="558.5,-0 558.5,-30 707.5,-30 707.5,-0 558.5,-0"/>
<text text-anchor="start" x="566.5" y="-18" font-family="Helvetica,sans-Serif" font-size="10.00">FrontEnd.Controller.execute</text>
<text text-anchor="middle" x="633" y="-7" font-family="Helvetica,sans-Serif" font-size="10.00">Command</text>
</a>
</g>
</g>
<!-- Node3&#45;&gt;Node4 -->
<g id="edge3" class="edge"><title>Node3&#45;&gt;Node4</title>
<path fill="none" stroke="midnightblue" d="M532.366,-15C541.035,-15 549.788,-15 558.318,-15"/>
<polygon fill="midnightblue" stroke="midnightblue" points="532.247,-11.5001 522.247,-15 532.247,-18.5001 532.247,-11.5001"/>
</g>
<!-- Node5 -->
<g id="node5" class="node"><title>Node5</title>
<g id="a_node5"><a xlink:href="../../dd/d2e/class_front_end_1_1_controller.html#a29be9ff259428dbe97eebe3ec9a13ac5" target="_top" xlink:title="FrontEnd.Controller.update">
<polygon fill="white" stroke="black" points="744,-5.5 744,-24.5 888,-24.5 888,-5.5 744,-5.5"/>
<text text-anchor="middle" x="816" y="-12.5" font-family="Helvetica,sans-Serif" font-size="10.00">FrontEnd.Controller.update</text>
</a>
</g>
</g>
<!-- Node4&#45;&gt;Node5 -->
<g id="edge4" class="edge"><title>Node4&#45;&gt;Node5</title>
<path fill="none" stroke="midnightblue" d="M717.771,-15C726.468,-15 735.249,-15 743.789,-15"/>
<polygon fill="midnightblue" stroke="midnightblue" points="717.62,-11.5001 707.62,-15 717.62,-18.5001 717.62,-11.5001"/>
</g>
</g>
</svg>
