<?xml version="1.0" encoding="UTF-8" standalone="no"?>
<!DOCTYPE svg PUBLIC "-//W3C//DTD SVG 1.1//EN"
 "http://www.w3.org/Graphics/SVG/1.1/DTD/svg11.dtd">
<!-- Generated by graphviz version 2.36.0 (20140111.2315)
 -->
<!-- Title: FrontEnd.HistoryBox.getMostRecentCommand Pages: 1 -->
<svg width="608pt" height="38pt"
 viewBox="0.00 0.00 608.00 38.00" xmlns="http://www.w3.org/2000/svg" xmlns:xlink="http://www.w3.org/1999/xlink">
<g id="graph0" class="graph" transform="scale(1 1) rotate(0) translate(4 34)">
<title>FrontEnd.HistoryBox.getMostRecentCommand</title>
<polygon fill="white" stroke="none" points="-4,4 -4,-34 604,-34 604,4 -4,4"/>
<!-- Node1 -->
<g id="node1" class="node"><title>Node1</title>
<polygon fill="#bfbfbf" stroke="black" points="0.5,-0 0.5,-30 155.5,-30 155.5,-0 0.5,-0"/>
<text text-anchor="start" x="8.5" y="-18" font-family="Helvetica,sans-Serif" font-size="10.00">FrontEnd.HistoryBox.getMost</text>
<text text-anchor="middle" x="78" y="-7" font-family="Helvetica,sans-Serif" font-size="10.00">RecentCommand</text>
</g>
<!-- Node2 -->
<g id="node2" class="node"><title>Node2</title>
<g id="a_node2"><a xlink:href="../../df/d9c/class_front_end_1_1_command_line.html#a222e0565603b712eb8f4a0e3de313497" target="_top" xlink:title="FrontEnd.CommandLine.handle">
<polygon fill="white" stroke="black" points="192.5,-5.5 192.5,-24.5 359.5,-24.5 359.5,-5.5 192.5,-5.5"/>
<text text-anchor="middle" x="276" y="-12.5" font-family="Helvetica,sans-Serif" font-size="10.00">FrontEnd.CommandLine.handle</text>
</a>
</g>
</g>
<!-- Node1&#45;&gt;Node2 -->
<g id="edge1" class="edge"><title>Node1&#45;&gt;Node2</title>
<path fill="none" stroke="midnightblue" d="M165.857,-15C174.639,-15 183.541,-15 192.278,-15"/>
<polygon fill="midnightblue" stroke="midnightblue" points="165.621,-11.5001 155.621,-15 165.621,-18.5001 165.621,-11.5001"/>
</g>
<!-- Node3 -->
<g id="node3" class="node"><title>Node3</title>
<g id="a_node3"><a xlink:href="../../df/d9c/class_front_end_1_1_command_line.html#a690e46ec56f42191a5b6403fa1089503" target="_top" xlink:title="FrontEnd.CommandLine.CommandLine">
<polygon fill="white" stroke="black" points="396,-5.5 396,-24.5 600,-24.5 600,-5.5 396,-5.5"/>
<text text-anchor="middle" x="498" y="-12.5" font-family="Helvetica,sans-Serif" font-size="10.00">FrontEnd.CommandLine.CommandLine</text>
</a>
</g>
</g>
<!-- Node2&#45;&gt;Node3 -->
<g id="edge2" class="edge"><title>Node2&#45;&gt;Node3</title>
<path fill="none" stroke="midnightblue" d="M369.619,-15C378.268,-15 387.065,-15 395.787,-15"/>
<polygon fill="midnightblue" stroke="midnightblue" points="369.546,-11.5001 359.546,-15 369.546,-18.5001 369.546,-11.5001"/>
</g>
</g>
</svg>
