<?xml version="1.0" encoding="UTF-8" standalone="no"?>
<!DOCTYPE svg PUBLIC "-//W3C//DTD SVG 1.1//EN"
 "http://www.w3.org/Graphics/SVG/1.1/DTD/svg11.dtd">
<!-- Generated by graphviz version 2.36.0 (20140111.2315)
 -->
<!-- Title: FrontEnd.LanguageSelector.handle Pages: 1 -->
<svg width="422pt" height="77pt"
 viewBox="0.00 0.00 422.00 77.00" xmlns="http://www.w3.org/2000/svg" xmlns:xlink="http://www.w3.org/1999/xlink">
<g id="graph0" class="graph" transform="scale(1 1) rotate(0) translate(4 73)">
<title>FrontEnd.LanguageSelector.handle</title>
<polygon fill="white" stroke="none" points="-4,4 -4,-73 418,-73 418,4 -4,4"/>
<!-- Node1 -->
<g id="node1" class="node"><title>Node1</title>
<polygon fill="#bfbfbf" stroke="black" points="0.5,-22.5 0.5,-41.5 183.5,-41.5 183.5,-22.5 0.5,-22.5"/>
<text text-anchor="middle" x="92" y="-29.5" font-family="Helvetica,sans-Serif" font-size="10.00">FrontEnd.LanguageSelector.handle</text>
</g>
<!-- Node2 -->
<g id="node2" class="node"><title>Node2</title>
<g id="a_node2"><a xlink:href="../../d2/d5e/class_front_end_1_1_language_selector.html#adbde3ede46aa51e4c63beac8b353ebeb" target="_top" xlink:title="FrontEnd.LanguageSelector.root\lChildren">
<polygon fill="white" stroke="black" points="232,-39 232,-69 402,-69 402,-39 232,-39"/>
<text text-anchor="start" x="240" y="-57" font-family="Helvetica,sans-Serif" font-size="10.00">FrontEnd.LanguageSelector.root</text>
<text text-anchor="middle" x="317" y="-46" font-family="Helvetica,sans-Serif" font-size="10.00">Children</text>
</a>
</g>
</g>
<!-- Node1&#45;&gt;Node2 -->
<g id="edge1" class="edge"><title>Node1&#45;&gt;Node2</title>
<path fill="none" stroke="midnightblue" d="M183.703,-40.9482C196.262,-42.1873 209.187,-43.4624 221.808,-44.7075"/>
<polygon fill="midnightblue" stroke="midnightblue" points="221.557,-48.1996 231.852,-45.6984 222.244,-41.2335 221.557,-48.1996"/>
</g>
<!-- Node3 -->
<g id="node3" class="node"><title>Node3</title>
<g id="a_node3"><a xlink:href="../../d2/d5e/class_front_end_1_1_language_selector.html#ab9eb6b55f31c010a8bfcbd0498c10427" target="_top" xlink:title="FrontEnd.LanguageSelector.translate">
<polygon fill="white" stroke="black" points="220,-0.5 220,-19.5 414,-19.5 414,-0.5 220,-0.5"/>
<text text-anchor="middle" x="317" y="-7.5" font-family="Helvetica,sans-Serif" font-size="10.00">FrontEnd.LanguageSelector.translate</text>
</a>
</g>
</g>
<!-- Node1&#45;&gt;Node3 -->
<g id="edge2" class="edge"><title>Node1&#45;&gt;Node3</title>
<path fill="none" stroke="midnightblue" d="M183.703,-23.0518C192.283,-22.2053 201.034,-21.342 209.741,-20.4829"/>
<polygon fill="midnightblue" stroke="midnightblue" points="210.323,-23.9426 219.931,-19.4776 209.636,-16.9764 210.323,-23.9426"/>
</g>
</g>
</svg>
