<?xml version="1.0" encoding="UTF-8" standalone="no"?>
<!DOCTYPE svg PUBLIC "-//W3C//DTD SVG 1.1//EN"
 "http://www.w3.org/Graphics/SVG/1.1/DTD/svg11.dtd">
<!-- Generated by graphviz version 2.36.0 (20140111.2315)
 -->
<!-- Title: FrontEnd.LanguageSelector.LanguageSelector Pages: 1 -->
<svg width="610pt" height="77pt"
 viewBox="0.00 0.00 610.00 77.00" xmlns="http://www.w3.org/2000/svg" xmlns:xlink="http://www.w3.org/1999/xlink">
<g id="graph0" class="graph" transform="scale(1 1) rotate(0) translate(4 73)">
<title>FrontEnd.LanguageSelector.LanguageSelector</title>
<polygon fill="white" stroke="none" points="-4,4 -4,-73 606,-73 606,4 -4,4"/>
<!-- Node1 -->
<g id="node1" class="node"><title>Node1</title>
<polygon fill="#bfbfbf" stroke="black" points="0.5,-17 0.5,-47 151.5,-47 151.5,-17 0.5,-17"/>
<text text-anchor="start" x="8.5" y="-35" font-family="Helvetica,sans-Serif" font-size="10.00">FrontEnd.LanguageSelector.</text>
<text text-anchor="middle" x="76" y="-24" font-family="Helvetica,sans-Serif" font-size="10.00">LanguageSelector</text>
</g>
<!-- Node2 -->
<g id="node2" class="node"><title>Node2</title>
<g id="a_node2"><a xlink:href="../../d2/d5e/class_front_end_1_1_language_selector.html#afeb835ac12772a32ce31f6d5afe80723" target="_top" xlink:title="FrontEnd.LanguageSelector.handle">
<polygon fill="white" stroke="black" points="188.5,-22.5 188.5,-41.5 371.5,-41.5 371.5,-22.5 188.5,-22.5"/>
<text text-anchor="middle" x="280" y="-29.5" font-family="Helvetica,sans-Serif" font-size="10.00">FrontEnd.LanguageSelector.handle</text>
</a>
</g>
</g>
<!-- Node1&#45;&gt;Node2 -->
<g id="edge1" class="edge"><title>Node1&#45;&gt;Node2</title>
<path fill="none" stroke="midnightblue" d="M151.643,-32C160.299,-32 169.232,-32 178.164,-32"/>
<polygon fill="midnightblue" stroke="midnightblue" points="178.232,-35.5001 188.232,-32 178.232,-28.5001 178.232,-35.5001"/>
</g>
<!-- Node3 -->
<g id="node3" class="node"><title>Node3</title>
<g id="a_node3"><a xlink:href="../../d2/d5e/class_front_end_1_1_language_selector.html#adbde3ede46aa51e4c63beac8b353ebeb" target="_top" xlink:title="FrontEnd.LanguageSelector.root\lChildren">
<polygon fill="white" stroke="black" points="420,-39 420,-69 590,-69 590,-39 420,-39"/>
<text text-anchor="start" x="428" y="-57" font-family="Helvetica,sans-Serif" font-size="10.00">FrontEnd.LanguageSelector.root</text>
<text text-anchor="middle" x="505" y="-46" font-family="Helvetica,sans-Serif" font-size="10.00">Children</text>
</a>
</g>
</g>
<!-- Node2&#45;&gt;Node3 -->
<g id="edge2" class="edge"><title>Node2&#45;&gt;Node3</title>
<path fill="none" stroke="midnightblue" d="M371.703,-40.9482C384.262,-42.1873 397.187,-43.4624 409.808,-44.7075"/>
<polygon fill="midnightblue" stroke="midnightblue" points="409.557,-48.1996 419.852,-45.6984 410.244,-41.2335 409.557,-48.1996"/>
</g>
<!-- Node4 -->
<g id="node4" class="node"><title>Node4</title>
<g id="a_node4"><a xlink:href="../../d2/d5e/class_front_end_1_1_language_selector.html#ab9eb6b55f31c010a8bfcbd0498c10427" target="_top" xlink:title="FrontEnd.LanguageSelector.translate">
<polygon fill="white" stroke="black" points="408,-0.5 408,-19.5 602,-19.5 602,-0.5 408,-0.5"/>
<text text-anchor="middle" x="505" y="-7.5" font-family="Helvetica,sans-Serif" font-size="10.00">FrontEnd.LanguageSelector.translate</text>
</a>
</g>
</g>
<!-- Node2&#45;&gt;Node4 -->
<g id="edge3" class="edge"><title>Node2&#45;&gt;Node4</title>
<path fill="none" stroke="midnightblue" d="M371.703,-23.0518C380.283,-22.2053 389.034,-21.342 397.741,-20.4829"/>
<polygon fill="midnightblue" stroke="midnightblue" points="398.323,-23.9426 407.931,-19.4776 397.636,-16.9764 398.323,-23.9426"/>
</g>
</g>
</svg>
