<?xml version="1.0" encoding="UTF-8" standalone="no"?>
<!DOCTYPE svg PUBLIC "-//W3C//DTD SVG 1.1//EN"
 "http://www.w3.org/Graphics/SVG/1.1/DTD/svg11.dtd">
<!-- Generated by graphviz version 2.36.0 (20140111.2315)
 -->
<!-- Title: FrontEnd.LanguageSelector.translate Pages: 1 -->
<svg width="610pt" height="38pt"
 viewBox="0.00 0.00 610.00 38.00" xmlns="http://www.w3.org/2000/svg" xmlns:xlink="http://www.w3.org/1999/xlink">
<g id="graph0" class="graph" transform="scale(1 1) rotate(0) translate(4 34)">
<title>FrontEnd.LanguageSelector.translate</title>
<polygon fill="white" stroke="none" points="-4,4 -4,-34 606,-34 606,4 -4,4"/>
<!-- Node1 -->
<g id="node1" class="node"><title>Node1</title>
<polygon fill="#bfbfbf" stroke="black" points="0,-5.5 0,-24.5 194,-24.5 194,-5.5 0,-5.5"/>
<text text-anchor="middle" x="97" y="-12.5" font-family="Helvetica,sans-Serif" font-size="10.00">FrontEnd.LanguageSelector.translate</text>
</g>
<!-- Node2 -->
<g id="node2" class="node"><title>Node2</title>
<g id="a_node2"><a xlink:href="../../d2/d5e/class_front_end_1_1_language_selector.html#afeb835ac12772a32ce31f6d5afe80723" target="_top" xlink:title="FrontEnd.LanguageSelector.handle">
<polygon fill="white" stroke="black" points="230.5,-5.5 230.5,-24.5 413.5,-24.5 413.5,-5.5 230.5,-5.5"/>
<text text-anchor="middle" x="322" y="-12.5" font-family="Helvetica,sans-Serif" font-size="10.00">FrontEnd.LanguageSelector.handle</text>
</a>
</g>
</g>
<!-- Node1&#45;&gt;Node2 -->
<g id="edge1" class="edge"><title>Node1&#45;&gt;Node2</title>
<path fill="none" stroke="midnightblue" d="M204.38,-15C213.087,-15 221.836,-15 230.414,-15"/>
<polygon fill="midnightblue" stroke="midnightblue" points="204.19,-11.5001 194.19,-15 204.19,-18.5001 204.19,-11.5001"/>
</g>
<!-- Node3 -->
<g id="node3" class="node"><title>Node3</title>
<g id="a_node3"><a xlink:href="../../d2/d5e/class_front_end_1_1_language_selector.html#aaa4cf6e25947c2bc521e56b94787e291" target="_top" xlink:title="FrontEnd.LanguageSelector.\lLanguageSelector">
<polygon fill="white" stroke="black" points="450.5,-0 450.5,-30 601.5,-30 601.5,-0 450.5,-0"/>
<text text-anchor="start" x="458.5" y="-18" font-family="Helvetica,sans-Serif" font-size="10.00">FrontEnd.LanguageSelector.</text>
<text text-anchor="middle" x="526" y="-7" font-family="Helvetica,sans-Serif" font-size="10.00">LanguageSelector</text>
</a>
</g>
</g>
<!-- Node2&#45;&gt;Node3 -->
<g id="edge2" class="edge"><title>Node2&#45;&gt;Node3</title>
<path fill="none" stroke="midnightblue" d="M423.757,-15C432.715,-15 441.675,-15 450.356,-15"/>
<polygon fill="midnightblue" stroke="midnightblue" points="423.66,-11.5001 413.66,-15 423.66,-18.5001 423.66,-11.5001"/>
</g>
</g>
</svg>
