<?xml version="1.0" encoding="UTF-8" standalone="no"?>
<!DOCTYPE svg PUBLIC "-//W3C//DTD SVG 1.1//EN"
 "http://www.w3.org/Graphics/SVG/1.1/DTD/svg11.dtd">
<!-- Generated by graphviz version 2.36.0 (20140111.2315)
 -->
<!-- Title: FrontEnd.LanguageSelector.rootChildren Pages: 1 -->
<svg width="586pt" height="38pt"
 viewBox="0.00 0.00 586.00 38.00" xmlns="http://www.w3.org/2000/svg" xmlns:xlink="http://www.w3.org/1999/xlink">
<g id="graph0" class="graph" transform="scale(1 1) rotate(0) translate(4 34)">
<title>FrontEnd.LanguageSelector.rootChildren</title>
<polygon fill="white" stroke="none" points="-4,4 -4,-34 582,-34 582,4 -4,4"/>
<!-- Node1 -->
<g id="node1" class="node"><title>Node1</title>
<polygon fill="#bfbfbf" stroke="black" points="0,-0 0,-30 170,-30 170,-0 0,-0"/>
<text text-anchor="start" x="8" y="-18" font-family="Helvetica,sans-Serif" font-size="10.00">FrontEnd.LanguageSelector.root</text>
<text text-anchor="middle" x="85" y="-7" font-family="Helvetica,sans-Serif" font-size="10.00">Children</text>
</g>
<!-- Node2 -->
<g id="node2" class="node"><title>Node2</title>
<g id="a_node2"><a xlink:href="../../d2/d5e/class_front_end_1_1_language_selector.html#afeb835ac12772a32ce31f6d5afe80723" target="_top" xlink:title="FrontEnd.LanguageSelector.handle">
<polygon fill="white" stroke="black" points="206.5,-5.5 206.5,-24.5 389.5,-24.5 389.5,-5.5 206.5,-5.5"/>
<text text-anchor="middle" x="298" y="-12.5" font-family="Helvetica,sans-Serif" font-size="10.00">FrontEnd.LanguageSelector.handle</text>
</a>
</g>
</g>
<!-- Node1&#45;&gt;Node2 -->
<g id="edge1" class="edge"><title>Node1&#45;&gt;Node2</title>
<path fill="none" stroke="midnightblue" d="M180.352,-15C188.964,-15 197.677,-15 206.256,-15"/>
<polygon fill="midnightblue" stroke="midnightblue" points="180.302,-11.5001 170.302,-15 180.302,-18.5001 180.302,-11.5001"/>
</g>
<!-- Node3 -->
<g id="node3" class="node"><title>Node3</title>
<g id="a_node3"><a xlink:href="../../d2/d5e/class_front_end_1_1_language_selector.html#aaa4cf6e25947c2bc521e56b94787e291" target="_top" xlink:title="FrontEnd.LanguageSelector.\lLanguageSelector">
<polygon fill="white" stroke="black" points="426.5,-0 426.5,-30 577.5,-30 577.5,-0 426.5,-0"/>
<text text-anchor="start" x="434.5" y="-18" font-family="Helvetica,sans-Serif" font-size="10.00">FrontEnd.LanguageSelector.</text>
<text text-anchor="middle" x="502" y="-7" font-family="Helvetica,sans-Serif" font-size="10.00">LanguageSelector</text>
</a>
</g>
</g>
<!-- Node2&#45;&gt;Node3 -->
<g id="edge2" class="edge"><title>Node2&#45;&gt;Node3</title>
<path fill="none" stroke="midnightblue" d="M399.757,-15C408.715,-15 417.675,-15 426.356,-15"/>
<polygon fill="midnightblue" stroke="midnightblue" points="399.66,-11.5001 389.66,-15 399.66,-18.5001 399.66,-11.5001"/>
</g>
</g>
</svg>
