<?xml version="1.0" encoding="UTF-8" standalone="no"?>
<!DOCTYPE svg PUBLIC "-//W3C//DTD SVG 1.1//EN"
 "http://www.w3.org/Graphics/SVG/1.1/DTD/svg11.dtd">
<!-- Generated by graphviz version 2.36.0 (20140111.2315)
 -->
<!-- Title: FrontEnd.LanguageSelector.getCurrentLanguage Pages: 1 -->
<svg width="926pt" height="38pt"
 viewBox="0.00 0.00 926.00 38.00" xmlns="http://www.w3.org/2000/svg" xmlns:xlink="http://www.w3.org/1999/xlink">
<g id="graph0" class="graph" transform="scale(1 1) rotate(0) translate(4 34)">
<title>FrontEnd.LanguageSelector.getCurrentLanguage</title>
<polygon fill="white" stroke="none" points="-4,4 -4,-34 922,-34 922,4 -4,4"/>
<!-- Node1 -->
<g id="node1" class="node"><title>Node1</title>
<polygon fill="#bfbfbf" stroke="black" points="0.5,-0 0.5,-30 167.5,-30 167.5,-0 0.5,-0"/>
<text text-anchor="start" x="8.5" y="-18" font-family="Helvetica,sans-Serif" font-size="10.00">FrontEnd.LanguageSelector.get</text>
<text text-anchor="middle" x="84" y="-7" font-family="Helvetica,sans-Serif" font-size="10.00">CurrentLanguage</text>
</g>
<!-- Node2 -->
<g id="node2" class="node"><title>Node2</title>
<g id="a_node2"><a xlink:href="../../df/d9f/class_front_end_commands_1_1_save_workspace.html#addc4984b8014f4063d1f4a0fdda84667" target="_top" xlink:title="FrontEndCommands.SaveWorkspace.write\lSettingsToFile">
<polygon fill="white" stroke="black" points="204,-0 204,-30 422,-30 422,-0 204,-0"/>
<text text-anchor="start" x="212" y="-18" font-family="Helvetica,sans-Serif" font-size="10.00">FrontEndCommands.SaveWorkspace.write</text>
<text text-anchor="middle" x="313" y="-7" font-family="Helvetica,sans-Serif" font-size="10.00">SettingsToFile</text>
</a>
</g>
</g>
<!-- Node1&#45;&gt;Node2 -->
<g id="edge1" class="edge"><title>Node1&#45;&gt;Node2</title>
<path fill="none" stroke="midnightblue" d="M177.643,-15C186.28,-15 195.083,-15 203.843,-15"/>
<polygon fill="midnightblue" stroke="midnightblue" points="177.594,-11.5001 167.594,-15 177.594,-18.5001 177.594,-11.5001"/>
</g>
<!-- Node3 -->
<g id="node3" class="node"><title>Node3</title>
<g id="a_node3"><a xlink:href="../../df/d9f/class_front_end_commands_1_1_save_workspace.html#a16a3847164059949f1b20569273f9caf" target="_top" xlink:title="FrontEndCommands.SaveWorkspace.handle">
<polygon fill="white" stroke="black" points="458.5,-5.5 458.5,-24.5 685.5,-24.5 685.5,-5.5 458.5,-5.5"/>
<text text-anchor="middle" x="572" y="-12.5" font-family="Helvetica,sans-Serif" font-size="10.00">FrontEndCommands.SaveWorkspace.handle</text>
</a>
</g>
</g>
<!-- Node2&#45;&gt;Node3 -->
<g id="edge2" class="edge"><title>Node2&#45;&gt;Node3</title>
<path fill="none" stroke="midnightblue" d="M432.363,-15C441.014,-15 449.726,-15 458.342,-15"/>
<polygon fill="midnightblue" stroke="midnightblue" points="432.246,-11.5001 422.246,-15 432.246,-18.5001 432.246,-11.5001"/>
</g>
<!-- Node4 -->
<g id="node4" class="node"><title>Node4</title>
<g id="a_node4"><a xlink:href="../../df/d9f/class_front_end_commands_1_1_save_workspace.html#aecb7b65f2e50a9a48f96459bdb56fe2a" target="_top" xlink:title="FrontEndCommands.SaveWorkspace.\lSaveWorkspace">
<polygon fill="white" stroke="black" points="722.5,-0 722.5,-30 917.5,-30 917.5,-0 722.5,-0"/>
<text text-anchor="start" x="730.5" y="-18" font-family="Helvetica,sans-Serif" font-size="10.00">FrontEndCommands.SaveWorkspace.</text>
<text text-anchor="middle" x="820" y="-7" font-family="Helvetica,sans-Serif" font-size="10.00">SaveWorkspace</text>
</a>
</g>
</g>
<!-- Node3&#45;&gt;Node4 -->
<g id="edge3" class="edge"><title>Node3&#45;&gt;Node4</title>
<path fill="none" stroke="midnightblue" d="M695.649,-15C704.594,-15 713.541,-15 722.302,-15"/>
<polygon fill="midnightblue" stroke="midnightblue" points="695.561,-11.5001 685.561,-15 695.561,-18.5001 695.561,-11.5001"/>
</g>
</g>
</svg>
