<?xml version="1.0" encoding="UTF-8" standalone="no"?>
<!DOCTYPE svg PUBLIC "-//W3C//DTD SVG 1.1//EN"
 "http://www.w3.org/Graphics/SVG/1.1/DTD/svg11.dtd">
<!-- Generated by graphviz version 2.36.0 (20140111.2315)
 -->
<!-- Title: Nodes.math.TwoChildNode Pages: 1 -->
<!--zoomable 218 -->
<svg id="main" version="1.1" xmlns="http://www.w3.org/2000/svg" xmlns:xlink="http://www.w3.org/1999/xlink" xml:space="preserve" onload="init(evt)">
<style type="text/css"><![CDATA[
.edge:hover path { stroke: red; }
.edge:hover polygon { stroke: red; fill: red; }
]]></style>
<script type="text/javascript"><![CDATA[
var edges = document.getElementsByTagName('g');
if (edges && edges.length) {
  for (var i=0;i<edges.length;i++) {
    if (edges[i].id.substr(0,4)=='edge') {
      edges[i].setAttribute('class','edge');
    }
  }
}
]]></script>
        <defs>
                <circle id="rim" cx="0" cy="0" r="7"/>
                <circle id="rim2" cx="0" cy="0" r="3.5"/>
                <g id="zoomPlus">
                        <use xlink:href="#rim" fill="#404040">
                                <set attributeName="fill" to="#808080" begin="zoomplus.mouseover" end="zoomplus.mouseout"/>
                        </use>
                        <path d="M-4,0h8M0,-4v8" fill="none" stroke="white" stroke-width="1.5" pointer-events="none"/>
                </g>
                <g id="zoomMin">
                        <use xlink:href="#rim" fill="#404040">
                                <set attributeName="fill" to="#808080" begin="zoomminus.mouseover" end="zoomminus.mouseout"/>
                        </use>
                        <path d="M-4,0h8" fill="none" stroke="white" stroke-width="1.5" pointer-events="none"/>
                </g>
                <g id="dirArrow">
                        <path fill="none" stroke="white" stroke-width="1.5" d="M0,-3.0v7 M-2.5,-0.5L0,-3.0L2.5,-0.5"/>
                </g>
               <g id="resetDef">
                       <use xlink:href="#rim2" fill="#404040">
                               <set attributeName="fill" to="#808080" begin="reset.mouseover" end="reset.mouseout"/>
                       </use>
               </g>
        </defs>

<script type="text/javascript">
var viewWidth = 620;
var viewHeight = 218;
var sectionId = 'dynsection-0';
</script>
<script xlink:href="../../svgpan.js"/>
<svg id="graph" class="graph">
<g id="viewport">
<title>Nodes.math.TwoChildNode</title>
<polygon fill="white" stroke="none" points="-4,4 -4,-214 616,-214 616,4 -4,4"/>
<!-- Node1 -->
<g id="node1" class="node"><title>Node1</title>
<polygon fill="#bfbfbf" stroke="black" points="276,-95.5 276,-114.5 420,-114.5 420,-95.5 276,-95.5"/>
<text text-anchor="middle" x="348" y="-102.5" font-family="Helvetica,sans-Serif" font-size="10.00">Nodes.math.TwoChildNode</text>
</g>
<!-- Node4 -->
<g id="node4" class="node"><title>Node4</title>
<g id="a_node4"><a xlink:href="../../d4/de2/class_nodes_1_1math_1_1_difference_node.html" target="_top" xlink:title="Nodes.math.DifferenceNode">
<polygon fill="white" stroke="black" points="457.5,-190.5 457.5,-209.5 610.5,-209.5 610.5,-190.5 457.5,-190.5"/>
<text text-anchor="middle" x="534" y="-197.5" font-family="Helvetica,sans-Serif" font-size="10.00">Nodes.math.DifferenceNode</text>
</a>
</g>
</g>
<!-- Node1&#45;&gt;Node4 -->
<g id="edge3" class="edge"><title>Node1&#45;&gt;Node4</title>
<path fill="none" stroke="midnightblue" d="M367.503,-121.478C387.828,-138.742 422.108,-165.466 456,-181 464.261,-184.786 473.381,-187.883 482.367,-190.394"/>
<polygon fill="midnightblue" stroke="midnightblue" points="369.541,-118.613 359.688,-114.718 364.961,-123.907 369.541,-118.613"/>
</g>
<!-- Node5 -->
<g id="node5" class="node"><title>Node5</title>
<g id="a_node5"><a xlink:href="../../db/d10/class_nodes_1_1math_1_1_power_node.html" target="_top" xlink:title="Nodes.math.PowerNode">
<polygon fill="white" stroke="black" points="467.5,-152.5 467.5,-171.5 600.5,-171.5 600.5,-152.5 467.5,-152.5"/>
<text text-anchor="middle" x="534" y="-159.5" font-family="Helvetica,sans-Serif" font-size="10.00">Nodes.math.PowerNode</text>
</a>
</g>
</g>
<!-- Node1&#45;&gt;Node5 -->
<g id="edge4" class="edge"><title>Node1&#45;&gt;Node5</title>
<path fill="none" stroke="midnightblue" d="M383.237,-118.137C404.097,-125.896 431.388,-135.613 456,-143 467.342,-146.404 479.753,-149.665 491.235,-152.495"/>
<polygon fill="midnightblue" stroke="midnightblue" points="384.439,-114.85 373.847,-114.615 381.981,-121.404 384.439,-114.85"/>
</g>
<!-- Node6 -->
<g id="node6" class="node"><title>Node6</title>
<g id="a_node6"><a xlink:href="../../d8/d52/class_nodes_1_1math_1_1_product_node.html" target="_top" xlink:title="Nodes.math.ProductNode">
<polygon fill="white" stroke="black" points="463.5,-114.5 463.5,-133.5 604.5,-133.5 604.5,-114.5 463.5,-114.5"/>
<text text-anchor="middle" x="534" y="-121.5" font-family="Helvetica,sans-Serif" font-size="10.00">Nodes.math.ProductNode</text>
</a>
</g>
</g>
<!-- Node1&#45;&gt;Node6 -->
<g id="edge5" class="edge"><title>Node1&#45;&gt;Node6</title>
<path fill="none" stroke="midnightblue" d="M430.19,-113.384C441.219,-114.523 452.458,-115.683 463.261,-116.799"/>
<polygon fill="midnightblue" stroke="midnightblue" points="430.446,-109.892 420.139,-112.346 429.727,-116.855 430.446,-109.892"/>
</g>
<!-- Node7 -->
<g id="node7" class="node"><title>Node7</title>
<g id="a_node7"><a xlink:href="../../df/d7f/class_nodes_1_1math_1_1_quotient_node.html" target="_top" xlink:title="Nodes.math.QuotientNode">
<polygon fill="white" stroke="black" points="461,-76.5 461,-95.5 607,-95.5 607,-76.5 461,-76.5"/>
<text text-anchor="middle" x="534" y="-83.5" font-family="Helvetica,sans-Serif" font-size="10.00">Nodes.math.QuotientNode</text>
</a>
</g>
</g>
<!-- Node1&#45;&gt;Node7 -->
<g id="edge6" class="edge"><title>Node1&#45;&gt;Node7</title>
<path fill="none" stroke="midnightblue" d="M430.248,-96.6103C440.435,-95.5583 450.8,-94.488 460.835,-93.4518"/>
<polygon fill="midnightblue" stroke="midnightblue" points="429.727,-93.1454 420.139,-97.6541 430.446,-100.108 429.727,-93.1454"/>
</g>
<!-- Node8 -->
<g id="node8" class="node"><title>Node8</title>
<g id="a_node8"><a xlink:href="../../d9/db0/class_nodes_1_1math_1_1_remainder_node.html" target="_top" xlink:title="Nodes.math.RemainderNode">
<polygon fill="white" stroke="black" points="456.5,-38.5 456.5,-57.5 611.5,-57.5 611.5,-38.5 456.5,-38.5"/>
<text text-anchor="middle" x="534" y="-45.5" font-family="Helvetica,sans-Serif" font-size="10.00">Nodes.math.RemainderNode</text>
</a>
</g>
</g>
<!-- Node1&#45;&gt;Node8 -->
<g id="edge7" class="edge"><title>Node1&#45;&gt;Node8</title>
<path fill="none" stroke="midnightblue" d="M383.237,-91.8627C404.097,-84.104 431.388,-74.3871 456,-67 467.342,-63.596 479.753,-60.3348 491.235,-57.5047"/>
<polygon fill="midnightblue" stroke="midnightblue" points="381.981,-88.5958 373.847,-95.3846 384.439,-95.1501 381.981,-88.5958"/>
</g>
<!-- Node9 -->
<g id="node9" class="node"><title>Node9</title>
<g id="a_node9"><a xlink:href="../../d5/d6c/class_nodes_1_1math_1_1_sum_node.html" target="_top" xlink:title="Nodes.math.SumNode">
<polygon fill="white" stroke="black" points="470.5,-0.5 470.5,-19.5 597.5,-19.5 597.5,-0.5 470.5,-0.5"/>
<text text-anchor="middle" x="534" y="-7.5" font-family="Helvetica,sans-Serif" font-size="10.00">Nodes.math.SumNode</text>
</a>
</g>
</g>
<!-- Node1&#45;&gt;Node9 -->
<g id="edge8" class="edge"><title>Node1&#45;&gt;Node9</title>
<path fill="none" stroke="midnightblue" d="M367.503,-88.5224C387.828,-71.2584 422.108,-44.5338 456,-29 464.261,-25.2137 473.381,-22.1168 482.367,-19.6055"/>
<polygon fill="midnightblue" stroke="midnightblue" points="364.961,-86.0928 359.688,-95.2818 369.541,-91.3871 364.961,-86.0928"/>
</g>
<!-- Node2 -->
<g id="node2" class="node"><title>Node2</title>
<g id="a_node2"><a xlink:href="../../de/d80/class_nodes_1_1math_1_1_math_node.html" target="_top" xlink:title="Nodes.math.MathNode">
<polygon fill="white" stroke="black" points="112,-95.5 112,-114.5 240,-114.5 240,-95.5 112,-95.5"/>
<text text-anchor="middle" x="176" y="-102.5" font-family="Helvetica,sans-Serif" font-size="10.00">Nodes.math.MathNode</text>
</a>
</g>
</g>
<!-- Node2&#45;&gt;Node1 -->
<g id="edge1" class="edge"><title>Node2&#45;&gt;Node1</title>
<path fill="none" stroke="midnightblue" d="M250.493,-105C258.93,-105 267.52,-105 275.924,-105"/>
<polygon fill="midnightblue" stroke="midnightblue" points="250.302,-101.5 240.302,-105 250.302,-108.5 250.302,-101.5"/>
</g>
<!-- Node3 -->
<g id="node3" class="node"><title>Node3</title>
<g id="a_node3"><a xlink:href="../../df/dac/class_nodes_1_1_node.html" target="_top" xlink:title="Nodes.Node">
<polygon fill="white" stroke="black" points="0,-95.5 0,-114.5 76,-114.5 76,-95.5 0,-95.5"/>
<text text-anchor="middle" x="38" y="-102.5" font-family="Helvetica,sans-Serif" font-size="10.00">Nodes.Node</text>
</a>
</g>
</g>
<!-- Node3&#45;&gt;Node2 -->
<g id="edge2" class="edge"><title>Node3&#45;&gt;Node2</title>
<path fill="none" stroke="midnightblue" d="M86.3639,-105C94.641,-105 103.369,-105 111.989,-105"/>
<polygon fill="midnightblue" stroke="midnightblue" points="86.1626,-101.5 76.1626,-105 86.1626,-108.5 86.1626,-101.5"/>
</g>
</g>
</svg>
        <g id="navigator" transform="translate(0 0)" fill="#404254">
                <rect fill="#f2f5e9" fill-opacity="0.5" stroke="#606060" stroke-width=".5" x="0" y="0" width="60" height="60"/>
                <use id="zoomplus" xlink:href="#zoomPlus" x="17" y="9" onmousedown="handleZoom(evt,'in')"/>
                <use id="zoomminus" xlink:href="#zoomMin" x="42" y="9" onmousedown="handleZoom(evt,'out')"/>
                <use id="reset" xlink:href="#resetDef" x="30" y="36" onmousedown="handleReset()"/>
                <g id="arrowUp" xlink:href="#dirArrow" transform="translate(30 24)" onmousedown="handlePan(0,-1)">
                  <use xlink:href="#rim" fill="#404040">
                        <set attributeName="fill" to="#808080" begin="arrowUp.mouseover" end="arrowUp.mouseout"/>
                  </use>
                  <path fill="none" stroke="white" stroke-width="1.5" d="M0,-3.0v7 M-2.5,-0.5L0,-3.0L2.5,-0.5"/>
                </g>
                <g id="arrowRight" xlink:href="#dirArrow" transform="rotate(90) translate(36 -43)" onmousedown="handlePan(1,0)">
                  <use xlink:href="#rim" fill="#404040">
                        <set attributeName="fill" to="#808080" begin="arrowRight.mouseover" end="arrowRight.mouseout"/>
                  </use>
                  <path fill="none" stroke="white" stroke-width="1.5" d="M0,-3.0v7 M-2.5,-0.5L0,-3.0L2.5,-0.5"/>
                </g>
                <g id="arrowDown" xlink:href="#dirArrow" transform="rotate(180) translate(-30 -48)" onmousedown="handlePan(0,1)">
                  <use xlink:href="#rim" fill="#404040">
                        <set attributeName="fill" to="#808080" begin="arrowDown.mouseover" end="arrowDown.mouseout"/>
                  </use>
                  <path fill="none" stroke="white" stroke-width="1.5" d="M0,-3.0v7 M-2.5,-0.5L0,-3.0L2.5,-0.5"/>
                </g>
                <g id="arrowLeft" xlink:href="#dirArrow" transform="rotate(270) translate(-36 17)" onmousedown="handlePan(-1,0)">
                  <use xlink:href="#rim" fill="#404040">
                        <set attributeName="fill" to="#808080" begin="arrowLeft.mouseover" end="arrowLeft.mouseout"/>
                  </use>
                  <path fill="none" stroke="white" stroke-width="1.5" d="M0,-3.0v7 M-2.5,-0.5L0,-3.0L2.5,-0.5"/>
                </g>
        </g>
        <svg viewBox="0 0 15 15" width="100%" height="30px" preserveAspectRatio="xMaxYMin meet">
         <g id="arrow_out" transform="scale(0.3 0.3)">
          <a xlink:href="class_nodes_1_1math_1_1_two_child_node__inherit__graph_org.svg" target="_base">
           <rect id="button" ry="5" rx="5" y="6" x="6" height="38" width="38"
                fill="#f2f5e9" fill-opacity="0.5" stroke="#606060" stroke-width="1.0"/>
           <path id="arrow"
             d="M 11.500037,31.436501 C 11.940474,20.09759 22.043105,11.32322 32.158766,21.979434 L 37.068811,17.246167 C 37.068811,17.246167 37.088388,32 37.088388,32 L 22.160133,31.978069 C 22.160133,31.978069 26.997745,27.140456 26.997745,27.140456 C 18.528582,18.264221 13.291696,25.230495 11.500037,31.436501 z"
             style="fill:#404040;"/>
          </a>
         </g>
        </svg>
</svg>
