<?xml version="1.0" encoding="UTF-8" standalone="no"?>
<!DOCTYPE svg PUBLIC "-//W3C//DTD SVG 1.1//EN"
 "http://www.w3.org/Graphics/SVG/1.1/DTD/svg11.dtd">
<!-- Generated by graphviz version 2.36.0 (20140111.2315)
 -->
<!-- Title: Nodes.turtlecommands.XCoordinateNode.update Pages: 1 -->
<svg width="594pt" height="77pt"
 viewBox="0.00 0.00 594.00 77.00" xmlns="http://www.w3.org/2000/svg" xmlns:xlink="http://www.w3.org/1999/xlink">
<g id="graph0" class="graph" transform="scale(1 1) rotate(0) translate(4 73)">
<title>Nodes.turtlecommands.XCoordinateNode.update</title>
<polygon fill="white" stroke="none" points="-4,4 -4,-73 590,-73 590,4 -4,4"/>
<!-- Node1 -->
<g id="node1" class="node"><title>Node1</title>
<polygon fill="#bfbfbf" stroke="black" points="0.5,-17 0.5,-47 191.5,-47 191.5,-17 0.5,-17"/>
<text text-anchor="start" x="8.5" y="-35" font-family="Helvetica,sans-Serif" font-size="10.00">Nodes.turtlecommands.XCoordinate</text>
<text text-anchor="middle" x="96" y="-24" font-family="Helvetica,sans-Serif" font-size="10.00">Node.update</text>
</g>
<!-- Node2 -->
<g id="node2" class="node"><title>Node2</title>
<g id="a_node2"><a xlink:href="../../de/d3e/class_turtle_view_1_1_point_converter.html#ad83b798c1ce4525697bdef2d502c36bb" target="_top" xlink:title="TurtleView.PointConverter.convert\lActualToUserX">
<polygon fill="white" stroke="black" points="228,-39 228,-69 404,-69 404,-39 228,-39"/>
<text text-anchor="start" x="236" y="-57" font-family="Helvetica,sans-Serif" font-size="10.00">TurtleView.PointConverter.convert</text>
<text text-anchor="middle" x="316" y="-46" font-family="Helvetica,sans-Serif" font-size="10.00">ActualToUserX</text>
</a>
</g>
</g>
<!-- Node1&#45;&gt;Node2 -->
<g id="edge1" class="edge"><title>Node1&#45;&gt;Node2</title>
<path fill="none" stroke="midnightblue" d="M191.667,-41.5535C200.339,-42.4287 209.134,-43.3162 217.827,-44.1936"/>
<polygon fill="midnightblue" stroke="midnightblue" points="217.672,-47.6956 227.972,-45.2174 218.374,-40.7309 217.672,-47.6956"/>
</g>
<!-- Node3 -->
<g id="node3" class="node"><title>Node3</title>
<g id="a_node3"><a xlink:href="../../d1/de0/class_backend_1_1_turtle.html#a715f94909b1ba74dc9e4f9eb4fd91e10" target="_top" xlink:title="Backend.Turtle.getXCord">
<polygon fill="white" stroke="black" points="249.5,-0.5 249.5,-19.5 382.5,-19.5 382.5,-0.5 249.5,-0.5"/>
<text text-anchor="middle" x="316" y="-7.5" font-family="Helvetica,sans-Serif" font-size="10.00">Backend.Turtle.getXCord</text>
</a>
</g>
</g>
<!-- Node1&#45;&gt;Node3 -->
<g id="edge2" class="edge"><title>Node1&#45;&gt;Node3</title>
<path fill="none" stroke="midnightblue" d="M191.667,-22.4465C207.445,-20.8542 223.631,-19.2207 238.871,-17.6828"/>
<polygon fill="midnightblue" stroke="midnightblue" points="239.656,-21.1214 249.254,-16.6349 238.953,-14.1568 239.656,-21.1214"/>
</g>
<!-- Node4 -->
<g id="node4" class="node"><title>Node4</title>
<g id="a_node4"><a xlink:href="../../d1/de0/class_backend_1_1_turtle.html#a33957258db9a7205d470c5a2d22b89af" target="_top" xlink:title="Backend.Turtle.getLocation">
<polygon fill="white" stroke="black" points="440,-0.5 440,-19.5 586,-19.5 586,-0.5 440,-0.5"/>
<text text-anchor="middle" x="513" y="-7.5" font-family="Helvetica,sans-Serif" font-size="10.00">Backend.Turtle.getLocation</text>
</a>
</g>
</g>
<!-- Node3&#45;&gt;Node4 -->
<g id="edge3" class="edge"><title>Node3&#45;&gt;Node4</title>
<path fill="none" stroke="midnightblue" d="M382.746,-10C397.802,-10 413.993,-10 429.649,-10"/>
<polygon fill="midnightblue" stroke="midnightblue" points="429.843,-13.5001 439.843,-10 429.843,-6.5001 429.843,-13.5001"/>
</g>
</g>
</svg>
