<?xml version="1.0" encoding="UTF-8" standalone="no"?>
<!DOCTYPE svg PUBLIC "-//W3C//DTD SVG 1.1//EN"
 "http://www.w3.org/Graphics/SVG/1.1/DTD/svg11.dtd">
<!-- Generated by graphviz version 2.36.0 (20140111.2315)
 -->
<!-- Title: Nodes.turtlecommands.ZeroChildrenNode Pages: 1 -->
<svg width="968pt" height="504pt"
 viewBox="0.00 0.00 968.00 504.00" xmlns="http://www.w3.org/2000/svg" xmlns:xlink="http://www.w3.org/1999/xlink">
<g id="graph0" class="graph" transform="scale(1 1) rotate(0) translate(4 500)">
<title>Nodes.turtlecommands.ZeroChildrenNode</title>
<polygon fill="white" stroke="none" points="-4,4 -4,-500 964,-500 964,4 -4,4"/>
<!-- Node1 -->
<g id="node1" class="node"><title>Node1</title>
<polygon fill="#bfbfbf" stroke="black" points="358,-235 358,-265 514,-265 514,-235 358,-235"/>
<text text-anchor="start" x="366" y="-253" font-family="Helvetica,sans-Serif" font-size="10.00">Nodes.turtlecommands.Zero</text>
<text text-anchor="middle" x="436" y="-242" font-family="Helvetica,sans-Serif" font-size="10.00">ChildrenNode</text>
</g>
<!-- Node4 -->
<g id="node4" class="node"><title>Node4</title>
<g id="a_node4"><a xlink:href="../../d1/d2a/class_nodes_1_1turtlecommands_1_1_heading_node.html" target="_top" xlink:title="Nodes.turtlecommands.HeadingNode">
<polygon fill="white" stroke="black" points="559,-476.5 559,-495.5 757,-495.5 757,-476.5 559,-476.5"/>
<text text-anchor="middle" x="658" y="-483.5" font-family="Helvetica,sans-Serif" font-size="10.00">Nodes.turtlecommands.HeadingNode</text>
</a>
</g>
</g>
<!-- Node1&#45;&gt;Node4 -->
<g id="edge3" class="edge"><title>Node1&#45;&gt;Node4</title>
<path fill="none" stroke="midnightblue" d="M442.554,-275.283C454.038,-321.178 484.95,-417.891 550,-466 555.774,-470.27 562.191,-473.713 568.934,-476.481"/>
<polygon fill="midnightblue" stroke="midnightblue" points="445.891,-274.186 440.159,-265.276 439.083,-275.816 445.891,-274.186"/>
</g>
<!-- Node5 -->
<g id="node5" class="node"><title>Node5</title>
<g id="a_node5"><a xlink:href="../../d8/dd5/class_nodes_1_1turtlecommands_1_1_hide_turtle_node.html" target="_top" xlink:title="Nodes.turtlecommands.Hide\lTurtleNode">
<polygon fill="white" stroke="black" points="580.5,-427 580.5,-457 735.5,-457 735.5,-427 580.5,-427"/>
<text text-anchor="start" x="588.5" y="-445" font-family="Helvetica,sans-Serif" font-size="10.00">Nodes.turtlecommands.Hide</text>
<text text-anchor="middle" x="658" y="-434" font-family="Helvetica,sans-Serif" font-size="10.00">TurtleNode</text>
</a>
</g>
</g>
<!-- Node1&#45;&gt;Node5 -->
<g id="edge4" class="edge"><title>Node1&#45;&gt;Node5</title>
<path fill="none" stroke="midnightblue" d="M446.618,-274.525C462.406,-311.442 497.412,-380.812 550,-417 559.115,-423.272 569.592,-427.986 580.346,-431.525"/>
<polygon fill="midnightblue" stroke="midnightblue" points="449.742,-272.922 442.676,-265.028 443.277,-275.605 449.742,-272.922"/>
</g>
<!-- Node6 -->
<g id="node6" class="node"><title>Node6</title>
<g id="a_node6"><a xlink:href="../../d4/dd2/class_nodes_1_1turtlecommands_1_1_home_node.html" target="_top" xlink:title="Nodes.turtlecommands.HomeNode">
<polygon fill="white" stroke="black" points="564,-388.5 564,-407.5 752,-407.5 752,-388.5 564,-388.5"/>
<text text-anchor="middle" x="658" y="-395.5" font-family="Helvetica,sans-Serif" font-size="10.00">Nodes.turtlecommands.HomeNode</text>
</a>
</g>
</g>
<!-- Node1&#45;&gt;Node6 -->
<g id="edge5" class="edge"><title>Node1&#45;&gt;Node6</title>
<path fill="none" stroke="midnightblue" d="M450.995,-274.245C469.575,-304.056 505.306,-353.79 550,-379 556.82,-382.847 564.24,-385.946 571.888,-388.438"/>
<polygon fill="midnightblue" stroke="midnightblue" points="453.759,-272.053 445.576,-265.323 447.776,-275.687 453.759,-272.053"/>
</g>
<!-- Node8 -->
<g id="node8" class="node"><title>Node8</title>
<g id="a_node8"><a xlink:href="../../d9/d76/class_nodes_1_1turtlecommands_1_1_i_d_node.html" target="_top" xlink:title="Nodes.turtlecommands.IDNode">
<polygon fill="white" stroke="black" points="574,-350.5 574,-369.5 742,-369.5 742,-350.5 574,-350.5"/>
<text text-anchor="middle" x="658" y="-357.5" font-family="Helvetica,sans-Serif" font-size="10.00">Nodes.turtlecommands.IDNode</text>
</a>
</g>
</g>
<!-- Node1&#45;&gt;Node8 -->
<g id="edge7" class="edge"><title>Node1&#45;&gt;Node8</title>
<path fill="none" stroke="midnightblue" d="M458.3,-272.37C479.52,-293.244 514.041,-323.566 550,-340 559.539,-344.36 569.972,-347.769 580.461,-350.435"/>
<polygon fill="midnightblue" stroke="midnightblue" points="460.644,-269.764 451.107,-265.151 455.686,-274.705 460.644,-269.764"/>
</g>
<!-- Node9 -->
<g id="node9" class="node"><title>Node9</title>
<g id="a_node9"><a xlink:href="../../d2/daf/class_nodes_1_1turtlecommands_1_1_is_pen_down_node.html" target="_top" xlink:title="Nodes.turtlecommands.IsPen\lDownNode">
<polygon fill="white" stroke="black" points="579,-301 579,-331 737,-331 737,-301 579,-301"/>
<text text-anchor="start" x="587" y="-319" font-family="Helvetica,sans-Serif" font-size="10.00">Nodes.turtlecommands.IsPen</text>
<text text-anchor="middle" x="658" y="-308" font-family="Helvetica,sans-Serif" font-size="10.00">DownNode</text>
</a>
</g>
</g>
<!-- Node1&#45;&gt;Node9 -->
<g id="edge8" class="edge"><title>Node1&#45;&gt;Node9</title>
<path fill="none" stroke="midnightblue" d="M484.578,-268.682C504.598,-276.172 528.252,-284.539 550,-291 561.978,-294.559 574.831,-297.933 587.327,-300.984"/>
<polygon fill="midnightblue" stroke="midnightblue" points="485.657,-265.349 475.066,-265.088 483.183,-271.897 485.657,-265.349"/>
</g>
<!-- Node10 -->
<g id="node10" class="node"><title>Node10</title>
<g id="a_node10"><a xlink:href="../../df/d31/class_nodes_1_1turtlecommands_1_1_is_showing_node.html" target="_top" xlink:title="Nodes.turtlecommands.IsShowingNode">
<polygon fill="white" stroke="black" points="555,-262.5 555,-281.5 761,-281.5 761,-262.5 555,-262.5"/>
<text text-anchor="middle" x="658" y="-269.5" font-family="Helvetica,sans-Serif" font-size="10.00">Nodes.turtlecommands.IsShowingNode</text>
</a>
</g>
</g>
<!-- Node1&#45;&gt;Node10 -->
<g id="edge9" class="edge"><title>Node1&#45;&gt;Node10</title>
<path fill="none" stroke="midnightblue" d="M524.45,-258.745C536.713,-259.971 549.368,-261.237 561.767,-262.477"/>
<polygon fill="midnightblue" stroke="midnightblue" points="524.553,-255.238 514.254,-257.725 523.856,-262.203 524.553,-255.238"/>
</g>
<!-- Node11 -->
<g id="node11" class="node"><title>Node11</title>
<g id="a_node11"><a xlink:href="../../d0/d04/class_nodes_1_1turtlecommands_1_1_pen_down_node.html" target="_top" xlink:title="Nodes.turtlecommands.Pen\lDownNode">
<polygon fill="white" stroke="black" points="582.5,-213 582.5,-243 733.5,-243 733.5,-213 582.5,-213"/>
<text text-anchor="start" x="590.5" y="-231" font-family="Helvetica,sans-Serif" font-size="10.00">Nodes.turtlecommands.Pen</text>
<text text-anchor="middle" x="658" y="-220" font-family="Helvetica,sans-Serif" font-size="10.00">DownNode</text>
</a>
</g>
</g>
<!-- Node1&#45;&gt;Node11 -->
<g id="edge10" class="edge"><title>Node1&#45;&gt;Node11</title>
<path fill="none" stroke="midnightblue" d="M524.447,-241.255C543.547,-239.345 563.595,-237.34 582.152,-235.485"/>
<polygon fill="midnightblue" stroke="midnightblue" points="523.856,-237.797 514.254,-242.275 524.553,-244.762 523.856,-237.797"/>
</g>
<!-- Node12 -->
<g id="node12" class="node"><title>Node12</title>
<g id="a_node12"><a xlink:href="../../d6/da9/class_nodes_1_1turtlecommands_1_1_pen_up_node.html" target="_top" xlink:title="Nodes.turtlecommands.Pen\lUpNode">
<polygon fill="white" stroke="black" points="582.5,-164 582.5,-194 733.5,-194 733.5,-164 582.5,-164"/>
<text text-anchor="start" x="590.5" y="-182" font-family="Helvetica,sans-Serif" font-size="10.00">Nodes.turtlecommands.Pen</text>
<text text-anchor="middle" x="658" y="-171" font-family="Helvetica,sans-Serif" font-size="10.00">UpNode</text>
</a>
</g>
</g>
<!-- Node1&#45;&gt;Node12 -->
<g id="edge11" class="edge"><title>Node1&#45;&gt;Node12</title>
<path fill="none" stroke="midnightblue" d="M478.388,-230.755C499.495,-221.465 525.765,-210.694 550,-203 560.343,-199.716 571.385,-196.705 582.301,-194.008"/>
<polygon fill="midnightblue" stroke="midnightblue" points="476.789,-227.636 469.079,-234.903 479.638,-234.03 476.789,-227.636"/>
</g>
<!-- Node13 -->
<g id="node13" class="node"><title>Node13</title>
<g id="a_node13"><a xlink:href="../../dc/d1b/class_nodes_1_1turtlecommands_1_1_show_turtle_node.html" target="_top" xlink:title="Nodes.turtlecommands.Show\lTurtleNode">
<polygon fill="white" stroke="black" points="579,-115 579,-145 737,-145 737,-115 579,-115"/>
<text text-anchor="start" x="587" y="-133" font-family="Helvetica,sans-Serif" font-size="10.00">Nodes.turtlecommands.Show</text>
<text text-anchor="middle" x="658" y="-122" font-family="Helvetica,sans-Serif" font-size="10.00">TurtleNode</text>
</a>
</g>
</g>
<!-- Node1&#45;&gt;Node13 -->
<g id="edge12" class="edge"><title>Node1&#45;&gt;Node13</title>
<path fill="none" stroke="midnightblue" d="M457.155,-227.427C478.161,-205.331 513.111,-172.389 550,-154 559.03,-149.498 568.908,-145.832 578.894,-142.848"/>
<polygon fill="midnightblue" stroke="midnightblue" points="454.588,-225.049 450.327,-234.749 459.707,-229.823 454.588,-225.049"/>
</g>
<!-- Node14 -->
<g id="node14" class="node"><title>Node14</title>
<g id="a_node14"><a xlink:href="../../d2/df1/class_nodes_1_1turtlecommands_1_1_tell_node.html" target="_top" xlink:title="Nodes.turtlecommands.TellNode">
<polygon fill="white" stroke="black" points="571.5,-76.5 571.5,-95.5 744.5,-95.5 744.5,-76.5 571.5,-76.5"/>
<text text-anchor="middle" x="658" y="-83.5" font-family="Helvetica,sans-Serif" font-size="10.00">Nodes.turtlecommands.TellNode</text>
</a>
</g>
</g>
<!-- Node1&#45;&gt;Node14 -->
<g id="edge13" class="edge"><title>Node1&#45;&gt;Node14</title>
<path fill="none" stroke="midnightblue" d="M448.678,-225.695C465.925,-192.625 501.483,-134.232 550,-105 556.626,-101.008 563.874,-97.8071 571.375,-95.2467"/>
<polygon fill="midnightblue" stroke="midnightblue" points="445.514,-224.194 444.11,-234.696 451.757,-227.362 445.514,-224.194"/>
</g>
<!-- Node15 -->
<g id="node15" class="node"><title>Node15</title>
<g id="a_node15"><a xlink:href="../../d8/d61/class_nodes_1_1turtlecommands_1_1_x_coordinate_node.html" target="_top" xlink:title="Nodes.turtlecommands.XCoordinateNode">
<polygon fill="white" stroke="black" points="550,-38.5 550,-57.5 766,-57.5 766,-38.5 550,-38.5"/>
<text text-anchor="middle" x="658" y="-45.5" font-family="Helvetica,sans-Serif" font-size="10.00">Nodes.turtlecommands.XCoordinateNode</text>
</a>
</g>
</g>
<!-- Node1&#45;&gt;Node15 -->
<g id="edge14" class="edge"><title>Node1&#45;&gt;Node15</title>
<path fill="none" stroke="midnightblue" d="M444.775,-225.373C458.827,-185.187 492.461,-106.084 550,-67 555.618,-63.1835 561.773,-60.0647 568.201,-57.5228"/>
<polygon fill="midnightblue" stroke="midnightblue" points="441.431,-224.336 441.548,-234.93 448.063,-226.575 441.431,-224.336"/>
</g>
<!-- Node16 -->
<g id="node16" class="node"><title>Node16</title>
<g id="a_node16"><a xlink:href="../../da/db9/class_nodes_1_1turtlecommands_1_1_y_coordinate_node.html" target="_top" xlink:title="Nodes.turtlecommands.YCoordinateNode">
<polygon fill="white" stroke="black" points="550.5,-0.5 550.5,-19.5 765.5,-19.5 765.5,-0.5 550.5,-0.5"/>
<text text-anchor="middle" x="658" y="-7.5" font-family="Helvetica,sans-Serif" font-size="10.00">Nodes.turtlecommands.YCoordinateNode</text>
</a>
</g>
</g>
<!-- Node1&#45;&gt;Node16 -->
<g id="edge15" class="edge"><title>Node1&#45;&gt;Node16</title>
<path fill="none" stroke="midnightblue" d="M442.098,-225.063C453.021,-178.441 483.31,-78.3367 550,-29 555.081,-25.241 560.665,-22.1404 566.532,-19.5904"/>
<polygon fill="midnightblue" stroke="midnightblue" points="438.658,-224.412 439.89,-234.935 445.489,-225.94 438.658,-224.412"/>
</g>
<!-- Node2 -->
<g id="node2" class="node"><title>Node2</title>
<g id="a_node2"><a xlink:href="../../dc/d38/class_nodes_1_1turtlecommands_1_1_command_node.html" target="_top" xlink:title="Nodes.turtlecommands.CommandNode">
<polygon fill="white" stroke="black" points="112.5,-240.5 112.5,-259.5 321.5,-259.5 321.5,-240.5 112.5,-240.5"/>
<text text-anchor="middle" x="217" y="-247.5" font-family="Helvetica,sans-Serif" font-size="10.00">Nodes.turtlecommands.CommandNode</text>
</a>
</g>
</g>
<!-- Node2&#45;&gt;Node1 -->
<g id="edge1" class="edge"><title>Node2&#45;&gt;Node1</title>
<path fill="none" stroke="midnightblue" d="M331.75,-250C340.616,-250 349.434,-250 357.969,-250"/>
<polygon fill="midnightblue" stroke="midnightblue" points="331.733,-246.5 321.733,-250 331.733,-253.5 331.733,-246.5"/>
</g>
<!-- Node3 -->
<g id="node3" class="node"><title>Node3</title>
<g id="a_node3"><a xlink:href="../../df/dac/class_nodes_1_1_node.html" target="_top" xlink:title="Nodes.Node">
<polygon fill="white" stroke="black" points="0,-240.5 0,-259.5 76,-259.5 76,-240.5 0,-240.5"/>
<text text-anchor="middle" x="38" y="-247.5" font-family="Helvetica,sans-Serif" font-size="10.00">Nodes.Node</text>
</a>
</g>
</g>
<!-- Node3&#45;&gt;Node2 -->
<g id="edge2" class="edge"><title>Node3&#45;&gt;Node2</title>
<path fill="none" stroke="midnightblue" d="M86.1525,-250C94.367,-250 103.194,-250 112.241,-250"/>
<polygon fill="midnightblue" stroke="midnightblue" points="86.105,-246.5 76.105,-250 86.105,-253.5 86.105,-246.5"/>
</g>
<!-- Node7 -->
<g id="node7" class="node"><title>Node7</title>
<g id="a_node7"><a xlink:href="../../de/d2e/class_nodes_1_1turtlecommands_1_1_clear_screen_node.html" target="_top" xlink:title="Nodes.turtlecommands.Clear\lScreenNode">
<polygon fill="white" stroke="black" points="802,-383 802,-413 960,-413 960,-383 802,-383"/>
<text text-anchor="start" x="810" y="-401" font-family="Helvetica,sans-Serif" font-size="10.00">Nodes.turtlecommands.Clear</text>
<text text-anchor="middle" x="881" y="-390" font-family="Helvetica,sans-Serif" font-size="10.00">ScreenNode</text>
</a>
</g>
</g>
<!-- Node6&#45;&gt;Node7 -->
<g id="edge6" class="edge"><title>Node6&#45;&gt;Node7</title>
<path fill="none" stroke="midnightblue" d="M762.2,-398C775.483,-398 788.907,-398 801.7,-398"/>
<polygon fill="midnightblue" stroke="midnightblue" points="762.083,-394.5 752.083,-398 762.083,-401.5 762.083,-394.5"/>
</g>
</g>
</svg>
