<?xml version="1.0" encoding="UTF-8" standalone="no"?>
<!DOCTYPE svg PUBLIC "-//W3C//DTD SVG 1.1//EN"
 "http://www.w3.org/Graphics/SVG/1.1/DTD/svg11.dtd">
<!-- Generated by graphviz version 2.36.0 (20140111.2315)
 -->
<!-- Title: Nodes.turtlecommands.XCoordinateNode Pages: 1 -->
<svg width="224pt" height="208pt"
 viewBox="0.00 0.00 224.00 208.00" xmlns="http://www.w3.org/2000/svg" xmlns:xlink="http://www.w3.org/1999/xlink">
<g id="graph0" class="graph" transform="scale(1 1) rotate(0) translate(4 204)">
<title>Nodes.turtlecommands.XCoordinateNode</title>
<polygon fill="white" stroke="none" points="-4,4 -4,-204 220,-204 220,4 -4,4"/>
<!-- Node1 -->
<g id="node1" class="node"><title>Node1</title>
<polygon fill="#bfbfbf" stroke="black" points="0,-0.5 0,-19.5 216,-19.5 216,-0.5 0,-0.5"/>
<text text-anchor="middle" x="108" y="-7.5" font-family="Helvetica,sans-Serif" font-size="10.00">Nodes.turtlecommands.XCoordinateNode</text>
</g>
<!-- Node2 -->
<g id="node2" class="node"><title>Node2</title>
<g id="a_node2"><a xlink:href="../../d6/dfd/class_nodes_1_1turtlecommands_1_1_zero_children_node.html" target="_top" xlink:title="Nodes.turtlecommands.Zero\lChildrenNode">
<polygon fill="white" stroke="black" points="30,-57 30,-87 186,-87 186,-57 30,-57"/>
<text text-anchor="start" x="38" y="-75" font-family="Helvetica,sans-Serif" font-size="10.00">Nodes.turtlecommands.Zero</text>
<text text-anchor="middle" x="108" y="-64" font-family="Helvetica,sans-Serif" font-size="10.00">ChildrenNode</text>
</a>
</g>
</g>
<!-- Node2&#45;&gt;Node1 -->
<g id="edge1" class="edge"><title>Node2&#45;&gt;Node1</title>
<path fill="none" stroke="midnightblue" d="M108,-46.5858C108,-37.0743 108,-26.7864 108,-19.7305"/>
<polygon fill="midnightblue" stroke="midnightblue" points="104.5,-46.7808 108,-56.7808 111.5,-46.7809 104.5,-46.7808"/>
</g>
<!-- Node3 -->
<g id="node3" class="node"><title>Node3</title>
<g id="a_node3"><a xlink:href="../../dc/d38/class_nodes_1_1turtlecommands_1_1_command_node.html" target="_top" xlink:title="Nodes.turtlecommands.CommandNode">
<polygon fill="white" stroke="black" points="3.5,-124.5 3.5,-143.5 212.5,-143.5 212.5,-124.5 3.5,-124.5"/>
<text text-anchor="middle" x="108" y="-131.5" font-family="Helvetica,sans-Serif" font-size="10.00">Nodes.turtlecommands.CommandNode</text>
</a>
</g>
</g>
<!-- Node3&#45;&gt;Node2 -->
<g id="edge2" class="edge"><title>Node3&#45;&gt;Node2</title>
<path fill="none" stroke="midnightblue" d="M108,-114.371C108,-105.585 108,-95.2721 108,-87.1408"/>
<polygon fill="midnightblue" stroke="midnightblue" points="104.5,-114.403 108,-124.403 111.5,-114.403 104.5,-114.403"/>
</g>
<!-- Node4 -->
<g id="node4" class="node"><title>Node4</title>
<g id="a_node4"><a xlink:href="../../df/dac/class_nodes_1_1_node.html" target="_top" xlink:title="Nodes.Node">
<polygon fill="white" stroke="black" points="70,-180.5 70,-199.5 146,-199.5 146,-180.5 70,-180.5"/>
<text text-anchor="middle" x="108" y="-187.5" font-family="Helvetica,sans-Serif" font-size="10.00">Nodes.Node</text>
</a>
</g>
</g>
<!-- Node4&#45;&gt;Node3 -->
<g id="edge3" class="edge"><title>Node4&#45;&gt;Node3</title>
<path fill="none" stroke="midnightblue" d="M108,-169.805C108,-160.91 108,-150.78 108,-143.751"/>
<polygon fill="midnightblue" stroke="midnightblue" points="104.5,-170.083 108,-180.083 111.5,-170.083 104.5,-170.083"/>
</g>
</g>
</svg>
