<?xml version="1.0" encoding="UTF-8" standalone="no"?>
<!DOCTYPE svg PUBLIC "-//W3C//DTD SVG 1.1//EN"
 "http://www.w3.org/Graphics/SVG/1.1/DTD/svg11.dtd">
<!-- Generated by graphviz version 2.36.0 (20140111.2315)
 -->
<!-- Title: Backend.AST.populateTree Pages: 1 -->
<svg width="506pt" height="218pt"
 viewBox="0.00 0.00 506.00 218.00" xmlns="http://www.w3.org/2000/svg" xmlns:xlink="http://www.w3.org/1999/xlink">
<g id="graph0" class="graph" transform="scale(1 1) rotate(0) translate(4 214)">
<title>Backend.AST.populateTree</title>
<polygon fill="white" stroke="none" points="-4,4 -4,-214 502,-214 502,4 -4,4"/>
<!-- Node1 -->
<g id="node1" class="node"><title>Node1</title>
<polygon fill="#bfbfbf" stroke="black" points="0.5,-95.5 0.5,-114.5 143.5,-114.5 143.5,-95.5 0.5,-95.5"/>
<text text-anchor="middle" x="72" y="-102.5" font-family="Helvetica,sans-Serif" font-size="10.00">Backend.AST.populateTree</text>
</g>
<!-- Node2 -->
<g id="node2" class="node"><title>Node2</title>
<g id="a_node2"><a xlink:href="../../df/dac/class_nodes_1_1_node.html#ae200fe31f562bfb695af21f5673b8345" target="_top" xlink:title="Nodes.Node.addChildren">
<polygon fill="white" stroke="black" points="190,-190.5 190,-209.5 326,-209.5 326,-190.5 190,-190.5"/>
<text text-anchor="middle" x="258" y="-197.5" font-family="Helvetica,sans-Serif" font-size="10.00">Nodes.Node.addChildren</text>
</a>
</g>
</g>
<!-- Node1&#45;&gt;Node2 -->
<g id="edge1" class="edge"><title>Node1&#45;&gt;Node2</title>
<path fill="none" stroke="midnightblue" d="M83.6877,-114.718C102.026,-130.878 141.266,-163.247 180,-181 185.292,-183.426 190.937,-185.568 196.673,-187.455"/>
<polygon fill="midnightblue" stroke="midnightblue" points="195.781,-190.842 206.367,-190.394 197.813,-184.143 195.781,-190.842"/>
</g>
<!-- Node4 -->
<g id="node4" class="node"><title>Node4</title>
<g id="a_node4"><a xlink:href="../../df/dac/class_nodes_1_1_node.html#ace0ce29f3bed613594598fab03985985" target="_top" xlink:title="Nodes.Node.clearChildren">
<polygon fill="white" stroke="black" points="187.5,-152.5 187.5,-171.5 328.5,-171.5 328.5,-152.5 187.5,-152.5"/>
<text text-anchor="middle" x="258" y="-159.5" font-family="Helvetica,sans-Serif" font-size="10.00">Nodes.Node.clearChildren</text>
</a>
</g>
</g>
<!-- Node1&#45;&gt;Node4 -->
<g id="edge3" class="edge"><title>Node1&#45;&gt;Node4</title>
<path fill="none" stroke="midnightblue" d="M97.8466,-114.615C119.386,-122.76 151.49,-134.443 180,-143 188.152,-145.447 196.856,-147.819 205.371,-150.012"/>
<polygon fill="midnightblue" stroke="midnightblue" points="204.683,-153.448 215.235,-152.495 206.392,-146.659 204.683,-153.448"/>
</g>
<!-- Node5 -->
<g id="node5" class="node"><title>Node5</title>
<g id="a_node5"><a xlink:href="../../df/dac/class_nodes_1_1_node.html#a74e0332d0a40c6575211d9c7e5432df1" target="_top" xlink:title="Nodes.Node.getParent">
<polygon fill="white" stroke="black" points="195.5,-114.5 195.5,-133.5 320.5,-133.5 320.5,-114.5 195.5,-114.5"/>
<text text-anchor="middle" x="258" y="-121.5" font-family="Helvetica,sans-Serif" font-size="10.00">Nodes.Node.getParent</text>
</a>
</g>
</g>
<!-- Node1&#45;&gt;Node5 -->
<g id="edge4" class="edge"><title>Node1&#45;&gt;Node5</title>
<path fill="none" stroke="midnightblue" d="M143.613,-112.292C157.181,-113.693 171.405,-115.161 185.016,-116.567"/>
<polygon fill="midnightblue" stroke="midnightblue" points="184.976,-120.081 195.283,-117.627 185.695,-113.118 184.976,-120.081"/>
</g>
<!-- Node6 -->
<g id="node6" class="node"><title>Node6</title>
<g id="a_node6"><a xlink:href="../../df/dac/class_nodes_1_1_node.html#aec63a25442128910503dee368ee4328b" target="_top" xlink:title="Nodes.Node.isFinished">
<polygon fill="white" stroke="black" points="195.5,-76.5 195.5,-95.5 320.5,-95.5 320.5,-76.5 195.5,-76.5"/>
<text text-anchor="middle" x="258" y="-83.5" font-family="Helvetica,sans-Serif" font-size="10.00">Nodes.Node.isFinished</text>
</a>
</g>
</g>
<!-- Node1&#45;&gt;Node6 -->
<g id="edge5" class="edge"><title>Node1&#45;&gt;Node6</title>
<path fill="none" stroke="midnightblue" d="M143.613,-97.7084C157.181,-96.3074 171.405,-94.8386 185.016,-93.4332"/>
<polygon fill="midnightblue" stroke="midnightblue" points="185.695,-96.8817 195.283,-92.373 184.976,-89.9187 185.695,-96.8817"/>
</g>
<!-- Node7 -->
<g id="node7" class="node"><title>Node7</title>
<g id="a_node7"><a xlink:href="../../df/dac/class_nodes_1_1_node.html#a072be25270214e88e4f3d954edd4e98d" target="_top" xlink:title="Nodes.Node.returnPrintValue">
<polygon fill="white" stroke="black" points="180,-38.5 180,-57.5 336,-57.5 336,-38.5 180,-38.5"/>
<text text-anchor="middle" x="258" y="-45.5" font-family="Helvetica,sans-Serif" font-size="10.00">Nodes.Node.returnPrintValue</text>
</a>
</g>
</g>
<!-- Node1&#45;&gt;Node7 -->
<g id="edge6" class="edge"><title>Node1&#45;&gt;Node7</title>
<path fill="none" stroke="midnightblue" d="M97.8466,-95.3846C119.386,-87.2402 151.49,-75.557 180,-67 188.152,-64.5534 196.856,-62.1805 205.371,-59.9885"/>
<polygon fill="midnightblue" stroke="midnightblue" points="206.392,-63.3406 215.235,-57.5047 204.683,-56.5525 206.392,-63.3406"/>
</g>
<!-- Node8 -->
<g id="node8" class="node"><title>Node8</title>
<g id="a_node8"><a xlink:href="../../df/dac/class_nodes_1_1_node.html#adf0f88f5b587f4324d763d63b743bb29" target="_top" xlink:title="Nodes.Node.update">
<polygon fill="white" stroke="black" points="201.5,-0.5 201.5,-19.5 314.5,-19.5 314.5,-0.5 201.5,-0.5"/>
<text text-anchor="middle" x="258" y="-7.5" font-family="Helvetica,sans-Serif" font-size="10.00">Nodes.Node.update</text>
</a>
</g>
</g>
<!-- Node1&#45;&gt;Node8 -->
<g id="edge7" class="edge"><title>Node1&#45;&gt;Node8</title>
<path fill="none" stroke="midnightblue" d="M83.6877,-95.2818C102.026,-79.1224 141.266,-46.7529 180,-29 185.292,-26.5744 190.937,-24.4317 196.673,-22.5447"/>
<polygon fill="midnightblue" stroke="midnightblue" points="197.813,-25.8566 206.367,-19.6055 195.781,-19.1577 197.813,-25.8566"/>
</g>
<!-- Node3 -->
<g id="node3" class="node"><title>Node3</title>
<g id="a_node3"><a xlink:href="../../df/dac/class_nodes_1_1_node.html#a95dd6a377e7e4db934301bd83ddfd12c" target="_top" xlink:title="Nodes.Node.setParent">
<polygon fill="white" stroke="black" points="372.5,-190.5 372.5,-209.5 497.5,-209.5 497.5,-190.5 372.5,-190.5"/>
<text text-anchor="middle" x="435" y="-197.5" font-family="Helvetica,sans-Serif" font-size="10.00">Nodes.Node.setParent</text>
</a>
</g>
</g>
<!-- Node2&#45;&gt;Node3 -->
<g id="edge2" class="edge"><title>Node2&#45;&gt;Node3</title>
<path fill="none" stroke="midnightblue" d="M326.159,-200C337.938,-200 350.238,-200 362.138,-200"/>
<polygon fill="midnightblue" stroke="midnightblue" points="362.471,-203.5 372.471,-200 362.471,-196.5 362.471,-203.5"/>
</g>
</g>
</svg>
