<?xml version="1.0" encoding="UTF-8" standalone="no"?>
<!DOCTYPE svg PUBLIC "-//W3C//DTD SVG 1.1//EN"
 "http://www.w3.org/Graphics/SVG/1.1/DTD/svg11.dtd">
<!-- Generated by graphviz version 2.36.0 (20140111.2315)
 -->
<!-- Title: Nodes.turtlecommands.PenUpNode.update Pages: 1 -->
<svg width="474pt" height="38pt"
 viewBox="0.00 0.00 474.00 38.00" xmlns="http://www.w3.org/2000/svg" xmlns:xlink="http://www.w3.org/1999/xlink">
<g id="graph0" class="graph" transform="scale(1 1) rotate(0) translate(4 34)">
<title>Nodes.turtlecommands.PenUpNode.update</title>
<polygon fill="white" stroke="none" points="-4,4 -4,-34 470,-34 470,4 -4,4"/>
<!-- Node1 -->
<g id="node1" class="node"><title>Node1</title>
<polygon fill="#bfbfbf" stroke="black" points="0.5,-0 0.5,-30 151.5,-30 151.5,-0 0.5,-0"/>
<text text-anchor="start" x="8.5" y="-18" font-family="Helvetica,sans-Serif" font-size="10.00">Nodes.turtlecommands.Pen</text>
<text text-anchor="middle" x="76" y="-7" font-family="Helvetica,sans-Serif" font-size="10.00">UpNode.update</text>
</g>
<!-- Node2 -->
<g id="node2" class="node"><title>Node2</title>
<g id="a_node2"><a xlink:href="../../d1/de0/class_backend_1_1_turtle.html#ae04834eebc1d060aa4ad63fad24cec09" target="_top" xlink:title="Backend.Turtle.setPenUp">
<polygon fill="white" stroke="black" points="188,-5.5 188,-24.5 324,-24.5 324,-5.5 188,-5.5"/>
<text text-anchor="middle" x="256" y="-12.5" font-family="Helvetica,sans-Serif" font-size="10.00">Backend.Turtle.setPenUp</text>
</a>
</g>
</g>
<!-- Node1&#45;&gt;Node2 -->
<g id="edge1" class="edge"><title>Node1&#45;&gt;Node2</title>
<path fill="none" stroke="midnightblue" d="M151.714,-15C160.33,-15 169.13,-15 177.778,-15"/>
<polygon fill="midnightblue" stroke="midnightblue" points="177.842,-18.5001 187.842,-15 177.842,-11.5001 177.842,-18.5001"/>
</g>
<!-- Node3 -->
<g id="node3" class="node"><title>Node3</title>
<g id="a_node3"><a xlink:href="../../df/daf/class_pen_1_1_pen.html#a759a97b0bc02a5174ec221d2748e4c27" target="_top" xlink:title="Pen.Pen.setPenUp">
<polygon fill="white" stroke="black" points="360.5,-5.5 360.5,-24.5 465.5,-24.5 465.5,-5.5 360.5,-5.5"/>
<text text-anchor="middle" x="413" y="-12.5" font-family="Helvetica,sans-Serif" font-size="10.00">Pen.Pen.setPenUp</text>
</a>
</g>
</g>
<!-- Node2&#45;&gt;Node3 -->
<g id="edge2" class="edge"><title>Node2&#45;&gt;Node3</title>
<path fill="none" stroke="midnightblue" d="M324.084,-15C332.693,-15 341.476,-15 349.999,-15"/>
<polygon fill="midnightblue" stroke="midnightblue" points="350.236,-18.5001 360.236,-15 350.236,-11.5001 350.236,-18.5001"/>
</g>
</g>
</svg>
