<?xml version="1.0" encoding="UTF-8" standalone="no"?>
<!DOCTYPE svg PUBLIC "-//W3C//DTD SVG 1.1//EN"
 "http://www.w3.org/Graphics/SVG/1.1/DTD/svg11.dtd">
<!-- Generated by graphviz version 2.36.0 (20140111.2315)
 -->
<!-- Title: Nodes.multipleTurtlecommands.TellNode Pages: 1 -->
<svg width="184pt" height="236pt"
 viewBox="0.00 0.00 184.00 236.00" xmlns="http://www.w3.org/2000/svg" xmlns:xlink="http://www.w3.org/1999/xlink">
<g id="graph0" class="graph" transform="scale(1 1) rotate(0) translate(4 232)">
<title>Nodes.multipleTurtlecommands.TellNode</title>
<polygon fill="white" stroke="none" points="-4,4 -4,-232 180,-232 180,4 -4,4"/>
<!-- Node1 -->
<g id="node1" class="node"><title>Node1</title>
<polygon fill="#bfbfbf" stroke="black" points="-0.5,-1 -0.5,-31 170.5,-31 170.5,-1 -0.5,-1"/>
<text text-anchor="start" x="7.5" y="-19" font-family="Helvetica,sans-Serif" font-size="10.00">Nodes.multipleTurtlecommands.</text>
<text text-anchor="middle" x="85" y="-8" font-family="Helvetica,sans-Serif" font-size="10.00">TellNode</text>
</g>
<!-- Node2 -->
<g id="node2" class="node"><title>Node2</title>
<g id="a_node2"><a xlink:href="../../d1/d97/class_nodes_1_1multiple_turtlecommands_1_1_multiple_turtles_node.html" target="_top" xlink:title="Nodes.multipleTurtlecommands.\lMultipleTurtlesNode">
<polygon fill="white" stroke="black" points="-0.5,-71 -0.5,-101 170.5,-101 170.5,-71 -0.5,-71"/>
<text text-anchor="start" x="7.5" y="-89" font-family="Helvetica,sans-Serif" font-size="10.00">Nodes.multipleTurtlecommands.</text>
<text text-anchor="middle" x="85" y="-78" font-family="Helvetica,sans-Serif" font-size="10.00">MultipleTurtlesNode</text>
</a>
</g>
</g>
<!-- Node2&#45;&gt;Node1 -->
<g id="edge1" class="edge"><title>Node2&#45;&gt;Node1</title>
<path fill="none" stroke="midnightblue" d="M85,-60.7688C85,-50.8141 85,-39.6384 85,-31.0716"/>
<polygon fill="midnightblue" stroke="midnightblue" points="81.5001,-60.9103 85,-70.9104 88.5001,-60.9104 81.5001,-60.9103"/>
</g>
<!-- Node3 -->
<g id="node3" class="node"><title>Node3</title>
<g id="a_node3"><a xlink:href="../../df/dac/class_nodes_1_1_node.html" target="_top" xlink:title="Nodes.Node">
<polygon fill="white" stroke="black" points="47,-140.5 47,-159.5 123,-159.5 123,-140.5 47,-140.5"/>
<text text-anchor="middle" x="85" y="-147.5" font-family="Helvetica,sans-Serif" font-size="10.00">Nodes.Node</text>
</a>
</g>
</g>
<!-- Node3&#45;&gt;Node2 -->
<g id="edge2" class="edge"><title>Node3&#45;&gt;Node2</title>
<path fill="none" stroke="midnightblue" d="M85,-130.183C85,-120.886 85,-109.851 85,-101.263"/>
<polygon fill="midnightblue" stroke="midnightblue" points="81.5001,-130.379 85,-140.379 88.5001,-130.379 81.5001,-130.379"/>
</g>
<!-- Node3&#45;&gt;Node3 -->
<g id="edge4" class="edge"><title>Node3&#45;&gt;Node3</title>
<path fill="none" stroke="#9a32cd" stroke-dasharray="5,2" d="M133.289,-154.263C138.006,-153.403 141,-151.982 141,-150 141,-146.828 133.335,-145.094 123.214,-144.796"/>
<polygon fill="#9a32cd" stroke="#9a32cd" points="132.845,-150.789 123.214,-155.204 133.496,-157.759 132.845,-150.789"/>
<text text-anchor="middle" x="158.5" y="-147.5" font-family="Helvetica,sans-Serif" font-size="10.00"> parent</text>
</g>
<!-- Node4 -->
<g id="node4" class="node"><title>Node4</title>
<polygon fill="white" stroke="#bfbfbf" points="15,-208.5 15,-227.5 155,-227.5 155,-208.5 15,-208.5"/>
<text text-anchor="middle" x="85" y="-215.5" font-family="Helvetica,sans-Serif" font-size="10.00">ArrayList&lt; Nodes.Node &gt;</text>
</g>
<!-- Node4&#45;&gt;Node3 -->
<g id="edge3" class="edge"><title>Node4&#45;&gt;Node3</title>
<path fill="none" stroke="#9a32cd" stroke-dasharray="5,2" d="M85,-198.041C85,-185.472 85,-169.563 85,-159.841"/>
<polygon fill="#9a32cd" stroke="#9a32cd" points="81.5001,-198.372 85,-208.372 88.5001,-198.372 81.5001,-198.372"/>
<text text-anchor="middle" x="114" y="-181.5" font-family="Helvetica,sans-Serif" font-size="10.00"> myChildren</text>
</g>
</g>
</svg>
