<?xml version="1.0" encoding="UTF-8" standalone="no"?>
<!DOCTYPE svg PUBLIC "-//W3C//DTD SVG 1.1//EN"
 "http://www.w3.org/Graphics/SVG/1.1/DTD/svg11.dtd">
<!-- Generated by graphviz version 2.36.0 (20140111.2315)
 -->
<!-- Title: TurtleView.TurtleImageBox.changeTurtle Pages: 1 -->
<svg width="882pt" height="104pt"
 viewBox="0.00 0.00 882.00 104.00" xmlns="http://www.w3.org/2000/svg" xmlns:xlink="http://www.w3.org/1999/xlink">
<g id="graph0" class="graph" transform="scale(1 1) rotate(0) translate(4 100)">
<title>TurtleView.TurtleImageBox.changeTurtle</title>
<polygon fill="white" stroke="none" points="-4,4 -4,-100 878,-100 878,4 -4,4"/>
<!-- Node1 -->
<g id="node1" class="node"><title>Node1</title>
<polygon fill="#bfbfbf" stroke="black" points="0,-22 0,-52 178,-52 178,-22 0,-22"/>
<text text-anchor="start" x="8" y="-40" font-family="Helvetica,sans-Serif" font-size="10.00">TurtleView.TurtleImageBox.change</text>
<text text-anchor="middle" x="89" y="-29" font-family="Helvetica,sans-Serif" font-size="10.00">Turtle</text>
</g>
<!-- Node2 -->
<g id="node2" class="node"><title>Node2</title>
<g id="a_node2"><a xlink:href="../../d4/d8a/class_turtle_view_1_1_turtle_window.html#a55f7ffa346d2ced8f9e831efc900d0c0" target="_top" xlink:title="TurtleView.TurtleWindow.click">
<polygon fill="white" stroke="black" points="214.5,-49.5 214.5,-68.5 363.5,-68.5 363.5,-49.5 214.5,-49.5"/>
<text text-anchor="middle" x="289" y="-56.5" font-family="Helvetica,sans-Serif" font-size="10.00">TurtleView.TurtleWindow.click</text>
</a>
</g>
</g>
<!-- Node1&#45;&gt;Node2 -->
<g id="edge1" class="edge"><title>Node1&#45;&gt;Node2</title>
<path fill="none" stroke="midnightblue" d="M188.502,-47.9447C197.22,-48.9133 205.943,-49.8825 214.4,-50.8222"/>
<polygon fill="midnightblue" stroke="midnightblue" points="188.613,-44.4355 178.287,-46.8097 187.84,-51.3927 188.613,-44.4355"/>
</g>
<!-- Node7 -->
<g id="node7" class="node"><title>Node7</title>
<g id="a_node7"><a xlink:href="../../dc/d04/class_turtle_view_1_1_turtle_image_box.html#aec918734fba89feb149bef641ab63c35" target="_top" xlink:title="TurtleView.TurtleImageBox.\lTurtleImageBox">
<polygon fill="white" stroke="black" points="217.5,-0 217.5,-30 360.5,-30 360.5,-0 217.5,-0"/>
<text text-anchor="start" x="225.5" y="-18" font-family="Helvetica,sans-Serif" font-size="10.00">TurtleView.TurtleImageBox.</text>
<text text-anchor="middle" x="289" y="-7" font-family="Helvetica,sans-Serif" font-size="10.00">TurtleImageBox</text>
</a>
</g>
</g>
<!-- Node1&#45;&gt;Node7 -->
<g id="edge7" class="edge"><title>Node1&#45;&gt;Node7</title>
<path fill="none" stroke="midnightblue" d="M188.451,-26.061C198.223,-24.9753 208.001,-23.8888 217.406,-22.8438"/>
<polygon fill="midnightblue" stroke="midnightblue" points="187.84,-22.6073 178.287,-27.1903 188.613,-29.5645 187.84,-22.6073"/>
</g>
<!-- Node3 -->
<g id="node3" class="node"><title>Node3</title>
<g id="a_node3"><a xlink:href="../../d4/d8a/class_turtle_view_1_1_turtle_window.html#a82959fc46f81f3a875e126b5ecd6325d" target="_top" xlink:title="TurtleView.TurtleWindow.\lTurtleWindow">
<polygon fill="white" stroke="black" points="596.5,-66 596.5,-96 725.5,-96 725.5,-66 596.5,-66"/>
<text text-anchor="start" x="604.5" y="-84" font-family="Helvetica,sans-Serif" font-size="10.00">TurtleView.TurtleWindow.</text>
<text text-anchor="middle" x="661" y="-73" font-family="Helvetica,sans-Serif" font-size="10.00">TurtleWindow</text>
</a>
</g>
</g>
<!-- Node2&#45;&gt;Node3 -->
<g id="edge2" class="edge"><title>Node2&#45;&gt;Node3</title>
<path fill="none" stroke="midnightblue" d="M373.736,-63.9789C441.312,-67.9969 534.942,-73.5641 596.461,-77.222"/>
<polygon fill="midnightblue" stroke="midnightblue" points="373.733,-60.4726 363.542,-63.3728 373.317,-67.4603 373.733,-60.4726"/>
</g>
<!-- Node4 -->
<g id="node4" class="node"><title>Node4</title>
<g id="a_node4"><a xlink:href="../../d4/d8a/class_turtle_view_1_1_turtle_window.html#ab6961d80a7e356af4e9206478608ed40" target="_top" xlink:title="TurtleView.TurtleWindow.make\lTurtle">
<polygon fill="white" stroke="black" points="400,-22 400,-52 556,-52 556,-22 400,-22"/>
<text text-anchor="start" x="408" y="-40" font-family="Helvetica,sans-Serif" font-size="10.00">TurtleView.TurtleWindow.make</text>
<text text-anchor="middle" x="478" y="-29" font-family="Helvetica,sans-Serif" font-size="10.00">Turtle</text>
</a>
</g>
</g>
<!-- Node2&#45;&gt;Node4 -->
<g id="edge3" class="edge"><title>Node2&#45;&gt;Node4</title>
<path fill="none" stroke="midnightblue" d="M373.73,-49.1494C382.386,-48.131 391.155,-47.0994 399.736,-46.0899"/>
<polygon fill="midnightblue" stroke="midnightblue" points="373.161,-45.6921 363.639,-50.3366 373.979,-52.6441 373.161,-45.6921"/>
</g>
<!-- Node4&#45;&gt;Node3 -->
<g id="edge6" class="edge"><title>Node4&#45;&gt;Node3</title>
<path fill="none" stroke="midnightblue" d="M550.929,-54.4855C566.568,-58.2873 582.981,-62.277 598.188,-65.9738"/>
<polygon fill="midnightblue" stroke="midnightblue" points="551.327,-50.9805 540.784,-52.0192 549.674,-57.7824 551.327,-50.9805"/>
</g>
<!-- Node5 -->
<g id="node5" class="node"><title>Node5</title>
<g id="a_node5"><a xlink:href="../../df/dec/class_front_end_1_1_view.html#affad60393f506692d02f9dc2525780d2" target="_top" xlink:title="FrontEnd.View.makeTurtle\lButton">
<polygon fill="white" stroke="black" points="592,-17 592,-47 730,-47 730,-17 592,-17"/>
<text text-anchor="start" x="600" y="-35" font-family="Helvetica,sans-Serif" font-size="10.00">FrontEnd.View.makeTurtle</text>
<text text-anchor="middle" x="661" y="-24" font-family="Helvetica,sans-Serif" font-size="10.00">Button</text>
</a>
</g>
</g>
<!-- Node4&#45;&gt;Node5 -->
<g id="edge4" class="edge"><title>Node4&#45;&gt;Node5</title>
<path fill="none" stroke="midnightblue" d="M566.146,-34.5926C574.802,-34.3535 583.5,-34.1133 591.92,-33.8807"/>
<polygon fill="midnightblue" stroke="midnightblue" points="565.922,-31.0974 556.023,-34.8723 566.116,-38.0947 565.922,-31.0974"/>
</g>
<!-- Node6 -->
<g id="node6" class="node"><title>Node6</title>
<g id="a_node6"><a xlink:href="../../df/dec/class_front_end_1_1_view.html#a079d7e899ded516b169dc6e66da79e1e" target="_top" xlink:title="FrontEnd.View.View">
<polygon fill="white" stroke="black" points="766.5,-22.5 766.5,-41.5 873.5,-41.5 873.5,-22.5 766.5,-22.5"/>
<text text-anchor="middle" x="820" y="-29.5" font-family="Helvetica,sans-Serif" font-size="10.00">FrontEnd.View.View</text>
</a>
</g>
</g>
<!-- Node5&#45;&gt;Node6 -->
<g id="edge5" class="edge"><title>Node5&#45;&gt;Node6</title>
<path fill="none" stroke="midnightblue" d="M740.636,-32C749.372,-32 758.105,-32 766.404,-32"/>
<polygon fill="midnightblue" stroke="midnightblue" points="740.406,-28.5001 730.406,-32 740.406,-35.5001 740.406,-28.5001"/>
</g>
</g>
</svg>
