<?xml version="1.0" encoding="UTF-8" standalone="no"?>
<!DOCTYPE svg PUBLIC "-//W3C//DTD SVG 1.1//EN"
 "http://www.w3.org/Graphics/SVG/1.1/DTD/svg11.dtd">
<!-- Generated by graphviz version 2.36.0 (20140111.2315)
 -->
<!-- Title: TurtleView.TurtleImageBox.TurtleImageBox Pages: 1 -->
<svg width="572pt" height="106pt"
 viewBox="0.00 0.00 572.00 106.00" xmlns="http://www.w3.org/2000/svg" xmlns:xlink="http://www.w3.org/1999/xlink">
<g id="graph0" class="graph" transform="scale(1 1) rotate(0) translate(4 102)">
<title>TurtleView.TurtleImageBox.TurtleImageBox</title>
<polygon fill="white" stroke="none" points="-4,4 -4,-102 568,-102 568,4 -4,4"/>
<!-- Node1 -->
<g id="node1" class="node"><title>Node1</title>
<polygon fill="#bfbfbf" stroke="black" points="0.5,-46 0.5,-76 143.5,-76 143.5,-46 0.5,-46"/>
<text text-anchor="start" x="8.5" y="-64" font-family="Helvetica,sans-Serif" font-size="10.00">TurtleView.TurtleImageBox.</text>
<text text-anchor="middle" x="72" y="-53" font-family="Helvetica,sans-Serif" font-size="10.00">TurtleImageBox</text>
</g>
<!-- Node2 -->
<g id="node2" class="node"><title>Node2</title>
<g id="a_node2"><a xlink:href="../../dc/d04/class_turtle_view_1_1_turtle_image_box.html#afc8ed7ffd8fe31dade346f0dee9d550c" target="_top" xlink:title="TurtleView.TurtleImageBox.change\lTurtle">
<polygon fill="white" stroke="black" points="180,-68 180,-98 358,-98 358,-68 180,-68"/>
<text text-anchor="start" x="188" y="-86" font-family="Helvetica,sans-Serif" font-size="10.00">TurtleView.TurtleImageBox.change</text>
<text text-anchor="middle" x="269" y="-75" font-family="Helvetica,sans-Serif" font-size="10.00">Turtle</text>
</a>
</g>
</g>
<!-- Node1&#45;&gt;Node2 -->
<g id="edge1" class="edge"><title>Node1&#45;&gt;Node2</title>
<path fill="none" stroke="midnightblue" d="M143.675,-68.9736C152.228,-69.9385 161.079,-70.9371 169.937,-71.9365"/>
<polygon fill="midnightblue" stroke="midnightblue" points="169.595,-75.42 179.924,-73.0633 170.38,-68.4641 169.595,-75.42"/>
</g>
<!-- Node3 -->
<g id="node3" class="node"><title>Node3</title>
<g id="a_node3"><a xlink:href="../../dc/d04/class_turtle_view_1_1_turtle_image_box.html#aacb8072ad281d5d1576806ed4ce9fd0c" target="_top" xlink:title="TurtleView.TurtleImageBox.handle">
<polygon fill="white" stroke="black" points="181.5,-29.5 181.5,-48.5 356.5,-48.5 356.5,-29.5 181.5,-29.5"/>
<text text-anchor="middle" x="269" y="-36.5" font-family="Helvetica,sans-Serif" font-size="10.00">TurtleView.TurtleImageBox.handle</text>
</a>
</g>
</g>
<!-- Node1&#45;&gt;Node3 -->
<g id="edge2" class="edge"><title>Node1&#45;&gt;Node3</title>
<path fill="none" stroke="midnightblue" d="M143.675,-53.0264C153.403,-51.9289 163.517,-50.7878 173.587,-49.6517"/>
<polygon fill="midnightblue" stroke="midnightblue" points="174.082,-53.1181 183.627,-48.519 173.298,-46.1623 174.082,-53.1181"/>
</g>
<!-- Node4 -->
<g id="node4" class="node"><title>Node4</title>
<g id="a_node4"><a xlink:href="../../d1/de0/class_backend_1_1_turtle.html#a964e2ec9defb79a1be90f106a75580a8" target="_top" xlink:title="Backend.Turtle.changeToDefault\lImage">
<polygon fill="white" stroke="black" points="394.5,-49 394.5,-79 563.5,-79 563.5,-49 394.5,-49"/>
<text text-anchor="start" x="402.5" y="-67" font-family="Helvetica,sans-Serif" font-size="10.00">Backend.Turtle.changeToDefault</text>
<text text-anchor="middle" x="479" y="-56" font-family="Helvetica,sans-Serif" font-size="10.00">Image</text>
</a>
</g>
</g>
<!-- Node3&#45;&gt;Node4 -->
<g id="edge3" class="edge"><title>Node3&#45;&gt;Node4</title>
<path fill="none" stroke="midnightblue" d="M349.229,-48.5227C360.684,-49.8995 372.564,-51.3274 384.269,-52.7343"/>
<polygon fill="midnightblue" stroke="midnightblue" points="384.149,-56.2449 394.495,-53.9634 384.984,-49.295 384.149,-56.2449"/>
</g>
<!-- Node5 -->
<g id="node5" class="node"><title>Node5</title>
<g id="a_node5"><a xlink:href="../../d1/de0/class_backend_1_1_turtle.html#a40ed15b832669977fa9e09189b1e9aad" target="_top" xlink:title="Backend.Turtle.changeToLoaded\lImage">
<polygon fill="white" stroke="black" points="394,-0 394,-30 564,-30 564,-0 394,-0"/>
<text text-anchor="start" x="402" y="-18" font-family="Helvetica,sans-Serif" font-size="10.00">Backend.Turtle.changeToLoaded</text>
<text text-anchor="middle" x="479" y="-7" font-family="Helvetica,sans-Serif" font-size="10.00">Image</text>
</a>
</g>
</g>
<!-- Node3&#45;&gt;Node5 -->
<g id="edge4" class="edge"><title>Node3&#45;&gt;Node5</title>
<path fill="none" stroke="midnightblue" d="M352.506,-29.4801C362.82,-28.29 373.43,-27.0658 383.904,-25.8573"/>
<polygon fill="midnightblue" stroke="midnightblue" points="384.357,-29.3282 393.89,-24.705 383.555,-22.3744 384.357,-29.3282"/>
</g>
</g>
</svg>
