<?xml version="1.0" encoding="UTF-8" standalone="no"?>
<!DOCTYPE svg PUBLIC "-//W3C//DTD SVG 1.1//EN"
 "http://www.w3.org/Graphics/SVG/1.1/DTD/svg11.dtd">
<!-- Generated by graphviz version 2.36.0 (20140111.2315)
 -->
<!-- Title: TurtleView.TurtleImageBox.handle Pages: 1 -->
<svg width="390pt" height="87pt"
 viewBox="0.00 0.00 390.00 87.00" xmlns="http://www.w3.org/2000/svg" xmlns:xlink="http://www.w3.org/1999/xlink">
<g id="graph0" class="graph" transform="scale(1 1) rotate(0) translate(4 83)">
<title>TurtleView.TurtleImageBox.handle</title>
<polygon fill="white" stroke="none" points="-4,4 -4,-83 386,-83 386,4 -4,4"/>
<!-- Node1 -->
<g id="node1" class="node"><title>Node1</title>
<polygon fill="#bfbfbf" stroke="black" points="0.5,-29.5 0.5,-48.5 175.5,-48.5 175.5,-29.5 0.5,-29.5"/>
<text text-anchor="middle" x="88" y="-36.5" font-family="Helvetica,sans-Serif" font-size="10.00">TurtleView.TurtleImageBox.handle</text>
</g>
<!-- Node2 -->
<g id="node2" class="node"><title>Node2</title>
<g id="a_node2"><a xlink:href="../../d1/de0/class_backend_1_1_turtle.html#a964e2ec9defb79a1be90f106a75580a8" target="_top" xlink:title="Backend.Turtle.changeToDefault\lImage">
<polygon fill="white" stroke="black" points="212.5,-49 212.5,-79 381.5,-79 381.5,-49 212.5,-49"/>
<text text-anchor="start" x="220.5" y="-67" font-family="Helvetica,sans-Serif" font-size="10.00">Backend.Turtle.changeToDefault</text>
<text text-anchor="middle" x="297" y="-56" font-family="Helvetica,sans-Serif" font-size="10.00">Image</text>
</a>
</g>
</g>
<!-- Node1&#45;&gt;Node2 -->
<g id="edge1" class="edge"><title>Node1&#45;&gt;Node2</title>
<path fill="none" stroke="midnightblue" d="M167.848,-48.5227C179.071,-49.8782 190.704,-51.2832 202.178,-52.6688"/>
<polygon fill="midnightblue" stroke="midnightblue" points="201.857,-56.1555 212.205,-53.8798 202.697,-49.206 201.857,-56.1555"/>
</g>
<!-- Node3 -->
<g id="node3" class="node"><title>Node3</title>
<g id="a_node3"><a xlink:href="../../d1/de0/class_backend_1_1_turtle.html#a40ed15b832669977fa9e09189b1e9aad" target="_top" xlink:title="Backend.Turtle.changeToLoaded\lImage">
<polygon fill="white" stroke="black" points="212,-0 212,-30 382,-30 382,-0 212,-0"/>
<text text-anchor="start" x="220" y="-18" font-family="Helvetica,sans-Serif" font-size="10.00">Backend.Turtle.changeToLoaded</text>
<text text-anchor="middle" x="297" y="-7" font-family="Helvetica,sans-Serif" font-size="10.00">Image</text>
</a>
</g>
</g>
<!-- Node1&#45;&gt;Node3 -->
<g id="edge2" class="edge"><title>Node1&#45;&gt;Node3</title>
<path fill="none" stroke="midnightblue" d="M171.109,-29.4801C181.183,-28.3121 191.54,-27.1112 201.776,-25.9246"/>
<polygon fill="midnightblue" stroke="midnightblue" points="202.425,-29.3729 211.955,-24.7443 201.618,-22.4194 202.425,-29.3729"/>
</g>
</g>
</svg>
