<?xml version="1.0" encoding="UTF-8" standalone="no"?>
<!DOCTYPE svg PUBLIC "-//W3C//DTD SVG 1.1//EN"
 "http://www.w3.org/Graphics/SVG/1.1/DTD/svg11.dtd">
<!-- Generated by graphviz version 2.36.0 (20140111.2315)
 -->
<!-- Title: Nodes.booleans.BooleanNode Pages: 1 -->
<svg width="490pt" height="256pt"
 viewBox="0.00 0.00 490.00 256.00" xmlns="http://www.w3.org/2000/svg" xmlns:xlink="http://www.w3.org/1999/xlink">
<g id="graph0" class="graph" transform="scale(1 1) rotate(0) translate(4 252)">
<title>Nodes.booleans.BooleanNode</title>
<polygon fill="white" stroke="none" points="-4,4 -4,-252 486,-252 486,4 -4,4"/>
<!-- Node1 -->
<g id="node1" class="node"><title>Node1</title>
<polygon fill="#bfbfbf" stroke="black" points="112.5,-114.5 112.5,-133.5 273.5,-133.5 273.5,-114.5 112.5,-114.5"/>
<text text-anchor="middle" x="193" y="-121.5" font-family="Helvetica,sans-Serif" font-size="10.00">Nodes.booleans.BooleanNode</text>
</g>
<!-- Node3 -->
<g id="node3" class="node"><title>Node3</title>
<g id="a_node3"><a xlink:href="../../d8/d13/class_nodes_1_1booleans_1_1_and_node.html" target="_top" xlink:title="Nodes.booleans.AndNode">
<polygon fill="white" stroke="black" points="325.5,-228.5 325.5,-247.5 466.5,-247.5 466.5,-228.5 325.5,-228.5"/>
<text text-anchor="middle" x="396" y="-235.5" font-family="Helvetica,sans-Serif" font-size="10.00">Nodes.booleans.AndNode</text>
</a>
</g>
</g>
<!-- Node1&#45;&gt;Node3 -->
<g id="edge2" class="edge"><title>Node1&#45;&gt;Node3</title>
<path fill="none" stroke="midnightblue" d="M209.618,-140.97C230.413,-162.497 269.324,-199.198 310,-219 318.021,-222.905 326.86,-226.019 335.714,-228.5"/>
<polygon fill="midnightblue" stroke="midnightblue" points="211.988,-138.382 202.57,-133.529 206.906,-143.196 211.988,-138.382"/>
</g>
<!-- Node4 -->
<g id="node4" class="node"><title>Node4</title>
<g id="a_node4"><a xlink:href="../../d8/dc8/class_nodes_1_1booleans_1_1_equals_node.html" target="_top" xlink:title="Nodes.booleans.EqualsNode">
<polygon fill="white" stroke="black" points="319,-190.5 319,-209.5 473,-209.5 473,-190.5 319,-190.5"/>
<text text-anchor="middle" x="396" y="-197.5" font-family="Helvetica,sans-Serif" font-size="10.00">Nodes.booleans.EqualsNode</text>
</a>
</g>
</g>
<!-- Node1&#45;&gt;Node4 -->
<g id="edge3" class="edge"><title>Node1&#45;&gt;Node4</title>
<path fill="none" stroke="midnightblue" d="M219.132,-138.521C242.134,-151.279 277.444,-169.545 310,-181 320.555,-184.714 332.111,-187.868 343.206,-190.476"/>
<polygon fill="midnightblue" stroke="midnightblue" points="220.798,-135.442 210.365,-133.594 217.368,-141.544 220.798,-135.442"/>
</g>
<!-- Node5 -->
<g id="node5" class="node"><title>Node5</title>
<g id="a_node5"><a xlink:href="../../d3/d88/class_nodes_1_1booleans_1_1_greater_node.html" target="_top" xlink:title="Nodes.booleans.GreaterNode">
<polygon fill="white" stroke="black" points="316.5,-152.5 316.5,-171.5 475.5,-171.5 475.5,-152.5 316.5,-152.5"/>
<text text-anchor="middle" x="396" y="-159.5" font-family="Helvetica,sans-Serif" font-size="10.00">Nodes.booleans.GreaterNode</text>
</a>
</g>
</g>
<!-- Node1&#45;&gt;Node5 -->
<g id="edge4" class="edge"><title>Node1&#45;&gt;Node5</title>
<path fill="none" stroke="midnightblue" d="M254.396,-135.418C283.155,-140.855 317.156,-147.283 344.518,-152.456"/>
<polygon fill="midnightblue" stroke="midnightblue" points="254.937,-131.959 244.461,-133.54 253.637,-138.837 254.937,-131.959"/>
</g>
<!-- Node6 -->
<g id="node6" class="node"><title>Node6</title>
<g id="a_node6"><a xlink:href="../../db/def/class_nodes_1_1booleans_1_1_less_node.html" target="_top" xlink:title="Nodes.booleans.LessNode">
<polygon fill="white" stroke="black" points="324,-114.5 324,-133.5 468,-133.5 468,-114.5 324,-114.5"/>
<text text-anchor="middle" x="396" y="-121.5" font-family="Helvetica,sans-Serif" font-size="10.00">Nodes.booleans.LessNode</text>
</a>
</g>
</g>
<!-- Node1&#45;&gt;Node6 -->
<g id="edge5" class="edge"><title>Node1&#45;&gt;Node6</title>
<path fill="none" stroke="midnightblue" d="M283.896,-124C297.276,-124 310.91,-124 323.835,-124"/>
<polygon fill="midnightblue" stroke="midnightblue" points="283.729,-120.5 273.729,-124 283.729,-127.5 283.729,-120.5"/>
</g>
<!-- Node7 -->
<g id="node7" class="node"><title>Node7</title>
<g id="a_node7"><a xlink:href="../../d6/dfe/class_nodes_1_1booleans_1_1_not_equals_node.html" target="_top" xlink:title="Nodes.booleans.NotEqualsNode">
<polygon fill="white" stroke="black" points="310.5,-76.5 310.5,-95.5 481.5,-95.5 481.5,-76.5 310.5,-76.5"/>
<text text-anchor="middle" x="396" y="-83.5" font-family="Helvetica,sans-Serif" font-size="10.00">Nodes.booleans.NotEqualsNode</text>
</a>
</g>
</g>
<!-- Node1&#45;&gt;Node7 -->
<g id="edge6" class="edge"><title>Node1&#45;&gt;Node7</title>
<path fill="none" stroke="midnightblue" d="M254.396,-112.582C283.155,-107.145 317.156,-100.717 344.518,-95.5439"/>
<polygon fill="midnightblue" stroke="midnightblue" points="253.637,-109.163 244.461,-114.46 254.937,-116.041 253.637,-109.163"/>
</g>
<!-- Node8 -->
<g id="node8" class="node"><title>Node8</title>
<g id="a_node8"><a xlink:href="../../de/d2c/class_nodes_1_1booleans_1_1_not_node.html" target="_top" xlink:title="Nodes.booleans.NotNode">
<polygon fill="white" stroke="black" points="326,-38.5 326,-57.5 466,-57.5 466,-38.5 326,-38.5"/>
<text text-anchor="middle" x="396" y="-45.5" font-family="Helvetica,sans-Serif" font-size="10.00">Nodes.booleans.NotNode</text>
</a>
</g>
</g>
<!-- Node1&#45;&gt;Node8 -->
<g id="edge7" class="edge"><title>Node1&#45;&gt;Node8</title>
<path fill="none" stroke="midnightblue" d="M219.132,-109.479C242.134,-96.7211 277.444,-78.455 310,-67 320.555,-63.2861 332.111,-60.1317 343.206,-57.5237"/>
<polygon fill="midnightblue" stroke="midnightblue" points="217.368,-106.456 210.365,-114.406 220.798,-112.558 217.368,-106.456"/>
</g>
<!-- Node9 -->
<g id="node9" class="node"><title>Node9</title>
<g id="a_node9"><a xlink:href="../../dc/d18/class_nodes_1_1booleans_1_1_or_node.html" target="_top" xlink:title="Nodes.booleans.OrNode">
<polygon fill="white" stroke="black" points="329,-0.5 329,-19.5 463,-19.5 463,-0.5 329,-0.5"/>
<text text-anchor="middle" x="396" y="-7.5" font-family="Helvetica,sans-Serif" font-size="10.00">Nodes.booleans.OrNode</text>
</a>
</g>
</g>
<!-- Node1&#45;&gt;Node9 -->
<g id="edge8" class="edge"><title>Node1&#45;&gt;Node9</title>
<path fill="none" stroke="midnightblue" d="M209.618,-107.03C230.413,-85.5026 269.324,-48.8025 310,-29 318.021,-25.0949 326.86,-21.9807 335.714,-19.5001"/>
<polygon fill="midnightblue" stroke="midnightblue" points="206.906,-104.804 202.57,-114.471 211.988,-109.618 206.906,-104.804"/>
</g>
<!-- Node2 -->
<g id="node2" class="node"><title>Node2</title>
<g id="a_node2"><a xlink:href="../../df/dac/class_nodes_1_1_node.html" target="_top" xlink:title="Nodes.Node">
<polygon fill="white" stroke="black" points="0,-114.5 0,-133.5 76,-133.5 76,-114.5 0,-114.5"/>
<text text-anchor="middle" x="38" y="-121.5" font-family="Helvetica,sans-Serif" font-size="10.00">Nodes.Node</text>
</a>
</g>
</g>
<!-- Node2&#45;&gt;Node1 -->
<g id="edge1" class="edge"><title>Node2&#45;&gt;Node1</title>
<path fill="none" stroke="midnightblue" d="M86.2465,-124C94.5649,-124 103.427,-124 112.346,-124"/>
<polygon fill="midnightblue" stroke="midnightblue" points="86.0371,-120.5 76.037,-124 86.037,-127.5 86.0371,-120.5"/>
</g>
</g>
</svg>
