<?xml version="1.0" encoding="UTF-8" standalone="no"?>
<!DOCTYPE svg PUBLIC "-//W3C//DTD SVG 1.1//EN"
 "http://www.w3.org/Graphics/SVG/1.1/DTD/svg11.dtd">
<!-- Generated by graphviz version 2.36.0 (20140111.2315)
 -->
<!-- Title: Nodes.turtlecommands.PenDownNode Pages: 1 -->
<svg width="216pt" height="220pt"
 viewBox="0.00 0.00 216.00 220.00" xmlns="http://www.w3.org/2000/svg" xmlns:xlink="http://www.w3.org/1999/xlink">
<g id="graph0" class="graph" transform="scale(1 1) rotate(0) translate(4 216)">
<title>Nodes.turtlecommands.PenDownNode</title>
<polygon fill="white" stroke="none" points="-4,4 -4,-216 212,-216 212,4 -4,4"/>
<!-- Node1 -->
<g id="node1" class="node"><title>Node1</title>
<polygon fill="#bfbfbf" stroke="black" points="28.5,-1 28.5,-31 179.5,-31 179.5,-1 28.5,-1"/>
<text text-anchor="start" x="36.5" y="-19" font-family="Helvetica,sans-Serif" font-size="10.00">Nodes.turtlecommands.Pen</text>
<text text-anchor="middle" x="104" y="-8" font-family="Helvetica,sans-Serif" font-size="10.00">DownNode</text>
</g>
<!-- Node2 -->
<g id="node2" class="node"><title>Node2</title>
<g id="a_node2"><a xlink:href="../../d6/dfd/class_nodes_1_1turtlecommands_1_1_zero_children_node.html" target="_top" xlink:title="Nodes.turtlecommands.Zero\lChildrenNode">
<polygon fill="white" stroke="black" points="26,-69 26,-99 182,-99 182,-69 26,-69"/>
<text text-anchor="start" x="34" y="-87" font-family="Helvetica,sans-Serif" font-size="10.00">Nodes.turtlecommands.Zero</text>
<text text-anchor="middle" x="104" y="-76" font-family="Helvetica,sans-Serif" font-size="10.00">ChildrenNode</text>
</a>
</g>
</g>
<!-- Node2&#45;&gt;Node1 -->
<g id="edge1" class="edge"><title>Node2&#45;&gt;Node1</title>
<path fill="none" stroke="midnightblue" d="M104,-58.5322C104,-49.3606 104,-39.2449 104,-31.2931"/>
<polygon fill="midnightblue" stroke="midnightblue" points="100.5,-58.6789 104,-68.679 107.5,-58.679 100.5,-58.6789"/>
</g>
<!-- Node3 -->
<g id="node3" class="node"><title>Node3</title>
<g id="a_node3"><a xlink:href="../../dc/d38/class_nodes_1_1turtlecommands_1_1_command_node.html" target="_top" xlink:title="Nodes.turtlecommands.CommandNode">
<polygon fill="white" stroke="black" points="-0.5,-136.5 -0.5,-155.5 208.5,-155.5 208.5,-136.5 -0.5,-136.5"/>
<text text-anchor="middle" x="104" y="-143.5" font-family="Helvetica,sans-Serif" font-size="10.00">Nodes.turtlecommands.CommandNode</text>
</a>
</g>
</g>
<!-- Node3&#45;&gt;Node2 -->
<g id="edge2" class="edge"><title>Node3&#45;&gt;Node2</title>
<path fill="none" stroke="midnightblue" d="M104,-126.371C104,-117.585 104,-107.272 104,-99.1408"/>
<polygon fill="midnightblue" stroke="midnightblue" points="100.5,-126.403 104,-136.403 107.5,-126.403 100.5,-126.403"/>
</g>
<!-- Node4 -->
<g id="node4" class="node"><title>Node4</title>
<g id="a_node4"><a xlink:href="../../df/dac/class_nodes_1_1_node.html" target="_top" xlink:title="Nodes.Node">
<polygon fill="white" stroke="black" points="66,-192.5 66,-211.5 142,-211.5 142,-192.5 66,-192.5"/>
<text text-anchor="middle" x="104" y="-199.5" font-family="Helvetica,sans-Serif" font-size="10.00">Nodes.Node</text>
</a>
</g>
</g>
<!-- Node4&#45;&gt;Node3 -->
<g id="edge3" class="edge"><title>Node4&#45;&gt;Node3</title>
<path fill="none" stroke="midnightblue" d="M104,-181.805C104,-172.91 104,-162.78 104,-155.751"/>
<polygon fill="midnightblue" stroke="midnightblue" points="100.5,-182.083 104,-192.083 107.5,-182.083 100.5,-182.083"/>
</g>
</g>
</svg>
