<?xml version="1.0" encoding="UTF-8" standalone="no"?>
<!DOCTYPE svg PUBLIC "-//W3C//DTD SVG 1.1//EN"
 "http://www.w3.org/Graphics/SVG/1.1/DTD/svg11.dtd">
<!-- Generated by graphviz version 2.36.0 (20140111.2315)
 -->
<!-- Title: TurtleView.TurtleWindow Pages: 1 -->
<!--zoomable 534 -->
<svg id="main" version="1.1" xmlns="http://www.w3.org/2000/svg" xmlns:xlink="http://www.w3.org/1999/xlink" xml:space="preserve" onload="init(evt)">
<style type="text/css"><![CDATA[
.edge:hover path { stroke: red; }
.edge:hover polygon { stroke: red; fill: red; }
]]></style>
<script type="text/javascript"><![CDATA[
var edges = document.getElementsByTagName('g');
if (edges && edges.length) {
  for (var i=0;i<edges.length;i++) {
    if (edges[i].id.substr(0,4)=='edge') {
      edges[i].setAttribute('class','edge');
    }
  }
}
]]></script>
        <defs>
                <circle id="rim" cx="0" cy="0" r="7"/>
                <circle id="rim2" cx="0" cy="0" r="3.5"/>
                <g id="zoomPlus">
                        <use xlink:href="#rim" fill="#404040">
                                <set attributeName="fill" to="#808080" begin="zoomplus.mouseover" end="zoomplus.mouseout"/>
                        </use>
                        <path d="M-4,0h8M0,-4v8" fill="none" stroke="white" stroke-width="1.5" pointer-events="none"/>
                </g>
                <g id="zoomMin">
                        <use xlink:href="#rim" fill="#404040">
                                <set attributeName="fill" to="#808080" begin="zoomminus.mouseover" end="zoomminus.mouseout"/>
                        </use>
                        <path d="M-4,0h8" fill="none" stroke="white" stroke-width="1.5" pointer-events="none"/>
                </g>
                <g id="dirArrow">
                        <path fill="none" stroke="white" stroke-width="1.5" d="M0,-3.0v7 M-2.5,-0.5L0,-3.0L2.5,-0.5"/>
                </g>
               <g id="resetDef">
                       <use xlink:href="#rim2" fill="#404040">
                               <set attributeName="fill" to="#808080" begin="reset.mouseover" end="reset.mouseout"/>
                       </use>
               </g>
        </defs>

<script type="text/javascript">
var viewWidth = 1410;
var viewHeight = 534;
var sectionId = 'dynsection-1';
</script>
<script xlink:href="../../svgpan.js"/>
<svg id="graph" class="graph">
<g id="viewport">
<title>TurtleView.TurtleWindow</title>
<polygon fill="white" stroke="none" points="-4,4 -4,-529.646 1406,-529.646 1406,4 -4,4"/>
<!-- Node1 -->
<g id="node1" class="node"><title>Node1</title>
<polygon fill="#bfbfbf" stroke="black" points="1274.5,-181.146 1274.5,-200.146 1401.5,-200.146 1401.5,-181.146 1274.5,-181.146"/>
<text text-anchor="middle" x="1338" y="-188.146" font-family="Helvetica,sans-Serif" font-size="10.00">TurtleView.TurtleWindow</text>
</g>
<!-- Node2 -->
<g id="node2" class="node"><title>Node2</title>
<polygon fill="white" stroke="#bfbfbf" points="1056,-506.146 1056,-525.146 1096,-525.146 1096,-506.146 1056,-506.146"/>
<text text-anchor="middle" x="1076" y="-513.146" font-family="Helvetica,sans-Serif" font-size="10.00">Pane</text>
</g>
<!-- Node2&#45;&gt;Node1 -->
<g id="edge1" class="edge"><title>Node2&#45;&gt;Node1</title>
<path fill="none" stroke="midnightblue" d="M1106.4,-520.751C1145.51,-525.749 1214.54,-528.05 1256,-491.646 1301.95,-451.297 1329.9,-247.603 1335.82,-200.416"/>
<polygon fill="midnightblue" stroke="midnightblue" points="1106.6,-517.245 1096.21,-519.3 1105.61,-524.175 1106.6,-517.245"/>
</g>
<!-- Node3 -->
<g id="node3" class="node"><title>Node3</title>
<g id="a_node3"><a xlink:href="../../d9/d38/class_turtle_view_1_1_turtle_information.html" target="_top" xlink:title="TurtleView.TurtleInformation">
<polygon fill="white" stroke="black" points="502,-135.146 502,-154.146 648,-154.146 648,-135.146 502,-135.146"/>
<text text-anchor="middle" x="575" y="-142.146" font-family="Helvetica,sans-Serif" font-size="10.00">TurtleView.TurtleInformation</text>
</a>
</g>
</g>
<!-- Node3&#45;&gt;Node1 -->
<g id="edge2" class="edge"><title>Node3&#45;&gt;Node1</title>
<path fill="none" stroke="#9a32cd" stroke-dasharray="5,2" d="M640.495,-130.553C643.121,-129.077 645.639,-127.447 648,-125.646 660.67,-115.987 652.193,-102.595 666,-94.6464 704.517,-72.4717 721.71,-90.9492 766,-94.6464 965.849,-111.329 1200.98,-160.311 1295.04,-181.12"/>
<polygon fill="#9a32cd" stroke="#9a32cd" points="638.72,-127.523 631.215,-135.001 641.746,-133.835 638.72,-127.523"/>
<text text-anchor="middle" x="938" y="-125.646" font-family="Helvetica,sans-Serif" font-size="10.00"> myTurtleInformation</text>
</g>
<!-- Node5 -->
<g id="node5" class="node"><title>Node5</title>
<g id="a_node5"><a xlink:href="../../d1/de0/class_backend_1_1_turtle.html" target="_top" xlink:title="Backend.Turtle">
<polygon fill="white" stroke="black" points="784,-215.146 784,-234.146 870,-234.146 870,-215.146 784,-215.146"/>
<text text-anchor="middle" x="827" y="-222.146" font-family="Helvetica,sans-Serif" font-size="10.00">Backend.Turtle</text>
</a>
</g>
</g>
<!-- Node3&#45;&gt;Node5 -->
<g id="edge6" class="edge"><title>Node3&#45;&gt;Node5</title>
<path fill="none" stroke="#9a32cd" stroke-dasharray="5,2" d="M643.012,-155.983C688.431,-164.192 744.042,-175.421 766,-184.646 784.236,-192.308 802.817,-205.749 814.371,-214.917"/>
<polygon fill="#9a32cd" stroke="#9a32cd" points="643.36,-152.49 632.9,-154.174 642.128,-159.38 643.36,-152.49"/>
<text text-anchor="middle" x="716" y="-187.646" font-family="Helvetica,sans-Serif" font-size="10.00"> myTurtleInformation</text>
</g>
<!-- Node4 -->
<g id="node4" class="node"><title>Node4</title>
<polygon fill="white" stroke="#bfbfbf" points="291.5,-227.146 291.5,-246.146 332.5,-246.146 332.5,-227.146 291.5,-227.146"/>
<text text-anchor="middle" x="312" y="-234.146" font-family="Helvetica,sans-Serif" font-size="10.00">VBox</text>
</g>
<!-- Node4&#45;&gt;Node3 -->
<g id="edge3" class="edge"><title>Node4&#45;&gt;Node3</title>
<path fill="none" stroke="midnightblue" d="M342.432,-230.604C352.359,-227.699 363.155,-223.529 372,-217.646 382.236,-210.839 379.68,-203.325 390,-196.646 395.446,-193.122 495.752,-165.391 502,-163.646 513.331,-160.483 525.704,-157.167 536.947,-154.208"/>
<polygon fill="midnightblue" stroke="midnightblue" points="341.311,-227.279 332.519,-233.192 343.079,-234.052 341.311,-227.279"/>
</g>
<!-- Node12 -->
<g id="node12" class="node"><title>Node12</title>
<g id="a_node12"><a xlink:href="../../d0/d46/class_pen_1_1_pen_options.html" target="_top" xlink:title="Pen.PenOptions">
<polygon fill="white" stroke="black" points="529,-334.146 529,-353.146 621,-353.146 621,-334.146 529,-334.146"/>
<text text-anchor="middle" x="575" y="-341.146" font-family="Helvetica,sans-Serif" font-size="10.00">Pen.PenOptions</text>
</a>
</g>
</g>
<!-- Node4&#45;&gt;Node12 -->
<g id="edge14" class="edge"><title>Node4&#45;&gt;Node12</title>
<path fill="none" stroke="midnightblue" d="M343.006,-236.544C380.379,-237.999 444.152,-245.897 484,-280.646 499.924,-294.533 486.119,-310.711 502,-324.646 509.579,-331.297 519.224,-335.659 528.972,-338.509"/>
<polygon fill="midnightblue" stroke="midnightblue" points="342.845,-233.039 332.759,-236.282 342.666,-240.037 342.845,-233.039"/>
</g>
<!-- Node5&#45;&gt;Node3 -->
<g id="edge4" class="edge"><title>Node5&#45;&gt;Node3</title>
<path fill="none" stroke="#9a32cd" stroke-dasharray="5,2" d="M817.231,-205.763C807.566,-187.426 790.127,-160.654 766,-148.646 720.807,-126.156 661.767,-129.12 621.574,-135.145"/>
<polygon fill="#9a32cd" stroke="#9a32cd" points="814.206,-207.54 821.794,-214.934 820.473,-204.422 814.206,-207.54"/>
<text text-anchor="middle" x="716" y="-151.646" font-family="Helvetica,sans-Serif" font-size="10.00"> myTurtle</text>
</g>
<!-- Node8 -->
<g id="node8" class="node"><title>Node8</title>
<g id="a_node8"><a xlink:href="../../dc/d04/class_turtle_view_1_1_turtle_image_box.html" target="_top" xlink:title="TurtleView.TurtleImageBox">
<polygon fill="white" stroke="black" points="1006,-181.146 1006,-200.146 1146,-200.146 1146,-181.146 1006,-181.146"/>
<text text-anchor="middle" x="1076" y="-188.146" font-family="Helvetica,sans-Serif" font-size="10.00">TurtleView.TurtleImageBox</text>
</a>
</g>
</g>
<!-- Node5&#45;&gt;Node8 -->
<g id="edge10" class="edge"><title>Node5&#45;&gt;Node8</title>
<path fill="none" stroke="#9a32cd" stroke-dasharray="5,2" d="M848.468,-209.05C859.534,-201.598 873.812,-193.482 888,-189.646 926.079,-179.352 970.135,-179.054 1005.92,-181.583"/>
<polygon fill="#9a32cd" stroke="#9a32cd" points="846.14,-206.41 840,-215.045 850.184,-212.123 846.14,-206.41"/>
<text text-anchor="middle" x="938" y="-192.646" font-family="Helvetica,sans-Serif" font-size="10.00"> myTurtle</text>
</g>
<!-- Node6 -->
<g id="node6" class="node"><title>Node6</title>
<polygon fill="white" stroke="#bfbfbf" points="541,-173.146 541,-192.146 609,-192.146 609,-173.146 541,-173.146"/>
<text text-anchor="middle" x="575" y="-180.146" font-family="Helvetica,sans-Serif" font-size="10.00">ImageView</text>
</g>
<!-- Node6&#45;&gt;Node5 -->
<g id="edge5" class="edge"><title>Node6&#45;&gt;Node5</title>
<path fill="none" stroke="midnightblue" d="M619.198,-189.904C665.383,-197.663 738.131,-209.884 783.892,-217.572"/>
<polygon fill="midnightblue" stroke="midnightblue" points="619.64,-186.429 609.198,-188.224 618.48,-193.332 619.64,-186.429"/>
</g>
<!-- Node7 -->
<g id="node7" class="node"><title>Node7</title>
<polygon fill="white" stroke="#bfbfbf" points="548,-97.1464 548,-116.146 602,-116.146 602,-97.1464 548,-97.1464"/>
<text text-anchor="middle" x="575" y="-104.146" font-family="Helvetica,sans-Serif" font-size="10.00">Point2D</text>
</g>
<!-- Node7&#45;&gt;Node5 -->
<g id="edge7" class="edge"><title>Node7&#45;&gt;Node5</title>
<path fill="none" stroke="#9a32cd" stroke-dasharray="5,2" d="M612.321,-98.7789C653.004,-92.0502 719.347,-87.518 766,-116.646 802.57,-139.479 818.702,-193.036 823.946,-214.995"/>
<polygon fill="#9a32cd" stroke="#9a32cd" points="611.539,-95.3629 602.31,-100.565 612.769,-102.254 611.539,-95.3629"/>
<text text-anchor="middle" x="716" y="-119.646" font-family="Helvetica,sans-Serif" font-size="10.00"> myLocation</text>
</g>
<!-- Node8&#45;&gt;Node1 -->
<g id="edge33" class="edge"><title>Node8&#45;&gt;Node1</title>
<path fill="none" stroke="#9a32cd" stroke-dasharray="5,2" d="M1156.78,-190.646C1194.47,-190.646 1238.82,-190.646 1274.09,-190.646"/>
<polygon fill="#9a32cd" stroke="#9a32cd" points="1156.33,-187.147 1146.33,-190.646 1156.33,-194.147 1156.33,-187.147"/>
<text text-anchor="middle" x="1210" y="-193.646" font-family="Helvetica,sans-Serif" font-size="10.00"> myTurtleImageBox</text>
</g>
<!-- Node8&#45;&gt;Node5 -->
<g id="edge8" class="edge"><title>Node8&#45;&gt;Node5</title>
<path fill="none" stroke="#9a32cd" stroke-dasharray="5,2" d="M996.127,-201.527C993.385,-201.905 990.669,-202.279 988,-202.646 948.001,-208.155 902.376,-214.427 870.11,-218.861"/>
<polygon fill="#9a32cd" stroke="#9a32cd" points="996.712,-204.98 1006.14,-200.147 995.756,-198.045 996.712,-204.98"/>
<text text-anchor="middle" x="938" y="-219.646" font-family="Helvetica,sans-Serif" font-size="10.00"> myImageBox</text>
</g>
<!-- Node9 -->
<g id="node9" class="node"><title>Node9</title>
<polygon fill="white" stroke="#bfbfbf" points="3,-197.646 3,-227.646 129,-227.646 129,-197.646 3,-197.646"/>
<text text-anchor="start" x="11" y="-215.646" font-family="Helvetica,sans-Serif" font-size="10.00">javafx::scene::control</text>
<text text-anchor="middle" x="66" y="-204.646" font-family="Helvetica,sans-Serif" font-size="10.00">::ComboBox&lt; String &gt;</text>
</g>
<!-- Node9&#45;&gt;Node8 -->
<g id="edge9" class="edge"><title>Node9&#45;&gt;Node8</title>
<path fill="none" stroke="midnightblue" d="M121.269,-193.354C124.967,-191.56 128.579,-189.655 132,-187.646 140.98,-182.373 141.783,-179.044 150,-172.646 219.792,-118.303 222.546,-55.6464 311,-55.6464 311,-55.6464 311,-55.6464 828,-55.6464 902.371,-55.6464 924.15,-66.5117 988,-104.646 1023.01,-125.555 1054.44,-163.476 1067.97,-181.129"/>
<polygon fill="midnightblue" stroke="midnightblue" points="119.618,-190.26 111.961,-197.582 122.513,-196.633 119.618,-190.26"/>
</g>
<!-- Node13 -->
<g id="node13" class="node"><title>Node13</title>
<g id="a_node13"><a xlink:href="../../d6/da0/class_pen_1_1_pen_type_box.html" target="_top" xlink:title="Pen.PenTypeBox">
<polygon fill="white" stroke="black" points="264.5,-189.146 264.5,-208.146 359.5,-208.146 359.5,-189.146 264.5,-189.146"/>
<text text-anchor="middle" x="312" y="-196.146" font-family="Helvetica,sans-Serif" font-size="10.00">Pen.PenTypeBox</text>
</a>
</g>
</g>
<!-- Node9&#45;&gt;Node13 -->
<g id="edge16" class="edge"><title>Node9&#45;&gt;Node13</title>
<path fill="none" stroke="midnightblue" d="M139.281,-208.499C179.723,-206.179 228.958,-203.354 264.322,-201.325"/>
<polygon fill="midnightblue" stroke="midnightblue" points="138.986,-205.01 129.203,-209.077 139.387,-211.999 138.986,-205.01"/>
</g>
<!-- Node16 -->
<g id="node16" class="node"><title>Node16</title>
<g id="a_node16"><a xlink:href="../../df/d6f/class_pen_1_1_pen_color_box.html" target="_top" xlink:title="Pen.PenColorBox">
<polygon fill="white" stroke="black" points="263,-265.146 263,-284.146 361,-284.146 361,-265.146 263,-265.146"/>
<text text-anchor="middle" x="312" y="-272.146" font-family="Helvetica,sans-Serif" font-size="10.00">Pen.PenColorBox</text>
</a>
</g>
</g>
<!-- Node9&#45;&gt;Node16 -->
<g id="edge20" class="edge"><title>Node9&#45;&gt;Node16</title>
<path fill="none" stroke="midnightblue" d="M135.963,-230.17C180.532,-241.495 236.827,-255.799 273.356,-265.081"/>
<polygon fill="midnightblue" stroke="midnightblue" points="136.62,-226.725 126.066,-227.655 134.896,-233.51 136.62,-226.725"/>
</g>
<!-- Node10 -->
<g id="node10" class="node"><title>Node10</title>
<g id="a_node10"><a xlink:href="../../dc/ded/class_turtle_view_1_1_active_ring.html" target="_top" xlink:title="TurtleView.ActiveRing">
<polygon fill="white" stroke="black" points="517,-401.146 517,-420.146 633,-420.146 633,-401.146 517,-401.146"/>
<text text-anchor="middle" x="575" y="-408.146" font-family="Helvetica,sans-Serif" font-size="10.00">TurtleView.ActiveRing</text>
</a>
</g>
</g>
<!-- Node10&#45;&gt;Node5 -->
<g id="edge11" class="edge"><title>Node10&#45;&gt;Node5</title>
<path fill="none" stroke="#9a32cd" stroke-dasharray="5,2" d="M643.188,-400.811C682.788,-392.054 731.69,-375.741 766,-345.646 801.608,-314.413 818.379,-257.133 823.87,-234.358"/>
<polygon fill="#9a32cd" stroke="#9a32cd" points="642.404,-397.399 633.335,-402.878 643.841,-404.25 642.404,-397.399"/>
<text text-anchor="middle" x="716" y="-397.646" font-family="Helvetica,sans-Serif" font-size="10.00"> myRing</text>
</g>
<!-- Node11 -->
<g id="node11" class="node"><title>Node11</title>
<polygon fill="white" stroke="#bfbfbf" points="290.5,-430.146 290.5,-449.146 333.5,-449.146 333.5,-430.146 290.5,-430.146"/>
<text text-anchor="middle" x="312" y="-437.146" font-family="Helvetica,sans-Serif" font-size="10.00">Circle</text>
</g>
<!-- Node11&#45;&gt;Node10 -->
<g id="edge12" class="edge"><title>Node11&#45;&gt;Node10</title>
<path fill="none" stroke="midnightblue" d="M343.937,-436.209C386.426,-431.488 463.612,-422.912 516.782,-417.004"/>
<polygon fill="midnightblue" stroke="midnightblue" points="343.47,-432.739 333.918,-437.322 344.243,-439.696 343.47,-432.739"/>
</g>
<!-- Node12&#45;&gt;Node1 -->
<g id="edge35" class="edge"><title>Node12&#45;&gt;Node1</title>
<path fill="none" stroke="#9a32cd" stroke-dasharray="5,2" d="M603.021,-357.603C620.478,-365.817 643.97,-375.404 666,-379.646 709.643,-388.051 722.122,-386.719 766,-379.646 989.191,-343.668 1243.26,-233.368 1316.35,-200.187"/>
<polygon fill="#9a32cd" stroke="#9a32cd" points="604.516,-354.438 593.991,-353.224 601.461,-360.737 604.516,-354.438"/>
<text text-anchor="middle" x="938" y="-356.646" font-family="Helvetica,sans-Serif" font-size="10.00"> myPenBox</text>
</g>
<!-- Node12&#45;&gt;Node5 -->
<g id="edge13" class="edge"><title>Node12&#45;&gt;Node5</title>
<path fill="none" stroke="#9a32cd" stroke-dasharray="5,2" d="M631.508,-336.532C683.456,-329.515 754.724,-318.825 766,-311.646 795.871,-292.628 814.805,-252.837 822.314,-234.405"/>
<polygon fill="#9a32cd" stroke="#9a32cd" points="630.847,-333.09 621.399,-337.885 631.775,-340.028 630.847,-333.09"/>
<text text-anchor="middle" x="716" y="-334.646" font-family="Helvetica,sans-Serif" font-size="10.00"> myPenOptions</text>
</g>
<!-- Node13&#45;&gt;Node12 -->
<g id="edge15" class="edge"><title>Node13&#45;&gt;Node12</title>
<path fill="none" stroke="#9a32cd" stroke-dasharray="5,2" d="M369.981,-192.863C407.311,-192.381 454.483,-198.584 484,-227.646 515.244,-258.41 472.172,-292.508 502,-324.646 509.036,-332.227 518.705,-336.925 528.675,-339.802"/>
<polygon fill="#9a32cd" stroke="#9a32cd" points="369.629,-189.372 359.736,-193.163 369.834,-196.369 369.629,-189.372"/>
<text text-anchor="middle" x="437" y="-230.646" font-family="Helvetica,sans-Serif" font-size="10.00"> myTypeBox</text>
</g>
<!-- Node14 -->
<g id="node14" class="node"><title>Node14</title>
<polygon fill="white" stroke="#bfbfbf" points="12.5,-148.646 12.5,-178.646 119.5,-178.646 119.5,-148.646 12.5,-148.646"/>
<text text-anchor="start" x="20.5" y="-166.646" font-family="Helvetica,sans-Serif" font-size="10.00">Map&lt; String, List&lt;</text>
<text text-anchor="middle" x="66" y="-155.646" font-family="Helvetica,sans-Serif" font-size="10.00"> Double &gt; &gt;</text>
</g>
<!-- Node14&#45;&gt;Node13 -->
<g id="edge17" class="edge"><title>Node14&#45;&gt;Node13</title>
<path fill="none" stroke="#9a32cd" stroke-dasharray="5,2" d="M129.756,-172.648C171.72,-178.668 226.032,-186.458 264.22,-191.936"/>
<polygon fill="#9a32cd" stroke="#9a32cd" points="130.04,-169.153 119.644,-171.198 129.046,-176.082 130.04,-169.153"/>
<text text-anchor="middle" x="192" y="-190.646" font-family="Helvetica,sans-Serif" font-size="10.00"> myMap</text>
</g>
<!-- Node15 -->
<g id="node15" class="node"><title>Node15</title>
<polygon fill="white" stroke="#bfbfbf" points="280,-392.146 280,-411.146 344,-411.146 344,-392.146 280,-392.146"/>
<text text-anchor="middle" x="312" y="-399.146" font-family="Helvetica,sans-Serif" font-size="10.00">CheckBox</text>
</g>
<!-- Node15&#45;&gt;Node12 -->
<g id="edge18" class="edge"><title>Node15&#45;&gt;Node12</title>
<path fill="none" stroke="#9a32cd" stroke-dasharray="5,2" d="M354.469,-396.74C389.332,-392.167 440.328,-384.428 484,-373.646 506.226,-368.16 530.85,-359.787 548.714,-353.279"/>
<polygon fill="#9a32cd" stroke="#9a32cd" points="353.666,-393.314 344.193,-398.057 354.557,-400.257 353.666,-393.314"/>
<text text-anchor="middle" x="437" y="-394.646" font-family="Helvetica,sans-Serif" font-size="10.00"> myDownBox</text>
</g>
<!-- Node16&#45;&gt;Node12 -->
<g id="edge19" class="edge"><title>Node16&#45;&gt;Node12</title>
<path fill="none" stroke="#9a32cd" stroke-dasharray="5,2" d="M371.533,-280.313C405.562,-285.211 448.582,-294.22 484,-310.646 493.194,-314.911 492.916,-320.151 502,-324.646 510.343,-328.775 519.688,-332.084 528.812,-334.708"/>
<polygon fill="#9a32cd" stroke="#9a32cd" points="371.659,-276.798 361.279,-278.922 370.717,-283.735 371.659,-276.798"/>
<text text-anchor="middle" x="437" y="-313.646" font-family="Helvetica,sans-Serif" font-size="10.00"> myColorBox</text>
</g>
<!-- Node17 -->
<g id="node17" class="node"><title>Node17</title>
<polygon fill="white" stroke="#bfbfbf" points="6.5,-257.146 6.5,-276.146 125.5,-276.146 125.5,-257.146 6.5,-257.146"/>
<text text-anchor="middle" x="66" y="-264.146" font-family="Helvetica,sans-Serif" font-size="10.00">Map&lt; String, Color &gt;</text>
</g>
<!-- Node17&#45;&gt;Node16 -->
<g id="edge21" class="edge"><title>Node17&#45;&gt;Node16</title>
<path fill="none" stroke="#9a32cd" stroke-dasharray="5,2" d="M136.162,-265.749C166.239,-265.698 201.877,-266.093 234,-267.646 243.385,-268.1 253.395,-268.829 262.986,-269.649"/>
<polygon fill="#9a32cd" stroke="#9a32cd" points="135.759,-262.25 125.771,-265.785 135.783,-269.25 135.759,-262.25"/>
<text text-anchor="middle" x="192" y="-270.646" font-family="Helvetica,sans-Serif" font-size="10.00"> myMap</text>
</g>
<!-- Node18 -->
<g id="node18" class="node"><title>Node18</title>
<g id="a_node18"><a xlink:href="../../d4/dc3/class_pen_1_1_pen_thickness_box.html" target="_top" xlink:title="Pen.PenThicknessBox">
<polygon fill="white" stroke="black" points="252,-354.146 252,-373.146 372,-373.146 372,-354.146 252,-354.146"/>
<text text-anchor="middle" x="312" y="-361.146" font-family="Helvetica,sans-Serif" font-size="10.00">Pen.PenThicknessBox</text>
</a>
</g>
</g>
<!-- Node18&#45;&gt;Node12 -->
<g id="edge22" class="edge"><title>Node18&#45;&gt;Node12</title>
<path fill="none" stroke="#9a32cd" stroke-dasharray="5,2" d="M382.214,-358.343C428.633,-354.786 488.437,-350.203 528.826,-347.108"/>
<polygon fill="#9a32cd" stroke="#9a32cd" points="381.928,-354.854 372.225,-359.108 382.463,-361.834 381.928,-354.854"/>
<text text-anchor="middle" x="437" y="-361.646" font-family="Helvetica,sans-Serif" font-size="10.00"> myThickBox</text>
</g>
<!-- Node19 -->
<g id="node19" class="node"><title>Node19</title>
<polygon fill="white" stroke="#bfbfbf" points="0.5,-430.646 0.5,-460.646 131.5,-460.646 131.5,-430.646 0.5,-430.646"/>
<text text-anchor="start" x="8.5" y="-448.646" font-family="Helvetica,sans-Serif" font-size="10.00">javafx::scene::control</text>
<text text-anchor="middle" x="66" y="-437.646" font-family="Helvetica,sans-Serif" font-size="10.00">::ComboBox&lt; Double &gt;</text>
</g>
<!-- Node19&#45;&gt;Node18 -->
<g id="edge23" class="edge"><title>Node19&#45;&gt;Node18</title>
<path fill="none" stroke="midnightblue" d="M141.844,-453.694C173.111,-453.234 208.107,-447.283 234,-427.646 251.163,-414.63 236.252,-397.344 252,-382.646 256.17,-378.755 261.141,-375.66 266.405,-373.2"/>
<polygon fill="midnightblue" stroke="midnightblue" points="141.852,-450.194 131.84,-453.661 141.828,-457.194 141.852,-450.194"/>
</g>
<!-- Node20 -->
<g id="node20" class="node"><title>Node20</title>
<polygon fill="white" stroke="#bfbfbf" points="21.5,-325.146 21.5,-344.146 110.5,-344.146 110.5,-325.146 21.5,-325.146"/>
<text text-anchor="middle" x="66" y="-332.146" font-family="Helvetica,sans-Serif" font-size="10.00">List&lt; Double &gt;</text>
</g>
<!-- Node20&#45;&gt;Node18 -->
<g id="edge24" class="edge"><title>Node20&#45;&gt;Node18</title>
<path fill="none" stroke="#9a32cd" stroke-dasharray="5,2" d="M120.864,-341.948C130.559,-343.216 140.576,-344.495 150,-345.646 183.641,-349.756 221.284,-353.985 251.707,-357.31"/>
<polygon fill="#9a32cd" stroke="#9a32cd" points="121.287,-338.473 110.915,-340.637 120.372,-345.413 121.287,-338.473"/>
<text text-anchor="middle" x="192" y="-358.646" font-family="Helvetica,sans-Serif" font-size="10.00"> myList</text>
</g>
<!-- Node21 -->
<g id="node21" class="node"><title>Node21</title>
<g id="a_node21"><a xlink:href="../../df/daf/class_pen_1_1_pen.html" target="_top" xlink:title="Pen.Pen">
<polygon fill="white" stroke="black" points="284,-308.146 284,-327.146 340,-327.146 340,-308.146 284,-308.146"/>
<text text-anchor="middle" x="312" y="-315.146" font-family="Helvetica,sans-Serif" font-size="10.00">Pen.Pen</text>
</a>
</g>
</g>
<!-- Node20&#45;&gt;Node21 -->
<g id="edge26" class="edge"><title>Node20&#45;&gt;Node21</title>
<path fill="none" stroke="#9a32cd" stroke-dasharray="5,2" d="M94.3631,-320.724C110.176,-313.463 130.703,-305.342 150,-301.646 196.485,-292.744 251.527,-302.493 283.723,-310.197"/>
<polygon fill="#9a32cd" stroke="#9a32cd" points="92.7108,-317.634 85.1799,-325.086 95.7144,-323.957 92.7108,-317.634"/>
<text text-anchor="middle" x="192" y="-337.646" font-family="Helvetica,sans-Serif" font-size="10.00"> DASHED</text>
<text text-anchor="middle" x="192" y="-326.646" font-family="Helvetica,sans-Serif" font-size="10.00">SOLID</text>
<text text-anchor="middle" x="192" y="-315.646" font-family="Helvetica,sans-Serif" font-size="10.00">myLineType</text>
<text text-anchor="middle" x="192" y="-304.646" font-family="Helvetica,sans-Serif" font-size="10.00">DOTTED</text>
</g>
<!-- Node21&#45;&gt;Node5 -->
<g id="edge28" class="edge"><title>Node21&#45;&gt;Node5</title>
<path fill="none" stroke="#9a32cd" stroke-dasharray="5,2" d="M349.48,-304.401C357.08,-301.203 364.927,-297.565 372,-293.646 380.632,-288.864 380.789,-284.188 390,-280.646 546.904,-220.321 600.519,-269.212 766,-239.646 774.245,-238.173 783.035,-236.206 791.274,-234.181"/>
<polygon fill="#9a32cd" stroke="#9a32cd" points="348.022,-301.215 340.06,-308.205 350.643,-307.706 348.022,-301.215"/>
<text text-anchor="middle" x="575" y="-254.646" font-family="Helvetica,sans-Serif" font-size="10.00"> myPen</text>
</g>
<!-- Node21&#45;&gt;Node12 -->
<g id="edge25" class="edge"><title>Node21&#45;&gt;Node12</title>
<path fill="none" stroke="#9a32cd" stroke-dasharray="5,2" d="M350.511,-321.383C397.567,-326.071 478.19,-334.102 528.656,-339.129"/>
<polygon fill="#9a32cd" stroke="#9a32cd" points="350.736,-317.888 340.438,-320.38 350.042,-324.854 350.736,-317.888"/>
<text text-anchor="middle" x="437" y="-337.646" font-family="Helvetica,sans-Serif" font-size="10.00"> myPen</text>
</g>
<!-- Node22 -->
<g id="node22" class="node"><title>Node22</title>
<polygon fill="white" stroke="#bfbfbf" points="45.5,-392.146 45.5,-411.146 86.5,-411.146 86.5,-392.146 45.5,-392.146"/>
<text text-anchor="middle" x="66" y="-399.146" font-family="Helvetica,sans-Serif" font-size="10.00">Color</text>
</g>
<!-- Node22&#45;&gt;Node1 -->
<g id="edge36" class="edge"><title>Node22&#45;&gt;Node1</title>
<path fill="none" stroke="#9a32cd" stroke-dasharray="5,2" d="M96.373,-410.071C107.545,-413.318 120.378,-417.098 132,-420.646 211.853,-445.027 227.508,-477.646 311,-477.646 311,-477.646 311,-477.646 1077,-477.646 1230.29,-477.646 1316.77,-249.994 1333.85,-200.195"/>
<polygon fill="#9a32cd" stroke="#9a32cd" points="97.2416,-406.679 86.6628,-407.262 95.296,-413.403 97.2416,-406.679"/>
<text text-anchor="middle" x="716" y="-480.646" font-family="Helvetica,sans-Serif" font-size="10.00"> DEFAULT_PEN</text>
</g>
<!-- Node22&#45;&gt;Node21 -->
<g id="edge27" class="edge"><title>Node22&#45;&gt;Node21</title>
<path fill="none" stroke="#9a32cd" stroke-dasharray="5,2" d="M96.6777,-402.723C132.135,-402.612 191.934,-397.871 234,-370.646 245.799,-363.01 241.225,-353.671 252,-344.646 261.327,-336.835 273.285,-330.809 283.994,-326.452"/>
<polygon fill="#9a32cd" stroke="#9a32cd" points="96.5337,-399.221 86.5016,-402.628 96.4686,-406.221 96.5337,-399.221"/>
<text text-anchor="middle" x="192" y="-413.646" font-family="Helvetica,sans-Serif" font-size="10.00"> DEFAULT_COLOR</text>
<text text-anchor="middle" x="192" y="-402.646" font-family="Helvetica,sans-Serif" font-size="10.00">myColor</text>
</g>
<!-- Node23 -->
<g id="node23" class="node"><title>Node23</title>
<polygon fill="white" stroke="#bfbfbf" points="528.5,-296.146 528.5,-315.146 621.5,-315.146 621.5,-296.146 528.5,-296.146"/>
<text text-anchor="middle" x="575" y="-303.146" font-family="Helvetica,sans-Serif" font-size="10.00">List&lt; Point2D &gt;</text>
</g>
<!-- Node23&#45;&gt;Node5 -->
<g id="edge29" class="edge"><title>Node23&#45;&gt;Node5</title>
<path fill="none" stroke="#9a32cd" stroke-dasharray="5,2" d="M632.052,-300.938C679.308,-296.322 742.829,-288.411 766,-277.646 787.932,-267.457 807.769,-246.634 818.226,-234.34"/>
<polygon fill="#9a32cd" stroke="#9a32cd" points="631.558,-297.469 621.935,-301.901 632.221,-304.438 631.558,-297.469"/>
<text text-anchor="middle" x="716" y="-300.646" font-family="Helvetica,sans-Serif" font-size="10.00"> nextLocations</text>
</g>
<!-- Node24 -->
<g id="node24" class="node"><title>Node24</title>
<polygon fill="white" stroke="#bfbfbf" points="529,-211.146 529,-230.146 621,-230.146 621,-211.146 529,-211.146"/>
<text text-anchor="middle" x="575" y="-218.146" font-family="Helvetica,sans-Serif" font-size="10.00">List&lt; Polyline &gt;</text>
</g>
<!-- Node24&#45;&gt;Node5 -->
<g id="edge30" class="edge"><title>Node24&#45;&gt;Node5</title>
<path fill="none" stroke="#9a32cd" stroke-dasharray="5,2" d="M631.392,-221.533C677.468,-222.27 742.068,-223.304 783.976,-223.974"/>
<polygon fill="#9a32cd" stroke="#9a32cd" points="631.328,-218.031 621.273,-221.371 631.216,-225.03 631.328,-218.031"/>
<text text-anchor="middle" x="716" y="-227.646" font-family="Helvetica,sans-Serif" font-size="10.00"> myTrail</text>
</g>
<!-- Node25 -->
<g id="node25" class="node"><title>Node25</title>
<polygon fill="white" stroke="#bfbfbf" points="291,-125.146 291,-144.146 333,-144.146 333,-125.146 291,-125.146"/>
<text text-anchor="middle" x="312" y="-132.146" font-family="Helvetica,sans-Serif" font-size="10.00">Label</text>
</g>
<!-- Node25&#45;&gt;Node3 -->
<g id="edge31" class="edge"><title>Node25&#45;&gt;Node3</title>
<path fill="none" stroke="#9a32cd" stroke-dasharray="5,2" d="M343.277,-133.967C377.475,-133.399 434.777,-133.047 484,-135.646 489.802,-135.953 495.807,-136.359 501.835,-136.829"/>
<polygon fill="#9a32cd" stroke="#9a32cd" points="342.959,-130.472 333.026,-134.156 343.088,-137.471 342.959,-130.472"/>
<text text-anchor="middle" x="437" y="-160.646" font-family="Helvetica,sans-Serif" font-size="10.00"> turtleIndexLabel</text>
<text text-anchor="middle" x="437" y="-149.646" font-family="Helvetica,sans-Serif" font-size="10.00">turtleDirectionLabel</text>
<text text-anchor="middle" x="437" y="-138.646" font-family="Helvetica,sans-Serif" font-size="10.00">turtlePositionLabel</text>
</g>
<!-- Node26 -->
<g id="node26" class="node"><title>Node26</title>
<polygon fill="white" stroke="#bfbfbf" points="1038.5,-46.1464 1038.5,-65.1464 1113.5,-65.1464 1113.5,-46.1464 1038.5,-46.1464"/>
<text text-anchor="middle" x="1076" y="-53.1464" font-family="Helvetica,sans-Serif" font-size="10.00">List&lt; Line &gt;</text>
</g>
<!-- Node26&#45;&gt;Node1 -->
<g id="edge32" class="edge"><title>Node26&#45;&gt;Node1</title>
<path fill="none" stroke="#9a32cd" stroke-dasharray="5,2" d="M1124.02,-48.2566C1162.19,-44.6741 1216.04,-45.3061 1256,-68.6464 1300.79,-94.8027 1325.63,-156.744 1333.88,-180.828"/>
<polygon fill="#9a32cd" stroke="#9a32cd" points="1123.26,-44.8174 1113.69,-49.3634 1124.01,-51.7775 1123.26,-44.8174"/>
<text text-anchor="middle" x="1210" y="-71.6464" font-family="Helvetica,sans-Serif" font-size="10.00"> myGridLines</text>
</g>
<!-- Node27 -->
<g id="node27" class="node"><title>Node27</title>
<polygon fill="white" stroke="#bfbfbf" points="1013.5,-5.14642 1013.5,-24.1464 1138.5,-24.1464 1138.5,-5.14642 1013.5,-5.14642"/>
<text text-anchor="middle" x="1076" y="-12.1464" font-family="Helvetica,sans-Serif" font-size="10.00">List&lt; Backend.Turtle &gt;</text>
</g>
<!-- Node27&#45;&gt;Node1 -->
<g id="edge34" class="edge"><title>Node27&#45;&gt;Node1</title>
<path fill="none" stroke="#9a32cd" stroke-dasharray="5,2" d="M1127.13,-3.54093C1165.53,2.0709 1218.19,3.20733 1256,-21.6464 1313.64,-59.5321 1331.36,-150.568 1335.75,-180.743"/>
<polygon fill="#9a32cd" stroke="#9a32cd" points="1126.51,-0.095054 1117.19,-5.13724 1127.62,-7.00641 1126.51,-0.095054"/>
<text text-anchor="middle" x="1210" y="-35.6464" font-family="Helvetica,sans-Serif" font-size="10.00"> allTurtles</text>
<text text-anchor="middle" x="1210" y="-24.6464" font-family="Helvetica,sans-Serif" font-size="10.00">activeTurtles</text>
</g>
</g>
</svg>
        <g id="navigator" transform="translate(0 0)" fill="#404254">
                <rect fill="#f2f5e9" fill-opacity="0.5" stroke="#606060" stroke-width=".5" x="0" y="0" width="60" height="60"/>
                <use id="zoomplus" xlink:href="#zoomPlus" x="17" y="9" onmousedown="handleZoom(evt,'in')"/>
                <use id="zoomminus" xlink:href="#zoomMin" x="42" y="9" onmousedown="handleZoom(evt,'out')"/>
                <use id="reset" xlink:href="#resetDef" x="30" y="36" onmousedown="handleReset()"/>
                <g id="arrowUp" xlink:href="#dirArrow" transform="translate(30 24)" onmousedown="handlePan(0,-1)">
                  <use xlink:href="#rim" fill="#404040">
                        <set attributeName="fill" to="#808080" begin="arrowUp.mouseover" end="arrowUp.mouseout"/>
                  </use>
                  <path fill="none" stroke="white" stroke-width="1.5" d="M0,-3.0v7 M-2.5,-0.5L0,-3.0L2.5,-0.5"/>
                </g>
                <g id="arrowRight" xlink:href="#dirArrow" transform="rotate(90) translate(36 -43)" onmousedown="handlePan(1,0)">
                  <use xlink:href="#rim" fill="#404040">
                        <set attributeName="fill" to="#808080" begin="arrowRight.mouseover" end="arrowRight.mouseout"/>
                  </use>
                  <path fill="none" stroke="white" stroke-width="1.5" d="M0,-3.0v7 M-2.5,-0.5L0,-3.0L2.5,-0.5"/>
                </g>
                <g id="arrowDown" xlink:href="#dirArrow" transform="rotate(180) translate(-30 -48)" onmousedown="handlePan(0,1)">
                  <use xlink:href="#rim" fill="#404040">
                        <set attributeName="fill" to="#808080" begin="arrowDown.mouseover" end="arrowDown.mouseout"/>
                  </use>
                  <path fill="none" stroke="white" stroke-width="1.5" d="M0,-3.0v7 M-2.5,-0.5L0,-3.0L2.5,-0.5"/>
                </g>
                <g id="arrowLeft" xlink:href="#dirArrow" transform="rotate(270) translate(-36 17)" onmousedown="handlePan(-1,0)">
                  <use xlink:href="#rim" fill="#404040">
                        <set attributeName="fill" to="#808080" begin="arrowLeft.mouseover" end="arrowLeft.mouseout"/>
                  </use>
                  <path fill="none" stroke="white" stroke-width="1.5" d="M0,-3.0v7 M-2.5,-0.5L0,-3.0L2.5,-0.5"/>
                </g>
        </g>
        <svg viewBox="0 0 15 15" width="100%" height="30px" preserveAspectRatio="xMaxYMin meet">
         <g id="arrow_out" transform="scale(0.3 0.3)">
          <a xlink:href="class_turtle_view_1_1_turtle_window__coll__graph_org.svg" target="_base">
           <rect id="button" ry="5" rx="5" y="6" x="6" height="38" width="38"
                fill="#f2f5e9" fill-opacity="0.5" stroke="#606060" stroke-width="1.0"/>
           <path id="arrow"
             d="M 11.500037,31.436501 C 11.940474,20.09759 22.043105,11.32322 32.158766,21.979434 L 37.068811,17.246167 C 37.068811,17.246167 37.088388,32 37.088388,32 L 22.160133,31.978069 C 22.160133,31.978069 26.997745,27.140456 26.997745,27.140456 C 18.528582,18.264221 13.291696,25.230495 11.500037,31.436501 z"
             style="fill:#404040;"/>
          </a>
         </g>
        </svg>
</svg>
