<?xml version="1.0" encoding="UTF-8" standalone="no"?>
<!DOCTYPE svg PUBLIC "-//W3C//DTD SVG 1.1//EN"
 "http://www.w3.org/Graphics/SVG/1.1/DTD/svg11.dtd">
<!-- Generated by graphviz version 2.36.0 (20140111.2315)
 -->
<!-- Title: Pen.PenTypeBox Pages: 1 -->
<svg width="259pt" height="108pt"
 viewBox="0.00 0.00 259.00 108.00" xmlns="http://www.w3.org/2000/svg" xmlns:xlink="http://www.w3.org/1999/xlink">
<g id="graph0" class="graph" transform="scale(1 1) rotate(0) translate(4 104)">
<title>Pen.PenTypeBox</title>
<polygon fill="white" stroke="none" points="-4,4 -4,-104 255,-104 255,4 -4,4"/>
<!-- Node1 -->
<g id="node1" class="node"><title>Node1</title>
<polygon fill="#bfbfbf" stroke="black" points="82.5,-0.5 82.5,-19.5 177.5,-19.5 177.5,-0.5 82.5,-0.5"/>
<text text-anchor="middle" x="130" y="-7.5" font-family="Helvetica,sans-Serif" font-size="10.00">Pen.PenTypeBox</text>
</g>
<!-- Node2 -->
<g id="node2" class="node"><title>Node2</title>
<polygon fill="white" stroke="#bfbfbf" points="0,-69 0,-99 126,-99 126,-69 0,-69"/>
<text text-anchor="start" x="8" y="-87" font-family="Helvetica,sans-Serif" font-size="10.00">javafx::scene::control</text>
<text text-anchor="middle" x="63" y="-76" font-family="Helvetica,sans-Serif" font-size="10.00">::ComboBox&lt; String &gt;</text>
</g>
<!-- Node2&#45;&gt;Node1 -->
<g id="edge1" class="edge"><title>Node2&#45;&gt;Node1</title>
<path fill="none" stroke="midnightblue" d="M83.0592,-61.4438C96.0508,-47.4827 112.275,-30.0473 121.849,-19.7589"/>
<polygon fill="midnightblue" stroke="midnightblue" points="80.4871,-59.0701 76.237,-68.7751 85.6116,-63.8387 80.4871,-59.0701"/>
</g>
<!-- Node3 -->
<g id="node3" class="node"><title>Node3</title>
<polygon fill="white" stroke="#bfbfbf" points="144.5,-69 144.5,-99 251.5,-99 251.5,-69 144.5,-69"/>
<text text-anchor="start" x="152.5" y="-87" font-family="Helvetica,sans-Serif" font-size="10.00">Map&lt; String, List&lt;</text>
<text text-anchor="middle" x="198" y="-76" font-family="Helvetica,sans-Serif" font-size="10.00"> Double &gt; &gt;</text>
</g>
<!-- Node3&#45;&gt;Node1 -->
<g id="edge2" class="edge"><title>Node3&#45;&gt;Node1</title>
<path fill="none" stroke="#9a32cd" stroke-dasharray="5,2" d="M177.641,-61.4438C164.456,-47.4827 147.989,-30.0473 138.272,-19.7589"/>
<polygon fill="#9a32cd" stroke="#9a32cd" points="175.155,-63.9082 184.565,-68.7751 180.244,-59.1018 175.155,-63.9082"/>
<text text-anchor="middle" x="186.5" y="-41.5" font-family="Helvetica,sans-Serif" font-size="10.00"> myMap</text>
</g>
</g>
</svg>
