<?xml version="1.0" encoding="UTF-8" standalone="no"?>
<!DOCTYPE svg PUBLIC "-//W3C//DTD SVG 1.1//EN"
 "http://www.w3.org/Graphics/SVG/1.1/DTD/svg11.dtd">
<!-- Generated by graphviz version 2.36.0 (20140111.2315)
 -->
<!-- Title: Nodes.math.ArcTangentNode Pages: 1 -->
<svg width="164pt" height="196pt"
 viewBox="0.00 0.00 164.00 196.00" xmlns="http://www.w3.org/2000/svg" xmlns:xlink="http://www.w3.org/1999/xlink">
<g id="graph0" class="graph" transform="scale(1 1) rotate(0) translate(4 192)">
<title>Nodes.math.ArcTangentNode</title>
<polygon fill="white" stroke="none" points="-4,4 -4,-192 160,-192 160,4 -4,4"/>
<!-- Node1 -->
<g id="node1" class="node"><title>Node1</title>
<polygon fill="#bfbfbf" stroke="black" points="-1,-0.5 -1,-19.5 157,-19.5 157,-0.5 -1,-0.5"/>
<text text-anchor="middle" x="78" y="-7.5" font-family="Helvetica,sans-Serif" font-size="10.00">Nodes.math.ArcTangentNode</text>
</g>
<!-- Node2 -->
<g id="node2" class="node"><title>Node2</title>
<g id="a_node2"><a xlink:href="../../db/d09/class_nodes_1_1math_1_1_one_child_node.html" target="_top" xlink:title="Nodes.math.OneChildNode">
<polygon fill="white" stroke="black" points="4.5,-56.5 4.5,-75.5 151.5,-75.5 151.5,-56.5 4.5,-56.5"/>
<text text-anchor="middle" x="78" y="-63.5" font-family="Helvetica,sans-Serif" font-size="10.00">Nodes.math.OneChildNode</text>
</a>
</g>
</g>
<!-- Node2&#45;&gt;Node1 -->
<g id="edge1" class="edge"><title>Node2&#45;&gt;Node1</title>
<path fill="none" stroke="midnightblue" d="M78,-45.8045C78,-36.9102 78,-26.7798 78,-19.7511"/>
<polygon fill="midnightblue" stroke="midnightblue" points="74.5001,-46.083 78,-56.083 81.5001,-46.083 74.5001,-46.083"/>
</g>
<!-- Node3 -->
<g id="node3" class="node"><title>Node3</title>
<g id="a_node3"><a xlink:href="../../de/d80/class_nodes_1_1math_1_1_math_node.html" target="_top" xlink:title="Nodes.math.MathNode">
<polygon fill="white" stroke="black" points="14,-112.5 14,-131.5 142,-131.5 142,-112.5 14,-112.5"/>
<text text-anchor="middle" x="78" y="-119.5" font-family="Helvetica,sans-Serif" font-size="10.00">Nodes.math.MathNode</text>
</a>
</g>
</g>
<!-- Node3&#45;&gt;Node2 -->
<g id="edge2" class="edge"><title>Node3&#45;&gt;Node2</title>
<path fill="none" stroke="midnightblue" d="M78,-101.805C78,-92.9102 78,-82.7798 78,-75.7511"/>
<polygon fill="midnightblue" stroke="midnightblue" points="74.5001,-102.083 78,-112.083 81.5001,-102.083 74.5001,-102.083"/>
</g>
<!-- Node4 -->
<g id="node4" class="node"><title>Node4</title>
<g id="a_node4"><a xlink:href="../../df/dac/class_nodes_1_1_node.html" target="_top" xlink:title="Nodes.Node">
<polygon fill="white" stroke="black" points="40,-168.5 40,-187.5 116,-187.5 116,-168.5 40,-168.5"/>
<text text-anchor="middle" x="78" y="-175.5" font-family="Helvetica,sans-Serif" font-size="10.00">Nodes.Node</text>
</a>
</g>
</g>
<!-- Node4&#45;&gt;Node3 -->
<g id="edge3" class="edge"><title>Node4&#45;&gt;Node3</title>
<path fill="none" stroke="midnightblue" d="M78,-157.805C78,-148.91 78,-138.78 78,-131.751"/>
<polygon fill="midnightblue" stroke="midnightblue" points="74.5001,-158.083 78,-168.083 81.5001,-158.083 74.5001,-158.083"/>
</g>
</g>
</svg>
