<?xml version="1.0" encoding="UTF-8" standalone="no"?>
<!DOCTYPE svg PUBLIC "-//W3C//DTD SVG 1.1//EN"
 "http://www.w3.org/Graphics/SVG/1.1/DTD/svg11.dtd">
<!-- Generated by graphviz version 2.36.0 (20140111.2315)
 -->
<!-- Title: Backend.Parser Pages: 1 -->
<!--zoomable 509 -->
<svg id="main" version="1.1" xmlns="http://www.w3.org/2000/svg" xmlns:xlink="http://www.w3.org/1999/xlink" xml:space="preserve" onload="init(evt)">
<style type="text/css"><![CDATA[
.edge:hover path { stroke: red; }
.edge:hover polygon { stroke: red; fill: red; }
]]></style>
<script type="text/javascript"><![CDATA[
var edges = document.getElementsByTagName('g');
if (edges && edges.length) {
  for (var i=0;i<edges.length;i++) {
    if (edges[i].id.substr(0,4)=='edge') {
      edges[i].setAttribute('class','edge');
    }
  }
}
]]></script>
        <defs>
                <circle id="rim" cx="0" cy="0" r="7"/>
                <circle id="rim2" cx="0" cy="0" r="3.5"/>
                <g id="zoomPlus">
                        <use xlink:href="#rim" fill="#404040">
                                <set attributeName="fill" to="#808080" begin="zoomplus.mouseover" end="zoomplus.mouseout"/>
                        </use>
                        <path d="M-4,0h8M0,-4v8" fill="none" stroke="white" stroke-width="1.5" pointer-events="none"/>
                </g>
                <g id="zoomMin">
                        <use xlink:href="#rim" fill="#404040">
                                <set attributeName="fill" to="#808080" begin="zoomminus.mouseover" end="zoomminus.mouseout"/>
                        </use>
                        <path d="M-4,0h8" fill="none" stroke="white" stroke-width="1.5" pointer-events="none"/>
                </g>
                <g id="dirArrow">
                        <path fill="none" stroke="white" stroke-width="1.5" d="M0,-3.0v7 M-2.5,-0.5L0,-3.0L2.5,-0.5"/>
                </g>
               <g id="resetDef">
                       <use xlink:href="#rim2" fill="#404040">
                               <set attributeName="fill" to="#808080" begin="reset.mouseover" end="reset.mouseout"/>
                       </use>
               </g>
        </defs>

<script type="text/javascript">
var viewWidth = 1148;
var viewHeight = 509;
var sectionId = 'dynsection-0';
</script>
<script xlink:href="../../svgpan.js"/>
<svg id="graph" class="graph">
<g id="viewport">
<title>Backend.Parser</title>
<polygon fill="white" stroke="none" points="-4,4 -4,-505 1144,-505 1144,4 -4,4"/>
<!-- Node1 -->
<g id="node1" class="node"><title>Node1</title>
<polygon fill="#bfbfbf" stroke="black" points="1021.5,-49.5 1021.5,-68.5 1112.5,-68.5 1112.5,-49.5 1021.5,-49.5"/>
<text text-anchor="middle" x="1067" y="-56.5" font-family="Helvetica,sans-Serif" font-size="10.00">Backend.Parser</text>
</g>
<!-- Node2 -->
<g id="node2" class="node"><title>Node2</title>
<g id="a_node2"><a xlink:href="../../d1/de0/class_backend_1_1_turtle.html" target="_top" xlink:title="Backend.Turtle">
<polygon fill="white" stroke="black" points="735,-248.5 735,-267.5 821,-267.5 821,-248.5 735,-248.5"/>
<text text-anchor="middle" x="778" y="-255.5" font-family="Helvetica,sans-Serif" font-size="10.00">Backend.Turtle</text>
</a>
</g>
</g>
<!-- Node2&#45;&gt;Node1 -->
<g id="edge1" class="edge"><title>Node2&#45;&gt;Node1</title>
<path fill="none" stroke="#9a32cd" stroke-dasharray="5,2" d="M797.064,-241.632C815.557,-225.769 845.792,-202.224 876,-189 917.602,-170.788 937.137,-191.496 976,-168 1018,-142.606 1049.31,-90.3619 1060.99,-68.7201"/>
<polygon fill="#9a32cd" stroke="#9a32cd" points="794.652,-239.093 789.436,-248.315 799.264,-244.358 794.652,-239.093"/>
<text text-anchor="middle" x="926" y="-192" font-family="Helvetica,sans-Serif" font-size="10.00"> myTurtle</text>
</g>
<!-- Node4 -->
<g id="node4" class="node"><title>Node4</title>
<g id="a_node4"><a xlink:href="../../d9/d38/class_turtle_view_1_1_turtle_information.html" target="_top" xlink:title="TurtleView.TurtleInformation">
<polygon fill="white" stroke="black" points="994,-169.5 994,-188.5 1140,-188.5 1140,-169.5 994,-169.5"/>
<text text-anchor="middle" x="1067" y="-176.5" font-family="Helvetica,sans-Serif" font-size="10.00">TurtleView.TurtleInformation</text>
</a>
</g>
</g>
<!-- Node2&#45;&gt;Node4 -->
<g id="edge5" class="edge"><title>Node2&#45;&gt;Node4</title>
<path fill="none" stroke="#9a32cd" stroke-dasharray="5,2" d="M812.092,-244.763C830.67,-237.662 854.394,-229.134 876,-223 919.687,-210.596 931.768,-212.291 976,-202 993.907,-197.834 1013.71,-192.817 1030.18,-188.534"/>
<polygon fill="#9a32cd" stroke="#9a32cd" points="810.678,-241.558 802.616,-248.432 813.205,-248.085 810.678,-241.558"/>
<text text-anchor="middle" x="926" y="-226" font-family="Helvetica,sans-Serif" font-size="10.00"> myTurtle</text>
</g>
<!-- Node8 -->
<g id="node8" class="node"><title>Node8</title>
<g id="a_node8"><a xlink:href="../../dc/d04/class_turtle_view_1_1_turtle_image_box.html" target="_top" xlink:title="TurtleView.TurtleImageBox">
<polygon fill="white" stroke="black" points="997,-316.5 997,-335.5 1137,-335.5 1137,-316.5 997,-316.5"/>
<text text-anchor="middle" x="1067" y="-323.5" font-family="Helvetica,sans-Serif" font-size="10.00">TurtleView.TurtleImageBox</text>
</a>
</g>
</g>
<!-- Node2&#45;&gt;Node8 -->
<g id="edge10" class="edge"><title>Node2&#45;&gt;Node8</title>
<path fill="none" stroke="#9a32cd" stroke-dasharray="5,2" d="M831.123,-263.772C871.204,-268.918 927.709,-277.717 976,-291 1000.25,-297.67 1026.98,-308.54 1044.96,-316.398"/>
<polygon fill="#9a32cd" stroke="#9a32cd" points="831.404,-260.279 821.046,-262.51 830.534,-267.225 831.404,-260.279"/>
<text text-anchor="middle" x="926" y="-294" font-family="Helvetica,sans-Serif" font-size="10.00"> myTurtle</text>
</g>
<!-- Node3 -->
<g id="node3" class="node"><title>Node3</title>
<polygon fill="white" stroke="#bfbfbf" points="496,-201.5 496,-220.5 564,-220.5 564,-201.5 496,-201.5"/>
<text text-anchor="middle" x="530" y="-208.5" font-family="Helvetica,sans-Serif" font-size="10.00">ImageView</text>
</g>
<!-- Node3&#45;&gt;Node2 -->
<g id="edge2" class="edge"><title>Node3&#45;&gt;Node2</title>
<path fill="none" stroke="midnightblue" d="M574.267,-219.267C619.522,-227.913 690.082,-241.394 734.897,-249.956"/>
<polygon fill="midnightblue" stroke="midnightblue" points="574.656,-215.778 564.177,-217.339 573.342,-222.653 574.656,-215.778"/>
</g>
<!-- Node4&#45;&gt;Node2 -->
<g id="edge3" class="edge"><title>Node4&#45;&gt;Node2</title>
<path fill="none" stroke="#9a32cd" stroke-dasharray="5,2" d="M1046.5,-195.076C1029.13,-208.435 1002.45,-226.707 976,-236 924.863,-253.968 862.081,-258.154 821.339,-258.716"/>
<polygon fill="#9a32cd" stroke="#9a32cd" points="1049,-197.557 1054.68,-188.611 1044.66,-192.065 1049,-197.557"/>
<text text-anchor="middle" x="926" y="-259" font-family="Helvetica,sans-Serif" font-size="10.00"> myTurtleInformation</text>
</g>
<!-- Node5 -->
<g id="node5" class="node"><title>Node5</title>
<polygon fill="white" stroke="#bfbfbf" points="291.5,-93.5 291.5,-112.5 332.5,-112.5 332.5,-93.5 291.5,-93.5"/>
<text text-anchor="middle" x="312" y="-100.5" font-family="Helvetica,sans-Serif" font-size="10.00">VBox</text>
</g>
<!-- Node5&#45;&gt;Node4 -->
<g id="edge4" class="edge"><title>Node5&#45;&gt;Node4</title>
<path fill="none" stroke="midnightblue" d="M342.673,-98.2662C437.697,-84.2742 741.946,-48.561 976,-123 1007.22,-132.928 1038.53,-156.124 1054.72,-169.337"/>
<polygon fill="midnightblue" stroke="midnightblue" points="342.001,-94.8279 332.634,-99.7797 343.044,-101.75 342.001,-94.8279"/>
</g>
<!-- Node12 -->
<g id="node12" class="node"><title>Node12</title>
<g id="a_node12"><a xlink:href="../../d0/d46/class_pen_1_1_pen_options.html" target="_top" xlink:title="Pen.PenOptions">
<polygon fill="white" stroke="black" points="484,-286.5 484,-305.5 576,-305.5 576,-286.5 484,-286.5"/>
<text text-anchor="middle" x="530" y="-293.5" font-family="Helvetica,sans-Serif" font-size="10.00">Pen.PenOptions</text>
</a>
</g>
</g>
<!-- Node5&#45;&gt;Node12 -->
<g id="edge14" class="edge"><title>Node5&#45;&gt;Node12</title>
<path fill="none" stroke="midnightblue" d="M342.256,-111.663C352.366,-115.582 363.323,-120.95 372,-128 432.474,-177.134 411.47,-222.935 472,-272 479.507,-278.085 488.781,-282.858 497.651,-286.489"/>
<polygon fill="midnightblue" stroke="midnightblue" points="343.139,-108.262 332.544,-108.217 340.798,-114.86 343.139,-108.262"/>
</g>
<!-- Node6 -->
<g id="node6" class="node"><title>Node6</title>
<polygon fill="white" stroke="#bfbfbf" points="757,-125.5 757,-144.5 799,-144.5 799,-125.5 757,-125.5"/>
<text text-anchor="middle" x="778" y="-132.5" font-family="Helvetica,sans-Serif" font-size="10.00">Label</text>
</g>
<!-- Node6&#45;&gt;Node4 -->
<g id="edge6" class="edge"><title>Node6&#45;&gt;Node4</title>
<path fill="none" stroke="#9a32cd" stroke-dasharray="5,2" d="M809.372,-130.811C848.481,-126.364 918.283,-121.647 976,-135 1004.47,-141.586 1034.33,-158.477 1051.5,-169.312"/>
<polygon fill="#9a32cd" stroke="#9a32cd" points="808.698,-127.367 799.191,-132.043 809.539,-134.316 808.698,-127.367"/>
<text text-anchor="middle" x="926" y="-160" font-family="Helvetica,sans-Serif" font-size="10.00"> turtleIndexLabel</text>
<text text-anchor="middle" x="926" y="-149" font-family="Helvetica,sans-Serif" font-size="10.00">turtleDirectionLabel</text>
<text text-anchor="middle" x="926" y="-138" font-family="Helvetica,sans-Serif" font-size="10.00">turtlePositionLabel</text>
</g>
<!-- Node7 -->
<g id="node7" class="node"><title>Node7</title>
<polygon fill="white" stroke="#bfbfbf" points="503,-163.5 503,-182.5 557,-182.5 557,-163.5 503,-163.5"/>
<text text-anchor="middle" x="530" y="-170.5" font-family="Helvetica,sans-Serif" font-size="10.00">Point2D</text>
</g>
<!-- Node7&#45;&gt;Node2 -->
<g id="edge7" class="edge"><title>Node7&#45;&gt;Node2</title>
<path fill="none" stroke="#9a32cd" stroke-dasharray="5,2" d="M566.801,-180.394C597.346,-187.168 642.192,-198.224 680,-212 708.544,-222.4 740.064,-238.205 759.198,-248.316"/>
<polygon fill="#9a32cd" stroke="#9a32cd" points="567.537,-176.972 557.021,-178.263 566.047,-183.812 567.537,-176.972"/>
<text text-anchor="middle" x="643" y="-215" font-family="Helvetica,sans-Serif" font-size="10.00"> myLocation</text>
</g>
<!-- Node8&#45;&gt;Node2 -->
<g id="edge8" class="edge"><title>Node8&#45;&gt;Node2</title>
<path fill="none" stroke="#9a32cd" stroke-dasharray="5,2" d="M986.748,-322.632C952.22,-319.686 911.591,-314.198 876,-304 845.899,-295.376 813.531,-278.26 794.835,-267.512"/>
<polygon fill="#9a32cd" stroke="#9a32cd" points="986.537,-326.126 996.784,-323.432 987.094,-319.148 986.537,-326.126"/>
<text text-anchor="middle" x="926" y="-325" font-family="Helvetica,sans-Serif" font-size="10.00"> myImageBox</text>
</g>
<!-- Node9 -->
<g id="node9" class="node"><title>Node9</title>
<polygon fill="white" stroke="#bfbfbf" points="3,-412 3,-442 129,-442 129,-412 3,-412"/>
<text text-anchor="start" x="11" y="-430" font-family="Helvetica,sans-Serif" font-size="10.00">javafx::scene::control</text>
<text text-anchor="middle" x="66" y="-419" font-family="Helvetica,sans-Serif" font-size="10.00">::ComboBox&lt; String &gt;</text>
</g>
<!-- Node9&#45;&gt;Node8 -->
<g id="edge9" class="edge"><title>Node9&#45;&gt;Node8</title>
<path fill="none" stroke="midnightblue" d="M139.22,-441.036C187.624,-449.242 252.895,-458 311,-458 311,-458 311,-458 779,-458 896.092,-458 1017.5,-366.19 1054.58,-335.706"/>
<polygon fill="midnightblue" stroke="midnightblue" points="139.606,-437.551 129.156,-439.297 138.414,-444.448 139.606,-437.551"/>
</g>
<!-- Node13 -->
<g id="node13" class="node"><title>Node13</title>
<g id="a_node13"><a xlink:href="../../d6/da0/class_pen_1_1_pen_type_box.html" target="_top" xlink:title="Pen.PenTypeBox">
<polygon fill="white" stroke="black" points="264.5,-334.5 264.5,-353.5 359.5,-353.5 359.5,-334.5 264.5,-334.5"/>
<text text-anchor="middle" x="312" y="-341.5" font-family="Helvetica,sans-Serif" font-size="10.00">Pen.PenTypeBox</text>
</a>
</g>
</g>
<!-- Node9&#45;&gt;Node13 -->
<g id="edge16" class="edge"><title>Node9&#45;&gt;Node13</title>
<path fill="none" stroke="midnightblue" d="M138.906,-415.688C169.643,-408.756 205.036,-397.858 234,-381 243.778,-375.309 242.346,-368.899 252,-363 258.244,-359.185 265.334,-356.056 272.38,-353.518"/>
<polygon fill="midnightblue" stroke="midnightblue" points="138.142,-412.272 129.105,-417.802 139.618,-419.115 138.142,-412.272"/>
</g>
<!-- Node16 -->
<g id="node16" class="node"><title>Node16</title>
<g id="a_node16"><a xlink:href="../../df/d6f/class_pen_1_1_pen_color_box.html" target="_top" xlink:title="Pen.PenColorBox">
<polygon fill="white" stroke="black" points="263,-410.5 263,-429.5 361,-429.5 361,-410.5 263,-410.5"/>
<text text-anchor="middle" x="312" y="-417.5" font-family="Helvetica,sans-Serif" font-size="10.00">Pen.PenColorBox</text>
</a>
</g>
</g>
<!-- Node9&#45;&gt;Node16 -->
<g id="edge20" class="edge"><title>Node9&#45;&gt;Node16</title>
<path fill="none" stroke="midnightblue" d="M139.397,-424.923C179.228,-423.78 227.56,-422.394 262.768,-421.384"/>
<polygon fill="midnightblue" stroke="midnightblue" points="139.098,-421.43 129.203,-425.215 139.299,-428.427 139.098,-421.43"/>
</g>
<!-- Node10 -->
<g id="node10" class="node"><title>Node10</title>
<g id="a_node10"><a xlink:href="../../dc/ded/class_turtle_view_1_1_active_ring.html" target="_top" xlink:title="TurtleView.ActiveRing">
<polygon fill="white" stroke="black" points="472,-125.5 472,-144.5 588,-144.5 588,-125.5 472,-125.5"/>
<text text-anchor="middle" x="530" y="-132.5" font-family="Helvetica,sans-Serif" font-size="10.00">TurtleView.ActiveRing</text>
</a>
</g>
</g>
<!-- Node10&#45;&gt;Node2 -->
<g id="edge11" class="edge"><title>Node10&#45;&gt;Node2</title>
<path fill="none" stroke="#9a32cd" stroke-dasharray="5,2" d="M597.643,-146.842C624.244,-153.202 654.536,-162.576 680,-176 717.063,-195.539 752.542,-231.244 768.373,-248.355"/>
<polygon fill="#9a32cd" stroke="#9a32cd" points="598.176,-143.373 587.647,-144.55 596.612,-150.196 598.176,-143.373"/>
<text text-anchor="middle" x="643" y="-179" font-family="Helvetica,sans-Serif" font-size="10.00"> myRing</text>
</g>
<!-- Node11 -->
<g id="node11" class="node"><title>Node11</title>
<polygon fill="white" stroke="#bfbfbf" points="290.5,-137.5 290.5,-156.5 333.5,-156.5 333.5,-137.5 290.5,-137.5"/>
<text text-anchor="middle" x="312" y="-144.5" font-family="Helvetica,sans-Serif" font-size="10.00">Circle</text>
</g>
<!-- Node11&#45;&gt;Node10 -->
<g id="edge12" class="edge"><title>Node11&#45;&gt;Node10</title>
<path fill="none" stroke="midnightblue" d="M343.733,-145.293C376.942,-143.448 430.613,-140.466 471.661,-138.186"/>
<polygon fill="midnightblue" stroke="midnightblue" points="343.501,-141.8 333.711,-145.849 343.89,-148.789 343.501,-141.8"/>
</g>
<!-- Node12&#45;&gt;Node2 -->
<g id="edge13" class="edge"><title>Node12&#45;&gt;Node2</title>
<path fill="none" stroke="#9a32cd" stroke-dasharray="5,2" d="M586.279,-287.461C631.192,-280.523 693.609,-270.882 734.632,-264.545"/>
<polygon fill="#9a32cd" stroke="#9a32cd" points="585.469,-284.045 576.12,-289.03 586.537,-290.962 585.469,-284.045"/>
<text text-anchor="middle" x="643" y="-287" font-family="Helvetica,sans-Serif" font-size="10.00"> myPenOptions</text>
</g>
<!-- Node13&#45;&gt;Node12 -->
<g id="edge15" class="edge"><title>Node13&#45;&gt;Node12</title>
<path fill="none" stroke="#9a32cd" stroke-dasharray="5,2" d="M369.62,-334.931C395.479,-330.438 426.424,-324.569 454,-318 468.916,-314.447 485.277,-309.744 498.901,-305.599"/>
<polygon fill="#9a32cd" stroke="#9a32cd" points="368.876,-331.507 359.611,-336.646 370.058,-338.407 368.876,-331.507"/>
<text text-anchor="middle" x="422" y="-334" font-family="Helvetica,sans-Serif" font-size="10.00"> myTypeBox</text>
</g>
<!-- Node14 -->
<g id="node14" class="node"><title>Node14</title>
<polygon fill="white" stroke="#bfbfbf" points="12.5,-313 12.5,-343 119.5,-343 119.5,-313 12.5,-313"/>
<text text-anchor="start" x="20.5" y="-331" font-family="Helvetica,sans-Serif" font-size="10.00">Map&lt; String, List&lt;</text>
<text text-anchor="middle" x="66" y="-320" font-family="Helvetica,sans-Serif" font-size="10.00"> Double &gt; &gt;</text>
</g>
<!-- Node14&#45;&gt;Node13 -->
<g id="edge17" class="edge"><title>Node14&#45;&gt;Node13</title>
<path fill="none" stroke="#9a32cd" stroke-dasharray="5,2" d="M129.756,-332.115C171.72,-334.867 226.032,-338.428 264.22,-340.932"/>
<polygon fill="#9a32cd" stroke="#9a32cd" points="129.852,-328.614 119.644,-331.452 129.393,-335.599 129.852,-328.614"/>
<text text-anchor="middle" x="192" y="-342" font-family="Helvetica,sans-Serif" font-size="10.00"> myMap</text>
</g>
<!-- Node15 -->
<g id="node15" class="node"><title>Node15</title>
<polygon fill="white" stroke="#bfbfbf" points="280,-372.5 280,-391.5 344,-391.5 344,-372.5 280,-372.5"/>
<text text-anchor="middle" x="312" y="-379.5" font-family="Helvetica,sans-Serif" font-size="10.00">CheckBox</text>
</g>
<!-- Node15&#45;&gt;Node12 -->
<g id="edge18" class="edge"><title>Node15&#45;&gt;Node12</title>
<path fill="none" stroke="#9a32cd" stroke-dasharray="5,2" d="M354.24,-379.894C384.492,-376.483 425.156,-367.807 454,-346 466.709,-336.392 459.644,-325.058 472,-315 476.773,-311.115 482.373,-308.011 488.166,-305.535"/>
<polygon fill="#9a32cd" stroke="#9a32cd" points="353.622,-376.438 344.01,-380.894 354.303,-383.404 353.622,-376.438"/>
<text text-anchor="middle" x="422" y="-376" font-family="Helvetica,sans-Serif" font-size="10.00"> myDownBox</text>
</g>
<!-- Node16&#45;&gt;Node12 -->
<g id="edge19" class="edge"><title>Node16&#45;&gt;Node12</title>
<path fill="none" stroke="#9a32cd" stroke-dasharray="5,2" d="M371.42,-420.416C399.812,-417.545 432.382,-409.22 454,-388 477.847,-364.592 449.335,-339.555 472,-315 475.608,-311.091 480.041,-307.985 484.827,-305.518"/>
<polygon fill="#9a32cd" stroke="#9a32cd" points="370.864,-416.95 361.177,-421.242 371.426,-423.927 370.864,-416.95"/>
<text text-anchor="middle" x="422" y="-420" font-family="Helvetica,sans-Serif" font-size="10.00"> myColorBox</text>
</g>
<!-- Node17 -->
<g id="node17" class="node"><title>Node17</title>
<polygon fill="white" stroke="#bfbfbf" points="6.5,-481.5 6.5,-500.5 125.5,-500.5 125.5,-481.5 6.5,-481.5"/>
<text text-anchor="middle" x="66" y="-488.5" font-family="Helvetica,sans-Serif" font-size="10.00">Map&lt; String, Color &gt;</text>
</g>
<!-- Node17&#45;&gt;Node16 -->
<g id="edge21" class="edge"><title>Node17&#45;&gt;Node16</title>
<path fill="none" stroke="#9a32cd" stroke-dasharray="5,2" d="M109.428,-478.654C157.413,-464.691 234.526,-442.253 278.15,-429.559"/>
<polygon fill="#9a32cd" stroke="#9a32cd" points="108.278,-475.344 99.6537,-481.498 110.233,-482.065 108.278,-475.344"/>
<text text-anchor="middle" x="192" y="-469" font-family="Helvetica,sans-Serif" font-size="10.00"> myMap</text>
</g>
<!-- Node18 -->
<g id="node18" class="node"><title>Node18</title>
<g id="a_node18"><a xlink:href="../../d4/dc3/class_pen_1_1_pen_thickness_box.html" target="_top" xlink:title="Pen.PenThicknessBox">
<polygon fill="white" stroke="black" points="252,-296.5 252,-315.5 372,-315.5 372,-296.5 252,-296.5"/>
<text text-anchor="middle" x="312" y="-303.5" font-family="Helvetica,sans-Serif" font-size="10.00">Pen.PenThicknessBox</text>
</a>
</g>
</g>
<!-- Node18&#45;&gt;Node12 -->
<g id="edge22" class="edge"><title>Node18&#45;&gt;Node12</title>
<path fill="none" stroke="#9a32cd" stroke-dasharray="5,2" d="M382.146,-302.799C415.404,-301.259 454.334,-299.457 483.752,-298.095"/>
<polygon fill="#9a32cd" stroke="#9a32cd" points="381.85,-299.309 372.023,-303.267 382.174,-306.301 381.85,-299.309"/>
<text text-anchor="middle" x="422" y="-306" font-family="Helvetica,sans-Serif" font-size="10.00"> myThickBox</text>
</g>
<!-- Node19 -->
<g id="node19" class="node"><title>Node19</title>
<polygon fill="white" stroke="#bfbfbf" points="0.5,-362 0.5,-392 131.5,-392 131.5,-362 0.5,-362"/>
<text text-anchor="start" x="8.5" y="-380" font-family="Helvetica,sans-Serif" font-size="10.00">javafx::scene::control</text>
<text text-anchor="middle" x="66" y="-369" font-family="Helvetica,sans-Serif" font-size="10.00">::ComboBox&lt; Double &gt;</text>
</g>
<!-- Node19&#45;&gt;Node18 -->
<g id="edge23" class="edge"><title>Node19&#45;&gt;Node18</title>
<path fill="none" stroke="midnightblue" d="M141.981,-380.181C172.618,-378.202 207.098,-371.475 234,-354 246.721,-345.736 240.048,-334.342 252,-325 256.918,-321.156 262.635,-318.079 268.538,-315.618"/>
<polygon fill="midnightblue" stroke="midnightblue" points="141.573,-376.697 131.755,-380.679 141.914,-383.689 141.573,-376.697"/>
</g>
<!-- Node20 -->
<g id="node20" class="node"><title>Node20</title>
<polygon fill="white" stroke="#bfbfbf" points="21.5,-252.5 21.5,-271.5 110.5,-271.5 110.5,-252.5 21.5,-252.5"/>
<text text-anchor="middle" x="66" y="-259.5" font-family="Helvetica,sans-Serif" font-size="10.00">List&lt; Double &gt;</text>
</g>
<!-- Node20&#45;&gt;Node18 -->
<g id="edge24" class="edge"><title>Node20&#45;&gt;Node18</title>
<path fill="none" stroke="#9a32cd" stroke-dasharray="5,2" d="M105.623,-274.541C119.497,-278.679 135.339,-282.989 150,-286 183.385,-292.856 221.178,-297.699 251.755,-300.9"/>
<polygon fill="#9a32cd" stroke="#9a32cd" points="106.499,-271.149 95.9124,-271.578 104.456,-277.844 106.499,-271.149"/>
<text text-anchor="middle" x="192" y="-302" font-family="Helvetica,sans-Serif" font-size="10.00"> myList</text>
</g>
<!-- Node21 -->
<g id="node21" class="node"><title>Node21</title>
<g id="a_node21"><a xlink:href="../../df/daf/class_pen_1_1_pen.html" target="_top" xlink:title="Pen.Pen">
<polygon fill="white" stroke="black" points="284,-232.5 284,-251.5 340,-251.5 340,-232.5 284,-232.5"/>
<text text-anchor="middle" x="312" y="-239.5" font-family="Helvetica,sans-Serif" font-size="10.00">Pen.Pen</text>
</a>
</g>
</g>
<!-- Node20&#45;&gt;Node21 -->
<g id="edge26" class="edge"><title>Node20&#45;&gt;Node21</title>
<path fill="none" stroke="#9a32cd" stroke-dasharray="5,2" d="M108.688,-249.919C121.793,-246.673 136.394,-243.616 150,-242 196.769,-236.445 251.721,-238.202 283.823,-240.053"/>
<polygon fill="#9a32cd" stroke="#9a32cd" points="107.809,-246.531 99,-252.417 109.557,-253.309 107.809,-246.531"/>
<text text-anchor="middle" x="192" y="-278" font-family="Helvetica,sans-Serif" font-size="10.00"> DASHED</text>
<text text-anchor="middle" x="192" y="-267" font-family="Helvetica,sans-Serif" font-size="10.00">SOLID</text>
<text text-anchor="middle" x="192" y="-256" font-family="Helvetica,sans-Serif" font-size="10.00">myLineType</text>
<text text-anchor="middle" x="192" y="-245" font-family="Helvetica,sans-Serif" font-size="10.00">DOTTED</text>
</g>
<!-- Node21&#45;&gt;Node2 -->
<g id="edge28" class="edge"><title>Node21&#45;&gt;Node2</title>
<path fill="none" stroke="#9a32cd" stroke-dasharray="5,2" d="M350.32,-243.287C435.767,-246.233 645.137,-253.453 734.957,-256.55"/>
<polygon fill="#9a32cd" stroke="#9a32cd" points="350.408,-239.788 340.293,-242.941 350.166,-246.784 350.408,-239.788"/>
<text text-anchor="middle" x="530" y="-255" font-family="Helvetica,sans-Serif" font-size="10.00"> myPen</text>
</g>
<!-- Node21&#45;&gt;Node12 -->
<g id="edge25" class="edge"><title>Node21&#45;&gt;Node12</title>
<path fill="none" stroke="#9a32cd" stroke-dasharray="5,2" d="M350.09,-251.273C389.434,-261.109 451.277,-276.569 490.974,-286.493"/>
<polygon fill="#9a32cd" stroke="#9a32cd" points="350.907,-247.869 340.357,-248.839 349.209,-254.66 350.907,-247.869"/>
<text text-anchor="middle" x="422" y="-280" font-family="Helvetica,sans-Serif" font-size="10.00"> myPen</text>
</g>
<!-- Node22 -->
<g id="node22" class="node"><title>Node22</title>
<polygon fill="white" stroke="#bfbfbf" points="45.5,-186.5 45.5,-205.5 86.5,-205.5 86.5,-186.5 45.5,-186.5"/>
<text text-anchor="middle" x="66" y="-193.5" font-family="Helvetica,sans-Serif" font-size="10.00">Color</text>
</g>
<!-- Node22&#45;&gt;Node21 -->
<g id="edge27" class="edge"><title>Node22&#45;&gt;Node21</title>
<path fill="none" stroke="#9a32cd" stroke-dasharray="5,2" d="M96.6534,-196.711C130.341,-198.048 186.769,-201.9 234,-213 253.607,-217.608 274.975,-225.937 290.215,-232.491"/>
<polygon fill="#9a32cd" stroke="#9a32cd" points="96.6711,-193.209 86.5553,-196.359 96.4273,-200.205 96.6711,-193.209"/>
<text text-anchor="middle" x="192" y="-227" font-family="Helvetica,sans-Serif" font-size="10.00"> DEFAULT_COLOR</text>
<text text-anchor="middle" x="192" y="-216" font-family="Helvetica,sans-Serif" font-size="10.00">myColor</text>
</g>
<!-- Node23 -->
<g id="node23" class="node"><title>Node23</title>
<polygon fill="white" stroke="#bfbfbf" points="483.5,-362.5 483.5,-381.5 576.5,-381.5 576.5,-362.5 483.5,-362.5"/>
<text text-anchor="middle" x="530" y="-369.5" font-family="Helvetica,sans-Serif" font-size="10.00">List&lt; Point2D &gt;</text>
</g>
<!-- Node23&#45;&gt;Node2 -->
<g id="edge29" class="edge"><title>Node23&#45;&gt;Node2</title>
<path fill="none" stroke="#9a32cd" stroke-dasharray="5,2" d="M586.639,-363.496C615.506,-357.696 650.75,-348.388 680,-334 715.898,-316.341 751.109,-283.928 767.482,-267.739"/>
<polygon fill="#9a32cd" stroke="#9a32cd" points="585.875,-360.079 576.715,-365.404 587.196,-366.953 585.875,-360.079"/>
<text text-anchor="middle" x="643" y="-362" font-family="Helvetica,sans-Serif" font-size="10.00"> nextLocations</text>
</g>
<!-- Node24 -->
<g id="node24" class="node"><title>Node24</title>
<polygon fill="white" stroke="#bfbfbf" points="484,-324.5 484,-343.5 576,-343.5 576,-324.5 484,-324.5"/>
<text text-anchor="middle" x="530" y="-331.5" font-family="Helvetica,sans-Serif" font-size="10.00">List&lt; Polyline &gt;</text>
</g>
<!-- Node24&#45;&gt;Node2 -->
<g id="edge30" class="edge"><title>Node24&#45;&gt;Node2</title>
<path fill="none" stroke="#9a32cd" stroke-dasharray="5,2" d="M586.329,-323.336C614.659,-317.291 649.514,-308.944 680,-299 707.289,-290.099 737.589,-276.695 756.944,-267.659"/>
<polygon fill="#9a32cd" stroke="#9a32cd" points="585.277,-319.981 576.207,-325.458 586.713,-326.832 585.277,-319.981"/>
<text text-anchor="middle" x="643" y="-322" font-family="Helvetica,sans-Serif" font-size="10.00"> myTrail</text>
</g>
<!-- Node25 -->
<g id="node25" class="node"><title>Node25</title>
<polygon fill="white" stroke="#bfbfbf" points="698,-0 698,-30 858,-30 858,-0 698,-0"/>
<text text-anchor="start" x="706" y="-18" font-family="Helvetica,sans-Serif" font-size="10.00">Map&lt; String, Nodes.Constant</text>
<text text-anchor="middle" x="778" y="-7" font-family="Helvetica,sans-Serif" font-size="10.00">Node &gt;</text>
</g>
<!-- Node25&#45;&gt;Node1 -->
<g id="edge31" class="edge"><title>Node25&#45;&gt;Node1</title>
<path fill="none" stroke="#9a32cd" stroke-dasharray="5,2" d="M868.434,-27.7991C902.168,-32.7231 940.871,-38.4875 976,-44 990.71,-46.3083 1006.75,-48.9439 1021.16,-51.3551"/>
<polygon fill="#9a32cd" stroke="#9a32cd" points="868.534,-24.2768 858.134,-26.2991 867.525,-31.2037 868.534,-24.2768"/>
<text text-anchor="middle" x="926" y="-47" font-family="Helvetica,sans-Serif" font-size="10.00"> daMap</text>
</g>
<!-- Node26 -->
<g id="node26" class="node"><title>Node26</title>
<polygon fill="white" stroke="#bfbfbf" points="717,-49.5 717,-68.5 839,-68.5 839,-49.5 717,-49.5"/>
<text text-anchor="middle" x="778" y="-56.5" font-family="Helvetica,sans-Serif" font-size="10.00">Map&lt; String, String &gt;</text>
</g>
<!-- Node26&#45;&gt;Node1 -->
<g id="edge32" class="edge"><title>Node26&#45;&gt;Node1</title>
<path fill="none" stroke="#9a32cd" stroke-dasharray="5,2" d="M849.304,-59C903.012,-59 975.4,-59 1021.4,-59"/>
<polygon fill="#9a32cd" stroke="#9a32cd" points="849.165,-55.5001 839.165,-59 849.165,-62.5001 849.165,-55.5001"/>
<text text-anchor="middle" x="926" y="-62" font-family="Helvetica,sans-Serif" font-size="10.00"> myMap</text>
</g>
</g>
</svg>
        <g id="navigator" transform="translate(0 0)" fill="#404254">
                <rect fill="#f2f5e9" fill-opacity="0.5" stroke="#606060" stroke-width=".5" x="0" y="0" width="60" height="60"/>
                <use id="zoomplus" xlink:href="#zoomPlus" x="17" y="9" onmousedown="handleZoom(evt,'in')"/>
                <use id="zoomminus" xlink:href="#zoomMin" x="42" y="9" onmousedown="handleZoom(evt,'out')"/>
                <use id="reset" xlink:href="#resetDef" x="30" y="36" onmousedown="handleReset()"/>
                <g id="arrowUp" xlink:href="#dirArrow" transform="translate(30 24)" onmousedown="handlePan(0,-1)">
                  <use xlink:href="#rim" fill="#404040">
                        <set attributeName="fill" to="#808080" begin="arrowUp.mouseover" end="arrowUp.mouseout"/>
                  </use>
                  <path fill="none" stroke="white" stroke-width="1.5" d="M0,-3.0v7 M-2.5,-0.5L0,-3.0L2.5,-0.5"/>
                </g>
                <g id="arrowRight" xlink:href="#dirArrow" transform="rotate(90) translate(36 -43)" onmousedown="handlePan(1,0)">
                  <use xlink:href="#rim" fill="#404040">
                        <set attributeName="fill" to="#808080" begin="arrowRight.mouseover" end="arrowRight.mouseout"/>
                  </use>
                  <path fill="none" stroke="white" stroke-width="1.5" d="M0,-3.0v7 M-2.5,-0.5L0,-3.0L2.5,-0.5"/>
                </g>
                <g id="arrowDown" xlink:href="#dirArrow" transform="rotate(180) translate(-30 -48)" onmousedown="handlePan(0,1)">
                  <use xlink:href="#rim" fill="#404040">
                        <set attributeName="fill" to="#808080" begin="arrowDown.mouseover" end="arrowDown.mouseout"/>
                  </use>
                  <path fill="none" stroke="white" stroke-width="1.5" d="M0,-3.0v7 M-2.5,-0.5L0,-3.0L2.5,-0.5"/>
                </g>
                <g id="arrowLeft" xlink:href="#dirArrow" transform="rotate(270) translate(-36 17)" onmousedown="handlePan(-1,0)">
                  <use xlink:href="#rim" fill="#404040">
                        <set attributeName="fill" to="#808080" begin="arrowLeft.mouseover" end="arrowLeft.mouseout"/>
                  </use>
                  <path fill="none" stroke="white" stroke-width="1.5" d="M0,-3.0v7 M-2.5,-0.5L0,-3.0L2.5,-0.5"/>
                </g>
        </g>
        <svg viewBox="0 0 15 15" width="100%" height="30px" preserveAspectRatio="xMaxYMin meet">
         <g id="arrow_out" transform="scale(0.3 0.3)">
          <a xlink:href="class_backend_1_1_parser__coll__graph_org.svg" target="_base">
           <rect id="button" ry="5" rx="5" y="6" x="6" height="38" width="38"
                fill="#f2f5e9" fill-opacity="0.5" stroke="#606060" stroke-width="1.0"/>
           <path id="arrow"
             d="M 11.500037,31.436501 C 11.940474,20.09759 22.043105,11.32322 32.158766,21.979434 L 37.068811,17.246167 C 37.068811,17.246167 37.088388,32 37.088388,32 L 22.160133,31.978069 C 22.160133,31.978069 26.997745,27.140456 26.997745,27.140456 C 18.528582,18.264221 13.291696,25.230495 11.500037,31.436501 z"
             style="fill:#404040;"/>
          </a>
         </g>
        </svg>
</svg>
