<?xml version="1.0" encoding="UTF-8" standalone="no"?>
<!DOCTYPE svg PUBLIC "-//W3C//DTD SVG 1.1//EN"
 "http://www.w3.org/Graphics/SVG/1.1/DTD/svg11.dtd">
<!-- Generated by graphviz version 2.36.0 (20140111.2315)
 -->
<!-- Title: Backend.Model Pages: 1 -->
<svg width="1324pt" height="461pt"
 viewBox="0.00 0.00 1324.00 461.00" xmlns="http://www.w3.org/2000/svg" xmlns:xlink="http://www.w3.org/1999/xlink">
<g id="graph0" class="graph" transform="scale(1 1) rotate(0) translate(4 457)">
<title>Backend.Model</title>
<polygon fill="white" stroke="none" points="-4,4 -4,-457 1320,-457 1320,4 -4,4"/>
<!-- Node1 -->
<g id="node1" class="node"><title>Node1</title>
<polygon fill="#bfbfbf" stroke="black" points="1226.5,-375.5 1226.5,-394.5 1315.5,-394.5 1315.5,-375.5 1226.5,-375.5"/>
<text text-anchor="middle" x="1271" y="-382.5" font-family="Helvetica,sans-Serif" font-size="10.00">Backend.Model</text>
</g>
<!-- Node2 -->
<g id="node2" class="node"><title>Node2</title>
<polygon fill="white" stroke="#bfbfbf" points="21.5,-333.5 21.5,-352.5 110.5,-352.5 110.5,-333.5 21.5,-333.5"/>
<text text-anchor="middle" x="66" y="-340.5" font-family="Helvetica,sans-Serif" font-size="10.00">List&lt; Double &gt;</text>
</g>
<!-- Node2&#45;&gt;Node1 -->
<g id="edge1" class="edge"><title>Node2&#45;&gt;Node1</title>
<path fill="none" stroke="#9a32cd" stroke-dasharray="5,2" d="M88.6801,-358.477C129.882,-386.324 223.236,-442 311,-442 311,-442 311,-442 1068,-442 1137.05,-442 1214.56,-410.767 1250.17,-394.541"/>
<polygon fill="#9a32cd" stroke="#9a32cd" points="90.4727,-355.462 80.2516,-352.673 86.5024,-361.227 90.4727,-355.462"/>
<text text-anchor="middle" x="643" y="-445" font-family="Helvetica,sans-Serif" font-size="10.00"> printValues</text>
</g>
<!-- Node21 -->
<g id="node21" class="node"><title>Node21</title>
<g id="a_node21"><a xlink:href="../../d4/dc3/class_pen_1_1_pen_thickness_box.html" target="_top" xlink:title="Pen.PenThicknessBox">
<polygon fill="white" stroke="black" points="252,-189.5 252,-208.5 372,-208.5 372,-189.5 252,-189.5"/>
<text text-anchor="middle" x="312" y="-196.5" font-family="Helvetica,sans-Serif" font-size="10.00">Pen.PenThicknessBox</text>
</a>
</g>
</g>
<!-- Node2&#45;&gt;Node21 -->
<g id="edge27" class="edge"><title>Node2&#45;&gt;Node21</title>
<path fill="none" stroke="#9a32cd" stroke-dasharray="5,2" d="M96.3234,-329.33C112.021,-322.346 131.818,-314.066 150,-308 186.504,-295.821 206.65,-314.072 234,-287 256.524,-264.704 230.23,-241.033 252,-218 255.696,-214.09 260.199,-210.982 265.052,-208.513"/>
<polygon fill="#9a32cd" stroke="#9a32cd" points="94.8046,-326.175 87.1299,-333.479 97.6844,-332.555 94.8046,-326.175"/>
<text text-anchor="middle" x="192" y="-311" font-family="Helvetica,sans-Serif" font-size="10.00"> myList</text>
</g>
<!-- Node23 -->
<g id="node23" class="node"><title>Node23</title>
<g id="a_node23"><a xlink:href="../../df/daf/class_pen_1_1_pen.html" target="_top" xlink:title="Pen.Pen">
<polygon fill="white" stroke="black" points="284,-273.5 284,-292.5 340,-292.5 340,-273.5 284,-273.5"/>
<text text-anchor="middle" x="312" y="-280.5" font-family="Helvetica,sans-Serif" font-size="10.00">Pen.Pen</text>
</a>
</g>
</g>
<!-- Node2&#45;&gt;Node23 -->
<g id="edge29" class="edge"><title>Node2&#45;&gt;Node23</title>
<path fill="none" stroke="#9a32cd" stroke-dasharray="5,2" d="M120.573,-342.109C154.093,-340.067 197.657,-334.659 234,-321 243,-317.618 243.569,-313.623 252,-309 263.091,-302.919 275.886,-297.14 286.72,-292.582"/>
<polygon fill="#9a32cd" stroke="#9a32cd" points="120.314,-338.618 110.512,-342.641 120.683,-345.608 120.314,-338.618"/>
<text text-anchor="middle" x="192" y="-376" font-family="Helvetica,sans-Serif" font-size="10.00"> DASHED</text>
<text text-anchor="middle" x="192" y="-365" font-family="Helvetica,sans-Serif" font-size="10.00">SOLID</text>
<text text-anchor="middle" x="192" y="-354" font-family="Helvetica,sans-Serif" font-size="10.00">myLineType</text>
<text text-anchor="middle" x="192" y="-343" font-family="Helvetica,sans-Serif" font-size="10.00">DOTTED</text>
</g>
<!-- Node3 -->
<g id="node3" class="node"><title>Node3</title>
<polygon fill="white" stroke="#bfbfbf" points="698,-378 698,-408 858,-408 858,-378 698,-378"/>
<text text-anchor="start" x="706" y="-396" font-family="Helvetica,sans-Serif" font-size="10.00">Map&lt; String, Nodes.Constant</text>
<text text-anchor="middle" x="778" y="-385" font-family="Helvetica,sans-Serif" font-size="10.00">Node &gt;</text>
</g>
<!-- Node3&#45;&gt;Node1 -->
<g id="edge2" class="edge"><title>Node3&#45;&gt;Node1</title>
<path fill="none" stroke="#9a32cd" stroke-dasharray="5,2" d="M868.174,-393.599C954.969,-393.844 1090.58,-393.332 1208,-389 1213.93,-388.781 1220.17,-388.472 1226.32,-388.121"/>
<polygon fill="#9a32cd" stroke="#9a32cd" points="868.11,-390.099 858.098,-393.566 868.087,-397.099 868.11,-390.099"/>
<text text-anchor="middle" x="1067" y="-397" font-family="Helvetica,sans-Serif" font-size="10.00"> userSaves</text>
</g>
<!-- Node4 -->
<g id="node4" class="node"><title>Node4</title>
<g id="a_node4"><a xlink:href="../../da/de9/class_backend_1_1_parser.html" target="_top" xlink:title="Backend.Parser">
<polygon fill="white" stroke="black" points="1021.5,-347.5 1021.5,-366.5 1112.5,-366.5 1112.5,-347.5 1021.5,-347.5"/>
<text text-anchor="middle" x="1067" y="-354.5" font-family="Helvetica,sans-Serif" font-size="10.00">Backend.Parser</text>
</a>
</g>
</g>
<!-- Node3&#45;&gt;Node4 -->
<g id="edge34" class="edge"><title>Node3&#45;&gt;Node4</title>
<path fill="none" stroke="#9a32cd" stroke-dasharray="5,2" d="M868.254,-379.048C870.864,-378.688 873.45,-378.338 876,-378 925.678,-371.417 982.855,-365.293 1021.4,-361.378"/>
<polygon fill="#9a32cd" stroke="#9a32cd" points="867.515,-375.618 858.101,-380.478 868.491,-382.549 867.515,-375.618"/>
<text text-anchor="middle" x="926" y="-381" font-family="Helvetica,sans-Serif" font-size="10.00"> daMap</text>
</g>
<!-- Node4&#45;&gt;Node1 -->
<g id="edge3" class="edge"><title>Node4&#45;&gt;Node1</title>
<path fill="none" stroke="#9a32cd" stroke-dasharray="5,2" d="M1123.07,-364.633C1155.55,-369.135 1196.08,-374.753 1226.34,-378.948"/>
<polygon fill="#9a32cd" stroke="#9a32cd" points="1123.22,-361.12 1112.83,-363.214 1122.26,-368.054 1123.22,-361.12"/>
<text text-anchor="middle" x="1183" y="-379" font-family="Helvetica,sans-Serif" font-size="10.00"> myParser</text>
</g>
<!-- Node5 -->
<g id="node5" class="node"><title>Node5</title>
<g id="a_node5"><a xlink:href="../../d1/de0/class_backend_1_1_turtle.html" target="_top" xlink:title="Backend.Turtle">
<polygon fill="white" stroke="black" points="735,-224.5 735,-243.5 821,-243.5 821,-224.5 735,-224.5"/>
<text text-anchor="middle" x="778" y="-231.5" font-family="Helvetica,sans-Serif" font-size="10.00">Backend.Turtle</text>
</a>
</g>
</g>
<!-- Node5&#45;&gt;Node4 -->
<g id="edge4" class="edge"><title>Node5&#45;&gt;Node4</title>
<path fill="none" stroke="#9a32cd" stroke-dasharray="5,2" d="M831.361,-232.004C882.417,-231.22 955.309,-233.565 976,-252 1005.16,-277.977 967.11,-309.683 994,-338 1001.21,-345.593 1011.07,-350.284 1021.17,-353.148"/>
<polygon fill="#9a32cd" stroke="#9a32cd" points="831.073,-228.509 821.144,-232.207 831.212,-235.508 831.073,-228.509"/>
<text text-anchor="middle" x="926" y="-255" font-family="Helvetica,sans-Serif" font-size="10.00"> myTurtle</text>
</g>
<!-- Node7 -->
<g id="node7" class="node"><title>Node7</title>
<g id="a_node7"><a xlink:href="../../d9/d38/class_turtle_view_1_1_turtle_information.html" target="_top" xlink:title="TurtleView.TurtleInformation">
<polygon fill="white" stroke="black" points="994,-192.5 994,-211.5 1140,-211.5 1140,-192.5 994,-192.5"/>
<text text-anchor="middle" x="1067" y="-199.5" font-family="Helvetica,sans-Serif" font-size="10.00">TurtleView.TurtleInformation</text>
</a>
</g>
</g>
<!-- Node5&#45;&gt;Node7 -->
<g id="edge8" class="edge"><title>Node5&#45;&gt;Node7</title>
<path fill="none" stroke="#9a32cd" stroke-dasharray="5,2" d="M831.648,-225.923C846.013,-223.85 861.589,-221.722 876,-220 914.822,-215.362 958.223,-211.176 993.733,-208.01"/>
<polygon fill="#9a32cd" stroke="#9a32cd" points="830.824,-222.506 821.436,-227.417 831.837,-229.433 830.824,-222.506"/>
<text text-anchor="middle" x="926" y="-223" font-family="Helvetica,sans-Serif" font-size="10.00"> myTurtle</text>
</g>
<!-- Node11 -->
<g id="node11" class="node"><title>Node11</title>
<g id="a_node11"><a xlink:href="../../dc/d04/class_turtle_view_1_1_turtle_image_box.html" target="_top" xlink:title="TurtleView.TurtleImageBox">
<polygon fill="white" stroke="black" points="997,-64.5 997,-83.5 1137,-83.5 1137,-64.5 997,-64.5"/>
<text text-anchor="middle" x="1067" y="-71.5" font-family="Helvetica,sans-Serif" font-size="10.00">TurtleView.TurtleImageBox</text>
</a>
</g>
</g>
<!-- Node5&#45;&gt;Node11 -->
<g id="edge13" class="edge"><title>Node5&#45;&gt;Node11</title>
<path fill="none" stroke="#9a32cd" stroke-dasharray="5,2" d="M786.945,-214.915C800.443,-185.108 830.855,-128.117 876,-101 911.987,-79.3838 958.577,-72.5053 996.614,-71.0936"/>
<polygon fill="#9a32cd" stroke="#9a32cd" points="783.672,-213.665 782.88,-224.23 790.087,-216.465 783.672,-213.665"/>
<text text-anchor="middle" x="926" y="-104" font-family="Helvetica,sans-Serif" font-size="10.00"> myTurtle</text>
</g>
<!-- Node6 -->
<g id="node6" class="node"><title>Node6</title>
<polygon fill="white" stroke="#bfbfbf" points="496,-280.5 496,-299.5 564,-299.5 564,-280.5 496,-280.5"/>
<text text-anchor="middle" x="530" y="-287.5" font-family="Helvetica,sans-Serif" font-size="10.00">ImageView</text>
</g>
<!-- Node6&#45;&gt;Node5 -->
<g id="edge5" class="edge"><title>Node6&#45;&gt;Node5</title>
<path fill="none" stroke="midnightblue" d="M574.13,-283.014C604.005,-277.903 644.609,-270.413 680,-262 702.509,-256.649 727.595,-249.372 746.616,-243.578"/>
<polygon fill="midnightblue" stroke="midnightblue" points="573.313,-279.603 564.037,-284.721 574.48,-286.505 573.313,-279.603"/>
</g>
<!-- Node7&#45;&gt;Node5 -->
<g id="edge6" class="edge"><title>Node7&#45;&gt;Node5</title>
<path fill="none" stroke="#9a32cd" stroke-dasharray="5,2" d="M1020.54,-190.314C981.686,-182.183 924.526,-174.65 876,-186 844.349,-193.403 811.178,-212.721 792.996,-224.469"/>
<polygon fill="#9a32cd" stroke="#9a32cd" points="1019.99,-193.775 1030.5,-192.496 1021.48,-186.937 1019.99,-193.775"/>
<text text-anchor="middle" x="926" y="-189" font-family="Helvetica,sans-Serif" font-size="10.00"> myTurtleInformation</text>
</g>
<!-- Node8 -->
<g id="node8" class="node"><title>Node8</title>
<polygon fill="white" stroke="#bfbfbf" points="291.5,-69.5 291.5,-88.5 332.5,-88.5 332.5,-69.5 291.5,-69.5"/>
<text text-anchor="middle" x="312" y="-76.5" font-family="Helvetica,sans-Serif" font-size="10.00">VBox</text>
</g>
<!-- Node8&#45;&gt;Node7 -->
<g id="edge7" class="edge"><title>Node8&#45;&gt;Node7</title>
<path fill="none" stroke="midnightblue" d="M342.646,-77.8277C455.835,-73.7683 860.198,-63.1927 976,-114 1015.02,-131.121 1046.82,-173.218 1059.75,-192.308"/>
<polygon fill="midnightblue" stroke="midnightblue" points="342.485,-74.3311 332.621,-78.1979 342.743,-81.3264 342.485,-74.3311"/>
</g>
<!-- Node15 -->
<g id="node15" class="node"><title>Node15</title>
<g id="a_node15"><a xlink:href="../../d0/d46/class_pen_1_1_pen_options.html" target="_top" xlink:title="Pen.PenOptions">
<polygon fill="white" stroke="black" points="484,-157.5 484,-176.5 576,-176.5 576,-157.5 484,-157.5"/>
<text text-anchor="middle" x="530" y="-164.5" font-family="Helvetica,sans-Serif" font-size="10.00">Pen.PenOptions</text>
</a>
</g>
</g>
<!-- Node8&#45;&gt;Node15 -->
<g id="edge17" class="edge"><title>Node8&#45;&gt;Node15</title>
<path fill="none" stroke="midnightblue" d="M342.528,-88.1228C351.984,-91.1471 362.47,-94.6094 372,-98 408.858,-111.113 418.202,-114.22 454,-130 473.663,-138.667 495.658,-149.68 510.716,-157.429"/>
<polygon fill="midnightblue" stroke="midnightblue" points="343.357,-84.7141 332.767,-85.0373 341.247,-91.3886 343.357,-84.7141"/>
</g>
<!-- Node9 -->
<g id="node9" class="node"><title>Node9</title>
<polygon fill="white" stroke="#bfbfbf" points="757,-277.5 757,-296.5 799,-296.5 799,-277.5 757,-277.5"/>
<text text-anchor="middle" x="778" y="-284.5" font-family="Helvetica,sans-Serif" font-size="10.00">Label</text>
</g>
<!-- Node9&#45;&gt;Node7 -->
<g id="edge9" class="edge"><title>Node9&#45;&gt;Node7</title>
<path fill="none" stroke="#9a32cd" stroke-dasharray="5,2" d="M809.103,-288.179C848.694,-288.726 919.817,-286.21 976,-265 1008.48,-252.74 1040.26,-226.07 1055.93,-211.676"/>
<polygon fill="#9a32cd" stroke="#9a32cd" points="809.117,-284.679 799.044,-287.964 808.967,-291.677 809.117,-284.679"/>
<text text-anchor="middle" x="926" y="-311" font-family="Helvetica,sans-Serif" font-size="10.00"> turtleIndexLabel</text>
<text text-anchor="middle" x="926" y="-300" font-family="Helvetica,sans-Serif" font-size="10.00">turtleDirectionLabel</text>
<text text-anchor="middle" x="926" y="-289" font-family="Helvetica,sans-Serif" font-size="10.00">turtlePositionLabel</text>
</g>
<!-- Node10 -->
<g id="node10" class="node"><title>Node10</title>
<polygon fill="white" stroke="#bfbfbf" points="503,-242.5 503,-261.5 557,-261.5 557,-242.5 503,-242.5"/>
<text text-anchor="middle" x="530" y="-249.5" font-family="Helvetica,sans-Serif" font-size="10.00">Point2D</text>
</g>
<!-- Node10&#45;&gt;Node5 -->
<g id="edge10" class="edge"><title>Node10&#45;&gt;Node5</title>
<path fill="none" stroke="#9a32cd" stroke-dasharray="5,2" d="M567.45,-249.333C612.147,-246.062 687.76,-240.53 734.895,-237.081"/>
<polygon fill="#9a32cd" stroke="#9a32cd" points="567.044,-245.853 557.326,-250.074 567.555,-252.835 567.044,-245.853"/>
<text text-anchor="middle" x="643" y="-250" font-family="Helvetica,sans-Serif" font-size="10.00"> myLocation</text>
</g>
<!-- Node11&#45;&gt;Node5 -->
<g id="edge11" class="edge"><title>Node11&#45;&gt;Node5</title>
<path fill="none" stroke="#9a32cd" stroke-dasharray="5,2" d="M1033.84,-87.6749C995.385,-104.451 929.519,-134.558 876,-166 844.259,-184.648 809.482,-210.463 791.433,-224.306"/>
<polygon fill="#9a32cd" stroke="#9a32cd" points="1035.67,-90.6927 1043.46,-83.5054 1032.89,-84.2696 1035.67,-90.6927"/>
<text text-anchor="middle" x="926" y="-169" font-family="Helvetica,sans-Serif" font-size="10.00"> myImageBox</text>
</g>
<!-- Node12 -->
<g id="node12" class="node"><title>Node12</title>
<polygon fill="white" stroke="#bfbfbf" points="3,-85 3,-115 129,-115 129,-85 3,-85"/>
<text text-anchor="start" x="11" y="-103" font-family="Helvetica,sans-Serif" font-size="10.00">javafx::scene::control</text>
<text text-anchor="middle" x="66" y="-92" font-family="Helvetica,sans-Serif" font-size="10.00">::ComboBox&lt; String &gt;</text>
</g>
<!-- Node12&#45;&gt;Node11 -->
<g id="edge12" class="edge"><title>Node12&#45;&gt;Node11</title>
<path fill="none" stroke="midnightblue" d="M114.379,-81.4765C162.955,-64.1756 241.074,-41 311,-41 311,-41 311,-41 779,-41 861.881,-41 957.348,-54.7505 1014.62,-64.4993"/>
<polygon fill="midnightblue" stroke="midnightblue" points="112.981,-78.2604 104.773,-84.9592 115.367,-84.8413 112.981,-78.2604"/>
</g>
<!-- Node16 -->
<g id="node16" class="node"><title>Node16</title>
<g id="a_node16"><a xlink:href="../../d6/da0/class_pen_1_1_pen_type_box.html" target="_top" xlink:title="Pen.PenTypeBox">
<polygon fill="white" stroke="black" points="264.5,-107.5 264.5,-126.5 359.5,-126.5 359.5,-107.5 264.5,-107.5"/>
<text text-anchor="middle" x="312" y="-114.5" font-family="Helvetica,sans-Serif" font-size="10.00">Pen.PenTypeBox</text>
</a>
</g>
</g>
<!-- Node12&#45;&gt;Node16 -->
<g id="edge19" class="edge"><title>Node12&#45;&gt;Node16</title>
<path fill="none" stroke="midnightblue" d="M139.281,-105.036C179.723,-107.854 228.958,-111.284 264.322,-113.748"/>
<polygon fill="midnightblue" stroke="midnightblue" points="139.422,-101.537 129.203,-104.334 138.935,-108.52 139.422,-101.537"/>
</g>
<!-- Node19 -->
<g id="node19" class="node"><title>Node19</title>
<g id="a_node19"><a xlink:href="../../df/d6f/class_pen_1_1_pen_color_box.html" target="_top" xlink:title="Pen.PenColorBox">
<polygon fill="white" stroke="black" points="263,-148.5 263,-167.5 361,-167.5 361,-148.5 263,-148.5"/>
<text text-anchor="middle" x="312" y="-155.5" font-family="Helvetica,sans-Serif" font-size="10.00">Pen.PenColorBox</text>
</a>
</g>
</g>
<!-- Node12&#45;&gt;Node19 -->
<g id="edge23" class="edge"><title>Node12&#45;&gt;Node19</title>
<path fill="none" stroke="midnightblue" d="M139.053,-117.127C182.038,-127.345 235.022,-139.94 270.722,-148.426"/>
<polygon fill="midnightblue" stroke="midnightblue" points="139.741,-113.693 129.203,-114.786 138.122,-120.504 139.741,-113.693"/>
</g>
<!-- Node13 -->
<g id="node13" class="node"><title>Node13</title>
<g id="a_node13"><a xlink:href="../../dc/ded/class_turtle_view_1_1_active_ring.html" target="_top" xlink:title="TurtleView.ActiveRing">
<polygon fill="white" stroke="black" points="472,-318.5 472,-337.5 588,-337.5 588,-318.5 472,-318.5"/>
<text text-anchor="middle" x="530" y="-325.5" font-family="Helvetica,sans-Serif" font-size="10.00">TurtleView.ActiveRing</text>
</a>
</g>
</g>
<!-- Node13&#45;&gt;Node5 -->
<g id="edge14" class="edge"><title>Node13&#45;&gt;Node5</title>
<path fill="none" stroke="#9a32cd" stroke-dasharray="5,2" d="M593.186,-316.102C620.884,-309.204 653.223,-298.869 680,-284 689.358,-278.804 688.969,-273.745 698,-268 713.874,-257.903 733.26,-249.508 748.855,-243.587"/>
<polygon fill="#9a32cd" stroke="#9a32cd" points="592.121,-312.758 583.211,-318.49 593.751,-319.566 592.121,-312.758"/>
<text text-anchor="middle" x="643" y="-315" font-family="Helvetica,sans-Serif" font-size="10.00"> myRing</text>
</g>
<!-- Node14 -->
<g id="node14" class="node"><title>Node14</title>
<polygon fill="white" stroke="#bfbfbf" points="290.5,-318.5 290.5,-337.5 333.5,-337.5 333.5,-318.5 290.5,-318.5"/>
<text text-anchor="middle" x="312" y="-325.5" font-family="Helvetica,sans-Serif" font-size="10.00">Circle</text>
</g>
<!-- Node14&#45;&gt;Node13 -->
<g id="edge15" class="edge"><title>Node14&#45;&gt;Node13</title>
<path fill="none" stroke="midnightblue" d="M343.733,-328C376.942,-328 430.613,-328 471.661,-328"/>
<polygon fill="midnightblue" stroke="midnightblue" points="343.711,-324.5 333.711,-328 343.711,-331.5 343.711,-324.5"/>
</g>
<!-- Node15&#45;&gt;Node5 -->
<g id="edge16" class="edge"><title>Node15&#45;&gt;Node5</title>
<path fill="none" stroke="#9a32cd" stroke-dasharray="5,2" d="M586.258,-170.775C614.708,-173.719 649.692,-178.909 680,-188 709.813,-196.943 742.008,-213.793 760.79,-224.429"/>
<polygon fill="#9a32cd" stroke="#9a32cd" points="586.384,-167.271 576.093,-169.788 585.708,-174.238 586.384,-167.271"/>
<text text-anchor="middle" x="643" y="-191" font-family="Helvetica,sans-Serif" font-size="10.00"> myPenOptions</text>
</g>
<!-- Node16&#45;&gt;Node15 -->
<g id="edge18" class="edge"><title>Node16&#45;&gt;Node15</title>
<path fill="none" stroke="#9a32cd" stroke-dasharray="5,2" d="M369.79,-128.395C395.562,-133.743 426.39,-140.386 454,-147 467.367,-150.202 481.989,-154.028 494.743,-157.471"/>
<polygon fill="#9a32cd" stroke="#9a32cd" points="370.314,-124.93 359.814,-126.337 368.9,-131.785 370.314,-124.93"/>
<text text-anchor="middle" x="422" y="-150" font-family="Helvetica,sans-Serif" font-size="10.00"> myTypeBox</text>
</g>
<!-- Node17 -->
<g id="node17" class="node"><title>Node17</title>
<polygon fill="white" stroke="#bfbfbf" points="12.5,-0 12.5,-30 119.5,-30 119.5,-0 12.5,-0"/>
<text text-anchor="start" x="20.5" y="-18" font-family="Helvetica,sans-Serif" font-size="10.00">Map&lt; String, List&lt;</text>
<text text-anchor="middle" x="66" y="-7" font-family="Helvetica,sans-Serif" font-size="10.00"> Double &gt; &gt;</text>
</g>
<!-- Node17&#45;&gt;Node16 -->
<g id="edge20" class="edge"><title>Node17&#45;&gt;Node16</title>
<path fill="none" stroke="#9a32cd" stroke-dasharray="5,2" d="M107.112,-34.5406C144.225,-52.2481 201.169,-78.4807 252,-98 260.74,-101.356 270.354,-104.626 279.238,-107.48"/>
<polygon fill="#9a32cd" stroke="#9a32cd" points="108.187,-31.1746 97.6565,-30.0086 105.162,-37.487 108.187,-31.1746"/>
<text text-anchor="middle" x="192" y="-93" font-family="Helvetica,sans-Serif" font-size="10.00"> myMap</text>
</g>
<!-- Node18 -->
<g id="node18" class="node"><title>Node18</title>
<polygon fill="white" stroke="#bfbfbf" points="280,-227.5 280,-246.5 344,-246.5 344,-227.5 280,-227.5"/>
<text text-anchor="middle" x="312" y="-234.5" font-family="Helvetica,sans-Serif" font-size="10.00">CheckBox</text>
</g>
<!-- Node18&#45;&gt;Node15 -->
<g id="edge21" class="edge"><title>Node18&#45;&gt;Node15</title>
<path fill="none" stroke="#9a32cd" stroke-dasharray="5,2" d="M354.204,-230.215C382.899,-224.669 421.668,-215.515 454,-202 462.65,-198.384 463.656,-195.276 472,-191 482.225,-185.761 493.86,-180.708 503.94,-176.602"/>
<polygon fill="#9a32cd" stroke="#9a32cd" points="353.307,-226.822 344.118,-232.097 354.59,-233.704 353.307,-226.822"/>
<text text-anchor="middle" x="422" y="-225" font-family="Helvetica,sans-Serif" font-size="10.00"> myDownBox</text>
</g>
<!-- Node19&#45;&gt;Node15 -->
<g id="edge22" class="edge"><title>Node19&#45;&gt;Node15</title>
<path fill="none" stroke="#9a32cd" stroke-dasharray="5,2" d="M371.397,-160.433C406.775,-161.907 451.225,-163.759 483.892,-165.121"/>
<polygon fill="#9a32cd" stroke="#9a32cd" points="371.343,-156.928 361.206,-160.009 371.051,-163.922 371.343,-156.928"/>
<text text-anchor="middle" x="422" y="-167" font-family="Helvetica,sans-Serif" font-size="10.00"> myColorBox</text>
</g>
<!-- Node20 -->
<g id="node20" class="node"><title>Node20</title>
<polygon fill="white" stroke="#bfbfbf" points="6.5,-148.5 6.5,-167.5 125.5,-167.5 125.5,-148.5 6.5,-148.5"/>
<text text-anchor="middle" x="66" y="-155.5" font-family="Helvetica,sans-Serif" font-size="10.00">Map&lt; String, Color &gt;</text>
</g>
<!-- Node20&#45;&gt;Node19 -->
<g id="edge24" class="edge"><title>Node20&#45;&gt;Node19</title>
<path fill="none" stroke="#9a32cd" stroke-dasharray="5,2" d="M135.842,-158C176.404,-158 226.711,-158 262.99,-158"/>
<polygon fill="#9a32cd" stroke="#9a32cd" points="135.755,-154.5 125.755,-158 135.755,-161.5 135.755,-154.5"/>
<text text-anchor="middle" x="192" y="-161" font-family="Helvetica,sans-Serif" font-size="10.00"> myMap</text>
</g>
<!-- Node21&#45;&gt;Node15 -->
<g id="edge25" class="edge"><title>Node21&#45;&gt;Node15</title>
<path fill="none" stroke="#9a32cd" stroke-dasharray="5,2" d="M382.146,-188.756C415.404,-183.829 454.334,-178.062 483.752,-173.703"/>
<polygon fill="#9a32cd" stroke="#9a32cd" points="381.402,-185.328 372.023,-190.256 382.428,-192.253 381.402,-185.328"/>
<text text-anchor="middle" x="422" y="-190" font-family="Helvetica,sans-Serif" font-size="10.00"> myThickBox</text>
</g>
<!-- Node22 -->
<g id="node22" class="node"><title>Node22</title>
<polygon fill="white" stroke="#bfbfbf" points="0.5,-187 0.5,-217 131.5,-217 131.5,-187 0.5,-187"/>
<text text-anchor="start" x="8.5" y="-205" font-family="Helvetica,sans-Serif" font-size="10.00">javafx::scene::control</text>
<text text-anchor="middle" x="66" y="-194" font-family="Helvetica,sans-Serif" font-size="10.00">::ComboBox&lt; Double &gt;</text>
</g>
<!-- Node22&#45;&gt;Node21 -->
<g id="edge26" class="edge"><title>Node22&#45;&gt;Node21</title>
<path fill="none" stroke="midnightblue" d="M142.002,-201.078C177.291,-200.644 218.773,-200.134 251.808,-199.728"/>
<polygon fill="midnightblue" stroke="midnightblue" points="141.703,-197.581 131.747,-201.204 141.789,-204.581 141.703,-197.581"/>
</g>
<!-- Node23&#45;&gt;Node5 -->
<g id="edge31" class="edge"><title>Node23&#45;&gt;Node5</title>
<path fill="none" stroke="#9a32cd" stroke-dasharray="5,2" d="M350.123,-292.837C381.03,-298.685 424.587,-301.204 454,-279 475.203,-262.993 450.572,-237.704 472,-222 512.605,-192.241 660.944,-213.266 734.732,-226.084"/>
<polygon fill="#9a32cd" stroke="#9a32cd" points="350.669,-289.376 340.165,-290.757 349.238,-296.228 350.669,-289.376"/>
<text text-anchor="middle" x="530" y="-225" font-family="Helvetica,sans-Serif" font-size="10.00"> myPen</text>
</g>
<!-- Node23&#45;&gt;Node15 -->
<g id="edge28" class="edge"><title>Node23&#45;&gt;Node15</title>
<path fill="none" stroke="#9a32cd" stroke-dasharray="5,2" d="M350.079,-274.705C386.535,-265.897 438.853,-251.298 454,-237 469.965,-221.93 456.676,-206.721 472,-191 478.071,-184.772 486.006,-180.083 494.019,-176.582"/>
<polygon fill="#9a32cd" stroke="#9a32cd" points="349.185,-271.32 340.261,-277.031 350.798,-278.131 349.185,-271.32"/>
<text text-anchor="middle" x="422" y="-268" font-family="Helvetica,sans-Serif" font-size="10.00"> myPen</text>
</g>
<!-- Node24 -->
<g id="node24" class="node"><title>Node24</title>
<polygon fill="white" stroke="#bfbfbf" points="45.5,-254.5 45.5,-273.5 86.5,-273.5 86.5,-254.5 45.5,-254.5"/>
<text text-anchor="middle" x="66" y="-261.5" font-family="Helvetica,sans-Serif" font-size="10.00">Color</text>
</g>
<!-- Node24&#45;&gt;Node23 -->
<g id="edge30" class="edge"><title>Node24&#45;&gt;Node23</title>
<path fill="none" stroke="#9a32cd" stroke-dasharray="5,2" d="M96.6678,-262.187C130.154,-260.602 186.195,-259.342 234,-265 250.769,-266.985 269.199,-271.218 283.824,-275.08"/>
<polygon fill="#9a32cd" stroke="#9a32cd" points="96.4338,-258.694 86.6273,-262.705 96.7942,-265.685 96.4338,-258.694"/>
<text text-anchor="middle" x="192" y="-279" font-family="Helvetica,sans-Serif" font-size="10.00"> DEFAULT_COLOR</text>
<text text-anchor="middle" x="192" y="-268" font-family="Helvetica,sans-Serif" font-size="10.00">myColor</text>
</g>
<!-- Node25 -->
<g id="node25" class="node"><title>Node25</title>
<polygon fill="white" stroke="#bfbfbf" points="483.5,-394.5 483.5,-413.5 576.5,-413.5 576.5,-394.5 483.5,-394.5"/>
<text text-anchor="middle" x="530" y="-401.5" font-family="Helvetica,sans-Serif" font-size="10.00">List&lt; Point2D &gt;</text>
</g>
<!-- Node25&#45;&gt;Node5 -->
<g id="edge32" class="edge"><title>Node25&#45;&gt;Node5</title>
<path fill="none" stroke="#9a32cd" stroke-dasharray="5,2" d="M586.704,-408.508C618.275,-407.884 656.118,-401.258 680,-377 714.447,-342.011 667.74,-306.668 698,-268 707.202,-256.241 721.27,-248.481 734.997,-243.39"/>
<polygon fill="#9a32cd" stroke="#9a32cd" points="586.698,-405.008 576.7,-408.515 586.703,-412.008 586.698,-405.008"/>
<text text-anchor="middle" x="643" y="-411" font-family="Helvetica,sans-Serif" font-size="10.00"> nextLocations</text>
</g>
<!-- Node26 -->
<g id="node26" class="node"><title>Node26</title>
<polygon fill="white" stroke="#bfbfbf" points="484,-356.5 484,-375.5 576,-375.5 576,-356.5 484,-356.5"/>
<text text-anchor="middle" x="530" y="-363.5" font-family="Helvetica,sans-Serif" font-size="10.00">List&lt; Polyline &gt;</text>
</g>
<!-- Node26&#45;&gt;Node5 -->
<g id="edge33" class="edge"><title>Node26&#45;&gt;Node5</title>
<path fill="none" stroke="#9a32cd" stroke-dasharray="5,2" d="M586.315,-364.366C617.528,-360.602 655.139,-350.883 680,-327 699.771,-308.007 679.712,-288.425 698,-268 708.259,-256.542 723.051,-248.8 737.068,-243.639"/>
<polygon fill="#9a32cd" stroke="#9a32cd" points="585.592,-360.921 576.002,-365.426 586.308,-367.885 585.592,-360.921"/>
<text text-anchor="middle" x="643" y="-365" font-family="Helvetica,sans-Serif" font-size="10.00"> myTrail</text>
</g>
<!-- Node27 -->
<g id="node27" class="node"><title>Node27</title>
<polygon fill="white" stroke="#bfbfbf" points="717,-333.5 717,-352.5 839,-352.5 839,-333.5 717,-333.5"/>
<text text-anchor="middle" x="778" y="-340.5" font-family="Helvetica,sans-Serif" font-size="10.00">Map&lt; String, String &gt;</text>
</g>
<!-- Node27&#45;&gt;Node4 -->
<g id="edge35" class="edge"><title>Node27&#45;&gt;Node4</title>
<path fill="none" stroke="#9a32cd" stroke-dasharray="5,2" d="M849.352,-341.001C886.976,-340.526 934.068,-340.88 976,-344 990.799,-345.101 1006.86,-347.146 1021.27,-349.294"/>
<polygon fill="#9a32cd" stroke="#9a32cd" points="848.95,-337.507 839.003,-341.155 849.054,-344.506 848.95,-337.507"/>
<text text-anchor="middle" x="926" y="-347" font-family="Helvetica,sans-Serif" font-size="10.00"> myMap</text>
</g>
<!-- Node28 -->
<g id="node28" class="node"><title>Node28</title>
<g id="a_node28"><a xlink:href="../../db/d5d/class_backend_1_1_a_s_t.html" target="_top" xlink:title="Backend.AST">
<polygon fill="white" stroke="black" points="1027,-309.5 1027,-328.5 1107,-328.5 1107,-309.5 1027,-309.5"/>
<text text-anchor="middle" x="1067" y="-316.5" font-family="Helvetica,sans-Serif" font-size="10.00">Backend.AST</text>
</a>
</g>
</g>
<!-- Node28&#45;&gt;Node1 -->
<g id="edge36" class="edge"><title>Node28&#45;&gt;Node1</title>
<path fill="none" stroke="#9a32cd" stroke-dasharray="5,2" d="M1117.24,-329.724C1144.37,-336.203 1178.45,-345.277 1208,-356 1223.19,-361.513 1239.74,-369.353 1251.92,-375.492"/>
<polygon fill="#9a32cd" stroke="#9a32cd" points="1117.74,-326.246 1107.2,-327.37 1116.14,-333.061 1117.74,-326.246"/>
<text text-anchor="middle" x="1183" y="-359" font-family="Helvetica,sans-Serif" font-size="10.00"> tree</text>
</g>
</g>
</svg>
