<?xml version="1.0" encoding="UTF-8" standalone="no"?>
<!DOCTYPE svg PUBLIC "-//W3C//DTD SVG 1.1//EN"
 "http://www.w3.org/Graphics/SVG/1.1/DTD/svg11.dtd">
<!-- Generated by graphviz version 2.36.0 (20140111.2315)
 -->
<!-- Title: FrontEnd.CommandLine.CommandLine Pages: 1 -->
<svg width="608pt" height="38pt"
 viewBox="0.00 0.00 608.00 38.00" xmlns="http://www.w3.org/2000/svg" xmlns:xlink="http://www.w3.org/1999/xlink">
<g id="graph0" class="graph" transform="scale(1 1) rotate(0) translate(4 34)">
<title>FrontEnd.CommandLine.CommandLine</title>
<polygon fill="white" stroke="none" points="-4,4 -4,-34 604,-34 604,4 -4,4"/>
<!-- Node1 -->
<g id="node1" class="node"><title>Node1</title>
<polygon fill="#bfbfbf" stroke="black" points="0,-5.5 0,-24.5 204,-24.5 204,-5.5 0,-5.5"/>
<text text-anchor="middle" x="102" y="-12.5" font-family="Helvetica,sans-Serif" font-size="10.00">FrontEnd.CommandLine.CommandLine</text>
</g>
<!-- Node2 -->
<g id="node2" class="node"><title>Node2</title>
<g id="a_node2"><a xlink:href="../../df/d9c/class_front_end_1_1_command_line.html#a222e0565603b712eb8f4a0e3de313497" target="_top" xlink:title="FrontEnd.CommandLine.handle">
<polygon fill="white" stroke="black" points="240.5,-5.5 240.5,-24.5 407.5,-24.5 407.5,-5.5 240.5,-5.5"/>
<text text-anchor="middle" x="324" y="-12.5" font-family="Helvetica,sans-Serif" font-size="10.00">FrontEnd.CommandLine.handle</text>
</a>
</g>
</g>
<!-- Node1&#45;&gt;Node2 -->
<g id="edge1" class="edge"><title>Node1&#45;&gt;Node2</title>
<path fill="none" stroke="midnightblue" d="M204.307,-15C212.98,-15 221.725,-15 230.326,-15"/>
<polygon fill="midnightblue" stroke="midnightblue" points="230.342,-18.5001 240.342,-15 230.342,-11.5001 230.342,-18.5001"/>
</g>
<!-- Node3 -->
<g id="node3" class="node"><title>Node3</title>
<g id="a_node3"><a xlink:href="../../d4/d1b/class_front_end_1_1_history_box.html#a85e58eb5c531b93a634ead7cd5f8f488" target="_top" xlink:title="FrontEnd.HistoryBox.getMost\lRecentCommand">
<polygon fill="white" stroke="black" points="444.5,-0 444.5,-30 599.5,-30 599.5,-0 444.5,-0"/>
<text text-anchor="start" x="452.5" y="-18" font-family="Helvetica,sans-Serif" font-size="10.00">FrontEnd.HistoryBox.getMost</text>
<text text-anchor="middle" x="522" y="-7" font-family="Helvetica,sans-Serif" font-size="10.00">RecentCommand</text>
</a>
</g>
</g>
<!-- Node2&#45;&gt;Node3 -->
<g id="edge2" class="edge"><title>Node2&#45;&gt;Node3</title>
<path fill="none" stroke="midnightblue" d="M407.554,-15C416.447,-15 425.515,-15 434.453,-15"/>
<polygon fill="midnightblue" stroke="midnightblue" points="434.475,-18.5001 444.475,-15 434.475,-11.5001 434.475,-18.5001"/>
</g>
</g>
</svg>
