<?xml version="1.0" encoding="UTF-8" standalone="no"?>
<!DOCTYPE svg PUBLIC "-//W3C//DTD SVG 1.1//EN"
 "http://www.w3.org/Graphics/SVG/1.1/DTD/svg11.dtd">
<!-- Generated by graphviz version 2.36.0 (20140111.2315)
 -->
<!-- Title: FrontEndCommands.LoadWorkspace.handle Pages: 1 -->
<svg width="690pt" height="273pt"
 viewBox="0.00 0.00 690.00 273.00" xmlns="http://www.w3.org/2000/svg" xmlns:xlink="http://www.w3.org/1999/xlink">
<g id="graph0" class="graph" transform="scale(1 1) rotate(0) translate(4 269)">
<title>FrontEndCommands.LoadWorkspace.handle</title>
<polygon fill="white" stroke="none" points="-4,4 -4,-269 686,-269 686,4 -4,4"/>
<!-- Node1 -->
<g id="node1" class="node"><title>Node1</title>
<polygon fill="#bfbfbf" stroke="black" points="0.5,-117.5 0.5,-136.5 227.5,-136.5 227.5,-117.5 0.5,-117.5"/>
<text text-anchor="middle" x="114" y="-124.5" font-family="Helvetica,sans-Serif" font-size="10.00">FrontEndCommands.LoadWorkspace.handle</text>
</g>
<!-- Node2 -->
<g id="node2" class="node"><title>Node2</title>
<g id="a_node2"><a xlink:href="../../d8/da4/class_front_end_commands_1_1_load_workspace.html#a085f7d78419f925a9cb7832f575cf221" target="_top" xlink:title="FrontEndCommands.LoadWorkspace.get\lSettingsFromFile">
<polygon fill="white" stroke="black" points="264,-112 264,-142 474,-142 474,-112 264,-112"/>
<text text-anchor="start" x="272" y="-130" font-family="Helvetica,sans-Serif" font-size="10.00">FrontEndCommands.LoadWorkspace.get</text>
<text text-anchor="middle" x="369" y="-119" font-family="Helvetica,sans-Serif" font-size="10.00">SettingsFromFile</text>
</a>
</g>
</g>
<!-- Node1&#45;&gt;Node2 -->
<g id="edge1" class="edge"><title>Node1&#45;&gt;Node2</title>
<path fill="none" stroke="midnightblue" d="M227.811,-120.285C236.43,-120.241 245.134,-120.238 253.762,-120.278"/>
<polygon fill="midnightblue" stroke="midnightblue" points="253.822,-123.779 263.845,-120.344 253.868,-116.779 253.822,-123.779"/>
</g>
<!-- Node2&#45;&gt;Node1 -->
<g id="edge7" class="edge"><title>Node2&#45;&gt;Node1</title>
<path fill="none" stroke="midnightblue" d="M263.845,-133.656C255.303,-133.728 246.62,-133.759 237.959,-133.748"/>
<polygon fill="midnightblue" stroke="midnightblue" points="237.823,-130.247 227.811,-133.715 237.8,-137.247 237.823,-130.247"/>
</g>
<!-- Node3 -->
<g id="node3" class="node"><title>Node3</title>
<g id="a_node3"><a xlink:href="../../df/dec/class_front_end_1_1_view.html#a3feb965c163adfc31bd55bfd9b7b49b3" target="_top" xlink:title="FrontEnd.View.getAddTurtle\lButton">
<polygon fill="white" stroke="black" points="523,-235 523,-265 669,-265 669,-235 523,-235"/>
<text text-anchor="start" x="531" y="-253" font-family="Helvetica,sans-Serif" font-size="10.00">FrontEnd.View.getAddTurtle</text>
<text text-anchor="middle" x="596" y="-242" font-family="Helvetica,sans-Serif" font-size="10.00">Button</text>
</a>
</g>
</g>
<!-- Node2&#45;&gt;Node3 -->
<g id="edge2" class="edge"><title>Node2&#45;&gt;Node3</title>
<path fill="none" stroke="midnightblue" d="M387.389,-142.016C412.764,-163.238 462.143,-201.977 510,-225 514.851,-227.334 519.965,-229.497 525.179,-231.492"/>
<polygon fill="midnightblue" stroke="midnightblue" points="524.042,-234.803 534.636,-234.903 526.417,-228.218 524.042,-234.803"/>
</g>
<!-- Node4 -->
<g id="node4" class="node"><title>Node4</title>
<g id="a_node4"><a xlink:href="../../d2/d5e/class_front_end_1_1_language_selector.html#a0983f98727268c16f03d4448d618a13e" target="_top" xlink:title="FrontEnd.LanguageSelector.get\lComboBox">
<polygon fill="white" stroke="black" points="512.5,-186 512.5,-216 679.5,-216 679.5,-186 512.5,-186"/>
<text text-anchor="start" x="520.5" y="-204" font-family="Helvetica,sans-Serif" font-size="10.00">FrontEnd.LanguageSelector.get</text>
<text text-anchor="middle" x="596" y="-193" font-family="Helvetica,sans-Serif" font-size="10.00">ComboBox</text>
</a>
</g>
</g>
<!-- Node2&#45;&gt;Node4 -->
<g id="edge3" class="edge"><title>Node2&#45;&gt;Node4</title>
<path fill="none" stroke="midnightblue" d="M411.165,-142.024C438.959,-152.016 476.54,-165.231 510,-176 517.31,-178.353 525.001,-180.738 532.647,-183.055"/>
<polygon fill="midnightblue" stroke="midnightblue" points="531.691,-186.422 542.275,-185.944 533.703,-179.717 531.691,-186.422"/>
</g>
<!-- Node5 -->
<g id="node5" class="node"><title>Node5</title>
<g id="a_node5"><a xlink:href="../../df/dec/class_front_end_1_1_view.html#a2812398b952d53cbb09f8e7823fca245" target="_top" xlink:title="FrontEnd.View.getLanguage\lSelector">
<polygon fill="white" stroke="black" points="521.5,-137 521.5,-167 670.5,-167 670.5,-137 521.5,-137"/>
<text text-anchor="start" x="529.5" y="-155" font-family="Helvetica,sans-Serif" font-size="10.00">FrontEnd.View.getLanguage</text>
<text text-anchor="middle" x="596" y="-144" font-family="Helvetica,sans-Serif" font-size="10.00">Selector</text>
</a>
</g>
</g>
<!-- Node2&#45;&gt;Node5 -->
<g id="edge4" class="edge"><title>Node2&#45;&gt;Node5</title>
<path fill="none" stroke="midnightblue" d="M474.267,-138.585C486.66,-139.962 499.188,-141.354 511.243,-142.694"/>
<polygon fill="midnightblue" stroke="midnightblue" points="510.92,-146.179 521.245,-143.805 511.693,-139.222 510.92,-146.179"/>
</g>
<!-- Node6 -->
<g id="node6" class="node"><title>Node6</title>
<g id="a_node6"><a xlink:href="../../df/dec/class_front_end_1_1_view.html#a292087509c6e8a64a73dd9fbf1908864" target="_top" xlink:title="FrontEnd.View.getMyBackground\lColorBox">
<polygon fill="white" stroke="black" points="510,-88 510,-118 682,-118 682,-88 510,-88"/>
<text text-anchor="start" x="518" y="-106" font-family="Helvetica,sans-Serif" font-size="10.00">FrontEnd.View.getMyBackground</text>
<text text-anchor="middle" x="596" y="-95" font-family="Helvetica,sans-Serif" font-size="10.00">ColorBox</text>
</a>
</g>
</g>
<!-- Node2&#45;&gt;Node6 -->
<g id="edge5" class="edge"><title>Node2&#45;&gt;Node6</title>
<path fill="none" stroke="midnightblue" d="M474.267,-115.878C482.766,-114.972 491.328,-114.058 499.758,-113.159"/>
<polygon fill="midnightblue" stroke="midnightblue" points="500.39,-116.612 509.962,-112.071 499.647,-109.651 500.39,-116.612"/>
</g>
<!-- Node7 -->
<g id="node7" class="node"><title>Node7</title>
<g id="a_node7"><a xlink:href="../../df/dec/class_front_end_1_1_view.html#afb67db7e0871d4f5bba18624ce37df52" target="_top" xlink:title="FrontEnd.View.getMyTurtle\lImageBox">
<polygon fill="white" stroke="black" points="526,-39 526,-69 666,-69 666,-39 526,-39"/>
<text text-anchor="start" x="534" y="-57" font-family="Helvetica,sans-Serif" font-size="10.00">FrontEnd.View.getMyTurtle</text>
<text text-anchor="middle" x="596" y="-46" font-family="Helvetica,sans-Serif" font-size="10.00">ImageBox</text>
</a>
</g>
</g>
<!-- Node2&#45;&gt;Node7 -->
<g id="edge6" class="edge"><title>Node2&#45;&gt;Node7</title>
<path fill="none" stroke="midnightblue" d="M412.419,-111.91C440.096,-102.2 477.069,-89.4824 510,-79 517.317,-76.6708 525.013,-74.2994 532.661,-71.9907"/>
<polygon fill="midnightblue" stroke="midnightblue" points="533.716,-75.3286 542.292,-69.1078 531.708,-68.6226 533.716,-75.3286"/>
</g>
<!-- Node8 -->
<g id="node8" class="node"><title>Node8</title>
<g id="a_node8"><a xlink:href="../../df/dec/class_front_end_1_1_view.html#aba848cd44a4726c74dc85535f0c5722d" target="_top" xlink:title="FrontEnd.View.makeErrorDialog">
<polygon fill="white" stroke="black" points="513,-0.5 513,-19.5 679,-19.5 679,-0.5 513,-0.5"/>
<text text-anchor="middle" x="596" y="-7.5" font-family="Helvetica,sans-Serif" font-size="10.00">FrontEnd.View.makeErrorDialog</text>
</a>
</g>
</g>
<!-- Node2&#45;&gt;Node8 -->
<g id="edge8" class="edge"><title>Node2&#45;&gt;Node8</title>
<path fill="none" stroke="midnightblue" d="M387.252,-111.79C412.461,-90.3637 461.639,-51.5102 510,-30 516.666,-27.0351 523.83,-24.4781 531.068,-22.2805"/>
<polygon fill="midnightblue" stroke="midnightblue" points="532.267,-25.5791 540.946,-19.5019 530.372,-18.8406 532.267,-25.5791"/>
</g>
</g>
</svg>
