<?xml version="1.0" encoding="UTF-8" standalone="no"?>
<!DOCTYPE svg PUBLIC "-//W3C//DTD SVG 1.1//EN"
 "http://www.w3.org/Graphics/SVG/1.1/DTD/svg11.dtd">
<!-- Generated by graphviz version 2.36.0 (20140111.2315)
 -->
<!-- Title: FrontEndCommands.LoadWorkspace.getSettingsFromFile Pages: 1 -->
<svg width="482pt" height="311pt"
 viewBox="0.00 0.00 482.00 311.00" xmlns="http://www.w3.org/2000/svg" xmlns:xlink="http://www.w3.org/1999/xlink">
<g id="graph0" class="graph" transform="scale(1 1) rotate(0) translate(4 307)">
<title>FrontEndCommands.LoadWorkspace.getSettingsFromFile</title>
<polygon fill="white" stroke="none" points="-4,4 -4,-307 478,-307 478,4 -4,4"/>
<!-- Node1 -->
<g id="node1" class="node"><title>Node1</title>
<polygon fill="#bfbfbf" stroke="black" points="0,-101 0,-131 210,-131 210,-101 0,-101"/>
<text text-anchor="start" x="8" y="-119" font-family="Helvetica,sans-Serif" font-size="10.00">FrontEndCommands.LoadWorkspace.get</text>
<text text-anchor="middle" x="105" y="-108" font-family="Helvetica,sans-Serif" font-size="10.00">SettingsFromFile</text>
</g>
<!-- Node2 -->
<g id="node2" class="node"><title>Node2</title>
<g id="a_node2"><a xlink:href="../../df/dec/class_front_end_1_1_view.html#a3feb965c163adfc31bd55bfd9b7b49b3" target="_top" xlink:title="FrontEnd.View.getAddTurtle\lButton">
<polygon fill="white" stroke="black" points="287,-273 287,-303 433,-303 433,-273 287,-273"/>
<text text-anchor="start" x="295" y="-291" font-family="Helvetica,sans-Serif" font-size="10.00">FrontEnd.View.getAddTurtle</text>
<text text-anchor="middle" x="360" y="-280" font-family="Helvetica,sans-Serif" font-size="10.00">Button</text>
</a>
</g>
</g>
<!-- Node1&#45;&gt;Node2 -->
<g id="edge1" class="edge"><title>Node1&#45;&gt;Node2</title>
<path fill="none" stroke="midnightblue" d="M115.864,-131.309C136.247,-161.613 186.148,-229.225 246,-263 255.512,-268.368 266.08,-272.583 276.825,-275.893"/>
<polygon fill="midnightblue" stroke="midnightblue" points="276.144,-279.338 286.719,-278.686 278.046,-272.601 276.144,-279.338"/>
</g>
<!-- Node3 -->
<g id="node3" class="node"><title>Node3</title>
<g id="a_node3"><a xlink:href="../../d2/d5e/class_front_end_1_1_language_selector.html#a0983f98727268c16f03d4448d618a13e" target="_top" xlink:title="FrontEnd.LanguageSelector.get\lComboBox">
<polygon fill="white" stroke="black" points="276.5,-224 276.5,-254 443.5,-254 443.5,-224 276.5,-224"/>
<text text-anchor="start" x="284.5" y="-242" font-family="Helvetica,sans-Serif" font-size="10.00">FrontEnd.LanguageSelector.get</text>
<text text-anchor="middle" x="360" y="-231" font-family="Helvetica,sans-Serif" font-size="10.00">ComboBox</text>
</a>
</g>
</g>
<!-- Node1&#45;&gt;Node3 -->
<g id="edge2" class="edge"><title>Node1&#45;&gt;Node3</title>
<path fill="none" stroke="midnightblue" d="M122.764,-131.1C147.759,-152.788 197.113,-192.506 246,-214 252.576,-216.891 259.518,-219.462 266.597,-221.746"/>
<polygon fill="midnightblue" stroke="midnightblue" points="265.728,-225.14 276.314,-224.686 267.756,-218.44 265.728,-225.14"/>
</g>
<!-- Node4 -->
<g id="node4" class="node"><title>Node4</title>
<g id="a_node4"><a xlink:href="../../df/dec/class_front_end_1_1_view.html#a2812398b952d53cbb09f8e7823fca245" target="_top" xlink:title="FrontEnd.View.getLanguage\lSelector">
<polygon fill="white" stroke="black" points="285.5,-175 285.5,-205 434.5,-205 434.5,-175 285.5,-175"/>
<text text-anchor="start" x="293.5" y="-193" font-family="Helvetica,sans-Serif" font-size="10.00">FrontEnd.View.getLanguage</text>
<text text-anchor="middle" x="360" y="-182" font-family="Helvetica,sans-Serif" font-size="10.00">Selector</text>
</a>
</g>
</g>
<!-- Node1&#45;&gt;Node4 -->
<g id="edge3" class="edge"><title>Node1&#45;&gt;Node4</title>
<path fill="none" stroke="midnightblue" d="M145.125,-131.099C172.981,-141.502 211.448,-155.169 246,-165 255.494,-167.701 265.505,-170.286 275.485,-172.7"/>
<polygon fill="midnightblue" stroke="midnightblue" points="274.898,-176.158 285.435,-175.055 276.51,-169.346 274.898,-176.158"/>
</g>
<!-- Node5 -->
<g id="node5" class="node"><title>Node5</title>
<g id="a_node5"><a xlink:href="../../df/dec/class_front_end_1_1_view.html#a292087509c6e8a64a73dd9fbf1908864" target="_top" xlink:title="FrontEnd.View.getMyBackground\lColorBox">
<polygon fill="white" stroke="black" points="274,-126 274,-156 446,-156 446,-126 274,-126"/>
<text text-anchor="start" x="282" y="-144" font-family="Helvetica,sans-Serif" font-size="10.00">FrontEnd.View.getMyBackground</text>
<text text-anchor="middle" x="360" y="-133" font-family="Helvetica,sans-Serif" font-size="10.00">ColorBox</text>
</a>
</g>
</g>
<!-- Node1&#45;&gt;Node5 -->
<g id="edge4" class="edge"><title>Node1&#45;&gt;Node5</title>
<path fill="none" stroke="midnightblue" d="M210,-126.277C227.773,-128.033 246.159,-129.85 263.691,-131.582"/>
<polygon fill="midnightblue" stroke="midnightblue" points="263.609,-135.091 273.905,-132.591 264.298,-128.125 263.609,-135.091"/>
</g>
<!-- Node6 -->
<g id="node6" class="node"><title>Node6</title>
<g id="a_node6"><a xlink:href="../../df/dec/class_front_end_1_1_view.html#afb67db7e0871d4f5bba18624ce37df52" target="_top" xlink:title="FrontEnd.View.getMyTurtle\lImageBox">
<polygon fill="white" stroke="black" points="290,-77 290,-107 430,-107 430,-77 290,-77"/>
<text text-anchor="start" x="298" y="-95" font-family="Helvetica,sans-Serif" font-size="10.00">FrontEnd.View.getMyTurtle</text>
<text text-anchor="middle" x="360" y="-84" font-family="Helvetica,sans-Serif" font-size="10.00">ImageBox</text>
</a>
</g>
</g>
<!-- Node1&#45;&gt;Node6 -->
<g id="edge5" class="edge"><title>Node1&#45;&gt;Node6</title>
<path fill="none" stroke="midnightblue" d="M210,-106.134C233.283,-103.926 257.618,-101.617 279.709,-99.5217"/>
<polygon fill="midnightblue" stroke="midnightblue" points="280.065,-103.004 289.69,-98.5749 279.404,-96.035 280.065,-103.004"/>
</g>
<!-- Node7 -->
<g id="node7" class="node"><title>Node7</title>
<g id="a_node7"><a xlink:href="../../d8/da4/class_front_end_commands_1_1_load_workspace.html#a8d25efaea29f2543991a3efce2a1c0f6" target="_top" xlink:title="FrontEndCommands.LoadWorkspace.handle">
<polygon fill="white" stroke="black" points="246.5,-38.5 246.5,-57.5 473.5,-57.5 473.5,-38.5 246.5,-38.5"/>
<text text-anchor="middle" x="360" y="-45.5" font-family="Helvetica,sans-Serif" font-size="10.00">FrontEndCommands.LoadWorkspace.handle</text>
</a>
</g>
</g>
<!-- Node1&#45;&gt;Node7 -->
<g id="edge6" class="edge"><title>Node1&#45;&gt;Node7</title>
<path fill="none" stroke="midnightblue" d="M127.983,-100.955C153.418,-88.6179 196.97,-72.3893 241.934,-60.1564"/>
<polygon fill="midnightblue" stroke="midnightblue" points="243.077,-63.4745 251.848,-57.5313 241.285,-56.7077 243.077,-63.4745"/>
</g>
<!-- Node8 -->
<g id="node8" class="node"><title>Node8</title>
<g id="a_node8"><a xlink:href="../../df/dec/class_front_end_1_1_view.html#aba848cd44a4726c74dc85535f0c5722d" target="_top" xlink:title="FrontEnd.View.makeErrorDialog">
<polygon fill="white" stroke="black" points="277,-0.5 277,-19.5 443,-19.5 443,-0.5 277,-0.5"/>
<text text-anchor="middle" x="360" y="-7.5" font-family="Helvetica,sans-Serif" font-size="10.00">FrontEnd.View.makeErrorDialog</text>
</a>
</g>
</g>
<!-- Node1&#45;&gt;Node8 -->
<g id="edge8" class="edge"><title>Node1&#45;&gt;Node8</title>
<path fill="none" stroke="midnightblue" d="M125.109,-100.699C150.934,-80.8575 199.155,-46.7026 246,-29 253.262,-26.2558 260.936,-23.9067 268.727,-21.8961"/>
<polygon fill="midnightblue" stroke="midnightblue" points="269.725,-25.2562 278.636,-19.526 268.096,-18.4482 269.725,-25.2562"/>
</g>
<!-- Node7&#45;&gt;Node1 -->
<g id="edge7" class="edge"><title>Node7&#45;&gt;Node1</title>
<path fill="none" stroke="midnightblue" d="M337.122,-57.5642C314.2,-63.0641 277.25,-68.9294 246,-77 223.354,-82.8487 199.111,-90.607 177.271,-97.7729"/>
<polygon fill="midnightblue" stroke="midnightblue" points="176.151,-94.4568 167.746,-100.907 178.339,-101.106 176.151,-94.4568"/>
</g>
</g>
</svg>
