<?xml version="1.0" encoding="UTF-8" standalone="no"?>
<!DOCTYPE svg PUBLIC "-//W3C//DTD SVG 1.1//EN"
 "http://www.w3.org/Graphics/SVG/1.1/DTD/svg11.dtd">
<!-- Generated by graphviz version 2.36.0 (20140111.2315)
 -->
<!-- Title: FrontEndCommands.LoadWorkspace.handle Pages: 1 -->
<svg width="482pt" height="87pt"
 viewBox="0.00 0.00 482.00 87.00" xmlns="http://www.w3.org/2000/svg" xmlns:xlink="http://www.w3.org/1999/xlink">
<g id="graph0" class="graph" transform="scale(1 1) rotate(0) translate(4 83)">
<title>FrontEndCommands.LoadWorkspace.handle</title>
<polygon fill="white" stroke="none" points="-4,4 -4,-83 478,-83 478,4 -4,4"/>
<!-- Node1 -->
<g id="node1" class="node"><title>Node1</title>
<polygon fill="#bfbfbf" stroke="black" points="0.5,-54.5 0.5,-73.5 227.5,-73.5 227.5,-54.5 0.5,-54.5"/>
<text text-anchor="middle" x="114" y="-61.5" font-family="Helvetica,sans-Serif" font-size="10.00">FrontEndCommands.LoadWorkspace.handle</text>
</g>
<!-- Node2 -->
<g id="node2" class="node"><title>Node2</title>
<g id="a_node2"><a xlink:href="../../d8/da4/class_front_end_commands_1_1_load_workspace.html#a085f7d78419f925a9cb7832f575cf221" target="_top" xlink:title="FrontEndCommands.LoadWorkspace.get\lSettingsFromFile">
<polygon fill="white" stroke="black" points="264,-49 264,-79 474,-79 474,-49 264,-49"/>
<text text-anchor="start" x="272" y="-67" font-family="Helvetica,sans-Serif" font-size="10.00">FrontEndCommands.LoadWorkspace.get</text>
<text text-anchor="middle" x="369" y="-56" font-family="Helvetica,sans-Serif" font-size="10.00">SettingsFromFile</text>
</a>
</g>
</g>
<!-- Node1&#45;&gt;Node2 -->
<g id="edge1" class="edge"><title>Node1&#45;&gt;Node2</title>
<path fill="none" stroke="midnightblue" d="M237.959,-57.2524C246.62,-57.2408 255.303,-57.2716 263.845,-57.3445"/>
<polygon fill="midnightblue" stroke="midnightblue" points="237.8,-53.7527 227.811,-57.2853 237.823,-60.7527 237.8,-53.7527"/>
</g>
<!-- Node3 -->
<g id="node3" class="node"><title>Node3</title>
<g id="a_node3"><a xlink:href="../../d8/da4/class_front_end_commands_1_1_load_workspace.html#ac3c90bf92d48930f076d277acd611bfc" target="_top" xlink:title="FrontEndCommands.LoadWorkspace.\lLoadWorkspace">
<polygon fill="white" stroke="black" points="272,-0 272,-30 466,-30 466,-0 272,-0"/>
<text text-anchor="start" x="280" y="-18" font-family="Helvetica,sans-Serif" font-size="10.00">FrontEndCommands.LoadWorkspace.</text>
<text text-anchor="middle" x="369" y="-7" font-family="Helvetica,sans-Serif" font-size="10.00">LoadWorkspace</text>
</a>
</g>
</g>
<!-- Node1&#45;&gt;Node3 -->
<g id="edge3" class="edge"><title>Node1&#45;&gt;Node3</title>
<path fill="none" stroke="midnightblue" d="M174.035,-52.5664C208.639,-45.8644 252.764,-37.3184 290.183,-30.0713"/>
<polygon fill="midnightblue" stroke="midnightblue" points="173.233,-49.1566 164.081,-54.4942 174.564,-56.0289 173.233,-49.1566"/>
</g>
<!-- Node2&#45;&gt;Node1 -->
<g id="edge2" class="edge"><title>Node2&#45;&gt;Node1</title>
<path fill="none" stroke="midnightblue" d="M253.762,-70.7217C245.134,-70.7616 236.43,-70.7593 227.811,-70.7147"/>
<polygon fill="midnightblue" stroke="midnightblue" points="253.868,-74.2212 263.845,-70.6555 253.822,-67.2214 253.868,-74.2212"/>
</g>
</g>
</svg>
