<?xml version="1.0" encoding="UTF-8" standalone="no"?>
<!DOCTYPE svg PUBLIC "-//W3C//DTD SVG 1.1//EN"
 "http://www.w3.org/Graphics/SVG/1.1/DTD/svg11.dtd">
<!-- Generated by graphviz version 2.36.0 (20140111.2315)
 -->
<!-- Title: Nodes.Node Pages: 1 -->
<svg width="169pt" height="96pt"
 viewBox="0.00 0.00 169.00 96.00" xmlns="http://www.w3.org/2000/svg" xmlns:xlink="http://www.w3.org/1999/xlink">
<g id="graph0" class="graph" transform="scale(1 1) rotate(0) translate(4 92)">
<title>Nodes.Node</title>
<polygon fill="white" stroke="none" points="-4,4 -4,-92 165,-92 165,4 -4,4"/>
<!-- Node1 -->
<g id="node1" class="node"><title>Node1</title>
<polygon fill="#bfbfbf" stroke="black" points="32,-0.5 32,-19.5 108,-19.5 108,-0.5 32,-0.5"/>
<text text-anchor="middle" x="70" y="-7.5" font-family="Helvetica,sans-Serif" font-size="10.00">Nodes.Node</text>
</g>
<!-- Node1&#45;&gt;Node1 -->
<g id="edge2" class="edge"><title>Node1&#45;&gt;Node1</title>
<path fill="none" stroke="#9a32cd" stroke-dasharray="5,2" d="M118.289,-15.1765C123.006,-14.1327 126,-12.4072 126,-10 126,-6.14844 118.335,-4.04211 108.214,-3.68103"/>
<polygon fill="#9a32cd" stroke="#9a32cd" points="117.756,-11.7144 108.214,-16.319 118.545,-18.6698 117.756,-11.7144"/>
<text text-anchor="middle" x="143.5" y="-7.5" font-family="Helvetica,sans-Serif" font-size="10.00"> parent</text>
</g>
<!-- Node2 -->
<g id="node2" class="node"><title>Node2</title>
<polygon fill="white" stroke="#bfbfbf" points="0,-68.5 0,-87.5 140,-87.5 140,-68.5 0,-68.5"/>
<text text-anchor="middle" x="70" y="-75.5" font-family="Helvetica,sans-Serif" font-size="10.00">ArrayList&lt; Nodes.Node &gt;</text>
</g>
<!-- Node2&#45;&gt;Node1 -->
<g id="edge1" class="edge"><title>Node2&#45;&gt;Node1</title>
<path fill="none" stroke="#9a32cd" stroke-dasharray="5,2" d="M70,-58.0413C70,-45.4724 70,-29.5631 70,-19.8411"/>
<polygon fill="#9a32cd" stroke="#9a32cd" points="66.5001,-58.3716 70,-68.3717 73.5001,-58.3717 66.5001,-58.3716"/>
<text text-anchor="middle" x="99" y="-41.5" font-family="Helvetica,sans-Serif" font-size="10.00"> myChildren</text>
</g>
</g>
</svg>
