<?xml version="1.0" encoding="UTF-8" standalone="no"?>
<!DOCTYPE svg PUBLIC "-//W3C//DTD SVG 1.1//EN"
 "http://www.w3.org/Graphics/SVG/1.1/DTD/svg11.dtd">
<!-- Generated by graphviz version 2.36.0 (20140111.2315)
 -->
<!-- Title: Nodes.math.MathNode Pages: 1 -->
<!--zoomable 522 -->
<svg id="main" version="1.1" xmlns="http://www.w3.org/2000/svg" xmlns:xlink="http://www.w3.org/1999/xlink" xml:space="preserve" onload="init(evt)">
<style type="text/css"><![CDATA[
.edge:hover path { stroke: red; }
.edge:hover polygon { stroke: red; fill: red; }
]]></style>
<script type="text/javascript"><![CDATA[
var edges = document.getElementsByTagName('g');
if (edges && edges.length) {
  for (var i=0;i<edges.length;i++) {
    if (edges[i].id.substr(0,4)=='edge') {
      edges[i].setAttribute('class','edge');
    }
  }
}
]]></script>
        <defs>
                <circle id="rim" cx="0" cy="0" r="7"/>
                <circle id="rim2" cx="0" cy="0" r="3.5"/>
                <g id="zoomPlus">
                        <use xlink:href="#rim" fill="#404040">
                                <set attributeName="fill" to="#808080" begin="zoomplus.mouseover" end="zoomplus.mouseout"/>
                        </use>
                        <path d="M-4,0h8M0,-4v8" fill="none" stroke="white" stroke-width="1.5" pointer-events="none"/>
                </g>
                <g id="zoomMin">
                        <use xlink:href="#rim" fill="#404040">
                                <set attributeName="fill" to="#808080" begin="zoomminus.mouseover" end="zoomminus.mouseout"/>
                        </use>
                        <path d="M-4,0h8" fill="none" stroke="white" stroke-width="1.5" pointer-events="none"/>
                </g>
                <g id="dirArrow">
                        <path fill="none" stroke="white" stroke-width="1.5" d="M0,-3.0v7 M-2.5,-0.5L0,-3.0L2.5,-0.5"/>
                </g>
               <g id="resetDef">
                       <use xlink:href="#rim2" fill="#404040">
                               <set attributeName="fill" to="#808080" begin="reset.mouseover" end="reset.mouseout"/>
                       </use>
               </g>
        </defs>

<script type="text/javascript">
var viewWidth = 626;
var viewHeight = 522;
var sectionId = 'dynsection-0';
</script>
<script xlink:href="../../svgpan.js"/>
<svg id="graph" class="graph">
<g id="viewport">
<title>Nodes.math.MathNode</title>
<polygon fill="white" stroke="none" points="-4,4 -4,-518 622,-518 622,4 -4,4"/>
<!-- Node1 -->
<g id="node1" class="node"><title>Node1</title>
<polygon fill="#bfbfbf" stroke="black" points="112,-228.5 112,-247.5 240,-247.5 240,-228.5 112,-228.5"/>
<text text-anchor="middle" x="176" y="-235.5" font-family="Helvetica,sans-Serif" font-size="10.00">Nodes.math.MathNode</text>
</g>
<!-- Node3 -->
<g id="node3" class="node"><title>Node3</title>
<g id="a_node3"><a xlink:href="../../db/d09/class_nodes_1_1math_1_1_one_child_node.html" target="_top" xlink:title="Nodes.math.OneChildNode">
<polygon fill="white" stroke="black" points="276.5,-342.5 276.5,-361.5 423.5,-361.5 423.5,-342.5 276.5,-342.5"/>
<text text-anchor="middle" x="350" y="-349.5" font-family="Helvetica,sans-Serif" font-size="10.00">Nodes.math.OneChildNode</text>
</a>
</g>
</g>
<!-- Node1&#45;&gt;Node3 -->
<g id="edge2" class="edge"><title>Node1&#45;&gt;Node3</title>
<path fill="none" stroke="midnightblue" d="M199.732,-253.067C235.581,-276.827 304.255,-322.344 334.308,-342.262"/>
<polygon fill="midnightblue" stroke="midnightblue" points="201.638,-250.131 191.369,-247.523 197.771,-255.966 201.638,-250.131"/>
</g>
<!-- Node12 -->
<g id="node12" class="node"><title>Node12</title>
<g id="a_node12"><a xlink:href="../../d8/dd4/class_nodes_1_1math_1_1_pi_node.html" target="_top" xlink:title="Nodes.math.PiNode">
<polygon fill="white" stroke="black" points="293.5,-228.5 293.5,-247.5 406.5,-247.5 406.5,-228.5 293.5,-228.5"/>
<text text-anchor="middle" x="350" y="-235.5" font-family="Helvetica,sans-Serif" font-size="10.00">Nodes.math.PiNode</text>
</a>
</g>
</g>
<!-- Node1&#45;&gt;Node12 -->
<g id="edge11" class="edge"><title>Node1&#45;&gt;Node12</title>
<path fill="none" stroke="midnightblue" d="M250.426,-238C264.797,-238 279.647,-238 293.324,-238"/>
<polygon fill="midnightblue" stroke="midnightblue" points="250.07,-234.5 240.07,-238 250.07,-241.5 250.07,-234.5"/>
</g>
<!-- Node13 -->
<g id="node13" class="node"><title>Node13</title>
<g id="a_node13"><a xlink:href="../../d9/d91/class_nodes_1_1math_1_1_two_child_node.html" target="_top" xlink:title="Nodes.math.TwoChildNode">
<polygon fill="white" stroke="black" points="278,-114.5 278,-133.5 422,-133.5 422,-114.5 278,-114.5"/>
<text text-anchor="middle" x="350" y="-121.5" font-family="Helvetica,sans-Serif" font-size="10.00">Nodes.math.TwoChildNode</text>
</a>
</g>
</g>
<!-- Node1&#45;&gt;Node13 -->
<g id="edge12" class="edge"><title>Node1&#45;&gt;Node13</title>
<path fill="none" stroke="midnightblue" d="M199.732,-222.933C235.581,-199.173 304.255,-153.656 334.308,-133.738"/>
<polygon fill="midnightblue" stroke="midnightblue" points="197.771,-220.034 191.369,-228.477 201.638,-225.869 197.771,-220.034"/>
</g>
<!-- Node2 -->
<g id="node2" class="node"><title>Node2</title>
<g id="a_node2"><a xlink:href="../../df/dac/class_nodes_1_1_node.html" target="_top" xlink:title="Nodes.Node">
<polygon fill="white" stroke="black" points="0,-228.5 0,-247.5 76,-247.5 76,-228.5 0,-228.5"/>
<text text-anchor="middle" x="38" y="-235.5" font-family="Helvetica,sans-Serif" font-size="10.00">Nodes.Node</text>
</a>
</g>
</g>
<!-- Node2&#45;&gt;Node1 -->
<g id="edge1" class="edge"><title>Node2&#45;&gt;Node1</title>
<path fill="none" stroke="midnightblue" d="M86.3639,-238C94.641,-238 103.369,-238 111.989,-238"/>
<polygon fill="midnightblue" stroke="midnightblue" points="86.1626,-234.5 76.1626,-238 86.1626,-241.5 86.1626,-234.5"/>
</g>
<!-- Node4 -->
<g id="node4" class="node"><title>Node4</title>
<g id="a_node4"><a xlink:href="../../d7/d6c/class_nodes_1_1math_1_1_arc_tangent_node.html" target="_top" xlink:title="Nodes.math.ArcTangentNode">
<polygon fill="white" stroke="black" points="460,-494.5 460,-513.5 618,-513.5 618,-494.5 460,-494.5"/>
<text text-anchor="middle" x="539" y="-501.5" font-family="Helvetica,sans-Serif" font-size="10.00">Nodes.math.ArcTangentNode</text>
</a>
</g>
</g>
<!-- Node3&#45;&gt;Node4 -->
<g id="edge3" class="edge"><title>Node3&#45;&gt;Node4</title>
<path fill="none" stroke="midnightblue" d="M360.935,-370.617C377.467,-399.728 413.46,-455.719 460,-485 466.134,-488.86 472.995,-491.935 480.034,-494.386"/>
<polygon fill="midnightblue" stroke="midnightblue" points="363.99,-368.909 356.087,-361.852 357.864,-372.297 363.99,-368.909"/>
</g>
<!-- Node5 -->
<g id="node5" class="node"><title>Node5</title>
<g id="a_node5"><a xlink:href="../../db/dd0/class_nodes_1_1math_1_1_cosine_node.html" target="_top" xlink:title="Nodes.math.CosineNode">
<polygon fill="white" stroke="black" points="470.5,-456.5 470.5,-475.5 607.5,-475.5 607.5,-456.5 470.5,-456.5"/>
<text text-anchor="middle" x="539" y="-463.5" font-family="Helvetica,sans-Serif" font-size="10.00">Nodes.math.CosineNode</text>
</a>
</g>
</g>
<!-- Node3&#45;&gt;Node5 -->
<g id="edge4" class="edge"><title>Node3&#45;&gt;Node5</title>
<path fill="none" stroke="midnightblue" d="M366.072,-369.503C385.574,-391.022 421.628,-427.125 460,-447 467.426,-450.846 475.655,-453.933 483.904,-456.405"/>
<polygon fill="midnightblue" stroke="midnightblue" points="368.469,-366.932 359.213,-361.776 363.234,-371.579 368.469,-366.932"/>
</g>
<!-- Node6 -->
<g id="node6" class="node"><title>Node6</title>
<g id="a_node6"><a xlink:href="../../d7/d4b/class_nodes_1_1math_1_1_log_node.html" target="_top" xlink:title="Nodes.math.LogNode">
<polygon fill="white" stroke="black" points="478,-418.5 478,-437.5 600,-437.5 600,-418.5 478,-418.5"/>
<text text-anchor="middle" x="539" y="-425.5" font-family="Helvetica,sans-Serif" font-size="10.00">Nodes.math.LogNode</text>
</a>
</g>
</g>
<!-- Node3&#45;&gt;Node6 -->
<g id="edge5" class="edge"><title>Node3&#45;&gt;Node6</title>
<path fill="none" stroke="midnightblue" d="M375.125,-366.801C396.704,-379.501 429.538,-397.521 460,-409 469.782,-412.686 480.527,-415.843 490.831,-418.465"/>
<polygon fill="midnightblue" stroke="midnightblue" points="376.709,-363.67 366.329,-361.55 373.121,-369.681 376.709,-363.67"/>
</g>
<!-- Node7 -->
<g id="node7" class="node"><title>Node7</title>
<g id="a_node7"><a xlink:href="../../d0/d4a/class_nodes_1_1math_1_1_minus_node.html" target="_top" xlink:title="Nodes.math.MinusNode">
<polygon fill="white" stroke="black" points="473,-380.5 473,-399.5 605,-399.5 605,-380.5 473,-380.5"/>
<text text-anchor="middle" x="539" y="-387.5" font-family="Helvetica,sans-Serif" font-size="10.00">Nodes.math.MinusNode</text>
</a>
</g>
</g>
<!-- Node3&#45;&gt;Node7 -->
<g id="edge6" class="edge"><title>Node3&#45;&gt;Node7</title>
<path fill="none" stroke="midnightblue" d="M408.131,-363.61C434.727,-369.014 465.973,-375.364 491.151,-380.48"/>
<polygon fill="midnightblue" stroke="midnightblue" points="408.685,-360.151 398.188,-361.589 407.291,-367.01 408.685,-360.151"/>
</g>
<!-- Node8 -->
<g id="node8" class="node"><title>Node8</title>
<g id="a_node8"><a xlink:href="../../d3/d6f/class_nodes_1_1math_1_1_natural_log_node.html" target="_top" xlink:title="Nodes.math.NaturalLogNode">
<polygon fill="white" stroke="black" points="460.5,-342.5 460.5,-361.5 617.5,-361.5 617.5,-342.5 460.5,-342.5"/>
<text text-anchor="middle" x="539" y="-349.5" font-family="Helvetica,sans-Serif" font-size="10.00">Nodes.math.NaturalLogNode</text>
</a>
</g>
</g>
<!-- Node3&#45;&gt;Node8 -->
<g id="edge7" class="edge"><title>Node3&#45;&gt;Node8</title>
<path fill="none" stroke="midnightblue" d="M433.798,-352C442.58,-352 451.489,-352 460.21,-352"/>
<polygon fill="midnightblue" stroke="midnightblue" points="433.567,-348.5 423.567,-352 433.567,-355.5 433.567,-348.5"/>
</g>
<!-- Node9 -->
<g id="node9" class="node"><title>Node9</title>
<g id="a_node9"><a xlink:href="../../d7/dc2/class_nodes_1_1math_1_1_random_node.html" target="_top" xlink:title="Nodes.math.RandomNode">
<polygon fill="white" stroke="black" points="467,-304.5 467,-323.5 611,-323.5 611,-304.5 467,-304.5"/>
<text text-anchor="middle" x="539" y="-311.5" font-family="Helvetica,sans-Serif" font-size="10.00">Nodes.math.RandomNode</text>
</a>
</g>
</g>
<!-- Node3&#45;&gt;Node9 -->
<g id="edge8" class="edge"><title>Node3&#45;&gt;Node9</title>
<path fill="none" stroke="midnightblue" d="M408.131,-340.39C434.727,-334.986 465.973,-328.636 491.151,-323.52"/>
<polygon fill="midnightblue" stroke="midnightblue" points="407.291,-336.99 398.188,-342.411 408.685,-343.849 407.291,-336.99"/>
</g>
<!-- Node10 -->
<g id="node10" class="node"><title>Node10</title>
<g id="a_node10"><a xlink:href="../../dd/dd8/class_nodes_1_1math_1_1_sine_node.html" target="_top" xlink:title="Nodes.math.SineNode">
<polygon fill="white" stroke="black" points="476.5,-266.5 476.5,-285.5 601.5,-285.5 601.5,-266.5 476.5,-266.5"/>
<text text-anchor="middle" x="539" y="-273.5" font-family="Helvetica,sans-Serif" font-size="10.00">Nodes.math.SineNode</text>
</a>
</g>
</g>
<!-- Node3&#45;&gt;Node10 -->
<g id="edge9" class="edge"><title>Node3&#45;&gt;Node10</title>
<path fill="none" stroke="midnightblue" d="M375.125,-337.199C396.704,-324.499 429.538,-306.479 460,-295 469.782,-291.314 480.527,-288.157 490.831,-285.535"/>
<polygon fill="midnightblue" stroke="midnightblue" points="373.121,-334.319 366.329,-342.45 376.709,-340.33 373.121,-334.319"/>
</g>
<!-- Node11 -->
<g id="node11" class="node"><title>Node11</title>
<g id="a_node11"><a xlink:href="../../d3/d68/class_nodes_1_1math_1_1_tangent_node.html" target="_top" xlink:title="Nodes.math.TangentNode">
<polygon fill="white" stroke="black" points="468,-228.5 468,-247.5 610,-247.5 610,-228.5 468,-228.5"/>
<text text-anchor="middle" x="539" y="-235.5" font-family="Helvetica,sans-Serif" font-size="10.00">Nodes.math.TangentNode</text>
</a>
</g>
</g>
<!-- Node3&#45;&gt;Node11 -->
<g id="edge10" class="edge"><title>Node3&#45;&gt;Node11</title>
<path fill="none" stroke="midnightblue" d="M366.072,-334.497C385.574,-312.978 421.628,-276.875 460,-257 467.426,-253.154 475.655,-250.067 483.904,-247.595"/>
<polygon fill="midnightblue" stroke="midnightblue" points="363.234,-332.421 359.213,-342.224 368.469,-337.068 363.234,-332.421"/>
</g>
<!-- Node14 -->
<g id="node14" class="node"><title>Node14</title>
<g id="a_node14"><a xlink:href="../../d4/de2/class_nodes_1_1math_1_1_difference_node.html" target="_top" xlink:title="Nodes.math.DifferenceNode">
<polygon fill="white" stroke="black" points="462.5,-190.5 462.5,-209.5 615.5,-209.5 615.5,-190.5 462.5,-190.5"/>
<text text-anchor="middle" x="539" y="-197.5" font-family="Helvetica,sans-Serif" font-size="10.00">Nodes.math.DifferenceNode</text>
</a>
</g>
</g>
<!-- Node13&#45;&gt;Node14 -->
<g id="edge13" class="edge"><title>Node13&#45;&gt;Node14</title>
<path fill="none" stroke="midnightblue" d="M375.125,-138.801C396.704,-151.501 429.538,-169.521 460,-181 469.782,-184.686 480.527,-187.843 490.831,-190.465"/>
<polygon fill="midnightblue" stroke="midnightblue" points="376.709,-135.67 366.329,-133.55 373.121,-141.681 376.709,-135.67"/>
</g>
<!-- Node15 -->
<g id="node15" class="node"><title>Node15</title>
<g id="a_node15"><a xlink:href="../../db/d10/class_nodes_1_1math_1_1_power_node.html" target="_top" xlink:title="Nodes.math.PowerNode">
<polygon fill="white" stroke="black" points="472.5,-152.5 472.5,-171.5 605.5,-171.5 605.5,-152.5 472.5,-152.5"/>
<text text-anchor="middle" x="539" y="-159.5" font-family="Helvetica,sans-Serif" font-size="10.00">Nodes.math.PowerNode</text>
</a>
</g>
</g>
<!-- Node13&#45;&gt;Node15 -->
<g id="edge14" class="edge"><title>Node13&#45;&gt;Node15</title>
<path fill="none" stroke="midnightblue" d="M408.131,-135.61C434.727,-141.014 465.973,-147.364 491.151,-152.48"/>
<polygon fill="midnightblue" stroke="midnightblue" points="408.685,-132.151 398.188,-133.589 407.291,-139.01 408.685,-132.151"/>
</g>
<!-- Node16 -->
<g id="node16" class="node"><title>Node16</title>
<g id="a_node16"><a xlink:href="../../d8/d52/class_nodes_1_1math_1_1_product_node.html" target="_top" xlink:title="Nodes.math.ProductNode">
<polygon fill="white" stroke="black" points="468.5,-114.5 468.5,-133.5 609.5,-133.5 609.5,-114.5 468.5,-114.5"/>
<text text-anchor="middle" x="539" y="-121.5" font-family="Helvetica,sans-Serif" font-size="10.00">Nodes.math.ProductNode</text>
</a>
</g>
</g>
<!-- Node13&#45;&gt;Node16 -->
<g id="edge15" class="edge"><title>Node13&#45;&gt;Node16</title>
<path fill="none" stroke="midnightblue" d="M432.579,-124C444.454,-124 456.59,-124 468.204,-124"/>
<polygon fill="midnightblue" stroke="midnightblue" points="432.23,-120.5 422.23,-124 432.23,-127.5 432.23,-120.5"/>
</g>
<!-- Node17 -->
<g id="node17" class="node"><title>Node17</title>
<g id="a_node17"><a xlink:href="../../df/d7f/class_nodes_1_1math_1_1_quotient_node.html" target="_top" xlink:title="Nodes.math.QuotientNode">
<polygon fill="white" stroke="black" points="466,-76.5 466,-95.5 612,-95.5 612,-76.5 466,-76.5"/>
<text text-anchor="middle" x="539" y="-83.5" font-family="Helvetica,sans-Serif" font-size="10.00">Nodes.math.QuotientNode</text>
</a>
</g>
</g>
<!-- Node13&#45;&gt;Node17 -->
<g id="edge16" class="edge"><title>Node13&#45;&gt;Node17</title>
<path fill="none" stroke="midnightblue" d="M408.131,-112.39C434.727,-106.986 465.973,-100.636 491.151,-95.5201"/>
<polygon fill="midnightblue" stroke="midnightblue" points="407.291,-108.99 398.188,-114.411 408.685,-115.849 407.291,-108.99"/>
</g>
<!-- Node18 -->
<g id="node18" class="node"><title>Node18</title>
<g id="a_node18"><a xlink:href="../../d9/db0/class_nodes_1_1math_1_1_remainder_node.html" target="_top" xlink:title="Nodes.math.RemainderNode">
<polygon fill="white" stroke="black" points="461.5,-38.5 461.5,-57.5 616.5,-57.5 616.5,-38.5 461.5,-38.5"/>
<text text-anchor="middle" x="539" y="-45.5" font-family="Helvetica,sans-Serif" font-size="10.00">Nodes.math.RemainderNode</text>
</a>
</g>
</g>
<!-- Node13&#45;&gt;Node18 -->
<g id="edge17" class="edge"><title>Node13&#45;&gt;Node18</title>
<path fill="none" stroke="midnightblue" d="M375.125,-109.199C396.704,-96.4991 429.538,-78.4795 460,-67 469.782,-63.3139 480.527,-60.1568 490.831,-57.5352"/>
<polygon fill="midnightblue" stroke="midnightblue" points="373.121,-106.319 366.329,-114.45 376.709,-112.33 373.121,-106.319"/>
</g>
<!-- Node19 -->
<g id="node19" class="node"><title>Node19</title>
<g id="a_node19"><a xlink:href="../../d5/d6c/class_nodes_1_1math_1_1_sum_node.html" target="_top" xlink:title="Nodes.math.SumNode">
<polygon fill="white" stroke="black" points="475.5,-0.5 475.5,-19.5 602.5,-19.5 602.5,-0.5 475.5,-0.5"/>
<text text-anchor="middle" x="539" y="-7.5" font-family="Helvetica,sans-Serif" font-size="10.00">Nodes.math.SumNode</text>
</a>
</g>
</g>
<!-- Node13&#45;&gt;Node19 -->
<g id="edge18" class="edge"><title>Node13&#45;&gt;Node19</title>
<path fill="none" stroke="midnightblue" d="M366.072,-106.497C385.574,-84.9783 421.628,-48.8747 460,-29 467.426,-25.1539 475.655,-22.0669 483.904,-19.5945"/>
<polygon fill="midnightblue" stroke="midnightblue" points="363.234,-104.421 359.213,-114.224 368.469,-109.068 363.234,-104.421"/>
</g>
</g>
</svg>
        <g id="navigator" transform="translate(0 0)" fill="#404254">
                <rect fill="#f2f5e9" fill-opacity="0.5" stroke="#606060" stroke-width=".5" x="0" y="0" width="60" height="60"/>
                <use id="zoomplus" xlink:href="#zoomPlus" x="17" y="9" onmousedown="handleZoom(evt,'in')"/>
                <use id="zoomminus" xlink:href="#zoomMin" x="42" y="9" onmousedown="handleZoom(evt,'out')"/>
                <use id="reset" xlink:href="#resetDef" x="30" y="36" onmousedown="handleReset()"/>
                <g id="arrowUp" xlink:href="#dirArrow" transform="translate(30 24)" onmousedown="handlePan(0,-1)">
                  <use xlink:href="#rim" fill="#404040">
                        <set attributeName="fill" to="#808080" begin="arrowUp.mouseover" end="arrowUp.mouseout"/>
                  </use>
                  <path fill="none" stroke="white" stroke-width="1.5" d="M0,-3.0v7 M-2.5,-0.5L0,-3.0L2.5,-0.5"/>
                </g>
                <g id="arrowRight" xlink:href="#dirArrow" transform="rotate(90) translate(36 -43)" onmousedown="handlePan(1,0)">
                  <use xlink:href="#rim" fill="#404040">
                        <set attributeName="fill" to="#808080" begin="arrowRight.mouseover" end="arrowRight.mouseout"/>
                  </use>
                  <path fill="none" stroke="white" stroke-width="1.5" d="M0,-3.0v7 M-2.5,-0.5L0,-3.0L2.5,-0.5"/>
                </g>
                <g id="arrowDown" xlink:href="#dirArrow" transform="rotate(180) translate(-30 -48)" onmousedown="handlePan(0,1)">
                  <use xlink:href="#rim" fill="#404040">
                        <set attributeName="fill" to="#808080" begin="arrowDown.mouseover" end="arrowDown.mouseout"/>
                  </use>
                  <path fill="none" stroke="white" stroke-width="1.5" d="M0,-3.0v7 M-2.5,-0.5L0,-3.0L2.5,-0.5"/>
                </g>
                <g id="arrowLeft" xlink:href="#dirArrow" transform="rotate(270) translate(-36 17)" onmousedown="handlePan(-1,0)">
                  <use xlink:href="#rim" fill="#404040">
                        <set attributeName="fill" to="#808080" begin="arrowLeft.mouseover" end="arrowLeft.mouseout"/>
                  </use>
                  <path fill="none" stroke="white" stroke-width="1.5" d="M0,-3.0v7 M-2.5,-0.5L0,-3.0L2.5,-0.5"/>
                </g>
        </g>
        <svg viewBox="0 0 15 15" width="100%" height="30px" preserveAspectRatio="xMaxYMin meet">
         <g id="arrow_out" transform="scale(0.3 0.3)">
          <a xlink:href="class_nodes_1_1math_1_1_math_node__inherit__graph_org.svg" target="_base">
           <rect id="button" ry="5" rx="5" y="6" x="6" height="38" width="38"
                fill="#f2f5e9" fill-opacity="0.5" stroke="#606060" stroke-width="1.0"/>
           <path id="arrow"
             d="M 11.500037,31.436501 C 11.940474,20.09759 22.043105,11.32322 32.158766,21.979434 L 37.068811,17.246167 C 37.068811,17.246167 37.088388,32 37.088388,32 L 22.160133,31.978069 C 22.160133,31.978069 26.997745,27.140456 26.997745,27.140456 C 18.528582,18.264221 13.291696,25.230495 11.500037,31.436501 z"
             style="fill:#404040;"/>
          </a>
         </g>
        </svg>
</svg>
