<?xml version="1.0" encoding="UTF-8" standalone="no"?>
<!DOCTYPE svg PUBLIC "-//W3C//DTD SVG 1.1//EN"
 "http://www.w3.org/Graphics/SVG/1.1/DTD/svg11.dtd">
<!-- Generated by graphviz version 2.36.0 (20140111.2315)
 -->
<!-- Title: Nodes.math.OneChildNode Pages: 1 -->
<!--zoomable 294 -->
<svg id="main" version="1.1" xmlns="http://www.w3.org/2000/svg" xmlns:xlink="http://www.w3.org/1999/xlink" xml:space="preserve" onload="init(evt)">
<style type="text/css"><![CDATA[
.edge:hover path { stroke: red; }
.edge:hover polygon { stroke: red; fill: red; }
]]></style>
<script type="text/javascript"><![CDATA[
var edges = document.getElementsByTagName('g');
if (edges && edges.length) {
  for (var i=0;i<edges.length;i++) {
    if (edges[i].id.substr(0,4)=='edge') {
      edges[i].setAttribute('class','edge');
    }
  }
}
]]></script>
        <defs>
                <circle id="rim" cx="0" cy="0" r="7"/>
                <circle id="rim2" cx="0" cy="0" r="3.5"/>
                <g id="zoomPlus">
                        <use xlink:href="#rim" fill="#404040">
                                <set attributeName="fill" to="#808080" begin="zoomplus.mouseover" end="zoomplus.mouseout"/>
                        </use>
                        <path d="M-4,0h8M0,-4v8" fill="none" stroke="white" stroke-width="1.5" pointer-events="none"/>
                </g>
                <g id="zoomMin">
                        <use xlink:href="#rim" fill="#404040">
                                <set attributeName="fill" to="#808080" begin="zoomminus.mouseover" end="zoomminus.mouseout"/>
                        </use>
                        <path d="M-4,0h8" fill="none" stroke="white" stroke-width="1.5" pointer-events="none"/>
                </g>
                <g id="dirArrow">
                        <path fill="none" stroke="white" stroke-width="1.5" d="M0,-3.0v7 M-2.5,-0.5L0,-3.0L2.5,-0.5"/>
                </g>
               <g id="resetDef">
                       <use xlink:href="#rim2" fill="#404040">
                               <set attributeName="fill" to="#808080" begin="reset.mouseover" end="reset.mouseout"/>
                       </use>
               </g>
        </defs>

<script type="text/javascript">
var viewWidth = 626;
var viewHeight = 294;
var sectionId = 'dynsection-0';
</script>
<script xlink:href="../../svgpan.js"/>
<svg id="graph" class="graph">
<g id="viewport">
<title>Nodes.math.OneChildNode</title>
<polygon fill="white" stroke="none" points="-4,4 -4,-290 622,-290 622,4 -4,4"/>
<!-- Node1 -->
<g id="node1" class="node"><title>Node1</title>
<polygon fill="#bfbfbf" stroke="black" points="276.5,-133.5 276.5,-152.5 423.5,-152.5 423.5,-133.5 276.5,-133.5"/>
<text text-anchor="middle" x="350" y="-140.5" font-family="Helvetica,sans-Serif" font-size="10.00">Nodes.math.OneChildNode</text>
</g>
<!-- Node4 -->
<g id="node4" class="node"><title>Node4</title>
<g id="a_node4"><a xlink:href="../../d7/d6c/class_nodes_1_1math_1_1_arc_tangent_node.html" target="_top" xlink:title="Nodes.math.ArcTangentNode">
<polygon fill="white" stroke="black" points="460,-266.5 460,-285.5 618,-285.5 618,-266.5 460,-266.5"/>
<text text-anchor="middle" x="539" y="-273.5" font-family="Helvetica,sans-Serif" font-size="10.00">Nodes.math.ArcTangentNode</text>
</a>
</g>
</g>
<!-- Node1&#45;&gt;Node4 -->
<g id="edge3" class="edge"><title>Node1&#45;&gt;Node4</title>
<path fill="none" stroke="midnightblue" d="M363.124,-161.081C381.164,-186.519 417.543,-232.5 460,-257 466.76,-260.901 474.295,-264.005 481.943,-266.473"/>
<polygon fill="midnightblue" stroke="midnightblue" points="365.902,-158.944 357.331,-152.716 360.147,-162.929 365.902,-158.944"/>
</g>
<!-- Node5 -->
<g id="node5" class="node"><title>Node5</title>
<g id="a_node5"><a xlink:href="../../db/dd0/class_nodes_1_1math_1_1_cosine_node.html" target="_top" xlink:title="Nodes.math.CosineNode">
<polygon fill="white" stroke="black" points="470.5,-228.5 470.5,-247.5 607.5,-247.5 607.5,-228.5 470.5,-228.5"/>
<text text-anchor="middle" x="539" y="-235.5" font-family="Helvetica,sans-Serif" font-size="10.00">Nodes.math.CosineNode</text>
</a>
</g>
</g>
<!-- Node1&#45;&gt;Node5 -->
<g id="edge4" class="edge"><title>Node1&#45;&gt;Node5</title>
<path fill="none" stroke="midnightblue" d="M369.618,-159.25C390.328,-176.508 425.44,-203.404 460,-219 468.385,-222.784 477.63,-225.879 486.736,-228.39"/>
<polygon fill="midnightblue" stroke="midnightblue" points="371.808,-156.518 361.917,-152.72 367.281,-161.857 371.808,-156.518"/>
</g>
<!-- Node6 -->
<g id="node6" class="node"><title>Node6</title>
<g id="a_node6"><a xlink:href="../../d7/d4b/class_nodes_1_1math_1_1_log_node.html" target="_top" xlink:title="Nodes.math.LogNode">
<polygon fill="white" stroke="black" points="478,-190.5 478,-209.5 600,-209.5 600,-190.5 478,-190.5"/>
<text text-anchor="middle" x="539" y="-197.5" font-family="Helvetica,sans-Serif" font-size="10.00">Nodes.math.LogNode</text>
</a>
</g>
</g>
<!-- Node1&#45;&gt;Node6 -->
<g id="edge5" class="edge"><title>Node1&#45;&gt;Node6</title>
<path fill="none" stroke="midnightblue" d="M385.89,-156.128C407.145,-163.883 434.946,-173.6 460,-181 471.495,-184.395 484.07,-187.654 495.701,-190.484"/>
<polygon fill="midnightblue" stroke="midnightblue" points="386.915,-152.776 376.322,-152.608 384.498,-159.345 386.915,-152.776"/>
</g>
<!-- Node7 -->
<g id="node7" class="node"><title>Node7</title>
<g id="a_node7"><a xlink:href="../../d0/d4a/class_nodes_1_1math_1_1_minus_node.html" target="_top" xlink:title="Nodes.math.MinusNode">
<polygon fill="white" stroke="black" points="473,-152.5 473,-171.5 605,-171.5 605,-152.5 473,-152.5"/>
<text text-anchor="middle" x="539" y="-159.5" font-family="Helvetica,sans-Serif" font-size="10.00">Nodes.math.MinusNode</text>
</a>
</g>
</g>
<!-- Node1&#45;&gt;Node7 -->
<g id="edge6" class="edge"><title>Node1&#45;&gt;Node7</title>
<path fill="none" stroke="midnightblue" d="M433.544,-151.387C446.688,-152.722 460.125,-154.088 472.796,-155.375"/>
<polygon fill="midnightblue" stroke="midnightblue" points="433.869,-147.902 423.567,-150.373 433.162,-154.866 433.869,-147.902"/>
</g>
<!-- Node8 -->
<g id="node8" class="node"><title>Node8</title>
<g id="a_node8"><a xlink:href="../../d3/d6f/class_nodes_1_1math_1_1_natural_log_node.html" target="_top" xlink:title="Nodes.math.NaturalLogNode">
<polygon fill="white" stroke="black" points="460.5,-114.5 460.5,-133.5 617.5,-133.5 617.5,-114.5 460.5,-114.5"/>
<text text-anchor="middle" x="539" y="-121.5" font-family="Helvetica,sans-Serif" font-size="10.00">Nodes.math.NaturalLogNode</text>
</a>
</g>
</g>
<!-- Node1&#45;&gt;Node8 -->
<g id="edge7" class="edge"><title>Node1&#45;&gt;Node8</title>
<path fill="none" stroke="midnightblue" d="M433.798,-134.587C442.58,-133.695 451.489,-132.79 460.21,-131.904"/>
<polygon fill="midnightblue" stroke="midnightblue" points="433.162,-131.134 423.567,-135.627 433.869,-138.098 433.162,-131.134"/>
</g>
<!-- Node9 -->
<g id="node9" class="node"><title>Node9</title>
<g id="a_node9"><a xlink:href="../../d7/dc2/class_nodes_1_1math_1_1_random_node.html" target="_top" xlink:title="Nodes.math.RandomNode">
<polygon fill="white" stroke="black" points="467,-76.5 467,-95.5 611,-95.5 611,-76.5 467,-76.5"/>
<text text-anchor="middle" x="539" y="-83.5" font-family="Helvetica,sans-Serif" font-size="10.00">Nodes.math.RandomNode</text>
</a>
</g>
</g>
<!-- Node1&#45;&gt;Node9 -->
<g id="edge8" class="edge"><title>Node1&#45;&gt;Node9</title>
<path fill="none" stroke="midnightblue" d="M385.89,-129.872C407.145,-122.117 434.946,-112.4 460,-105 471.495,-101.605 484.07,-98.3464 495.701,-95.5163"/>
<polygon fill="midnightblue" stroke="midnightblue" points="384.498,-126.655 376.322,-133.392 386.915,-133.224 384.498,-126.655"/>
</g>
<!-- Node10 -->
<g id="node10" class="node"><title>Node10</title>
<g id="a_node10"><a xlink:href="../../dd/dd8/class_nodes_1_1math_1_1_sine_node.html" target="_top" xlink:title="Nodes.math.SineNode">
<polygon fill="white" stroke="black" points="476.5,-38.5 476.5,-57.5 601.5,-57.5 601.5,-38.5 476.5,-38.5"/>
<text text-anchor="middle" x="539" y="-45.5" font-family="Helvetica,sans-Serif" font-size="10.00">Nodes.math.SineNode</text>
</a>
</g>
</g>
<!-- Node1&#45;&gt;Node10 -->
<g id="edge9" class="edge"><title>Node1&#45;&gt;Node10</title>
<path fill="none" stroke="midnightblue" d="M369.618,-126.75C390.328,-109.492 425.44,-82.5957 460,-67 468.385,-63.2163 477.63,-60.1207 486.736,-57.6099"/>
<polygon fill="midnightblue" stroke="midnightblue" points="367.281,-124.143 361.917,-133.28 371.808,-129.482 367.281,-124.143"/>
</g>
<!-- Node11 -->
<g id="node11" class="node"><title>Node11</title>
<g id="a_node11"><a xlink:href="../../d3/d68/class_nodes_1_1math_1_1_tangent_node.html" target="_top" xlink:title="Nodes.math.TangentNode">
<polygon fill="white" stroke="black" points="468,-0.5 468,-19.5 610,-19.5 610,-0.5 468,-0.5"/>
<text text-anchor="middle" x="539" y="-7.5" font-family="Helvetica,sans-Serif" font-size="10.00">Nodes.math.TangentNode</text>
</a>
</g>
</g>
<!-- Node1&#45;&gt;Node11 -->
<g id="edge10" class="edge"><title>Node1&#45;&gt;Node11</title>
<path fill="none" stroke="midnightblue" d="M363.124,-124.919C381.164,-99.4805 417.543,-53.5002 460,-29 466.76,-25.099 474.295,-21.9955 481.943,-19.5272"/>
<polygon fill="midnightblue" stroke="midnightblue" points="360.147,-123.071 357.331,-133.284 365.902,-127.056 360.147,-123.071"/>
</g>
<!-- Node2 -->
<g id="node2" class="node"><title>Node2</title>
<g id="a_node2"><a xlink:href="../../de/d80/class_nodes_1_1math_1_1_math_node.html" target="_top" xlink:title="Nodes.math.MathNode">
<polygon fill="white" stroke="black" points="112,-133.5 112,-152.5 240,-152.5 240,-133.5 112,-133.5"/>
<text text-anchor="middle" x="176" y="-140.5" font-family="Helvetica,sans-Serif" font-size="10.00">Nodes.math.MathNode</text>
</a>
</g>
</g>
<!-- Node2&#45;&gt;Node1 -->
<g id="edge1" class="edge"><title>Node2&#45;&gt;Node1</title>
<path fill="none" stroke="midnightblue" d="M250.145,-143C258.817,-143 267.666,-143 276.331,-143"/>
<polygon fill="midnightblue" stroke="midnightblue" points="250.07,-139.5 240.07,-143 250.07,-146.5 250.07,-139.5"/>
</g>
<!-- Node3 -->
<g id="node3" class="node"><title>Node3</title>
<g id="a_node3"><a xlink:href="../../df/dac/class_nodes_1_1_node.html" target="_top" xlink:title="Nodes.Node">
<polygon fill="white" stroke="black" points="0,-133.5 0,-152.5 76,-152.5 76,-133.5 0,-133.5"/>
<text text-anchor="middle" x="38" y="-140.5" font-family="Helvetica,sans-Serif" font-size="10.00">Nodes.Node</text>
</a>
</g>
</g>
<!-- Node3&#45;&gt;Node2 -->
<g id="edge2" class="edge"><title>Node3&#45;&gt;Node2</title>
<path fill="none" stroke="midnightblue" d="M86.3639,-143C94.641,-143 103.369,-143 111.989,-143"/>
<polygon fill="midnightblue" stroke="midnightblue" points="86.1626,-139.5 76.1626,-143 86.1626,-146.5 86.1626,-139.5"/>
</g>
</g>
</svg>
        <g id="navigator" transform="translate(0 0)" fill="#404254">
                <rect fill="#f2f5e9" fill-opacity="0.5" stroke="#606060" stroke-width=".5" x="0" y="0" width="60" height="60"/>
                <use id="zoomplus" xlink:href="#zoomPlus" x="17" y="9" onmousedown="handleZoom(evt,'in')"/>
                <use id="zoomminus" xlink:href="#zoomMin" x="42" y="9" onmousedown="handleZoom(evt,'out')"/>
                <use id="reset" xlink:href="#resetDef" x="30" y="36" onmousedown="handleReset()"/>
                <g id="arrowUp" xlink:href="#dirArrow" transform="translate(30 24)" onmousedown="handlePan(0,-1)">
                  <use xlink:href="#rim" fill="#404040">
                        <set attributeName="fill" to="#808080" begin="arrowUp.mouseover" end="arrowUp.mouseout"/>
                  </use>
                  <path fill="none" stroke="white" stroke-width="1.5" d="M0,-3.0v7 M-2.5,-0.5L0,-3.0L2.5,-0.5"/>
                </g>
                <g id="arrowRight" xlink:href="#dirArrow" transform="rotate(90) translate(36 -43)" onmousedown="handlePan(1,0)">
                  <use xlink:href="#rim" fill="#404040">
                        <set attributeName="fill" to="#808080" begin="arrowRight.mouseover" end="arrowRight.mouseout"/>
                  </use>
                  <path fill="none" stroke="white" stroke-width="1.5" d="M0,-3.0v7 M-2.5,-0.5L0,-3.0L2.5,-0.5"/>
                </g>
                <g id="arrowDown" xlink:href="#dirArrow" transform="rotate(180) translate(-30 -48)" onmousedown="handlePan(0,1)">
                  <use xlink:href="#rim" fill="#404040">
                        <set attributeName="fill" to="#808080" begin="arrowDown.mouseover" end="arrowDown.mouseout"/>
                  </use>
                  <path fill="none" stroke="white" stroke-width="1.5" d="M0,-3.0v7 M-2.5,-0.5L0,-3.0L2.5,-0.5"/>
                </g>
                <g id="arrowLeft" xlink:href="#dirArrow" transform="rotate(270) translate(-36 17)" onmousedown="handlePan(-1,0)">
                  <use xlink:href="#rim" fill="#404040">
                        <set attributeName="fill" to="#808080" begin="arrowLeft.mouseover" end="arrowLeft.mouseout"/>
                  </use>
                  <path fill="none" stroke="white" stroke-width="1.5" d="M0,-3.0v7 M-2.5,-0.5L0,-3.0L2.5,-0.5"/>
                </g>
        </g>
        <svg viewBox="0 0 15 15" width="100%" height="30px" preserveAspectRatio="xMaxYMin meet">
         <g id="arrow_out" transform="scale(0.3 0.3)">
          <a xlink:href="class_nodes_1_1math_1_1_one_child_node__inherit__graph_org.svg" target="_base">
           <rect id="button" ry="5" rx="5" y="6" x="6" height="38" width="38"
                fill="#f2f5e9" fill-opacity="0.5" stroke="#606060" stroke-width="1.0"/>
           <path id="arrow"
             d="M 11.500037,31.436501 C 11.940474,20.09759 22.043105,11.32322 32.158766,21.979434 L 37.068811,17.246167 C 37.068811,17.246167 37.088388,32 37.088388,32 L 22.160133,31.978069 C 22.160133,31.978069 26.997745,27.140456 26.997745,27.140456 C 18.528582,18.264221 13.291696,25.230495 11.500037,31.436501 z"
             style="fill:#404040;"/>
          </a>
         </g>
        </svg>
</svg>
