<?xml version="1.0" encoding="UTF-8" standalone="no"?>
<!DOCTYPE svg PUBLIC "-//W3C//DTD SVG 1.1//EN"
 "http://www.w3.org/Graphics/SVG/1.1/DTD/svg11.dtd">
<!-- Generated by graphviz version 2.36.0 (20140111.2315)
 -->
<!-- Title: TurtleView.TurtleImageBox Pages: 1 -->
<svg width="1094pt" height="412pt"
 viewBox="0.00 0.00 1094.00 412.00" xmlns="http://www.w3.org/2000/svg" xmlns:xlink="http://www.w3.org/1999/xlink">
<g id="graph0" class="graph" transform="scale(1 1) rotate(0) translate(4 408)">
<title>TurtleView.TurtleImageBox</title>
<polygon fill="white" stroke="none" points="-4,4 -4,-408 1090,-408 1090,4 -4,4"/>
<!-- Node1 -->
<g id="node1" class="node"><title>Node1</title>
<polygon fill="#bfbfbf" stroke="black" points="252,-323.5 252,-342.5 392,-342.5 392,-323.5 252,-323.5"/>
<text text-anchor="middle" x="322" y="-330.5" font-family="Helvetica,sans-Serif" font-size="10.00">TurtleView.TurtleImageBox</text>
</g>
<!-- Node3 -->
<g id="node3" class="node"><title>Node3</title>
<g id="a_node3"><a xlink:href="../../d1/de0/class_backend_1_1_turtle.html" target="_top" xlink:title="Backend.Turtle">
<polygon fill="white" stroke="black" points="718,-198.5 718,-217.5 804,-217.5 804,-198.5 718,-198.5"/>
<text text-anchor="middle" x="761" y="-205.5" font-family="Helvetica,sans-Serif" font-size="10.00">Backend.Turtle</text>
</a>
</g>
</g>
<!-- Node1&#45;&gt;Node3 -->
<g id="edge9" class="edge"><title>Node1&#45;&gt;Node3</title>
<path fill="none" stroke="#9a32cd" stroke-dasharray="5,2" d="M402.742,-333.049C482.241,-330.029 605.75,-316.836 700,-268 723.282,-255.936 743.195,-231.641 753.168,-217.956"/>
<polygon fill="#9a32cd" stroke="#9a32cd" points="402.185,-329.566 392.307,-333.397 402.418,-336.562 402.185,-329.566"/>
<text text-anchor="middle" x="550" y="-329" font-family="Helvetica,sans-Serif" font-size="10.00"> myImageBox</text>
</g>
<!-- Node2 -->
<g id="node2" class="node"><title>Node2</title>
<polygon fill="white" stroke="#bfbfbf" points="3,-280 3,-310 129,-310 129,-280 3,-280"/>
<text text-anchor="start" x="11" y="-298" font-family="Helvetica,sans-Serif" font-size="10.00">javafx::scene::control</text>
<text text-anchor="middle" x="66" y="-287" font-family="Helvetica,sans-Serif" font-size="10.00">::ComboBox&lt; String &gt;</text>
</g>
<!-- Node2&#45;&gt;Node1 -->
<g id="edge1" class="edge"><title>Node2&#45;&gt;Node1</title>
<path fill="none" stroke="midnightblue" d="M139.402,-305.832C176.574,-311.393 221.455,-318.107 257.298,-323.47"/>
<polygon fill="midnightblue" stroke="midnightblue" points="139.543,-302.314 129.135,-304.296 138.507,-309.237 139.543,-302.314"/>
</g>
<!-- Node12 -->
<g id="node12" class="node"><title>Node12</title>
<g id="a_node12"><a xlink:href="../../d6/da0/class_pen_1_1_pen_type_box.html" target="_top" xlink:title="Pen.PenTypeBox">
<polygon fill="white" stroke="black" points="274.5,-209.5 274.5,-228.5 369.5,-228.5 369.5,-209.5 274.5,-209.5"/>
<text text-anchor="middle" x="322" y="-216.5" font-family="Helvetica,sans-Serif" font-size="10.00">Pen.PenTypeBox</text>
</a>
</g>
</g>
<!-- Node2&#45;&gt;Node12 -->
<g id="edge15" class="edge"><title>Node2&#45;&gt;Node12</title>
<path fill="none" stroke="midnightblue" d="M139.225,-282.068C169.405,-275.128 204.288,-265.044 234,-251 242.922,-246.783 243.102,-242.267 252,-238 259.843,-234.24 268.555,-231.115 277.076,-228.56"/>
<polygon fill="midnightblue" stroke="midnightblue" points="138.185,-278.714 129.184,-284.303 139.706,-285.547 138.185,-278.714"/>
</g>
<!-- Node15 -->
<g id="node15" class="node"><title>Node15</title>
<g id="a_node15"><a xlink:href="../../df/d6f/class_pen_1_1_pen_color_box.html" target="_top" xlink:title="Pen.PenColorBox">
<polygon fill="white" stroke="black" points="273,-285.5 273,-304.5 371,-304.5 371,-285.5 273,-285.5"/>
<text text-anchor="middle" x="322" y="-292.5" font-family="Helvetica,sans-Serif" font-size="10.00">Pen.PenColorBox</text>
</a>
</g>
</g>
<!-- Node2&#45;&gt;Node15 -->
<g id="edge19" class="edge"><title>Node2&#45;&gt;Node15</title>
<path fill="none" stroke="midnightblue" d="M139.202,-295C181.934,-295 234.907,-295 272.626,-295"/>
<polygon fill="midnightblue" stroke="midnightblue" points="139.135,-291.5 129.135,-295 139.135,-298.5 139.135,-291.5"/>
</g>
<!-- Node3&#45;&gt;Node1 -->
<g id="edge2" class="edge"><title>Node3&#45;&gt;Node1</title>
<path fill="none" stroke="#9a32cd" stroke-dasharray="5,2" d="M756.26,-227.596C749.935,-254.659 734.303,-302.558 700,-324 590.355,-392.537 425.503,-360.68 355.886,-342.542"/>
<polygon fill="#9a32cd" stroke="#9a32cd" points="759.703,-228.231 758.368,-217.72 752.857,-226.769 759.703,-228.231"/>
<text text-anchor="middle" x="550" y="-368" font-family="Helvetica,sans-Serif" font-size="10.00"> myTurtle</text>
</g>
<!-- Node5 -->
<g id="node5" class="node"><title>Node5</title>
<g id="a_node5"><a xlink:href="../../d9/d38/class_turtle_view_1_1_turtle_information.html" target="_top" xlink:title="TurtleView.TurtleInformation">
<polygon fill="white" stroke="black" points="940,-215.5 940,-234.5 1086,-234.5 1086,-215.5 940,-215.5"/>
<text text-anchor="middle" x="1013" y="-222.5" font-family="Helvetica,sans-Serif" font-size="10.00">TurtleView.TurtleInformation</text>
</a>
</g>
</g>
<!-- Node3&#45;&gt;Node5 -->
<g id="edge6" class="edge"><title>Node3&#45;&gt;Node5</title>
<path fill="none" stroke="#9a32cd" stroke-dasharray="5,2" d="M814.254,-218.999C816.867,-219.377 819.46,-219.715 822,-220 860.694,-224.346 904.085,-225.748 939.622,-225.996"/>
<polygon fill="#9a32cd" stroke="#9a32cd" points="814.573,-215.506 804.144,-217.37 813.46,-222.416 814.573,-215.506"/>
<text text-anchor="middle" x="872" y="-229" font-family="Helvetica,sans-Serif" font-size="10.00"> myTurtle</text>
</g>
<!-- Node4 -->
<g id="node4" class="node"><title>Node4</title>
<polygon fill="white" stroke="#bfbfbf" points="516,-76.5 516,-95.5 584,-95.5 584,-76.5 516,-76.5"/>
<text text-anchor="middle" x="550" y="-83.5" font-family="Helvetica,sans-Serif" font-size="10.00">ImageView</text>
</g>
<!-- Node4&#45;&gt;Node3 -->
<g id="edge3" class="edge"><title>Node4&#45;&gt;Node3</title>
<path fill="none" stroke="midnightblue" d="M594.397,-84.4359C627.183,-85.5844 671.293,-92.4397 700,-118 718.58,-134.543 704.201,-150.301 718,-171 725.331,-181.996 736.726,-191.751 745.799,-198.481"/>
<polygon fill="midnightblue" stroke="midnightblue" points="594.247,-80.9326 584.184,-84.247 594.118,-87.9314 594.247,-80.9326"/>
</g>
<!-- Node5&#45;&gt;Node3 -->
<g id="edge4" class="edge"><title>Node5&#45;&gt;Node3</title>
<path fill="none" stroke="#9a32cd" stroke-dasharray="5,2" d="M956.954,-213.69C945.453,-211.756 933.368,-210.038 922,-209 882.165,-205.361 836.519,-205.5 804.204,-206.317"/>
<polygon fill="#9a32cd" stroke="#9a32cd" points="956.424,-217.151 966.879,-215.433 957.635,-210.256 956.424,-217.151"/>
<text text-anchor="middle" x="872" y="-212" font-family="Helvetica,sans-Serif" font-size="10.00"> myTurtleInformation</text>
</g>
<!-- Node6 -->
<g id="node6" class="node"><title>Node6</title>
<polygon fill="white" stroke="#bfbfbf" points="301.5,-384.5 301.5,-403.5 342.5,-403.5 342.5,-384.5 301.5,-384.5"/>
<text text-anchor="middle" x="322" y="-391.5" font-family="Helvetica,sans-Serif" font-size="10.00">VBox</text>
</g>
<!-- Node6&#45;&gt;Node5 -->
<g id="edge5" class="edge"><title>Node6&#45;&gt;Node5</title>
<path fill="none" stroke="midnightblue" d="M352.702,-394.738C404.781,-395.546 515.804,-395.092 608,-380 765.541,-354.211 939.907,-264.436 994.616,-234.671"/>
<polygon fill="midnightblue" stroke="midnightblue" points="352.573,-391.236 342.511,-394.552 352.445,-398.234 352.573,-391.236"/>
</g>
<!-- Node11 -->
<g id="node11" class="node"><title>Node11</title>
<g id="a_node11"><a xlink:href="../../d0/d46/class_pen_1_1_pen_options.html" target="_top" xlink:title="Pen.PenOptions">
<polygon fill="white" stroke="black" points="504,-178.5 504,-197.5 596,-197.5 596,-178.5 504,-178.5"/>
<text text-anchor="middle" x="550" y="-185.5" font-family="Helvetica,sans-Serif" font-size="10.00">Pen.PenOptions</text>
</a>
</g>
</g>
<!-- Node6&#45;&gt;Node11 -->
<g id="edge13" class="edge"><title>Node6&#45;&gt;Node11</title>
<path fill="none" stroke="midnightblue" d="M352.313,-383.591C387.212,-369.591 444.475,-341.222 474,-297 496.651,-263.074 465.004,-237.581 492,-207 495.452,-203.09 499.729,-199.983 504.379,-197.513"/>
<polygon fill="midnightblue" stroke="midnightblue" points="350.743,-380.445 342.68,-387.318 353.27,-386.973 350.743,-380.445"/>
</g>
<!-- Node7 -->
<g id="node7" class="node"><title>Node7</title>
<polygon fill="white" stroke="#bfbfbf" points="740,-142.5 740,-161.5 782,-161.5 782,-142.5 740,-142.5"/>
<text text-anchor="middle" x="761" y="-149.5" font-family="Helvetica,sans-Serif" font-size="10.00">Label</text>
</g>
<!-- Node7&#45;&gt;Node5 -->
<g id="edge7" class="edge"><title>Node7&#45;&gt;Node5</title>
<path fill="none" stroke="#9a32cd" stroke-dasharray="5,2" d="M792.376,-151.236C825.221,-151.316 878.687,-154.105 922,-169 952.802,-179.593 984.035,-202.308 1000.38,-215.319"/>
<polygon fill="#9a32cd" stroke="#9a32cd" points="792.05,-147.738 782.072,-151.299 792.093,-154.738 792.05,-147.738"/>
<text text-anchor="middle" x="872" y="-194" font-family="Helvetica,sans-Serif" font-size="10.00"> turtleIndexLabel</text>
<text text-anchor="middle" x="872" y="-183" font-family="Helvetica,sans-Serif" font-size="10.00">turtleDirectionLabel</text>
<text text-anchor="middle" x="872" y="-172" font-family="Helvetica,sans-Serif" font-size="10.00">turtlePositionLabel</text>
</g>
<!-- Node8 -->
<g id="node8" class="node"><title>Node8</title>
<polygon fill="white" stroke="#bfbfbf" points="523,-38.5 523,-57.5 577,-57.5 577,-38.5 523,-38.5"/>
<text text-anchor="middle" x="550" y="-45.5" font-family="Helvetica,sans-Serif" font-size="10.00">Point2D</text>
</g>
<!-- Node8&#45;&gt;Node3 -->
<g id="edge8" class="edge"><title>Node8&#45;&gt;Node3</title>
<path fill="none" stroke="#9a32cd" stroke-dasharray="5,2" d="M587.445,-43.3616C621.259,-41.2493 670.656,-44.1048 700,-73 731.554,-104.071 696.184,-132.463 718,-171 724.319,-182.163 735.288,-191.651 744.432,-198.224"/>
<polygon fill="#9a32cd" stroke="#9a32cd" points="586.747,-39.9063 577.059,-44.1953 587.307,-46.8839 586.747,-39.9063"/>
<text text-anchor="middle" x="663" y="-76" font-family="Helvetica,sans-Serif" font-size="10.00"> myLocation</text>
</g>
<!-- Node9 -->
<g id="node9" class="node"><title>Node9</title>
<g id="a_node9"><a xlink:href="../../dc/ded/class_turtle_view_1_1_active_ring.html" target="_top" xlink:title="TurtleView.ActiveRing">
<polygon fill="white" stroke="black" points="492,-0.5 492,-19.5 608,-19.5 608,-0.5 492,-0.5"/>
<text text-anchor="middle" x="550" y="-7.5" font-family="Helvetica,sans-Serif" font-size="10.00">TurtleView.ActiveRing</text>
</a>
</g>
</g>
<!-- Node9&#45;&gt;Node3 -->
<g id="edge10" class="edge"><title>Node9&#45;&gt;Node3</title>
<path fill="none" stroke="#9a32cd" stroke-dasharray="5,2" d="M618.238,-1.64156C647.112,-1.89763 678.977,-7.96132 700,-29 722.483,-51.5001 703.105,-142.895 718,-171 724.007,-182.334 734.986,-191.817 744.212,-198.344"/>
<polygon fill="#9a32cd" stroke="#9a32cd" points="618.124,1.85731 608.172,-1.77817 618.219,-5.14205 618.124,1.85731"/>
<text text-anchor="middle" x="663" y="-32" font-family="Helvetica,sans-Serif" font-size="10.00"> myRing</text>
</g>
<!-- Node10 -->
<g id="node10" class="node"><title>Node10</title>
<polygon fill="white" stroke="#bfbfbf" points="300.5,-0.5 300.5,-19.5 343.5,-19.5 343.5,-0.5 300.5,-0.5"/>
<text text-anchor="middle" x="322" y="-7.5" font-family="Helvetica,sans-Serif" font-size="10.00">Circle</text>
</g>
<!-- Node10&#45;&gt;Node9 -->
<g id="edge11" class="edge"><title>Node10&#45;&gt;Node9</title>
<path fill="none" stroke="midnightblue" d="M354.06,-10C389.479,-10 448.128,-10 491.861,-10"/>
<polygon fill="midnightblue" stroke="midnightblue" points="353.856,-6.5001 343.856,-10 353.856,-13.5001 353.856,-6.5001"/>
</g>
<!-- Node11&#45;&gt;Node3 -->
<g id="edge12" class="edge"><title>Node11&#45;&gt;Node3</title>
<path fill="none" stroke="#9a32cd" stroke-dasharray="5,2" d="M606.12,-191.077C634.258,-192.9 669.006,-195.536 700,-199 705.757,-199.643 711.81,-200.426 717.766,-201.258"/>
<polygon fill="#9a32cd" stroke="#9a32cd" points="606.272,-187.58 596.071,-190.443 605.831,-194.566 606.272,-187.58"/>
<text text-anchor="middle" x="663" y="-202" font-family="Helvetica,sans-Serif" font-size="10.00"> myPenOptions</text>
</g>
<!-- Node12&#45;&gt;Node11 -->
<g id="edge14" class="edge"><title>Node12&#45;&gt;Node11</title>
<path fill="none" stroke="#9a32cd" stroke-dasharray="5,2" d="M379.537,-211.245C417.891,-205.984 467.925,-199.121 503.665,-194.219"/>
<polygon fill="#9a32cd" stroke="#9a32cd" points="378.985,-207.788 369.553,-212.614 379.936,-214.723 378.985,-207.788"/>
<text text-anchor="middle" x="442" y="-210" font-family="Helvetica,sans-Serif" font-size="10.00"> myTypeBox</text>
</g>
<!-- Node13 -->
<g id="node13" class="node"><title>Node13</title>
<polygon fill="white" stroke="#bfbfbf" points="12.5,-230 12.5,-260 119.5,-260 119.5,-230 12.5,-230"/>
<text text-anchor="start" x="20.5" y="-248" font-family="Helvetica,sans-Serif" font-size="10.00">Map&lt; String, List&lt;</text>
<text text-anchor="middle" x="66" y="-237" font-family="Helvetica,sans-Serif" font-size="10.00"> Double &gt; &gt;</text>
</g>
<!-- Node13&#45;&gt;Node12 -->
<g id="edge16" class="edge"><title>Node13&#45;&gt;Node12</title>
<path fill="none" stroke="#9a32cd" stroke-dasharray="5,2" d="M129.815,-238.57C174.595,-233.986 233.819,-227.924 274.417,-223.768"/>
<polygon fill="#9a32cd" stroke="#9a32cd" points="129.221,-235.113 119.629,-239.613 129.933,-242.076 129.221,-235.113"/>
<text text-anchor="middle" x="192" y="-239" font-family="Helvetica,sans-Serif" font-size="10.00"> myMap</text>
</g>
<!-- Node14 -->
<g id="node14" class="node"><title>Node14</title>
<polygon fill="white" stroke="#bfbfbf" points="290,-247.5 290,-266.5 354,-266.5 354,-247.5 290,-247.5"/>
<text text-anchor="middle" x="322" y="-254.5" font-family="Helvetica,sans-Serif" font-size="10.00">CheckBox</text>
</g>
<!-- Node14&#45;&gt;Node11 -->
<g id="edge17" class="edge"><title>Node14&#45;&gt;Node11</title>
<path fill="none" stroke="#9a32cd" stroke-dasharray="5,2" d="M364.361,-252.686C395.739,-248.19 439.251,-239.271 474,-222 483.325,-217.365 482.903,-212.068 492,-207 498.652,-203.294 506.146,-200.157 513.459,-197.565"/>
<polygon fill="#9a32cd" stroke="#9a32cd" points="363.661,-249.249 354.216,-254.047 364.592,-256.187 363.661,-249.249"/>
<text text-anchor="middle" x="442" y="-248" font-family="Helvetica,sans-Serif" font-size="10.00"> myDownBox</text>
</g>
<!-- Node15&#45;&gt;Node11 -->
<g id="edge18" class="edge"><title>Node15&#45;&gt;Node11</title>
<path fill="none" stroke="#9a32cd" stroke-dasharray="5,2" d="M381.24,-287.433C417.698,-281.599 460.276,-272.42 474,-260 492.445,-243.307 474.36,-224.541 492,-207 495.92,-203.102 500.66,-200.003 505.713,-197.541"/>
<polygon fill="#9a32cd" stroke="#9a32cd" points="380.498,-284.006 371.148,-288.99 381.565,-290.924 380.498,-284.006"/>
<text text-anchor="middle" x="442" y="-285" font-family="Helvetica,sans-Serif" font-size="10.00"> myColorBox</text>
</g>
<!-- Node16 -->
<g id="node16" class="node"><title>Node16</title>
<polygon fill="white" stroke="#bfbfbf" points="6.5,-343.5 6.5,-362.5 125.5,-362.5 125.5,-343.5 6.5,-343.5"/>
<text text-anchor="middle" x="66" y="-350.5" font-family="Helvetica,sans-Serif" font-size="10.00">Map&lt; String, Color &gt;</text>
</g>
<!-- Node16&#45;&gt;Node15 -->
<g id="edge20" class="edge"><title>Node16&#45;&gt;Node15</title>
<path fill="none" stroke="#9a32cd" stroke-dasharray="5,2" d="M118.421,-341.258C165.819,-330.435 235.293,-314.571 279.319,-304.518"/>
<polygon fill="#9a32cd" stroke="#9a32cd" points="117.628,-337.849 108.659,-343.487 119.187,-344.673 117.628,-337.849"/>
<text text-anchor="middle" x="192" y="-336" font-family="Helvetica,sans-Serif" font-size="10.00"> myMap</text>
</g>
<!-- Node17 -->
<g id="node17" class="node"><title>Node17</title>
<g id="a_node17"><a xlink:href="../../d4/dc3/class_pen_1_1_pen_thickness_box.html" target="_top" xlink:title="Pen.PenThicknessBox">
<polygon fill="white" stroke="black" points="262,-171.5 262,-190.5 382,-190.5 382,-171.5 262,-171.5"/>
<text text-anchor="middle" x="322" y="-178.5" font-family="Helvetica,sans-Serif" font-size="10.00">Pen.PenThicknessBox</text>
</a>
</g>
</g>
<!-- Node17&#45;&gt;Node11 -->
<g id="edge21" class="edge"><title>Node17&#45;&gt;Node11</title>
<path fill="none" stroke="#9a32cd" stroke-dasharray="5,2" d="M392.116,-183.141C428.414,-184.265 471.863,-185.611 503.823,-186.601"/>
<polygon fill="#9a32cd" stroke="#9a32cd" points="392.187,-179.641 382.084,-182.83 391.97,-186.638 392.187,-179.641"/>
<text text-anchor="middle" x="442" y="-189" font-family="Helvetica,sans-Serif" font-size="10.00"> myThickBox</text>
</g>
<!-- Node18 -->
<g id="node18" class="node"><title>Node18</title>
<polygon fill="white" stroke="#bfbfbf" points="0.5,-181 0.5,-211 131.5,-211 131.5,-181 0.5,-181"/>
<text text-anchor="start" x="8.5" y="-199" font-family="Helvetica,sans-Serif" font-size="10.00">javafx::scene::control</text>
<text text-anchor="middle" x="66" y="-188" font-family="Helvetica,sans-Serif" font-size="10.00">::ComboBox&lt; Double &gt;</text>
</g>
<!-- Node18&#45;&gt;Node17 -->
<g id="edge22" class="edge"><title>Node18&#45;&gt;Node17</title>
<path fill="none" stroke="midnightblue" d="M141.656,-192.217C170.512,-190.691 203.799,-188.855 234,-187 242.916,-186.452 252.343,-185.838 261.572,-185.218"/>
<polygon fill="midnightblue" stroke="midnightblue" points="141.449,-188.723 131.647,-192.743 141.816,-195.713 141.449,-188.723"/>
</g>
<!-- Node19 -->
<g id="node19" class="node"><title>Node19</title>
<polygon fill="white" stroke="#bfbfbf" points="21.5,-120.5 21.5,-139.5 110.5,-139.5 110.5,-120.5 21.5,-120.5"/>
<text text-anchor="middle" x="66" y="-127.5" font-family="Helvetica,sans-Serif" font-size="10.00">List&lt; Double &gt;</text>
</g>
<!-- Node19&#45;&gt;Node17 -->
<g id="edge23" class="edge"><title>Node19&#45;&gt;Node17</title>
<path fill="none" stroke="#9a32cd" stroke-dasharray="5,2" d="M108.141,-142.346C121.425,-146.078 136.267,-149.982 150,-153 186.874,-161.103 228.691,-167.991 261.742,-172.907"/>
<polygon fill="#9a32cd" stroke="#9a32cd" points="108.907,-138.925 98.3302,-139.544 106.984,-145.656 108.907,-138.925"/>
<text text-anchor="middle" x="192" y="-172" font-family="Helvetica,sans-Serif" font-size="10.00"> myList</text>
</g>
<!-- Node20 -->
<g id="node20" class="node"><title>Node20</title>
<g id="a_node20"><a xlink:href="../../df/daf/class_pen_1_1_pen.html" target="_top" xlink:title="Pen.Pen">
<polygon fill="white" stroke="black" points="294,-103.5 294,-122.5 350,-122.5 350,-103.5 294,-103.5"/>
<text text-anchor="middle" x="322" y="-110.5" font-family="Helvetica,sans-Serif" font-size="10.00">Pen.Pen</text>
</a>
</g>
</g>
<!-- Node19&#45;&gt;Node20 -->
<g id="edge25" class="edge"><title>Node19&#45;&gt;Node20</title>
<path fill="none" stroke="#9a32cd" stroke-dasharray="5,2" d="M106.967,-117.758C120.495,-114.187 135.778,-110.771 150,-109 200.538,-102.706 260.107,-106.64 293.925,-109.923"/>
<polygon fill="#9a32cd" stroke="#9a32cd" points="105.726,-114.469 97.0114,-120.494 107.581,-121.219 105.726,-114.469"/>
<text text-anchor="middle" x="192" y="-145" font-family="Helvetica,sans-Serif" font-size="10.00"> DASHED</text>
<text text-anchor="middle" x="192" y="-134" font-family="Helvetica,sans-Serif" font-size="10.00">SOLID</text>
<text text-anchor="middle" x="192" y="-123" font-family="Helvetica,sans-Serif" font-size="10.00">myLineType</text>
<text text-anchor="middle" x="192" y="-112" font-family="Helvetica,sans-Serif" font-size="10.00">DOTTED</text>
</g>
<!-- Node20&#45;&gt;Node3 -->
<g id="edge27" class="edge"><title>Node20&#45;&gt;Node3</title>
<path fill="none" stroke="#9a32cd" stroke-dasharray="5,2" d="M360.268,-116.941C415.063,-123.173 520.359,-136.813 608,-158 653.634,-169.032 705.259,-187.289 735.078,-198.423"/>
<polygon fill="#9a32cd" stroke="#9a32cd" points="360.33,-113.426 350.003,-115.794 359.552,-120.383 360.33,-113.426"/>
<text text-anchor="middle" x="550" y="-161" font-family="Helvetica,sans-Serif" font-size="10.00"> myPen</text>
</g>
<!-- Node20&#45;&gt;Node11 -->
<g id="edge24" class="edge"><title>Node20&#45;&gt;Node11</title>
<path fill="none" stroke="#9a32cd" stroke-dasharray="5,2" d="M359.892,-125.243C404.721,-140.12 479.409,-164.906 520.217,-178.448"/>
<polygon fill="#9a32cd" stroke="#9a32cd" points="360.854,-121.875 350.261,-122.047 358.649,-128.518 360.854,-121.875"/>
<text text-anchor="middle" x="442" y="-165" font-family="Helvetica,sans-Serif" font-size="10.00"> myPen</text>
</g>
<!-- Node21 -->
<g id="node21" class="node"><title>Node21</title>
<polygon fill="white" stroke="#bfbfbf" points="45.5,-53.5 45.5,-72.5 86.5,-72.5 86.5,-53.5 45.5,-53.5"/>
<text text-anchor="middle" x="66" y="-60.5" font-family="Helvetica,sans-Serif" font-size="10.00">Color</text>
</g>
<!-- Node21&#45;&gt;Node20 -->
<g id="edge26" class="edge"><title>Node21&#45;&gt;Node20</title>
<path fill="none" stroke="#9a32cd" stroke-dasharray="5,2" d="M96.6582,-63.6903C130.35,-65.0089 186.782,-68.8448 234,-80 257.425,-85.5341 283.054,-95.8053 300.386,-103.425"/>
<polygon fill="#9a32cd" stroke="#9a32cd" points="96.6726,-60.1888 86.5587,-63.3445 96.433,-67.1847 96.6726,-60.1888"/>
<text text-anchor="middle" x="192" y="-94" font-family="Helvetica,sans-Serif" font-size="10.00"> DEFAULT_COLOR</text>
<text text-anchor="middle" x="192" y="-83" font-family="Helvetica,sans-Serif" font-size="10.00">myColor</text>
</g>
<!-- Node22 -->
<g id="node22" class="node"><title>Node22</title>
<polygon fill="white" stroke="#bfbfbf" points="503.5,-216.5 503.5,-235.5 596.5,-235.5 596.5,-216.5 503.5,-216.5"/>
<text text-anchor="middle" x="550" y="-223.5" font-family="Helvetica,sans-Serif" font-size="10.00">List&lt; Point2D &gt;</text>
</g>
<!-- Node22&#45;&gt;Node3 -->
<g id="edge28" class="edge"><title>Node22&#45;&gt;Node3</title>
<path fill="none" stroke="#9a32cd" stroke-dasharray="5,2" d="M606.635,-221.208C641.488,-218.207 685.702,-214.399 717.692,-211.644"/>
<polygon fill="#9a32cd" stroke="#9a32cd" points="606.27,-217.727 596.608,-222.072 606.871,-224.701 606.27,-217.727"/>
<text text-anchor="middle" x="663" y="-223" font-family="Helvetica,sans-Serif" font-size="10.00"> nextLocations</text>
</g>
<!-- Node23 -->
<g id="node23" class="node"><title>Node23</title>
<polygon fill="white" stroke="#bfbfbf" points="504,-254.5 504,-273.5 596,-273.5 596,-254.5 504,-254.5"/>
<text text-anchor="middle" x="550" y="-261.5" font-family="Helvetica,sans-Serif" font-size="10.00">List&lt; Polyline &gt;</text>
</g>
<!-- Node23&#45;&gt;Node3 -->
<g id="edge29" class="edge"><title>Node23&#45;&gt;Node3</title>
<path fill="none" stroke="#9a32cd" stroke-dasharray="5,2" d="M606.162,-256.379C634.587,-251.674 669.577,-244.663 700,-235 714.479,-230.401 730.109,-223.293 741.785,-217.524"/>
<polygon fill="#9a32cd" stroke="#9a32cd" points="605.327,-252.969 596.008,-258.009 606.436,-259.88 605.327,-252.969"/>
<text text-anchor="middle" x="663" y="-256" font-family="Helvetica,sans-Serif" font-size="10.00"> myTrail</text>
</g>
</g>
</svg>
