<?xml version="1.0" encoding="UTF-8" standalone="no"?>
<!DOCTYPE svg PUBLIC "-//W3C//DTD SVG 1.1//EN"
 "http://www.w3.org/Graphics/SVG/1.1/DTD/svg11.dtd">
<!-- Generated by graphviz version 2.36.0 (20140111.2315)
 -->
<!-- Title: FrontEndCommands.EnterCommand Pages: 1 -->
<svg width="389pt" height="164pt"
 viewBox="0.00 0.00 389.00 164.00" xmlns="http://www.w3.org/2000/svg" xmlns:xlink="http://www.w3.org/1999/xlink">
<g id="graph0" class="graph" transform="scale(1 1) rotate(0) translate(4 160)">
<title>FrontEndCommands.EnterCommand</title>
<polygon fill="white" stroke="none" points="-4,4 -4,-160 385,-160 385,4 -4,4"/>
<!-- Node1 -->
<g id="node1" class="node"><title>Node1</title>
<polygon fill="#bfbfbf" stroke="black" points="125.5,-0.5 125.5,-19.5 318.5,-19.5 318.5,-0.5 125.5,-0.5"/>
<text text-anchor="middle" x="222" y="-7.5" font-family="Helvetica,sans-Serif" font-size="10.00">FrontEndCommands.EnterCommand</text>
</g>
<!-- Node2 -->
<g id="node2" class="node"><title>Node2</title>
<g id="a_node2"><a xlink:href="../../de/d36/class_front_end_commands_1_1_super_command.html" target="_top" xlink:title="FrontEndCommands.SuperCommand">
<polygon fill="white" stroke="black" points="15,-68.5 15,-87.5 211,-87.5 211,-68.5 15,-68.5"/>
<text text-anchor="middle" x="113" y="-75.5" font-family="Helvetica,sans-Serif" font-size="10.00">FrontEndCommands.SuperCommand</text>
</a>
</g>
</g>
<!-- Node2&#45;&gt;Node1 -->
<g id="edge1" class="edge"><title>Node2&#45;&gt;Node1</title>
<path fill="none" stroke="midnightblue" d="M135.849,-63.1646C157.54,-50.0309 189.466,-30.6993 207.747,-19.6305"/>
<polygon fill="midnightblue" stroke="midnightblue" points="133.991,-60.1981 127.25,-68.3717 137.617,-66.186 133.991,-60.1981"/>
</g>
<!-- Node3 -->
<g id="node3" class="node"><title>Node3</title>
<polygon fill="white" stroke="#bfbfbf" points="-0.5,-136.5 -0.5,-155.5 70.5,-155.5 70.5,-136.5 -0.5,-136.5"/>
<text text-anchor="middle" x="35" y="-143.5" font-family="Helvetica,sans-Serif" font-size="10.00">Observable</text>
</g>
<!-- Node3&#45;&gt;Node2 -->
<g id="edge2" class="edge"><title>Node3&#45;&gt;Node2</title>
<path fill="none" stroke="midnightblue" d="M52.9939,-129.774C68.3466,-116.784 89.8894,-98.5551 102.551,-87.8411"/>
<polygon fill="midnightblue" stroke="midnightblue" points="50.5702,-127.24 45.1971,-136.372 55.0918,-132.584 50.5702,-127.24"/>
</g>
<!-- Node4 -->
<g id="node4" class="node"><title>Node4</title>
<polygon fill="white" stroke="#bfbfbf" points="88.5,-136.5 88.5,-155.5 137.5,-155.5 137.5,-136.5 88.5,-136.5"/>
<text text-anchor="middle" x="113" y="-143.5" font-family="Helvetica,sans-Serif" font-size="10.00">Button</text>
</g>
<!-- Node4&#45;&gt;Node2 -->
<g id="edge3" class="edge"><title>Node4&#45;&gt;Node2</title>
<path fill="none" stroke="#9a32cd" stroke-dasharray="5,2" d="M113,-126.041C113,-113.472 113,-97.5631 113,-87.8411"/>
<polygon fill="#9a32cd" stroke="#9a32cd" points="109.5,-126.372 113,-136.372 116.5,-126.372 109.5,-126.372"/>
<text text-anchor="middle" x="138.5" y="-109.5" font-family="Helvetica,sans-Serif" font-size="10.00"> myButton</text>
</g>
<!-- Node5 -->
<g id="node5" class="node"><title>Node5</title>
<polygon fill="white" stroke="#bfbfbf" points="166,-136.5 166,-155.5 208,-155.5 208,-136.5 166,-136.5"/>
<text text-anchor="middle" x="187" y="-143.5" font-family="Helvetica,sans-Serif" font-size="10.00">HBox</text>
</g>
<!-- Node5&#45;&gt;Node2 -->
<g id="edge4" class="edge"><title>Node5&#45;&gt;Node2</title>
<path fill="none" stroke="#9a32cd" stroke-dasharray="5,2" d="M179.448,-126.716C175.853,-119.613 171.011,-111.806 165,-106 156.806,-98.085 145.828,-91.9276 136.071,-87.505"/>
<polygon fill="#9a32cd" stroke="#9a32cd" points="176.484,-128.655 183.813,-136.306 182.855,-125.754 176.484,-128.655"/>
<text text-anchor="middle" x="197" y="-109.5" font-family="Helvetica,sans-Serif" font-size="10.00"> myHBox</text>
</g>
<!-- Node6 -->
<g id="node6" class="node"><title>Node6</title>
<g id="a_node6"><a xlink:href="../../df/d9c/class_front_end_1_1_command_line.html" target="_top" xlink:title="FrontEnd.CommandLine">
<polygon fill="white" stroke="black" points="229.5,-68.5 229.5,-87.5 360.5,-87.5 360.5,-68.5 229.5,-68.5"/>
<text text-anchor="middle" x="295" y="-75.5" font-family="Helvetica,sans-Serif" font-size="10.00">FrontEnd.CommandLine</text>
</a>
</g>
</g>
<!-- Node6&#45;&gt;Node1 -->
<g id="edge5" class="edge"><title>Node6&#45;&gt;Node1</title>
<path fill="none" stroke="#9a32cd" stroke-dasharray="5,2" d="M277.759,-61.4122C263.418,-48.4468 243.519,-30.4559 231.779,-19.8411"/>
<polygon fill="#9a32cd" stroke="#9a32cd" points="275.691,-64.2614 285.457,-68.3717 280.386,-59.0689 275.691,-64.2614"/>
<text text-anchor="middle" x="310" y="-41.5" font-family="Helvetica,sans-Serif" font-size="10.00"> myCommandLine</text>
</g>
<!-- Node7 -->
<g id="node7" class="node"><title>Node7</title>
<polygon fill="white" stroke="#bfbfbf" points="246,-136.5 246,-155.5 304,-155.5 304,-136.5 246,-136.5"/>
<text text-anchor="middle" x="275" y="-143.5" font-family="Helvetica,sans-Serif" font-size="10.00">TextArea</text>
</g>
<!-- Node7&#45;&gt;Node6 -->
<g id="edge6" class="edge"><title>Node7&#45;&gt;Node6</title>
<path fill="none" stroke="midnightblue" d="M280.629,-126.425C284.455,-113.798 289.345,-97.6623 292.321,-87.8411"/>
<polygon fill="midnightblue" stroke="midnightblue" points="277.165,-125.786 277.615,-136.372 283.864,-127.816 277.165,-125.786"/>
</g>
<!-- Node8 -->
<g id="node8" class="node"><title>Node8</title>
<polygon fill="white" stroke="#bfbfbf" points="322,-136.5 322,-155.5 382,-155.5 382,-136.5 322,-136.5"/>
<text text-anchor="middle" x="352" y="-143.5" font-family="Helvetica,sans-Serif" font-size="10.00">Observer</text>
</g>
<!-- Node8&#45;&gt;Node6 -->
<g id="edge7" class="edge"><title>Node8&#45;&gt;Node6</title>
<path fill="none" stroke="midnightblue" d="M337.905,-128.68C326.762,-115.777 311.632,-98.2575 302.636,-87.8411"/>
<polygon fill="midnightblue" stroke="midnightblue" points="335.363,-131.091 344.548,-136.372 340.661,-126.516 335.363,-131.091"/>
</g>
</g>
</svg>
