<?xml version="1.0" encoding="UTF-8" standalone="no"?>
<!DOCTYPE svg PUBLIC "-//W3C//DTD SVG 1.1//EN"
 "http://www.w3.org/Graphics/SVG/1.1/DTD/svg11.dtd">
<!-- Generated by graphviz version 2.36.0 (20140111.2315)
 -->
<!-- Title: FrontEnd.LanguageSelector Pages: 1 -->
<svg width="490pt" height="96pt"
 viewBox="0.00 0.00 490.00 96.00" xmlns="http://www.w3.org/2000/svg" xmlns:xlink="http://www.w3.org/1999/xlink">
<g id="graph0" class="graph" transform="scale(1 1) rotate(0) translate(4 92)">
<title>FrontEnd.LanguageSelector</title>
<polygon fill="white" stroke="none" points="-4,4 -4,-92 486,-92 486,4 -4,4"/>
<!-- Node1 -->
<g id="node1" class="node"><title>Node1</title>
<polygon fill="#bfbfbf" stroke="black" points="132.5,-0.5 132.5,-19.5 281.5,-19.5 281.5,-0.5 132.5,-0.5"/>
<text text-anchor="middle" x="207" y="-7.5" font-family="Helvetica,sans-Serif" font-size="10.00">FrontEnd.LanguageSelector</text>
</g>
<!-- Node2 -->
<g id="node2" class="node"><title>Node2</title>
<polygon fill="white" stroke="#bfbfbf" points="-0.5,-68.5 -0.5,-87.5 80.5,-87.5 80.5,-68.5 -0.5,-68.5"/>
<text text-anchor="middle" x="40" y="-75.5" font-family="Helvetica,sans-Serif" font-size="10.00">List&lt; Node &gt;</text>
</g>
<!-- Node2&#45;&gt;Node1 -->
<g id="edge1" class="edge"><title>Node2&#45;&gt;Node1</title>
<path fill="none" stroke="#9a32cd" stroke-dasharray="5,2" d="M68.1204,-63.991C85.5139,-56.1164 108.383,-46.0707 129,-38 145.947,-31.366 165.276,-24.6692 180.453,-19.6046"/>
<polygon fill="#9a32cd" stroke="#9a32cd" points="66.2173,-61.0119 58.5705,-68.3452 69.1214,-67.3812 66.2173,-61.0119"/>
<text text-anchor="middle" x="146" y="-41.5" font-family="Helvetica,sans-Serif" font-size="10.00"> leaves</text>
</g>
<!-- Node3 -->
<g id="node3" class="node"><title>Node3</title>
<polygon fill="white" stroke="#bfbfbf" points="98.5,-68.5 98.5,-87.5 191.5,-87.5 191.5,-68.5 98.5,-68.5"/>
<text text-anchor="middle" x="145" y="-75.5" font-family="Helvetica,sans-Serif" font-size="10.00">ResourceBundle</text>
</g>
<!-- Node3&#45;&gt;Node1 -->
<g id="edge2" class="edge"><title>Node3&#45;&gt;Node1</title>
<path fill="none" stroke="#9a32cd" stroke-dasharray="5,2" d="M157.379,-60.0638C162.815,-52.9983 169.444,-44.8574 176,-38 182.313,-31.3968 190.063,-24.6468 196.235,-19.5476"/>
<polygon fill="#9a32cd" stroke="#9a32cd" points="154.43,-58.1619 151.227,-68.2609 160.029,-62.3638 154.43,-58.1619"/>
<text text-anchor="middle" x="211.5" y="-41.5" font-family="Helvetica,sans-Serif" font-size="10.00"> myLanguages</text>
</g>
<!-- Node4 -->
<g id="node4" class="node"><title>Node4</title>
<polygon fill="white" stroke="#bfbfbf" points="209,-68.5 209,-87.5 329,-87.5 329,-68.5 209,-68.5"/>
<text text-anchor="middle" x="269" y="-75.5" font-family="Helvetica,sans-Serif" font-size="10.00">ComboBox&lt; String &gt;</text>
</g>
<!-- Node4&#45;&gt;Node1 -->
<g id="edge3" class="edge"><title>Node4&#45;&gt;Node1</title>
<path fill="none" stroke="#9a32cd" stroke-dasharray="5,2" d="M260.964,-58.79C257.335,-51.8055 252.597,-44.0644 247,-38 240.181,-30.6116 230.966,-24.2172 223.099,-19.5083"/>
<polygon fill="#9a32cd" stroke="#9a32cd" points="257.99,-60.6836 265.459,-68.1981 264.306,-57.6662 257.99,-60.6836"/>
<text text-anchor="middle" x="291.5" y="-41.5" font-family="Helvetica,sans-Serif" font-size="10.00"> myComboBox</text>
</g>
<!-- Node5 -->
<g id="node5" class="node"><title>Node5</title>
<polygon fill="white" stroke="#bfbfbf" points="347.5,-68.5 347.5,-87.5 482.5,-87.5 482.5,-68.5 347.5,-68.5"/>
<text text-anchor="middle" x="415" y="-75.5" font-family="Helvetica,sans-Serif" font-size="10.00">ObservableList&lt; Node &gt;</text>
</g>
<!-- Node5&#45;&gt;Node1 -->
<g id="edge4" class="edge"><title>Node5&#45;&gt;Node1</title>
<path fill="none" stroke="#9a32cd" stroke-dasharray="5,2" d="M390.384,-63.815C373.946,-55.4538 351.637,-44.9429 331,-38 307.612,-30.1316 280.954,-23.9801 258.364,-19.5493"/>
<polygon fill="#9a32cd" stroke="#9a32cd" points="388.837,-66.9553 399.326,-68.4462 392.056,-60.7394 388.837,-66.9553"/>
<text text-anchor="middle" x="399.5" y="-41.5" font-family="Helvetica,sans-Serif" font-size="10.00"> myRootChildren</text>
</g>
</g>
</svg>
