<?xml version="1.0" encoding="UTF-8" standalone="no"?>
<!DOCTYPE svg PUBLIC "-//W3C//DTD SVG 1.1//EN"
 "http://www.w3.org/Graphics/SVG/1.1/DTD/svg11.dtd">
<!-- Generated by graphviz version 2.36.0 (20140111.2315)
 -->
<!-- Title: Nodes.loops.RepeatNode Pages: 1 -->
<svg width="169pt" height="212pt"
 viewBox="0.00 0.00 169.00 212.00" xmlns="http://www.w3.org/2000/svg" xmlns:xlink="http://www.w3.org/1999/xlink">
<g id="graph0" class="graph" transform="scale(1 1) rotate(0) translate(4 208)">
<title>Nodes.loops.RepeatNode</title>
<polygon fill="white" stroke="none" points="-4,4 -4,-208 165,-208 165,4 -4,4"/>
<!-- Node1 -->
<g id="node1" class="node"><title>Node1</title>
<polygon fill="#bfbfbf" stroke="black" points="1.5,-0.5 1.5,-19.5 138.5,-19.5 138.5,-0.5 1.5,-0.5"/>
<text text-anchor="middle" x="70" y="-7.5" font-family="Helvetica,sans-Serif" font-size="10.00">Nodes.loops.RepeatNode</text>
</g>
<!-- Node2 -->
<g id="node2" class="node"><title>Node2</title>
<g id="a_node2"><a xlink:href="../../d8/d90/class_nodes_1_1loops_1_1_loop_node.html" target="_top" xlink:title="Nodes.loops.LoopNode">
<polygon fill="white" stroke="black" points="6,-58.5 6,-77.5 134,-77.5 134,-58.5 6,-58.5"/>
<text text-anchor="middle" x="70" y="-65.5" font-family="Helvetica,sans-Serif" font-size="10.00">Nodes.loops.LoopNode</text>
</a>
</g>
</g>
<!-- Node2&#45;&gt;Node1 -->
<g id="edge1" class="edge"><title>Node2&#45;&gt;Node1</title>
<path fill="none" stroke="midnightblue" d="M70,-47.953C70,-38.2875 70,-27.0312 70,-19.5052"/>
<polygon fill="midnightblue" stroke="midnightblue" points="66.5001,-48.25 70,-58.25 73.5001,-48.25 66.5001,-48.25"/>
</g>
<!-- Node3 -->
<g id="node3" class="node"><title>Node3</title>
<g id="a_node3"><a xlink:href="../../df/dac/class_nodes_1_1_node.html" target="_top" xlink:title="Nodes.Node">
<polygon fill="white" stroke="black" points="32,-116.5 32,-135.5 108,-135.5 108,-116.5 32,-116.5"/>
<text text-anchor="middle" x="70" y="-123.5" font-family="Helvetica,sans-Serif" font-size="10.00">Nodes.Node</text>
</a>
</g>
</g>
<!-- Node3&#45;&gt;Node2 -->
<g id="edge2" class="edge"><title>Node3&#45;&gt;Node2</title>
<path fill="none" stroke="midnightblue" d="M70,-105.953C70,-96.2875 70,-85.0312 70,-77.5052"/>
<polygon fill="midnightblue" stroke="midnightblue" points="66.5001,-106.25 70,-116.25 73.5001,-106.25 66.5001,-106.25"/>
</g>
<!-- Node3&#45;&gt;Node3 -->
<g id="edge4" class="edge"><title>Node3&#45;&gt;Node3</title>
<path fill="none" stroke="#9a32cd" stroke-dasharray="5,2" d="M118.289,-130.263C123.006,-129.403 126,-127.982 126,-126 126,-122.828 118.335,-121.094 108.214,-120.796"/>
<polygon fill="#9a32cd" stroke="#9a32cd" points="117.845,-126.789 108.214,-131.204 118.496,-133.759 117.845,-126.789"/>
<text text-anchor="middle" x="143.5" y="-123.5" font-family="Helvetica,sans-Serif" font-size="10.00"> parent</text>
</g>
<!-- Node4 -->
<g id="node4" class="node"><title>Node4</title>
<polygon fill="white" stroke="#bfbfbf" points="0,-184.5 0,-203.5 140,-203.5 140,-184.5 0,-184.5"/>
<text text-anchor="middle" x="70" y="-191.5" font-family="Helvetica,sans-Serif" font-size="10.00">ArrayList&lt; Nodes.Node &gt;</text>
</g>
<!-- Node4&#45;&gt;Node3 -->
<g id="edge3" class="edge"><title>Node4&#45;&gt;Node3</title>
<path fill="none" stroke="#9a32cd" stroke-dasharray="5,2" d="M70,-174.041C70,-161.472 70,-145.563 70,-135.841"/>
<polygon fill="#9a32cd" stroke="#9a32cd" points="66.5001,-174.372 70,-184.372 73.5001,-174.372 66.5001,-174.372"/>
<text text-anchor="middle" x="99" y="-157.5" font-family="Helvetica,sans-Serif" font-size="10.00"> myChildren</text>
</g>
</g>
</svg>
