<?xml version="1.0" encoding="UTF-8" standalone="no"?>
<!DOCTYPE svg PUBLIC "-//W3C//DTD SVG 1.1//EN"
 "http://www.w3.org/Graphics/SVG/1.1/DTD/svg11.dtd">
<!-- Generated by graphviz version 2.36.0 (20140111.2315)
 -->
<!-- Title: Nodes.math.PiNode Pages: 1 -->
<svg width="169pt" height="232pt"
 viewBox="0.00 0.00 169.00 232.00" xmlns="http://www.w3.org/2000/svg" xmlns:xlink="http://www.w3.org/1999/xlink">
<g id="graph0" class="graph" transform="scale(1 1) rotate(0) translate(4 228)">
<title>Nodes.math.PiNode</title>
<polygon fill="white" stroke="none" points="-4,4 -4,-228 165,-228 165,4 -4,4"/>
<!-- Node1 -->
<g id="node1" class="node"><title>Node1</title>
<polygon fill="#bfbfbf" stroke="black" points="13.5,-0.5 13.5,-19.5 126.5,-19.5 126.5,-0.5 13.5,-0.5"/>
<text text-anchor="middle" x="70" y="-7.5" font-family="Helvetica,sans-Serif" font-size="10.00">Nodes.math.PiNode</text>
</g>
<!-- Node2 -->
<g id="node2" class="node"><title>Node2</title>
<g id="a_node2"><a xlink:href="../../de/d80/class_nodes_1_1math_1_1_math_node.html" target="_top" xlink:title="Nodes.math.MathNode">
<polygon fill="white" stroke="black" points="6,-58.5 6,-77.5 134,-77.5 134,-58.5 6,-58.5"/>
<text text-anchor="middle" x="70" y="-65.5" font-family="Helvetica,sans-Serif" font-size="10.00">Nodes.math.MathNode</text>
</a>
</g>
</g>
<!-- Node2&#45;&gt;Node1 -->
<g id="edge1" class="edge"><title>Node2&#45;&gt;Node1</title>
<path fill="none" stroke="midnightblue" d="M70,-47.953C70,-38.2875 70,-27.0312 70,-19.5052"/>
<polygon fill="midnightblue" stroke="midnightblue" points="66.5001,-48.25 70,-58.25 73.5001,-48.25 66.5001,-48.25"/>
</g>
<!-- Node3 -->
<g id="node3" class="node"><title>Node3</title>
<g id="a_node3"><a xlink:href="../../df/dac/class_nodes_1_1_node.html" target="_top" xlink:title="Nodes.Node">
<polygon fill="white" stroke="black" points="32,-136.5 32,-155.5 108,-155.5 108,-136.5 32,-136.5"/>
<text text-anchor="middle" x="70" y="-143.5" font-family="Helvetica,sans-Serif" font-size="10.00">Nodes.Node</text>
</a>
</g>
</g>
<!-- Node3&#45;&gt;Node2 -->
<g id="edge2" class="edge"><title>Node3&#45;&gt;Node2</title>
<path fill="none" stroke="midnightblue" d="M68.4399,-126.382C68.2572,-123.575 68.1003,-120.713 68,-118 67.6386,-108.229 67.6386,-105.771 68,-96 68.2293,-89.7998 68.7539,-82.8151 69.2083,-77.5033"/>
<polygon fill="midnightblue" stroke="midnightblue" points="64.9607,-126.791 69.2083,-136.497 71.9406,-126.26 64.9607,-126.791"/>
</g>
<!-- Node3&#45;&gt;Node2 -->
<g id="edge5" class="edge"><title>Node3&#45;&gt;Node2</title>
<path fill="none" stroke="#9a32cd" stroke-dasharray="5,2" d="M70,-126.224C70,-110.697 70,-89.3582 70,-77.6165"/>
<polygon fill="#9a32cd" stroke="#9a32cd" points="66.5001,-126.282 70,-136.282 73.5001,-126.282 66.5001,-126.282"/>
<text text-anchor="middle" x="82.5" y="-110" font-family="Helvetica,sans-Serif" font-size="10.00"> right</text>
<text text-anchor="middle" x="82.5" y="-99" font-family="Helvetica,sans-Serif" font-size="10.00">left</text>
</g>
<!-- Node3&#45;&gt;Node3 -->
<g id="edge4" class="edge"><title>Node3&#45;&gt;Node3</title>
<path fill="none" stroke="#9a32cd" stroke-dasharray="5,2" d="M118.289,-151.176C123.006,-150.133 126,-148.407 126,-146 126,-142.148 118.335,-140.042 108.214,-139.681"/>
<polygon fill="#9a32cd" stroke="#9a32cd" points="117.756,-147.714 108.214,-152.319 118.545,-154.67 117.756,-147.714"/>
<text text-anchor="middle" x="143.5" y="-143.5" font-family="Helvetica,sans-Serif" font-size="10.00"> parent</text>
</g>
<!-- Node4 -->
<g id="node4" class="node"><title>Node4</title>
<polygon fill="white" stroke="#bfbfbf" points="0,-204.5 0,-223.5 140,-223.5 140,-204.5 0,-204.5"/>
<text text-anchor="middle" x="70" y="-211.5" font-family="Helvetica,sans-Serif" font-size="10.00">ArrayList&lt; Nodes.Node &gt;</text>
</g>
<!-- Node4&#45;&gt;Node3 -->
<g id="edge3" class="edge"><title>Node4&#45;&gt;Node3</title>
<path fill="none" stroke="#9a32cd" stroke-dasharray="5,2" d="M70,-194.041C70,-181.472 70,-165.563 70,-155.841"/>
<polygon fill="#9a32cd" stroke="#9a32cd" points="66.5001,-194.372 70,-204.372 73.5001,-194.372 66.5001,-194.372"/>
<text text-anchor="middle" x="99" y="-177.5" font-family="Helvetica,sans-Serif" font-size="10.00"> myChildren</text>
</g>
</g>
</svg>
