<?xml version="1.0" encoding="UTF-8" standalone="no"?>
<!DOCTYPE svg PUBLIC "-//W3C//DTD SVG 1.1//EN"
 "http://www.w3.org/Graphics/SVG/1.1/DTD/svg11.dtd">
<!-- Generated by graphviz version 2.36.0 (20140111.2315)
 -->
<!-- Title: TurtleView.PointConverter.convertUserToActualX Pages: 1 -->
<svg width="594pt" height="136pt"
 viewBox="0.00 0.00 594.00 136.00" xmlns="http://www.w3.org/2000/svg" xmlns:xlink="http://www.w3.org/1999/xlink">
<g id="graph0" class="graph" transform="scale(1 1) rotate(0) translate(4 132)">
<title>TurtleView.PointConverter.convertUserToActualX</title>
<polygon fill="white" stroke="none" points="-4,4 -4,-132 590,-132 590,4 -4,4"/>
<!-- Node1 -->
<g id="node1" class="node"><title>Node1</title>
<polygon fill="#bfbfbf" stroke="black" points="0,-73 0,-103 176,-103 176,-73 0,-73"/>
<text text-anchor="start" x="8" y="-91" font-family="Helvetica,sans-Serif" font-size="10.00">TurtleView.PointConverter.convert</text>
<text text-anchor="middle" x="88" y="-80" font-family="Helvetica,sans-Serif" font-size="10.00">UserToActualX</text>
</g>
<!-- Node2 -->
<g id="node2" class="node"><title>Node2</title>
<g id="a_node2"><a xlink:href="../../de/d3e/class_turtle_view_1_1_point_converter.html#ad2e248246f5346104e8871aa203f26a8" target="_top" xlink:title="TurtleView.PointConverter.convert\lActualToUserPoint">
<polygon fill="white" stroke="black" points="212,-98 212,-128 388,-128 388,-98 212,-98"/>
<text text-anchor="start" x="220" y="-116" font-family="Helvetica,sans-Serif" font-size="10.00">TurtleView.PointConverter.convert</text>
<text text-anchor="middle" x="300" y="-105" font-family="Helvetica,sans-Serif" font-size="10.00">ActualToUserPoint</text>
</a>
</g>
</g>
<!-- Node1&#45;&gt;Node2 -->
<g id="edge1" class="edge"><title>Node1&#45;&gt;Node2</title>
<path fill="none" stroke="midnightblue" d="M186.182,-99.5693C194.694,-100.583 203.275,-101.604 211.699,-102.607"/>
<polygon fill="midnightblue" stroke="midnightblue" points="186.578,-96.0918 176.235,-98.3851 185.751,-103.043 186.578,-96.0918"/>
</g>
<!-- Node3 -->
<g id="node3" class="node"><title>Node3</title>
<g id="a_node3"><a xlink:href="../../de/d3e/class_turtle_view_1_1_point_converter.html#a88e94febc045d8717ec2d41522b9ebcf" target="_top" xlink:title="TurtleView.PointConverter.convert\lUserToActualPoint">
<polygon fill="white" stroke="black" points="212,-49 212,-79 388,-79 388,-49 212,-49"/>
<text text-anchor="start" x="220" y="-67" font-family="Helvetica,sans-Serif" font-size="10.00">TurtleView.PointConverter.convert</text>
<text text-anchor="middle" x="300" y="-56" font-family="Helvetica,sans-Serif" font-size="10.00">UserToActualPoint</text>
</a>
</g>
</g>
<!-- Node1&#45;&gt;Node3 -->
<g id="edge2" class="edge"><title>Node1&#45;&gt;Node3</title>
<path fill="none" stroke="midnightblue" d="M186.182,-76.8935C194.694,-75.9207 203.275,-74.94 211.699,-73.9773"/>
<polygon fill="midnightblue" stroke="midnightblue" points="185.772,-73.4174 176.235,-78.0303 186.567,-80.3722 185.772,-73.4174"/>
</g>
<!-- Node4 -->
<g id="node4" class="node"><title>Node4</title>
<g id="a_node4"><a xlink:href="../../d4/dd2/class_nodes_1_1turtlecommands_1_1_home_node.html#ab3bbeb66894a4c93c40e651457efe097" target="_top" xlink:title="Nodes.turtlecommands.Home\lNode.update">
<polygon fill="white" stroke="black" points="424,-98 424,-128 586,-128 586,-98 424,-98"/>
<text text-anchor="start" x="432" y="-116" font-family="Helvetica,sans-Serif" font-size="10.00">Nodes.turtlecommands.Home</text>
<text text-anchor="middle" x="505" y="-105" font-family="Helvetica,sans-Serif" font-size="10.00">Node.update</text>
</a>
</g>
</g>
<!-- Node3&#45;&gt;Node4 -->
<g id="edge3" class="edge"><title>Node3&#45;&gt;Node4</title>
<path fill="none" stroke="midnightblue" d="M373.102,-81.4038C395.558,-86.8243 420.116,-92.752 441.832,-97.9938"/>
<polygon fill="midnightblue" stroke="midnightblue" points="373.828,-77.9788 363.286,-79.0346 372.186,-84.7834 373.828,-77.9788"/>
</g>
<!-- Node5 -->
<g id="node5" class="node"><title>Node5</title>
<g id="a_node5"><a xlink:href="../../df/d0e/class_nodes_1_1turtlecommands_1_1_set_towards_node.html#a54797797efb451e3f6bea12a6b996076" target="_top" xlink:title="Nodes.turtlecommands.Set\lTowardsNode.update">
<polygon fill="white" stroke="black" points="430.5,-49 430.5,-79 579.5,-79 579.5,-49 430.5,-49"/>
<text text-anchor="start" x="438.5" y="-67" font-family="Helvetica,sans-Serif" font-size="10.00">Nodes.turtlecommands.Set</text>
<text text-anchor="middle" x="505" y="-56" font-family="Helvetica,sans-Serif" font-size="10.00">TowardsNode.update</text>
</a>
</g>
</g>
<!-- Node3&#45;&gt;Node5 -->
<g id="edge4" class="edge"><title>Node3&#45;&gt;Node5</title>
<path fill="none" stroke="midnightblue" d="M398.468,-64C409.14,-64 419.873,-64 430.192,-64"/>
<polygon fill="midnightblue" stroke="midnightblue" points="398.268,-60.5001 388.268,-64 398.268,-67.5001 398.268,-60.5001"/>
</g>
<!-- Node6 -->
<g id="node6" class="node"><title>Node6</title>
<g id="a_node6"><a xlink:href="../../d1/dd7/class_nodes_1_1turtlecommands_1_1_set_position_node.html#a5c752365147093605e4591ecbd0ededd" target="_top" xlink:title="Nodes.turtlecommands.Set\lPositionNode.update">
<polygon fill="white" stroke="black" points="430.5,-0 430.5,-30 579.5,-30 579.5,-0 430.5,-0"/>
<text text-anchor="start" x="438.5" y="-18" font-family="Helvetica,sans-Serif" font-size="10.00">Nodes.turtlecommands.Set</text>
<text text-anchor="middle" x="505" y="-7" font-family="Helvetica,sans-Serif" font-size="10.00">PositionNode.update</text>
</a>
</g>
</g>
<!-- Node3&#45;&gt;Node6 -->
<g id="edge5" class="edge"><title>Node3&#45;&gt;Node6</title>
<path fill="none" stroke="midnightblue" d="M373.102,-46.5962C395.558,-41.1757 420.116,-35.248 441.832,-30.0062"/>
<polygon fill="midnightblue" stroke="midnightblue" points="372.186,-43.2166 363.286,-48.9654 373.828,-50.0212 372.186,-43.2166"/>
</g>
</g>
</svg>
