<?xml version="1.0" encoding="UTF-8" standalone="no"?>
<!DOCTYPE svg PUBLIC "-//W3C//DTD SVG 1.1//EN"
 "http://www.w3.org/Graphics/SVG/1.1/DTD/svg11.dtd">
<!-- Generated by graphviz version 2.36.0 (20140111.2315)
 -->
<!-- Title: TurtleView.PointConverter.convertUserToActualPoint Pages: 1 -->
<svg width="382pt" height="136pt"
 viewBox="0.00 0.00 382.00 136.00" xmlns="http://www.w3.org/2000/svg" xmlns:xlink="http://www.w3.org/1999/xlink">
<g id="graph0" class="graph" transform="scale(1 1) rotate(0) translate(4 132)">
<title>TurtleView.PointConverter.convertUserToActualPoint</title>
<polygon fill="white" stroke="none" points="-4,4 -4,-132 378,-132 378,4 -4,4"/>
<!-- Node1 -->
<g id="node1" class="node"><title>Node1</title>
<polygon fill="#bfbfbf" stroke="black" points="0,-49 0,-79 176,-79 176,-49 0,-49"/>
<text text-anchor="start" x="8" y="-67" font-family="Helvetica,sans-Serif" font-size="10.00">TurtleView.PointConverter.convert</text>
<text text-anchor="middle" x="88" y="-56" font-family="Helvetica,sans-Serif" font-size="10.00">UserToActualPoint</text>
</g>
<!-- Node2 -->
<g id="node2" class="node"><title>Node2</title>
<g id="a_node2"><a xlink:href="../../d4/dd2/class_nodes_1_1turtlecommands_1_1_home_node.html#ab3bbeb66894a4c93c40e651457efe097" target="_top" xlink:title="Nodes.turtlecommands.Home\lNode.update">
<polygon fill="white" stroke="black" points="212,-98 212,-128 374,-128 374,-98 212,-98"/>
<text text-anchor="start" x="220" y="-116" font-family="Helvetica,sans-Serif" font-size="10.00">Nodes.turtlecommands.Home</text>
<text text-anchor="middle" x="293" y="-105" font-family="Helvetica,sans-Serif" font-size="10.00">Node.update</text>
</a>
</g>
</g>
<!-- Node1&#45;&gt;Node2 -->
<g id="edge1" class="edge"><title>Node1&#45;&gt;Node2</title>
<path fill="none" stroke="midnightblue" d="M161.102,-81.4038C183.558,-86.8243 208.116,-92.752 229.832,-97.9938"/>
<polygon fill="midnightblue" stroke="midnightblue" points="161.828,-77.9788 151.286,-79.0346 160.186,-84.7834 161.828,-77.9788"/>
</g>
<!-- Node3 -->
<g id="node3" class="node"><title>Node3</title>
<g id="a_node3"><a xlink:href="../../df/d0e/class_nodes_1_1turtlecommands_1_1_set_towards_node.html#a54797797efb451e3f6bea12a6b996076" target="_top" xlink:title="Nodes.turtlecommands.Set\lTowardsNode.update">
<polygon fill="white" stroke="black" points="218.5,-49 218.5,-79 367.5,-79 367.5,-49 218.5,-49"/>
<text text-anchor="start" x="226.5" y="-67" font-family="Helvetica,sans-Serif" font-size="10.00">Nodes.turtlecommands.Set</text>
<text text-anchor="middle" x="293" y="-56" font-family="Helvetica,sans-Serif" font-size="10.00">TowardsNode.update</text>
</a>
</g>
</g>
<!-- Node1&#45;&gt;Node3 -->
<g id="edge2" class="edge"><title>Node1&#45;&gt;Node3</title>
<path fill="none" stroke="midnightblue" d="M186.468,-64C197.14,-64 207.873,-64 218.192,-64"/>
<polygon fill="midnightblue" stroke="midnightblue" points="186.268,-60.5001 176.268,-64 186.268,-67.5001 186.268,-60.5001"/>
</g>
<!-- Node4 -->
<g id="node4" class="node"><title>Node4</title>
<g id="a_node4"><a xlink:href="../../d1/dd7/class_nodes_1_1turtlecommands_1_1_set_position_node.html#a5c752365147093605e4591ecbd0ededd" target="_top" xlink:title="Nodes.turtlecommands.Set\lPositionNode.update">
<polygon fill="white" stroke="black" points="218.5,-0 218.5,-30 367.5,-30 367.5,-0 218.5,-0"/>
<text text-anchor="start" x="226.5" y="-18" font-family="Helvetica,sans-Serif" font-size="10.00">Nodes.turtlecommands.Set</text>
<text text-anchor="middle" x="293" y="-7" font-family="Helvetica,sans-Serif" font-size="10.00">PositionNode.update</text>
</a>
</g>
</g>
<!-- Node1&#45;&gt;Node4 -->
<g id="edge3" class="edge"><title>Node1&#45;&gt;Node4</title>
<path fill="none" stroke="midnightblue" d="M161.102,-46.5962C183.558,-41.1757 208.116,-35.248 229.832,-30.0062"/>
<polygon fill="midnightblue" stroke="midnightblue" points="160.186,-43.2166 151.286,-48.9654 161.828,-50.0212 160.186,-43.2166"/>
</g>
</g>
</svg>
