<?xml version="1.0" encoding="UTF-8" standalone="no"?>
<!DOCTYPE svg PUBLIC "-//W3C//DTD SVG 1.1//EN"
 "http://www.w3.org/Graphics/SVG/1.1/DTD/svg11.dtd">
<!-- Generated by graphviz version 2.36.0 (20140111.2315)
 -->
<!-- Title: TurtleView.PointConverter.convertActualToUserY Pages: 1 -->
<svg width="410pt" height="38pt"
 viewBox="0.00 0.00 410.00 38.00" xmlns="http://www.w3.org/2000/svg" xmlns:xlink="http://www.w3.org/1999/xlink">
<g id="graph0" class="graph" transform="scale(1 1) rotate(0) translate(4 34)">
<title>TurtleView.PointConverter.convertActualToUserY</title>
<polygon fill="white" stroke="none" points="-4,4 -4,-34 406,-34 406,4 -4,4"/>
<!-- Node1 -->
<g id="node1" class="node"><title>Node1</title>
<polygon fill="#bfbfbf" stroke="black" points="0,-0 0,-30 176,-30 176,-0 0,-0"/>
<text text-anchor="start" x="8" y="-18" font-family="Helvetica,sans-Serif" font-size="10.00">TurtleView.PointConverter.convert</text>
<text text-anchor="middle" x="88" y="-7" font-family="Helvetica,sans-Serif" font-size="10.00">ActualToUserY</text>
</g>
<!-- Node2 -->
<g id="node2" class="node"><title>Node2</title>
<g id="a_node2"><a xlink:href="../../da/db9/class_nodes_1_1turtlecommands_1_1_y_coordinate_node.html#a0062be5b89b4f4de05402a5dddee4c50" target="_top" xlink:title="Nodes.turtlecommands.YCoordinate\lNode.update">
<polygon fill="white" stroke="black" points="212,-0 212,-30 402,-30 402,-0 212,-0"/>
<text text-anchor="start" x="220" y="-18" font-family="Helvetica,sans-Serif" font-size="10.00">Nodes.turtlecommands.YCoordinate</text>
<text text-anchor="middle" x="307" y="-7" font-family="Helvetica,sans-Serif" font-size="10.00">Node.update</text>
</a>
</g>
</g>
<!-- Node1&#45;&gt;Node2 -->
<g id="edge1" class="edge"><title>Node1&#45;&gt;Node2</title>
<path fill="none" stroke="midnightblue" d="M186.031,-15C194.615,-15 203.296,-15 211.856,-15"/>
<polygon fill="midnightblue" stroke="midnightblue" points="186.012,-11.5001 176.012,-15 186.012,-18.5001 186.012,-11.5001"/>
</g>
</g>
</svg>
