<?xml version="1.0" encoding="UTF-8" standalone="no"?>
<!DOCTYPE svg PUBLIC "-//W3C//DTD SVG 1.1//EN"
 "http://www.w3.org/Graphics/SVG/1.1/DTD/svg11.dtd">
<!-- Generated by graphviz version 2.36.0 (20140111.2315)
 -->
<!-- Title: TurtleView.PointConverter.convertActualToUserPoint Pages: 1 -->
<svg width="396pt" height="87pt"
 viewBox="0.00 0.00 396.00 87.00" xmlns="http://www.w3.org/2000/svg" xmlns:xlink="http://www.w3.org/1999/xlink">
<g id="graph0" class="graph" transform="scale(1 1) rotate(0) translate(4 83)">
<title>TurtleView.PointConverter.convertActualToUserPoint</title>
<polygon fill="white" stroke="none" points="-4,4 -4,-83 392,-83 392,4 -4,4"/>
<!-- Node1 -->
<g id="node1" class="node"><title>Node1</title>
<polygon fill="#bfbfbf" stroke="black" points="0,-24 0,-54 176,-54 176,-24 0,-24"/>
<text text-anchor="start" x="8" y="-42" font-family="Helvetica,sans-Serif" font-size="10.00">TurtleView.PointConverter.convert</text>
<text text-anchor="middle" x="88" y="-31" font-family="Helvetica,sans-Serif" font-size="10.00">ActualToUserPoint</text>
</g>
<!-- Node2 -->
<g id="node2" class="node"><title>Node2</title>
<g id="a_node2"><a xlink:href="../../de/d3e/class_turtle_view_1_1_point_converter.html#ac71ac226b80010680a67fdeb56f538af" target="_top" xlink:title="TurtleView.PointConverter.convert\lUserToActualX">
<polygon fill="white" stroke="black" points="212,-49 212,-79 388,-79 388,-49 212,-49"/>
<text text-anchor="start" x="220" y="-67" font-family="Helvetica,sans-Serif" font-size="10.00">TurtleView.PointConverter.convert</text>
<text text-anchor="middle" x="300" y="-56" font-family="Helvetica,sans-Serif" font-size="10.00">UserToActualX</text>
</a>
</g>
</g>
<!-- Node1&#45;&gt;Node2 -->
<g id="edge1" class="edge"><title>Node1&#45;&gt;Node2</title>
<path fill="none" stroke="midnightblue" d="M176.235,-49.3851C184.658,-50.3879 193.239,-51.4094 201.751,-52.4228"/>
<polygon fill="midnightblue" stroke="midnightblue" points="201.355,-55.9003 211.699,-53.607 202.183,-48.9494 201.355,-55.9003"/>
</g>
<!-- Node3 -->
<g id="node3" class="node"><title>Node3</title>
<g id="a_node3"><a xlink:href="../../de/d3e/class_turtle_view_1_1_point_converter.html#ad02a24b86b9d916f627a7a125b4de02d" target="_top" xlink:title="TurtleView.PointConverter.convert\lUserToActualY">
<polygon fill="white" stroke="black" points="212,-0 212,-30 388,-30 388,-0 212,-0"/>
<text text-anchor="start" x="220" y="-18" font-family="Helvetica,sans-Serif" font-size="10.00">TurtleView.PointConverter.convert</text>
<text text-anchor="middle" x="300" y="-7" font-family="Helvetica,sans-Serif" font-size="10.00">UserToActualY</text>
</a>
</g>
</g>
<!-- Node1&#45;&gt;Node3 -->
<g id="edge2" class="edge"><title>Node1&#45;&gt;Node3</title>
<path fill="none" stroke="midnightblue" d="M176.235,-29.0303C184.658,-28.0676 193.239,-27.087 201.751,-26.1142"/>
<polygon fill="midnightblue" stroke="midnightblue" points="202.161,-29.5902 211.699,-24.9773 201.366,-22.6354 202.161,-29.5902"/>
</g>
</g>
</svg>
