<?xml version="1.0" encoding="UTF-8" standalone="no"?>
<!DOCTYPE svg PUBLIC "-//W3C//DTD SVG 1.1//EN"
 "http://www.w3.org/Graphics/SVG/1.1/DTD/svg11.dtd">
<!-- Generated by graphviz version 2.36.0 (20140111.2315)
 -->
<!-- Title: FrontEndCommands.SuperCommand.SuperCommand Pages: 1 -->
<svg width="746pt" height="77pt"
 viewBox="0.00 0.00 746.00 77.00" xmlns="http://www.w3.org/2000/svg" xmlns:xlink="http://www.w3.org/1999/xlink">
<g id="graph0" class="graph" transform="scale(1 1) rotate(0) translate(4 73)">
<title>FrontEndCommands.SuperCommand.SuperCommand</title>
<polygon fill="white" stroke="none" points="-4,4 -4,-73 742,-73 742,4 -4,4"/>
<!-- Node1 -->
<g id="node1" class="node"><title>Node1</title>
<polygon fill="#bfbfbf" stroke="black" points="0.5,-17 0.5,-47 199.5,-47 199.5,-17 0.5,-17"/>
<text text-anchor="start" x="8.5" y="-35" font-family="Helvetica,sans-Serif" font-size="10.00">FrontEndCommands.SuperCommand.</text>
<text text-anchor="middle" x="100" y="-24" font-family="Helvetica,sans-Serif" font-size="10.00">SuperCommand</text>
</g>
<!-- Node2 -->
<g id="node2" class="node"><title>Node2</title>
<g id="a_node2"><a xlink:href="../../dc/d7d/class_front_end_1_1_string_chooser.html#a2e464bdef767e146df8d2b7a5f14f6ad" target="_top" xlink:title="FrontEnd.StringChooser.get\lWordInLang">
<polygon fill="white" stroke="black" points="278,-39 278,-69 426,-69 426,-39 278,-39"/>
<text text-anchor="start" x="286" y="-57" font-family="Helvetica,sans-Serif" font-size="10.00">FrontEnd.StringChooser.get</text>
<text text-anchor="middle" x="352" y="-46" font-family="Helvetica,sans-Serif" font-size="10.00">WordInLang</text>
</a>
</g>
</g>
<!-- Node1&#45;&gt;Node2 -->
<g id="edge1" class="edge"><title>Node1&#45;&gt;Node2</title>
<path fill="none" stroke="midnightblue" d="M199.807,-40.695C222.311,-42.6754 246.001,-44.7601 267.779,-46.6766"/>
<polygon fill="midnightblue" stroke="midnightblue" points="267.702,-50.1832 277.97,-47.5734 268.316,-43.2102 267.702,-50.1832"/>
</g>
<!-- Node3 -->
<g id="node3" class="node"><title>Node3</title>
<g id="a_node3"><a xlink:href="../../de/d36/class_front_end_commands_1_1_super_command.html#ad6f7b7e5d2bf0bf228d915b5b0cb6150" target="_top" xlink:title="FrontEndCommands.SuperCommand.handle">
<polygon fill="white" stroke="black" points="236.5,-0.5 236.5,-19.5 467.5,-19.5 467.5,-0.5 236.5,-0.5"/>
<text text-anchor="middle" x="352" y="-7.5" font-family="Helvetica,sans-Serif" font-size="10.00">FrontEndCommands.SuperCommand.handle</text>
</a>
</g>
</g>
<!-- Node1&#45;&gt;Node3 -->
<g id="edge2" class="edge"><title>Node1&#45;&gt;Node3</title>
<path fill="none" stroke="midnightblue" d="M199.807,-23.305C210.674,-22.3487 221.818,-21.368 232.89,-20.3937"/>
<polygon fill="midnightblue" stroke="midnightblue" points="233.373,-23.8648 243.027,-19.5016 232.759,-16.8918 233.373,-23.8648"/>
</g>
<!-- Node4 -->
<g id="node4" class="node"><title>Node4</title>
<g id="a_node4"><a xlink:href="../../de/d36/class_front_end_commands_1_1_super_command.html#aaaa8e1fd7d4e08c149fd33ecd4b48980" target="_top" xlink:title="FrontEndCommands.SuperCommand.change">
<polygon fill="white" stroke="black" points="504,-0.5 504,-19.5 738,-19.5 738,-0.5 504,-0.5"/>
<text text-anchor="middle" x="621" y="-7.5" font-family="Helvetica,sans-Serif" font-size="10.00">FrontEndCommands.SuperCommand.change</text>
</a>
</g>
</g>
<!-- Node3&#45;&gt;Node4 -->
<g id="edge3" class="edge"><title>Node3&#45;&gt;Node4</title>
<path fill="none" stroke="midnightblue" d="M467.782,-10C476.315,-10 484.952,-10 493.551,-10"/>
<polygon fill="midnightblue" stroke="midnightblue" points="493.618,-13.5001 503.618,-10 493.618,-6.5001 493.618,-13.5001"/>
</g>
</g>
</svg>
