<?xml version="1.0" encoding="UTF-8" standalone="no"?>
<!DOCTYPE svg PUBLIC "-//W3C//DTD SVG 1.1//EN"
 "http://www.w3.org/Graphics/SVG/1.1/DTD/svg11.dtd">
<!-- Generated by graphviz version 2.36.0 (20140111.2315)
 -->
<!-- Title: FrontEndCommands.SuperCommand.change Pages: 1 -->
<svg width="746pt" height="77pt"
 viewBox="0.00 0.00 746.00 77.00" xmlns="http://www.w3.org/2000/svg" xmlns:xlink="http://www.w3.org/1999/xlink">
<g id="graph0" class="graph" transform="scale(1 1) rotate(0) translate(4 73)">
<title>FrontEndCommands.SuperCommand.change</title>
<polygon fill="white" stroke="none" points="-4,4 -4,-73 742,-73 742,4 -4,4"/>
<!-- Node1 -->
<g id="node1" class="node"><title>Node1</title>
<polygon fill="#bfbfbf" stroke="black" points="0,-22.5 0,-41.5 234,-41.5 234,-22.5 0,-22.5"/>
<text text-anchor="middle" x="117" y="-29.5" font-family="Helvetica,sans-Serif" font-size="10.00">FrontEndCommands.SuperCommand.change</text>
</g>
<!-- Node2 -->
<g id="node2" class="node"><title>Node2</title>
<g id="a_node2"><a xlink:href="../../de/d36/class_front_end_commands_1_1_super_command.html#ad6f7b7e5d2bf0bf228d915b5b0cb6150" target="_top" xlink:title="FrontEndCommands.SuperCommand.handle">
<polygon fill="white" stroke="black" points="270.5,-42.5 270.5,-61.5 501.5,-61.5 501.5,-42.5 270.5,-42.5"/>
<text text-anchor="middle" x="386" y="-49.5" font-family="Helvetica,sans-Serif" font-size="10.00">FrontEndCommands.SuperCommand.handle</text>
</a>
</g>
</g>
<!-- Node1&#45;&gt;Node2 -->
<g id="edge1" class="edge"><title>Node1&#45;&gt;Node2</title>
<path fill="none" stroke="midnightblue" d="M244.448,-41.4717C253.086,-42.1188 261.764,-42.7689 270.337,-43.411"/>
<polygon fill="midnightblue" stroke="midnightblue" points="244.567,-37.971 234.333,-40.7141 244.044,-44.9514 244.567,-37.971"/>
</g>
<!-- Node4 -->
<g id="node4" class="node"><title>Node4</title>
<g id="a_node4"><a xlink:href="../../df/dec/class_front_end_1_1_view.html#a87ed355b9c89f962145ec0c1b158a5e3" target="_top" xlink:title="FrontEnd.View.sendArrowCommand">
<polygon fill="white" stroke="black" points="293,-3.5 293,-22.5 479,-22.5 479,-3.5 293,-3.5"/>
<text text-anchor="middle" x="386" y="-10.5" font-family="Helvetica,sans-Serif" font-size="10.00">FrontEnd.View.sendArrowCommand</text>
</a>
</g>
</g>
<!-- Node1&#45;&gt;Node4 -->
<g id="edge3" class="edge"><title>Node1&#45;&gt;Node4</title>
<path fill="none" stroke="midnightblue" d="M244.441,-23.0023C260.717,-21.8441 277.134,-20.6759 292.719,-19.5668"/>
<polygon fill="midnightblue" stroke="midnightblue" points="244.06,-19.5205 234.333,-23.7216 244.557,-26.5029 244.06,-19.5205"/>
</g>
<!-- Node3 -->
<g id="node3" class="node"><title>Node3</title>
<g id="a_node3"><a xlink:href="../../de/d36/class_front_end_commands_1_1_super_command.html#aa30bcc4c457df0b399c61fa30c97bc8a" target="_top" xlink:title="FrontEndCommands.SuperCommand.\lSuperCommand">
<polygon fill="white" stroke="black" points="538.5,-39 538.5,-69 737.5,-69 737.5,-39 538.5,-39"/>
<text text-anchor="start" x="546.5" y="-57" font-family="Helvetica,sans-Serif" font-size="10.00">FrontEndCommands.SuperCommand.</text>
<text text-anchor="middle" x="638" y="-46" font-family="Helvetica,sans-Serif" font-size="10.00">SuperCommand</text>
</a>
</g>
</g>
<!-- Node2&#45;&gt;Node3 -->
<g id="edge2" class="edge"><title>Node2&#45;&gt;Node3</title>
<path fill="none" stroke="midnightblue" d="M511.779,-52.9982C520.666,-53.0693 529.554,-53.1404 538.263,-53.2101"/>
<polygon fill="midnightblue" stroke="midnightblue" points="511.784,-49.4983 501.756,-52.9181 511.728,-56.498 511.784,-49.4983"/>
</g>
<!-- Node5 -->
<g id="node5" class="node"><title>Node5</title>
<g id="a_node5"><a xlink:href="../../df/dec/class_front_end_1_1_view.html#a079d7e899ded516b169dc6e66da79e1e" target="_top" xlink:title="FrontEnd.View.View">
<polygon fill="white" stroke="black" points="584.5,-0.5 584.5,-19.5 691.5,-19.5 691.5,-0.5 584.5,-0.5"/>
<text text-anchor="middle" x="638" y="-7.5" font-family="Helvetica,sans-Serif" font-size="10.00">FrontEnd.View.View</text>
</a>
</g>
</g>
<!-- Node4&#45;&gt;Node5 -->
<g id="edge4" class="edge"><title>Node4&#45;&gt;Node5</title>
<path fill="none" stroke="midnightblue" d="M489.101,-11.7748C521.824,-11.3821 556.715,-10.9634 584.385,-10.6314"/>
<polygon fill="midnightblue" stroke="midnightblue" points="488.983,-8.27585 479.026,-11.8957 489.067,-15.2754 488.983,-8.27585"/>
</g>
</g>
</svg>
