<?xml version="1.0" encoding="UTF-8" standalone="no"?>
<!DOCTYPE svg PUBLIC "-//W3C//DTD SVG 1.1//EN"
 "http://www.w3.org/Graphics/SVG/1.1/DTD/svg11.dtd">
<!-- Generated by graphviz version 2.36.0 (20140111.2315)
 -->
<!-- Title: Backend.Model.makeTreeandAddValues Pages: 1 -->
<!--zoomable 404 -->
<svg id="main" version="1.1" xmlns="http://www.w3.org/2000/svg" xmlns:xlink="http://www.w3.org/1999/xlink" xml:space="preserve" onload="init(evt)">
<style type="text/css"><![CDATA[
.edge:hover path { stroke: red; }
.edge:hover polygon { stroke: red; fill: red; }
]]></style>
<script type="text/javascript"><![CDATA[
var edges = document.getElementsByTagName('g');
if (edges && edges.length) {
  for (var i=0;i<edges.length;i++) {
    if (edges[i].id.substr(0,4)=='edge') {
      edges[i].setAttribute('class','edge');
    }
  }
}
]]></script>
        <defs>
                <circle id="rim" cx="0" cy="0" r="7"/>
                <circle id="rim2" cx="0" cy="0" r="3.5"/>
                <g id="zoomPlus">
                        <use xlink:href="#rim" fill="#404040">
                                <set attributeName="fill" to="#808080" begin="zoomplus.mouseover" end="zoomplus.mouseout"/>
                        </use>
                        <path d="M-4,0h8M0,-4v8" fill="none" stroke="white" stroke-width="1.5" pointer-events="none"/>
                </g>
                <g id="zoomMin">
                        <use xlink:href="#rim" fill="#404040">
                                <set attributeName="fill" to="#808080" begin="zoomminus.mouseover" end="zoomminus.mouseout"/>
                        </use>
                        <path d="M-4,0h8" fill="none" stroke="white" stroke-width="1.5" pointer-events="none"/>
                </g>
                <g id="dirArrow">
                        <path fill="none" stroke="white" stroke-width="1.5" d="M0,-3.0v7 M-2.5,-0.5L0,-3.0L2.5,-0.5"/>
                </g>
               <g id="resetDef">
                       <use xlink:href="#rim2" fill="#404040">
                               <set attributeName="fill" to="#808080" begin="reset.mouseover" end="reset.mouseout"/>
                       </use>
               </g>
        </defs>

<script type="text/javascript">
var viewWidth = 726;
var viewHeight = 404;
var sectionId = 'dynsection-1';
</script>
<script xlink:href="../../svgpan.js"/>
<svg id="graph" class="graph">
<g id="viewport">
<title>Backend.Model.makeTreeandAddValues</title>
<polygon fill="white" stroke="none" points="-4,4 -4,-400 722,-400 722,4 -4,4"/>
<!-- Node1 -->
<g id="node1" class="node"><title>Node1</title>
<polygon fill="#bfbfbf" stroke="black" points="0.5,-289 0.5,-319 157.5,-319 157.5,-289 0.5,-289"/>
<text text-anchor="start" x="8.5" y="-307" font-family="Helvetica,sans-Serif" font-size="10.00">Backend.Model.makeTreeand</text>
<text text-anchor="middle" x="79" y="-296" font-family="Helvetica,sans-Serif" font-size="10.00">AddValues</text>
</g>
<!-- Node2 -->
<g id="node2" class="node"><title>Node2</title>
<g id="a_node2"><a xlink:href="../../da/de9/class_backend_1_1_parser.html#afd0ff53630ea682c6fd3e0144f413000" target="_top" xlink:title="Backend.Parser.getMap">
<polygon fill="white" stroke="black" points="205.5,-376.5 205.5,-395.5 334.5,-395.5 334.5,-376.5 205.5,-376.5"/>
<text text-anchor="middle" x="270" y="-383.5" font-family="Helvetica,sans-Serif" font-size="10.00">Backend.Parser.getMap</text>
</a>
</g>
</g>
<!-- Node1&#45;&gt;Node2 -->
<g id="edge1" class="edge"><title>Node1&#45;&gt;Node2</title>
<path fill="none" stroke="midnightblue" d="M103.148,-319.122C125.588,-333.209 160.984,-353.947 194,-367 200.294,-369.488 207.017,-371.733 213.755,-373.734"/>
<polygon fill="midnightblue" stroke="midnightblue" points="213.016,-377.162 223.59,-376.491 214.906,-370.422 213.016,-377.162"/>
</g>
<!-- Node3 -->
<g id="node3" class="node"><title>Node3</title>
<g id="a_node3"><a xlink:href="../../da/de9/class_backend_1_1_parser.html#acb55abf150a283af483433e9296e0a76" target="_top" xlink:title="Backend.Parser.getNoError">
<polygon fill="white" stroke="black" points="197,-338.5 197,-357.5 343,-357.5 343,-338.5 197,-338.5"/>
<text text-anchor="middle" x="270" y="-345.5" font-family="Helvetica,sans-Serif" font-size="10.00">Backend.Parser.getNoError</text>
</a>
</g>
</g>
<!-- Node1&#45;&gt;Node3 -->
<g id="edge2" class="edge"><title>Node1&#45;&gt;Node3</title>
<path fill="none" stroke="midnightblue" d="M144.514,-319.019C168.641,-324.636 195.676,-330.93 218.373,-336.214"/>
<polygon fill="midnightblue" stroke="midnightblue" points="217.607,-339.629 228.14,-338.488 219.194,-332.811 217.607,-339.629"/>
</g>
<!-- Node4 -->
<g id="node4" class="node"><title>Node4</title>
<g id="a_node4"><a xlink:href="../../da/de9/class_backend_1_1_parser.html#a1de7bf91dcf43ce4bc3db66df4074c30" target="_top" xlink:title="Backend.Parser.getQueueOf\lNodes">
<polygon fill="white" stroke="black" points="194.5,-289 194.5,-319 345.5,-319 345.5,-289 194.5,-289"/>
<text text-anchor="start" x="202.5" y="-307" font-family="Helvetica,sans-Serif" font-size="10.00">Backend.Parser.getQueueOf</text>
<text text-anchor="middle" x="270" y="-296" font-family="Helvetica,sans-Serif" font-size="10.00">Nodes</text>
</a>
</g>
</g>
<!-- Node1&#45;&gt;Node4 -->
<g id="edge3" class="edge"><title>Node1&#45;&gt;Node4</title>
<path fill="none" stroke="midnightblue" d="M157.692,-304C166.4,-304 175.305,-304 184.098,-304"/>
<polygon fill="midnightblue" stroke="midnightblue" points="184.35,-307.5 194.35,-304 184.35,-300.5 184.35,-307.5"/>
</g>
<!-- Node6 -->
<g id="node6" class="node"><title>Node6</title>
<g id="a_node6"><a xlink:href="../../da/de9/class_backend_1_1_parser.html#a3fc5e64b991a86b2efc668961650202e" target="_top" xlink:title="Backend.Parser.newInfo">
<polygon fill="white" stroke="black" points="205.5,-250.5 205.5,-269.5 334.5,-269.5 334.5,-250.5 205.5,-250.5"/>
<text text-anchor="middle" x="270" y="-257.5" font-family="Helvetica,sans-Serif" font-size="10.00">Backend.Parser.newInfo</text>
</a>
</g>
</g>
<!-- Node1&#45;&gt;Node6 -->
<g id="edge5" class="edge"><title>Node1&#45;&gt;Node6</title>
<path fill="none" stroke="midnightblue" d="M144.514,-288.981C168.641,-283.364 195.676,-277.07 218.373,-271.786"/>
<polygon fill="midnightblue" stroke="midnightblue" points="219.194,-275.189 228.14,-269.512 217.607,-268.371 219.194,-275.189"/>
</g>
<!-- Node9 -->
<g id="node9" class="node"><title>Node9</title>
<g id="a_node9"><a xlink:href="../../db/d5d/class_backend_1_1_a_s_t.html#a1570c419383f1993e4b7df53d536035e" target="_top" xlink:title="Backend.AST.populateTree">
<polygon fill="white" stroke="black" points="198.5,-114.5 198.5,-133.5 341.5,-133.5 341.5,-114.5 198.5,-114.5"/>
<text text-anchor="middle" x="270" y="-121.5" font-family="Helvetica,sans-Serif" font-size="10.00">Backend.AST.populateTree</text>
</a>
</g>
</g>
<!-- Node1&#45;&gt;Node9 -->
<g id="edge8" class="edge"><title>Node1&#45;&gt;Node9</title>
<path fill="none" stroke="midnightblue" d="M95.789,-288.963C130.761,-255.656 214.553,-175.855 251.262,-140.893"/>
<polygon fill="midnightblue" stroke="midnightblue" points="253.915,-143.2 258.742,-133.769 249.087,-138.131 253.915,-143.2"/>
</g>
<!-- Node5 -->
<g id="node5" class="node"><title>Node5</title>
<g id="a_node5"><a xlink:href="../../da/de9/class_backend_1_1_parser.html#a249b99650270f42aabd1aad4d2352606" target="_top" xlink:title="Backend.Parser.getNextString">
<polygon fill="white" stroke="black" points="389,-316.5 389,-335.5 549,-335.5 549,-316.5 389,-316.5"/>
<text text-anchor="middle" x="469" y="-323.5" font-family="Helvetica,sans-Serif" font-size="10.00">Backend.Parser.getNextString</text>
</a>
</g>
</g>
<!-- Node4&#45;&gt;Node5 -->
<g id="edge4" class="edge"><title>Node4&#45;&gt;Node5</title>
<path fill="none" stroke="midnightblue" d="M345.758,-312.349C356.509,-313.549 367.66,-314.795 378.658,-316.023"/>
<polygon fill="midnightblue" stroke="midnightblue" points="378.372,-319.513 388.699,-317.144 379.149,-312.556 378.372,-319.513"/>
</g>
<!-- Node7 -->
<g id="node7" class="node"><title>Node7</title>
<g id="a_node7"><a xlink:href="../../da/de9/class_backend_1_1_parser.html#af7a0fc52eb5fe8714367d85241ba9e84" target="_top" xlink:title="Backend.Parser.convertResource\lBundleToMap">
<polygon fill="white" stroke="black" points="382.5,-267 382.5,-297 555.5,-297 555.5,-267 382.5,-267"/>
<text text-anchor="start" x="390.5" y="-285" font-family="Helvetica,sans-Serif" font-size="10.00">Backend.Parser.convertResource</text>
<text text-anchor="middle" x="469" y="-274" font-family="Helvetica,sans-Serif" font-size="10.00">BundleToMap</text>
</a>
</g>
</g>
<!-- Node6&#45;&gt;Node7 -->
<g id="edge6" class="edge"><title>Node6&#45;&gt;Node7</title>
<path fill="none" stroke="midnightblue" d="M334.688,-267.112C346.663,-268.45 359.426,-269.875 372.13,-271.294"/>
<polygon fill="midnightblue" stroke="midnightblue" points="371.963,-274.797 382.29,-272.428 372.74,-267.84 371.963,-274.797"/>
</g>
<!-- Node8 -->
<g id="node8" class="node"><title>Node8</title>
<g id="a_node8"><a xlink:href="../../da/de9/class_backend_1_1_parser.html#a57ac3fe734297dc7b65d56ab69a19fc6" target="_top" xlink:title="Backend.Parser.convert">
<polygon fill="white" stroke="black" points="404.5,-228.5 404.5,-247.5 533.5,-247.5 533.5,-228.5 404.5,-228.5"/>
<text text-anchor="middle" x="469" y="-235.5" font-family="Helvetica,sans-Serif" font-size="10.00">Backend.Parser.convert</text>
</a>
</g>
</g>
<!-- Node6&#45;&gt;Node8 -->
<g id="edge7" class="edge"><title>Node6&#45;&gt;Node8</title>
<path fill="none" stroke="midnightblue" d="M334.688,-252.888C353.642,-250.771 374.57,-248.434 394.116,-246.251"/>
<polygon fill="midnightblue" stroke="midnightblue" points="394.644,-249.714 404.194,-245.126 393.867,-242.757 394.644,-249.714"/>
</g>
<!-- Node10 -->
<g id="node10" class="node"><title>Node10</title>
<g id="a_node10"><a xlink:href="../../df/dac/class_nodes_1_1_node.html#ae200fe31f562bfb695af21f5673b8345" target="_top" xlink:title="Nodes.Node.addChildren">
<polygon fill="white" stroke="black" points="401,-190.5 401,-209.5 537,-209.5 537,-190.5 401,-190.5"/>
<text text-anchor="middle" x="469" y="-197.5" font-family="Helvetica,sans-Serif" font-size="10.00">Nodes.Node.addChildren</text>
</a>
</g>
</g>
<!-- Node9&#45;&gt;Node10 -->
<g id="edge9" class="edge"><title>Node9&#45;&gt;Node10</title>
<path fill="none" stroke="midnightblue" d="M286.594,-133.648C307.56,-146.23 346.335,-168.146 382,-181 389.282,-183.625 397.048,-185.954 404.82,-188.003"/>
<polygon fill="midnightblue" stroke="midnightblue" points="404.084,-191.426 414.633,-190.449 405.776,-184.634 404.084,-191.426"/>
</g>
<!-- Node12 -->
<g id="node12" class="node"><title>Node12</title>
<g id="a_node12"><a xlink:href="../../df/dac/class_nodes_1_1_node.html#ace0ce29f3bed613594598fab03985985" target="_top" xlink:title="Nodes.Node.clearChildren">
<polygon fill="white" stroke="black" points="398.5,-152.5 398.5,-171.5 539.5,-171.5 539.5,-152.5 398.5,-152.5"/>
<text text-anchor="middle" x="469" y="-159.5" font-family="Helvetica,sans-Serif" font-size="10.00">Nodes.Node.clearChildren</text>
</a>
</g>
</g>
<!-- Node9&#45;&gt;Node12 -->
<g id="edge11" class="edge"><title>Node9&#45;&gt;Node12</title>
<path fill="none" stroke="midnightblue" d="M320.457,-133.54C347.154,-138.69 380.304,-145.084 408.415,-150.506"/>
<polygon fill="midnightblue" stroke="midnightblue" points="408.041,-153.999 418.523,-152.456 409.366,-147.125 408.041,-153.999"/>
</g>
<!-- Node13 -->
<g id="node13" class="node"><title>Node13</title>
<g id="a_node13"><a xlink:href="../../df/dac/class_nodes_1_1_node.html#a74e0332d0a40c6575211d9c7e5432df1" target="_top" xlink:title="Nodes.Node.getParent">
<polygon fill="white" stroke="black" points="406.5,-114.5 406.5,-133.5 531.5,-133.5 531.5,-114.5 406.5,-114.5"/>
<text text-anchor="middle" x="469" y="-121.5" font-family="Helvetica,sans-Serif" font-size="10.00">Nodes.Node.getParent</text>
</a>
</g>
</g>
<!-- Node9&#45;&gt;Node13 -->
<g id="edge12" class="edge"><title>Node9&#45;&gt;Node13</title>
<path fill="none" stroke="midnightblue" d="M341.565,-124C359.285,-124 378.32,-124 396.104,-124"/>
<polygon fill="midnightblue" stroke="midnightblue" points="396.411,-127.5 406.411,-124 396.411,-120.5 396.411,-127.5"/>
</g>
<!-- Node14 -->
<g id="node14" class="node"><title>Node14</title>
<g id="a_node14"><a xlink:href="../../df/dac/class_nodes_1_1_node.html#aec63a25442128910503dee368ee4328b" target="_top" xlink:title="Nodes.Node.isFinished">
<polygon fill="white" stroke="black" points="406.5,-76.5 406.5,-95.5 531.5,-95.5 531.5,-76.5 406.5,-76.5"/>
<text text-anchor="middle" x="469" y="-83.5" font-family="Helvetica,sans-Serif" font-size="10.00">Nodes.Node.isFinished</text>
</a>
</g>
</g>
<!-- Node9&#45;&gt;Node14 -->
<g id="edge13" class="edge"><title>Node9&#45;&gt;Node14</title>
<path fill="none" stroke="midnightblue" d="M320.457,-114.46C347.154,-109.31 380.304,-102.916 408.415,-97.4935"/>
<polygon fill="midnightblue" stroke="midnightblue" points="409.366,-100.875 418.523,-95.5439 408.041,-94.0013 409.366,-100.875"/>
</g>
<!-- Node15 -->
<g id="node15" class="node"><title>Node15</title>
<g id="a_node15"><a xlink:href="../../df/dac/class_nodes_1_1_node.html#a072be25270214e88e4f3d954edd4e98d" target="_top" xlink:title="Nodes.Node.returnPrintValue">
<polygon fill="white" stroke="black" points="391,-38.5 391,-57.5 547,-57.5 547,-38.5 391,-38.5"/>
<text text-anchor="middle" x="469" y="-45.5" font-family="Helvetica,sans-Serif" font-size="10.00">Nodes.Node.returnPrintValue</text>
</a>
</g>
</g>
<!-- Node9&#45;&gt;Node15 -->
<g id="edge14" class="edge"><title>Node9&#45;&gt;Node15</title>
<path fill="none" stroke="midnightblue" d="M286.594,-114.352C307.56,-101.77 346.335,-79.854 382,-67 389.282,-64.3754 397.048,-62.0458 404.82,-59.9972"/>
<polygon fill="midnightblue" stroke="midnightblue" points="405.776,-63.366 414.633,-57.5515 404.084,-56.5737 405.776,-63.366"/>
</g>
<!-- Node16 -->
<g id="node16" class="node"><title>Node16</title>
<g id="a_node16"><a xlink:href="../../df/dac/class_nodes_1_1_node.html#adf0f88f5b587f4324d763d63b743bb29" target="_top" xlink:title="Nodes.Node.update">
<polygon fill="white" stroke="black" points="412.5,-0.5 412.5,-19.5 525.5,-19.5 525.5,-0.5 412.5,-0.5"/>
<text text-anchor="middle" x="469" y="-7.5" font-family="Helvetica,sans-Serif" font-size="10.00">Nodes.Node.update</text>
</a>
</g>
</g>
<!-- Node9&#45;&gt;Node16 -->
<g id="edge15" class="edge"><title>Node9&#45;&gt;Node16</title>
<path fill="none" stroke="midnightblue" d="M279.103,-114.447C296.08,-95.0886 337.511,-51.1896 382,-29 388.491,-25.7626 395.529,-23.0725 402.689,-20.8382"/>
<polygon fill="midnightblue" stroke="midnightblue" points="403.819,-24.1559 412.488,-18.0652 401.913,-17.4204 403.819,-24.1559"/>
</g>
<!-- Node11 -->
<g id="node11" class="node"><title>Node11</title>
<g id="a_node11"><a xlink:href="../../df/dac/class_nodes_1_1_node.html#a95dd6a377e7e4db934301bd83ddfd12c" target="_top" xlink:title="Nodes.Node.setParent">
<polygon fill="white" stroke="black" points="592.5,-190.5 592.5,-209.5 717.5,-209.5 717.5,-190.5 592.5,-190.5"/>
<text text-anchor="middle" x="655" y="-197.5" font-family="Helvetica,sans-Serif" font-size="10.00">Nodes.Node.setParent</text>
</a>
</g>
</g>
<!-- Node10&#45;&gt;Node11 -->
<g id="edge10" class="edge"><title>Node10&#45;&gt;Node11</title>
<path fill="none" stroke="midnightblue" d="M537.209,-200C551.89,-200 567.48,-200 582.327,-200"/>
<polygon fill="midnightblue" stroke="midnightblue" points="582.467,-203.5 592.467,-200 582.467,-196.5 582.467,-203.5"/>
</g>
</g>
</svg>
        <g id="navigator" transform="translate(0 0)" fill="#404254">
                <rect fill="#f2f5e9" fill-opacity="0.5" stroke="#606060" stroke-width=".5" x="0" y="0" width="60" height="60"/>
                <use id="zoomplus" xlink:href="#zoomPlus" x="17" y="9" onmousedown="handleZoom(evt,'in')"/>
                <use id="zoomminus" xlink:href="#zoomMin" x="42" y="9" onmousedown="handleZoom(evt,'out')"/>
                <use id="reset" xlink:href="#resetDef" x="30" y="36" onmousedown="handleReset()"/>
                <g id="arrowUp" xlink:href="#dirArrow" transform="translate(30 24)" onmousedown="handlePan(0,-1)">
                  <use xlink:href="#rim" fill="#404040">
                        <set attributeName="fill" to="#808080" begin="arrowUp.mouseover" end="arrowUp.mouseout"/>
                  </use>
                  <path fill="none" stroke="white" stroke-width="1.5" d="M0,-3.0v7 M-2.5,-0.5L0,-3.0L2.5,-0.5"/>
                </g>
                <g id="arrowRight" xlink:href="#dirArrow" transform="rotate(90) translate(36 -43)" onmousedown="handlePan(1,0)">
                  <use xlink:href="#rim" fill="#404040">
                        <set attributeName="fill" to="#808080" begin="arrowRight.mouseover" end="arrowRight.mouseout"/>
                  </use>
                  <path fill="none" stroke="white" stroke-width="1.5" d="M0,-3.0v7 M-2.5,-0.5L0,-3.0L2.5,-0.5"/>
                </g>
                <g id="arrowDown" xlink:href="#dirArrow" transform="rotate(180) translate(-30 -48)" onmousedown="handlePan(0,1)">
                  <use xlink:href="#rim" fill="#404040">
                        <set attributeName="fill" to="#808080" begin="arrowDown.mouseover" end="arrowDown.mouseout"/>
                  </use>
                  <path fill="none" stroke="white" stroke-width="1.5" d="M0,-3.0v7 M-2.5,-0.5L0,-3.0L2.5,-0.5"/>
                </g>
                <g id="arrowLeft" xlink:href="#dirArrow" transform="rotate(270) translate(-36 17)" onmousedown="handlePan(-1,0)">
                  <use xlink:href="#rim" fill="#404040">
                        <set attributeName="fill" to="#808080" begin="arrowLeft.mouseover" end="arrowLeft.mouseout"/>
                  </use>
                  <path fill="none" stroke="white" stroke-width="1.5" d="M0,-3.0v7 M-2.5,-0.5L0,-3.0L2.5,-0.5"/>
                </g>
        </g>
        <svg viewBox="0 0 15 15" width="100%" height="30px" preserveAspectRatio="xMaxYMin meet">
         <g id="arrow_out" transform="scale(0.3 0.3)">
          <a xlink:href="class_backend_1_1_model_a3b4294a767985d6585d71cfe0293fba2_cgraph_org.svg" target="_base">
           <rect id="button" ry="5" rx="5" y="6" x="6" height="38" width="38"
                fill="#f2f5e9" fill-opacity="0.5" stroke="#606060" stroke-width="1.0"/>
           <path id="arrow"
             d="M 11.500037,31.436501 C 11.940474,20.09759 22.043105,11.32322 32.158766,21.979434 L 37.068811,17.246167 C 37.068811,17.246167 37.088388,32 37.088388,32 L 22.160133,31.978069 C 22.160133,31.978069 26.997745,27.140456 26.997745,27.140456 C 18.528582,18.264221 13.291696,25.230495 11.500037,31.436501 z"
             style="fill:#404040;"/>
          </a>
         </g>
        </svg>
</svg>
