<?xml version="1.0" encoding="UTF-8" standalone="no"?>
<!DOCTYPE svg PUBLIC "-//W3C//DTD SVG 1.1//EN"
 "http://www.w3.org/Graphics/SVG/1.1/DTD/svg11.dtd">
<!-- Generated by graphviz version 2.36.0 (20140111.2315)
 -->
<!-- Title: Backend.Model.parse Pages: 1 -->
<svg width="882pt" height="404pt"
 viewBox="0.00 0.00 882.00 404.00" xmlns="http://www.w3.org/2000/svg" xmlns:xlink="http://www.w3.org/1999/xlink">
<g id="graph0" class="graph" transform="scale(1 1) rotate(0) translate(4 400)">
<title>Backend.Model.parse</title>
<polygon fill="white" stroke="none" points="-4,4 -4,-400 878,-400 878,4 -4,4"/>
<!-- Node1 -->
<g id="node1" class="node"><title>Node1</title>
<polygon fill="#bfbfbf" stroke="black" points="0.5,-294.5 0.5,-313.5 119.5,-313.5 119.5,-294.5 0.5,-294.5"/>
<text text-anchor="middle" x="60" y="-301.5" font-family="Helvetica,sans-Serif" font-size="10.00">Backend.Model.parse</text>
</g>
<!-- Node2 -->
<g id="node2" class="node"><title>Node2</title>
<g id="a_node2"><a xlink:href="../../da/d3c/class_backend_1_1_model.html#a3b4294a767985d6585d71cfe0293fba2" target="_top" xlink:title="Backend.Model.makeTreeand\lAddValues">
<polygon fill="white" stroke="black" points="156.5,-289 156.5,-319 313.5,-319 313.5,-289 156.5,-289"/>
<text text-anchor="start" x="164.5" y="-307" font-family="Helvetica,sans-Serif" font-size="10.00">Backend.Model.makeTreeand</text>
<text text-anchor="middle" x="235" y="-296" font-family="Helvetica,sans-Serif" font-size="10.00">AddValues</text>
</a>
</g>
</g>
<!-- Node1&#45;&gt;Node2 -->
<g id="edge1" class="edge"><title>Node1&#45;&gt;Node2</title>
<path fill="none" stroke="midnightblue" d="M119.57,-304C128.188,-304 137.22,-304 146.27,-304"/>
<polygon fill="midnightblue" stroke="midnightblue" points="146.474,-307.5 156.474,-304 146.474,-300.5 146.474,-307.5"/>
</g>
<!-- Node3 -->
<g id="node3" class="node"><title>Node3</title>
<g id="a_node3"><a xlink:href="../../da/de9/class_backend_1_1_parser.html#afd0ff53630ea682c6fd3e0144f413000" target="_top" xlink:title="Backend.Parser.getMap">
<polygon fill="white" stroke="black" points="361.5,-376.5 361.5,-395.5 490.5,-395.5 490.5,-376.5 361.5,-376.5"/>
<text text-anchor="middle" x="426" y="-383.5" font-family="Helvetica,sans-Serif" font-size="10.00">Backend.Parser.getMap</text>
</a>
</g>
</g>
<!-- Node2&#45;&gt;Node3 -->
<g id="edge2" class="edge"><title>Node2&#45;&gt;Node3</title>
<path fill="none" stroke="midnightblue" d="M259.148,-319.122C281.588,-333.209 316.984,-353.947 350,-367 356.294,-369.488 363.017,-371.733 369.755,-373.734"/>
<polygon fill="midnightblue" stroke="midnightblue" points="369.016,-377.162 379.59,-376.491 370.906,-370.422 369.016,-377.162"/>
</g>
<!-- Node4 -->
<g id="node4" class="node"><title>Node4</title>
<g id="a_node4"><a xlink:href="../../da/de9/class_backend_1_1_parser.html#acb55abf150a283af483433e9296e0a76" target="_top" xlink:title="Backend.Parser.getNoError">
<polygon fill="white" stroke="black" points="353,-338.5 353,-357.5 499,-357.5 499,-338.5 353,-338.5"/>
<text text-anchor="middle" x="426" y="-345.5" font-family="Helvetica,sans-Serif" font-size="10.00">Backend.Parser.getNoError</text>
</a>
</g>
</g>
<!-- Node2&#45;&gt;Node4 -->
<g id="edge3" class="edge"><title>Node2&#45;&gt;Node4</title>
<path fill="none" stroke="midnightblue" d="M300.514,-319.019C324.641,-324.636 351.676,-330.93 374.373,-336.214"/>
<polygon fill="midnightblue" stroke="midnightblue" points="373.607,-339.629 384.14,-338.488 375.194,-332.811 373.607,-339.629"/>
</g>
<!-- Node5 -->
<g id="node5" class="node"><title>Node5</title>
<g id="a_node5"><a xlink:href="../../da/de9/class_backend_1_1_parser.html#a1de7bf91dcf43ce4bc3db66df4074c30" target="_top" xlink:title="Backend.Parser.getQueueOf\lNodes">
<polygon fill="white" stroke="black" points="350.5,-289 350.5,-319 501.5,-319 501.5,-289 350.5,-289"/>
<text text-anchor="start" x="358.5" y="-307" font-family="Helvetica,sans-Serif" font-size="10.00">Backend.Parser.getQueueOf</text>
<text text-anchor="middle" x="426" y="-296" font-family="Helvetica,sans-Serif" font-size="10.00">Nodes</text>
</a>
</g>
</g>
<!-- Node2&#45;&gt;Node5 -->
<g id="edge4" class="edge"><title>Node2&#45;&gt;Node5</title>
<path fill="none" stroke="midnightblue" d="M313.692,-304C322.4,-304 331.305,-304 340.098,-304"/>
<polygon fill="midnightblue" stroke="midnightblue" points="340.35,-307.5 350.35,-304 340.35,-300.5 340.35,-307.5"/>
</g>
<!-- Node7 -->
<g id="node7" class="node"><title>Node7</title>
<g id="a_node7"><a xlink:href="../../da/de9/class_backend_1_1_parser.html#a3fc5e64b991a86b2efc668961650202e" target="_top" xlink:title="Backend.Parser.newInfo">
<polygon fill="white" stroke="black" points="361.5,-250.5 361.5,-269.5 490.5,-269.5 490.5,-250.5 361.5,-250.5"/>
<text text-anchor="middle" x="426" y="-257.5" font-family="Helvetica,sans-Serif" font-size="10.00">Backend.Parser.newInfo</text>
</a>
</g>
</g>
<!-- Node2&#45;&gt;Node7 -->
<g id="edge6" class="edge"><title>Node2&#45;&gt;Node7</title>
<path fill="none" stroke="midnightblue" d="M300.514,-288.981C324.641,-283.364 351.676,-277.07 374.373,-271.786"/>
<polygon fill="midnightblue" stroke="midnightblue" points="375.194,-275.189 384.14,-269.512 373.607,-268.371 375.194,-275.189"/>
</g>
<!-- Node10 -->
<g id="node10" class="node"><title>Node10</title>
<g id="a_node10"><a xlink:href="../../db/d5d/class_backend_1_1_a_s_t.html#a1570c419383f1993e4b7df53d536035e" target="_top" xlink:title="Backend.AST.populateTree">
<polygon fill="white" stroke="black" points="354.5,-114.5 354.5,-133.5 497.5,-133.5 497.5,-114.5 354.5,-114.5"/>
<text text-anchor="middle" x="426" y="-121.5" font-family="Helvetica,sans-Serif" font-size="10.00">Backend.AST.populateTree</text>
</a>
</g>
</g>
<!-- Node2&#45;&gt;Node10 -->
<g id="edge9" class="edge"><title>Node2&#45;&gt;Node10</title>
<path fill="none" stroke="midnightblue" d="M251.789,-288.963C286.761,-255.656 370.553,-175.855 407.262,-140.893"/>
<polygon fill="midnightblue" stroke="midnightblue" points="409.915,-143.2 414.742,-133.769 405.087,-138.131 409.915,-143.2"/>
</g>
<!-- Node6 -->
<g id="node6" class="node"><title>Node6</title>
<g id="a_node6"><a xlink:href="../../da/de9/class_backend_1_1_parser.html#a249b99650270f42aabd1aad4d2352606" target="_top" xlink:title="Backend.Parser.getNextString">
<polygon fill="white" stroke="black" points="545,-316.5 545,-335.5 705,-335.5 705,-316.5 545,-316.5"/>
<text text-anchor="middle" x="625" y="-323.5" font-family="Helvetica,sans-Serif" font-size="10.00">Backend.Parser.getNextString</text>
</a>
</g>
</g>
<!-- Node5&#45;&gt;Node6 -->
<g id="edge5" class="edge"><title>Node5&#45;&gt;Node6</title>
<path fill="none" stroke="midnightblue" d="M501.758,-312.349C512.509,-313.549 523.66,-314.795 534.658,-316.023"/>
<polygon fill="midnightblue" stroke="midnightblue" points="534.372,-319.513 544.699,-317.144 535.149,-312.556 534.372,-319.513"/>
</g>
<!-- Node8 -->
<g id="node8" class="node"><title>Node8</title>
<g id="a_node8"><a xlink:href="../../da/de9/class_backend_1_1_parser.html#af7a0fc52eb5fe8714367d85241ba9e84" target="_top" xlink:title="Backend.Parser.convertResource\lBundleToMap">
<polygon fill="white" stroke="black" points="538.5,-267 538.5,-297 711.5,-297 711.5,-267 538.5,-267"/>
<text text-anchor="start" x="546.5" y="-285" font-family="Helvetica,sans-Serif" font-size="10.00">Backend.Parser.convertResource</text>
<text text-anchor="middle" x="625" y="-274" font-family="Helvetica,sans-Serif" font-size="10.00">BundleToMap</text>
</a>
</g>
</g>
<!-- Node7&#45;&gt;Node8 -->
<g id="edge7" class="edge"><title>Node7&#45;&gt;Node8</title>
<path fill="none" stroke="midnightblue" d="M490.688,-267.112C502.663,-268.45 515.426,-269.875 528.13,-271.294"/>
<polygon fill="midnightblue" stroke="midnightblue" points="527.963,-274.797 538.29,-272.428 528.74,-267.84 527.963,-274.797"/>
</g>
<!-- Node9 -->
<g id="node9" class="node"><title>Node9</title>
<g id="a_node9"><a xlink:href="../../da/de9/class_backend_1_1_parser.html#a57ac3fe734297dc7b65d56ab69a19fc6" target="_top" xlink:title="Backend.Parser.convert">
<polygon fill="white" stroke="black" points="560.5,-228.5 560.5,-247.5 689.5,-247.5 689.5,-228.5 560.5,-228.5"/>
<text text-anchor="middle" x="625" y="-235.5" font-family="Helvetica,sans-Serif" font-size="10.00">Backend.Parser.convert</text>
</a>
</g>
</g>
<!-- Node7&#45;&gt;Node9 -->
<g id="edge8" class="edge"><title>Node7&#45;&gt;Node9</title>
<path fill="none" stroke="midnightblue" d="M490.688,-252.888C509.642,-250.771 530.57,-248.434 550.116,-246.251"/>
<polygon fill="midnightblue" stroke="midnightblue" points="550.644,-249.714 560.194,-245.126 549.867,-242.757 550.644,-249.714"/>
</g>
<!-- Node11 -->
<g id="node11" class="node"><title>Node11</title>
<g id="a_node11"><a xlink:href="../../df/dac/class_nodes_1_1_node.html#ae200fe31f562bfb695af21f5673b8345" target="_top" xlink:title="Nodes.Node.addChildren">
<polygon fill="white" stroke="black" points="557,-190.5 557,-209.5 693,-209.5 693,-190.5 557,-190.5"/>
<text text-anchor="middle" x="625" y="-197.5" font-family="Helvetica,sans-Serif" font-size="10.00">Nodes.Node.addChildren</text>
</a>
</g>
</g>
<!-- Node10&#45;&gt;Node11 -->
<g id="edge10" class="edge"><title>Node10&#45;&gt;Node11</title>
<path fill="none" stroke="midnightblue" d="M442.594,-133.648C463.56,-146.23 502.335,-168.146 538,-181 545.282,-183.625 553.048,-185.954 560.82,-188.003"/>
<polygon fill="midnightblue" stroke="midnightblue" points="560.084,-191.426 570.633,-190.449 561.776,-184.634 560.084,-191.426"/>
</g>
<!-- Node13 -->
<g id="node13" class="node"><title>Node13</title>
<g id="a_node13"><a xlink:href="../../df/dac/class_nodes_1_1_node.html#ace0ce29f3bed613594598fab03985985" target="_top" xlink:title="Nodes.Node.clearChildren">
<polygon fill="white" stroke="black" points="554.5,-152.5 554.5,-171.5 695.5,-171.5 695.5,-152.5 554.5,-152.5"/>
<text text-anchor="middle" x="625" y="-159.5" font-family="Helvetica,sans-Serif" font-size="10.00">Nodes.Node.clearChildren</text>
</a>
</g>
</g>
<!-- Node10&#45;&gt;Node13 -->
<g id="edge12" class="edge"><title>Node10&#45;&gt;Node13</title>
<path fill="none" stroke="midnightblue" d="M476.457,-133.54C503.154,-138.69 536.304,-145.084 564.415,-150.506"/>
<polygon fill="midnightblue" stroke="midnightblue" points="564.041,-153.999 574.523,-152.456 565.366,-147.125 564.041,-153.999"/>
</g>
<!-- Node14 -->
<g id="node14" class="node"><title>Node14</title>
<g id="a_node14"><a xlink:href="../../df/dac/class_nodes_1_1_node.html#a74e0332d0a40c6575211d9c7e5432df1" target="_top" xlink:title="Nodes.Node.getParent">
<polygon fill="white" stroke="black" points="562.5,-114.5 562.5,-133.5 687.5,-133.5 687.5,-114.5 562.5,-114.5"/>
<text text-anchor="middle" x="625" y="-121.5" font-family="Helvetica,sans-Serif" font-size="10.00">Nodes.Node.getParent</text>
</a>
</g>
</g>
<!-- Node10&#45;&gt;Node14 -->
<g id="edge13" class="edge"><title>Node10&#45;&gt;Node14</title>
<path fill="none" stroke="midnightblue" d="M497.565,-124C515.285,-124 534.32,-124 552.104,-124"/>
<polygon fill="midnightblue" stroke="midnightblue" points="552.411,-127.5 562.411,-124 552.411,-120.5 552.411,-127.5"/>
</g>
<!-- Node15 -->
<g id="node15" class="node"><title>Node15</title>
<g id="a_node15"><a xlink:href="../../df/dac/class_nodes_1_1_node.html#aec63a25442128910503dee368ee4328b" target="_top" xlink:title="Nodes.Node.isFinished">
<polygon fill="white" stroke="black" points="562.5,-76.5 562.5,-95.5 687.5,-95.5 687.5,-76.5 562.5,-76.5"/>
<text text-anchor="middle" x="625" y="-83.5" font-family="Helvetica,sans-Serif" font-size="10.00">Nodes.Node.isFinished</text>
</a>
</g>
</g>
<!-- Node10&#45;&gt;Node15 -->
<g id="edge14" class="edge"><title>Node10&#45;&gt;Node15</title>
<path fill="none" stroke="midnightblue" d="M476.457,-114.46C503.154,-109.31 536.304,-102.916 564.415,-97.4935"/>
<polygon fill="midnightblue" stroke="midnightblue" points="565.366,-100.875 574.523,-95.5439 564.041,-94.0013 565.366,-100.875"/>
</g>
<!-- Node16 -->
<g id="node16" class="node"><title>Node16</title>
<g id="a_node16"><a xlink:href="../../df/dac/class_nodes_1_1_node.html#a072be25270214e88e4f3d954edd4e98d" target="_top" xlink:title="Nodes.Node.returnPrintValue">
<polygon fill="white" stroke="black" points="547,-38.5 547,-57.5 703,-57.5 703,-38.5 547,-38.5"/>
<text text-anchor="middle" x="625" y="-45.5" font-family="Helvetica,sans-Serif" font-size="10.00">Nodes.Node.returnPrintValue</text>
</a>
</g>
</g>
<!-- Node10&#45;&gt;Node16 -->
<g id="edge15" class="edge"><title>Node10&#45;&gt;Node16</title>
<path fill="none" stroke="midnightblue" d="M442.594,-114.352C463.56,-101.77 502.335,-79.854 538,-67 545.282,-64.3754 553.048,-62.0458 560.82,-59.9972"/>
<polygon fill="midnightblue" stroke="midnightblue" points="561.776,-63.366 570.633,-57.5515 560.084,-56.5737 561.776,-63.366"/>
</g>
<!-- Node17 -->
<g id="node17" class="node"><title>Node17</title>
<g id="a_node17"><a xlink:href="../../df/dac/class_nodes_1_1_node.html#adf0f88f5b587f4324d763d63b743bb29" target="_top" xlink:title="Nodes.Node.update">
<polygon fill="white" stroke="black" points="568.5,-0.5 568.5,-19.5 681.5,-19.5 681.5,-0.5 568.5,-0.5"/>
<text text-anchor="middle" x="625" y="-7.5" font-family="Helvetica,sans-Serif" font-size="10.00">Nodes.Node.update</text>
</a>
</g>
</g>
<!-- Node10&#45;&gt;Node17 -->
<g id="edge16" class="edge"><title>Node10&#45;&gt;Node17</title>
<path fill="none" stroke="midnightblue" d="M435.103,-114.447C452.08,-95.0886 493.511,-51.1896 538,-29 544.491,-25.7626 551.529,-23.0725 558.689,-20.8382"/>
<polygon fill="midnightblue" stroke="midnightblue" points="559.819,-24.1559 568.488,-18.0652 557.913,-17.4204 559.819,-24.1559"/>
</g>
<!-- Node12 -->
<g id="node12" class="node"><title>Node12</title>
<g id="a_node12"><a xlink:href="../../df/dac/class_nodes_1_1_node.html#a95dd6a377e7e4db934301bd83ddfd12c" target="_top" xlink:title="Nodes.Node.setParent">
<polygon fill="white" stroke="black" points="748.5,-190.5 748.5,-209.5 873.5,-209.5 873.5,-190.5 748.5,-190.5"/>
<text text-anchor="middle" x="811" y="-197.5" font-family="Helvetica,sans-Serif" font-size="10.00">Nodes.Node.setParent</text>
</a>
</g>
</g>
<!-- Node11&#45;&gt;Node12 -->
<g id="edge11" class="edge"><title>Node11&#45;&gt;Node12</title>
<path fill="none" stroke="midnightblue" d="M693.209,-200C707.89,-200 723.48,-200 738.327,-200"/>
<polygon fill="midnightblue" stroke="midnightblue" points="738.467,-203.5 748.467,-200 738.467,-196.5 738.467,-203.5"/>
</g>
</g>
</svg>
