<?xml version="1.0" encoding="UTF-8" standalone="no"?>
<!DOCTYPE svg PUBLIC "-//W3C//DTD SVG 1.1//EN"
 "http://www.w3.org/Graphics/SVG/1.1/DTD/svg11.dtd">
<!-- Generated by graphviz version 2.36.0 (20140111.2315)
 -->
<!-- Title: FrontEnd.StringChooser Pages: 1 -->
<svg width="238pt" height="96pt"
 viewBox="0.00 0.00 238.00 96.00" xmlns="http://www.w3.org/2000/svg" xmlns:xlink="http://www.w3.org/1999/xlink">
<g id="graph0" class="graph" transform="scale(1 1) rotate(0) translate(4 92)">
<title>FrontEnd.StringChooser</title>
<polygon fill="white" stroke="none" points="-4,4 -4,-92 234,-92 234,4 -4,4"/>
<!-- Node1 -->
<g id="node1" class="node"><title>Node1</title>
<polygon fill="#bfbfbf" stroke="black" points="34,-0.5 34,-19.5 164,-19.5 164,-0.5 34,-0.5"/>
<text text-anchor="middle" x="99" y="-7.5" font-family="Helvetica,sans-Serif" font-size="10.00">FrontEnd.StringChooser</text>
</g>
<!-- Node2 -->
<g id="node2" class="node"><title>Node2</title>
<polygon fill="white" stroke="#bfbfbf" points="-0.5,-68.5 -0.5,-87.5 92.5,-87.5 92.5,-68.5 -0.5,-68.5"/>
<text text-anchor="middle" x="46" y="-75.5" font-family="Helvetica,sans-Serif" font-size="10.00">ResourceBundle</text>
</g>
<!-- Node2&#45;&gt;Node1 -->
<g id="edge1" class="edge"><title>Node2&#45;&gt;Node1</title>
<path fill="none" stroke="#9a32cd" stroke-dasharray="5,2" d="M49.5032,-58.5303C51.4671,-51.6019 54.4684,-43.9685 59,-38 64.7758,-30.3928 73.3397,-24.2066 81.0631,-19.6843"/>
<polygon fill="#9a32cd" stroke="#9a32cd" points="46.0415,-57.9658 47.2001,-68.4971 52.8618,-59.5419 46.0415,-57.9658"/>
<text text-anchor="middle" x="94.5" y="-41.5" font-family="Helvetica,sans-Serif" font-size="10.00"> myLanguages</text>
</g>
<!-- Node3 -->
<g id="node3" class="node"><title>Node3</title>
<polygon fill="white" stroke="#bfbfbf" points="110,-68.5 110,-87.5 194,-87.5 194,-68.5 110,-68.5"/>
<text text-anchor="middle" x="152" y="-75.5" font-family="Helvetica,sans-Serif" font-size="10.00">List&lt; String &gt;</text>
</g>
<!-- Node3&#45;&gt;Node1 -->
<g id="edge2" class="edge"><title>Node3&#45;&gt;Node1</title>
<path fill="none" stroke="#9a32cd" stroke-dasharray="5,2" d="M143.571,-59.1312C139.887,-52.1942 135.214,-44.3964 130,-38 124.408,-31.1404 116.96,-24.5913 110.766,-19.6614"/>
<polygon fill="#9a32cd" stroke="#9a32cd" points="140.609,-61.0333 148.208,-68.4154 146.871,-57.9053 140.609,-61.0333"/>
<text text-anchor="middle" x="183.5" y="-41.5" font-family="Helvetica,sans-Serif" font-size="10.00"> myLanguageOrder</text>
</g>
</g>
</svg>
