<?xml version="1.0" encoding="UTF-8" standalone="no"?>
<!DOCTYPE svg PUBLIC "-//W3C//DTD SVG 1.1//EN"
 "http://www.w3.org/Graphics/SVG/1.1/DTD/svg11.dtd">
<!-- Generated by graphviz version 2.36.0 (20140111.2315)
 -->
<!-- Title: Nodes.math.NaturalLogNode Pages: 1 -->
<svg width="177pt" height="290pt"
 viewBox="0.00 0.00 177.00 290.00" xmlns="http://www.w3.org/2000/svg" xmlns:xlink="http://www.w3.org/1999/xlink">
<g id="graph0" class="graph" transform="scale(1 1) rotate(0) translate(4 286)">
<title>Nodes.math.NaturalLogNode</title>
<polygon fill="white" stroke="none" points="-4,4 -4,-286 173,-286 173,4 -4,4"/>
<!-- Node1 -->
<g id="node1" class="node"><title>Node1</title>
<polygon fill="#bfbfbf" stroke="black" points="-0.5,-0.5 -0.5,-19.5 156.5,-19.5 156.5,-0.5 -0.5,-0.5"/>
<text text-anchor="middle" x="78" y="-7.5" font-family="Helvetica,sans-Serif" font-size="10.00">Nodes.math.NaturalLogNode</text>
</g>
<!-- Node2 -->
<g id="node2" class="node"><title>Node2</title>
<g id="a_node2"><a xlink:href="../../db/d09/class_nodes_1_1math_1_1_one_child_node.html" target="_top" xlink:title="Nodes.math.OneChildNode">
<polygon fill="white" stroke="black" points="4.5,-58.5 4.5,-77.5 151.5,-77.5 151.5,-58.5 4.5,-58.5"/>
<text text-anchor="middle" x="78" y="-65.5" font-family="Helvetica,sans-Serif" font-size="10.00">Nodes.math.OneChildNode</text>
</a>
</g>
</g>
<!-- Node2&#45;&gt;Node1 -->
<g id="edge1" class="edge"><title>Node2&#45;&gt;Node1</title>
<path fill="none" stroke="midnightblue" d="M78,-47.953C78,-38.2875 78,-27.0312 78,-19.5052"/>
<polygon fill="midnightblue" stroke="midnightblue" points="74.5001,-48.25 78,-58.25 81.5001,-48.25 74.5001,-48.25"/>
</g>
<!-- Node3 -->
<g id="node3" class="node"><title>Node3</title>
<g id="a_node3"><a xlink:href="../../de/d80/class_nodes_1_1math_1_1_math_node.html" target="_top" xlink:title="Nodes.math.MathNode">
<polygon fill="white" stroke="black" points="14,-116.5 14,-135.5 142,-135.5 142,-116.5 14,-116.5"/>
<text text-anchor="middle" x="78" y="-123.5" font-family="Helvetica,sans-Serif" font-size="10.00">Nodes.math.MathNode</text>
</a>
</g>
</g>
<!-- Node3&#45;&gt;Node2 -->
<g id="edge2" class="edge"><title>Node3&#45;&gt;Node2</title>
<path fill="none" stroke="midnightblue" d="M78,-105.953C78,-96.2875 78,-85.0312 78,-77.5052"/>
<polygon fill="midnightblue" stroke="midnightblue" points="74.5001,-106.25 78,-116.25 81.5001,-106.25 74.5001,-106.25"/>
</g>
<!-- Node4 -->
<g id="node4" class="node"><title>Node4</title>
<g id="a_node4"><a xlink:href="../../df/dac/class_nodes_1_1_node.html" target="_top" xlink:title="Nodes.Node">
<polygon fill="white" stroke="black" points="40,-194.5 40,-213.5 116,-213.5 116,-194.5 40,-194.5"/>
<text text-anchor="middle" x="78" y="-201.5" font-family="Helvetica,sans-Serif" font-size="10.00">Nodes.Node</text>
</a>
</g>
</g>
<!-- Node4&#45;&gt;Node3 -->
<g id="edge3" class="edge"><title>Node4&#45;&gt;Node3</title>
<path fill="none" stroke="midnightblue" d="M76.4399,-184.382C76.2572,-181.575 76.1003,-178.713 76,-176 75.6386,-166.229 75.6386,-163.771 76,-154 76.2293,-147.8 76.7539,-140.815 77.2083,-135.503"/>
<polygon fill="midnightblue" stroke="midnightblue" points="72.9607,-184.791 77.2083,-194.497 79.9406,-184.26 72.9607,-184.791"/>
</g>
<!-- Node4&#45;&gt;Node3 -->
<g id="edge6" class="edge"><title>Node4&#45;&gt;Node3</title>
<path fill="none" stroke="#9a32cd" stroke-dasharray="5,2" d="M78,-184.224C78,-168.697 78,-147.358 78,-135.616"/>
<polygon fill="#9a32cd" stroke="#9a32cd" points="74.5001,-184.282 78,-194.282 81.5001,-184.282 74.5001,-184.282"/>
<text text-anchor="middle" x="90.5" y="-168" font-family="Helvetica,sans-Serif" font-size="10.00"> right</text>
<text text-anchor="middle" x="90.5" y="-157" font-family="Helvetica,sans-Serif" font-size="10.00">left</text>
</g>
<!-- Node4&#45;&gt;Node4 -->
<g id="edge5" class="edge"><title>Node4&#45;&gt;Node4</title>
<path fill="none" stroke="#9a32cd" stroke-dasharray="5,2" d="M126.289,-209.176C131.006,-208.133 134,-206.407 134,-204 134,-200.148 126.335,-198.042 116.214,-197.681"/>
<polygon fill="#9a32cd" stroke="#9a32cd" points="125.756,-205.714 116.214,-210.319 126.545,-212.67 125.756,-205.714"/>
<text text-anchor="middle" x="151.5" y="-201.5" font-family="Helvetica,sans-Serif" font-size="10.00"> parent</text>
</g>
<!-- Node5 -->
<g id="node5" class="node"><title>Node5</title>
<polygon fill="white" stroke="#bfbfbf" points="8,-262.5 8,-281.5 148,-281.5 148,-262.5 8,-262.5"/>
<text text-anchor="middle" x="78" y="-269.5" font-family="Helvetica,sans-Serif" font-size="10.00">ArrayList&lt; Nodes.Node &gt;</text>
</g>
<!-- Node5&#45;&gt;Node4 -->
<g id="edge4" class="edge"><title>Node5&#45;&gt;Node4</title>
<path fill="none" stroke="#9a32cd" stroke-dasharray="5,2" d="M78,-252.041C78,-239.472 78,-223.563 78,-213.841"/>
<polygon fill="#9a32cd" stroke="#9a32cd" points="74.5001,-252.372 78,-262.372 81.5001,-252.372 74.5001,-252.372"/>
<text text-anchor="middle" x="107" y="-235.5" font-family="Helvetica,sans-Serif" font-size="10.00"> myChildren</text>
</g>
</g>
</svg>
