<?xml version="1.0" encoding="UTF-8" standalone="no"?>
<!DOCTYPE svg PUBLIC "-//W3C//DTD SVG 1.1//EN"
 "http://www.w3.org/Graphics/SVG/1.1/DTD/svg11.dtd">
<!-- Generated by graphviz version 2.36.0 (20140111.2315)
 -->
<!-- Title: Backend.Turtle.getAngle Pages: 1 -->
<svg width="334pt" height="87pt"
 viewBox="0.00 0.00 334.00 87.00" xmlns="http://www.w3.org/2000/svg" xmlns:xlink="http://www.w3.org/1999/xlink">
<g id="graph0" class="graph" transform="scale(1 1) rotate(0) translate(4 83)">
<title>Backend.Turtle.getAngle</title>
<polygon fill="white" stroke="none" points="-4,4 -4,-83 330,-83 330,4 -4,4"/>
<!-- Node1 -->
<g id="node1" class="node"><title>Node1</title>
<polygon fill="#bfbfbf" stroke="black" points="0,-29.5 0,-48.5 132,-48.5 132,-29.5 0,-29.5"/>
<text text-anchor="middle" x="66" y="-36.5" font-family="Helvetica,sans-Serif" font-size="10.00">Backend.Turtle.getAngle</text>
</g>
<!-- Node2 -->
<g id="node2" class="node"><title>Node2</title>
<g id="a_node2"><a xlink:href="../../d8/d7e/class_nodes_1_1turtlecommands_1_1_left_node.html#ab824d70c09e8c931d7895ea51f0aa096" target="_top" xlink:title="Nodes.turtlecommands.Left\lNode.update">
<polygon fill="white" stroke="black" points="171.5,-49 171.5,-79 322.5,-79 322.5,-49 171.5,-49"/>
<text text-anchor="start" x="179.5" y="-67" font-family="Helvetica,sans-Serif" font-size="10.00">Nodes.turtlecommands.Left</text>
<text text-anchor="middle" x="247" y="-56" font-family="Helvetica,sans-Serif" font-size="10.00">Node.update</text>
</a>
</g>
</g>
<!-- Node1&#45;&gt;Node2 -->
<g id="edge1" class="edge"><title>Node1&#45;&gt;Node2</title>
<path fill="none" stroke="midnightblue" d="M142.07,-49.4847C151.708,-50.8307 161.574,-52.2087 171.207,-53.5541"/>
<polygon fill="midnightblue" stroke="midnightblue" points="142.517,-46.0132 132.129,-48.0963 141.549,-52.946 142.517,-46.0132"/>
</g>
<!-- Node3 -->
<g id="node3" class="node"><title>Node3</title>
<g id="a_node3"><a xlink:href="../../d0/dcd/class_nodes_1_1turtlecommands_1_1_right_node.html#ad65db17a9900ef3bd5e4d82a7c64cfff" target="_top" xlink:title="Nodes.turtlecommands.Right\lNode.update">
<polygon fill="white" stroke="black" points="168.5,-0 168.5,-30 325.5,-30 325.5,-0 168.5,-0"/>
<text text-anchor="start" x="176.5" y="-18" font-family="Helvetica,sans-Serif" font-size="10.00">Nodes.turtlecommands.Right</text>
<text text-anchor="middle" x="247" y="-7" font-family="Helvetica,sans-Serif" font-size="10.00">Node.update</text>
</a>
</g>
</g>
<!-- Node1&#45;&gt;Node3 -->
<g id="edge2" class="edge"><title>Node1&#45;&gt;Node3</title>
<path fill="none" stroke="midnightblue" d="M142.207,-28.9164C150.88,-27.7535 159.738,-26.5659 168.442,-25.3989"/>
<polygon fill="midnightblue" stroke="midnightblue" points="141.576,-25.4696 132.129,-30.2676 142.506,-32.4075 141.576,-25.4696"/>
</g>
</g>
</svg>
