<?xml version="1.0" encoding="UTF-8" standalone="no"?>
<!DOCTYPE svg PUBLIC "-//W3C//DTD SVG 1.1//EN"
 "http://www.w3.org/Graphics/SVG/1.1/DTD/svg11.dtd">
<!-- Generated by graphviz version 2.36.0 (20140111.2315)
 -->
<!-- Title: Backend.Turtle.addLocation Pages: 1 -->
<svg width="1010pt" height="180pt"
 viewBox="0.00 0.00 1010.00 180.00" xmlns="http://www.w3.org/2000/svg" xmlns:xlink="http://www.w3.org/1999/xlink">
<g id="graph0" class="graph" transform="scale(1 1) rotate(0) translate(4 176)">
<title>Backend.Turtle.addLocation</title>
<polygon fill="white" stroke="none" points="-4,4 -4,-176 1006,-176 1006,4 -4,4"/>
<!-- Node1 -->
<g id="node1" class="node"><title>Node1</title>
<polygon fill="#bfbfbf" stroke="black" points="0,-76.5 0,-95.5 148,-95.5 148,-76.5 0,-76.5"/>
<text text-anchor="middle" x="74" y="-83.5" font-family="Helvetica,sans-Serif" font-size="10.00">Backend.Turtle.addLocation</text>
</g>
<!-- Node2 -->
<g id="node2" class="node"><title>Node2</title>
<g id="a_node2"><a xlink:href="../../d5/d67/class_front_end_1_1_boundary.html#a0431407e4d8e1dee03220aba60caef08" target="_top" xlink:title="FrontEnd.Boundary.checkBoundary">
<polygon fill="white" stroke="black" points="184,-95.5 184,-114.5 366,-114.5 366,-95.5 184,-95.5"/>
<text text-anchor="middle" x="275" y="-102.5" font-family="Helvetica,sans-Serif" font-size="10.00">FrontEnd.Boundary.checkBoundary</text>
</a>
</g>
</g>
<!-- Node1&#45;&gt;Node2 -->
<g id="edge1" class="edge"><title>Node1&#45;&gt;Node2</title>
<path fill="none" stroke="midnightblue" d="M148.252,-92.994C156.536,-93.7849 165.082,-94.6008 173.636,-95.4175"/>
<polygon fill="midnightblue" stroke="midnightblue" points="173.379,-98.9088 183.666,-96.3752 174.044,-91.9405 173.379,-98.9088"/>
</g>
<!-- Node3 -->
<g id="node3" class="node"><title>Node3</title>
<g id="a_node3"><a xlink:href="../../d1/de0/class_backend_1_1_turtle.html#a94cbed3c9c0c33e1ea8e8b3c51c26c73" target="_top" xlink:title="Backend.Turtle.move">
<polygon fill="white" stroke="black" points="217,-57.5 217,-76.5 333,-76.5 333,-57.5 217,-57.5"/>
<text text-anchor="middle" x="275" y="-64.5" font-family="Helvetica,sans-Serif" font-size="10.00">Backend.Turtle.move</text>
</a>
</g>
</g>
<!-- Node1&#45;&gt;Node3 -->
<g id="edge2" class="edge"><title>Node1&#45;&gt;Node3</title>
<path fill="none" stroke="midnightblue" d="M148.252,-79.006C167.416,-77.1763 187.979,-75.2131 206.81,-73.4152"/>
<polygon fill="midnightblue" stroke="midnightblue" points="207.155,-76.8982 216.777,-72.4635 206.489,-69.9299 207.155,-76.8982"/>
</g>
<!-- Node4 -->
<g id="node4" class="node"><title>Node4</title>
<g id="a_node4"><a xlink:href="../../d9/d38/class_turtle_view_1_1_turtle_information.html#ad65201793ce738f9c6d6e592271c14e1" target="_top" xlink:title="TurtleView.TurtleInformation.update">
<polygon fill="white" stroke="black" points="402.5,-76.5 402.5,-95.5 585.5,-95.5 585.5,-76.5 402.5,-76.5"/>
<text text-anchor="middle" x="494" y="-83.5" font-family="Helvetica,sans-Serif" font-size="10.00">TurtleView.TurtleInformation.update</text>
</a>
</g>
</g>
<!-- Node3&#45;&gt;Node4 -->
<g id="edge3" class="edge"><title>Node3&#45;&gt;Node4</title>
<path fill="none" stroke="midnightblue" d="M333.014,-71.992C351.252,-73.5889 372.016,-75.4069 392.405,-77.1922"/>
<polygon fill="midnightblue" stroke="midnightblue" points="392.105,-80.6792 402.372,-78.0648 392.716,-73.7058 392.105,-80.6792"/>
</g>
<!-- Node11 -->
<g id="node11" class="node"><title>Node11</title>
<g id="a_node11"><a xlink:href="../../dc/ded/class_turtle_view_1_1_active_ring.html#ae05a085760f46b9f8e6927001c363e39" target="_top" xlink:title="TurtleView.ActiveRing.update">
<polygon fill="white" stroke="black" points="418,-38.5 418,-57.5 570,-57.5 570,-38.5 418,-38.5"/>
<text text-anchor="middle" x="494" y="-45.5" font-family="Helvetica,sans-Serif" font-size="10.00">TurtleView.ActiveRing.update</text>
</a>
</g>
</g>
<!-- Node3&#45;&gt;Node11 -->
<g id="edge11" class="edge"><title>Node3&#45;&gt;Node11</title>
<path fill="none" stroke="midnightblue" d="M333.014,-62.008C355.86,-60.0076 382.671,-57.6602 407.744,-55.4648"/>
<polygon fill="midnightblue" stroke="midnightblue" points="408.337,-58.9264 417.993,-54.5674 407.726,-51.9531 408.337,-58.9264"/>
</g>
<!-- Node5 -->
<g id="node5" class="node"><title>Node5</title>
<g id="a_node5"><a xlink:href="../../d9/d38/class_turtle_view_1_1_turtle_information.html#aca65258778dade3baa31e0d5ec643b3b" target="_top" xlink:title="TurtleView.TurtleInformation.emptyInfo">
<polygon fill="white" stroke="black" points="622.5,-152.5 622.5,-171.5 819.5,-171.5 819.5,-152.5 622.5,-152.5"/>
<text text-anchor="middle" x="721" y="-159.5" font-family="Helvetica,sans-Serif" font-size="10.00">TurtleView.TurtleInformation.emptyInfo</text>
</a>
</g>
</g>
<!-- Node4&#45;&gt;Node5 -->
<g id="edge4" class="edge"><title>Node4&#45;&gt;Node5</title>
<path fill="none" stroke="midnightblue" d="M512.988,-95.6734C537.138,-108.284 581.68,-130.232 622,-143 630.675,-145.747 639.915,-148.167 649.122,-150.278"/>
<polygon fill="midnightblue" stroke="midnightblue" points="648.555,-153.736 659.072,-152.448 650.047,-146.897 648.555,-153.736"/>
</g>
<!-- Node6 -->
<g id="node6" class="node"><title>Node6</title>
<g id="a_node6"><a xlink:href="../../d1/de0/class_backend_1_1_turtle.html#adc7cb6cc95ee918547d2b18d8bb20183" target="_top" xlink:title="Backend.Turtle.getID">
<polygon fill="white" stroke="black" points="663.5,-114.5 663.5,-133.5 778.5,-133.5 778.5,-114.5 663.5,-114.5"/>
<text text-anchor="middle" x="721" y="-121.5" font-family="Helvetica,sans-Serif" font-size="10.00">Backend.Turtle.getID</text>
</a>
</g>
</g>
<!-- Node4&#45;&gt;Node6 -->
<g id="edge5" class="edge"><title>Node4&#45;&gt;Node6</title>
<path fill="none" stroke="midnightblue" d="M551.487,-95.54C582.379,-100.757 620.837,-107.253 653.21,-112.72"/>
<polygon fill="midnightblue" stroke="midnightblue" points="653.047,-116.242 663.49,-114.456 654.213,-109.34 653.047,-116.242"/>
</g>
<!-- Node7 -->
<g id="node7" class="node"><title>Node7</title>
<g id="a_node7"><a xlink:href="../../d9/d38/class_turtle_view_1_1_turtle_information.html#a15bd13ad05cabb76c0861d0ab42722ef" target="_top" xlink:title="TurtleView.TurtleInformation.truncate">
<polygon fill="white" stroke="black" points="626,-76.5 626,-95.5 816,-95.5 816,-76.5 626,-76.5"/>
<text text-anchor="middle" x="721" y="-83.5" font-family="Helvetica,sans-Serif" font-size="10.00">TurtleView.TurtleInformation.truncate</text>
</a>
</g>
</g>
<!-- Node4&#45;&gt;Node7 -->
<g id="edge6" class="edge"><title>Node4&#45;&gt;Node7</title>
<path fill="none" stroke="midnightblue" d="M585.544,-86C595.526,-86 605.749,-86 615.88,-86"/>
<polygon fill="midnightblue" stroke="midnightblue" points="615.969,-89.5001 625.969,-86 615.969,-82.5001 615.969,-89.5001"/>
</g>
<!-- Node8 -->
<g id="node8" class="node"><title>Node8</title>
<g id="a_node8"><a xlink:href="../../d1/de0/class_backend_1_1_turtle.html#a715f94909b1ba74dc9e4f9eb4fd91e10" target="_top" xlink:title="Backend.Turtle.getXCord">
<polygon fill="white" stroke="black" points="654.5,-38.5 654.5,-57.5 787.5,-57.5 787.5,-38.5 654.5,-38.5"/>
<text text-anchor="middle" x="721" y="-45.5" font-family="Helvetica,sans-Serif" font-size="10.00">Backend.Turtle.getXCord</text>
</a>
</g>
</g>
<!-- Node4&#45;&gt;Node8 -->
<g id="edge7" class="edge"><title>Node4&#45;&gt;Node8</title>
<path fill="none" stroke="midnightblue" d="M551.487,-76.46C582.379,-71.2426 620.837,-64.7475 653.21,-59.28"/>
<polygon fill="midnightblue" stroke="midnightblue" points="654.213,-62.6604 663.49,-57.5439 653.047,-55.7581 654.213,-62.6604"/>
</g>
<!-- Node10 -->
<g id="node10" class="node"><title>Node10</title>
<g id="a_node10"><a xlink:href="../../d1/de0/class_backend_1_1_turtle.html#a692174eccea232fc58e725cff6f50359" target="_top" xlink:title="Backend.Turtle.getYCord">
<polygon fill="white" stroke="black" points="655,-0.5 655,-19.5 787,-19.5 787,-0.5 655,-0.5"/>
<text text-anchor="middle" x="721" y="-7.5" font-family="Helvetica,sans-Serif" font-size="10.00">Backend.Turtle.getYCord</text>
</a>
</g>
</g>
<!-- Node4&#45;&gt;Node10 -->
<g id="edge9" class="edge"><title>Node4&#45;&gt;Node10</title>
<path fill="none" stroke="midnightblue" d="M563.73,-76.3825C571.499,-73.9297 579.095,-70.8546 586,-67 606.314,-55.6606 601.605,-40.1936 622,-29 629.129,-25.0874 636.937,-21.9707 644.935,-19.4897"/>
<polygon fill="midnightblue" stroke="midnightblue" points="646.052,-22.8123 654.753,-16.7679 644.181,-16.0667 646.052,-22.8123"/>
</g>
<!-- Node9 -->
<g id="node9" class="node"><title>Node9</title>
<g id="a_node9"><a xlink:href="../../d1/de0/class_backend_1_1_turtle.html#a33957258db9a7205d470c5a2d22b89af" target="_top" xlink:title="Backend.Turtle.getLocation">
<polygon fill="white" stroke="black" points="856,-19.5 856,-38.5 1002,-38.5 1002,-19.5 856,-19.5"/>
<text text-anchor="middle" x="929" y="-26.5" font-family="Helvetica,sans-Serif" font-size="10.00">Backend.Turtle.getLocation</text>
</a>
</g>
</g>
<!-- Node8&#45;&gt;Node9 -->
<g id="edge8" class="edge"><title>Node8&#45;&gt;Node9</title>
<path fill="none" stroke="midnightblue" d="M787.746,-41.936C806.196,-40.2344 826.489,-38.3627 845.769,-36.5845"/>
<polygon fill="midnightblue" stroke="midnightblue" points="846.107,-40.0682 855.743,-35.6645 845.464,-33.0978 846.107,-40.0682"/>
</g>
<!-- Node10&#45;&gt;Node9 -->
<g id="edge10" class="edge"><title>Node10&#45;&gt;Node9</title>
<path fill="none" stroke="midnightblue" d="M787.18,-16.0117C805.749,-17.7245 826.224,-19.6129 845.673,-21.4067"/>
<polygon fill="midnightblue" stroke="midnightblue" points="845.455,-24.9014 855.734,-22.3347 846.098,-17.931 845.455,-24.9014"/>
</g>
</g>
</svg>
