<?xml version="1.0" encoding="UTF-8" standalone="no"?>
<!DOCTYPE svg PUBLIC "-//W3C//DTD SVG 1.1//EN"
 "http://www.w3.org/Graphics/SVG/1.1/DTD/svg11.dtd">
<!-- Generated by graphviz version 2.36.0 (20140111.2315)
 -->
<!-- Title: Backend.Turtle.setAngle Pages: 1 -->
<svg width="334pt" height="185pt"
 viewBox="0.00 0.00 334.00 185.00" xmlns="http://www.w3.org/2000/svg" xmlns:xlink="http://www.w3.org/1999/xlink">
<g id="graph0" class="graph" transform="scale(1 1) rotate(0) translate(4 181)">
<title>Backend.Turtle.setAngle</title>
<polygon fill="white" stroke="none" points="-4,4 -4,-181 330,-181 330,4 -4,4"/>
<!-- Node1 -->
<g id="node1" class="node"><title>Node1</title>
<polygon fill="#bfbfbf" stroke="black" points="0.5,-78.5 0.5,-97.5 131.5,-97.5 131.5,-78.5 0.5,-78.5"/>
<text text-anchor="middle" x="66" y="-85.5" font-family="Helvetica,sans-Serif" font-size="10.00">Backend.Turtle.setAngle</text>
</g>
<!-- Node2 -->
<g id="node2" class="node"><title>Node2</title>
<g id="a_node2"><a xlink:href="../../d8/d7e/class_nodes_1_1turtlecommands_1_1_left_node.html#ab824d70c09e8c931d7895ea51f0aa096" target="_top" xlink:title="Nodes.turtlecommands.Left\lNode.update">
<polygon fill="white" stroke="black" points="171.5,-147 171.5,-177 322.5,-177 322.5,-147 171.5,-147"/>
<text text-anchor="start" x="179.5" y="-165" font-family="Helvetica,sans-Serif" font-size="10.00">Nodes.turtlecommands.Left</text>
<text text-anchor="middle" x="247" y="-154" font-family="Helvetica,sans-Serif" font-size="10.00">Node.update</text>
</a>
</g>
</g>
<!-- Node1&#45;&gt;Node2 -->
<g id="edge1" class="edge"><title>Node1&#45;&gt;Node2</title>
<path fill="none" stroke="midnightblue" d="M93.777,-102.279C113.868,-112.673 142.229,-126.679 168,-137 176.713,-140.489 186.117,-143.841 195.278,-146.894"/>
<polygon fill="midnightblue" stroke="midnightblue" points="95.3813,-99.168 84.8971,-97.6407 92.1406,-105.373 95.3813,-99.168"/>
</g>
<!-- Node3 -->
<g id="node3" class="node"><title>Node3</title>
<g id="a_node3"><a xlink:href="../../d0/dcd/class_nodes_1_1turtlecommands_1_1_right_node.html#ad65db17a9900ef3bd5e4d82a7c64cfff" target="_top" xlink:title="Nodes.turtlecommands.Right\lNode.update">
<polygon fill="white" stroke="black" points="168.5,-98 168.5,-128 325.5,-128 325.5,-98 168.5,-98"/>
<text text-anchor="start" x="176.5" y="-116" font-family="Helvetica,sans-Serif" font-size="10.00">Nodes.turtlecommands.Right</text>
<text text-anchor="middle" x="247" y="-105" font-family="Helvetica,sans-Serif" font-size="10.00">Node.update</text>
</a>
</g>
</g>
<!-- Node1&#45;&gt;Node3 -->
<g id="edge2" class="edge"><title>Node1&#45;&gt;Node3</title>
<path fill="none" stroke="midnightblue" d="M141.809,-98.4481C150.579,-99.673 159.542,-100.925 168.35,-102.155"/>
<polygon fill="midnightblue" stroke="midnightblue" points="142.011,-94.9425 131.623,-97.0256 141.043,-101.875 142.011,-94.9425"/>
</g>
<!-- Node4 -->
<g id="node4" class="node"><title>Node4</title>
<g id="a_node4"><a xlink:href="../../dc/d88/class_nodes_1_1turtlecommands_1_1_set_heading_node.html#a46d53dc6161265bd67e9c9323566e9f2" target="_top" xlink:title="Nodes.turtlecommands.Set\lHeadingNode.update">
<polygon fill="white" stroke="black" points="172.5,-49 172.5,-79 321.5,-79 321.5,-49 172.5,-49"/>
<text text-anchor="start" x="180.5" y="-67" font-family="Helvetica,sans-Serif" font-size="10.00">Nodes.turtlecommands.Set</text>
<text text-anchor="middle" x="247" y="-56" font-family="Helvetica,sans-Serif" font-size="10.00">HeadingNode.update</text>
</a>
</g>
</g>
<!-- Node1&#45;&gt;Node4 -->
<g id="edge3" class="edge"><title>Node1&#45;&gt;Node4</title>
<path fill="none" stroke="midnightblue" d="M141.665,-77.9891C151.813,-76.6284 162.224,-75.2326 172.354,-73.8743"/>
<polygon fill="midnightblue" stroke="midnightblue" points="141.069,-74.5375 131.623,-79.3354 142,-81.4754 141.069,-74.5375"/>
</g>
<!-- Node5 -->
<g id="node5" class="node"><title>Node5</title>
<g id="a_node5"><a xlink:href="../../df/d0e/class_nodes_1_1turtlecommands_1_1_set_towards_node.html#a54797797efb451e3f6bea12a6b996076" target="_top" xlink:title="Nodes.turtlecommands.Set\lTowardsNode.update">
<polygon fill="white" stroke="black" points="172.5,-0 172.5,-30 321.5,-30 321.5,-0 172.5,-0"/>
<text text-anchor="start" x="180.5" y="-18" font-family="Helvetica,sans-Serif" font-size="10.00">Nodes.turtlecommands.Set</text>
<text text-anchor="middle" x="247" y="-7" font-family="Helvetica,sans-Serif" font-size="10.00">TowardsNode.update</text>
</a>
</g>
</g>
<!-- Node1&#45;&gt;Node5 -->
<g id="edge4" class="edge"><title>Node1&#45;&gt;Node5</title>
<path fill="none" stroke="midnightblue" d="M94.451,-73.7295C114.518,-63.601 142.559,-50.0705 168,-40 176.859,-36.4934 186.423,-33.1099 195.717,-30.0252"/>
<polygon fill="midnightblue" stroke="midnightblue" points="92.6083,-70.7402 85.2868,-78.3983 95.7859,-76.9774 92.6083,-70.7402"/>
</g>
</g>
</svg>
