<?xml version="1.0" encoding="UTF-8" standalone="no"?>
<!DOCTYPE svg PUBLIC "-//W3C//DTD SVG 1.1//EN"
 "http://www.w3.org/Graphics/SVG/1.1/DTD/svg11.dtd">
<!-- Generated by graphviz version 2.36.0 (20140111.2315)
 -->
<!-- Title: Backend.Turtle.changeToLoadedImage Pages: 1 -->
<svg width="570pt" height="38pt"
 viewBox="0.00 0.00 570.00 38.00" xmlns="http://www.w3.org/2000/svg" xmlns:xlink="http://www.w3.org/1999/xlink">
<g id="graph0" class="graph" transform="scale(1 1) rotate(0) translate(4 34)">
<title>Backend.Turtle.changeToLoadedImage</title>
<polygon fill="white" stroke="none" points="-4,4 -4,-34 566,-34 566,4 -4,4"/>
<!-- Node1 -->
<g id="node1" class="node"><title>Node1</title>
<polygon fill="#bfbfbf" stroke="black" points="0,-0 0,-30 170,-30 170,-0 0,-0"/>
<text text-anchor="start" x="8" y="-18" font-family="Helvetica,sans-Serif" font-size="10.00">Backend.Turtle.changeToLoaded</text>
<text text-anchor="middle" x="85" y="-7" font-family="Helvetica,sans-Serif" font-size="10.00">Image</text>
</g>
<!-- Node2 -->
<g id="node2" class="node"><title>Node2</title>
<g id="a_node2"><a xlink:href="../../dc/d04/class_turtle_view_1_1_turtle_image_box.html#aacb8072ad281d5d1576806ed4ce9fd0c" target="_top" xlink:title="TurtleView.TurtleImageBox.handle">
<polygon fill="white" stroke="black" points="206.5,-5.5 206.5,-24.5 381.5,-24.5 381.5,-5.5 206.5,-5.5"/>
<text text-anchor="middle" x="294" y="-12.5" font-family="Helvetica,sans-Serif" font-size="10.00">TurtleView.TurtleImageBox.handle</text>
</a>
</g>
</g>
<!-- Node1&#45;&gt;Node2 -->
<g id="edge1" class="edge"><title>Node1&#45;&gt;Node2</title>
<path fill="none" stroke="midnightblue" d="M180.274,-15C188.907,-15 197.626,-15 206.188,-15"/>
<polygon fill="midnightblue" stroke="midnightblue" points="180.195,-11.5001 170.195,-15 180.195,-18.5001 180.195,-11.5001"/>
</g>
<!-- Node3 -->
<g id="node3" class="node"><title>Node3</title>
<g id="a_node3"><a xlink:href="../../dc/d04/class_turtle_view_1_1_turtle_image_box.html#aec918734fba89feb149bef641ab63c35" target="_top" xlink:title="TurtleView.TurtleImageBox.\lTurtleImageBox">
<polygon fill="white" stroke="black" points="418.5,-0 418.5,-30 561.5,-30 561.5,-0 418.5,-0"/>
<text text-anchor="start" x="426.5" y="-18" font-family="Helvetica,sans-Serif" font-size="10.00">TurtleView.TurtleImageBox.</text>
<text text-anchor="middle" x="490" y="-7" font-family="Helvetica,sans-Serif" font-size="10.00">TurtleImageBox</text>
</a>
</g>
</g>
<!-- Node2&#45;&gt;Node3 -->
<g id="edge2" class="edge"><title>Node2&#45;&gt;Node3</title>
<path fill="none" stroke="midnightblue" d="M391.65,-15C400.654,-15 409.661,-15 418.362,-15"/>
<polygon fill="midnightblue" stroke="midnightblue" points="391.504,-11.5001 381.504,-15 391.504,-18.5001 391.504,-11.5001"/>
</g>
</g>
</svg>
