<?xml version="1.0" encoding="UTF-8" standalone="no"?>
<!DOCTYPE svg PUBLIC "-//W3C//DTD SVG 1.1//EN"
 "http://www.w3.org/Graphics/SVG/1.1/DTD/svg11.dtd">
<!-- Generated by graphviz version 2.36.0 (20140111.2315)
 -->
<!-- Title: Backend.Turtle.move Pages: 1 -->
<svg width="524pt" height="185pt"
 viewBox="0.00 0.00 524.00 185.00" xmlns="http://www.w3.org/2000/svg" xmlns:xlink="http://www.w3.org/1999/xlink">
<g id="graph0" class="graph" transform="scale(1 1) rotate(0) translate(4 181)">
<title>Backend.Turtle.move</title>
<polygon fill="white" stroke="none" points="-4,4 -4,-181 520,-181 520,4 -4,4"/>
<!-- Node1 -->
<g id="node1" class="node"><title>Node1</title>
<polygon fill="#bfbfbf" stroke="black" points="0,-59.5 0,-78.5 116,-78.5 116,-59.5 0,-59.5"/>
<text text-anchor="middle" x="58" y="-66.5" font-family="Helvetica,sans-Serif" font-size="10.00">Backend.Turtle.move</text>
</g>
<!-- Node2 -->
<g id="node2" class="node"><title>Node2</title>
<g id="a_node2"><a xlink:href="../../d1/de0/class_backend_1_1_turtle.html#ad5f5520cb6970723e121a8d17f2c0a5c" target="_top" xlink:title="Backend.Turtle.addLocation">
<polygon fill="white" stroke="black" points="152,-78.5 152,-97.5 300,-97.5 300,-78.5 152,-78.5"/>
<text text-anchor="middle" x="226" y="-85.5" font-family="Helvetica,sans-Serif" font-size="10.00">Backend.Turtle.addLocation</text>
</a>
</g>
</g>
<!-- Node1&#45;&gt;Node2 -->
<g id="edge1" class="edge"><title>Node1&#45;&gt;Node2</title>
<path fill="none" stroke="midnightblue" d="M126.292,-76.7021C134.737,-77.6687 143.407,-78.6611 151.935,-79.6372"/>
<polygon fill="midnightblue" stroke="midnightblue" points="126.461,-73.1987 116.128,-75.5387 125.665,-80.1533 126.461,-73.1987"/>
</g>
<!-- Node7 -->
<g id="node7" class="node"><title>Node7</title>
<g id="a_node7"><a xlink:href="../../d1/de0/class_backend_1_1_turtle.html#a98cc72272199855ddfd7588b23bb5a4f" target="_top" xlink:title="Backend.Turtle.Turtle">
<polygon fill="white" stroke="black" points="168.5,-40.5 168.5,-59.5 283.5,-59.5 283.5,-40.5 168.5,-40.5"/>
<text text-anchor="middle" x="226" y="-47.5" font-family="Helvetica,sans-Serif" font-size="10.00">Backend.Turtle.Turtle</text>
</a>
</g>
</g>
<!-- Node1&#45;&gt;Node7 -->
<g id="edge6" class="edge"><title>Node1&#45;&gt;Node7</title>
<path fill="none" stroke="midnightblue" d="M126.177,-61.3111C140.161,-59.7104 154.768,-58.0386 168.329,-56.4864"/>
<polygon fill="midnightblue" stroke="midnightblue" points="125.665,-57.8467 116.128,-62.4613 126.461,-64.8013 125.665,-57.8467"/>
</g>
<!-- Node3 -->
<g id="node3" class="node"><title>Node3</title>
<g id="a_node3"><a xlink:href="../../dc/db0/class_nodes_1_1turtlecommands_1_1_backward_node.html#a8ebd60d8ab28acb66aef1fd9ba59d5c7" target="_top" xlink:title="Nodes.turtlecommands.Backward\lNode.update">
<polygon fill="white" stroke="black" points="336.5,-147 336.5,-177 515.5,-177 515.5,-147 336.5,-147"/>
<text text-anchor="start" x="344.5" y="-165" font-family="Helvetica,sans-Serif" font-size="10.00">Nodes.turtlecommands.Backward</text>
<text text-anchor="middle" x="426" y="-154" font-family="Helvetica,sans-Serif" font-size="10.00">Node.update</text>
</a>
</g>
</g>
<!-- Node2&#45;&gt;Node3 -->
<g id="edge2" class="edge"><title>Node2&#45;&gt;Node3</title>
<path fill="none" stroke="midnightblue" d="M254.936,-101.946C276.679,-112.458 307.798,-126.764 336,-137 345.806,-140.559 356.37,-143.923 366.675,-146.96"/>
<polygon fill="midnightblue" stroke="midnightblue" points="256.461,-98.7955 245.939,-97.5535 253.39,-105.086 256.461,-98.7955"/>
</g>
<!-- Node4 -->
<g id="node4" class="node"><title>Node4</title>
<g id="a_node4"><a xlink:href="../../d4/dd2/class_nodes_1_1turtlecommands_1_1_home_node.html#ab3bbeb66894a4c93c40e651457efe097" target="_top" xlink:title="Nodes.turtlecommands.Home\lNode.update">
<polygon fill="white" stroke="black" points="345,-98 345,-128 507,-128 507,-98 345,-98"/>
<text text-anchor="start" x="353" y="-116" font-family="Helvetica,sans-Serif" font-size="10.00">Nodes.turtlecommands.Home</text>
<text text-anchor="middle" x="426" y="-105" font-family="Helvetica,sans-Serif" font-size="10.00">Node.update</text>
</a>
</g>
</g>
<!-- Node2&#45;&gt;Node4 -->
<g id="edge3" class="edge"><title>Node2&#45;&gt;Node4</title>
<path fill="none" stroke="midnightblue" d="M310.156,-98.4995C321.628,-99.948 333.392,-101.433 344.809,-102.875"/>
<polygon fill="midnightblue" stroke="midnightblue" points="310.525,-95.0184 300.165,-97.238 309.648,-101.963 310.525,-95.0184"/>
</g>
<!-- Node5 -->
<g id="node5" class="node"><title>Node5</title>
<g id="a_node5"><a xlink:href="../../d1/dd7/class_nodes_1_1turtlecommands_1_1_set_position_node.html#a5c752365147093605e4591ecbd0ededd" target="_top" xlink:title="Nodes.turtlecommands.Set\lPositionNode.update">
<polygon fill="white" stroke="black" points="351.5,-49 351.5,-79 500.5,-79 500.5,-49 351.5,-49"/>
<text text-anchor="start" x="359.5" y="-67" font-family="Helvetica,sans-Serif" font-size="10.00">Nodes.turtlecommands.Set</text>
<text text-anchor="middle" x="426" y="-56" font-family="Helvetica,sans-Serif" font-size="10.00">PositionNode.update</text>
</a>
</g>
</g>
<!-- Node2&#45;&gt;Node5 -->
<g id="edge4" class="edge"><title>Node2&#45;&gt;Node5</title>
<path fill="none" stroke="midnightblue" d="M310.483,-77.8809C324.1,-76.2303 338.119,-74.531 351.474,-72.9122"/>
<polygon fill="midnightblue" stroke="midnightblue" points="309.671,-74.4535 300.165,-79.1315 310.514,-81.4026 309.671,-74.4535"/>
</g>
<!-- Node6 -->
<g id="node6" class="node"><title>Node6</title>
<g id="a_node6"><a xlink:href="../../d8/ddb/class_nodes_1_1turtlecommands_1_1_forward_node.html#a4c29ece57a41db2da90359e0193fcb04" target="_top" xlink:title="Nodes.turtlecommands.Forward\lNode.update">
<polygon fill="white" stroke="black" points="341,-0 341,-30 511,-30 511,-0 341,-0"/>
<text text-anchor="start" x="349" y="-18" font-family="Helvetica,sans-Serif" font-size="10.00">Nodes.turtlecommands.Forward</text>
<text text-anchor="middle" x="426" y="-7" font-family="Helvetica,sans-Serif" font-size="10.00">Node.update</text>
</a>
</g>
</g>
<!-- Node2&#45;&gt;Node6 -->
<g id="edge5" class="edge"><title>Node2&#45;&gt;Node6</title>
<path fill="none" stroke="midnightblue" d="M285.367,-75.2233C290.42,-73.3979 295.367,-71.3324 300,-69 318.351,-59.7617 317.738,-49.4142 336,-40 343.418,-36.1759 351.495,-32.8739 359.656,-30.0396"/>
<polygon fill="midnightblue" stroke="midnightblue" points="283.98,-71.995 275.574,-78.4446 286.167,-78.6445 283.98,-71.995"/>
</g>
</g>
</svg>
