<?xml version="1.0" encoding="UTF-8" standalone="no"?>
<!DOCTYPE svg PUBLIC "-//W3C//DTD SVG 1.1//EN"
 "http://www.w3.org/Graphics/SVG/1.1/DTD/svg11.dtd">
<!-- Generated by graphviz version 2.36.0 (20140111.2315)
 -->
<!-- Title: Backend.Turtle.getLocation Pages: 1 -->
<!--zoomable 322 -->
<svg id="main" version="1.1" xmlns="http://www.w3.org/2000/svg" xmlns:xlink="http://www.w3.org/1999/xlink" xml:space="preserve" onload="init(evt)">
<style type="text/css"><![CDATA[
.edge:hover path { stroke: red; }
.edge:hover polygon { stroke: red; fill: red; }
]]></style>
<script type="text/javascript"><![CDATA[
var edges = document.getElementsByTagName('g');
if (edges && edges.length) {
  for (var i=0;i<edges.length;i++) {
    if (edges[i].id.substr(0,4)=='edge') {
      edges[i].setAttribute('class','edge');
    }
  }
}
]]></script>
        <defs>
                <circle id="rim" cx="0" cy="0" r="7"/>
                <circle id="rim2" cx="0" cy="0" r="3.5"/>
                <g id="zoomPlus">
                        <use xlink:href="#rim" fill="#404040">
                                <set attributeName="fill" to="#808080" begin="zoomplus.mouseover" end="zoomplus.mouseout"/>
                        </use>
                        <path d="M-4,0h8M0,-4v8" fill="none" stroke="white" stroke-width="1.5" pointer-events="none"/>
                </g>
                <g id="zoomMin">
                        <use xlink:href="#rim" fill="#404040">
                                <set attributeName="fill" to="#808080" begin="zoomminus.mouseover" end="zoomminus.mouseout"/>
                        </use>
                        <path d="M-4,0h8" fill="none" stroke="white" stroke-width="1.5" pointer-events="none"/>
                </g>
                <g id="dirArrow">
                        <path fill="none" stroke="white" stroke-width="1.5" d="M0,-3.0v7 M-2.5,-0.5L0,-3.0L2.5,-0.5"/>
                </g>
               <g id="resetDef">
                       <use xlink:href="#rim2" fill="#404040">
                               <set attributeName="fill" to="#808080" begin="reset.mouseover" end="reset.mouseout"/>
                       </use>
               </g>
        </defs>

<script type="text/javascript">
var viewWidth = 1502;
var viewHeight = 322;
var sectionId = 'dynsection-9';
</script>
<script xlink:href="../../svgpan.js"/>
<svg id="graph" class="graph">
<g id="viewport">
<title>Backend.Turtle.getLocation</title>
<polygon fill="white" stroke="none" points="-4,4 -4,-318 1498,-318 1498,4 -4,4"/>
<!-- Node1 -->
<g id="node1" class="node"><title>Node1</title>
<polygon fill="#bfbfbf" stroke="black" points="0,-83.5 0,-102.5 146,-102.5 146,-83.5 0,-83.5"/>
<text text-anchor="middle" x="73" y="-90.5" font-family="Helvetica,sans-Serif" font-size="10.00">Backend.Turtle.getLocation</text>
</g>
<!-- Node2 -->
<g id="node2" class="node"><title>Node2</title>
<g id="a_node2"><a xlink:href="../../d1/de0/class_backend_1_1_turtle.html#a715f94909b1ba74dc9e4f9eb4fd91e10" target="_top" xlink:title="Backend.Turtle.getXCord">
<polygon fill="white" stroke="black" points="182.5,-112.5 182.5,-131.5 315.5,-131.5 315.5,-112.5 182.5,-112.5"/>
<text text-anchor="middle" x="249" y="-119.5" font-family="Helvetica,sans-Serif" font-size="10.00">Backend.Turtle.getXCord</text>
</a>
</g>
</g>
<!-- Node1&#45;&gt;Node2 -->
<g id="edge1" class="edge"><title>Node1&#45;&gt;Node2</title>
<path fill="none" stroke="midnightblue" d="M141.476,-104.246C157.805,-106.968 175.102,-109.85 190.901,-112.483"/>
<polygon fill="midnightblue" stroke="midnightblue" points="141.896,-100.768 131.456,-102.576 140.745,-107.673 141.896,-100.768"/>
</g>
<!-- Node10 -->
<g id="node10" class="node"><title>Node10</title>
<g id="a_node10"><a xlink:href="../../d4/dd2/class_nodes_1_1turtlecommands_1_1_home_node.html#ab3bbeb66894a4c93c40e651457efe097" target="_top" xlink:title="Nodes.turtlecommands.Home\lNode.update">
<polygon fill="white" stroke="black" points="999,-49 999,-79 1161,-79 1161,-49 999,-49"/>
<text text-anchor="start" x="1007" y="-67" font-family="Helvetica,sans-Serif" font-size="10.00">Nodes.turtlecommands.Home</text>
<text text-anchor="middle" x="1080" y="-56" font-family="Helvetica,sans-Serif" font-size="10.00">Node.update</text>
</a>
</g>
</g>
<!-- Node1&#45;&gt;Node10 -->
<g id="edge28" class="edge"><title>Node1&#45;&gt;Node10</title>
<path fill="none" stroke="midnightblue" d="M156.459,-82.8971C231.946,-74.5279 346.814,-64 447,-64 447,-64 447,-64 674,-64 786.676,-64 916.985,-64 998.699,-64"/>
<polygon fill="midnightblue" stroke="midnightblue" points="155.621,-79.469 146.074,-84.0624 156.402,-86.4254 155.621,-79.469"/>
</g>
<!-- Node11 -->
<g id="node11" class="node"><title>Node11</title>
<g id="a_node11"><a xlink:href="../../d1/dd7/class_nodes_1_1turtlecommands_1_1_set_position_node.html#a5c752365147093605e4591ecbd0ededd" target="_top" xlink:title="Nodes.turtlecommands.Set\lPositionNode.update">
<polygon fill="white" stroke="black" points="1005.5,-0 1005.5,-30 1154.5,-30 1154.5,-0 1005.5,-0"/>
<text text-anchor="start" x="1013.5" y="-18" font-family="Helvetica,sans-Serif" font-size="10.00">Nodes.turtlecommands.Set</text>
<text text-anchor="middle" x="1080" y="-7" font-family="Helvetica,sans-Serif" font-size="10.00">PositionNode.update</text>
</a>
</g>
</g>
<!-- Node1&#45;&gt;Node11 -->
<g id="edge29" class="edge"><title>Node1&#45;&gt;Node11</title>
<path fill="none" stroke="midnightblue" d="M112.881,-80.4113C180.187,-59.7708 323.104,-21 447,-21 447,-21 447,-21 674,-21 789.853,-21 924.326,-18.515 1005.47,-16.7435"/>
<polygon fill="midnightblue" stroke="midnightblue" points="111.639,-77.1319 103.126,-83.439 113.714,-83.8173 111.639,-77.1319"/>
</g>
<!-- Node24 -->
<g id="node24" class="node"><title>Node24</title>
<g id="a_node24"><a xlink:href="../../d1/de0/class_backend_1_1_turtle.html#a692174eccea232fc58e725cff6f50359" target="_top" xlink:title="Backend.Turtle.getYCord">
<polygon fill="white" stroke="black" points="183,-164.5 183,-183.5 315,-183.5 315,-164.5 183,-164.5"/>
<text text-anchor="middle" x="249" y="-171.5" font-family="Helvetica,sans-Serif" font-size="10.00">Backend.Turtle.getYCord</text>
</a>
</g>
</g>
<!-- Node1&#45;&gt;Node24 -->
<g id="edge24" class="edge"><title>Node1&#45;&gt;Node24</title>
<path fill="none" stroke="midnightblue" d="M103.951,-106.943C139.199,-123.351 196.789,-150.161 227.383,-164.403"/>
<polygon fill="midnightblue" stroke="midnightblue" points="105.186,-103.657 94.6434,-102.61 102.232,-110.003 105.186,-103.657"/>
</g>
<!-- Node3 -->
<g id="node3" class="node"><title>Node3</title>
<g id="a_node3"><a xlink:href="../../df/d0e/class_nodes_1_1turtlecommands_1_1_set_towards_node.html#a54797797efb451e3f6bea12a6b996076" target="_top" xlink:title="Nodes.turtlecommands.Set\lTowardsNode.update">
<polygon fill="white" stroke="black" points="373.5,-181 373.5,-211 522.5,-211 522.5,-181 373.5,-181"/>
<text text-anchor="start" x="381.5" y="-199" font-family="Helvetica,sans-Serif" font-size="10.00">Nodes.turtlecommands.Set</text>
<text text-anchor="middle" x="448" y="-188" font-family="Helvetica,sans-Serif" font-size="10.00">TowardsNode.update</text>
</a>
</g>
</g>
<!-- Node2&#45;&gt;Node3 -->
<g id="edge2" class="edge"><title>Node2&#45;&gt;Node3</title>
<path fill="none" stroke="midnightblue" d="M277.919,-136.152C302.861,-148.657 337.613,-165.706 352,-171 361.923,-174.651 372.612,-178 383.114,-180.98"/>
<polygon fill="midnightblue" stroke="midnightblue" points="279.41,-132.984 268.904,-131.616 276.264,-139.237 279.41,-132.984"/>
</g>
<!-- Node4 -->
<g id="node4" class="node"><title>Node4</title>
<g id="a_node4"><a xlink:href="../../d8/d61/class_nodes_1_1turtlecommands_1_1_x_coordinate_node.html#aa069db06e5bb1d70c138d768f75e0c57" target="_top" xlink:title="Nodes.turtlecommands.XCoordinate\lNode.update">
<polygon fill="white" stroke="black" points="352.5,-93 352.5,-123 543.5,-123 543.5,-93 352.5,-93"/>
<text text-anchor="start" x="360.5" y="-111" font-family="Helvetica,sans-Serif" font-size="10.00">Nodes.turtlecommands.XCoordinate</text>
<text text-anchor="middle" x="448" y="-100" font-family="Helvetica,sans-Serif" font-size="10.00">Node.update</text>
</a>
</g>
</g>
<!-- Node2&#45;&gt;Node4 -->
<g id="edge3" class="edge"><title>Node2&#45;&gt;Node4</title>
<path fill="none" stroke="midnightblue" d="M325.664,-116.623C334.352,-116.005 343.291,-115.37 352.19,-114.738"/>
<polygon fill="midnightblue" stroke="midnightblue" points="325.325,-113.138 315.598,-117.338 325.821,-120.12 325.325,-113.138"/>
</g>
<!-- Node5 -->
<g id="node5" class="node"><title>Node5</title>
<g id="a_node5"><a xlink:href="../../d9/d38/class_turtle_view_1_1_turtle_information.html#ad65201793ce738f9c6d6e592271c14e1" target="_top" xlink:title="TurtleView.TurtleInformation.update">
<polygon fill="white" stroke="black" points="356.5,-142.5 356.5,-161.5 539.5,-161.5 539.5,-142.5 356.5,-142.5"/>
<text text-anchor="middle" x="448" y="-149.5" font-family="Helvetica,sans-Serif" font-size="10.00">TurtleView.TurtleInformation.update</text>
</a>
</g>
</g>
<!-- Node2&#45;&gt;Node5 -->
<g id="edge4" class="edge"><title>Node2&#45;&gt;Node5</title>
<path fill="none" stroke="midnightblue" d="M322.739,-133.077C343.04,-136.169 364.911,-139.499 384.56,-142.491"/>
<polygon fill="midnightblue" stroke="midnightblue" points="323.016,-129.579 312.603,-131.533 321.962,-136.499 323.016,-129.579"/>
</g>
<!-- Node6 -->
<g id="node6" class="node"><title>Node6</title>
<g id="a_node6"><a xlink:href="../../d1/de0/class_backend_1_1_turtle.html#a94cbed3c9c0c33e1ea8e8b3c51c26c73" target="_top" xlink:title="Backend.Turtle.move">
<polygon fill="white" stroke="black" points="615,-135.5 615,-154.5 731,-154.5 731,-135.5 615,-135.5"/>
<text text-anchor="middle" x="673" y="-142.5" font-family="Helvetica,sans-Serif" font-size="10.00">Backend.Turtle.move</text>
</a>
</g>
</g>
<!-- Node5&#45;&gt;Node6 -->
<g id="edge5" class="edge"><title>Node5&#45;&gt;Node6</title>
<path fill="none" stroke="midnightblue" d="M549.906,-148.833C572.23,-148.132 595.126,-147.413 614.97,-146.79"/>
<polygon fill="midnightblue" stroke="midnightblue" points="549.588,-145.341 539.703,-149.153 549.808,-152.337 549.588,-145.341"/>
</g>
<!-- Node13 -->
<g id="node13" class="node"><title>Node13</title>
<g id="a_node13"><a xlink:href="../../df/dec/class_front_end_1_1_view.html#afa6c660ce1c2e6493f471b5344638d5b" target="_top" xlink:title="FrontEnd.View.updateTurtleInfo">
<polygon fill="white" stroke="black" points="592,-249.5 592,-268.5 754,-268.5 754,-249.5 592,-249.5"/>
<text text-anchor="middle" x="673" y="-256.5" font-family="Helvetica,sans-Serif" font-size="10.00">FrontEnd.View.updateTurtleInfo</text>
</a>
</g>
</g>
<!-- Node5&#45;&gt;Node13 -->
<g id="edge12" class="edge"><title>Node5&#45;&gt;Node13</title>
<path fill="none" stroke="midnightblue" d="M532.448,-165.238C536.45,-166.937 540.326,-168.848 544,-171 565.215,-183.424 560.622,-197.87 580,-213 600.269,-228.825 626.844,-241.402 646.219,-249.377"/>
<polygon fill="midnightblue" stroke="midnightblue" points="533.507,-161.897 522.915,-161.65 531.041,-168.449 533.507,-161.897"/>
</g>
<!-- Node17 -->
<g id="node17" class="node"><title>Node17</title>
<g id="a_node17"><a xlink:href="../../d9/d38/class_turtle_view_1_1_turtle_information.html#a3a64e1f1313c0c4f30a93c1fcc5f36c1" target="_top" xlink:title="TurtleView.TurtleInformation.change\lTurtle">
<polygon fill="white" stroke="black" points="580.5,-174 580.5,-204 765.5,-204 765.5,-174 580.5,-174"/>
<text text-anchor="start" x="588.5" y="-192" font-family="Helvetica,sans-Serif" font-size="10.00">TurtleView.TurtleInformation.change</text>
<text text-anchor="middle" x="673" y="-181" font-family="Helvetica,sans-Serif" font-size="10.00">Turtle</text>
</a>
</g>
</g>
<!-- Node5&#45;&gt;Node17 -->
<g id="edge16" class="edge"><title>Node5&#45;&gt;Node17</title>
<path fill="none" stroke="midnightblue" d="M516.566,-163.21C536.996,-166.6 559.769,-170.379 581.446,-173.975"/>
<polygon fill="midnightblue" stroke="midnightblue" points="516.866,-159.713 506.428,-161.528 515.72,-166.618 516.866,-159.713"/>
</g>
<!-- Node7 -->
<g id="node7" class="node"><title>Node7</title>
<g id="a_node7"><a xlink:href="../../d1/de0/class_backend_1_1_turtle.html#a98cc72272199855ddfd7588b23bb5a4f" target="_top" xlink:title="Backend.Turtle.Turtle">
<polygon fill="white" stroke="black" points="820.5,-135.5 820.5,-154.5 935.5,-154.5 935.5,-135.5 820.5,-135.5"/>
<text text-anchor="middle" x="878" y="-142.5" font-family="Helvetica,sans-Serif" font-size="10.00">Backend.Turtle.Turtle</text>
</a>
</g>
</g>
<!-- Node6&#45;&gt;Node7 -->
<g id="edge6" class="edge"><title>Node6&#45;&gt;Node7</title>
<path fill="none" stroke="midnightblue" d="M741.111,-145C766.769,-145 795.753,-145 820.341,-145"/>
<polygon fill="midnightblue" stroke="midnightblue" points="741.087,-141.5 731.087,-145 741.087,-148.5 741.087,-141.5"/>
</g>
<!-- Node8 -->
<g id="node8" class="node"><title>Node8</title>
<g id="a_node8"><a xlink:href="../../d1/de0/class_backend_1_1_turtle.html#ad5f5520cb6970723e121a8d17f2c0a5c" target="_top" xlink:title="Backend.Turtle.addLocation">
<polygon fill="white" stroke="black" points="804,-97.5 804,-116.5 952,-116.5 952,-97.5 804,-97.5"/>
<text text-anchor="middle" x="878" y="-104.5" font-family="Helvetica,sans-Serif" font-size="10.00">Backend.Turtle.addLocation</text>
</a>
</g>
</g>
<!-- Node6&#45;&gt;Node8 -->
<g id="edge7" class="edge"><title>Node6&#45;&gt;Node8</title>
<path fill="none" stroke="midnightblue" d="M734.997,-133.582C764.042,-128.145 798.382,-121.717 826.016,-116.544"/>
<polygon fill="midnightblue" stroke="midnightblue" points="734.149,-130.18 724.963,-135.46 735.437,-137.06 734.149,-130.18"/>
</g>
<!-- Node9 -->
<g id="node9" class="node"><title>Node9</title>
<g id="a_node9"><a xlink:href="../../dc/db0/class_nodes_1_1turtlecommands_1_1_backward_node.html#a8ebd60d8ab28acb66aef1fd9ba59d5c7" target="_top" xlink:title="Nodes.turtlecommands.Backward\lNode.update">
<polygon fill="white" stroke="black" points="990.5,-147 990.5,-177 1169.5,-177 1169.5,-147 990.5,-147"/>
<text text-anchor="start" x="998.5" y="-165" font-family="Helvetica,sans-Serif" font-size="10.00">Nodes.turtlecommands.Backward</text>
<text text-anchor="middle" x="1080" y="-154" font-family="Helvetica,sans-Serif" font-size="10.00">Node.update</text>
</a>
</g>
</g>
<!-- Node8&#45;&gt;Node9 -->
<g id="edge8" class="edge"><title>Node8&#45;&gt;Node9</title>
<path fill="none" stroke="midnightblue" d="M927.75,-118.985C936.509,-121.242 945.54,-123.637 954,-126 970.114,-130.5 973.946,-132.293 990,-137 1001.24,-140.296 1013.31,-143.745 1024.82,-146.992"/>
<polygon fill="midnightblue" stroke="midnightblue" points="928.576,-115.584 918.021,-116.505 926.847,-122.367 928.576,-115.584"/>
</g>
<!-- Node8&#45;&gt;Node10 -->
<g id="edge9" class="edge"><title>Node8&#45;&gt;Node10</title>
<path fill="none" stroke="midnightblue" d="M933.455,-95.2922C956.808,-90.2712 984.376,-84.3441 1009.2,-79.0063"/>
<polygon fill="midnightblue" stroke="midnightblue" points="932.427,-91.9331 923.386,-97.4569 933.899,-98.7767 932.427,-91.9331"/>
</g>
<!-- Node8&#45;&gt;Node11 -->
<g id="edge10" class="edge"><title>Node8&#45;&gt;Node11</title>
<path fill="none" stroke="midnightblue" d="M900.415,-91.3016C922.06,-76.0706 956.943,-53.2309 990,-39 997.791,-35.6462 1006.17,-32.6524 1014.56,-30.0132"/>
<polygon fill="midnightblue" stroke="midnightblue" points="898.096,-88.6562 891.992,-97.3161 902.164,-94.3528 898.096,-88.6562"/>
</g>
<!-- Node12 -->
<g id="node12" class="node"><title>Node12</title>
<g id="a_node12"><a xlink:href="../../d8/ddb/class_nodes_1_1turtlecommands_1_1_forward_node.html#a4c29ece57a41db2da90359e0193fcb04" target="_top" xlink:title="Nodes.turtlecommands.Forward\lNode.update">
<polygon fill="white" stroke="black" points="995,-98 995,-128 1165,-128 1165,-98 995,-98"/>
<text text-anchor="start" x="1003" y="-116" font-family="Helvetica,sans-Serif" font-size="10.00">Nodes.turtlecommands.Forward</text>
<text text-anchor="middle" x="1080" y="-105" font-family="Helvetica,sans-Serif" font-size="10.00">Node.update</text>
</a>
</g>
</g>
<!-- Node8&#45;&gt;Node12 -->
<g id="edge11" class="edge"><title>Node8&#45;&gt;Node12</title>
<path fill="none" stroke="midnightblue" d="M962.304,-109.499C973.098,-109.823 984.16,-110.155 994.966,-110.479"/>
<polygon fill="midnightblue" stroke="midnightblue" points="962.154,-105.993 952.054,-109.192 961.944,-112.99 962.154,-105.993"/>
</g>
<!-- Node14 -->
<g id="node14" class="node"><title>Node14</title>
<g id="a_node14"><a xlink:href="../../dd/d2e/class_front_end_1_1_controller.html#a0ad45a00bc5c4475d3b1c6a4dbf74a91" target="_top" xlink:title="FrontEnd.Controller.interpret">
<polygon fill="white" stroke="black" points="802,-275.5 802,-294.5 954,-294.5 954,-275.5 802,-275.5"/>
<text text-anchor="middle" x="878" y="-282.5" font-family="Helvetica,sans-Serif" font-size="10.00">FrontEnd.Controller.interpret</text>
</a>
</g>
</g>
<!-- Node13&#45;&gt;Node14 -->
<g id="edge13" class="edge"><title>Node13&#45;&gt;Node14</title>
<path fill="none" stroke="midnightblue" d="M758.475,-269.819C773.109,-271.694 788.23,-273.63 802.572,-275.467"/>
<polygon fill="midnightblue" stroke="midnightblue" points="758.801,-266.333 748.437,-268.534 757.911,-273.276 758.801,-266.333"/>
</g>
<!-- Node15 -->
<g id="node15" class="node"><title>Node15</title>
<g id="a_node15"><a xlink:href="../../dd/d2e/class_front_end_1_1_controller.html#a41885f349a8f334750e26d685a8981d2" target="_top" xlink:title="FrontEnd.Controller.execute\lCommand">
<polygon fill="white" stroke="black" points="1005.5,-284 1005.5,-314 1154.5,-314 1154.5,-284 1005.5,-284"/>
<text text-anchor="start" x="1013.5" y="-302" font-family="Helvetica,sans-Serif" font-size="10.00">FrontEnd.Controller.execute</text>
<text text-anchor="middle" x="1080" y="-291" font-family="Helvetica,sans-Serif" font-size="10.00">Command</text>
</a>
</g>
</g>
<!-- Node14&#45;&gt;Node15 -->
<g id="edge14" class="edge"><title>Node14&#45;&gt;Node15</title>
<path fill="none" stroke="midnightblue" d="M964.347,-290.974C977.94,-291.926 991.902,-292.903 1005.2,-293.834"/>
<polygon fill="midnightblue" stroke="midnightblue" points="964.262,-287.46 954.042,-290.253 963.773,-294.443 964.262,-287.46"/>
</g>
<!-- Node16 -->
<g id="node16" class="node"><title>Node16</title>
<g id="a_node16"><a xlink:href="../../dd/d2e/class_front_end_1_1_controller.html#a29be9ff259428dbe97eebe3ec9a13ac5" target="_top" xlink:title="FrontEnd.Controller.update">
<polygon fill="white" stroke="black" points="1206,-289.5 1206,-308.5 1350,-308.5 1350,-289.5 1206,-289.5"/>
<text text-anchor="middle" x="1278" y="-296.5" font-family="Helvetica,sans-Serif" font-size="10.00">FrontEnd.Controller.update</text>
</a>
</g>
</g>
<!-- Node15&#45;&gt;Node16 -->
<g id="edge15" class="edge"><title>Node15&#45;&gt;Node16</title>
<path fill="none" stroke="midnightblue" d="M1164.91,-299C1178.59,-299 1192.64,-299 1205.97,-299"/>
<polygon fill="midnightblue" stroke="midnightblue" points="1164.54,-295.5 1154.54,-299 1164.54,-302.5 1164.54,-295.5"/>
</g>
<!-- Node18 -->
<g id="node18" class="node"><title>Node18</title>
<g id="a_node18"><a xlink:href="../../d9/d38/class_turtle_view_1_1_turtle_information.html#a9358bcce384b1f845cdf75190c4072e7" target="_top" xlink:title="TurtleView.TurtleInformation.\lTurtleInformation">
<polygon fill="white" stroke="black" points="803.5,-174 803.5,-204 952.5,-204 952.5,-174 803.5,-174"/>
<text text-anchor="start" x="811.5" y="-192" font-family="Helvetica,sans-Serif" font-size="10.00">TurtleView.TurtleInformation.</text>
<text text-anchor="middle" x="878" y="-181" font-family="Helvetica,sans-Serif" font-size="10.00">TurtleInformation</text>
</a>
</g>
</g>
<!-- Node17&#45;&gt;Node18 -->
<g id="edge17" class="edge"><title>Node17&#45;&gt;Node18</title>
<path fill="none" stroke="midnightblue" d="M775.776,-189C785.074,-189 794.369,-189 803.349,-189"/>
<polygon fill="midnightblue" stroke="midnightblue" points="775.701,-185.5 765.701,-189 775.701,-192.5 775.701,-185.5"/>
</g>
<!-- Node19 -->
<g id="node19" class="node"><title>Node19</title>
<g id="a_node19"><a xlink:href="../../d4/d8a/class_turtle_view_1_1_turtle_window.html#a55f7ffa346d2ced8f9e831efc900d0c0" target="_top" xlink:title="TurtleView.TurtleWindow.click">
<polygon fill="white" stroke="black" points="803.5,-223.5 803.5,-242.5 952.5,-242.5 952.5,-223.5 803.5,-223.5"/>
<text text-anchor="middle" x="878" y="-230.5" font-family="Helvetica,sans-Serif" font-size="10.00">TurtleView.TurtleWindow.click</text>
</a>
</g>
</g>
<!-- Node17&#45;&gt;Node19 -->
<g id="edge18" class="edge"><title>Node17&#45;&gt;Node19</title>
<path fill="none" stroke="midnightblue" d="M753.187,-206.164C780.358,-212.053 809.774,-218.429 833.113,-223.488"/>
<polygon fill="midnightblue" stroke="midnightblue" points="753.808,-202.717 743.293,-204.019 752.325,-209.558 753.808,-202.717"/>
</g>
<!-- Node20 -->
<g id="node20" class="node"><title>Node20</title>
<g id="a_node20"><a xlink:href="../../d4/d8a/class_turtle_view_1_1_turtle_window.html#a82959fc46f81f3a875e126b5ecd6325d" target="_top" xlink:title="TurtleView.TurtleWindow.\lTurtleWindow">
<polygon fill="white" stroke="black" points="1213.5,-191 1213.5,-221 1342.5,-221 1342.5,-191 1213.5,-191"/>
<text text-anchor="start" x="1221.5" y="-209" font-family="Helvetica,sans-Serif" font-size="10.00">TurtleView.TurtleWindow.</text>
<text text-anchor="middle" x="1278" y="-198" font-family="Helvetica,sans-Serif" font-size="10.00">TurtleWindow</text>
</a>
</g>
</g>
<!-- Node19&#45;&gt;Node20 -->
<g id="edge19" class="edge"><title>Node19&#45;&gt;Node20</title>
<path fill="none" stroke="midnightblue" d="M962.992,-226.894C972.107,-226.247 981.247,-225.605 990,-225 1066.84,-219.687 1155.28,-213.879 1213.44,-210.101"/>
<polygon fill="midnightblue" stroke="midnightblue" points="962.46,-223.423 952.734,-227.625 962.958,-230.406 962.46,-223.423"/>
</g>
<!-- Node21 -->
<g id="node21" class="node"><title>Node21</title>
<g id="a_node21"><a xlink:href="../../d4/d8a/class_turtle_view_1_1_turtle_window.html#ab6961d80a7e356af4e9206478608ed40" target="_top" xlink:title="TurtleView.TurtleWindow.make\lTurtle">
<polygon fill="white" stroke="black" points="1002,-235 1002,-265 1158,-265 1158,-235 1002,-235"/>
<text text-anchor="start" x="1010" y="-253" font-family="Helvetica,sans-Serif" font-size="10.00">TurtleView.TurtleWindow.make</text>
<text text-anchor="middle" x="1080" y="-242" font-family="Helvetica,sans-Serif" font-size="10.00">Turtle</text>
</a>
</g>
</g>
<!-- Node19&#45;&gt;Node21 -->
<g id="edge20" class="edge"><title>Node19&#45;&gt;Node21</title>
<path fill="none" stroke="midnightblue" d="M962.883,-240.13C975.799,-241.228 989.084,-242.357 1001.84,-243.442"/>
<polygon fill="midnightblue" stroke="midnightblue" points="962.881,-236.617 952.621,-239.258 962.288,-243.592 962.881,-236.617"/>
</g>
<!-- Node21&#45;&gt;Node20 -->
<g id="edge23" class="edge"><title>Node21&#45;&gt;Node20</title>
<path fill="none" stroke="midnightblue" d="M1157.72,-232.777C1176.14,-228.642 1195.62,-224.269 1213.37,-220.283"/>
<polygon fill="midnightblue" stroke="midnightblue" points="1156.89,-229.375 1147.9,-234.981 1158.43,-236.205 1156.89,-229.375"/>
</g>
<!-- Node22 -->
<g id="node22" class="node"><title>Node22</title>
<g id="a_node22"><a xlink:href="../../df/dec/class_front_end_1_1_view.html#affad60393f506692d02f9dc2525780d2" target="_top" xlink:title="FrontEnd.View.makeTurtle\lButton">
<polygon fill="white" stroke="black" points="1209,-240 1209,-270 1347,-270 1347,-240 1209,-240"/>
<text text-anchor="start" x="1217" y="-258" font-family="Helvetica,sans-Serif" font-size="10.00">FrontEnd.View.makeTurtle</text>
<text text-anchor="middle" x="1278" y="-247" font-family="Helvetica,sans-Serif" font-size="10.00">Button</text>
</a>
</g>
</g>
<!-- Node21&#45;&gt;Node22 -->
<g id="edge21" class="edge"><title>Node21&#45;&gt;Node22</title>
<path fill="none" stroke="midnightblue" d="M1168.45,-252.231C1181.98,-252.576 1195.77,-252.928 1208.79,-253.26"/>
<polygon fill="midnightblue" stroke="midnightblue" points="1168.27,-248.725 1158.18,-251.969 1168.09,-255.723 1168.27,-248.725"/>
</g>
<!-- Node23 -->
<g id="node23" class="node"><title>Node23</title>
<g id="a_node23"><a xlink:href="../../df/dec/class_front_end_1_1_view.html#a079d7e899ded516b169dc6e66da79e1e" target="_top" xlink:title="FrontEnd.View.View">
<polygon fill="white" stroke="black" points="1386.5,-245.5 1386.5,-264.5 1493.5,-264.5 1493.5,-245.5 1386.5,-245.5"/>
<text text-anchor="middle" x="1440" y="-252.5" font-family="Helvetica,sans-Serif" font-size="10.00">FrontEnd.View.View</text>
</a>
</g>
</g>
<!-- Node22&#45;&gt;Node23 -->
<g id="edge22" class="edge"><title>Node22&#45;&gt;Node23</title>
<path fill="none" stroke="midnightblue" d="M1357.5,-255C1367.3,-255 1377.13,-255 1386.4,-255"/>
<polygon fill="midnightblue" stroke="midnightblue" points="1357.32,-251.5 1347.32,-255 1357.32,-258.5 1357.32,-251.5"/>
</g>
<!-- Node24&#45;&gt;Node3 -->
<g id="edge25" class="edge"><title>Node24&#45;&gt;Node3</title>
<path fill="none" stroke="midnightblue" d="M325.237,-182.402C340.948,-184.157 357.496,-186.005 373.156,-187.753"/>
<polygon fill="midnightblue" stroke="midnightblue" points="325.378,-178.896 315.051,-181.265 324.601,-185.853 325.378,-178.896"/>
</g>
<!-- Node24&#45;&gt;Node5 -->
<g id="edge27" class="edge"><title>Node24&#45;&gt;Node5</title>
<path fill="none" stroke="midnightblue" d="M325.342,-165.586C337.214,-164.26 349.561,-162.882 361.639,-161.533"/>
<polygon fill="midnightblue" stroke="midnightblue" points="324.601,-162.147 315.051,-166.735 325.378,-169.104 324.601,-162.147"/>
</g>
<!-- Node25 -->
<g id="node25" class="node"><title>Node25</title>
<g id="a_node25"><a xlink:href="../../da/db9/class_nodes_1_1turtlecommands_1_1_y_coordinate_node.html#a0062be5b89b4f4de05402a5dddee4c50" target="_top" xlink:title="Nodes.turtlecommands.YCoordinate\lNode.update">
<polygon fill="white" stroke="black" points="353,-230 353,-260 543,-260 543,-230 353,-230"/>
<text text-anchor="start" x="361" y="-248" font-family="Helvetica,sans-Serif" font-size="10.00">Nodes.turtlecommands.YCoordinate</text>
<text text-anchor="middle" x="448" y="-237" font-family="Helvetica,sans-Serif" font-size="10.00">Node.update</text>
</a>
</g>
</g>
<!-- Node24&#45;&gt;Node25 -->
<g id="edge26" class="edge"><title>Node24&#45;&gt;Node25</title>
<path fill="none" stroke="midnightblue" d="M278.025,-188.164C298.232,-197.997 326.351,-210.913 352,-220 362.208,-223.617 373.197,-226.977 383.951,-229.986"/>
<polygon fill="midnightblue" stroke="midnightblue" points="279.304,-184.893 268.787,-183.615 276.212,-191.173 279.304,-184.893"/>
</g>
</g>
</svg>
        <g id="navigator" transform="translate(0 0)" fill="#404254">
                <rect fill="#f2f5e9" fill-opacity="0.5" stroke="#606060" stroke-width=".5" x="0" y="0" width="60" height="60"/>
                <use id="zoomplus" xlink:href="#zoomPlus" x="17" y="9" onmousedown="handleZoom(evt,'in')"/>
                <use id="zoomminus" xlink:href="#zoomMin" x="42" y="9" onmousedown="handleZoom(evt,'out')"/>
                <use id="reset" xlink:href="#resetDef" x="30" y="36" onmousedown="handleReset()"/>
                <g id="arrowUp" xlink:href="#dirArrow" transform="translate(30 24)" onmousedown="handlePan(0,-1)">
                  <use xlink:href="#rim" fill="#404040">
                        <set attributeName="fill" to="#808080" begin="arrowUp.mouseover" end="arrowUp.mouseout"/>
                  </use>
                  <path fill="none" stroke="white" stroke-width="1.5" d="M0,-3.0v7 M-2.5,-0.5L0,-3.0L2.5,-0.5"/>
                </g>
                <g id="arrowRight" xlink:href="#dirArrow" transform="rotate(90) translate(36 -43)" onmousedown="handlePan(1,0)">
                  <use xlink:href="#rim" fill="#404040">
                        <set attributeName="fill" to="#808080" begin="arrowRight.mouseover" end="arrowRight.mouseout"/>
                  </use>
                  <path fill="none" stroke="white" stroke-width="1.5" d="M0,-3.0v7 M-2.5,-0.5L0,-3.0L2.5,-0.5"/>
                </g>
                <g id="arrowDown" xlink:href="#dirArrow" transform="rotate(180) translate(-30 -48)" onmousedown="handlePan(0,1)">
                  <use xlink:href="#rim" fill="#404040">
                        <set attributeName="fill" to="#808080" begin="arrowDown.mouseover" end="arrowDown.mouseout"/>
                  </use>
                  <path fill="none" stroke="white" stroke-width="1.5" d="M0,-3.0v7 M-2.5,-0.5L0,-3.0L2.5,-0.5"/>
                </g>
                <g id="arrowLeft" xlink:href="#dirArrow" transform="rotate(270) translate(-36 17)" onmousedown="handlePan(-1,0)">
                  <use xlink:href="#rim" fill="#404040">
                        <set attributeName="fill" to="#808080" begin="arrowLeft.mouseover" end="arrowLeft.mouseout"/>
                  </use>
                  <path fill="none" stroke="white" stroke-width="1.5" d="M0,-3.0v7 M-2.5,-0.5L0,-3.0L2.5,-0.5"/>
                </g>
        </g>
        <svg viewBox="0 0 15 15" width="100%" height="30px" preserveAspectRatio="xMaxYMin meet">
         <g id="arrow_out" transform="scale(0.3 0.3)">
          <a xlink:href="class_backend_1_1_turtle_a33957258db9a7205d470c5a2d22b89af_icgraph_org.svg" target="_base">
           <rect id="button" ry="5" rx="5" y="6" x="6" height="38" width="38"
                fill="#f2f5e9" fill-opacity="0.5" stroke="#606060" stroke-width="1.0"/>
           <path id="arrow"
             d="M 11.500037,31.436501 C 11.940474,20.09759 22.043105,11.32322 32.158766,21.979434 L 37.068811,17.246167 C 37.068811,17.246167 37.088388,32 37.088388,32 L 22.160133,31.978069 C 22.160133,31.978069 26.997745,27.140456 26.997745,27.140456 C 18.528582,18.264221 13.291696,25.230495 11.500037,31.436501 z"
             style="fill:#404040;"/>
          </a>
         </g>
        </svg>
</svg>
