<?xml version="1.0" encoding="UTF-8" standalone="no"?>
<!DOCTYPE svg PUBLIC "-//W3C//DTD SVG 1.1//EN"
 "http://www.w3.org/Graphics/SVG/1.1/DTD/svg11.dtd">
<!-- Generated by graphviz version 2.36.0 (20140111.2315)
 -->
<!-- Title: Backend.Turtle.move Pages: 1 -->
<svg width="760pt" height="180pt"
 viewBox="0.00 0.00 760.00 180.00" xmlns="http://www.w3.org/2000/svg" xmlns:xlink="http://www.w3.org/1999/xlink">
<g id="graph0" class="graph" transform="scale(1 1) rotate(0) translate(4 176)">
<title>Backend.Turtle.move</title>
<polygon fill="white" stroke="none" points="-4,4 -4,-176 756,-176 756,4 -4,4"/>
<!-- Node1 -->
<g id="node1" class="node"><title>Node1</title>
<polygon fill="#bfbfbf" stroke="black" points="0,-95.5 0,-114.5 116,-114.5 116,-95.5 0,-95.5"/>
<text text-anchor="middle" x="58" y="-102.5" font-family="Helvetica,sans-Serif" font-size="10.00">Backend.Turtle.move</text>
</g>
<!-- Node2 -->
<g id="node2" class="node"><title>Node2</title>
<g id="a_node2"><a xlink:href="../../dc/ded/class_turtle_view_1_1_active_ring.html#ae05a085760f46b9f8e6927001c363e39" target="_top" xlink:title="TurtleView.ActiveRing.update">
<polygon fill="white" stroke="black" points="168,-114.5 168,-133.5 320,-133.5 320,-114.5 168,-114.5"/>
<text text-anchor="middle" x="244" y="-121.5" font-family="Helvetica,sans-Serif" font-size="10.00">TurtleView.ActiveRing.update</text>
</a>
</g>
</g>
<!-- Node1&#45;&gt;Node2 -->
<g id="edge1" class="edge"><title>Node1&#45;&gt;Node2</title>
<path fill="none" stroke="midnightblue" d="M116.21,-110.908C129.368,-112.266 143.64,-113.74 157.701,-115.192"/>
<polygon fill="midnightblue" stroke="midnightblue" points="157.578,-118.698 167.884,-116.243 158.297,-111.735 157.578,-118.698"/>
</g>
<!-- Node3 -->
<g id="node3" class="node"><title>Node3</title>
<g id="a_node3"><a xlink:href="../../d9/d38/class_turtle_view_1_1_turtle_information.html#ad65201793ce738f9c6d6e592271c14e1" target="_top" xlink:title="TurtleView.TurtleInformation.update">
<polygon fill="white" stroke="black" points="152.5,-76.5 152.5,-95.5 335.5,-95.5 335.5,-76.5 152.5,-76.5"/>
<text text-anchor="middle" x="244" y="-83.5" font-family="Helvetica,sans-Serif" font-size="10.00">TurtleView.TurtleInformation.update</text>
</a>
</g>
</g>
<!-- Node1&#45;&gt;Node3 -->
<g id="edge2" class="edge"><title>Node1&#45;&gt;Node3</title>
<path fill="none" stroke="midnightblue" d="M116.21,-99.0924C124.565,-98.2297 133.369,-97.3206 142.282,-96.4002"/>
<polygon fill="midnightblue" stroke="midnightblue" points="142.787,-99.8667 152.375,-95.358 142.068,-92.9038 142.787,-99.8667"/>
</g>
<!-- Node4 -->
<g id="node4" class="node"><title>Node4</title>
<g id="a_node4"><a xlink:href="../../d9/d38/class_turtle_view_1_1_turtle_information.html#aca65258778dade3baa31e0d5ec643b3b" target="_top" xlink:title="TurtleView.TurtleInformation.emptyInfo">
<polygon fill="white" stroke="black" points="372.5,-152.5 372.5,-171.5 569.5,-171.5 569.5,-152.5 372.5,-152.5"/>
<text text-anchor="middle" x="471" y="-159.5" font-family="Helvetica,sans-Serif" font-size="10.00">TurtleView.TurtleInformation.emptyInfo</text>
</a>
</g>
</g>
<!-- Node3&#45;&gt;Node4 -->
<g id="edge3" class="edge"><title>Node3&#45;&gt;Node4</title>
<path fill="none" stroke="midnightblue" d="M313.73,-95.6175C321.499,-98.0703 329.095,-101.145 336,-105 356.314,-116.339 351.605,-131.806 372,-143 376.195,-145.302 380.624,-147.329 385.19,-149.113"/>
<polygon fill="midnightblue" stroke="midnightblue" points="384.124,-152.448 394.719,-152.443 386.434,-145.84 384.124,-152.448"/>
</g>
<!-- Node5 -->
<g id="node5" class="node"><title>Node5</title>
<g id="a_node5"><a xlink:href="../../d1/de0/class_backend_1_1_turtle.html#adc7cb6cc95ee918547d2b18d8bb20183" target="_top" xlink:title="Backend.Turtle.getID">
<polygon fill="white" stroke="black" points="413.5,-114.5 413.5,-133.5 528.5,-133.5 528.5,-114.5 413.5,-114.5"/>
<text text-anchor="middle" x="471" y="-121.5" font-family="Helvetica,sans-Serif" font-size="10.00">Backend.Turtle.getID</text>
</a>
</g>
</g>
<!-- Node3&#45;&gt;Node5 -->
<g id="edge4" class="edge"><title>Node3&#45;&gt;Node5</title>
<path fill="none" stroke="midnightblue" d="M301.487,-95.54C332.379,-100.757 370.837,-107.253 403.21,-112.72"/>
<polygon fill="midnightblue" stroke="midnightblue" points="403.047,-116.242 413.49,-114.456 404.213,-109.34 403.047,-116.242"/>
</g>
<!-- Node6 -->
<g id="node6" class="node"><title>Node6</title>
<g id="a_node6"><a xlink:href="../../d9/d38/class_turtle_view_1_1_turtle_information.html#a15bd13ad05cabb76c0861d0ab42722ef" target="_top" xlink:title="TurtleView.TurtleInformation.truncate">
<polygon fill="white" stroke="black" points="376,-76.5 376,-95.5 566,-95.5 566,-76.5 376,-76.5"/>
<text text-anchor="middle" x="471" y="-83.5" font-family="Helvetica,sans-Serif" font-size="10.00">TurtleView.TurtleInformation.truncate</text>
</a>
</g>
</g>
<!-- Node3&#45;&gt;Node6 -->
<g id="edge5" class="edge"><title>Node3&#45;&gt;Node6</title>
<path fill="none" stroke="midnightblue" d="M335.544,-86C345.526,-86 355.749,-86 365.88,-86"/>
<polygon fill="midnightblue" stroke="midnightblue" points="365.969,-89.5001 375.969,-86 365.969,-82.5001 365.969,-89.5001"/>
</g>
<!-- Node7 -->
<g id="node7" class="node"><title>Node7</title>
<g id="a_node7"><a xlink:href="../../d1/de0/class_backend_1_1_turtle.html#a715f94909b1ba74dc9e4f9eb4fd91e10" target="_top" xlink:title="Backend.Turtle.getXCord">
<polygon fill="white" stroke="black" points="404.5,-38.5 404.5,-57.5 537.5,-57.5 537.5,-38.5 404.5,-38.5"/>
<text text-anchor="middle" x="471" y="-45.5" font-family="Helvetica,sans-Serif" font-size="10.00">Backend.Turtle.getXCord</text>
</a>
</g>
</g>
<!-- Node3&#45;&gt;Node7 -->
<g id="edge6" class="edge"><title>Node3&#45;&gt;Node7</title>
<path fill="none" stroke="midnightblue" d="M301.487,-76.46C332.379,-71.2426 370.837,-64.7475 403.21,-59.28"/>
<polygon fill="midnightblue" stroke="midnightblue" points="404.213,-62.6604 413.49,-57.5439 403.047,-55.7581 404.213,-62.6604"/>
</g>
<!-- Node9 -->
<g id="node9" class="node"><title>Node9</title>
<g id="a_node9"><a xlink:href="../../d1/de0/class_backend_1_1_turtle.html#a692174eccea232fc58e725cff6f50359" target="_top" xlink:title="Backend.Turtle.getYCord">
<polygon fill="white" stroke="black" points="405,-0.5 405,-19.5 537,-19.5 537,-0.5 405,-0.5"/>
<text text-anchor="middle" x="471" y="-7.5" font-family="Helvetica,sans-Serif" font-size="10.00">Backend.Turtle.getYCord</text>
</a>
</g>
</g>
<!-- Node3&#45;&gt;Node9 -->
<g id="edge8" class="edge"><title>Node3&#45;&gt;Node9</title>
<path fill="none" stroke="midnightblue" d="M262.988,-76.3266C287.138,-63.7161 331.68,-41.7684 372,-29 380.675,-26.2527 389.915,-23.8331 399.122,-21.7223"/>
<polygon fill="midnightblue" stroke="midnightblue" points="400.047,-25.1028 409.072,-19.5522 398.555,-18.2636 400.047,-25.1028"/>
</g>
<!-- Node8 -->
<g id="node8" class="node"><title>Node8</title>
<g id="a_node8"><a xlink:href="../../d1/de0/class_backend_1_1_turtle.html#a33957258db9a7205d470c5a2d22b89af" target="_top" xlink:title="Backend.Turtle.getLocation">
<polygon fill="white" stroke="black" points="606,-19.5 606,-38.5 752,-38.5 752,-19.5 606,-19.5"/>
<text text-anchor="middle" x="679" y="-26.5" font-family="Helvetica,sans-Serif" font-size="10.00">Backend.Turtle.getLocation</text>
</a>
</g>
</g>
<!-- Node7&#45;&gt;Node8 -->
<g id="edge7" class="edge"><title>Node7&#45;&gt;Node8</title>
<path fill="none" stroke="midnightblue" d="M537.746,-41.936C556.196,-40.2344 576.489,-38.3627 595.769,-36.5845"/>
<polygon fill="midnightblue" stroke="midnightblue" points="596.107,-40.0682 605.743,-35.6645 595.464,-33.0978 596.107,-40.0682"/>
</g>
<!-- Node9&#45;&gt;Node8 -->
<g id="edge9" class="edge"><title>Node9&#45;&gt;Node8</title>
<path fill="none" stroke="midnightblue" d="M537.18,-16.0117C555.749,-17.7245 576.224,-19.6129 595.673,-21.4067"/>
<polygon fill="midnightblue" stroke="midnightblue" points="595.455,-24.9014 605.734,-22.3347 596.098,-17.931 595.455,-24.9014"/>
</g>
</g>
</svg>
