<?xml version="1.0" encoding="UTF-8" standalone="no"?>
<!DOCTYPE svg PUBLIC "-//W3C//DTD SVG 1.1//EN"
 "http://www.w3.org/Graphics/SVG/1.1/DTD/svg11.dtd">
<!-- Generated by graphviz version 2.36.0 (20140111.2315)
 -->
<!-- Title: Backend.Turtle.nextLocation Pages: 1 -->
<svg width="376pt" height="87pt"
 viewBox="0.00 0.00 376.00 87.00" xmlns="http://www.w3.org/2000/svg" xmlns:xlink="http://www.w3.org/1999/xlink">
<g id="graph0" class="graph" transform="scale(1 1) rotate(0) translate(4 83)">
<title>Backend.Turtle.nextLocation</title>
<polygon fill="white" stroke="none" points="-4,4 -4,-83 372,-83 372,4 -4,4"/>
<!-- Node1 -->
<g id="node1" class="node"><title>Node1</title>
<polygon fill="#bfbfbf" stroke="black" points="0.5,-29.5 0.5,-48.5 151.5,-48.5 151.5,-29.5 0.5,-29.5"/>
<text text-anchor="middle" x="76" y="-36.5" font-family="Helvetica,sans-Serif" font-size="10.00">Backend.Turtle.nextLocation</text>
</g>
<!-- Node2 -->
<g id="node2" class="node"><title>Node2</title>
<g id="a_node2"><a xlink:href="../../dc/db0/class_nodes_1_1turtlecommands_1_1_backward_node.html#a8ebd60d8ab28acb66aef1fd9ba59d5c7" target="_top" xlink:title="Nodes.turtlecommands.Backward\lNode.update">
<polygon fill="white" stroke="black" points="188.5,-49 188.5,-79 367.5,-79 367.5,-49 188.5,-49"/>
<text text-anchor="start" x="196.5" y="-67" font-family="Helvetica,sans-Serif" font-size="10.00">Nodes.turtlecommands.Backward</text>
<text text-anchor="middle" x="278" y="-56" font-family="Helvetica,sans-Serif" font-size="10.00">Node.update</text>
</a>
</g>
</g>
<!-- Node1&#45;&gt;Node2 -->
<g id="edge1" class="edge"><title>Node1&#45;&gt;Node2</title>
<path fill="none" stroke="midnightblue" d="M161.878,-49.6098C170.575,-50.6968 179.428,-51.8035 188.165,-52.8957"/>
<polygon fill="midnightblue" stroke="midnightblue" points="162.114,-46.1121 151.757,-48.3446 161.246,-53.058 162.114,-46.1121"/>
</g>
<!-- Node3 -->
<g id="node3" class="node"><title>Node3</title>
<g id="a_node3"><a xlink:href="../../d8/ddb/class_nodes_1_1turtlecommands_1_1_forward_node.html#a4c29ece57a41db2da90359e0193fcb04" target="_top" xlink:title="Nodes.turtlecommands.Forward\lNode.update">
<polygon fill="white" stroke="black" points="193,-0 193,-30 363,-30 363,-0 193,-0"/>
<text text-anchor="start" x="201" y="-18" font-family="Helvetica,sans-Serif" font-size="10.00">Nodes.turtlecommands.Forward</text>
<text text-anchor="middle" x="278" y="-7" font-family="Helvetica,sans-Serif" font-size="10.00">Node.update</text>
</a>
</g>
</g>
<!-- Node1&#45;&gt;Node3 -->
<g id="edge2" class="edge"><title>Node1&#45;&gt;Node3</title>
<path fill="none" stroke="midnightblue" d="M161.931,-28.8083C172.194,-27.5767 182.674,-26.3192 192.924,-25.0891"/>
<polygon fill="midnightblue" stroke="midnightblue" points="161.269,-25.3625 151.757,-30.0292 162.103,-32.3127 161.269,-25.3625"/>
</g>
</g>
</svg>
