<?xml version="1.0" encoding="UTF-8" standalone="no"?>
<!DOCTYPE svg PUBLIC "-//W3C//DTD SVG 1.1//EN"
 "http://www.w3.org/Graphics/SVG/1.1/DTD/svg11.dtd">
<!-- Generated by graphviz version 2.36.0 (20140111.2315)
 -->
<!-- Title: Backend.Turtle.getID Pages: 1 -->
<svg width="1316pt" height="327pt"
 viewBox="0.00 0.00 1316.00 327.00" xmlns="http://www.w3.org/2000/svg" xmlns:xlink="http://www.w3.org/1999/xlink">
<g id="graph0" class="graph" transform="scale(1 1) rotate(0) translate(4 323)">
<title>Backend.Turtle.getID</title>
<polygon fill="white" stroke="none" points="-4,4 -4,-323 1312,-323 1312,4 -4,4"/>
<!-- Node1 -->
<g id="node1" class="node"><title>Node1</title>
<polygon fill="#bfbfbf" stroke="black" points="0.5,-139.5 0.5,-158.5 115.5,-158.5 115.5,-139.5 0.5,-139.5"/>
<text text-anchor="middle" x="58" y="-146.5" font-family="Helvetica,sans-Serif" font-size="10.00">Backend.Turtle.getID</text>
</g>
<!-- Node2 -->
<g id="node2" class="node"><title>Node2</title>
<g id="a_node2"><a xlink:href="../../d9/d76/class_nodes_1_1turtlecommands_1_1_i_d_node.html#af7b4c0a70ff44a40fa9e6f5efab5cded" target="_top" xlink:title="Nodes.turtlecommands.IDNode.update">
<polygon fill="white" stroke="black" points="152.5,-158.5 152.5,-177.5 357.5,-177.5 357.5,-158.5 152.5,-158.5"/>
<text text-anchor="middle" x="255" y="-165.5" font-family="Helvetica,sans-Serif" font-size="10.00">Nodes.turtlecommands.IDNode.update</text>
</a>
</g>
</g>
<!-- Node1&#45;&gt;Node2 -->
<g id="edge1" class="edge"><title>Node1&#45;&gt;Node2</title>
<path fill="none" stroke="midnightblue" d="M125.788,-155.508C135.686,-156.472 146.054,-157.482 156.423,-158.492"/>
<polygon fill="midnightblue" stroke="midnightblue" points="125.956,-152.007 115.664,-154.521 125.277,-158.974 125.956,-152.007"/>
</g>
<!-- Node3 -->
<g id="node3" class="node"><title>Node3</title>
<g id="a_node3"><a xlink:href="../../d9/d38/class_turtle_view_1_1_turtle_information.html#ad65201793ce738f9c6d6e592271c14e1" target="_top" xlink:title="TurtleView.TurtleInformation.update">
<polygon fill="white" stroke="black" points="163.5,-120.5 163.5,-139.5 346.5,-139.5 346.5,-120.5 163.5,-120.5"/>
<text text-anchor="middle" x="255" y="-127.5" font-family="Helvetica,sans-Serif" font-size="10.00">TurtleView.TurtleInformation.update</text>
</a>
</g>
</g>
<!-- Node1&#45;&gt;Node3 -->
<g id="edge2" class="edge"><title>Node1&#45;&gt;Node3</title>
<path fill="none" stroke="midnightblue" d="M125.684,-142.503C137.835,-141.319 150.698,-140.065 163.403,-138.827"/>
<polygon fill="midnightblue" stroke="midnightblue" points="125.277,-139.026 115.664,-143.479 125.956,-145.993 125.277,-139.026"/>
</g>
<!-- Node4 -->
<g id="node4" class="node"><title>Node4</title>
<g id="a_node4"><a xlink:href="../../d1/de0/class_backend_1_1_turtle.html#a94cbed3c9c0c33e1ea8e8b3c51c26c73" target="_top" xlink:title="Backend.Turtle.move">
<polygon fill="white" stroke="black" points="429,-196.5 429,-215.5 545,-215.5 545,-196.5 429,-196.5"/>
<text text-anchor="middle" x="487" y="-203.5" font-family="Helvetica,sans-Serif" font-size="10.00">Backend.Turtle.move</text>
</a>
</g>
</g>
<!-- Node3&#45;&gt;Node4 -->
<g id="edge3" class="edge"><title>Node3&#45;&gt;Node4</title>
<path fill="none" stroke="midnightblue" d="M329.868,-141.627C339.418,-143.752 349,-146.201 358,-149 398.65,-161.644 443.538,-183.637 467.874,-196.289"/>
<polygon fill="midnightblue" stroke="midnightblue" points="330.461,-138.175 319.953,-139.53 329.012,-145.024 330.461,-138.175"/>
</g>
<!-- Node11 -->
<g id="node11" class="node"><title>Node11</title>
<g id="a_node11"><a xlink:href="../../df/dec/class_front_end_1_1_view.html#afa6c660ce1c2e6493f471b5344638d5b" target="_top" xlink:title="FrontEnd.View.updateTurtleInfo">
<polygon fill="white" stroke="black" points="406,-120.5 406,-139.5 568,-139.5 568,-120.5 406,-120.5"/>
<text text-anchor="middle" x="487" y="-127.5" font-family="Helvetica,sans-Serif" font-size="10.00">FrontEnd.View.updateTurtleInfo</text>
</a>
</g>
</g>
<!-- Node3&#45;&gt;Node11 -->
<g id="edge10" class="edge"><title>Node3&#45;&gt;Node11</title>
<path fill="none" stroke="midnightblue" d="M356.759,-130C373.223,-130 390.082,-130 405.958,-130"/>
<polygon fill="midnightblue" stroke="midnightblue" points="356.572,-126.5 346.572,-130 356.572,-133.5 356.572,-126.5"/>
</g>
<!-- Node15 -->
<g id="node15" class="node"><title>Node15</title>
<g id="a_node15"><a xlink:href="../../d9/d38/class_turtle_view_1_1_turtle_information.html#a3a64e1f1313c0c4f30a93c1fcc5f36c1" target="_top" xlink:title="TurtleView.TurtleInformation.change\lTurtle">
<polygon fill="white" stroke="black" points="394.5,-71 394.5,-101 579.5,-101 579.5,-71 394.5,-71"/>
<text text-anchor="start" x="402.5" y="-89" font-family="Helvetica,sans-Serif" font-size="10.00">TurtleView.TurtleInformation.change</text>
<text text-anchor="middle" x="487" y="-78" font-family="Helvetica,sans-Serif" font-size="10.00">Turtle</text>
</a>
</g>
</g>
<!-- Node3&#45;&gt;Node15 -->
<g id="edge14" class="edge"><title>Node3&#45;&gt;Node15</title>
<path fill="none" stroke="midnightblue" d="M315.908,-118.539C343.796,-113.204 377.344,-106.786 407.249,-101.065"/>
<polygon fill="midnightblue" stroke="midnightblue" points="315.071,-115.136 305.907,-120.453 316.386,-122.011 315.071,-115.136"/>
</g>
<!-- Node5 -->
<g id="node5" class="node"><title>Node5</title>
<g id="a_node5"><a xlink:href="../../d1/de0/class_backend_1_1_turtle.html#a98cc72272199855ddfd7588b23bb5a4f" target="_top" xlink:title="Backend.Turtle.Turtle">
<polygon fill="white" stroke="black" points="634.5,-234.5 634.5,-253.5 749.5,-253.5 749.5,-234.5 634.5,-234.5"/>
<text text-anchor="middle" x="692" y="-241.5" font-family="Helvetica,sans-Serif" font-size="10.00">Backend.Turtle.Turtle</text>
</a>
</g>
</g>
<!-- Node4&#45;&gt;Node5 -->
<g id="edge4" class="edge"><title>Node4&#45;&gt;Node5</title>
<path fill="none" stroke="midnightblue" d="M548.997,-217.418C578.042,-222.855 612.382,-229.283 640.016,-234.456"/>
<polygon fill="midnightblue" stroke="midnightblue" points="549.437,-213.94 538.963,-215.54 548.149,-220.82 549.437,-213.94"/>
</g>
<!-- Node6 -->
<g id="node6" class="node"><title>Node6</title>
<g id="a_node6"><a xlink:href="../../d1/de0/class_backend_1_1_turtle.html#ad5f5520cb6970723e121a8d17f2c0a5c" target="_top" xlink:title="Backend.Turtle.addLocation">
<polygon fill="white" stroke="black" points="618,-196.5 618,-215.5 766,-215.5 766,-196.5 618,-196.5"/>
<text text-anchor="middle" x="692" y="-203.5" font-family="Helvetica,sans-Serif" font-size="10.00">Backend.Turtle.addLocation</text>
</a>
</g>
</g>
<!-- Node4&#45;&gt;Node6 -->
<g id="edge5" class="edge"><title>Node4&#45;&gt;Node6</title>
<path fill="none" stroke="midnightblue" d="M555.334,-206C575.316,-206 597.297,-206 617.641,-206"/>
<polygon fill="midnightblue" stroke="midnightblue" points="555.087,-202.5 545.087,-206 555.087,-209.5 555.087,-202.5"/>
</g>
<!-- Node7 -->
<g id="node7" class="node"><title>Node7</title>
<g id="a_node7"><a xlink:href="../../dc/db0/class_nodes_1_1turtlecommands_1_1_backward_node.html#a8ebd60d8ab28acb66aef1fd9ba59d5c7" target="_top" xlink:title="Nodes.turtlecommands.Backward\lNode.update">
<polygon fill="white" stroke="black" points="804.5,-289 804.5,-319 983.5,-319 983.5,-289 804.5,-289"/>
<text text-anchor="start" x="812.5" y="-307" font-family="Helvetica,sans-Serif" font-size="10.00">Nodes.turtlecommands.Backward</text>
<text text-anchor="middle" x="894" y="-296" font-family="Helvetica,sans-Serif" font-size="10.00">Node.update</text>
</a>
</g>
</g>
<!-- Node6&#45;&gt;Node7 -->
<g id="edge6" class="edge"><title>Node6&#45;&gt;Node7</title>
<path fill="none" stroke="midnightblue" d="M759.296,-219.756C762.337,-221.32 765.258,-223.061 768,-225 791.552,-241.653 780.664,-262.046 804,-279 809.324,-282.868 815.225,-286.138 821.382,-288.903"/>
<polygon fill="midnightblue" stroke="midnightblue" points="760.442,-216.435 749.882,-215.577 757.602,-222.833 760.442,-216.435"/>
</g>
<!-- Node8 -->
<g id="node8" class="node"><title>Node8</title>
<g id="a_node8"><a xlink:href="../../d4/dd2/class_nodes_1_1turtlecommands_1_1_home_node.html#ab3bbeb66894a4c93c40e651457efe097" target="_top" xlink:title="Nodes.turtlecommands.Home\lNode.update">
<polygon fill="white" stroke="black" points="813,-240 813,-270 975,-270 975,-240 813,-240"/>
<text text-anchor="start" x="821" y="-258" font-family="Helvetica,sans-Serif" font-size="10.00">Nodes.turtlecommands.Home</text>
<text text-anchor="middle" x="894" y="-247" font-family="Helvetica,sans-Serif" font-size="10.00">Node.update</text>
</a>
</g>
</g>
<!-- Node6&#45;&gt;Node8 -->
<g id="edge7" class="edge"><title>Node6&#45;&gt;Node8</title>
<path fill="none" stroke="midnightblue" d="M742.038,-218.014C769.061,-224.635 802.862,-232.916 831.625,-239.963"/>
<polygon fill="midnightblue" stroke="midnightblue" points="742.582,-214.544 732.037,-215.564 740.917,-221.343 742.582,-214.544"/>
</g>
<!-- Node9 -->
<g id="node9" class="node"><title>Node9</title>
<g id="a_node9"><a xlink:href="../../d1/dd7/class_nodes_1_1turtlecommands_1_1_set_position_node.html#a5c752365147093605e4591ecbd0ededd" target="_top" xlink:title="Nodes.turtlecommands.Set\lPositionNode.update">
<polygon fill="white" stroke="black" points="819.5,-191 819.5,-221 968.5,-221 968.5,-191 819.5,-191"/>
<text text-anchor="start" x="827.5" y="-209" font-family="Helvetica,sans-Serif" font-size="10.00">Nodes.turtlecommands.Set</text>
<text text-anchor="middle" x="894" y="-198" font-family="Helvetica,sans-Serif" font-size="10.00">PositionNode.update</text>
</a>
</g>
</g>
<!-- Node6&#45;&gt;Node9 -->
<g id="edge8" class="edge"><title>Node6&#45;&gt;Node9</title>
<path fill="none" stroke="midnightblue" d="M776.371,-206C790.677,-206 805.45,-206 819.475,-206"/>
<polygon fill="midnightblue" stroke="midnightblue" points="776.054,-202.5 766.054,-206 776.054,-209.5 776.054,-202.5"/>
</g>
<!-- Node10 -->
<g id="node10" class="node"><title>Node10</title>
<g id="a_node10"><a xlink:href="../../d8/ddb/class_nodes_1_1turtlecommands_1_1_forward_node.html#a4c29ece57a41db2da90359e0193fcb04" target="_top" xlink:title="Nodes.turtlecommands.Forward\lNode.update">
<polygon fill="white" stroke="black" points="809,-142 809,-172 979,-172 979,-142 809,-142"/>
<text text-anchor="start" x="817" y="-160" font-family="Helvetica,sans-Serif" font-size="10.00">Nodes.turtlecommands.Forward</text>
<text text-anchor="middle" x="894" y="-149" font-family="Helvetica,sans-Serif" font-size="10.00">Node.update</text>
</a>
</g>
</g>
<!-- Node6&#45;&gt;Node10 -->
<g id="edge9" class="edge"><title>Node6&#45;&gt;Node10</title>
<path fill="none" stroke="midnightblue" d="M742.038,-193.986C769.061,-187.365 802.862,-179.084 831.625,-172.037"/>
<polygon fill="midnightblue" stroke="midnightblue" points="740.917,-190.657 732.037,-196.436 742.582,-197.456 740.917,-190.657"/>
</g>
<!-- Node12 -->
<g id="node12" class="node"><title>Node12</title>
<g id="a_node12"><a xlink:href="../../dd/d2e/class_front_end_1_1_controller.html#a0ad45a00bc5c4475d3b1c6a4dbf74a91" target="_top" xlink:title="FrontEnd.Controller.interpret">
<polygon fill="white" stroke="black" points="616,-120.5 616,-139.5 768,-139.5 768,-120.5 616,-120.5"/>
<text text-anchor="middle" x="692" y="-127.5" font-family="Helvetica,sans-Serif" font-size="10.00">FrontEnd.Controller.interpret</text>
</a>
</g>
</g>
<!-- Node11&#45;&gt;Node12 -->
<g id="edge11" class="edge"><title>Node11&#45;&gt;Node12</title>
<path fill="none" stroke="midnightblue" d="M578.27,-130C590.869,-130 603.701,-130 615.978,-130"/>
<polygon fill="midnightblue" stroke="midnightblue" points="578.231,-126.5 568.231,-130 578.231,-133.5 578.231,-126.5"/>
</g>
<!-- Node13 -->
<g id="node13" class="node"><title>Node13</title>
<g id="a_node13"><a xlink:href="../../dd/d2e/class_front_end_1_1_controller.html#a41885f349a8f334750e26d685a8981d2" target="_top" xlink:title="FrontEnd.Controller.execute\lCommand">
<polygon fill="white" stroke="black" points="819.5,-93 819.5,-123 968.5,-123 968.5,-93 819.5,-93"/>
<text text-anchor="start" x="827.5" y="-111" font-family="Helvetica,sans-Serif" font-size="10.00">FrontEnd.Controller.execute</text>
<text text-anchor="middle" x="894" y="-100" font-family="Helvetica,sans-Serif" font-size="10.00">Command</text>
</a>
</g>
</g>
<!-- Node12&#45;&gt;Node13 -->
<g id="edge12" class="edge"><title>Node12&#45;&gt;Node13</title>
<path fill="none" stroke="midnightblue" d="M778.347,-120.612C791.94,-119.117 805.902,-117.581 819.199,-116.118"/>
<polygon fill="midnightblue" stroke="midnightblue" points="777.599,-117.173 768.042,-121.745 778.364,-124.131 777.599,-117.173"/>
</g>
<!-- Node14 -->
<g id="node14" class="node"><title>Node14</title>
<g id="a_node14"><a xlink:href="../../dd/d2e/class_front_end_1_1_controller.html#a29be9ff259428dbe97eebe3ec9a13ac5" target="_top" xlink:title="FrontEnd.Controller.update">
<polygon fill="white" stroke="black" points="1020,-98.5 1020,-117.5 1164,-117.5 1164,-98.5 1020,-98.5"/>
<text text-anchor="middle" x="1092" y="-105.5" font-family="Helvetica,sans-Serif" font-size="10.00">FrontEnd.Controller.update</text>
</a>
</g>
</g>
<!-- Node13&#45;&gt;Node14 -->
<g id="edge13" class="edge"><title>Node13&#45;&gt;Node14</title>
<path fill="none" stroke="midnightblue" d="M978.91,-108C992.589,-108 1006.64,-108 1019.97,-108"/>
<polygon fill="midnightblue" stroke="midnightblue" points="978.541,-104.5 968.541,-108 978.541,-111.5 978.541,-104.5"/>
</g>
<!-- Node16 -->
<g id="node16" class="node"><title>Node16</title>
<g id="a_node16"><a xlink:href="../../d9/d38/class_turtle_view_1_1_turtle_information.html#a9358bcce384b1f845cdf75190c4072e7" target="_top" xlink:title="TurtleView.TurtleInformation.\lTurtleInformation">
<polygon fill="white" stroke="black" points="617.5,-71 617.5,-101 766.5,-101 766.5,-71 617.5,-71"/>
<text text-anchor="start" x="625.5" y="-89" font-family="Helvetica,sans-Serif" font-size="10.00">TurtleView.TurtleInformation.</text>
<text text-anchor="middle" x="692" y="-78" font-family="Helvetica,sans-Serif" font-size="10.00">TurtleInformation</text>
</a>
</g>
</g>
<!-- Node15&#45;&gt;Node16 -->
<g id="edge15" class="edge"><title>Node15&#45;&gt;Node16</title>
<path fill="none" stroke="midnightblue" d="M589.776,-86C599.074,-86 608.369,-86 617.349,-86"/>
<polygon fill="midnightblue" stroke="midnightblue" points="589.701,-82.5001 579.701,-86 589.701,-89.5001 589.701,-82.5001"/>
</g>
<!-- Node17 -->
<g id="node17" class="node"><title>Node17</title>
<g id="a_node17"><a xlink:href="../../d4/d8a/class_turtle_view_1_1_turtle_window.html#a55f7ffa346d2ced8f9e831efc900d0c0" target="_top" xlink:title="TurtleView.TurtleWindow.click">
<polygon fill="white" stroke="black" points="617.5,-32.5 617.5,-51.5 766.5,-51.5 766.5,-32.5 617.5,-32.5"/>
<text text-anchor="middle" x="692" y="-39.5" font-family="Helvetica,sans-Serif" font-size="10.00">TurtleView.TurtleWindow.click</text>
</a>
</g>
</g>
<!-- Node15&#45;&gt;Node17 -->
<g id="edge16" class="edge"><title>Node15&#45;&gt;Node17</title>
<path fill="none" stroke="midnightblue" d="M567.187,-68.8363C594.358,-62.947 623.774,-56.5712 647.113,-51.5124"/>
<polygon fill="midnightblue" stroke="midnightblue" points="566.325,-65.4418 557.293,-70.9808 567.808,-72.283 566.325,-65.4418"/>
</g>
<!-- Node18 -->
<g id="node18" class="node"><title>Node18</title>
<g id="a_node18"><a xlink:href="../../d4/d8a/class_turtle_view_1_1_turtle_window.html#a82959fc46f81f3a875e126b5ecd6325d" target="_top" xlink:title="TurtleView.TurtleWindow.\lTurtleWindow">
<polygon fill="white" stroke="black" points="1027.5,-49 1027.5,-79 1156.5,-79 1156.5,-49 1027.5,-49"/>
<text text-anchor="start" x="1035.5" y="-67" font-family="Helvetica,sans-Serif" font-size="10.00">TurtleView.TurtleWindow.</text>
<text text-anchor="middle" x="1092" y="-56" font-family="Helvetica,sans-Serif" font-size="10.00">TurtleWindow</text>
</a>
</g>
</g>
<!-- Node17&#45;&gt;Node18 -->
<g id="edge17" class="edge"><title>Node17&#45;&gt;Node18</title>
<path fill="none" stroke="midnightblue" d="M777.249,-46.657C851.992,-50.7885 959.544,-56.7336 1027.31,-60.4797"/>
<polygon fill="midnightblue" stroke="midnightblue" points="777.106,-43.1438 766.928,-46.0865 776.72,-50.1332 777.106,-43.1438"/>
</g>
<!-- Node19 -->
<g id="node19" class="node"><title>Node19</title>
<g id="a_node19"><a xlink:href="../../d4/d8a/class_turtle_view_1_1_turtle_window.html#ab6961d80a7e356af4e9206478608ed40" target="_top" xlink:title="TurtleView.TurtleWindow.make\lTurtle">
<polygon fill="white" stroke="black" points="816,-5 816,-35 972,-35 972,-5 816,-5"/>
<text text-anchor="start" x="824" y="-23" font-family="Helvetica,sans-Serif" font-size="10.00">TurtleView.TurtleWindow.make</text>
<text text-anchor="middle" x="894" y="-12" font-family="Helvetica,sans-Serif" font-size="10.00">Turtle</text>
</a>
</g>
</g>
<!-- Node17&#45;&gt;Node19 -->
<g id="edge18" class="edge"><title>Node17&#45;&gt;Node19</title>
<path fill="none" stroke="midnightblue" d="M776.883,-32.7729C789.799,-31.3521 803.084,-29.8907 815.845,-28.4871"/>
<polygon fill="midnightblue" stroke="midnightblue" points="776.178,-29.3292 766.621,-33.9017 776.943,-36.2873 776.178,-29.3292"/>
</g>
<!-- Node19&#45;&gt;Node18 -->
<g id="edge21" class="edge"><title>Node19&#45;&gt;Node18</title>
<path fill="none" stroke="midnightblue" d="M971.719,-37.2226C990.142,-41.3585 1009.62,-45.731 1027.37,-49.7166"/>
<polygon fill="midnightblue" stroke="midnightblue" points="972.428,-33.7947 961.904,-35.0192 970.894,-40.6247 972.428,-33.7947"/>
</g>
<!-- Node20 -->
<g id="node20" class="node"><title>Node20</title>
<g id="a_node20"><a xlink:href="../../df/dec/class_front_end_1_1_view.html#affad60393f506692d02f9dc2525780d2" target="_top" xlink:title="FrontEnd.View.makeTurtle\lButton">
<polygon fill="white" stroke="black" points="1023,-0 1023,-30 1161,-30 1161,-0 1023,-0"/>
<text text-anchor="start" x="1031" y="-18" font-family="Helvetica,sans-Serif" font-size="10.00">FrontEnd.View.makeTurtle</text>
<text text-anchor="middle" x="1092" y="-7" font-family="Helvetica,sans-Serif" font-size="10.00">Button</text>
</a>
</g>
</g>
<!-- Node19&#45;&gt;Node20 -->
<g id="edge19" class="edge"><title>Node19&#45;&gt;Node20</title>
<path fill="none" stroke="midnightblue" d="M982.454,-17.769C995.977,-17.424 1009.77,-17.0722 1022.79,-16.74"/>
<polygon fill="midnightblue" stroke="midnightblue" points="982.09,-14.2771 972.183,-18.031 982.269,-21.2748 982.09,-14.2771"/>
</g>
<!-- Node21 -->
<g id="node21" class="node"><title>Node21</title>
<g id="a_node21"><a xlink:href="../../df/dec/class_front_end_1_1_view.html#a079d7e899ded516b169dc6e66da79e1e" target="_top" xlink:title="FrontEnd.View.View">
<polygon fill="white" stroke="black" points="1200.5,-5.5 1200.5,-24.5 1307.5,-24.5 1307.5,-5.5 1200.5,-5.5"/>
<text text-anchor="middle" x="1254" y="-12.5" font-family="Helvetica,sans-Serif" font-size="10.00">FrontEnd.View.View</text>
</a>
</g>
</g>
<!-- Node20&#45;&gt;Node21 -->
<g id="edge20" class="edge"><title>Node20&#45;&gt;Node21</title>
<path fill="none" stroke="midnightblue" d="M1171.5,-15C1181.3,-15 1191.13,-15 1200.4,-15"/>
<polygon fill="midnightblue" stroke="midnightblue" points="1171.32,-11.5001 1161.32,-15 1171.32,-18.5001 1171.32,-11.5001"/>
</g>
</g>
</svg>
