<?xml version="1.0" encoding="UTF-8" standalone="no"?>
<!DOCTYPE svg PUBLIC "-//W3C//DTD SVG 1.1//EN"
 "http://www.w3.org/Graphics/SVG/1.1/DTD/svg11.dtd">
<!-- Generated by graphviz version 2.36.0 (20140111.2315)
 -->
<!-- Title: Backend.Turtle.hideRing Pages: 1 -->
<svg width="834pt" height="93pt"
 viewBox="0.00 0.00 834.00 93.00" xmlns="http://www.w3.org/2000/svg" xmlns:xlink="http://www.w3.org/1999/xlink">
<g id="graph0" class="graph" transform="scale(1 1) rotate(0) translate(4 89)">
<title>Backend.Turtle.hideRing</title>
<polygon fill="white" stroke="none" points="-4,4 -4,-89 830,-89 830,4 -4,4"/>
<!-- Node1 -->
<g id="node1" class="node"><title>Node1</title>
<polygon fill="#bfbfbf" stroke="black" points="0,-19.5 0,-38.5 130,-38.5 130,-19.5 0,-19.5"/>
<text text-anchor="middle" x="65" y="-26.5" font-family="Helvetica,sans-Serif" font-size="10.00">Backend.Turtle.hideRing</text>
</g>
<!-- Node2 -->
<g id="node2" class="node"><title>Node2</title>
<g id="a_node2"><a xlink:href="../../d4/d8a/class_turtle_view_1_1_turtle_window.html#a55f7ffa346d2ced8f9e831efc900d0c0" target="_top" xlink:title="TurtleView.TurtleWindow.click">
<polygon fill="white" stroke="black" points="166.5,-38.5 166.5,-57.5 315.5,-57.5 315.5,-38.5 166.5,-38.5"/>
<text text-anchor="middle" x="241" y="-45.5" font-family="Helvetica,sans-Serif" font-size="10.00">TurtleView.TurtleWindow.click</text>
</a>
</g>
</g>
<!-- Node1&#45;&gt;Node2 -->
<g id="edge1" class="edge"><title>Node1&#45;&gt;Node2</title>
<path fill="none" stroke="midnightblue" d="M140.3,-37.1132C148.905,-38.0528 157.679,-39.0109 166.276,-39.9497"/>
<polygon fill="midnightblue" stroke="midnightblue" points="140.618,-33.6272 130.297,-36.0209 139.858,-40.5858 140.618,-33.6272"/>
</g>
<!-- Node7 -->
<g id="node7" class="node"><title>Node7</title>
<g id="a_node7"><a xlink:href="../../d1/de0/class_backend_1_1_turtle.html#a98cc72272199855ddfd7588b23bb5a4f" target="_top" xlink:title="Backend.Turtle.Turtle">
<polygon fill="white" stroke="black" points="183.5,-0.5 183.5,-19.5 298.5,-19.5 298.5,-0.5 183.5,-0.5"/>
<text text-anchor="middle" x="241" y="-7.5" font-family="Helvetica,sans-Serif" font-size="10.00">Backend.Turtle.Turtle</text>
</a>
</g>
</g>
<!-- Node1&#45;&gt;Node7 -->
<g id="edge7" class="edge"><title>Node1&#45;&gt;Node7</title>
<path fill="none" stroke="midnightblue" d="M140.634,-20.8503C154.972,-19.2846 169.768,-17.669 183.421,-16.1782"/>
<polygon fill="midnightblue" stroke="midnightblue" points="139.858,-17.4142 130.297,-21.9791 140.618,-24.3728 139.858,-17.4142"/>
</g>
<!-- Node3 -->
<g id="node3" class="node"><title>Node3</title>
<g id="a_node3"><a xlink:href="../../d4/d8a/class_turtle_view_1_1_turtle_window.html#a82959fc46f81f3a875e126b5ecd6325d" target="_top" xlink:title="TurtleView.TurtleWindow.\lTurtleWindow">
<polygon fill="white" stroke="black" points="548.5,-55 548.5,-85 677.5,-85 677.5,-55 548.5,-55"/>
<text text-anchor="start" x="556.5" y="-73" font-family="Helvetica,sans-Serif" font-size="10.00">TurtleView.TurtleWindow.</text>
<text text-anchor="middle" x="613" y="-62" font-family="Helvetica,sans-Serif" font-size="10.00">TurtleWindow</text>
</a>
</g>
</g>
<!-- Node2&#45;&gt;Node3 -->
<g id="edge2" class="edge"><title>Node2&#45;&gt;Node3</title>
<path fill="none" stroke="midnightblue" d="M325.736,-52.9789C393.312,-56.9969 486.942,-62.5641 548.461,-66.222"/>
<polygon fill="midnightblue" stroke="midnightblue" points="325.733,-49.4726 315.542,-52.3728 325.317,-56.4603 325.733,-49.4726"/>
</g>
<!-- Node4 -->
<g id="node4" class="node"><title>Node4</title>
<g id="a_node4"><a xlink:href="../../d4/d8a/class_turtle_view_1_1_turtle_window.html#ab6961d80a7e356af4e9206478608ed40" target="_top" xlink:title="TurtleView.TurtleWindow.make\lTurtle">
<polygon fill="white" stroke="black" points="352,-11 352,-41 508,-41 508,-11 352,-11"/>
<text text-anchor="start" x="360" y="-29" font-family="Helvetica,sans-Serif" font-size="10.00">TurtleView.TurtleWindow.make</text>
<text text-anchor="middle" x="430" y="-18" font-family="Helvetica,sans-Serif" font-size="10.00">Turtle</text>
</a>
</g>
</g>
<!-- Node2&#45;&gt;Node4 -->
<g id="edge3" class="edge"><title>Node2&#45;&gt;Node4</title>
<path fill="none" stroke="midnightblue" d="M325.73,-38.1494C334.386,-37.131 343.155,-36.0994 351.736,-35.0899"/>
<polygon fill="midnightblue" stroke="midnightblue" points="325.161,-34.6921 315.639,-39.3366 325.979,-41.6441 325.161,-34.6921"/>
</g>
<!-- Node4&#45;&gt;Node3 -->
<g id="edge6" class="edge"><title>Node4&#45;&gt;Node3</title>
<path fill="none" stroke="midnightblue" d="M502.929,-43.4855C518.568,-47.2873 534.981,-51.277 550.188,-54.9738"/>
<polygon fill="midnightblue" stroke="midnightblue" points="503.327,-39.9805 492.784,-41.0192 501.674,-46.7824 503.327,-39.9805"/>
</g>
<!-- Node5 -->
<g id="node5" class="node"><title>Node5</title>
<g id="a_node5"><a xlink:href="../../df/dec/class_front_end_1_1_view.html#affad60393f506692d02f9dc2525780d2" target="_top" xlink:title="FrontEnd.View.makeTurtle\lButton">
<polygon fill="white" stroke="black" points="544,-6 544,-36 682,-36 682,-6 544,-6"/>
<text text-anchor="start" x="552" y="-24" font-family="Helvetica,sans-Serif" font-size="10.00">FrontEnd.View.makeTurtle</text>
<text text-anchor="middle" x="613" y="-13" font-family="Helvetica,sans-Serif" font-size="10.00">Button</text>
</a>
</g>
</g>
<!-- Node4&#45;&gt;Node5 -->
<g id="edge4" class="edge"><title>Node4&#45;&gt;Node5</title>
<path fill="none" stroke="midnightblue" d="M518.146,-23.5926C526.802,-23.3535 535.5,-23.1133 543.92,-22.8807"/>
<polygon fill="midnightblue" stroke="midnightblue" points="517.922,-20.0974 508.023,-23.8723 518.116,-27.0947 517.922,-20.0974"/>
</g>
<!-- Node6 -->
<g id="node6" class="node"><title>Node6</title>
<g id="a_node6"><a xlink:href="../../df/dec/class_front_end_1_1_view.html#a079d7e899ded516b169dc6e66da79e1e" target="_top" xlink:title="FrontEnd.View.View">
<polygon fill="white" stroke="black" points="718.5,-11.5 718.5,-30.5 825.5,-30.5 825.5,-11.5 718.5,-11.5"/>
<text text-anchor="middle" x="772" y="-18.5" font-family="Helvetica,sans-Serif" font-size="10.00">FrontEnd.View.View</text>
</a>
</g>
</g>
<!-- Node5&#45;&gt;Node6 -->
<g id="edge5" class="edge"><title>Node5&#45;&gt;Node6</title>
<path fill="none" stroke="midnightblue" d="M692.636,-21C701.372,-21 710.105,-21 718.404,-21"/>
<polygon fill="midnightblue" stroke="midnightblue" points="692.406,-17.5001 682.406,-21 692.406,-24.5001 692.406,-17.5001"/>
</g>
</g>
</svg>
