<?xml version="1.0" encoding="UTF-8" standalone="no"?>
<!DOCTYPE svg PUBLIC "-//W3C//DTD SVG 1.1//EN"
 "http://www.w3.org/Graphics/SVG/1.1/DTD/svg11.dtd">
<!-- Generated by graphviz version 2.36.0 (20140111.2315)
 -->
<!-- Title: Nodes.Node.setParent Pages: 1 -->
<svg width="1202pt" height="38pt"
 viewBox="0.00 0.00 1202.00 38.00" xmlns="http://www.w3.org/2000/svg" xmlns:xlink="http://www.w3.org/1999/xlink">
<g id="graph0" class="graph" transform="scale(1 1) rotate(0) translate(4 34)">
<title>Nodes.Node.setParent</title>
<polygon fill="white" stroke="none" points="-4,4 -4,-34 1198,-34 1198,4 -4,4"/>
<!-- Node1 -->
<g id="node1" class="node"><title>Node1</title>
<polygon fill="#bfbfbf" stroke="black" points="0.5,-5.5 0.5,-24.5 125.5,-24.5 125.5,-5.5 0.5,-5.5"/>
<text text-anchor="middle" x="63" y="-12.5" font-family="Helvetica,sans-Serif" font-size="10.00">Nodes.Node.setParent</text>
</g>
<!-- Node2 -->
<g id="node2" class="node"><title>Node2</title>
<g id="a_node2"><a xlink:href="../../df/dac/class_nodes_1_1_node.html#ae200fe31f562bfb695af21f5673b8345" target="_top" xlink:title="Nodes.Node.addChildren">
<polygon fill="white" stroke="black" points="162,-5.5 162,-24.5 298,-24.5 298,-5.5 162,-5.5"/>
<text text-anchor="middle" x="230" y="-12.5" font-family="Helvetica,sans-Serif" font-size="10.00">Nodes.Node.addChildren</text>
</a>
</g>
</g>
<!-- Node1&#45;&gt;Node2 -->
<g id="edge1" class="edge"><title>Node1&#45;&gt;Node2</title>
<path fill="none" stroke="midnightblue" d="M136.183,-15C144.686,-15 153.338,-15 161.769,-15"/>
<polygon fill="midnightblue" stroke="midnightblue" points="135.909,-11.5001 125.909,-15 135.909,-18.5001 135.909,-11.5001"/>
</g>
<!-- Node3 -->
<g id="node3" class="node"><title>Node3</title>
<g id="a_node3"><a xlink:href="../../db/d5d/class_backend_1_1_a_s_t.html#a1570c419383f1993e4b7df53d536035e" target="_top" xlink:title="Backend.AST.populateTree">
<polygon fill="white" stroke="black" points="334.5,-5.5 334.5,-24.5 477.5,-24.5 477.5,-5.5 334.5,-5.5"/>
<text text-anchor="middle" x="406" y="-12.5" font-family="Helvetica,sans-Serif" font-size="10.00">Backend.AST.populateTree</text>
</a>
</g>
</g>
<!-- Node2&#45;&gt;Node3 -->
<g id="edge2" class="edge"><title>Node2&#45;&gt;Node3</title>
<path fill="none" stroke="midnightblue" d="M308.38,-15C317.058,-15 325.865,-15 334.451,-15"/>
<polygon fill="midnightblue" stroke="midnightblue" points="308.273,-11.5001 298.273,-15 308.273,-18.5001 308.273,-11.5001"/>
</g>
<!-- Node4 -->
<g id="node4" class="node"><title>Node4</title>
<g id="a_node4"><a xlink:href="../../da/d3c/class_backend_1_1_model.html#a3b4294a767985d6585d71cfe0293fba2" target="_top" xlink:title="Backend.Model.makeTreeand\lAddValues">
<polygon fill="white" stroke="black" points="514.5,-0 514.5,-30 671.5,-30 671.5,-0 514.5,-0"/>
<text text-anchor="start" x="522.5" y="-18" font-family="Helvetica,sans-Serif" font-size="10.00">Backend.Model.makeTreeand</text>
<text text-anchor="middle" x="593" y="-7" font-family="Helvetica,sans-Serif" font-size="10.00">AddValues</text>
</a>
</g>
</g>
<!-- Node3&#45;&gt;Node4 -->
<g id="edge3" class="edge"><title>Node3&#45;&gt;Node4</title>
<path fill="none" stroke="midnightblue" d="M487.905,-15C496.641,-15 505.518,-15 514.216,-15"/>
<polygon fill="midnightblue" stroke="midnightblue" points="487.732,-11.5001 477.732,-15 487.732,-18.5001 487.732,-11.5001"/>
</g>
<!-- Node5 -->
<g id="node5" class="node"><title>Node5</title>
<g id="a_node5"><a xlink:href="../../da/d3c/class_backend_1_1_model.html#a972866b8540ea6b615e3c80b0ad1f9c6" target="_top" xlink:title="Backend.Model.parse">
<polygon fill="white" stroke="black" points="708.5,-5.5 708.5,-24.5 827.5,-24.5 827.5,-5.5 708.5,-5.5"/>
<text text-anchor="middle" x="768" y="-12.5" font-family="Helvetica,sans-Serif" font-size="10.00">Backend.Model.parse</text>
</a>
</g>
</g>
<!-- Node4&#45;&gt;Node5 -->
<g id="edge4" class="edge"><title>Node4&#45;&gt;Node5</title>
<path fill="none" stroke="midnightblue" d="M681.773,-15C690.755,-15 699.719,-15 708.277,-15"/>
<polygon fill="midnightblue" stroke="midnightblue" points="681.644,-11.5001 671.644,-15 681.644,-18.5001 681.644,-11.5001"/>
</g>
<!-- Node6 -->
<g id="node6" class="node"><title>Node6</title>
<g id="a_node6"><a xlink:href="../../dd/d2e/class_front_end_1_1_controller.html#a41885f349a8f334750e26d685a8981d2" target="_top" xlink:title="FrontEnd.Controller.execute\lCommand">
<polygon fill="white" stroke="black" points="864.5,-0 864.5,-30 1013.5,-30 1013.5,-0 864.5,-0"/>
<text text-anchor="start" x="872.5" y="-18" font-family="Helvetica,sans-Serif" font-size="10.00">FrontEnd.Controller.execute</text>
<text text-anchor="middle" x="939" y="-7" font-family="Helvetica,sans-Serif" font-size="10.00">Command</text>
</a>
</g>
</g>
<!-- Node5&#45;&gt;Node6 -->
<g id="edge5" class="edge"><title>Node5&#45;&gt;Node6</title>
<path fill="none" stroke="midnightblue" d="M837.762,-15C846.501,-15 855.473,-15 864.285,-15"/>
<polygon fill="midnightblue" stroke="midnightblue" points="837.634,-11.5001 827.634,-15 837.634,-18.5001 837.634,-11.5001"/>
</g>
<!-- Node7 -->
<g id="node7" class="node"><title>Node7</title>
<g id="a_node7"><a xlink:href="../../dd/d2e/class_front_end_1_1_controller.html#a29be9ff259428dbe97eebe3ec9a13ac5" target="_top" xlink:title="FrontEnd.Controller.update">
<polygon fill="white" stroke="black" points="1050,-5.5 1050,-24.5 1194,-24.5 1194,-5.5 1050,-5.5"/>
<text text-anchor="middle" x="1122" y="-12.5" font-family="Helvetica,sans-Serif" font-size="10.00">FrontEnd.Controller.update</text>
</a>
</g>
</g>
<!-- Node6&#45;&gt;Node7 -->
<g id="edge6" class="edge"><title>Node6&#45;&gt;Node7</title>
<path fill="none" stroke="midnightblue" d="M1023.77,-15C1032.47,-15 1041.25,-15 1049.79,-15"/>
<polygon fill="midnightblue" stroke="midnightblue" points="1023.62,-11.5001 1013.62,-15 1023.62,-18.5001 1023.62,-11.5001"/>
</g>
</g>
</svg>
