<?xml version="1.0" encoding="UTF-8" standalone="no"?>
<!DOCTYPE svg PUBLIC "-//W3C//DTD SVG 1.1//EN"
 "http://www.w3.org/Graphics/SVG/1.1/DTD/svg11.dtd">
<!-- Generated by graphviz version 2.36.0 (20140111.2315)
 -->
<!-- Title: Nodes.Node.addChildren Pages: 1 -->
<svg width="1040pt" height="38pt"
 viewBox="0.00 0.00 1040.00 38.00" xmlns="http://www.w3.org/2000/svg" xmlns:xlink="http://www.w3.org/1999/xlink">
<g id="graph0" class="graph" transform="scale(1 1) rotate(0) translate(4 34)">
<title>Nodes.Node.addChildren</title>
<polygon fill="white" stroke="none" points="-4,4 -4,-34 1036,-34 1036,4 -4,4"/>
<!-- Node1 -->
<g id="node1" class="node"><title>Node1</title>
<polygon fill="#bfbfbf" stroke="black" points="0,-5.5 0,-24.5 136,-24.5 136,-5.5 0,-5.5"/>
<text text-anchor="middle" x="68" y="-12.5" font-family="Helvetica,sans-Serif" font-size="10.00">Nodes.Node.addChildren</text>
</g>
<!-- Node2 -->
<g id="node2" class="node"><title>Node2</title>
<g id="a_node2"><a xlink:href="../../db/d5d/class_backend_1_1_a_s_t.html#a1570c419383f1993e4b7df53d536035e" target="_top" xlink:title="Backend.AST.populateTree">
<polygon fill="white" stroke="black" points="172.5,-5.5 172.5,-24.5 315.5,-24.5 315.5,-5.5 172.5,-5.5"/>
<text text-anchor="middle" x="244" y="-12.5" font-family="Helvetica,sans-Serif" font-size="10.00">Backend.AST.populateTree</text>
</a>
</g>
</g>
<!-- Node1&#45;&gt;Node2 -->
<g id="edge1" class="edge"><title>Node1&#45;&gt;Node2</title>
<path fill="none" stroke="midnightblue" d="M146.38,-15C155.058,-15 163.865,-15 172.451,-15"/>
<polygon fill="midnightblue" stroke="midnightblue" points="146.273,-11.5001 136.273,-15 146.273,-18.5001 146.273,-11.5001"/>
</g>
<!-- Node3 -->
<g id="node3" class="node"><title>Node3</title>
<g id="a_node3"><a xlink:href="../../da/d3c/class_backend_1_1_model.html#a3b4294a767985d6585d71cfe0293fba2" target="_top" xlink:title="Backend.Model.makeTreeand\lAddValues">
<polygon fill="white" stroke="black" points="352.5,-0 352.5,-30 509.5,-30 509.5,-0 352.5,-0"/>
<text text-anchor="start" x="360.5" y="-18" font-family="Helvetica,sans-Serif" font-size="10.00">Backend.Model.makeTreeand</text>
<text text-anchor="middle" x="431" y="-7" font-family="Helvetica,sans-Serif" font-size="10.00">AddValues</text>
</a>
</g>
</g>
<!-- Node2&#45;&gt;Node3 -->
<g id="edge2" class="edge"><title>Node2&#45;&gt;Node3</title>
<path fill="none" stroke="midnightblue" d="M325.905,-15C334.641,-15 343.518,-15 352.216,-15"/>
<polygon fill="midnightblue" stroke="midnightblue" points="325.732,-11.5001 315.732,-15 325.732,-18.5001 325.732,-11.5001"/>
</g>
<!-- Node4 -->
<g id="node4" class="node"><title>Node4</title>
<g id="a_node4"><a xlink:href="../../da/d3c/class_backend_1_1_model.html#a972866b8540ea6b615e3c80b0ad1f9c6" target="_top" xlink:title="Backend.Model.parse">
<polygon fill="white" stroke="black" points="546.5,-5.5 546.5,-24.5 665.5,-24.5 665.5,-5.5 546.5,-5.5"/>
<text text-anchor="middle" x="606" y="-12.5" font-family="Helvetica,sans-Serif" font-size="10.00">Backend.Model.parse</text>
</a>
</g>
</g>
<!-- Node3&#45;&gt;Node4 -->
<g id="edge3" class="edge"><title>Node3&#45;&gt;Node4</title>
<path fill="none" stroke="midnightblue" d="M519.773,-15C528.755,-15 537.719,-15 546.277,-15"/>
<polygon fill="midnightblue" stroke="midnightblue" points="519.644,-11.5001 509.644,-15 519.644,-18.5001 519.644,-11.5001"/>
</g>
<!-- Node5 -->
<g id="node5" class="node"><title>Node5</title>
<g id="a_node5"><a xlink:href="../../dd/d2e/class_front_end_1_1_controller.html#a41885f349a8f334750e26d685a8981d2" target="_top" xlink:title="FrontEnd.Controller.execute\lCommand">
<polygon fill="white" stroke="black" points="702.5,-0 702.5,-30 851.5,-30 851.5,-0 702.5,-0"/>
<text text-anchor="start" x="710.5" y="-18" font-family="Helvetica,sans-Serif" font-size="10.00">FrontEnd.Controller.execute</text>
<text text-anchor="middle" x="777" y="-7" font-family="Helvetica,sans-Serif" font-size="10.00">Command</text>
</a>
</g>
</g>
<!-- Node4&#45;&gt;Node5 -->
<g id="edge4" class="edge"><title>Node4&#45;&gt;Node5</title>
<path fill="none" stroke="midnightblue" d="M675.762,-15C684.501,-15 693.473,-15 702.285,-15"/>
<polygon fill="midnightblue" stroke="midnightblue" points="675.634,-11.5001 665.634,-15 675.634,-18.5001 675.634,-11.5001"/>
</g>
<!-- Node6 -->
<g id="node6" class="node"><title>Node6</title>
<g id="a_node6"><a xlink:href="../../dd/d2e/class_front_end_1_1_controller.html#a29be9ff259428dbe97eebe3ec9a13ac5" target="_top" xlink:title="FrontEnd.Controller.update">
<polygon fill="white" stroke="black" points="888,-5.5 888,-24.5 1032,-24.5 1032,-5.5 888,-5.5"/>
<text text-anchor="middle" x="960" y="-12.5" font-family="Helvetica,sans-Serif" font-size="10.00">FrontEnd.Controller.update</text>
</a>
</g>
</g>
<!-- Node5&#45;&gt;Node6 -->
<g id="edge5" class="edge"><title>Node5&#45;&gt;Node6</title>
<path fill="none" stroke="midnightblue" d="M861.771,-15C870.468,-15 879.249,-15 887.789,-15"/>
<polygon fill="midnightblue" stroke="midnightblue" points="861.62,-11.5001 851.62,-15 861.62,-18.5001 861.62,-11.5001"/>
</g>
</g>
</svg>
