<?xml version="1.0" encoding="UTF-8" standalone="no"?>
<!DOCTYPE svg PUBLIC "-//W3C//DTD SVG 1.1//EN"
 "http://www.w3.org/Graphics/SVG/1.1/DTD/svg11.dtd">
<!-- Generated by graphviz version 2.36.0 (20140111.2315)
 -->
<!-- Title: Nodes.Node.returnPrintValue Pages: 1 -->
<svg width="1080pt" height="82pt"
 viewBox="0.00 0.00 1080.00 82.00" xmlns="http://www.w3.org/2000/svg" xmlns:xlink="http://www.w3.org/1999/xlink">
<g id="graph0" class="graph" transform="scale(1 1) rotate(0) translate(4 78)">
<title>Nodes.Node.returnPrintValue</title>
<polygon fill="white" stroke="none" points="-4,4 -4,-78 1076,-78 1076,4 -4,4"/>
<!-- Node1 -->
<g id="node1" class="node"><title>Node1</title>
<polygon fill="#bfbfbf" stroke="black" points="0,-27.5 0,-46.5 156,-46.5 156,-27.5 0,-27.5"/>
<text text-anchor="middle" x="78" y="-34.5" font-family="Helvetica,sans-Serif" font-size="10.00">Nodes.Node.returnPrintValue</text>
</g>
<!-- Node2 -->
<g id="node2" class="node"><title>Node2</title>
<g id="a_node2"><a xlink:href="../../db/d5d/class_backend_1_1_a_s_t.html#a1570c419383f1993e4b7df53d536035e" target="_top" xlink:title="Backend.AST.populateTree">
<polygon fill="white" stroke="black" points="202.5,-49.5 202.5,-68.5 345.5,-68.5 345.5,-49.5 202.5,-49.5"/>
<text text-anchor="middle" x="274" y="-56.5" font-family="Helvetica,sans-Serif" font-size="10.00">Backend.AST.populateTree</text>
</a>
</g>
</g>
<!-- Node1&#45;&gt;Node2 -->
<g id="edge1" class="edge"><title>Node1&#45;&gt;Node2</title>
<path fill="none" stroke="midnightblue" d="M166.297,-46.8997C178.357,-48.2673 190.619,-49.6578 202.327,-50.9855"/>
<polygon fill="midnightblue" stroke="midnightblue" points="166.562,-43.4074 156.231,-45.7582 165.773,-50.3628 166.562,-43.4074"/>
</g>
<!-- Node7 -->
<g id="node7" class="node"><title>Node7</title>
<g id="a_node7"><a xlink:href="../../db/d95/class_nodes_1_1conditionals_1_1_conditional_node.html#a7150b630d2f416bac48f088577c9430b" target="_top" xlink:title="Nodes.conditionals.Conditional\lNode.update">
<polygon fill="white" stroke="black" points="192,-0 192,-30 356,-30 356,-0 192,-0"/>
<text text-anchor="start" x="200" y="-18" font-family="Helvetica,sans-Serif" font-size="10.00">Nodes.conditionals.Conditional</text>
<text text-anchor="middle" x="274" y="-7" font-family="Helvetica,sans-Serif" font-size="10.00">Node.update</text>
</a>
</g>
</g>
<!-- Node1&#45;&gt;Node7 -->
<g id="edge6" class="edge"><title>Node1&#45;&gt;Node7</title>
<path fill="none" stroke="midnightblue" d="M166.207,-27.1106C174.759,-26.1408 183.413,-25.1594 191.9,-24.1969"/>
<polygon fill="midnightblue" stroke="midnightblue" points="165.773,-23.6372 156.231,-28.2418 166.562,-30.5926 165.773,-23.6372"/>
</g>
<!-- Node3 -->
<g id="node3" class="node"><title>Node3</title>
<g id="a_node3"><a xlink:href="../../da/d3c/class_backend_1_1_model.html#a3b4294a767985d6585d71cfe0293fba2" target="_top" xlink:title="Backend.Model.makeTreeand\lAddValues">
<polygon fill="white" stroke="black" points="392.5,-44 392.5,-74 549.5,-74 549.5,-44 392.5,-44"/>
<text text-anchor="start" x="400.5" y="-62" font-family="Helvetica,sans-Serif" font-size="10.00">Backend.Model.makeTreeand</text>
<text text-anchor="middle" x="471" y="-51" font-family="Helvetica,sans-Serif" font-size="10.00">AddValues</text>
</a>
</g>
</g>
<!-- Node2&#45;&gt;Node3 -->
<g id="edge2" class="edge"><title>Node2&#45;&gt;Node3</title>
<path fill="none" stroke="midnightblue" d="M355.735,-59C367.831,-59 380.281,-59 392.312,-59"/>
<polygon fill="midnightblue" stroke="midnightblue" points="355.675,-55.5001 345.675,-59 355.675,-62.5001 355.675,-55.5001"/>
</g>
<!-- Node4 -->
<g id="node4" class="node"><title>Node4</title>
<g id="a_node4"><a xlink:href="../../da/d3c/class_backend_1_1_model.html#a972866b8540ea6b615e3c80b0ad1f9c6" target="_top" xlink:title="Backend.Model.parse">
<polygon fill="white" stroke="black" points="586.5,-49.5 586.5,-68.5 705.5,-68.5 705.5,-49.5 586.5,-49.5"/>
<text text-anchor="middle" x="646" y="-56.5" font-family="Helvetica,sans-Serif" font-size="10.00">Backend.Model.parse</text>
</a>
</g>
</g>
<!-- Node3&#45;&gt;Node4 -->
<g id="edge3" class="edge"><title>Node3&#45;&gt;Node4</title>
<path fill="none" stroke="midnightblue" d="M559.773,-59C568.755,-59 577.719,-59 586.277,-59"/>
<polygon fill="midnightblue" stroke="midnightblue" points="559.644,-55.5001 549.644,-59 559.644,-62.5001 559.644,-55.5001"/>
</g>
<!-- Node5 -->
<g id="node5" class="node"><title>Node5</title>
<g id="a_node5"><a xlink:href="../../dd/d2e/class_front_end_1_1_controller.html#a41885f349a8f334750e26d685a8981d2" target="_top" xlink:title="FrontEnd.Controller.execute\lCommand">
<polygon fill="white" stroke="black" points="742.5,-44 742.5,-74 891.5,-74 891.5,-44 742.5,-44"/>
<text text-anchor="start" x="750.5" y="-62" font-family="Helvetica,sans-Serif" font-size="10.00">FrontEnd.Controller.execute</text>
<text text-anchor="middle" x="817" y="-51" font-family="Helvetica,sans-Serif" font-size="10.00">Command</text>
</a>
</g>
</g>
<!-- Node4&#45;&gt;Node5 -->
<g id="edge4" class="edge"><title>Node4&#45;&gt;Node5</title>
<path fill="none" stroke="midnightblue" d="M715.762,-59C724.501,-59 733.473,-59 742.285,-59"/>
<polygon fill="midnightblue" stroke="midnightblue" points="715.634,-55.5001 705.634,-59 715.634,-62.5001 715.634,-55.5001"/>
</g>
<!-- Node6 -->
<g id="node6" class="node"><title>Node6</title>
<g id="a_node6"><a xlink:href="../../dd/d2e/class_front_end_1_1_controller.html#a29be9ff259428dbe97eebe3ec9a13ac5" target="_top" xlink:title="FrontEnd.Controller.update">
<polygon fill="white" stroke="black" points="928,-49.5 928,-68.5 1072,-68.5 1072,-49.5 928,-49.5"/>
<text text-anchor="middle" x="1000" y="-56.5" font-family="Helvetica,sans-Serif" font-size="10.00">FrontEnd.Controller.update</text>
</a>
</g>
</g>
<!-- Node5&#45;&gt;Node6 -->
<g id="edge5" class="edge"><title>Node5&#45;&gt;Node6</title>
<path fill="none" stroke="midnightblue" d="M901.771,-59C910.468,-59 919.249,-59 927.789,-59"/>
<polygon fill="midnightblue" stroke="midnightblue" points="901.62,-55.5001 891.62,-59 901.62,-62.5001 901.62,-55.5001"/>
</g>
</g>
</svg>
