<?xml version="1.0" encoding="UTF-8" standalone="no"?>
<!DOCTYPE svg PUBLIC "-//W3C//DTD SVG 1.1//EN"
 "http://www.w3.org/Graphics/SVG/1.1/DTD/svg11.dtd">
<!-- Generated by graphviz version 2.36.0 (20140111.2315)
 -->
<!-- Title: FrontEnd.View.updateUserVariables Pages: 1 -->
<svg width="614pt" height="38pt"
 viewBox="0.00 0.00 614.00 38.00" xmlns="http://www.w3.org/2000/svg" xmlns:xlink="http://www.w3.org/1999/xlink">
<g id="graph0" class="graph" transform="scale(1 1) rotate(0) translate(4 34)">
<title>FrontEnd.View.updateUserVariables</title>
<polygon fill="white" stroke="none" points="-4,4 -4,-34 610,-34 610,4 -4,4"/>
<!-- Node1 -->
<g id="node1" class="node"><title>Node1</title>
<polygon fill="#bfbfbf" stroke="black" points="0,-0 0,-30 142,-30 142,-0 0,-0"/>
<text text-anchor="start" x="8" y="-18" font-family="Helvetica,sans-Serif" font-size="10.00">FrontEnd.View.updateUser</text>
<text text-anchor="middle" x="71" y="-7" font-family="Helvetica,sans-Serif" font-size="10.00">Variables</text>
</g>
<!-- Node2 -->
<g id="node2" class="node"><title>Node2</title>
<g id="a_node2"><a xlink:href="../../df/d59/class_front_end_1_1_user_variables_storage.html#a16d6bf5f3d54a5d96596541456e991d5" target="_top" xlink:title="FrontEnd.UserVariablesStorage.update">
<polygon fill="white" stroke="black" points="178.5,-5.5 178.5,-24.5 381.5,-24.5 381.5,-5.5 178.5,-5.5"/>
<text text-anchor="middle" x="280" y="-12.5" font-family="Helvetica,sans-Serif" font-size="10.00">FrontEnd.UserVariablesStorage.update</text>
</a>
</g>
</g>
<!-- Node1&#45;&gt;Node2 -->
<g id="edge1" class="edge"><title>Node1&#45;&gt;Node2</title>
<path fill="none" stroke="midnightblue" d="M142.081,-15C150.603,-15 159.463,-15 168.394,-15"/>
<polygon fill="midnightblue" stroke="midnightblue" points="168.494,-18.5001 178.494,-15 168.494,-11.5001 168.494,-18.5001"/>
</g>
<!-- Node3 -->
<g id="node3" class="node"><title>Node3</title>
<g id="a_node3"><a xlink:href="../../df/d59/class_front_end_1_1_user_variables_storage.html#a834e246206d98ed6da6271f41f0d1e22" target="_top" xlink:title="FrontEnd.UserVariablesStorage.add\lVariable">
<polygon fill="white" stroke="black" points="418.5,-0 418.5,-30 605.5,-30 605.5,-0 418.5,-0"/>
<text text-anchor="start" x="426.5" y="-18" font-family="Helvetica,sans-Serif" font-size="10.00">FrontEnd.UserVariablesStorage.add</text>
<text text-anchor="middle" x="512" y="-7" font-family="Helvetica,sans-Serif" font-size="10.00">Variable</text>
</a>
</g>
</g>
<!-- Node2&#45;&gt;Node3 -->
<g id="edge2" class="edge"><title>Node2&#45;&gt;Node3</title>
<path fill="none" stroke="midnightblue" d="M381.547,-15C390.322,-15 399.211,-15 408.005,-15"/>
<polygon fill="midnightblue" stroke="midnightblue" points="408.273,-18.5001 418.273,-15 408.273,-11.5001 408.273,-18.5001"/>
</g>
</g>
</svg>
