<?xml version="1.0" encoding="UTF-8" standalone="no"?>
<!DOCTYPE svg PUBLIC "-//W3C//DTD SVG 1.1//EN"
 "http://www.w3.org/Graphics/SVG/1.1/DTD/svg11.dtd">
<!-- Generated by graphviz version 2.36.0 (20140111.2315)
 -->
<!-- Title: FrontEnd.View.updateTurtleInfo Pages: 1 -->
<svg width="806pt" height="180pt"
 viewBox="0.00 0.00 806.00 180.00" xmlns="http://www.w3.org/2000/svg" xmlns:xlink="http://www.w3.org/1999/xlink">
<g id="graph0" class="graph" transform="scale(1 1) rotate(0) translate(4 176)">
<title>FrontEnd.View.updateTurtleInfo</title>
<polygon fill="white" stroke="none" points="-4,4 -4,-176 802,-176 802,4 -4,4"/>
<!-- Node1 -->
<g id="node1" class="node"><title>Node1</title>
<polygon fill="#bfbfbf" stroke="black" points="0,-76.5 0,-95.5 162,-95.5 162,-76.5 0,-76.5"/>
<text text-anchor="middle" x="81" y="-83.5" font-family="Helvetica,sans-Serif" font-size="10.00">FrontEnd.View.updateTurtleInfo</text>
</g>
<!-- Node2 -->
<g id="node2" class="node"><title>Node2</title>
<g id="a_node2"><a xlink:href="../../d9/d38/class_turtle_view_1_1_turtle_information.html#ad65201793ce738f9c6d6e592271c14e1" target="_top" xlink:title="TurtleView.TurtleInformation.update">
<polygon fill="white" stroke="black" points="198.5,-76.5 198.5,-95.5 381.5,-95.5 381.5,-76.5 198.5,-76.5"/>
<text text-anchor="middle" x="290" y="-83.5" font-family="Helvetica,sans-Serif" font-size="10.00">TurtleView.TurtleInformation.update</text>
</a>
</g>
</g>
<!-- Node1&#45;&gt;Node2 -->
<g id="edge1" class="edge"><title>Node1&#45;&gt;Node2</title>
<path fill="none" stroke="midnightblue" d="M162.032,-86C170.536,-86 179.263,-86 187.967,-86"/>
<polygon fill="midnightblue" stroke="midnightblue" points="188.16,-89.5001 198.16,-86 188.16,-82.5001 188.16,-89.5001"/>
</g>
<!-- Node3 -->
<g id="node3" class="node"><title>Node3</title>
<g id="a_node3"><a xlink:href="../../d9/d38/class_turtle_view_1_1_turtle_information.html#aca65258778dade3baa31e0d5ec643b3b" target="_top" xlink:title="TurtleView.TurtleInformation.emptyInfo">
<polygon fill="white" stroke="black" points="418.5,-152.5 418.5,-171.5 615.5,-171.5 615.5,-152.5 418.5,-152.5"/>
<text text-anchor="middle" x="517" y="-159.5" font-family="Helvetica,sans-Serif" font-size="10.00">TurtleView.TurtleInformation.emptyInfo</text>
</a>
</g>
</g>
<!-- Node2&#45;&gt;Node3 -->
<g id="edge2" class="edge"><title>Node2&#45;&gt;Node3</title>
<path fill="none" stroke="midnightblue" d="M308.988,-95.6734C333.138,-108.284 377.68,-130.232 418,-143 426.675,-145.747 435.915,-148.167 445.122,-150.278"/>
<polygon fill="midnightblue" stroke="midnightblue" points="444.555,-153.736 455.072,-152.448 446.047,-146.897 444.555,-153.736"/>
</g>
<!-- Node4 -->
<g id="node4" class="node"><title>Node4</title>
<g id="a_node4"><a xlink:href="../../d1/de0/class_backend_1_1_turtle.html#adc7cb6cc95ee918547d2b18d8bb20183" target="_top" xlink:title="Backend.Turtle.getID">
<polygon fill="white" stroke="black" points="459.5,-114.5 459.5,-133.5 574.5,-133.5 574.5,-114.5 459.5,-114.5"/>
<text text-anchor="middle" x="517" y="-121.5" font-family="Helvetica,sans-Serif" font-size="10.00">Backend.Turtle.getID</text>
</a>
</g>
</g>
<!-- Node2&#45;&gt;Node4 -->
<g id="edge3" class="edge"><title>Node2&#45;&gt;Node4</title>
<path fill="none" stroke="midnightblue" d="M347.487,-95.54C378.379,-100.757 416.837,-107.253 449.21,-112.72"/>
<polygon fill="midnightblue" stroke="midnightblue" points="449.047,-116.242 459.49,-114.456 450.213,-109.34 449.047,-116.242"/>
</g>
<!-- Node5 -->
<g id="node5" class="node"><title>Node5</title>
<g id="a_node5"><a xlink:href="../../d9/d38/class_turtle_view_1_1_turtle_information.html#a15bd13ad05cabb76c0861d0ab42722ef" target="_top" xlink:title="TurtleView.TurtleInformation.truncate">
<polygon fill="white" stroke="black" points="422,-76.5 422,-95.5 612,-95.5 612,-76.5 422,-76.5"/>
<text text-anchor="middle" x="517" y="-83.5" font-family="Helvetica,sans-Serif" font-size="10.00">TurtleView.TurtleInformation.truncate</text>
</a>
</g>
</g>
<!-- Node2&#45;&gt;Node5 -->
<g id="edge4" class="edge"><title>Node2&#45;&gt;Node5</title>
<path fill="none" stroke="midnightblue" d="M381.544,-86C391.526,-86 401.749,-86 411.88,-86"/>
<polygon fill="midnightblue" stroke="midnightblue" points="411.969,-89.5001 421.969,-86 411.969,-82.5001 411.969,-89.5001"/>
</g>
<!-- Node6 -->
<g id="node6" class="node"><title>Node6</title>
<g id="a_node6"><a xlink:href="../../d1/de0/class_backend_1_1_turtle.html#a715f94909b1ba74dc9e4f9eb4fd91e10" target="_top" xlink:title="Backend.Turtle.getXCord">
<polygon fill="white" stroke="black" points="450.5,-38.5 450.5,-57.5 583.5,-57.5 583.5,-38.5 450.5,-38.5"/>
<text text-anchor="middle" x="517" y="-45.5" font-family="Helvetica,sans-Serif" font-size="10.00">Backend.Turtle.getXCord</text>
</a>
</g>
</g>
<!-- Node2&#45;&gt;Node6 -->
<g id="edge5" class="edge"><title>Node2&#45;&gt;Node6</title>
<path fill="none" stroke="midnightblue" d="M347.487,-76.46C378.379,-71.2426 416.837,-64.7475 449.21,-59.28"/>
<polygon fill="midnightblue" stroke="midnightblue" points="450.213,-62.6604 459.49,-57.5439 449.047,-55.7581 450.213,-62.6604"/>
</g>
<!-- Node8 -->
<g id="node8" class="node"><title>Node8</title>
<g id="a_node8"><a xlink:href="../../d1/de0/class_backend_1_1_turtle.html#a692174eccea232fc58e725cff6f50359" target="_top" xlink:title="Backend.Turtle.getYCord">
<polygon fill="white" stroke="black" points="451,-0.5 451,-19.5 583,-19.5 583,-0.5 451,-0.5"/>
<text text-anchor="middle" x="517" y="-7.5" font-family="Helvetica,sans-Serif" font-size="10.00">Backend.Turtle.getYCord</text>
</a>
</g>
</g>
<!-- Node2&#45;&gt;Node8 -->
<g id="edge7" class="edge"><title>Node2&#45;&gt;Node8</title>
<path fill="none" stroke="midnightblue" d="M308.988,-76.3266C333.138,-63.7161 377.68,-41.7684 418,-29 426.675,-26.2527 435.915,-23.8331 445.122,-21.7223"/>
<polygon fill="midnightblue" stroke="midnightblue" points="446.047,-25.1028 455.072,-19.5522 444.555,-18.2636 446.047,-25.1028"/>
</g>
<!-- Node7 -->
<g id="node7" class="node"><title>Node7</title>
<g id="a_node7"><a xlink:href="../../d1/de0/class_backend_1_1_turtle.html#a33957258db9a7205d470c5a2d22b89af" target="_top" xlink:title="Backend.Turtle.getLocation">
<polygon fill="white" stroke="black" points="652,-19.5 652,-38.5 798,-38.5 798,-19.5 652,-19.5"/>
<text text-anchor="middle" x="725" y="-26.5" font-family="Helvetica,sans-Serif" font-size="10.00">Backend.Turtle.getLocation</text>
</a>
</g>
</g>
<!-- Node6&#45;&gt;Node7 -->
<g id="edge6" class="edge"><title>Node6&#45;&gt;Node7</title>
<path fill="none" stroke="midnightblue" d="M583.746,-41.936C602.196,-40.2344 622.489,-38.3627 641.769,-36.5845"/>
<polygon fill="midnightblue" stroke="midnightblue" points="642.107,-40.0682 651.743,-35.6645 641.464,-33.0978 642.107,-40.0682"/>
</g>
<!-- Node8&#45;&gt;Node7 -->
<g id="edge8" class="edge"><title>Node8&#45;&gt;Node7</title>
<path fill="none" stroke="midnightblue" d="M583.18,-16.0117C601.749,-17.7245 622.224,-19.6129 641.673,-21.4067"/>
<polygon fill="midnightblue" stroke="midnightblue" points="641.455,-24.9014 651.734,-22.3347 642.098,-17.931 641.455,-24.9014"/>
</g>
</g>
</svg>
