<?xml version="1.0" encoding="UTF-8" standalone="no"?>
<!DOCTYPE svg PUBLIC "-//W3C//DTD SVG 1.1//EN"
 "http://www.w3.org/Graphics/SVG/1.1/DTD/svg11.dtd">
<!-- Generated by graphviz version 2.36.0 (20140111.2315)
 -->
<!-- Title: FrontEnd.View.makeTurtleButton Pages: 1 -->
<svg width="1382pt" height="273pt"
 viewBox="0.00 0.00 1382.00 273.00" xmlns="http://www.w3.org/2000/svg" xmlns:xlink="http://www.w3.org/1999/xlink">
<g id="graph0" class="graph" transform="scale(1 1) rotate(0) translate(4 269)">
<title>FrontEnd.View.makeTurtleButton</title>
<polygon fill="white" stroke="none" points="-4,4 -4,-269 1378,-269 1378,4 -4,4"/>
<!-- Node1 -->
<g id="node1" class="node"><title>Node1</title>
<polygon fill="#bfbfbf" stroke="black" points="0,-166 0,-196 138,-196 138,-166 0,-166"/>
<text text-anchor="start" x="8" y="-184" font-family="Helvetica,sans-Serif" font-size="10.00">FrontEnd.View.makeTurtle</text>
<text text-anchor="middle" x="69" y="-173" font-family="Helvetica,sans-Serif" font-size="10.00">Button</text>
</g>
<!-- Node2 -->
<g id="node2" class="node"><title>Node2</title>
<g id="a_node2"><a xlink:href="../../dc/d7d/class_front_end_1_1_string_chooser.html#a2e464bdef767e146df8d2b7a5f14f6ad" target="_top" xlink:title="FrontEnd.StringChooser.get\lWordInLang">
<polygon fill="white" stroke="black" points="178,-191 178,-221 326,-221 326,-191 178,-191"/>
<text text-anchor="start" x="186" y="-209" font-family="Helvetica,sans-Serif" font-size="10.00">FrontEnd.StringChooser.get</text>
<text text-anchor="middle" x="252" y="-198" font-family="Helvetica,sans-Serif" font-size="10.00">WordInLang</text>
</a>
</g>
</g>
<!-- Node1&#45;&gt;Node2 -->
<g id="edge1" class="edge"><title>Node1&#45;&gt;Node2</title>
<path fill="none" stroke="midnightblue" d="M138.17,-190.416C147.765,-191.741 157.716,-193.116 167.556,-194.475"/>
<polygon fill="midnightblue" stroke="midnightblue" points="167.365,-197.981 177.75,-195.883 168.323,-191.047 167.365,-197.981"/>
</g>
<!-- Node3 -->
<g id="node3" class="node"><title>Node3</title>
<g id="a_node3"><a xlink:href="../../d4/d8a/class_turtle_view_1_1_turtle_window.html#ab6961d80a7e356af4e9206478608ed40" target="_top" xlink:title="TurtleView.TurtleWindow.make\lTurtle">
<polygon fill="white" stroke="black" points="174,-142 174,-172 330,-172 330,-142 174,-142"/>
<text text-anchor="start" x="182" y="-160" font-family="Helvetica,sans-Serif" font-size="10.00">TurtleView.TurtleWindow.make</text>
<text text-anchor="middle" x="252" y="-149" font-family="Helvetica,sans-Serif" font-size="10.00">Turtle</text>
</a>
</g>
</g>
<!-- Node1&#45;&gt;Node3 -->
<g id="edge2" class="edge"><title>Node1&#45;&gt;Node3</title>
<path fill="none" stroke="midnightblue" d="M138.17,-171.961C146.526,-170.853 155.151,-169.709 163.738,-168.571"/>
<polygon fill="midnightblue" stroke="midnightblue" points="164.329,-172.023 173.782,-167.239 163.409,-165.084 164.329,-172.023"/>
</g>
<!-- Node4 -->
<g id="node4" class="node"><title>Node4</title>
<g id="a_node4"><a xlink:href="../../d4/d8a/class_turtle_view_1_1_turtle_window.html#a55f7ffa346d2ced8f9e831efc900d0c0" target="_top" xlink:title="TurtleView.TurtleWindow.click">
<polygon fill="white" stroke="black" points="366.5,-147.5 366.5,-166.5 515.5,-166.5 515.5,-147.5 366.5,-147.5"/>
<text text-anchor="middle" x="441" y="-154.5" font-family="Helvetica,sans-Serif" font-size="10.00">TurtleView.TurtleWindow.click</text>
</a>
</g>
</g>
<!-- Node3&#45;&gt;Node4 -->
<g id="edge3" class="edge"><title>Node3&#45;&gt;Node4</title>
<path fill="none" stroke="midnightblue" d="M330.14,-157C338.745,-157 347.541,-157 356.224,-157"/>
<polygon fill="midnightblue" stroke="midnightblue" points="356.346,-160.5 366.346,-157 356.346,-153.5 356.346,-160.5"/>
</g>
<!-- Node5 -->
<g id="node5" class="node"><title>Node5</title>
<g id="a_node5"><a xlink:href="../../d1/de0/class_backend_1_1_turtle.html#a56cc7f136ffa25bbe506ac4d48eb1298" target="_top" xlink:title="Backend.Turtle.showRing">
<polygon fill="white" stroke="black" points="578,-245.5 578,-264.5 712,-264.5 712,-245.5 578,-245.5"/>
<text text-anchor="middle" x="645" y="-252.5" font-family="Helvetica,sans-Serif" font-size="10.00">Backend.Turtle.showRing</text>
</a>
</g>
</g>
<!-- Node4&#45;&gt;Node5 -->
<g id="edge4" class="edge"><title>Node4&#45;&gt;Node5</title>
<path fill="none" stroke="midnightblue" d="M452.297,-166.734C470.741,-183.599 511.303,-218.155 552,-236 557.783,-238.536 563.922,-240.739 570.175,-242.653"/>
<polygon fill="midnightblue" stroke="midnightblue" points="569.489,-246.096 580.063,-245.427 571.381,-239.356 569.489,-246.096"/>
</g>
<!-- Node6 -->
<g id="node6" class="node"><title>Node6</title>
<g id="a_node6"><a xlink:href="../../d0/d46/class_pen_1_1_pen_options.html#a685386bb97365462feaa476bd353df67" target="_top" xlink:title="Pen.PenOptions.changePen">
<polygon fill="white" stroke="black" points="570.5,-207.5 570.5,-226.5 719.5,-226.5 719.5,-207.5 570.5,-207.5"/>
<text text-anchor="middle" x="645" y="-214.5" font-family="Helvetica,sans-Serif" font-size="10.00">Pen.PenOptions.changePen</text>
</a>
</g>
</g>
<!-- Node4&#45;&gt;Node6 -->
<g id="edge5" class="edge"><title>Node4&#45;&gt;Node6</title>
<path fill="none" stroke="midnightblue" d="M464.413,-166.51C486.406,-175.564 521.055,-189.094 552,-198 561.19,-200.645 570.996,-203.075 580.654,-205.249"/>
<polygon fill="midnightblue" stroke="midnightblue" points="580.118,-208.715 590.633,-207.422 581.607,-201.875 580.118,-208.715"/>
</g>
<!-- Node7 -->
<g id="node7" class="node"><title>Node7</title>
<g id="a_node7"><a xlink:href="../../d1/de0/class_backend_1_1_turtle.html#a5ecb58c234e1b7c851c17eaa4de8235d" target="_top" xlink:title="Backend.Turtle.getPen">
<polygon fill="white" stroke="black" points="583.5,-169.5 583.5,-188.5 706.5,-188.5 706.5,-169.5 583.5,-169.5"/>
<text text-anchor="middle" x="645" y="-176.5" font-family="Helvetica,sans-Serif" font-size="10.00">Backend.Turtle.getPen</text>
</a>
</g>
</g>
<!-- Node4&#45;&gt;Node7 -->
<g id="edge6" class="edge"><title>Node4&#45;&gt;Node7</title>
<path fill="none" stroke="midnightblue" d="M515.784,-165.036C534.517,-167.076 554.601,-169.263 573.183,-171.287"/>
<polygon fill="midnightblue" stroke="midnightblue" points="573.014,-174.789 583.334,-172.393 573.772,-167.831 573.014,-174.789"/>
</g>
<!-- Node8 -->
<g id="node8" class="node"><title>Node8</title>
<g id="a_node8"><a xlink:href="../../dc/d04/class_turtle_view_1_1_turtle_image_box.html#afc8ed7ffd8fe31dade346f0dee9d550c" target="_top" xlink:title="TurtleView.TurtleImageBox.change\lTurtle">
<polygon fill="white" stroke="black" points="556,-120 556,-150 734,-150 734,-120 556,-120"/>
<text text-anchor="start" x="564" y="-138" font-family="Helvetica,sans-Serif" font-size="10.00">TurtleView.TurtleImageBox.change</text>
<text text-anchor="middle" x="645" y="-127" font-family="Helvetica,sans-Serif" font-size="10.00">Turtle</text>
</a>
</g>
</g>
<!-- Node4&#45;&gt;Node8 -->
<g id="edge7" class="edge"><title>Node4&#45;&gt;Node8</title>
<path fill="none" stroke="midnightblue" d="M515.784,-148.964C525.505,-147.905 535.589,-146.807 545.638,-145.713"/>
<polygon fill="midnightblue" stroke="midnightblue" points="546.099,-149.183 555.661,-144.621 545.341,-142.224 546.099,-149.183"/>
</g>
<!-- Node9 -->
<g id="node9" class="node"><title>Node9</title>
<g id="a_node9"><a xlink:href="../../d9/d38/class_turtle_view_1_1_turtle_information.html#a3a64e1f1313c0c4f30a93c1fcc5f36c1" target="_top" xlink:title="TurtleView.TurtleInformation.change\lTurtle">
<polygon fill="white" stroke="black" points="552.5,-71 552.5,-101 737.5,-101 737.5,-71 552.5,-71"/>
<text text-anchor="start" x="560.5" y="-89" font-family="Helvetica,sans-Serif" font-size="10.00">TurtleView.TurtleInformation.change</text>
<text text-anchor="middle" x="645" y="-78" font-family="Helvetica,sans-Serif" font-size="10.00">Turtle</text>
</a>
</g>
</g>
<!-- Node4&#45;&gt;Node9 -->
<g id="edge8" class="edge"><title>Node4&#45;&gt;Node9</title>
<path fill="none" stroke="midnightblue" d="M462.773,-147.353C484.658,-137.417 520.283,-121.889 552,-111 559.265,-108.506 566.919,-106.095 574.582,-103.818"/>
<polygon fill="midnightblue" stroke="midnightblue" points="575.636,-107.157 584.266,-101.01 573.687,-100.433 575.636,-107.157"/>
</g>
<!-- Node17 -->
<g id="node17" class="node"><title>Node17</title>
<g id="a_node17"><a xlink:href="../../d1/de0/class_backend_1_1_turtle.html#aa99cd255ffa089963fad4be5955c8bb6" target="_top" xlink:title="Backend.Turtle.hideRing">
<polygon fill="white" stroke="black" points="580,-32.5 580,-51.5 710,-51.5 710,-32.5 580,-32.5"/>
<text text-anchor="middle" x="645" y="-39.5" font-family="Helvetica,sans-Serif" font-size="10.00">Backend.Turtle.hideRing</text>
</a>
</g>
</g>
<!-- Node4&#45;&gt;Node17 -->
<g id="edge17" class="edge"><title>Node4&#45;&gt;Node17</title>
<path fill="none" stroke="midnightblue" d="M450.004,-147.432C466.78,-128.046 507.754,-84.0987 552,-62 557.758,-59.1243 563.921,-56.66 570.228,-54.5487"/>
<polygon fill="midnightblue" stroke="midnightblue" points="571.67,-57.7687 580.221,-51.513 569.636,-51.0709 571.67,-57.7687"/>
</g>
<!-- Node10 -->
<g id="node10" class="node"><title>Node10</title>
<g id="a_node10"><a xlink:href="../../d9/d38/class_turtle_view_1_1_turtle_information.html#ad65201793ce738f9c6d6e592271c14e1" target="_top" xlink:title="TurtleView.TurtleInformation.update">
<polygon fill="white" stroke="black" points="774.5,-76.5 774.5,-95.5 957.5,-95.5 957.5,-76.5 774.5,-76.5"/>
<text text-anchor="middle" x="866" y="-83.5" font-family="Helvetica,sans-Serif" font-size="10.00">TurtleView.TurtleInformation.update</text>
</a>
</g>
</g>
<!-- Node9&#45;&gt;Node10 -->
<g id="edge9" class="edge"><title>Node9&#45;&gt;Node10</title>
<path fill="none" stroke="midnightblue" d="M737.607,-86C746.463,-86 755.481,-86 764.418,-86"/>
<polygon fill="midnightblue" stroke="midnightblue" points="764.462,-89.5001 774.462,-86 764.462,-82.5001 764.462,-89.5001"/>
</g>
<!-- Node11 -->
<g id="node11" class="node"><title>Node11</title>
<g id="a_node11"><a xlink:href="../../d9/d38/class_turtle_view_1_1_turtle_information.html#aca65258778dade3baa31e0d5ec643b3b" target="_top" xlink:title="TurtleView.TurtleInformation.emptyInfo">
<polygon fill="white" stroke="black" points="994.5,-152.5 994.5,-171.5 1191.5,-171.5 1191.5,-152.5 994.5,-152.5"/>
<text text-anchor="middle" x="1093" y="-159.5" font-family="Helvetica,sans-Serif" font-size="10.00">TurtleView.TurtleInformation.emptyInfo</text>
</a>
</g>
</g>
<!-- Node10&#45;&gt;Node11 -->
<g id="edge10" class="edge"><title>Node10&#45;&gt;Node11</title>
<path fill="none" stroke="midnightblue" d="M884.988,-95.6734C909.138,-108.284 953.68,-130.232 994,-143 1002.68,-145.747 1011.91,-148.167 1021.12,-150.278"/>
<polygon fill="midnightblue" stroke="midnightblue" points="1020.56,-153.736 1031.07,-152.448 1022.05,-146.897 1020.56,-153.736"/>
</g>
<!-- Node12 -->
<g id="node12" class="node"><title>Node12</title>
<g id="a_node12"><a xlink:href="../../d1/de0/class_backend_1_1_turtle.html#adc7cb6cc95ee918547d2b18d8bb20183" target="_top" xlink:title="Backend.Turtle.getID">
<polygon fill="white" stroke="black" points="1035.5,-114.5 1035.5,-133.5 1150.5,-133.5 1150.5,-114.5 1035.5,-114.5"/>
<text text-anchor="middle" x="1093" y="-121.5" font-family="Helvetica,sans-Serif" font-size="10.00">Backend.Turtle.getID</text>
</a>
</g>
</g>
<!-- Node10&#45;&gt;Node12 -->
<g id="edge11" class="edge"><title>Node10&#45;&gt;Node12</title>
<path fill="none" stroke="midnightblue" d="M923.487,-95.54C954.379,-100.757 992.837,-107.253 1025.21,-112.72"/>
<polygon fill="midnightblue" stroke="midnightblue" points="1025.05,-116.242 1035.49,-114.456 1026.21,-109.34 1025.05,-116.242"/>
</g>
<!-- Node13 -->
<g id="node13" class="node"><title>Node13</title>
<g id="a_node13"><a xlink:href="../../d9/d38/class_turtle_view_1_1_turtle_information.html#a15bd13ad05cabb76c0861d0ab42722ef" target="_top" xlink:title="TurtleView.TurtleInformation.truncate">
<polygon fill="white" stroke="black" points="998,-76.5 998,-95.5 1188,-95.5 1188,-76.5 998,-76.5"/>
<text text-anchor="middle" x="1093" y="-83.5" font-family="Helvetica,sans-Serif" font-size="10.00">TurtleView.TurtleInformation.truncate</text>
</a>
</g>
</g>
<!-- Node10&#45;&gt;Node13 -->
<g id="edge12" class="edge"><title>Node10&#45;&gt;Node13</title>
<path fill="none" stroke="midnightblue" d="M957.544,-86C967.526,-86 977.749,-86 987.88,-86"/>
<polygon fill="midnightblue" stroke="midnightblue" points="987.969,-89.5001 997.969,-86 987.969,-82.5001 987.969,-89.5001"/>
</g>
<!-- Node14 -->
<g id="node14" class="node"><title>Node14</title>
<g id="a_node14"><a xlink:href="../../d1/de0/class_backend_1_1_turtle.html#a715f94909b1ba74dc9e4f9eb4fd91e10" target="_top" xlink:title="Backend.Turtle.getXCord">
<polygon fill="white" stroke="black" points="1026.5,-38.5 1026.5,-57.5 1159.5,-57.5 1159.5,-38.5 1026.5,-38.5"/>
<text text-anchor="middle" x="1093" y="-45.5" font-family="Helvetica,sans-Serif" font-size="10.00">Backend.Turtle.getXCord</text>
</a>
</g>
</g>
<!-- Node10&#45;&gt;Node14 -->
<g id="edge13" class="edge"><title>Node10&#45;&gt;Node14</title>
<path fill="none" stroke="midnightblue" d="M923.487,-76.46C954.379,-71.2426 992.837,-64.7475 1025.21,-59.28"/>
<polygon fill="midnightblue" stroke="midnightblue" points="1026.21,-62.6604 1035.49,-57.5439 1025.05,-55.7581 1026.21,-62.6604"/>
</g>
<!-- Node16 -->
<g id="node16" class="node"><title>Node16</title>
<g id="a_node16"><a xlink:href="../../d1/de0/class_backend_1_1_turtle.html#a692174eccea232fc58e725cff6f50359" target="_top" xlink:title="Backend.Turtle.getYCord">
<polygon fill="white" stroke="black" points="1027,-0.5 1027,-19.5 1159,-19.5 1159,-0.5 1027,-0.5"/>
<text text-anchor="middle" x="1093" y="-7.5" font-family="Helvetica,sans-Serif" font-size="10.00">Backend.Turtle.getYCord</text>
</a>
</g>
</g>
<!-- Node10&#45;&gt;Node16 -->
<g id="edge15" class="edge"><title>Node10&#45;&gt;Node16</title>
<path fill="none" stroke="midnightblue" d="M884.988,-76.3266C909.138,-63.7161 953.68,-41.7684 994,-29 1002.68,-26.2527 1011.91,-23.8331 1021.12,-21.7223"/>
<polygon fill="midnightblue" stroke="midnightblue" points="1022.05,-25.1028 1031.07,-19.5522 1020.56,-18.2636 1022.05,-25.1028"/>
</g>
<!-- Node15 -->
<g id="node15" class="node"><title>Node15</title>
<g id="a_node15"><a xlink:href="../../d1/de0/class_backend_1_1_turtle.html#a33957258db9a7205d470c5a2d22b89af" target="_top" xlink:title="Backend.Turtle.getLocation">
<polygon fill="white" stroke="black" points="1228,-19.5 1228,-38.5 1374,-38.5 1374,-19.5 1228,-19.5"/>
<text text-anchor="middle" x="1301" y="-26.5" font-family="Helvetica,sans-Serif" font-size="10.00">Backend.Turtle.getLocation</text>
</a>
</g>
</g>
<!-- Node14&#45;&gt;Node15 -->
<g id="edge14" class="edge"><title>Node14&#45;&gt;Node15</title>
<path fill="none" stroke="midnightblue" d="M1159.75,-41.936C1178.2,-40.2344 1198.49,-38.3627 1217.77,-36.5845"/>
<polygon fill="midnightblue" stroke="midnightblue" points="1218.11,-40.0682 1227.74,-35.6645 1217.46,-33.0978 1218.11,-40.0682"/>
</g>
<!-- Node16&#45;&gt;Node15 -->
<g id="edge16" class="edge"><title>Node16&#45;&gt;Node15</title>
<path fill="none" stroke="midnightblue" d="M1159.18,-16.0117C1177.75,-17.7245 1198.22,-19.6129 1217.67,-21.4067"/>
<polygon fill="midnightblue" stroke="midnightblue" points="1217.45,-24.9014 1227.73,-22.3347 1218.1,-17.931 1217.45,-24.9014"/>
</g>
</g>
</svg>
