<?xml version="1.0" encoding="UTF-8" standalone="no"?>
<!DOCTYPE svg PUBLIC "-//W3C//DTD SVG 1.1//EN"
 "http://www.w3.org/Graphics/SVG/1.1/DTD/svg11.dtd">
<!-- Generated by graphviz version 2.36.0 (20140111.2315)
 -->
<!-- Title: FrontEnd.View.sendArrowCommand Pages: 1 -->
<svg width="464pt" height="77pt"
 viewBox="0.00 0.00 464.00 77.00" xmlns="http://www.w3.org/2000/svg" xmlns:xlink="http://www.w3.org/1999/xlink">
<g id="graph0" class="graph" transform="scale(1 1) rotate(0) translate(4 73)">
<title>FrontEnd.View.sendArrowCommand</title>
<polygon fill="white" stroke="none" points="-4,4 -4,-73 460,-73 460,4 -4,4"/>
<!-- Node1 -->
<g id="node1" class="node"><title>Node1</title>
<polygon fill="#bfbfbf" stroke="black" points="0,-27.5 0,-46.5 186,-46.5 186,-27.5 0,-27.5"/>
<text text-anchor="middle" x="93" y="-34.5" font-family="Helvetica,sans-Serif" font-size="10.00">FrontEnd.View.sendArrowCommand</text>
</g>
<!-- Node2 -->
<g id="node2" class="node"><title>Node2</title>
<g id="a_node2"><a xlink:href="../../de/d36/class_front_end_commands_1_1_super_command.html#aaaa8e1fd7d4e08c149fd33ecd4b48980" target="_top" xlink:title="FrontEndCommands.SuperCommand.change">
<polygon fill="white" stroke="black" points="222,-49.5 222,-68.5 456,-68.5 456,-49.5 222,-49.5"/>
<text text-anchor="middle" x="339" y="-56.5" font-family="Helvetica,sans-Serif" font-size="10.00">FrontEndCommands.SuperCommand.change</text>
</a>
</g>
</g>
<!-- Node1&#45;&gt;Node2 -->
<g id="edge1" class="edge"><title>Node1&#45;&gt;Node2</title>
<path fill="none" stroke="midnightblue" d="M186.246,-45.3173C198.054,-46.382 210.259,-47.4824 222.379,-48.5752"/>
<polygon fill="midnightblue" stroke="midnightblue" points="222.256,-52.0782 232.53,-49.4904 222.885,-45.1065 222.256,-52.0782"/>
</g>
<!-- Node3 -->
<g id="node3" class="node"><title>Node3</title>
<g id="a_node3"><a xlink:href="../../d5/d23/class_front_end_1_1_arrow_key_handler.html#af270098637f279ffd5b174ca9e264fbd" target="_top" xlink:title="FrontEnd.ArrowKeyHandler.make\lInstruction">
<polygon fill="white" stroke="black" points="253,-0 253,-30 425,-30 425,-0 253,-0"/>
<text text-anchor="start" x="261" y="-18" font-family="Helvetica,sans-Serif" font-size="10.00">FrontEnd.ArrowKeyHandler.make</text>
<text text-anchor="middle" x="339" y="-7" font-family="Helvetica,sans-Serif" font-size="10.00">Instruction</text>
</a>
</g>
</g>
<!-- Node1&#45;&gt;Node3 -->
<g id="edge2" class="edge"><title>Node1&#45;&gt;Node3</title>
<path fill="none" stroke="midnightblue" d="M186.246,-28.6827C204.692,-27.0195 224.106,-25.2692 242.654,-23.5967"/>
<polygon fill="midnightblue" stroke="midnightblue" points="243.213,-27.0606 252.859,-22.6767 242.585,-20.0889 243.213,-27.0606"/>
</g>
</g>
</svg>
