<?xml version="1.0" encoding="UTF-8" standalone="no"?>
<!DOCTYPE svg PUBLIC "-//W3C//DTD SVG 1.1//EN"
 "http://www.w3.org/Graphics/SVG/1.1/DTD/svg11.dtd">
<!-- Generated by graphviz version 2.36.0 (20140111.2315)
 -->
<!-- Title: FrontEnd.View.getAddTurtleButton Pages: 1 -->
<svg width="894pt" height="38pt"
 viewBox="0.00 0.00 894.00 38.00" xmlns="http://www.w3.org/2000/svg" xmlns:xlink="http://www.w3.org/1999/xlink">
<g id="graph0" class="graph" transform="scale(1 1) rotate(0) translate(4 34)">
<title>FrontEnd.View.getAddTurtleButton</title>
<polygon fill="white" stroke="none" points="-4,4 -4,-34 890,-34 890,4 -4,4"/>
<!-- Node1 -->
<g id="node1" class="node"><title>Node1</title>
<polygon fill="#bfbfbf" stroke="black" points="0,-0 0,-30 146,-30 146,-0 0,-0"/>
<text text-anchor="start" x="8" y="-18" font-family="Helvetica,sans-Serif" font-size="10.00">FrontEnd.View.getAddTurtle</text>
<text text-anchor="middle" x="73" y="-7" font-family="Helvetica,sans-Serif" font-size="10.00">Button</text>
</g>
<!-- Node2 -->
<g id="node2" class="node"><title>Node2</title>
<g id="a_node2"><a xlink:href="../../d8/da4/class_front_end_commands_1_1_load_workspace.html#a085f7d78419f925a9cb7832f575cf221" target="_top" xlink:title="FrontEndCommands.LoadWorkspace.get\lSettingsFromFile">
<polygon fill="white" stroke="black" points="182,-0 182,-30 392,-30 392,-0 182,-0"/>
<text text-anchor="start" x="190" y="-18" font-family="Helvetica,sans-Serif" font-size="10.00">FrontEndCommands.LoadWorkspace.get</text>
<text text-anchor="middle" x="287" y="-7" font-family="Helvetica,sans-Serif" font-size="10.00">SettingsFromFile</text>
</a>
</g>
</g>
<!-- Node1&#45;&gt;Node2 -->
<g id="edge1" class="edge"><title>Node1&#45;&gt;Node2</title>
<path fill="none" stroke="midnightblue" d="M156.197,-15C164.598,-15 173.209,-15 181.805,-15"/>
<polygon fill="midnightblue" stroke="midnightblue" points="156.069,-11.5001 146.069,-15 156.069,-18.5001 156.069,-11.5001"/>
</g>
<!-- Node3 -->
<g id="node3" class="node"><title>Node3</title>
<g id="a_node3"><a xlink:href="../../d8/da4/class_front_end_commands_1_1_load_workspace.html#a8d25efaea29f2543991a3efce2a1c0f6" target="_top" xlink:title="FrontEndCommands.LoadWorkspace.handle">
<polygon fill="white" stroke="black" points="428.5,-5.5 428.5,-24.5 655.5,-24.5 655.5,-5.5 428.5,-5.5"/>
<text text-anchor="middle" x="542" y="-12.5" font-family="Helvetica,sans-Serif" font-size="10.00">FrontEndCommands.LoadWorkspace.handle</text>
</a>
</g>
</g>
<!-- Node2&#45;&gt;Node3 -->
<g id="edge2" class="edge"><title>Node2&#45;&gt;Node3</title>
<path fill="none" stroke="midnightblue" d="M402.176,-8.27856C410.883,-8.23809 419.669,-8.24063 428.367,-8.28618"/>
<polygon fill="midnightblue" stroke="midnightblue" points="401.977,-4.7797 392,-8.34581 402.023,-11.7795 401.977,-4.7797"/>
</g>
<!-- Node3&#45;&gt;Node2 -->
<g id="edge4" class="edge"><title>Node3&#45;&gt;Node2</title>
<path fill="none" stroke="midnightblue" d="M418.126,-21.7475C409.385,-21.7594 400.62,-21.7283 392,-21.6542"/>
<polygon fill="midnightblue" stroke="midnightblue" points="418.379,-25.2468 428.367,-21.7138 418.356,-18.2469 418.379,-25.2468"/>
</g>
<!-- Node4 -->
<g id="node4" class="node"><title>Node4</title>
<g id="a_node4"><a xlink:href="../../d8/da4/class_front_end_commands_1_1_load_workspace.html#ac3c90bf92d48930f076d277acd611bfc" target="_top" xlink:title="FrontEndCommands.LoadWorkspace.\lLoadWorkspace">
<polygon fill="white" stroke="black" points="692,-0 692,-30 886,-30 886,-0 692,-0"/>
<text text-anchor="start" x="700" y="-18" font-family="Helvetica,sans-Serif" font-size="10.00">FrontEndCommands.LoadWorkspace.</text>
<text text-anchor="middle" x="789" y="-7" font-family="Helvetica,sans-Serif" font-size="10.00">LoadWorkspace</text>
</a>
</g>
</g>
<!-- Node3&#45;&gt;Node4 -->
<g id="edge3" class="edge"><title>Node3&#45;&gt;Node4</title>
<path fill="none" stroke="midnightblue" d="M666.011,-15C674.701,-15 683.387,-15 691.895,-15"/>
<polygon fill="midnightblue" stroke="midnightblue" points="665.819,-11.5001 655.819,-15 665.819,-18.5001 665.819,-11.5001"/>
</g>
</g>
</svg>
