<?xml version="1.0" encoding="UTF-8" standalone="no"?>
<!DOCTYPE svg PUBLIC "-//W3C//DTD SVG 1.1//EN"
 "http://www.w3.org/Graphics/SVG/1.1/DTD/svg11.dtd">
<!-- Generated by graphviz version 2.36.0 (20140111.2315)
 -->
<!-- Title: FrontEnd.View.updateFocus Pages: 1 -->
<svg width="522pt" height="77pt"
 viewBox="0.00 0.00 522.00 77.00" xmlns="http://www.w3.org/2000/svg" xmlns:xlink="http://www.w3.org/1999/xlink">
<g id="graph0" class="graph" transform="scale(1 1) rotate(0) translate(4 73)">
<title>FrontEnd.View.updateFocus</title>
<polygon fill="white" stroke="none" points="-4,4 -4,-73 518,-73 518,4 -4,4"/>
<!-- Node1 -->
<g id="node1" class="node"><title>Node1</title>
<polygon fill="#bfbfbf" stroke="black" points="0.5,-22.5 0.5,-41.5 147.5,-41.5 147.5,-22.5 0.5,-22.5"/>
<text text-anchor="middle" x="74" y="-29.5" font-family="Helvetica,sans-Serif" font-size="10.00">FrontEnd.View.updateFocus</text>
</g>
<!-- Node2 -->
<g id="node2" class="node"><title>Node2</title>
<g id="a_node2"><a xlink:href="../../dd/d2e/class_front_end_1_1_controller.html#a41885f349a8f334750e26d685a8981d2" target="_top" xlink:title="FrontEnd.Controller.execute\lCommand">
<polygon fill="white" stroke="black" points="184.5,-39 184.5,-69 333.5,-69 333.5,-39 184.5,-39"/>
<text text-anchor="start" x="192.5" y="-57" font-family="Helvetica,sans-Serif" font-size="10.00">FrontEnd.Controller.execute</text>
<text text-anchor="middle" x="259" y="-46" font-family="Helvetica,sans-Serif" font-size="10.00">Command</text>
</a>
</g>
</g>
<!-- Node1&#45;&gt;Node2 -->
<g id="edge1" class="edge"><title>Node1&#45;&gt;Node2</title>
<path fill="none" stroke="midnightblue" d="M157.579,-41.9275C166.486,-42.9983 175.507,-44.0828 184.3,-45.1399"/>
<polygon fill="midnightblue" stroke="midnightblue" points="157.936,-38.4453 147.589,-40.7266 157.1,-45.3952 157.936,-38.4453"/>
</g>
<!-- Node4 -->
<g id="node4" class="node"><title>Node4</title>
<g id="a_node4"><a xlink:href="../../df/dec/class_front_end_1_1_view.html#a079d7e899ded516b169dc6e66da79e1e" target="_top" xlink:title="FrontEnd.View.View">
<polygon fill="white" stroke="black" points="205.5,-0.5 205.5,-19.5 312.5,-19.5 312.5,-0.5 205.5,-0.5"/>
<text text-anchor="middle" x="259" y="-7.5" font-family="Helvetica,sans-Serif" font-size="10.00">FrontEnd.View.View</text>
</a>
</g>
</g>
<!-- Node1&#45;&gt;Node4 -->
<g id="edge3" class="edge"><title>Node1&#45;&gt;Node4</title>
<path fill="none" stroke="midnightblue" d="M157.605,-22.0693C173.799,-20.1226 190.367,-18.1307 205.256,-16.3408"/>
<polygon fill="midnightblue" stroke="midnightblue" points="157.1,-18.6048 147.589,-23.2734 157.936,-25.5547 157.1,-18.6048"/>
</g>
<!-- Node3 -->
<g id="node3" class="node"><title>Node3</title>
<g id="a_node3"><a xlink:href="../../dd/d2e/class_front_end_1_1_controller.html#a29be9ff259428dbe97eebe3ec9a13ac5" target="_top" xlink:title="FrontEnd.Controller.update">
<polygon fill="white" stroke="black" points="370,-44.5 370,-63.5 514,-63.5 514,-44.5 370,-44.5"/>
<text text-anchor="middle" x="442" y="-51.5" font-family="Helvetica,sans-Serif" font-size="10.00">FrontEnd.Controller.update</text>
</a>
</g>
</g>
<!-- Node2&#45;&gt;Node3 -->
<g id="edge2" class="edge"><title>Node2&#45;&gt;Node3</title>
<path fill="none" stroke="midnightblue" d="M343.771,-54C352.468,-54 361.249,-54 369.789,-54"/>
<polygon fill="midnightblue" stroke="midnightblue" points="343.62,-50.5001 333.62,-54 343.62,-57.5001 343.62,-50.5001"/>
</g>
</g>
</svg>
