<?xml version="1.0" encoding="UTF-8" standalone="no"?>
<!DOCTYPE svg PUBLIC "-//W3C//DTD SVG 1.1//EN"
 "http://www.w3.org/Graphics/SVG/1.1/DTD/svg11.dtd">
<!-- Generated by graphviz version 2.36.0 (20140111.2315)
 -->
<!-- Title: FrontEnd.View.View Pages: 1 -->
<!--zoomable 740 -->
<svg id="main" version="1.1" xmlns="http://www.w3.org/2000/svg" xmlns:xlink="http://www.w3.org/1999/xlink" xml:space="preserve" onload="init(evt)">
<style type="text/css"><![CDATA[
.edge:hover path { stroke: red; }
.edge:hover polygon { stroke: red; fill: red; }
]]></style>
<script type="text/javascript"><![CDATA[
var edges = document.getElementsByTagName('g');
if (edges && edges.length) {
  for (var i=0;i<edges.length;i++) {
    if (edges[i].id.substr(0,4)=='edge') {
      edges[i].setAttribute('class','edge');
    }
  }
}
]]></script>
        <defs>
                <circle id="rim" cx="0" cy="0" r="7"/>
                <circle id="rim2" cx="0" cy="0" r="3.5"/>
                <g id="zoomPlus">
                        <use xlink:href="#rim" fill="#404040">
                                <set attributeName="fill" to="#808080" begin="zoomplus.mouseover" end="zoomplus.mouseout"/>
                        </use>
                        <path d="M-4,0h8M0,-4v8" fill="none" stroke="white" stroke-width="1.5" pointer-events="none"/>
                </g>
                <g id="zoomMin">
                        <use xlink:href="#rim" fill="#404040">
                                <set attributeName="fill" to="#808080" begin="zoomminus.mouseover" end="zoomminus.mouseout"/>
                        </use>
                        <path d="M-4,0h8" fill="none" stroke="white" stroke-width="1.5" pointer-events="none"/>
                </g>
                <g id="dirArrow">
                        <path fill="none" stroke="white" stroke-width="1.5" d="M0,-3.0v7 M-2.5,-0.5L0,-3.0L2.5,-0.5"/>
                </g>
               <g id="resetDef">
                       <use xlink:href="#rim2" fill="#404040">
                               <set attributeName="fill" to="#808080" begin="reset.mouseover" end="reset.mouseout"/>
                       </use>
               </g>
        </defs>

<script type="text/javascript">
var viewWidth = 1706;
var viewHeight = 740;
var sectionId = 'dynsection-1';
</script>
<script xlink:href="../../svgpan.js"/>
<svg id="graph" class="graph">
<g id="viewport">
<title>FrontEnd.View.View</title>
<polygon fill="white" stroke="none" points="-4,4 -4,-736 1702,-736 1702,4 -4,4"/>
<!-- Node1 -->
<g id="node1" class="node"><title>Node1</title>
<polygon fill="#bfbfbf" stroke="black" points="0.5,-320.5 0.5,-339.5 107.5,-339.5 107.5,-320.5 0.5,-320.5"/>
<text text-anchor="middle" x="54" y="-327.5" font-family="Helvetica,sans-Serif" font-size="10.00">FrontEnd.View.View</text>
</g>
<!-- Node2 -->
<g id="node2" class="node"><title>Node2</title>
<g id="a_node2"><a xlink:href="../../d0/d61/class_front_end_commands_1_1_new_workspace.html#a256284c0be7271710b85895ccef9dd28" target="_top" xlink:title="FrontEndCommands.NewWorkspace.get\lButton">
<polygon fill="white" stroke="black" points="160.5,-702 160.5,-732 367.5,-732 367.5,-702 160.5,-702"/>
<text text-anchor="start" x="168.5" y="-720" font-family="Helvetica,sans-Serif" font-size="10.00">FrontEndCommands.NewWorkspace.get</text>
<text text-anchor="middle" x="264" y="-709" font-family="Helvetica,sans-Serif" font-size="10.00">Button</text>
</a>
</g>
</g>
<!-- Node1&#45;&gt;Node2 -->
<g id="edge1" class="edge"><title>Node1&#45;&gt;Node2</title>
<path fill="none" stroke="midnightblue" d="M55.9831,-339.512C61.5443,-391.469 90.7181,-640.5 144,-692 146.429,-694.347 149.019,-696.499 151.74,-698.47"/>
<polygon fill="midnightblue" stroke="midnightblue" points="149.946,-701.477 160.27,-703.858 153.684,-695.559 149.946,-701.477"/>
</g>
<!-- Node3 -->
<g id="node3" class="node"><title>Node3</title>
<g id="a_node3"><a xlink:href="../../de/d36/class_front_end_commands_1_1_super_command.html#a4bda3fc98b39817e6e60cdc59857288a" target="_top" xlink:title="FrontEndCommands.SuperCommand.get\lButton">
<polygon fill="white" stroke="black" points="156.5,-653 156.5,-683 371.5,-683 371.5,-653 156.5,-653"/>
<text text-anchor="start" x="164.5" y="-671" font-family="Helvetica,sans-Serif" font-size="10.00">FrontEndCommands.SuperCommand.get</text>
<text text-anchor="middle" x="264" y="-660" font-family="Helvetica,sans-Serif" font-size="10.00">Button</text>
</a>
</g>
</g>
<!-- Node1&#45;&gt;Node3 -->
<g id="edge2" class="edge"><title>Node1&#45;&gt;Node3</title>
<path fill="none" stroke="midnightblue" d="M54.4738,-339.69C52.7148,-382.565 51.6494,-556.894 144,-643 145.534,-644.431 147.129,-645.788 148.777,-647.075"/>
<polygon fill="midnightblue" stroke="midnightblue" points="147.187,-650.226 157.427,-652.946 151.118,-644.434 147.187,-650.226"/>
</g>
<!-- Node4 -->
<g id="node4" class="node"><title>Node4</title>
<g id="a_node4"><a xlink:href="../../df/d9f/class_front_end_commands_1_1_save_workspace.html#ab290769fb20d5c5fec1de461948bc54c" target="_top" xlink:title="FrontEndCommands.SaveWorkspace.get\lButton">
<polygon fill="white" stroke="black" points="158.5,-604 158.5,-634 369.5,-634 369.5,-604 158.5,-604"/>
<text text-anchor="start" x="166.5" y="-622" font-family="Helvetica,sans-Serif" font-size="10.00">FrontEndCommands.SaveWorkspace.get</text>
<text text-anchor="middle" x="264" y="-611" font-family="Helvetica,sans-Serif" font-size="10.00">Button</text>
</a>
</g>
</g>
<!-- Node1&#45;&gt;Node4 -->
<g id="edge3" class="edge"><title>Node1&#45;&gt;Node4</title>
<path fill="none" stroke="midnightblue" d="M55.06,-339.736C55.8589,-378.497 64.2679,-523.168 144,-594 145.795,-595.595 147.666,-597.097 149.602,-598.513"/>
<polygon fill="midnightblue" stroke="midnightblue" points="148.162,-601.746 158.475,-604.174 151.927,-595.844 148.162,-601.746"/>
</g>
<!-- Node5 -->
<g id="node5" class="node"><title>Node5</title>
<g id="a_node5"><a xlink:href="../../d8/da4/class_front_end_commands_1_1_load_workspace.html#a96aa02205270968d3872d58e98dadd70" target="_top" xlink:title="FrontEndCommands.LoadWorkspace.get\lButton">
<polygon fill="white" stroke="black" points="159,-555 159,-585 369,-585 369,-555 159,-555"/>
<text text-anchor="start" x="167" y="-573" font-family="Helvetica,sans-Serif" font-size="10.00">FrontEndCommands.LoadWorkspace.get</text>
<text text-anchor="middle" x="264" y="-562" font-family="Helvetica,sans-Serif" font-size="10.00">Button</text>
</a>
</g>
</g>
<!-- Node1&#45;&gt;Node5 -->
<g id="edge4" class="edge"><title>Node1&#45;&gt;Node5</title>
<path fill="none" stroke="midnightblue" d="M55.8704,-339.551C59.4975,-373.461 76.5403,-489.017 144,-545 146.026,-546.681 148.136,-548.258 150.319,-549.736"/>
<polygon fill="midnightblue" stroke="midnightblue" points="148.686,-552.838 159.065,-554.964 152.277,-546.829 148.686,-552.838"/>
</g>
<!-- Node6 -->
<g id="node6" class="node"><title>Node6</title>
<g id="a_node6"><a xlink:href="../../df/d59/class_front_end_1_1_user_variables_storage.html#a28d32aa8cc758623efbcfa72cd9e239b" target="_top" xlink:title="FrontEnd.UserVariablesStorage.get\lComboBox">
<polygon fill="white" stroke="black" points="171.5,-506 171.5,-536 356.5,-536 356.5,-506 171.5,-506"/>
<text text-anchor="start" x="179.5" y="-524" font-family="Helvetica,sans-Serif" font-size="10.00">FrontEnd.UserVariablesStorage.get</text>
<text text-anchor="middle" x="264" y="-513" font-family="Helvetica,sans-Serif" font-size="10.00">ComboBox</text>
</a>
</g>
</g>
<!-- Node1&#45;&gt;Node6 -->
<g id="edge5" class="edge"><title>Node1&#45;&gt;Node6</title>
<path fill="none" stroke="midnightblue" d="M57.1641,-339.75C64.1242,-368.688 88.7756,-454.637 144,-496 149.506,-500.124 155.538,-503.603 161.874,-506.535"/>
<polygon fill="midnightblue" stroke="midnightblue" points="160.768,-509.865 171.347,-510.45 163.442,-503.396 160.768,-509.865"/>
</g>
<!-- Node7 -->
<g id="node7" class="node"><title>Node7</title>
<g id="a_node7"><a xlink:href="../../de/d8a/class_front_end_1_1_user_commands.html#a023c2acfd7e2ad61c9bad9137103fa14" target="_top" xlink:title="FrontEnd.UserCommands.get\lComboBox">
<polygon fill="white" stroke="black" points="185,-457 185,-487 343,-487 343,-457 185,-457"/>
<text text-anchor="start" x="193" y="-475" font-family="Helvetica,sans-Serif" font-size="10.00">FrontEnd.UserCommands.get</text>
<text text-anchor="middle" x="264" y="-464" font-family="Helvetica,sans-Serif" font-size="10.00">ComboBox</text>
</a>
</g>
</g>
<!-- Node1&#45;&gt;Node7 -->
<g id="edge6" class="edge"><title>Node1&#45;&gt;Node7</title>
<path fill="none" stroke="midnightblue" d="M59.3929,-339.744C70.2037,-362.531 100.425,-419.451 144,-447 153.523,-453.021 164.246,-457.617 175.257,-461.122"/>
<polygon fill="midnightblue" stroke="midnightblue" points="174.405,-464.519 184.983,-463.93 176.346,-457.794 174.405,-464.519"/>
</g>
<!-- Node8 -->
<g id="node8" class="node"><title>Node8</title>
<g id="a_node8"><a xlink:href="../../d2/d5e/class_front_end_1_1_language_selector.html#a0983f98727268c16f03d4448d618a13e" target="_top" xlink:title="FrontEnd.LanguageSelector.get\lComboBox">
<polygon fill="white" stroke="black" points="180.5,-408 180.5,-438 347.5,-438 347.5,-408 180.5,-408"/>
<text text-anchor="start" x="188.5" y="-426" font-family="Helvetica,sans-Serif" font-size="10.00">FrontEnd.LanguageSelector.get</text>
<text text-anchor="middle" x="264" y="-415" font-family="Helvetica,sans-Serif" font-size="10.00">ComboBox</text>
</a>
</g>
</g>
<!-- Node1&#45;&gt;Node8 -->
<g id="edge7" class="edge"><title>Node1&#45;&gt;Node8</title>
<path fill="none" stroke="midnightblue" d="M64.4416,-339.574C79.7267,-354.486 111.474,-383.093 144,-398 152.475,-401.884 161.567,-405.172 170.811,-407.954"/>
<polygon fill="midnightblue" stroke="midnightblue" points="169.906,-411.335 180.48,-410.674 171.801,-404.597 169.906,-411.335"/>
</g>
<!-- Node9 -->
<g id="node9" class="node"><title>Node9</title>
<g id="a_node9"><a xlink:href="../../de/dda/class_front_end_1_1_command_factory.html#a1412ab86514329afcd892387693d640f" target="_top" xlink:title="FrontEnd.CommandFactory.get\lCommandButtons">
<polygon fill="white" stroke="black" points="182,-359 182,-389 346,-389 346,-359 182,-359"/>
<text text-anchor="start" x="190" y="-377" font-family="Helvetica,sans-Serif" font-size="10.00">FrontEnd.CommandFactory.get</text>
<text text-anchor="middle" x="264" y="-366" font-family="Helvetica,sans-Serif" font-size="10.00">CommandButtons</text>
</a>
</g>
</g>
<!-- Node1&#45;&gt;Node9 -->
<g id="edge8" class="edge"><title>Node1&#45;&gt;Node9</title>
<path fill="none" stroke="midnightblue" d="M99.814,-339.597C113.949,-342.616 129.625,-345.956 144,-349 156.059,-351.554 168.808,-354.243 181.305,-356.874"/>
<polygon fill="midnightblue" stroke="midnightblue" points="180.749,-360.333 191.255,-358.967 182.19,-353.483 180.749,-360.333"/>
</g>
<!-- Node10 -->
<g id="node10" class="node"><title>Node10</title>
<g id="a_node10"><a xlink:href="../../de/d36/class_front_end_commands_1_1_super_command.html#a7045547c5f8792902bbdc40316590c4d" target="_top" xlink:title="FrontEndCommands.SuperCommand.getHBox">
<polygon fill="white" stroke="black" points="144,-320.5 144,-339.5 384,-339.5 384,-320.5 144,-320.5"/>
<text text-anchor="middle" x="264" y="-327.5" font-family="Helvetica,sans-Serif" font-size="10.00">FrontEndCommands.SuperCommand.getHBox</text>
</a>
</g>
</g>
<!-- Node1&#45;&gt;Node10 -->
<g id="edge9" class="edge"><title>Node1&#45;&gt;Node10</title>
<path fill="none" stroke="midnightblue" d="M107.756,-330C115.889,-330 124.578,-330 133.537,-330"/>
<polygon fill="midnightblue" stroke="midnightblue" points="133.75,-333.5 143.75,-330 133.75,-326.5 133.75,-333.5"/>
</g>
<!-- Node11 -->
<g id="node11" class="node"><title>Node11</title>
<g id="a_node11"><a xlink:href="../../dc/d7d/class_front_end_1_1_string_chooser.html#a2e464bdef767e146df8d2b7a5f14f6ad" target="_top" xlink:title="FrontEnd.StringChooser.get\lWordInLang">
<polygon fill="white" stroke="black" points="463,-222 463,-252 611,-252 611,-222 463,-222"/>
<text text-anchor="start" x="471" y="-240" font-family="Helvetica,sans-Serif" font-size="10.00">FrontEnd.StringChooser.get</text>
<text text-anchor="middle" x="537" y="-229" font-family="Helvetica,sans-Serif" font-size="10.00">WordInLang</text>
</a>
</g>
</g>
<!-- Node1&#45;&gt;Node11 -->
<g id="edge10" class="edge"><title>Node1&#45;&gt;Node11</title>
<path fill="none" stroke="midnightblue" d="M60.3127,-320.321C72.1556,-299.893 102.943,-252.796 144,-235 248.045,-189.903 382.715,-204.358 464.067,-219.948"/>
<polygon fill="midnightblue" stroke="midnightblue" points="463.717,-223.447 474.206,-221.95 465.073,-216.579 463.717,-223.447"/>
</g>
<!-- Node12 -->
<g id="node12" class="node"><title>Node12</title>
<g id="a_node12"><a xlink:href="../../df/dec/class_front_end_1_1_view.html#a56dd9fe4ba6efa4b300ce982d450adef" target="_top" xlink:title="FrontEnd.View.makeClearButton">
<polygon fill="white" stroke="black" points="179,-282.5 179,-301.5 349,-301.5 349,-282.5 179,-282.5"/>
<text text-anchor="middle" x="264" y="-289.5" font-family="Helvetica,sans-Serif" font-size="10.00">FrontEnd.View.makeClearButton</text>
</a>
</g>
</g>
<!-- Node1&#45;&gt;Node12 -->
<g id="edge11" class="edge"><title>Node1&#45;&gt;Node12</title>
<path fill="none" stroke="midnightblue" d="M97.4638,-320.464C112.169,-317.287 128.779,-313.838 144,-311 158.538,-308.289 174.121,-305.627 189.063,-303.193"/>
<polygon fill="midnightblue" stroke="midnightblue" points="189.968,-306.593 199.284,-301.547 188.854,-299.682 189.968,-306.593"/>
</g>
<!-- Node13 -->
<g id="node13" class="node"><title>Node13</title>
<g id="a_node13"><a xlink:href="../../de/dda/class_front_end_1_1_command_factory.html#a6f00f7c2693516ead32564431335a929" target="_top" xlink:title="FrontEnd.CommandFactory.make\lCommand">
<polygon fill="white" stroke="black" points="449.5,-101 449.5,-131 624.5,-131 624.5,-101 449.5,-101"/>
<text text-anchor="start" x="457.5" y="-119" font-family="Helvetica,sans-Serif" font-size="10.00">FrontEnd.CommandFactory.make</text>
<text text-anchor="middle" x="537" y="-108" font-family="Helvetica,sans-Serif" font-size="10.00">Command</text>
</a>
</g>
</g>
<!-- Node1&#45;&gt;Node13 -->
<g id="edge13" class="edge"><title>Node1&#45;&gt;Node13</title>
<path fill="none" stroke="midnightblue" d="M55.3614,-320.173C57.2766,-284.242 69.274,-159.465 144,-109 190.355,-77.6952 338.764,-89.4719 439.08,-101.915"/>
<polygon fill="midnightblue" stroke="midnightblue" points="438.88,-105.418 449.24,-103.198 439.757,-98.473 438.88,-105.418"/>
</g>
<!-- Node14 -->
<g id="node14" class="node"><title>Node14</title>
<g id="a_node14"><a xlink:href="../../df/dec/class_front_end_1_1_view.html#a839d96c7ec7c494a854d6086d5cd961b" target="_top" xlink:title="FrontEnd.View.makeEnterButton">
<polygon fill="white" stroke="black" points="179,-118.5 179,-137.5 349,-137.5 349,-118.5 179,-118.5"/>
<text text-anchor="middle" x="264" y="-125.5" font-family="Helvetica,sans-Serif" font-size="10.00">FrontEnd.View.makeEnterButton</text>
</a>
</g>
</g>
<!-- Node1&#45;&gt;Node14 -->
<g id="edge14" class="edge"><title>Node1&#45;&gt;Node14</title>
<path fill="none" stroke="midnightblue" d="M56.4975,-320.476C61.8834,-289.659 83.2788,-192.043 144,-147 151.607,-141.357 160.246,-137.116 169.313,-133.957"/>
<polygon fill="midnightblue" stroke="midnightblue" points="170.342,-137.302 178.891,-131.043 168.305,-130.605 170.342,-137.302"/>
</g>
<!-- Node15 -->
<g id="node15" class="node"><title>Node15</title>
<g id="a_node15"><a xlink:href="../../df/dec/class_front_end_1_1_view.html#ae27925be2e927768205db39426bf228e" target="_top" xlink:title="FrontEnd.View.makeTextAreas">
<polygon fill="white" stroke="black" points="184.5,-244.5 184.5,-263.5 343.5,-263.5 343.5,-244.5 184.5,-244.5"/>
<text text-anchor="middle" x="264" y="-251.5" font-family="Helvetica,sans-Serif" font-size="10.00">FrontEnd.View.makeTextAreas</text>
</a>
</g>
</g>
<!-- Node1&#45;&gt;Node15 -->
<g id="edge16" class="edge"><title>Node1&#45;&gt;Node15</title>
<path fill="none" stroke="midnightblue" d="M66.5249,-320.369C82.7229,-307.384 113.651,-284.562 144,-273 153.63,-269.331 163.96,-266.371 174.364,-263.982"/>
<polygon fill="midnightblue" stroke="midnightblue" points="175.287,-267.364 184.341,-261.863 173.832,-260.517 175.287,-267.364"/>
</g>
<!-- Node16 -->
<g id="node16" class="node"><title>Node16</title>
<g id="a_node16"><a xlink:href="../../df/dec/class_front_end_1_1_view.html#affad60393f506692d02f9dc2525780d2" target="_top" xlink:title="FrontEnd.View.makeTurtle\lButton">
<polygon fill="white" stroke="black" points="195,-157 195,-187 333,-187 333,-157 195,-157"/>
<text text-anchor="start" x="203" y="-175" font-family="Helvetica,sans-Serif" font-size="10.00">FrontEnd.View.makeTurtle</text>
<text text-anchor="middle" x="264" y="-164" font-family="Helvetica,sans-Serif" font-size="10.00">Button</text>
</a>
</g>
</g>
<!-- Node1&#45;&gt;Node16 -->
<g id="edge18" class="edge"><title>Node1&#45;&gt;Node16</title>
<path fill="none" stroke="midnightblue" d="M58.9036,-320.189C69.0357,-296.041 98.5885,-233.408 144,-202 156.173,-193.581 170.503,-187.522 184.921,-183.162"/>
<polygon fill="midnightblue" stroke="midnightblue" points="186.186,-186.444 194.893,-180.407 184.322,-179.696 186.186,-186.444"/>
</g>
<!-- Node32 -->
<g id="node32" class="node"><title>Node32</title>
<g id="a_node32"><a xlink:href="../../df/dec/class_front_end_1_1_view.html#a87ed355b9c89f962145ec0c1b158a5e3" target="_top" xlink:title="FrontEnd.View.sendArrowCommand">
<polygon fill="white" stroke="black" points="171,-42.5 171,-61.5 357,-61.5 357,-42.5 171,-42.5"/>
<text text-anchor="middle" x="264" y="-49.5" font-family="Helvetica,sans-Serif" font-size="10.00">FrontEnd.View.sendArrowCommand</text>
</a>
</g>
</g>
<!-- Node1&#45;&gt;Node32 -->
<g id="edge36" class="edge"><title>Node1&#45;&gt;Node32</title>
<path fill="none" stroke="midnightblue" d="M55.1856,-320.349C56.4666,-282.571 66.4725,-143.503 144,-76 149.286,-71.3972 155.207,-67.5853 161.509,-64.4364"/>
<polygon fill="midnightblue" stroke="midnightblue" points="163.232,-67.503 170.985,-60.2825 160.421,-61.0919 163.232,-67.503"/>
</g>
<!-- Node35 -->
<g id="node35" class="node"><title>Node35</title>
<g id="a_node35"><a xlink:href="../../df/dec/class_front_end_1_1_view.html#ae59731d3a1fe87080d0bae87d22318e4" target="_top" xlink:title="FrontEnd.View.updateFocus">
<polygon fill="white" stroke="black" points="190.5,-4.5 190.5,-23.5 337.5,-23.5 337.5,-4.5 190.5,-4.5"/>
<text text-anchor="middle" x="264" y="-11.5" font-family="Helvetica,sans-Serif" font-size="10.00">FrontEnd.View.updateFocus</text>
</a>
</g>
</g>
<!-- Node1&#45;&gt;Node35 -->
<g id="edge39" class="edge"><title>Node1&#45;&gt;Node35</title>
<path fill="none" stroke="midnightblue" d="M54.5527,-320.408C53.1798,-278.747 53.6761,-112.059 144,-33 154.324,-23.9632 167.169,-18.3096 180.564,-14.8988"/>
<polygon fill="midnightblue" stroke="midnightblue" points="181.342,-18.3117 190.388,-12.7953 179.877,-11.4668 181.342,-18.3117"/>
</g>
<!-- Node12&#45;&gt;Node11 -->
<g id="edge12" class="edge"><title>Node12&#45;&gt;Node11</title>
<path fill="none" stroke="midnightblue" d="M330.314,-282.466C347.799,-279.67 366.658,-276.433 384,-273 411.363,-267.583 441.276,-260.707 467.273,-254.419"/>
<polygon fill="midnightblue" stroke="midnightblue" points="468.143,-257.81 477.031,-252.043 466.487,-251.009 468.143,-257.81"/>
</g>
<!-- Node14&#45;&gt;Node13 -->
<g id="edge15" class="edge"><title>Node14&#45;&gt;Node13</title>
<path fill="none" stroke="midnightblue" d="M349.261,-124.269C377.753,-123.007 409.791,-121.589 439.179,-120.287"/>
<polygon fill="midnightblue" stroke="midnightblue" points="439.618,-123.771 449.453,-119.832 439.308,-116.778 439.618,-123.771"/>
</g>
<!-- Node15&#45;&gt;Node11 -->
<g id="edge17" class="edge"><title>Node15&#45;&gt;Node11</title>
<path fill="none" stroke="midnightblue" d="M343.748,-249.06C377.885,-246.919 417.887,-244.409 452.536,-242.236"/>
<polygon fill="midnightblue" stroke="midnightblue" points="452.869,-245.722 462.63,-241.603 452.43,-238.736 452.869,-245.722"/>
</g>
<!-- Node16&#45;&gt;Node11 -->
<g id="edge19" class="edge"><title>Node16&#45;&gt;Node11</title>
<path fill="none" stroke="midnightblue" d="M327.854,-187.076C368.241,-196.763 420.852,-209.381 463.075,-219.509"/>
<polygon fill="midnightblue" stroke="midnightblue" points="462.477,-222.965 473.018,-221.894 464.11,-216.158 462.477,-222.965"/>
</g>
<!-- Node17 -->
<g id="node17" class="node"><title>Node17</title>
<g id="a_node17"><a xlink:href="../../d4/d8a/class_turtle_view_1_1_turtle_window.html#ab6961d80a7e356af4e9206478608ed40" target="_top" xlink:title="TurtleView.TurtleWindow.make\lTurtle">
<polygon fill="white" stroke="black" points="459,-157 459,-187 615,-187 615,-157 459,-157"/>
<text text-anchor="start" x="467" y="-175" font-family="Helvetica,sans-Serif" font-size="10.00">TurtleView.TurtleWindow.make</text>
<text text-anchor="middle" x="537" y="-164" font-family="Helvetica,sans-Serif" font-size="10.00">Turtle</text>
</a>
</g>
</g>
<!-- Node16&#45;&gt;Node17 -->
<g id="edge20" class="edge"><title>Node16&#45;&gt;Node17</title>
<path fill="none" stroke="midnightblue" d="M333.035,-172C368.004,-172 411.02,-172 448.438,-172"/>
<polygon fill="midnightblue" stroke="midnightblue" points="448.832,-175.5 458.832,-172 448.832,-168.5 448.832,-175.5"/>
</g>
<!-- Node18 -->
<g id="node18" class="node"><title>Node18</title>
<g id="a_node18"><a xlink:href="../../d4/d8a/class_turtle_view_1_1_turtle_window.html#a55f7ffa346d2ced8f9e831efc900d0c0" target="_top" xlink:title="TurtleView.TurtleWindow.click">
<polygon fill="white" stroke="black" points="690.5,-162.5 690.5,-181.5 839.5,-181.5 839.5,-162.5 690.5,-162.5"/>
<text text-anchor="middle" x="765" y="-169.5" font-family="Helvetica,sans-Serif" font-size="10.00">TurtleView.TurtleWindow.click</text>
</a>
</g>
</g>
<!-- Node17&#45;&gt;Node18 -->
<g id="edge21" class="edge"><title>Node17&#45;&gt;Node18</title>
<path fill="none" stroke="midnightblue" d="M615.144,-172C636.118,-172 658.931,-172 680.251,-172"/>
<polygon fill="midnightblue" stroke="midnightblue" points="680.256,-175.5 690.256,-172 680.256,-168.5 680.256,-175.5"/>
</g>
<!-- Node19 -->
<g id="node19" class="node"><title>Node19</title>
<g id="a_node19"><a xlink:href="../../d1/de0/class_backend_1_1_turtle.html#a56cc7f136ffa25bbe506ac4d48eb1298" target="_top" xlink:title="Backend.Turtle.showRing">
<polygon fill="white" stroke="black" points="902,-260.5 902,-279.5 1036,-279.5 1036,-260.5 902,-260.5"/>
<text text-anchor="middle" x="969" y="-267.5" font-family="Helvetica,sans-Serif" font-size="10.00">Backend.Turtle.showRing</text>
</a>
</g>
</g>
<!-- Node18&#45;&gt;Node19 -->
<g id="edge22" class="edge"><title>Node18&#45;&gt;Node19</title>
<path fill="none" stroke="midnightblue" d="M776.297,-181.734C794.741,-198.599 835.303,-233.155 876,-251 881.783,-253.536 887.922,-255.739 894.175,-257.653"/>
<polygon fill="midnightblue" stroke="midnightblue" points="893.489,-261.096 904.063,-260.427 895.381,-254.356 893.489,-261.096"/>
</g>
<!-- Node20 -->
<g id="node20" class="node"><title>Node20</title>
<g id="a_node20"><a xlink:href="../../d0/d46/class_pen_1_1_pen_options.html#a685386bb97365462feaa476bd353df67" target="_top" xlink:title="Pen.PenOptions.changePen">
<polygon fill="white" stroke="black" points="894.5,-222.5 894.5,-241.5 1043.5,-241.5 1043.5,-222.5 894.5,-222.5"/>
<text text-anchor="middle" x="969" y="-229.5" font-family="Helvetica,sans-Serif" font-size="10.00">Pen.PenOptions.changePen</text>
</a>
</g>
</g>
<!-- Node18&#45;&gt;Node20 -->
<g id="edge23" class="edge"><title>Node18&#45;&gt;Node20</title>
<path fill="none" stroke="midnightblue" d="M788.413,-181.51C810.406,-190.564 845.055,-204.094 876,-213 885.19,-215.645 894.996,-218.075 904.654,-220.249"/>
<polygon fill="midnightblue" stroke="midnightblue" points="904.118,-223.715 914.633,-222.422 905.607,-216.875 904.118,-223.715"/>
</g>
<!-- Node21 -->
<g id="node21" class="node"><title>Node21</title>
<g id="a_node21"><a xlink:href="../../d1/de0/class_backend_1_1_turtle.html#a5ecb58c234e1b7c851c17eaa4de8235d" target="_top" xlink:title="Backend.Turtle.getPen">
<polygon fill="white" stroke="black" points="907.5,-184.5 907.5,-203.5 1030.5,-203.5 1030.5,-184.5 907.5,-184.5"/>
<text text-anchor="middle" x="969" y="-191.5" font-family="Helvetica,sans-Serif" font-size="10.00">Backend.Turtle.getPen</text>
</a>
</g>
</g>
<!-- Node18&#45;&gt;Node21 -->
<g id="edge24" class="edge"><title>Node18&#45;&gt;Node21</title>
<path fill="none" stroke="midnightblue" d="M839.784,-180.036C858.517,-182.076 878.601,-184.263 897.183,-186.287"/>
<polygon fill="midnightblue" stroke="midnightblue" points="897.014,-189.789 907.334,-187.393 897.772,-182.831 897.014,-189.789"/>
</g>
<!-- Node22 -->
<g id="node22" class="node"><title>Node22</title>
<g id="a_node22"><a xlink:href="../../dc/d04/class_turtle_view_1_1_turtle_image_box.html#afc8ed7ffd8fe31dade346f0dee9d550c" target="_top" xlink:title="TurtleView.TurtleImageBox.change\lTurtle">
<polygon fill="white" stroke="black" points="880,-135 880,-165 1058,-165 1058,-135 880,-135"/>
<text text-anchor="start" x="888" y="-153" font-family="Helvetica,sans-Serif" font-size="10.00">TurtleView.TurtleImageBox.change</text>
<text text-anchor="middle" x="969" y="-142" font-family="Helvetica,sans-Serif" font-size="10.00">Turtle</text>
</a>
</g>
</g>
<!-- Node18&#45;&gt;Node22 -->
<g id="edge25" class="edge"><title>Node18&#45;&gt;Node22</title>
<path fill="none" stroke="midnightblue" d="M839.784,-163.964C849.505,-162.905 859.589,-161.807 869.638,-160.713"/>
<polygon fill="midnightblue" stroke="midnightblue" points="870.099,-164.183 879.661,-159.621 869.341,-157.224 870.099,-164.183"/>
</g>
<!-- Node23 -->
<g id="node23" class="node"><title>Node23</title>
<g id="a_node23"><a xlink:href="../../d9/d38/class_turtle_view_1_1_turtle_information.html#a3a64e1f1313c0c4f30a93c1fcc5f36c1" target="_top" xlink:title="TurtleView.TurtleInformation.change\lTurtle">
<polygon fill="white" stroke="black" points="876.5,-86 876.5,-116 1061.5,-116 1061.5,-86 876.5,-86"/>
<text text-anchor="start" x="884.5" y="-104" font-family="Helvetica,sans-Serif" font-size="10.00">TurtleView.TurtleInformation.change</text>
<text text-anchor="middle" x="969" y="-93" font-family="Helvetica,sans-Serif" font-size="10.00">Turtle</text>
</a>
</g>
</g>
<!-- Node18&#45;&gt;Node23 -->
<g id="edge26" class="edge"><title>Node18&#45;&gt;Node23</title>
<path fill="none" stroke="midnightblue" d="M785.922,-162.422C807.693,-152.209 843.774,-136.02 876,-125 882.296,-122.847 888.891,-120.777 895.534,-118.817"/>
<polygon fill="midnightblue" stroke="midnightblue" points="896.622,-122.146 905.272,-116.028 894.695,-115.417 896.622,-122.146"/>
</g>
<!-- Node31 -->
<g id="node31" class="node"><title>Node31</title>
<g id="a_node31"><a xlink:href="../../d1/de0/class_backend_1_1_turtle.html#aa99cd255ffa089963fad4be5955c8bb6" target="_top" xlink:title="Backend.Turtle.hideRing">
<polygon fill="white" stroke="black" points="904,-47.5 904,-66.5 1034,-66.5 1034,-47.5 904,-47.5"/>
<text text-anchor="middle" x="969" y="-54.5" font-family="Helvetica,sans-Serif" font-size="10.00">Backend.Turtle.hideRing</text>
</a>
</g>
</g>
<!-- Node18&#45;&gt;Node31 -->
<g id="edge35" class="edge"><title>Node18&#45;&gt;Node31</title>
<path fill="none" stroke="midnightblue" d="M773.961,-162.291C790.659,-142.625 831.497,-98.0823 876,-76 881.657,-73.1932 887.707,-70.8008 893.902,-68.7616"/>
<polygon fill="midnightblue" stroke="midnightblue" points="895.135,-72.0465 903.721,-65.8392 893.138,-65.3374 895.135,-72.0465"/>
</g>
<!-- Node24 -->
<g id="node24" class="node"><title>Node24</title>
<g id="a_node24"><a xlink:href="../../d9/d38/class_turtle_view_1_1_turtle_information.html#ad65201793ce738f9c6d6e592271c14e1" target="_top" xlink:title="TurtleView.TurtleInformation.update">
<polygon fill="white" stroke="black" points="1098.5,-91.5 1098.5,-110.5 1281.5,-110.5 1281.5,-91.5 1098.5,-91.5"/>
<text text-anchor="middle" x="1190" y="-98.5" font-family="Helvetica,sans-Serif" font-size="10.00">TurtleView.TurtleInformation.update</text>
</a>
</g>
</g>
<!-- Node23&#45;&gt;Node24 -->
<g id="edge27" class="edge"><title>Node23&#45;&gt;Node24</title>
<path fill="none" stroke="midnightblue" d="M1061.61,-101C1070.46,-101 1079.48,-101 1088.42,-101"/>
<polygon fill="midnightblue" stroke="midnightblue" points="1088.46,-104.5 1098.46,-101 1088.46,-97.5001 1088.46,-104.5"/>
</g>
<!-- Node25 -->
<g id="node25" class="node"><title>Node25</title>
<g id="a_node25"><a xlink:href="../../d9/d38/class_turtle_view_1_1_turtle_information.html#aca65258778dade3baa31e0d5ec643b3b" target="_top" xlink:title="TurtleView.TurtleInformation.emptyInfo">
<polygon fill="white" stroke="black" points="1318.5,-167.5 1318.5,-186.5 1515.5,-186.5 1515.5,-167.5 1318.5,-167.5"/>
<text text-anchor="middle" x="1417" y="-174.5" font-family="Helvetica,sans-Serif" font-size="10.00">TurtleView.TurtleInformation.emptyInfo</text>
</a>
</g>
</g>
<!-- Node24&#45;&gt;Node25 -->
<g id="edge28" class="edge"><title>Node24&#45;&gt;Node25</title>
<path fill="none" stroke="midnightblue" d="M1208.99,-110.673C1233.14,-123.284 1277.68,-145.232 1318,-158 1326.68,-160.747 1335.91,-163.167 1345.12,-165.278"/>
<polygon fill="midnightblue" stroke="midnightblue" points="1344.56,-168.736 1355.07,-167.448 1346.05,-161.897 1344.56,-168.736"/>
</g>
<!-- Node26 -->
<g id="node26" class="node"><title>Node26</title>
<g id="a_node26"><a xlink:href="../../d1/de0/class_backend_1_1_turtle.html#adc7cb6cc95ee918547d2b18d8bb20183" target="_top" xlink:title="Backend.Turtle.getID">
<polygon fill="white" stroke="black" points="1359.5,-129.5 1359.5,-148.5 1474.5,-148.5 1474.5,-129.5 1359.5,-129.5"/>
<text text-anchor="middle" x="1417" y="-136.5" font-family="Helvetica,sans-Serif" font-size="10.00">Backend.Turtle.getID</text>
</a>
</g>
</g>
<!-- Node24&#45;&gt;Node26 -->
<g id="edge29" class="edge"><title>Node24&#45;&gt;Node26</title>
<path fill="none" stroke="midnightblue" d="M1247.49,-110.54C1278.38,-115.757 1316.84,-122.253 1349.21,-127.72"/>
<polygon fill="midnightblue" stroke="midnightblue" points="1349.05,-131.242 1359.49,-129.456 1350.21,-124.34 1349.05,-131.242"/>
</g>
<!-- Node27 -->
<g id="node27" class="node"><title>Node27</title>
<g id="a_node27"><a xlink:href="../../d9/d38/class_turtle_view_1_1_turtle_information.html#a15bd13ad05cabb76c0861d0ab42722ef" target="_top" xlink:title="TurtleView.TurtleInformation.truncate">
<polygon fill="white" stroke="black" points="1322,-91.5 1322,-110.5 1512,-110.5 1512,-91.5 1322,-91.5"/>
<text text-anchor="middle" x="1417" y="-98.5" font-family="Helvetica,sans-Serif" font-size="10.00">TurtleView.TurtleInformation.truncate</text>
</a>
</g>
</g>
<!-- Node24&#45;&gt;Node27 -->
<g id="edge30" class="edge"><title>Node24&#45;&gt;Node27</title>
<path fill="none" stroke="midnightblue" d="M1281.54,-101C1291.53,-101 1301.75,-101 1311.88,-101"/>
<polygon fill="midnightblue" stroke="midnightblue" points="1311.97,-104.5 1321.97,-101 1311.97,-97.5001 1311.97,-104.5"/>
</g>
<!-- Node28 -->
<g id="node28" class="node"><title>Node28</title>
<g id="a_node28"><a xlink:href="../../d1/de0/class_backend_1_1_turtle.html#a715f94909b1ba74dc9e4f9eb4fd91e10" target="_top" xlink:title="Backend.Turtle.getXCord">
<polygon fill="white" stroke="black" points="1350.5,-15.5 1350.5,-34.5 1483.5,-34.5 1483.5,-15.5 1350.5,-15.5"/>
<text text-anchor="middle" x="1417" y="-22.5" font-family="Helvetica,sans-Serif" font-size="10.00">Backend.Turtle.getXCord</text>
</a>
</g>
</g>
<!-- Node24&#45;&gt;Node28 -->
<g id="edge31" class="edge"><title>Node24&#45;&gt;Node28</title>
<path fill="none" stroke="midnightblue" d="M1208.99,-91.3266C1233.14,-78.7161 1277.68,-56.7684 1318,-44 1326.68,-41.2527 1335.91,-38.8331 1345.12,-36.7223"/>
<polygon fill="midnightblue" stroke="midnightblue" points="1346.05,-40.1028 1355.07,-34.5522 1344.56,-33.2636 1346.05,-40.1028"/>
</g>
<!-- Node30 -->
<g id="node30" class="node"><title>Node30</title>
<g id="a_node30"><a xlink:href="../../d1/de0/class_backend_1_1_turtle.html#a692174eccea232fc58e725cff6f50359" target="_top" xlink:title="Backend.Turtle.getYCord">
<polygon fill="white" stroke="black" points="1351,-53.5 1351,-72.5 1483,-72.5 1483,-53.5 1351,-53.5"/>
<text text-anchor="middle" x="1417" y="-60.5" font-family="Helvetica,sans-Serif" font-size="10.00">Backend.Turtle.getYCord</text>
</a>
</g>
</g>
<!-- Node24&#45;&gt;Node30 -->
<g id="edge33" class="edge"><title>Node24&#45;&gt;Node30</title>
<path fill="none" stroke="midnightblue" d="M1247.49,-91.46C1278.38,-86.2426 1316.84,-79.7475 1349.21,-74.28"/>
<polygon fill="midnightblue" stroke="midnightblue" points="1350.21,-77.6604 1359.49,-72.5439 1349.05,-70.7581 1350.21,-77.6604"/>
</g>
<!-- Node29 -->
<g id="node29" class="node"><title>Node29</title>
<g id="a_node29"><a xlink:href="../../d1/de0/class_backend_1_1_turtle.html#a33957258db9a7205d470c5a2d22b89af" target="_top" xlink:title="Backend.Turtle.getLocation">
<polygon fill="white" stroke="black" points="1552,-34.5 1552,-53.5 1698,-53.5 1698,-34.5 1552,-34.5"/>
<text text-anchor="middle" x="1625" y="-41.5" font-family="Helvetica,sans-Serif" font-size="10.00">Backend.Turtle.getLocation</text>
</a>
</g>
</g>
<!-- Node28&#45;&gt;Node29 -->
<g id="edge32" class="edge"><title>Node28&#45;&gt;Node29</title>
<path fill="none" stroke="midnightblue" d="M1483.75,-31.064C1502.2,-32.7656 1522.49,-34.6373 1541.77,-36.4155"/>
<polygon fill="midnightblue" stroke="midnightblue" points="1541.46,-39.9022 1551.74,-37.3355 1542.11,-32.9318 1541.46,-39.9022"/>
</g>
<!-- Node30&#45;&gt;Node29 -->
<g id="edge34" class="edge"><title>Node30&#45;&gt;Node29</title>
<path fill="none" stroke="midnightblue" d="M1483.18,-56.9883C1501.75,-55.2755 1522.22,-53.3871 1541.67,-51.5933"/>
<polygon fill="midnightblue" stroke="midnightblue" points="1542.1,-55.069 1551.73,-50.6653 1541.45,-48.0986 1542.1,-55.069"/>
</g>
<!-- Node33 -->
<g id="node33" class="node"><title>Node33</title>
<g id="a_node33"><a xlink:href="../../d5/d23/class_front_end_1_1_arrow_key_handler.html#af270098637f279ffd5b174ca9e264fbd" target="_top" xlink:title="FrontEnd.ArrowKeyHandler.make\lInstruction">
<polygon fill="white" stroke="black" points="451,-0 451,-30 623,-30 623,-0 451,-0"/>
<text text-anchor="start" x="459" y="-18" font-family="Helvetica,sans-Serif" font-size="10.00">FrontEnd.ArrowKeyHandler.make</text>
<text text-anchor="middle" x="537" y="-7" font-family="Helvetica,sans-Serif" font-size="10.00">Instruction</text>
</a>
</g>
</g>
<!-- Node32&#45;&gt;Node33 -->
<g id="edge37" class="edge"><title>Node32&#45;&gt;Node33</title>
<path fill="none" stroke="midnightblue" d="M334.789,-42.4716C367.048,-38.0673 405.863,-32.7679 440.759,-28.0034"/>
<polygon fill="midnightblue" stroke="midnightblue" points="441.534,-31.4302 450.968,-26.6095 440.587,-24.4945 441.534,-31.4302"/>
</g>
<!-- Node34 -->
<g id="node34" class="node"><title>Node34</title>
<g id="a_node34"><a xlink:href="../../de/d36/class_front_end_commands_1_1_super_command.html#aaaa8e1fd7d4e08c149fd33ecd4b48980" target="_top" xlink:title="FrontEndCommands.SuperCommand.change">
<polygon fill="white" stroke="black" points="420,-49.5 420,-68.5 654,-68.5 654,-49.5 420,-49.5"/>
<text text-anchor="middle" x="537" y="-56.5" font-family="Helvetica,sans-Serif" font-size="10.00">FrontEndCommands.SuperCommand.change</text>
</a>
</g>
</g>
<!-- Node32&#45;&gt;Node34 -->
<g id="edge38" class="edge"><title>Node32&#45;&gt;Node34</title>
<path fill="none" stroke="midnightblue" d="M357.126,-54.3796C373.93,-54.8137 391.728,-55.2734 409.327,-55.728"/>
<polygon fill="midnightblue" stroke="midnightblue" points="409.569,-59.2353 419.656,-55.9948 409.75,-52.2377 409.569,-59.2353"/>
</g>
</g>
</svg>
        <g id="navigator" transform="translate(0 0)" fill="#404254">
                <rect fill="#f2f5e9" fill-opacity="0.5" stroke="#606060" stroke-width=".5" x="0" y="0" width="60" height="60"/>
                <use id="zoomplus" xlink:href="#zoomPlus" x="17" y="9" onmousedown="handleZoom(evt,'in')"/>
                <use id="zoomminus" xlink:href="#zoomMin" x="42" y="9" onmousedown="handleZoom(evt,'out')"/>
                <use id="reset" xlink:href="#resetDef" x="30" y="36" onmousedown="handleReset()"/>
                <g id="arrowUp" xlink:href="#dirArrow" transform="translate(30 24)" onmousedown="handlePan(0,-1)">
                  <use xlink:href="#rim" fill="#404040">
                        <set attributeName="fill" to="#808080" begin="arrowUp.mouseover" end="arrowUp.mouseout"/>
                  </use>
                  <path fill="none" stroke="white" stroke-width="1.5" d="M0,-3.0v7 M-2.5,-0.5L0,-3.0L2.5,-0.5"/>
                </g>
                <g id="arrowRight" xlink:href="#dirArrow" transform="rotate(90) translate(36 -43)" onmousedown="handlePan(1,0)">
                  <use xlink:href="#rim" fill="#404040">
                        <set attributeName="fill" to="#808080" begin="arrowRight.mouseover" end="arrowRight.mouseout"/>
                  </use>
                  <path fill="none" stroke="white" stroke-width="1.5" d="M0,-3.0v7 M-2.5,-0.5L0,-3.0L2.5,-0.5"/>
                </g>
                <g id="arrowDown" xlink:href="#dirArrow" transform="rotate(180) translate(-30 -48)" onmousedown="handlePan(0,1)">
                  <use xlink:href="#rim" fill="#404040">
                        <set attributeName="fill" to="#808080" begin="arrowDown.mouseover" end="arrowDown.mouseout"/>
                  </use>
                  <path fill="none" stroke="white" stroke-width="1.5" d="M0,-3.0v7 M-2.5,-0.5L0,-3.0L2.5,-0.5"/>
                </g>
                <g id="arrowLeft" xlink:href="#dirArrow" transform="rotate(270) translate(-36 17)" onmousedown="handlePan(-1,0)">
                  <use xlink:href="#rim" fill="#404040">
                        <set attributeName="fill" to="#808080" begin="arrowLeft.mouseover" end="arrowLeft.mouseout"/>
                  </use>
                  <path fill="none" stroke="white" stroke-width="1.5" d="M0,-3.0v7 M-2.5,-0.5L0,-3.0L2.5,-0.5"/>
                </g>
        </g>
        <svg viewBox="0 0 15 15" width="100%" height="30px" preserveAspectRatio="xMaxYMin meet">
         <g id="arrow_out" transform="scale(0.3 0.3)">
          <a xlink:href="class_front_end_1_1_view_a079d7e899ded516b169dc6e66da79e1e_cgraph_org.svg" target="_base">
           <rect id="button" ry="5" rx="5" y="6" x="6" height="38" width="38"
                fill="#f2f5e9" fill-opacity="0.5" stroke="#606060" stroke-width="1.0"/>
           <path id="arrow"
             d="M 11.500037,31.436501 C 11.940474,20.09759 22.043105,11.32322 32.158766,21.979434 L 37.068811,17.246167 C 37.068811,17.246167 37.088388,32 37.088388,32 L 22.160133,31.978069 C 22.160133,31.978069 26.997745,27.140456 26.997745,27.140456 C 18.528582,18.264221 13.291696,25.230495 11.500037,31.436501 z"
             style="fill:#404040;"/>
          </a>
         </g>
        </svg>
</svg>
