<?xml version="1.0" encoding="UTF-8" standalone="no"?>
<!DOCTYPE svg PUBLIC "-//W3C//DTD SVG 1.1//EN"
 "http://www.w3.org/Graphics/SVG/1.1/DTD/svg11.dtd">
<!-- Generated by graphviz version 2.36.0 (20140111.2315)
 -->
<!-- Title: FrontEnd.View.getTurtleWindow Pages: 1 -->
<svg width="920pt" height="77pt"
 viewBox="0.00 0.00 920.00 77.00" xmlns="http://www.w3.org/2000/svg" xmlns:xlink="http://www.w3.org/1999/xlink">
<g id="graph0" class="graph" transform="scale(1 1) rotate(0) translate(4 73)">
<title>FrontEnd.View.getTurtleWindow</title>
<polygon fill="white" stroke="none" points="-4,4 -4,-73 916,-73 916,4 -4,4"/>
<!-- Node1 -->
<g id="node1" class="node"><title>Node1</title>
<polygon fill="#bfbfbf" stroke="black" points="0,-27.5 0,-46.5 162,-46.5 162,-27.5 0,-27.5"/>
<text text-anchor="middle" x="81" y="-34.5" font-family="Helvetica,sans-Serif" font-size="10.00">FrontEnd.View.getTurtleWindow</text>
</g>
<!-- Node2 -->
<g id="node2" class="node"><title>Node2</title>
<g id="a_node2"><a xlink:href="../../dd/d2e/class_front_end_1_1_controller.html#a9d49151f1888c4a25b89c3d2f9504fda" target="_top" xlink:title="FrontEnd.Controller.Controller">
<polygon fill="white" stroke="black" points="228.5,-49.5 228.5,-68.5 385.5,-68.5 385.5,-49.5 228.5,-49.5"/>
<text text-anchor="middle" x="307" y="-56.5" font-family="Helvetica,sans-Serif" font-size="10.00">FrontEnd.Controller.Controller</text>
</a>
</g>
</g>
<!-- Node1&#45;&gt;Node2 -->
<g id="edge1" class="edge"><title>Node1&#45;&gt;Node2</title>
<path fill="none" stroke="midnightblue" d="M172.41,-45.8795C190.897,-47.6952 210.2,-49.5911 228.2,-51.3589"/>
<polygon fill="midnightblue" stroke="midnightblue" points="172.531,-42.3747 162.236,-44.8804 171.846,-49.3411 172.531,-42.3747"/>
</g>
<!-- Node3 -->
<g id="node3" class="node"><title>Node3</title>
<g id="a_node3"><a xlink:href="../../df/d9f/class_front_end_commands_1_1_save_workspace.html#addc4984b8014f4063d1f4a0fdda84667" target="_top" xlink:title="FrontEndCommands.SaveWorkspace.write\lSettingsToFile">
<polygon fill="white" stroke="black" points="198,-0 198,-30 416,-30 416,-0 198,-0"/>
<text text-anchor="start" x="206" y="-18" font-family="Helvetica,sans-Serif" font-size="10.00">FrontEndCommands.SaveWorkspace.write</text>
<text text-anchor="middle" x="307" y="-7" font-family="Helvetica,sans-Serif" font-size="10.00">SettingsToFile</text>
</a>
</g>
</g>
<!-- Node1&#45;&gt;Node3 -->
<g id="edge2" class="edge"><title>Node1&#45;&gt;Node3</title>
<path fill="none" stroke="midnightblue" d="M172.362,-28.1252C180.742,-27.3021 189.29,-26.4626 197.809,-25.6259"/>
<polygon fill="midnightblue" stroke="midnightblue" points="171.846,-24.6589 162.236,-29.1196 172.531,-31.6253 171.846,-24.6589"/>
</g>
<!-- Node4 -->
<g id="node4" class="node"><title>Node4</title>
<g id="a_node4"><a xlink:href="../../df/d9f/class_front_end_commands_1_1_save_workspace.html#a16a3847164059949f1b20569273f9caf" target="_top" xlink:title="FrontEndCommands.SaveWorkspace.handle">
<polygon fill="white" stroke="black" points="452.5,-5.5 452.5,-24.5 679.5,-24.5 679.5,-5.5 452.5,-5.5"/>
<text text-anchor="middle" x="566" y="-12.5" font-family="Helvetica,sans-Serif" font-size="10.00">FrontEndCommands.SaveWorkspace.handle</text>
</a>
</g>
</g>
<!-- Node3&#45;&gt;Node4 -->
<g id="edge3" class="edge"><title>Node3&#45;&gt;Node4</title>
<path fill="none" stroke="midnightblue" d="M426.363,-15C435.014,-15 443.726,-15 452.342,-15"/>
<polygon fill="midnightblue" stroke="midnightblue" points="426.246,-11.5001 416.246,-15 426.246,-18.5001 426.246,-11.5001"/>
</g>
<!-- Node5 -->
<g id="node5" class="node"><title>Node5</title>
<g id="a_node5"><a xlink:href="../../df/d9f/class_front_end_commands_1_1_save_workspace.html#aecb7b65f2e50a9a48f96459bdb56fe2a" target="_top" xlink:title="FrontEndCommands.SaveWorkspace.\lSaveWorkspace">
<polygon fill="white" stroke="black" points="716.5,-0 716.5,-30 911.5,-30 911.5,-0 716.5,-0"/>
<text text-anchor="start" x="724.5" y="-18" font-family="Helvetica,sans-Serif" font-size="10.00">FrontEndCommands.SaveWorkspace.</text>
<text text-anchor="middle" x="814" y="-7" font-family="Helvetica,sans-Serif" font-size="10.00">SaveWorkspace</text>
</a>
</g>
</g>
<!-- Node4&#45;&gt;Node5 -->
<g id="edge4" class="edge"><title>Node4&#45;&gt;Node5</title>
<path fill="none" stroke="midnightblue" d="M689.649,-15C698.594,-15 707.541,-15 716.302,-15"/>
<polygon fill="midnightblue" stroke="midnightblue" points="689.561,-11.5001 679.561,-15 689.561,-18.5001 689.561,-11.5001"/>
</g>
</g>
</svg>
