<?xml version="1.0" encoding="UTF-8" standalone="no"?>
<!DOCTYPE svg PUBLIC "-//W3C//DTD SVG 1.1//EN"
 "http://www.w3.org/Graphics/SVG/1.1/DTD/svg11.dtd">
<!-- Generated by graphviz version 2.36.0 (20140111.2315)
 -->
<!-- Title: FrontEnd.View.addHistoryEntry Pages: 1 -->
<svg width="540pt" height="38pt"
 viewBox="0.00 0.00 540.00 38.00" xmlns="http://www.w3.org/2000/svg" xmlns:xlink="http://www.w3.org/1999/xlink">
<g id="graph0" class="graph" transform="scale(1 1) rotate(0) translate(4 34)">
<title>FrontEnd.View.addHistoryEntry</title>
<polygon fill="white" stroke="none" points="-4,4 -4,-34 536,-34 536,4 -4,4"/>
<!-- Node1 -->
<g id="node1" class="node"><title>Node1</title>
<polygon fill="#bfbfbf" stroke="black" points="0.5,-0 0.5,-30 137.5,-30 137.5,-0 0.5,-0"/>
<text text-anchor="start" x="8.5" y="-18" font-family="Helvetica,sans-Serif" font-size="10.00">FrontEnd.View.addHistory</text>
<text text-anchor="middle" x="69" y="-7" font-family="Helvetica,sans-Serif" font-size="10.00">Entry</text>
</g>
<!-- Node2 -->
<g id="node2" class="node"><title>Node2</title>
<g id="a_node2"><a xlink:href="../../d4/d1b/class_front_end_1_1_history_box.html#a64947a52c0dbe236075698aab3d181dc" target="_top" xlink:title="FrontEnd.HistoryBox.addEntry">
<polygon fill="white" stroke="black" points="174.5,-5.5 174.5,-24.5 333.5,-24.5 333.5,-5.5 174.5,-5.5"/>
<text text-anchor="middle" x="254" y="-12.5" font-family="Helvetica,sans-Serif" font-size="10.00">FrontEnd.HistoryBox.addEntry</text>
</a>
</g>
</g>
<!-- Node1&#45;&gt;Node2 -->
<g id="edge1" class="edge"><title>Node1&#45;&gt;Node2</title>
<path fill="none" stroke="midnightblue" d="M137.623,-15C146.278,-15 155.239,-15 164.167,-15"/>
<polygon fill="midnightblue" stroke="midnightblue" points="164.214,-18.5001 174.214,-15 164.214,-11.5001 164.214,-18.5001"/>
</g>
<!-- Node3 -->
<g id="node3" class="node"><title>Node3</title>
<g id="a_node3"><a xlink:href="../../de/d8a/class_front_end_1_1_user_commands.html#af04d6a5776faf7e2e99bdae3100a6add" target="_top" xlink:title="FrontEnd.UserCommands.add\lCommand">
<polygon fill="white" stroke="black" points="370.5,-0 370.5,-30 531.5,-30 531.5,-0 370.5,-0"/>
<text text-anchor="start" x="378.5" y="-18" font-family="Helvetica,sans-Serif" font-size="10.00">FrontEnd.UserCommands.add</text>
<text text-anchor="middle" x="451" y="-7" font-family="Helvetica,sans-Serif" font-size="10.00">Command</text>
</a>
</g>
</g>
<!-- Node2&#45;&gt;Node3 -->
<g id="edge2" class="edge"><title>Node2&#45;&gt;Node3</title>
<path fill="none" stroke="midnightblue" d="M333.752,-15C342.413,-15 351.279,-15 360.063,-15"/>
<polygon fill="midnightblue" stroke="midnightblue" points="360.319,-18.5001 370.319,-15 360.319,-11.5001 360.319,-18.5001"/>
</g>
</g>
</svg>
