<?xml version="1.0" encoding="UTF-8" standalone="no"?>
<!DOCTYPE svg PUBLIC "-//W3C//DTD SVG 1.1//EN"
 "http://www.w3.org/Graphics/SVG/1.1/DTD/svg11.dtd">
<!-- Generated by graphviz version 2.36.0 (20140111.2315)
 -->
<!-- Title: FrontEnd.View.getMyTurtleImageBox Pages: 1 -->
<svg width="888pt" height="38pt"
 viewBox="0.00 0.00 888.00 38.00" xmlns="http://www.w3.org/2000/svg" xmlns:xlink="http://www.w3.org/1999/xlink">
<g id="graph0" class="graph" transform="scale(1 1) rotate(0) translate(4 34)">
<title>FrontEnd.View.getMyTurtleImageBox</title>
<polygon fill="white" stroke="none" points="-4,4 -4,-34 884,-34 884,4 -4,4"/>
<!-- Node1 -->
<g id="node1" class="node"><title>Node1</title>
<polygon fill="#bfbfbf" stroke="black" points="0,-0 0,-30 140,-30 140,-0 0,-0"/>
<text text-anchor="start" x="8" y="-18" font-family="Helvetica,sans-Serif" font-size="10.00">FrontEnd.View.getMyTurtle</text>
<text text-anchor="middle" x="70" y="-7" font-family="Helvetica,sans-Serif" font-size="10.00">ImageBox</text>
</g>
<!-- Node2 -->
<g id="node2" class="node"><title>Node2</title>
<g id="a_node2"><a xlink:href="../../d8/da4/class_front_end_commands_1_1_load_workspace.html#a085f7d78419f925a9cb7832f575cf221" target="_top" xlink:title="FrontEndCommands.LoadWorkspace.get\lSettingsFromFile">
<polygon fill="white" stroke="black" points="176,-0 176,-30 386,-30 386,-0 176,-0"/>
<text text-anchor="start" x="184" y="-18" font-family="Helvetica,sans-Serif" font-size="10.00">FrontEndCommands.LoadWorkspace.get</text>
<text text-anchor="middle" x="281" y="-7" font-family="Helvetica,sans-Serif" font-size="10.00">SettingsFromFile</text>
</a>
</g>
</g>
<!-- Node1&#45;&gt;Node2 -->
<g id="edge1" class="edge"><title>Node1&#45;&gt;Node2</title>
<path fill="none" stroke="midnightblue" d="M150.163,-15C158.592,-15 167.256,-15 175.915,-15"/>
<polygon fill="midnightblue" stroke="midnightblue" points="150.014,-11.5001 140.014,-15 150.014,-18.5001 150.014,-11.5001"/>
</g>
<!-- Node3 -->
<g id="node3" class="node"><title>Node3</title>
<g id="a_node3"><a xlink:href="../../d8/da4/class_front_end_commands_1_1_load_workspace.html#a8d25efaea29f2543991a3efce2a1c0f6" target="_top" xlink:title="FrontEndCommands.LoadWorkspace.handle">
<polygon fill="white" stroke="black" points="422.5,-5.5 422.5,-24.5 649.5,-24.5 649.5,-5.5 422.5,-5.5"/>
<text text-anchor="middle" x="536" y="-12.5" font-family="Helvetica,sans-Serif" font-size="10.00">FrontEndCommands.LoadWorkspace.handle</text>
</a>
</g>
</g>
<!-- Node2&#45;&gt;Node3 -->
<g id="edge2" class="edge"><title>Node2&#45;&gt;Node3</title>
<path fill="none" stroke="midnightblue" d="M396.176,-8.27856C404.883,-8.23809 413.669,-8.24063 422.367,-8.28618"/>
<polygon fill="midnightblue" stroke="midnightblue" points="395.977,-4.7797 386,-8.34581 396.023,-11.7795 395.977,-4.7797"/>
</g>
<!-- Node3&#45;&gt;Node2 -->
<g id="edge4" class="edge"><title>Node3&#45;&gt;Node2</title>
<path fill="none" stroke="midnightblue" d="M412.126,-21.7475C403.385,-21.7594 394.62,-21.7283 386,-21.6542"/>
<polygon fill="midnightblue" stroke="midnightblue" points="412.379,-25.2468 422.367,-21.7138 412.356,-18.2469 412.379,-25.2468"/>
</g>
<!-- Node4 -->
<g id="node4" class="node"><title>Node4</title>
<g id="a_node4"><a xlink:href="../../d8/da4/class_front_end_commands_1_1_load_workspace.html#ac3c90bf92d48930f076d277acd611bfc" target="_top" xlink:title="FrontEndCommands.LoadWorkspace.\lLoadWorkspace">
<polygon fill="white" stroke="black" points="686,-0 686,-30 880,-30 880,-0 686,-0"/>
<text text-anchor="start" x="694" y="-18" font-family="Helvetica,sans-Serif" font-size="10.00">FrontEndCommands.LoadWorkspace.</text>
<text text-anchor="middle" x="783" y="-7" font-family="Helvetica,sans-Serif" font-size="10.00">LoadWorkspace</text>
</a>
</g>
</g>
<!-- Node3&#45;&gt;Node4 -->
<g id="edge3" class="edge"><title>Node3&#45;&gt;Node4</title>
<path fill="none" stroke="midnightblue" d="M660.011,-15C668.701,-15 677.387,-15 685.895,-15"/>
<polygon fill="midnightblue" stroke="midnightblue" points="659.819,-11.5001 649.819,-15 659.819,-18.5001 659.819,-11.5001"/>
</g>
</g>
</svg>
