<?xml version="1.0" encoding="UTF-8" standalone="no"?>
<!DOCTYPE svg PUBLIC "-//W3C//DTD SVG 1.1//EN"
 "http://www.w3.org/Graphics/SVG/1.1/DTD/svg11.dtd">
<!-- Generated by graphviz version 2.36.0 (20140111.2315)
 -->
<!-- Title: FrontEnd.View.getMyBackgroundColorBox Pages: 1 -->
<svg width="930pt" height="87pt"
 viewBox="0.00 0.00 930.00 87.00" xmlns="http://www.w3.org/2000/svg" xmlns:xlink="http://www.w3.org/1999/xlink">
<g id="graph0" class="graph" transform="scale(1 1) rotate(0) translate(4 83)">
<title>FrontEnd.View.getMyBackgroundColorBox</title>
<polygon fill="white" stroke="none" points="-4,4 -4,-83 926,-83 926,4 -4,4"/>
<!-- Node1 -->
<g id="node1" class="node"><title>Node1</title>
<polygon fill="#bfbfbf" stroke="black" points="0,-24 0,-54 172,-54 172,-24 0,-24"/>
<text text-anchor="start" x="8" y="-42" font-family="Helvetica,sans-Serif" font-size="10.00">FrontEnd.View.getMyBackground</text>
<text text-anchor="middle" x="86" y="-31" font-family="Helvetica,sans-Serif" font-size="10.00">ColorBox</text>
</g>
<!-- Node2 -->
<g id="node2" class="node"><title>Node2</title>
<g id="a_node2"><a xlink:href="../../d8/da4/class_front_end_commands_1_1_load_workspace.html#a085f7d78419f925a9cb7832f575cf221" target="_top" xlink:title="FrontEndCommands.LoadWorkspace.get\lSettingsFromFile">
<polygon fill="white" stroke="black" points="212,-49 212,-79 422,-79 422,-49 212,-49"/>
<text text-anchor="start" x="220" y="-67" font-family="Helvetica,sans-Serif" font-size="10.00">FrontEndCommands.LoadWorkspace.get</text>
<text text-anchor="middle" x="317" y="-56" font-family="Helvetica,sans-Serif" font-size="10.00">SettingsFromFile</text>
</a>
</g>
</g>
<!-- Node1&#45;&gt;Node2 -->
<g id="edge1" class="edge"><title>Node1&#45;&gt;Node2</title>
<path fill="none" stroke="midnightblue" d="M182.298,-49.4037C191.996,-50.4625 201.884,-51.5419 211.672,-52.6105"/>
<polygon fill="midnightblue" stroke="midnightblue" points="182.592,-45.9151 172.271,-48.3091 181.832,-52.8737 182.592,-45.9151"/>
</g>
<!-- Node5 -->
<g id="node5" class="node"><title>Node5</title>
<g id="a_node5"><a xlink:href="../../df/d9f/class_front_end_commands_1_1_save_workspace.html#addc4984b8014f4063d1f4a0fdda84667" target="_top" xlink:title="FrontEndCommands.SaveWorkspace.write\lSettingsToFile">
<polygon fill="white" stroke="black" points="208,-0 208,-30 426,-30 426,-0 208,-0"/>
<text text-anchor="start" x="216" y="-18" font-family="Helvetica,sans-Serif" font-size="10.00">FrontEndCommands.SaveWorkspace.write</text>
<text text-anchor="middle" x="317" y="-7" font-family="Helvetica,sans-Serif" font-size="10.00">SettingsToFile</text>
</a>
</g>
</g>
<!-- Node1&#45;&gt;Node5 -->
<g id="edge5" class="edge"><title>Node1&#45;&gt;Node5</title>
<path fill="none" stroke="midnightblue" d="M182.401,-29.0017C190.772,-28.1243 199.284,-27.2322 207.75,-26.345"/>
<polygon fill="midnightblue" stroke="midnightblue" points="181.852,-25.5399 172.271,-30.0633 182.582,-32.5018 181.852,-25.5399"/>
</g>
<!-- Node3 -->
<g id="node3" class="node"><title>Node3</title>
<g id="a_node3"><a xlink:href="../../d8/da4/class_front_end_commands_1_1_load_workspace.html#a8d25efaea29f2543991a3efce2a1c0f6" target="_top" xlink:title="FrontEndCommands.LoadWorkspace.handle">
<polygon fill="white" stroke="black" points="462.5,-54.5 462.5,-73.5 689.5,-73.5 689.5,-54.5 462.5,-54.5"/>
<text text-anchor="middle" x="576" y="-61.5" font-family="Helvetica,sans-Serif" font-size="10.00">FrontEndCommands.LoadWorkspace.handle</text>
</a>
</g>
</g>
<!-- Node2&#45;&gt;Node3 -->
<g id="edge2" class="edge"><title>Node2&#45;&gt;Node3</title>
<path fill="none" stroke="midnightblue" d="M432.446,-57.286C442.364,-57.235 452.395,-57.2382 462.299,-57.2956"/>
<polygon fill="midnightblue" stroke="midnightblue" points="432.136,-53.788 422.161,-57.3588 432.186,-60.7878 432.136,-53.788"/>
</g>
<!-- Node3&#45;&gt;Node2 -->
<g id="edge4" class="edge"><title>Node3&#45;&gt;Node2</title>
<path fill="none" stroke="midnightblue" d="M452.256,-70.744C442.189,-70.7651 432.075,-70.7308 422.161,-70.6412"/>
<polygon fill="midnightblue" stroke="midnightblue" points="452.313,-74.2439 462.299,-70.7044 452.285,-67.2439 452.313,-74.2439"/>
</g>
<!-- Node4 -->
<g id="node4" class="node"><title>Node4</title>
<g id="a_node4"><a xlink:href="../../d8/da4/class_front_end_commands_1_1_load_workspace.html#ac3c90bf92d48930f076d277acd611bfc" target="_top" xlink:title="FrontEndCommands.LoadWorkspace.\lLoadWorkspace">
<polygon fill="white" stroke="black" points="727,-49 727,-79 921,-79 921,-49 727,-49"/>
<text text-anchor="start" x="735" y="-67" font-family="Helvetica,sans-Serif" font-size="10.00">FrontEndCommands.LoadWorkspace.</text>
<text text-anchor="middle" x="824" y="-56" font-family="Helvetica,sans-Serif" font-size="10.00">LoadWorkspace</text>
</a>
</g>
</g>
<!-- Node3&#45;&gt;Node4 -->
<g id="edge3" class="edge"><title>Node3&#45;&gt;Node4</title>
<path fill="none" stroke="midnightblue" d="M699.753,-64C708.79,-64 717.829,-64 726.675,-64"/>
<polygon fill="midnightblue" stroke="midnightblue" points="699.561,-60.5001 689.561,-64 699.561,-67.5001 699.561,-60.5001"/>
</g>
<!-- Node6 -->
<g id="node6" class="node"><title>Node6</title>
<g id="a_node6"><a xlink:href="../../df/d9f/class_front_end_commands_1_1_save_workspace.html#a16a3847164059949f1b20569273f9caf" target="_top" xlink:title="FrontEndCommands.SaveWorkspace.handle">
<polygon fill="white" stroke="black" points="462.5,-5.5 462.5,-24.5 689.5,-24.5 689.5,-5.5 462.5,-5.5"/>
<text text-anchor="middle" x="576" y="-12.5" font-family="Helvetica,sans-Serif" font-size="10.00">FrontEndCommands.SaveWorkspace.handle</text>
</a>
</g>
</g>
<!-- Node5&#45;&gt;Node6 -->
<g id="edge6" class="edge"><title>Node5&#45;&gt;Node6</title>
<path fill="none" stroke="midnightblue" d="M436.363,-15C445.014,-15 453.726,-15 462.342,-15"/>
<polygon fill="midnightblue" stroke="midnightblue" points="436.246,-11.5001 426.246,-15 436.246,-18.5001 436.246,-11.5001"/>
</g>
<!-- Node7 -->
<g id="node7" class="node"><title>Node7</title>
<g id="a_node7"><a xlink:href="../../df/d9f/class_front_end_commands_1_1_save_workspace.html#aecb7b65f2e50a9a48f96459bdb56fe2a" target="_top" xlink:title="FrontEndCommands.SaveWorkspace.\lSaveWorkspace">
<polygon fill="white" stroke="black" points="726.5,-0 726.5,-30 921.5,-30 921.5,-0 726.5,-0"/>
<text text-anchor="start" x="734.5" y="-18" font-family="Helvetica,sans-Serif" font-size="10.00">FrontEndCommands.SaveWorkspace.</text>
<text text-anchor="middle" x="824" y="-7" font-family="Helvetica,sans-Serif" font-size="10.00">SaveWorkspace</text>
</a>
</g>
</g>
<!-- Node6&#45;&gt;Node7 -->
<g id="edge7" class="edge"><title>Node6&#45;&gt;Node7</title>
<path fill="none" stroke="midnightblue" d="M699.649,-15C708.594,-15 717.541,-15 726.302,-15"/>
<polygon fill="midnightblue" stroke="midnightblue" points="699.561,-11.5001 689.561,-15 699.561,-18.5001 699.561,-11.5001"/>
</g>
</g>
</svg>
