<?xml version="1.0" encoding="UTF-8" standalone="no"?>
<!DOCTYPE svg PUBLIC "-//W3C//DTD SVG 1.1//EN"
 "http://www.w3.org/Graphics/SVG/1.1/DTD/svg11.dtd">
<!-- Generated by graphviz version 2.36.0 (20140111.2315)
 -->
<!-- Title: FrontEnd.View.addConsoleEntries Pages: 1 -->
<svg width="704pt" height="38pt"
 viewBox="0.00 0.00 704.00 38.00" xmlns="http://www.w3.org/2000/svg" xmlns:xlink="http://www.w3.org/1999/xlink">
<g id="graph0" class="graph" transform="scale(1 1) rotate(0) translate(4 34)">
<title>FrontEnd.View.addConsoleEntries</title>
<polygon fill="white" stroke="none" points="-4,4 -4,-34 700,-34 700,4 -4,4"/>
<!-- Node1 -->
<g id="node1" class="node"><title>Node1</title>
<polygon fill="#bfbfbf" stroke="black" points="0,-0 0,-30 142,-30 142,-0 0,-0"/>
<text text-anchor="start" x="8" y="-18" font-family="Helvetica,sans-Serif" font-size="10.00">FrontEnd.View.addConsole</text>
<text text-anchor="middle" x="71" y="-7" font-family="Helvetica,sans-Serif" font-size="10.00">Entries</text>
</g>
<!-- Node2 -->
<g id="node2" class="node"><title>Node2</title>
<g id="a_node2"><a xlink:href="../../dd/d2e/class_front_end_1_1_controller.html#a0ad45a00bc5c4475d3b1c6a4dbf74a91" target="_top" xlink:title="FrontEnd.Controller.interpret">
<polygon fill="white" stroke="black" points="178,-5.5 178,-24.5 330,-24.5 330,-5.5 178,-5.5"/>
<text text-anchor="middle" x="254" y="-12.5" font-family="Helvetica,sans-Serif" font-size="10.00">FrontEnd.Controller.interpret</text>
</a>
</g>
</g>
<!-- Node1&#45;&gt;Node2 -->
<g id="edge1" class="edge"><title>Node1&#45;&gt;Node2</title>
<path fill="none" stroke="midnightblue" d="M152.419,-15C160.829,-15 169.356,-15 177.706,-15"/>
<polygon fill="midnightblue" stroke="midnightblue" points="152.238,-11.5001 142.238,-15 152.238,-18.5001 152.238,-11.5001"/>
</g>
<!-- Node3 -->
<g id="node3" class="node"><title>Node3</title>
<g id="a_node3"><a xlink:href="../../dd/d2e/class_front_end_1_1_controller.html#a41885f349a8f334750e26d685a8981d2" target="_top" xlink:title="FrontEnd.Controller.execute\lCommand">
<polygon fill="white" stroke="black" points="366.5,-0 366.5,-30 515.5,-30 515.5,-0 366.5,-0"/>
<text text-anchor="start" x="374.5" y="-18" font-family="Helvetica,sans-Serif" font-size="10.00">FrontEnd.Controller.execute</text>
<text text-anchor="middle" x="441" y="-7" font-family="Helvetica,sans-Serif" font-size="10.00">Command</text>
</a>
</g>
</g>
<!-- Node2&#45;&gt;Node3 -->
<g id="edge2" class="edge"><title>Node2&#45;&gt;Node3</title>
<path fill="none" stroke="midnightblue" d="M340.366,-15C349.035,-15 357.788,-15 366.318,-15"/>
<polygon fill="midnightblue" stroke="midnightblue" points="340.247,-11.5001 330.247,-15 340.247,-18.5001 340.247,-11.5001"/>
</g>
<!-- Node4 -->
<g id="node4" class="node"><title>Node4</title>
<g id="a_node4"><a xlink:href="../../dd/d2e/class_front_end_1_1_controller.html#a29be9ff259428dbe97eebe3ec9a13ac5" target="_top" xlink:title="FrontEnd.Controller.update">
<polygon fill="white" stroke="black" points="552,-5.5 552,-24.5 696,-24.5 696,-5.5 552,-5.5"/>
<text text-anchor="middle" x="624" y="-12.5" font-family="Helvetica,sans-Serif" font-size="10.00">FrontEnd.Controller.update</text>
</a>
</g>
</g>
<!-- Node3&#45;&gt;Node4 -->
<g id="edge3" class="edge"><title>Node3&#45;&gt;Node4</title>
<path fill="none" stroke="midnightblue" d="M525.771,-15C534.468,-15 543.249,-15 551.789,-15"/>
<polygon fill="midnightblue" stroke="midnightblue" points="525.62,-11.5001 515.62,-15 525.62,-18.5001 525.62,-11.5001"/>
</g>
</g>
</svg>
