<?xml version="1.0" encoding="UTF-8" standalone="no"?>
<!DOCTYPE svg PUBLIC "-//W3C//DTD SVG 1.1//EN"
 "http://www.w3.org/Graphics/SVG/1.1/DTD/svg11.dtd">
<!-- Generated by graphviz version 2.36.0 (20140111.2315)
 -->
<!-- Title: FrontEndCommands.SaveWorkspace.SaveWorkspace Pages: 1 -->
<svg width="958pt" height="224pt"
 viewBox="0.00 0.00 958.00 224.00" xmlns="http://www.w3.org/2000/svg" xmlns:xlink="http://www.w3.org/1999/xlink">
<g id="graph0" class="graph" transform="scale(1 1) rotate(0) translate(4 220)">
<title>FrontEndCommands.SaveWorkspace.SaveWorkspace</title>
<polygon fill="white" stroke="none" points="-4,4 -4,-220 954,-220 954,4 -4,4"/>
<!-- Node1 -->
<g id="node1" class="node"><title>Node1</title>
<polygon fill="#bfbfbf" stroke="black" points="0.5,-110 0.5,-140 195.5,-140 195.5,-110 0.5,-110"/>
<text text-anchor="start" x="8.5" y="-128" font-family="Helvetica,sans-Serif" font-size="10.00">FrontEndCommands.SaveWorkspace.</text>
<text text-anchor="middle" x="98" y="-117" font-family="Helvetica,sans-Serif" font-size="10.00">SaveWorkspace</text>
</g>
<!-- Node2 -->
<g id="node2" class="node"><title>Node2</title>
<g id="a_node2"><a xlink:href="../../df/d9f/class_front_end_commands_1_1_save_workspace.html#a16a3847164059949f1b20569273f9caf" target="_top" xlink:title="FrontEndCommands.SaveWorkspace.handle">
<polygon fill="white" stroke="black" points="232.5,-115.5 232.5,-134.5 459.5,-134.5 459.5,-115.5 232.5,-115.5"/>
<text text-anchor="middle" x="346" y="-122.5" font-family="Helvetica,sans-Serif" font-size="10.00">FrontEndCommands.SaveWorkspace.handle</text>
</a>
</g>
</g>
<!-- Node1&#45;&gt;Node2 -->
<g id="edge1" class="edge"><title>Node1&#45;&gt;Node2</title>
<path fill="none" stroke="midnightblue" d="M195.52,-125C204.322,-125 213.314,-125 222.303,-125"/>
<polygon fill="midnightblue" stroke="midnightblue" points="222.442,-128.5 232.442,-125 222.442,-121.5 222.442,-128.5"/>
</g>
<!-- Node3 -->
<g id="node3" class="node"><title>Node3</title>
<g id="a_node3"><a xlink:href="../../df/d9f/class_front_end_commands_1_1_save_workspace.html#a0e2a9f767a56d0e599188721b7ef9a56" target="_top" xlink:title="FrontEndCommands.SaveWorkspace.chooseFile">
<polygon fill="white" stroke="black" points="496.5,-137.5 496.5,-156.5 741.5,-156.5 741.5,-137.5 496.5,-137.5"/>
<text text-anchor="middle" x="619" y="-144.5" font-family="Helvetica,sans-Serif" font-size="10.00">FrontEndCommands.SaveWorkspace.chooseFile</text>
</a>
</g>
</g>
<!-- Node2&#45;&gt;Node3 -->
<g id="edge2" class="edge"><title>Node2&#45;&gt;Node3</title>
<path fill="none" stroke="midnightblue" d="M459.574,-134.139C469.933,-134.98 480.477,-135.836 490.952,-136.686"/>
<polygon fill="midnightblue" stroke="midnightblue" points="490.716,-140.178 500.967,-137.499 491.283,-133.201 490.716,-140.178"/>
</g>
<!-- Node4 -->
<g id="node4" class="node"><title>Node4</title>
<g id="a_node4"><a xlink:href="../../df/d9f/class_front_end_commands_1_1_save_workspace.html#addc4984b8014f4063d1f4a0fdda84667" target="_top" xlink:title="FrontEndCommands.SaveWorkspace.write\lSettingsToFile">
<polygon fill="white" stroke="black" points="510,-88 510,-118 728,-118 728,-88 510,-88"/>
<text text-anchor="start" x="518" y="-106" font-family="Helvetica,sans-Serif" font-size="10.00">FrontEndCommands.SaveWorkspace.write</text>
<text text-anchor="middle" x="619" y="-95" font-family="Helvetica,sans-Serif" font-size="10.00">SettingsToFile</text>
</a>
</g>
</g>
<!-- Node2&#45;&gt;Node4 -->
<g id="edge3" class="edge"><title>Node2&#45;&gt;Node4</title>
<path fill="none" stroke="midnightblue" d="M459.574,-115.861C472.785,-114.789 486.295,-113.692 499.583,-112.613"/>
<polygon fill="midnightblue" stroke="midnightblue" points="500.008,-116.09 509.692,-111.793 499.441,-109.113 500.008,-116.09"/>
</g>
<!-- Node5 -->
<g id="node5" class="node"><title>Node5</title>
<g id="a_node5"><a xlink:href="../../df/dec/class_front_end_1_1_view.html#a2812398b952d53cbb09f8e7823fca245" target="_top" xlink:title="FrontEnd.View.getLanguage\lSelector">
<polygon fill="white" stroke="black" points="789.5,-186 789.5,-216 938.5,-216 938.5,-186 789.5,-186"/>
<text text-anchor="start" x="797.5" y="-204" font-family="Helvetica,sans-Serif" font-size="10.00">FrontEnd.View.getLanguage</text>
<text text-anchor="middle" x="864" y="-193" font-family="Helvetica,sans-Serif" font-size="10.00">Selector</text>
</a>
</g>
</g>
<!-- Node4&#45;&gt;Node5 -->
<g id="edge4" class="edge"><title>Node4&#45;&gt;Node5</title>
<path fill="none" stroke="midnightblue" d="M722.414,-118.043C729.275,-120.834 735.882,-124.124 742,-128 764.527,-142.271 756.092,-160.796 778,-176 780.867,-177.99 783.893,-179.823 787.029,-181.512"/>
<polygon fill="midnightblue" stroke="midnightblue" points="785.583,-184.701 796.109,-185.901 788.629,-178.398 785.583,-184.701"/>
</g>
<!-- Node6 -->
<g id="node6" class="node"><title>Node6</title>
<g id="a_node6"><a xlink:href="../../d2/d5e/class_front_end_1_1_language_selector.html#a9638aa132b453f5dd8a2d42b87dfe377" target="_top" xlink:title="FrontEnd.LanguageSelector.get\lCurrentLanguage">
<polygon fill="white" stroke="black" points="780.5,-137 780.5,-167 947.5,-167 947.5,-137 780.5,-137"/>
<text text-anchor="start" x="788.5" y="-155" font-family="Helvetica,sans-Serif" font-size="10.00">FrontEnd.LanguageSelector.get</text>
<text text-anchor="middle" x="864" y="-144" font-family="Helvetica,sans-Serif" font-size="10.00">CurrentLanguage</text>
</a>
</g>
</g>
<!-- Node4&#45;&gt;Node6 -->
<g id="edge5" class="edge"><title>Node4&#45;&gt;Node6</title>
<path fill="none" stroke="midnightblue" d="M694.559,-118.035C721.15,-123.396 751.285,-129.473 778.641,-134.989"/>
<polygon fill="midnightblue" stroke="midnightblue" points="778.087,-138.448 788.582,-136.994 779.471,-131.586 778.087,-138.448"/>
</g>
<!-- Node7 -->
<g id="node7" class="node"><title>Node7</title>
<g id="a_node7"><a xlink:href="../../df/dec/class_front_end_1_1_view.html#a292087509c6e8a64a73dd9fbf1908864" target="_top" xlink:title="FrontEnd.View.getMyBackground\lColorBox">
<polygon fill="white" stroke="black" points="778,-88 778,-118 950,-118 950,-88 778,-88"/>
<text text-anchor="start" x="786" y="-106" font-family="Helvetica,sans-Serif" font-size="10.00">FrontEnd.View.getMyBackground</text>
<text text-anchor="middle" x="864" y="-95" font-family="Helvetica,sans-Serif" font-size="10.00">ColorBox</text>
</a>
</g>
</g>
<!-- Node4&#45;&gt;Node7 -->
<g id="edge6" class="edge"><title>Node4&#45;&gt;Node7</title>
<path fill="none" stroke="midnightblue" d="M728.353,-103C741.435,-103 754.723,-103 767.601,-103"/>
<polygon fill="midnightblue" stroke="midnightblue" points="767.828,-106.5 777.828,-103 767.828,-99.5001 767.828,-106.5"/>
</g>
<!-- Node8 -->
<g id="node8" class="node"><title>Node8</title>
<g id="a_node8"><a xlink:href="../../df/dec/class_front_end_1_1_view.html#a19e6144ef2ebaaa6035c3837b2c0cbb5" target="_top" xlink:title="FrontEnd.View.getTurtleWindow">
<polygon fill="white" stroke="black" points="783,-49.5 783,-68.5 945,-68.5 945,-49.5 783,-49.5"/>
<text text-anchor="middle" x="864" y="-56.5" font-family="Helvetica,sans-Serif" font-size="10.00">FrontEnd.View.getTurtleWindow</text>
</a>
</g>
</g>
<!-- Node4&#45;&gt;Node8 -->
<g id="edge7" class="edge"><title>Node4&#45;&gt;Node8</title>
<path fill="none" stroke="midnightblue" d="M702.947,-87.9808C734.802,-82.2129 770.6,-75.7309 800.251,-70.362"/>
<polygon fill="midnightblue" stroke="midnightblue" points="801.249,-73.7382 810.466,-68.5124 800.002,-66.8502 801.249,-73.7382"/>
</g>
<!-- Node9 -->
<g id="node9" class="node"><title>Node9</title>
<g id="a_node9"><a xlink:href="../../d4/d8a/class_turtle_view_1_1_turtle_window.html#afc4dad2127e6b5789ee20d19cd8edc75" target="_top" xlink:title="TurtleView.TurtleWindow.get\lAllTurtles">
<polygon fill="white" stroke="black" points="791.5,-0 791.5,-30 936.5,-30 936.5,-0 791.5,-0"/>
<text text-anchor="start" x="799.5" y="-18" font-family="Helvetica,sans-Serif" font-size="10.00">TurtleView.TurtleWindow.get</text>
<text text-anchor="middle" x="864" y="-7" font-family="Helvetica,sans-Serif" font-size="10.00">AllTurtles</text>
</a>
</g>
</g>
<!-- Node4&#45;&gt;Node9 -->
<g id="edge8" class="edge"><title>Node4&#45;&gt;Node9</title>
<path fill="none" stroke="midnightblue" d="M655.1,-87.9093C686.886,-74.5068 735.157,-54.8059 778,-40 784.797,-37.6512 791.946,-35.3265 799.092,-33.0955"/>
<polygon fill="midnightblue" stroke="midnightblue" points="800.267,-36.3962 808.801,-30.1178 798.214,-29.7038 800.267,-36.3962"/>
</g>
</g>
</svg>
