<?xml version="1.0" encoding="UTF-8" standalone="no"?>
<!DOCTYPE svg PUBLIC "-//W3C//DTD SVG 1.1//EN"
 "http://www.w3.org/Graphics/SVG/1.1/DTD/svg11.dtd">
<!-- Generated by graphviz version 2.36.0 (20140111.2315)
 -->
<!-- Title: FrontEndCommands.SaveWorkspace.handle Pages: 1 -->
<svg width="726pt" height="224pt"
 viewBox="0.00 0.00 726.00 224.00" xmlns="http://www.w3.org/2000/svg" xmlns:xlink="http://www.w3.org/1999/xlink">
<g id="graph0" class="graph" transform="scale(1 1) rotate(0) translate(4 220)">
<title>FrontEndCommands.SaveWorkspace.handle</title>
<polygon fill="white" stroke="none" points="-4,4 -4,-220 722,-220 722,4 -4,4"/>
<!-- Node1 -->
<g id="node1" class="node"><title>Node1</title>
<polygon fill="#bfbfbf" stroke="black" points="0.5,-115.5 0.5,-134.5 227.5,-134.5 227.5,-115.5 0.5,-115.5"/>
<text text-anchor="middle" x="114" y="-122.5" font-family="Helvetica,sans-Serif" font-size="10.00">FrontEndCommands.SaveWorkspace.handle</text>
</g>
<!-- Node2 -->
<g id="node2" class="node"><title>Node2</title>
<g id="a_node2"><a xlink:href="../../df/d9f/class_front_end_commands_1_1_save_workspace.html#a0e2a9f767a56d0e599188721b7ef9a56" target="_top" xlink:title="FrontEndCommands.SaveWorkspace.chooseFile">
<polygon fill="white" stroke="black" points="264.5,-137.5 264.5,-156.5 509.5,-156.5 509.5,-137.5 264.5,-137.5"/>
<text text-anchor="middle" x="387" y="-144.5" font-family="Helvetica,sans-Serif" font-size="10.00">FrontEndCommands.SaveWorkspace.chooseFile</text>
</a>
</g>
</g>
<!-- Node1&#45;&gt;Node2 -->
<g id="edge1" class="edge"><title>Node1&#45;&gt;Node2</title>
<path fill="none" stroke="midnightblue" d="M227.574,-134.139C237.933,-134.98 248.477,-135.836 258.952,-136.686"/>
<polygon fill="midnightblue" stroke="midnightblue" points="258.716,-140.178 268.967,-137.499 259.283,-133.201 258.716,-140.178"/>
</g>
<!-- Node3 -->
<g id="node3" class="node"><title>Node3</title>
<g id="a_node3"><a xlink:href="../../df/d9f/class_front_end_commands_1_1_save_workspace.html#addc4984b8014f4063d1f4a0fdda84667" target="_top" xlink:title="FrontEndCommands.SaveWorkspace.write\lSettingsToFile">
<polygon fill="white" stroke="black" points="278,-88 278,-118 496,-118 496,-88 278,-88"/>
<text text-anchor="start" x="286" y="-106" font-family="Helvetica,sans-Serif" font-size="10.00">FrontEndCommands.SaveWorkspace.write</text>
<text text-anchor="middle" x="387" y="-95" font-family="Helvetica,sans-Serif" font-size="10.00">SettingsToFile</text>
</a>
</g>
</g>
<!-- Node1&#45;&gt;Node3 -->
<g id="edge2" class="edge"><title>Node1&#45;&gt;Node3</title>
<path fill="none" stroke="midnightblue" d="M227.574,-115.861C240.785,-114.789 254.295,-113.692 267.583,-112.613"/>
<polygon fill="midnightblue" stroke="midnightblue" points="268.008,-116.09 277.692,-111.793 267.441,-109.113 268.008,-116.09"/>
</g>
<!-- Node4 -->
<g id="node4" class="node"><title>Node4</title>
<g id="a_node4"><a xlink:href="../../df/dec/class_front_end_1_1_view.html#a2812398b952d53cbb09f8e7823fca245" target="_top" xlink:title="FrontEnd.View.getLanguage\lSelector">
<polygon fill="white" stroke="black" points="557.5,-186 557.5,-216 706.5,-216 706.5,-186 557.5,-186"/>
<text text-anchor="start" x="565.5" y="-204" font-family="Helvetica,sans-Serif" font-size="10.00">FrontEnd.View.getLanguage</text>
<text text-anchor="middle" x="632" y="-193" font-family="Helvetica,sans-Serif" font-size="10.00">Selector</text>
</a>
</g>
</g>
<!-- Node3&#45;&gt;Node4 -->
<g id="edge3" class="edge"><title>Node3&#45;&gt;Node4</title>
<path fill="none" stroke="midnightblue" d="M490.414,-118.043C497.275,-120.834 503.882,-124.124 510,-128 532.527,-142.271 524.092,-160.796 546,-176 548.867,-177.99 551.893,-179.823 555.029,-181.512"/>
<polygon fill="midnightblue" stroke="midnightblue" points="553.583,-184.701 564.109,-185.901 556.629,-178.398 553.583,-184.701"/>
</g>
<!-- Node5 -->
<g id="node5" class="node"><title>Node5</title>
<g id="a_node5"><a xlink:href="../../d2/d5e/class_front_end_1_1_language_selector.html#a9638aa132b453f5dd8a2d42b87dfe377" target="_top" xlink:title="FrontEnd.LanguageSelector.get\lCurrentLanguage">
<polygon fill="white" stroke="black" points="548.5,-137 548.5,-167 715.5,-167 715.5,-137 548.5,-137"/>
<text text-anchor="start" x="556.5" y="-155" font-family="Helvetica,sans-Serif" font-size="10.00">FrontEnd.LanguageSelector.get</text>
<text text-anchor="middle" x="632" y="-144" font-family="Helvetica,sans-Serif" font-size="10.00">CurrentLanguage</text>
</a>
</g>
</g>
<!-- Node3&#45;&gt;Node5 -->
<g id="edge4" class="edge"><title>Node3&#45;&gt;Node5</title>
<path fill="none" stroke="midnightblue" d="M462.559,-118.035C489.15,-123.396 519.285,-129.473 546.641,-134.989"/>
<polygon fill="midnightblue" stroke="midnightblue" points="546.087,-138.448 556.582,-136.994 547.471,-131.586 546.087,-138.448"/>
</g>
<!-- Node6 -->
<g id="node6" class="node"><title>Node6</title>
<g id="a_node6"><a xlink:href="../../df/dec/class_front_end_1_1_view.html#a292087509c6e8a64a73dd9fbf1908864" target="_top" xlink:title="FrontEnd.View.getMyBackground\lColorBox">
<polygon fill="white" stroke="black" points="546,-88 546,-118 718,-118 718,-88 546,-88"/>
<text text-anchor="start" x="554" y="-106" font-family="Helvetica,sans-Serif" font-size="10.00">FrontEnd.View.getMyBackground</text>
<text text-anchor="middle" x="632" y="-95" font-family="Helvetica,sans-Serif" font-size="10.00">ColorBox</text>
</a>
</g>
</g>
<!-- Node3&#45;&gt;Node6 -->
<g id="edge5" class="edge"><title>Node3&#45;&gt;Node6</title>
<path fill="none" stroke="midnightblue" d="M496.353,-103C509.435,-103 522.723,-103 535.601,-103"/>
<polygon fill="midnightblue" stroke="midnightblue" points="535.828,-106.5 545.828,-103 535.828,-99.5001 535.828,-106.5"/>
</g>
<!-- Node7 -->
<g id="node7" class="node"><title>Node7</title>
<g id="a_node7"><a xlink:href="../../df/dec/class_front_end_1_1_view.html#a19e6144ef2ebaaa6035c3837b2c0cbb5" target="_top" xlink:title="FrontEnd.View.getTurtleWindow">
<polygon fill="white" stroke="black" points="551,-49.5 551,-68.5 713,-68.5 713,-49.5 551,-49.5"/>
<text text-anchor="middle" x="632" y="-56.5" font-family="Helvetica,sans-Serif" font-size="10.00">FrontEnd.View.getTurtleWindow</text>
</a>
</g>
</g>
<!-- Node3&#45;&gt;Node7 -->
<g id="edge6" class="edge"><title>Node3&#45;&gt;Node7</title>
<path fill="none" stroke="midnightblue" d="M470.947,-87.9808C502.802,-82.2129 538.6,-75.7309 568.251,-70.362"/>
<polygon fill="midnightblue" stroke="midnightblue" points="569.249,-73.7382 578.466,-68.5124 568.002,-66.8502 569.249,-73.7382"/>
</g>
<!-- Node8 -->
<g id="node8" class="node"><title>Node8</title>
<g id="a_node8"><a xlink:href="../../d4/d8a/class_turtle_view_1_1_turtle_window.html#afc4dad2127e6b5789ee20d19cd8edc75" target="_top" xlink:title="TurtleView.TurtleWindow.get\lAllTurtles">
<polygon fill="white" stroke="black" points="559.5,-0 559.5,-30 704.5,-30 704.5,-0 559.5,-0"/>
<text text-anchor="start" x="567.5" y="-18" font-family="Helvetica,sans-Serif" font-size="10.00">TurtleView.TurtleWindow.get</text>
<text text-anchor="middle" x="632" y="-7" font-family="Helvetica,sans-Serif" font-size="10.00">AllTurtles</text>
</a>
</g>
</g>
<!-- Node3&#45;&gt;Node8 -->
<g id="edge7" class="edge"><title>Node3&#45;&gt;Node8</title>
<path fill="none" stroke="midnightblue" d="M423.1,-87.9093C454.886,-74.5068 503.157,-54.8059 546,-40 552.797,-37.6512 559.946,-35.3265 567.092,-33.0955"/>
<polygon fill="midnightblue" stroke="midnightblue" points="568.267,-36.3962 576.801,-30.1178 566.214,-29.7038 568.267,-36.3962"/>
</g>
</g>
</svg>
