<?xml version="1.0" encoding="UTF-8" standalone="no"?>
<!DOCTYPE svg PUBLIC "-//W3C//DTD SVG 1.1//EN"
 "http://www.w3.org/Graphics/SVG/1.1/DTD/svg11.dtd">
<!-- Generated by graphviz version 2.36.0 (20140111.2315)
 -->
<!-- Title: FrontEndCommands.SaveWorkspace.writeSettingsToFile Pages: 1 -->
<svg width="434pt" height="224pt"
 viewBox="0.00 0.00 434.00 224.00" xmlns="http://www.w3.org/2000/svg" xmlns:xlink="http://www.w3.org/1999/xlink">
<g id="graph0" class="graph" transform="scale(1 1) rotate(0) translate(4 220)">
<title>FrontEndCommands.SaveWorkspace.writeSettingsToFile</title>
<polygon fill="white" stroke="none" points="-4,4 -4,-220 430,-220 430,4 -4,4"/>
<!-- Node1 -->
<g id="node1" class="node"><title>Node1</title>
<polygon fill="#bfbfbf" stroke="black" points="0,-88 0,-118 218,-118 218,-88 0,-88"/>
<text text-anchor="start" x="8" y="-106" font-family="Helvetica,sans-Serif" font-size="10.00">FrontEndCommands.SaveWorkspace.write</text>
<text text-anchor="middle" x="109" y="-95" font-family="Helvetica,sans-Serif" font-size="10.00">SettingsToFile</text>
</g>
<!-- Node2 -->
<g id="node2" class="node"><title>Node2</title>
<g id="a_node2"><a xlink:href="../../d4/d8a/class_turtle_view_1_1_turtle_window.html#afc4dad2127e6b5789ee20d19cd8edc75" target="_top" xlink:title="TurtleView.TurtleWindow.get\lAllTurtles">
<polygon fill="white" stroke="black" points="267.5,-186 267.5,-216 412.5,-216 412.5,-186 267.5,-186"/>
<text text-anchor="start" x="275.5" y="-204" font-family="Helvetica,sans-Serif" font-size="10.00">TurtleView.TurtleWindow.get</text>
<text text-anchor="middle" x="340" y="-193" font-family="Helvetica,sans-Serif" font-size="10.00">AllTurtles</text>
</a>
</g>
</g>
<!-- Node1&#45;&gt;Node2 -->
<g id="edge1" class="edge"><title>Node1&#45;&gt;Node2</title>
<path fill="none" stroke="midnightblue" d="M136.13,-118.087C164.478,-134.013 211.401,-159.103 254,-176 259.911,-178.345 266.13,-180.584 272.404,-182.691"/>
<polygon fill="midnightblue" stroke="midnightblue" points="271.677,-186.135 282.269,-185.889 273.836,-179.476 271.677,-186.135"/>
</g>
<!-- Node3 -->
<g id="node3" class="node"><title>Node3</title>
<g id="a_node3"><a xlink:href="../../d2/d5e/class_front_end_1_1_language_selector.html#a9638aa132b453f5dd8a2d42b87dfe377" target="_top" xlink:title="FrontEnd.LanguageSelector.get\lCurrentLanguage">
<polygon fill="white" stroke="black" points="256.5,-137 256.5,-167 423.5,-167 423.5,-137 256.5,-137"/>
<text text-anchor="start" x="264.5" y="-155" font-family="Helvetica,sans-Serif" font-size="10.00">FrontEnd.LanguageSelector.get</text>
<text text-anchor="middle" x="340" y="-144" font-family="Helvetica,sans-Serif" font-size="10.00">CurrentLanguage</text>
</a>
</g>
</g>
<!-- Node1&#45;&gt;Node3 -->
<g id="edge2" class="edge"><title>Node1&#45;&gt;Node3</title>
<path fill="none" stroke="midnightblue" d="M180.264,-118.035C205.102,-123.349 233.223,-129.367 258.822,-134.844"/>
<polygon fill="midnightblue" stroke="midnightblue" points="258.358,-138.324 268.869,-136.994 259.823,-131.479 258.358,-138.324"/>
</g>
<!-- Node4 -->
<g id="node4" class="node"><title>Node4</title>
<g id="a_node4"><a xlink:href="../../df/dec/class_front_end_1_1_view.html#a2812398b952d53cbb09f8e7823fca245" target="_top" xlink:title="FrontEnd.View.getLanguage\lSelector">
<polygon fill="white" stroke="black" points="265.5,-88 265.5,-118 414.5,-118 414.5,-88 265.5,-88"/>
<text text-anchor="start" x="273.5" y="-106" font-family="Helvetica,sans-Serif" font-size="10.00">FrontEnd.View.getLanguage</text>
<text text-anchor="middle" x="340" y="-95" font-family="Helvetica,sans-Serif" font-size="10.00">Selector</text>
</a>
</g>
</g>
<!-- Node1&#45;&gt;Node4 -->
<g id="edge3" class="edge"><title>Node1&#45;&gt;Node4</title>
<path fill="none" stroke="midnightblue" d="M218.129,-103C230.615,-103 243.201,-103 255.293,-103"/>
<polygon fill="midnightblue" stroke="midnightblue" points="255.321,-106.5 265.321,-103 255.321,-99.5001 255.321,-106.5"/>
</g>
<!-- Node5 -->
<g id="node5" class="node"><title>Node5</title>
<g id="a_node5"><a xlink:href="../../df/dec/class_front_end_1_1_view.html#a292087509c6e8a64a73dd9fbf1908864" target="_top" xlink:title="FrontEnd.View.getMyBackground\lColorBox">
<polygon fill="white" stroke="black" points="254,-39 254,-69 426,-69 426,-39 254,-39"/>
<text text-anchor="start" x="262" y="-57" font-family="Helvetica,sans-Serif" font-size="10.00">FrontEnd.View.getMyBackground</text>
<text text-anchor="middle" x="340" y="-46" font-family="Helvetica,sans-Serif" font-size="10.00">ColorBox</text>
</a>
</g>
</g>
<!-- Node1&#45;&gt;Node5 -->
<g id="edge4" class="edge"><title>Node1&#45;&gt;Node5</title>
<path fill="none" stroke="midnightblue" d="M180.264,-87.9654C205.102,-82.6506 233.223,-76.6335 258.822,-71.156"/>
<polygon fill="midnightblue" stroke="midnightblue" points="259.823,-74.5212 268.869,-69.0062 258.358,-67.6761 259.823,-74.5212"/>
</g>
<!-- Node6 -->
<g id="node6" class="node"><title>Node6</title>
<g id="a_node6"><a xlink:href="../../df/dec/class_front_end_1_1_view.html#a19e6144ef2ebaaa6035c3837b2c0cbb5" target="_top" xlink:title="FrontEnd.View.getTurtleWindow">
<polygon fill="white" stroke="black" points="259,-0.5 259,-19.5 421,-19.5 421,-0.5 259,-0.5"/>
<text text-anchor="middle" x="340" y="-7.5" font-family="Helvetica,sans-Serif" font-size="10.00">FrontEnd.View.getTurtleWindow</text>
</a>
</g>
</g>
<!-- Node1&#45;&gt;Node6 -->
<g id="edge5" class="edge"><title>Node1&#45;&gt;Node6</title>
<path fill="none" stroke="midnightblue" d="M135.183,-87.8991C163.295,-71.6042 210.558,-45.8643 254,-30 262.174,-27.0151 270.955,-24.3633 279.661,-22.0453"/>
<polygon fill="midnightblue" stroke="midnightblue" points="280.589,-25.4208 289.421,-19.57 278.868,-18.6356 280.589,-25.4208"/>
</g>
</g>
</svg>
