<?xml version="1.0" encoding="UTF-8" standalone="no"?>
<!DOCTYPE svg PUBLIC "-//W3C//DTD SVG 1.1//EN"
 "http://www.w3.org/Graphics/SVG/1.1/DTD/svg11.dtd">
<!-- Generated by graphviz version 2.36.0 (20140111.2315)
 -->
<!-- Title: FrontEnd.UserCommands Pages: 1 -->
<svg width="216pt" height="96pt"
 viewBox="0.00 0.00 216.00 96.00" xmlns="http://www.w3.org/2000/svg" xmlns:xlink="http://www.w3.org/1999/xlink">
<g id="graph0" class="graph" transform="scale(1 1) rotate(0) translate(4 92)">
<title>FrontEnd.UserCommands</title>
<polygon fill="white" stroke="none" points="-4,4 -4,-92 212,-92 212,4 -4,4"/>
<!-- Node1 -->
<g id="node1" class="node"><title>Node1</title>
<polygon fill="#bfbfbf" stroke="black" points="22,-0.5 22,-19.5 162,-19.5 162,-0.5 22,-0.5"/>
<text text-anchor="middle" x="92" y="-7.5" font-family="Helvetica,sans-Serif" font-size="10.00">FrontEnd.UserCommands</text>
</g>
<!-- Node2 -->
<g id="node2" class="node"><title>Node2</title>
<polygon fill="white" stroke="#bfbfbf" points="-0.5,-68.5 -0.5,-87.5 70.5,-87.5 70.5,-68.5 -0.5,-68.5"/>
<text text-anchor="middle" x="35" y="-75.5" font-family="Helvetica,sans-Serif" font-size="10.00">Observable</text>
</g>
<!-- Node2&#45;&gt;Node1 -->
<g id="edge1" class="edge"><title>Node2&#45;&gt;Node1</title>
<path fill="none" stroke="midnightblue" d="M49.0945,-60.68C60.2382,-47.7768 75.3685,-30.2575 84.3645,-19.8411"/>
<polygon fill="midnightblue" stroke="midnightblue" points="46.3391,-58.5157 42.4518,-68.3717 51.6369,-63.0911 46.3391,-58.5157"/>
</g>
<!-- Node3 -->
<g id="node3" class="node"><title>Node3</title>
<polygon fill="white" stroke="#bfbfbf" points="89,-68.5 89,-87.5 209,-87.5 209,-68.5 89,-68.5"/>
<text text-anchor="middle" x="149" y="-75.5" font-family="Helvetica,sans-Serif" font-size="10.00">ComboBox&lt; String &gt;</text>
</g>
<!-- Node3&#45;&gt;Node1 -->
<g id="edge2" class="edge"><title>Node3&#45;&gt;Node1</title>
<path fill="none" stroke="#9a32cd" stroke-dasharray="5,2" d="M134.905,-60.68C123.762,-47.7768 108.632,-30.2575 99.6355,-19.8411"/>
<polygon fill="#9a32cd" stroke="#9a32cd" points="132.363,-63.0911 141.548,-68.3717 137.661,-58.5157 132.363,-63.0911"/>
<text text-anchor="middle" x="161.5" y="-41.5" font-family="Helvetica,sans-Serif" font-size="10.00"> myComboBox</text>
</g>
</g>
</svg>
