<?xml version="1.0" encoding="UTF-8" standalone="no"?>
<!DOCTYPE svg PUBLIC "-//W3C//DTD SVG 1.1//EN"
 "http://www.w3.org/Graphics/SVG/1.1/DTD/svg11.dtd">
<!-- Generated by graphviz version 2.36.0 (20140111.2315)
 -->
<!-- Title: FrontEnd.UserVariablesStorage.addVariable Pages: 1 -->
<svg width="642pt" height="87pt"
 viewBox="0.00 0.00 642.00 87.00" xmlns="http://www.w3.org/2000/svg" xmlns:xlink="http://www.w3.org/1999/xlink">
<g id="graph0" class="graph" transform="scale(1 1) rotate(0) translate(4 83)">
<title>FrontEnd.UserVariablesStorage.addVariable</title>
<polygon fill="white" stroke="none" points="-4,4 -4,-83 638,-83 638,4 -4,4"/>
<!-- Node1 -->
<g id="node1" class="node"><title>Node1</title>
<polygon fill="#bfbfbf" stroke="black" points="0.5,-25 0.5,-55 187.5,-55 187.5,-25 0.5,-25"/>
<text text-anchor="start" x="8.5" y="-43" font-family="Helvetica,sans-Serif" font-size="10.00">FrontEnd.UserVariablesStorage.add</text>
<text text-anchor="middle" x="94" y="-32" font-family="Helvetica,sans-Serif" font-size="10.00">Variable</text>
</g>
<!-- Node2 -->
<g id="node2" class="node"><title>Node2</title>
<g id="a_node2"><a xlink:href="../../df/d59/class_front_end_1_1_user_variables_storage.html#af45cbf4f2cf1cf90739e75e69174ebb8" target="_top" xlink:title="FrontEnd.UserVariablesStorage.handle">
<polygon fill="white" stroke="black" points="225.5,-51.5 225.5,-70.5 426.5,-70.5 426.5,-51.5 225.5,-51.5"/>
<text text-anchor="middle" x="326" y="-58.5" font-family="Helvetica,sans-Serif" font-size="10.00">FrontEnd.UserVariablesStorage.handle</text>
</a>
</g>
</g>
<!-- Node1&#45;&gt;Node2 -->
<g id="edge1" class="edge"><title>Node1&#45;&gt;Node2</title>
<path fill="none" stroke="midnightblue" d="M197.569,-49.365C206.847,-50.2121 216.234,-51.0692 225.485,-51.9139"/>
<polygon fill="midnightblue" stroke="midnightblue" points="197.832,-45.8746 187.556,-48.4507 197.196,-52.8456 197.832,-45.8746"/>
</g>
<!-- Node4 -->
<g id="node4" class="node"><title>Node4</title>
<g id="a_node4"><a xlink:href="../../df/d59/class_front_end_1_1_user_variables_storage.html#a16d6bf5f3d54a5d96596541456e991d5" target="_top" xlink:title="FrontEnd.UserVariablesStorage.update">
<polygon fill="white" stroke="black" points="224.5,-10.5 224.5,-29.5 427.5,-29.5 427.5,-10.5 224.5,-10.5"/>
<text text-anchor="middle" x="326" y="-17.5" font-family="Helvetica,sans-Serif" font-size="10.00">FrontEnd.UserVariablesStorage.update</text>
</a>
</g>
</g>
<!-- Node1&#45;&gt;Node4 -->
<g id="edge3" class="edge"><title>Node1&#45;&gt;Node4</title>
<path fill="none" stroke="midnightblue" d="M197.554,-31.0823C206.458,-30.308 215.462,-29.525 224.351,-28.7521"/>
<polygon fill="midnightblue" stroke="midnightblue" points="197.215,-27.5985 187.556,-31.9517 197.821,-34.5721 197.215,-27.5985"/>
</g>
<!-- Node3 -->
<g id="node3" class="node"><title>Node3</title>
<g id="a_node3"><a xlink:href="../../df/d59/class_front_end_1_1_user_variables_storage.html#a607aa4d36f074c51246f69be4db7106a" target="_top" xlink:title="FrontEnd.UserVariablesStorage.\lUserVariablesStorage">
<polygon fill="white" stroke="black" points="464.5,-49 464.5,-79 633.5,-79 633.5,-49 464.5,-49"/>
<text text-anchor="start" x="472.5" y="-67" font-family="Helvetica,sans-Serif" font-size="10.00">FrontEnd.UserVariablesStorage.</text>
<text text-anchor="middle" x="549" y="-56" font-family="Helvetica,sans-Serif" font-size="10.00">UserVariablesStorage</text>
</a>
</g>
</g>
<!-- Node2&#45;&gt;Node3 -->
<g id="edge2" class="edge"><title>Node2&#45;&gt;Node3</title>
<path fill="none" stroke="midnightblue" d="M436.58,-62.4875C445.876,-62.6137 455.18,-62.74 464.23,-62.8629"/>
<polygon fill="midnightblue" stroke="midnightblue" points="436.556,-58.987 426.509,-62.3508 436.461,-65.9863 436.556,-58.987"/>
</g>
<!-- Node5 -->
<g id="node5" class="node"><title>Node5</title>
<g id="a_node5"><a xlink:href="../../df/dec/class_front_end_1_1_view.html#afb3c2175ff682c44c5825b6d61787554" target="_top" xlink:title="FrontEnd.View.updateUser\lVariables">
<polygon fill="white" stroke="black" points="478,-0 478,-30 620,-30 620,-0 478,-0"/>
<text text-anchor="start" x="486" y="-18" font-family="Helvetica,sans-Serif" font-size="10.00">FrontEnd.View.updateUser</text>
<text text-anchor="middle" x="549" y="-7" font-family="Helvetica,sans-Serif" font-size="10.00">Variables</text>
</a>
</g>
</g>
<!-- Node4&#45;&gt;Node5 -->
<g id="edge4" class="edge"><title>Node4&#45;&gt;Node5</title>
<path fill="none" stroke="midnightblue" d="M438.16,-17.4851C451.723,-17.1782 465.273,-16.8716 477.992,-16.5839"/>
<polygon fill="midnightblue" stroke="midnightblue" points="437.717,-13.9941 427.799,-17.7195 437.876,-20.9923 437.717,-13.9941"/>
</g>
</g>
</svg>
