<?xml version="1.0" encoding="UTF-8" standalone="no"?>
<!DOCTYPE svg PUBLIC "-//W3C//DTD SVG 1.1//EN"
 "http://www.w3.org/Graphics/SVG/1.1/DTD/svg11.dtd">
<!-- Generated by graphviz version 2.36.0 (20140111.2315)
 -->
<!-- Title: FrontEnd.UserVariablesStorage.UserVariablesStorage Pages: 1 -->
<svg width="640pt" height="82pt"
 viewBox="0.00 0.00 640.00 82.00" xmlns="http://www.w3.org/2000/svg" xmlns:xlink="http://www.w3.org/1999/xlink">
<g id="graph0" class="graph" transform="scale(1 1) rotate(0) translate(4 78)">
<title>FrontEnd.UserVariablesStorage.UserVariablesStorage</title>
<polygon fill="white" stroke="none" points="-4,4 -4,-78 636,-78 636,4 -4,4"/>
<!-- Node1 -->
<g id="node1" class="node"><title>Node1</title>
<polygon fill="#bfbfbf" stroke="black" points="0.5,-22 0.5,-52 169.5,-52 169.5,-22 0.5,-22"/>
<text text-anchor="start" x="8.5" y="-40" font-family="Helvetica,sans-Serif" font-size="10.00">FrontEnd.UserVariablesStorage.</text>
<text text-anchor="middle" x="85" y="-29" font-family="Helvetica,sans-Serif" font-size="10.00">UserVariablesStorage</text>
</g>
<!-- Node2 -->
<g id="node2" class="node"><title>Node2</title>
<g id="a_node2"><a xlink:href="../../dc/d7d/class_front_end_1_1_string_chooser.html#a2e464bdef767e146df8d2b7a5f14f6ad" target="_top" xlink:title="FrontEnd.StringChooser.get\lWordInLang">
<polygon fill="white" stroke="black" points="233,-44 233,-74 381,-74 381,-44 233,-44"/>
<text text-anchor="start" x="241" y="-62" font-family="Helvetica,sans-Serif" font-size="10.00">FrontEnd.StringChooser.get</text>
<text text-anchor="middle" x="307" y="-51" font-family="Helvetica,sans-Serif" font-size="10.00">WordInLang</text>
</a>
</g>
</g>
<!-- Node1&#45;&gt;Node2 -->
<g id="edge1" class="edge"><title>Node1&#45;&gt;Node2</title>
<path fill="none" stroke="midnightblue" d="M169.8,-45.38C187.158,-47.1158 205.44,-48.944 222.777,-50.6777"/>
<polygon fill="midnightblue" stroke="midnightblue" points="222.563,-54.1736 232.861,-51.6861 223.259,-47.2084 222.563,-54.1736"/>
</g>
<!-- Node3 -->
<g id="node3" class="node"><title>Node3</title>
<g id="a_node3"><a xlink:href="../../df/d59/class_front_end_1_1_user_variables_storage.html#af45cbf4f2cf1cf90739e75e69174ebb8" target="_top" xlink:title="FrontEnd.UserVariablesStorage.handle">
<polygon fill="white" stroke="black" points="206.5,-5.5 206.5,-24.5 407.5,-24.5 407.5,-5.5 206.5,-5.5"/>
<text text-anchor="middle" x="307" y="-12.5" font-family="Helvetica,sans-Serif" font-size="10.00">FrontEnd.UserVariablesStorage.handle</text>
</a>
</g>
</g>
<!-- Node1&#45;&gt;Node3 -->
<g id="edge2" class="edge"><title>Node1&#45;&gt;Node3</title>
<path fill="none" stroke="midnightblue" d="M169.8,-28.62C179.818,-27.6182 190.144,-26.5856 200.418,-25.5582"/>
<polygon fill="midnightblue" stroke="midnightblue" points="201.06,-29.0116 210.662,-24.5338 200.363,-22.0463 201.06,-29.0116"/>
</g>
<!-- Node4 -->
<g id="node4" class="node"><title>Node4</title>
<g id="a_node4"><a xlink:href="../../df/d59/class_front_end_1_1_user_variables_storage.html#a834e246206d98ed6da6271f41f0d1e22" target="_top" xlink:title="FrontEnd.UserVariablesStorage.add\lVariable">
<polygon fill="white" stroke="black" points="444.5,-0 444.5,-30 631.5,-30 631.5,-0 444.5,-0"/>
<text text-anchor="start" x="452.5" y="-18" font-family="Helvetica,sans-Serif" font-size="10.00">FrontEnd.UserVariablesStorage.add</text>
<text text-anchor="middle" x="538" y="-7" font-family="Helvetica,sans-Serif" font-size="10.00">Variable</text>
</a>
</g>
</g>
<!-- Node3&#45;&gt;Node4 -->
<g id="edge3" class="edge"><title>Node3&#45;&gt;Node4</title>
<path fill="none" stroke="midnightblue" d="M407.777,-15C416.526,-15 425.392,-15 434.166,-15"/>
<polygon fill="midnightblue" stroke="midnightblue" points="434.411,-18.5001 444.411,-15 434.411,-11.5001 434.411,-18.5001"/>
</g>
</g>
</svg>
