<?xml version="1.0" encoding="UTF-8" standalone="no"?>
<!DOCTYPE svg PUBLIC "-//W3C//DTD SVG 1.1//EN"
 "http://www.w3.org/Graphics/SVG/1.1/DTD/svg11.dtd">
<!-- Generated by graphviz version 2.36.0 (20140111.2315)
 -->
<!-- Title: Nodes.multipleTurtlecommands.MultipleTurtlesNode Pages: 1 -->
<svg width="184pt" height="166pt"
 viewBox="0.00 0.00 184.00 166.00" xmlns="http://www.w3.org/2000/svg" xmlns:xlink="http://www.w3.org/1999/xlink">
<g id="graph0" class="graph" transform="scale(1 1) rotate(0) translate(4 162)">
<title>Nodes.multipleTurtlecommands.MultipleTurtlesNode</title>
<polygon fill="white" stroke="none" points="-4,4 -4,-162 180,-162 180,4 -4,4"/>
<!-- Node1 -->
<g id="node1" class="node"><title>Node1</title>
<polygon fill="#bfbfbf" stroke="black" points="-0.5,-1 -0.5,-31 170.5,-31 170.5,-1 -0.5,-1"/>
<text text-anchor="start" x="7.5" y="-19" font-family="Helvetica,sans-Serif" font-size="10.00">Nodes.multipleTurtlecommands.</text>
<text text-anchor="middle" x="85" y="-8" font-family="Helvetica,sans-Serif" font-size="10.00">MultipleTurtlesNode</text>
</g>
<!-- Node2 -->
<g id="node2" class="node"><title>Node2</title>
<g id="a_node2"><a xlink:href="../../df/dac/class_nodes_1_1_node.html" target="_top" xlink:title="Nodes.Node">
<polygon fill="white" stroke="black" points="47,-70.5 47,-89.5 123,-89.5 123,-70.5 47,-70.5"/>
<text text-anchor="middle" x="85" y="-77.5" font-family="Helvetica,sans-Serif" font-size="10.00">Nodes.Node</text>
</a>
</g>
</g>
<!-- Node2&#45;&gt;Node1 -->
<g id="edge1" class="edge"><title>Node2&#45;&gt;Node1</title>
<path fill="none" stroke="midnightblue" d="M85,-60.1826C85,-50.8859 85,-39.8507 85,-31.263"/>
<polygon fill="midnightblue" stroke="midnightblue" points="81.5001,-60.3791 85,-70.3792 88.5001,-60.3792 81.5001,-60.3791"/>
</g>
<!-- Node2&#45;&gt;Node2 -->
<g id="edge3" class="edge"><title>Node2&#45;&gt;Node2</title>
<path fill="none" stroke="#9a32cd" stroke-dasharray="5,2" d="M133.289,-84.263C138.006,-83.4034 141,-81.9824 141,-80 141,-76.8281 133.335,-75.0935 123.214,-74.7961"/>
<polygon fill="#9a32cd" stroke="#9a32cd" points="132.845,-80.7891 123.214,-85.2039 133.496,-87.7588 132.845,-80.7891"/>
<text text-anchor="middle" x="158.5" y="-77.5" font-family="Helvetica,sans-Serif" font-size="10.00"> parent</text>
</g>
<!-- Node3 -->
<g id="node3" class="node"><title>Node3</title>
<polygon fill="white" stroke="#bfbfbf" points="15,-138.5 15,-157.5 155,-157.5 155,-138.5 15,-138.5"/>
<text text-anchor="middle" x="85" y="-145.5" font-family="Helvetica,sans-Serif" font-size="10.00">ArrayList&lt; Nodes.Node &gt;</text>
</g>
<!-- Node3&#45;&gt;Node2 -->
<g id="edge2" class="edge"><title>Node3&#45;&gt;Node2</title>
<path fill="none" stroke="#9a32cd" stroke-dasharray="5,2" d="M85,-128.041C85,-115.472 85,-99.5631 85,-89.8411"/>
<polygon fill="#9a32cd" stroke="#9a32cd" points="81.5001,-128.372 85,-138.372 88.5001,-128.372 81.5001,-128.372"/>
<text text-anchor="middle" x="114" y="-111.5" font-family="Helvetica,sans-Serif" font-size="10.00"> myChildren</text>
</g>
</g>
</svg>
