<?xml version="1.0" encoding="UTF-8" standalone="no"?>
<!DOCTYPE svg PUBLIC "-//W3C//DTD SVG 1.1//EN"
 "http://www.w3.org/Graphics/SVG/1.1/DTD/svg11.dtd">
<!-- Generated by graphviz version 2.36.0 (20140111.2315)
 -->
<!-- Title: Pen.Pen Pages: 1 -->
<svg width="211pt" height="128pt"
 viewBox="0.00 0.00 211.00 128.00" xmlns="http://www.w3.org/2000/svg" xmlns:xlink="http://www.w3.org/1999/xlink">
<g id="graph0" class="graph" transform="scale(1 1) rotate(0) translate(4 124)">
<title>Pen.Pen</title>
<polygon fill="white" stroke="none" points="-4,4 -4,-124 207,-124 207,4 -4,4"/>
<!-- Node1 -->
<g id="node1" class="node"><title>Node1</title>
<polygon fill="#bfbfbf" stroke="black" points="57,-0.5 57,-19.5 113,-19.5 113,-0.5 57,-0.5"/>
<text text-anchor="middle" x="85" y="-7.5" font-family="Helvetica,sans-Serif" font-size="10.00">Pen.Pen</text>
</g>
<!-- Node2 -->
<g id="node2" class="node"><title>Node2</title>
<polygon fill="white" stroke="#bfbfbf" points="-0.5,-100.5 -0.5,-119.5 88.5,-119.5 88.5,-100.5 -0.5,-100.5"/>
<text text-anchor="middle" x="44" y="-107.5" font-family="Helvetica,sans-Serif" font-size="10.00">List&lt; Double &gt;</text>
</g>
<!-- Node2&#45;&gt;Node1 -->
<g id="edge1" class="edge"><title>Node2&#45;&gt;Node1</title>
<path fill="none" stroke="#9a32cd" stroke-dasharray="5,2" d="M41.2118,-89.9066C39.9536,-74.8869 40.3327,-53.9107 49,-38 53.1858,-30.3161 60.5996,-24.1877 67.6158,-19.7244"/>
<polygon fill="#9a32cd" stroke="#9a32cd" points="37.7589,-90.5161 42.383,-100.049 44.7127,-89.7131 37.7589,-90.5161"/>
<text text-anchor="middle" x="77" y="-74" font-family="Helvetica,sans-Serif" font-size="10.00"> DASHED</text>
<text text-anchor="middle" x="77" y="-63" font-family="Helvetica,sans-Serif" font-size="10.00">SOLID</text>
<text text-anchor="middle" x="77" y="-52" font-family="Helvetica,sans-Serif" font-size="10.00">myLineType</text>
<text text-anchor="middle" x="77" y="-41" font-family="Helvetica,sans-Serif" font-size="10.00">DOTTED</text>
</g>
<!-- Node3 -->
<g id="node3" class="node"><title>Node3</title>
<polygon fill="white" stroke="#bfbfbf" points="106.5,-100.5 106.5,-119.5 147.5,-119.5 147.5,-100.5 106.5,-100.5"/>
<text text-anchor="middle" x="127" y="-107.5" font-family="Helvetica,sans-Serif" font-size="10.00">Color</text>
</g>
<!-- Node3&#45;&gt;Node1 -->
<g id="edge2" class="edge"><title>Node3&#45;&gt;Node1</title>
<path fill="none" stroke="#9a32cd" stroke-dasharray="5,2" d="M123.067,-90.4364C119.525,-75.7136 113.553,-54.8781 105,-38 101.625,-31.3395 96.625,-24.5895 92.4687,-19.5046"/>
<polygon fill="#9a32cd" stroke="#9a32cd" points="119.687,-91.3543 125.305,-100.337 126.514,-89.8111 119.687,-91.3543"/>
<text text-anchor="middle" x="161.5" y="-63" font-family="Helvetica,sans-Serif" font-size="10.00"> DEFAULT_COLOR</text>
<text text-anchor="middle" x="161.5" y="-52" font-family="Helvetica,sans-Serif" font-size="10.00">myColor</text>
</g>
</g>
</svg>
