<?xml version="1.0" encoding="UTF-8" standalone="no"?>
<!DOCTYPE svg PUBLIC "-//W3C//DTD SVG 1.1//EN"
 "http://www.w3.org/Graphics/SVG/1.1/DTD/svg11.dtd">
<!-- Generated by graphviz version 2.36.0 (20140111.2315)
 -->
<!-- Title: FrontEnd.UserCommands.UserCommands Pages: 1 -->
<svg width="386pt" height="77pt"
 viewBox="0.00 0.00 386.00 77.00" xmlns="http://www.w3.org/2000/svg" xmlns:xlink="http://www.w3.org/1999/xlink">
<g id="graph0" class="graph" transform="scale(1 1) rotate(0) translate(4 73)">
<title>FrontEnd.UserCommands.UserCommands</title>
<polygon fill="white" stroke="none" points="-4,4 -4,-73 382,-73 382,4 -4,4"/>
<!-- Node1 -->
<g id="node1" class="node"><title>Node1</title>
<polygon fill="#bfbfbf" stroke="black" points="0.5,-17 0.5,-47 165.5,-47 165.5,-17 0.5,-17"/>
<text text-anchor="start" x="8.5" y="-35" font-family="Helvetica,sans-Serif" font-size="10.00">FrontEnd.UserCommands.User</text>
<text text-anchor="middle" x="83" y="-24" font-family="Helvetica,sans-Serif" font-size="10.00">Commands</text>
</g>
<!-- Node2 -->
<g id="node2" class="node"><title>Node2</title>
<g id="a_node2"><a xlink:href="../../dc/d7d/class_front_end_1_1_string_chooser.html#a2e464bdef767e146df8d2b7a5f14f6ad" target="_top" xlink:title="FrontEnd.StringChooser.get\lWordInLang">
<polygon fill="white" stroke="black" points="216,-39 216,-69 364,-69 364,-39 216,-39"/>
<text text-anchor="start" x="224" y="-57" font-family="Helvetica,sans-Serif" font-size="10.00">FrontEnd.StringChooser.get</text>
<text text-anchor="middle" x="290" y="-46" font-family="Helvetica,sans-Serif" font-size="10.00">WordInLang</text>
</a>
</g>
</g>
<!-- Node1&#45;&gt;Node2 -->
<g id="edge1" class="edge"><title>Node1&#45;&gt;Node2</title>
<path fill="none" stroke="midnightblue" d="M165.61,-40.7582C178.868,-42.1809 192.612,-43.6559 205.905,-45.0824"/>
<polygon fill="midnightblue" stroke="midnightblue" points="205.649,-48.5751 215.966,-46.1622 206.396,-41.615 205.649,-48.5751"/>
</g>
<!-- Node3 -->
<g id="node3" class="node"><title>Node3</title>
<g id="a_node3"><a xlink:href="../../de/d8a/class_front_end_1_1_user_commands.html#af643316a7d6e547a751c16fbf17eb9c3" target="_top" xlink:title="FrontEnd.UserCommands.handle">
<polygon fill="white" stroke="black" points="202.5,-0.5 202.5,-19.5 377.5,-19.5 377.5,-0.5 202.5,-0.5"/>
<text text-anchor="middle" x="290" y="-7.5" font-family="Helvetica,sans-Serif" font-size="10.00">FrontEnd.UserCommands.handle</text>
</a>
</g>
</g>
<!-- Node1&#45;&gt;Node3 -->
<g id="edge2" class="edge"><title>Node1&#45;&gt;Node3</title>
<path fill="none" stroke="midnightblue" d="M165.61,-23.2418C174.372,-22.3015 183.346,-21.3385 192.262,-20.3816"/>
<polygon fill="midnightblue" stroke="midnightblue" points="192.72,-23.8527 202.289,-19.3056 191.973,-16.8927 192.72,-23.8527"/>
</g>
</g>
</svg>
