<?xml version="1.0" encoding="UTF-8" standalone="no"?>
<!DOCTYPE svg PUBLIC "-//W3C//DTD SVG 1.1//EN"
 "http://www.w3.org/Graphics/SVG/1.1/DTD/svg11.dtd">
<!-- Generated by graphviz version 2.36.0 (20140111.2315)
 -->
<!-- Title: FrontEnd.UserCommands.addCommand Pages: 1 -->
<svg width="1094pt" height="38pt"
 viewBox="0.00 0.00 1094.00 38.00" xmlns="http://www.w3.org/2000/svg" xmlns:xlink="http://www.w3.org/1999/xlink">
<g id="graph0" class="graph" transform="scale(1 1) rotate(0) translate(4 34)">
<title>FrontEnd.UserCommands.addCommand</title>
<polygon fill="white" stroke="none" points="-4,4 -4,-34 1090,-34 1090,4 -4,4"/>
<!-- Node1 -->
<g id="node1" class="node"><title>Node1</title>
<polygon fill="#bfbfbf" stroke="black" points="0.5,-0 0.5,-30 161.5,-30 161.5,-0 0.5,-0"/>
<text text-anchor="start" x="8.5" y="-18" font-family="Helvetica,sans-Serif" font-size="10.00">FrontEnd.UserCommands.add</text>
<text text-anchor="middle" x="81" y="-7" font-family="Helvetica,sans-Serif" font-size="10.00">Command</text>
</g>
<!-- Node2 -->
<g id="node2" class="node"><title>Node2</title>
<g id="a_node2"><a xlink:href="../../d4/d1b/class_front_end_1_1_history_box.html#a64947a52c0dbe236075698aab3d181dc" target="_top" xlink:title="FrontEnd.HistoryBox.addEntry">
<polygon fill="white" stroke="black" points="198.5,-5.5 198.5,-24.5 357.5,-24.5 357.5,-5.5 198.5,-5.5"/>
<text text-anchor="middle" x="278" y="-12.5" font-family="Helvetica,sans-Serif" font-size="10.00">FrontEnd.HistoryBox.addEntry</text>
</a>
</g>
</g>
<!-- Node1&#45;&gt;Node2 -->
<g id="edge1" class="edge"><title>Node1&#45;&gt;Node2</title>
<path fill="none" stroke="midnightblue" d="M171.6,-15C180.508,-15 189.505,-15 198.29,-15"/>
<polygon fill="midnightblue" stroke="midnightblue" points="171.595,-11.5001 161.595,-15 171.595,-18.5001 171.595,-11.5001"/>
</g>
<!-- Node3 -->
<g id="node3" class="node"><title>Node3</title>
<g id="a_node3"><a xlink:href="../../df/dec/class_front_end_1_1_view.html#a0dc533900f63d1fda3d421c4252b497d" target="_top" xlink:title="FrontEnd.View.addHistory\lEntry">
<polygon fill="white" stroke="black" points="394.5,-0 394.5,-30 531.5,-30 531.5,-0 394.5,-0"/>
<text text-anchor="start" x="402.5" y="-18" font-family="Helvetica,sans-Serif" font-size="10.00">FrontEnd.View.addHistory</text>
<text text-anchor="middle" x="463" y="-7" font-family="Helvetica,sans-Serif" font-size="10.00">Entry</text>
</a>
</g>
</g>
<!-- Node2&#45;&gt;Node3 -->
<g id="edge2" class="edge"><title>Node2&#45;&gt;Node3</title>
<path fill="none" stroke="midnightblue" d="M367.735,-15C376.678,-15 385.657,-15 394.329,-15"/>
<polygon fill="midnightblue" stroke="midnightblue" points="367.671,-11.5001 357.671,-15 367.67,-18.5001 367.671,-11.5001"/>
</g>
<!-- Node4 -->
<g id="node4" class="node"><title>Node4</title>
<g id="a_node4"><a xlink:href="../../dd/d2e/class_front_end_1_1_controller.html#a0ad45a00bc5c4475d3b1c6a4dbf74a91" target="_top" xlink:title="FrontEnd.Controller.interpret">
<polygon fill="white" stroke="black" points="568,-5.5 568,-24.5 720,-24.5 720,-5.5 568,-5.5"/>
<text text-anchor="middle" x="644" y="-12.5" font-family="Helvetica,sans-Serif" font-size="10.00">FrontEnd.Controller.interpret</text>
</a>
</g>
</g>
<!-- Node3&#45;&gt;Node4 -->
<g id="edge3" class="edge"><title>Node3&#45;&gt;Node4</title>
<path fill="none" stroke="midnightblue" d="M541.721,-15C550.355,-15 559.139,-15 567.742,-15"/>
<polygon fill="midnightblue" stroke="midnightblue" points="541.672,-11.5001 531.672,-15 541.672,-18.5001 541.672,-11.5001"/>
</g>
<!-- Node5 -->
<g id="node5" class="node"><title>Node5</title>
<g id="a_node5"><a xlink:href="../../dd/d2e/class_front_end_1_1_controller.html#a41885f349a8f334750e26d685a8981d2" target="_top" xlink:title="FrontEnd.Controller.execute\lCommand">
<polygon fill="white" stroke="black" points="756.5,-0 756.5,-30 905.5,-30 905.5,-0 756.5,-0"/>
<text text-anchor="start" x="764.5" y="-18" font-family="Helvetica,sans-Serif" font-size="10.00">FrontEnd.Controller.execute</text>
<text text-anchor="middle" x="831" y="-7" font-family="Helvetica,sans-Serif" font-size="10.00">Command</text>
</a>
</g>
</g>
<!-- Node4&#45;&gt;Node5 -->
<g id="edge4" class="edge"><title>Node4&#45;&gt;Node5</title>
<path fill="none" stroke="midnightblue" d="M730.366,-15C739.035,-15 747.788,-15 756.318,-15"/>
<polygon fill="midnightblue" stroke="midnightblue" points="730.247,-11.5001 720.247,-15 730.247,-18.5001 730.247,-11.5001"/>
</g>
<!-- Node6 -->
<g id="node6" class="node"><title>Node6</title>
<g id="a_node6"><a xlink:href="../../dd/d2e/class_front_end_1_1_controller.html#a29be9ff259428dbe97eebe3ec9a13ac5" target="_top" xlink:title="FrontEnd.Controller.update">
<polygon fill="white" stroke="black" points="942,-5.5 942,-24.5 1086,-24.5 1086,-5.5 942,-5.5"/>
<text text-anchor="middle" x="1014" y="-12.5" font-family="Helvetica,sans-Serif" font-size="10.00">FrontEnd.Controller.update</text>
</a>
</g>
</g>
<!-- Node5&#45;&gt;Node6 -->
<g id="edge5" class="edge"><title>Node5&#45;&gt;Node6</title>
<path fill="none" stroke="midnightblue" d="M915.771,-15C924.468,-15 933.249,-15 941.789,-15"/>
<polygon fill="midnightblue" stroke="midnightblue" points="915.62,-11.5001 905.62,-15 915.62,-18.5001 915.62,-11.5001"/>
</g>
</g>
</svg>
