<?xml version="1.0" encoding="UTF-8" standalone="no"?>
<!DOCTYPE svg PUBLIC "-//W3C//DTD SVG 1.1//EN"
 "http://www.w3.org/Graphics/SVG/1.1/DTD/svg11.dtd">
<!-- Generated by graphviz version 2.36.0 (20140111.2315)
 -->
<!-- Title: FrontEnd.Boundary.checkBoundary Pages: 1 -->
<svg width="590pt" height="185pt"
 viewBox="0.00 0.00 590.00 185.00" xmlns="http://www.w3.org/2000/svg" xmlns:xlink="http://www.w3.org/1999/xlink">
<g id="graph0" class="graph" transform="scale(1 1) rotate(0) translate(4 181)">
<title>FrontEnd.Boundary.checkBoundary</title>
<polygon fill="white" stroke="none" points="-4,4 -4,-181 586,-181 586,4 -4,4"/>
<!-- Node1 -->
<g id="node1" class="node"><title>Node1</title>
<polygon fill="#bfbfbf" stroke="black" points="0,-78.5 0,-97.5 182,-97.5 182,-78.5 0,-78.5"/>
<text text-anchor="middle" x="91" y="-85.5" font-family="Helvetica,sans-Serif" font-size="10.00">FrontEnd.Boundary.checkBoundary</text>
</g>
<!-- Node2 -->
<g id="node2" class="node"><title>Node2</title>
<g id="a_node2"><a xlink:href="../../d1/de0/class_backend_1_1_turtle.html#ad5f5520cb6970723e121a8d17f2c0a5c" target="_top" xlink:title="Backend.Turtle.addLocation">
<polygon fill="white" stroke="black" points="218,-78.5 218,-97.5 366,-97.5 366,-78.5 218,-78.5"/>
<text text-anchor="middle" x="292" y="-85.5" font-family="Helvetica,sans-Serif" font-size="10.00">Backend.Turtle.addLocation</text>
</a>
</g>
</g>
<!-- Node1&#45;&gt;Node2 -->
<g id="edge1" class="edge"><title>Node1&#45;&gt;Node2</title>
<path fill="none" stroke="midnightblue" d="M192.277,-88C200.884,-88 209.484,-88 217.818,-88"/>
<polygon fill="midnightblue" stroke="midnightblue" points="192.184,-84.5001 182.184,-88 192.184,-91.5001 192.184,-84.5001"/>
</g>
<!-- Node3 -->
<g id="node3" class="node"><title>Node3</title>
<g id="a_node3"><a xlink:href="../../dc/db0/class_nodes_1_1turtlecommands_1_1_backward_node.html#a8ebd60d8ab28acb66aef1fd9ba59d5c7" target="_top" xlink:title="Nodes.turtlecommands.Backward\lNode.update">
<polygon fill="white" stroke="black" points="402.5,-147 402.5,-177 581.5,-177 581.5,-147 402.5,-147"/>
<text text-anchor="start" x="410.5" y="-165" font-family="Helvetica,sans-Serif" font-size="10.00">Nodes.turtlecommands.Backward</text>
<text text-anchor="middle" x="492" y="-154" font-family="Helvetica,sans-Serif" font-size="10.00">Node.update</text>
</a>
</g>
</g>
<!-- Node2&#45;&gt;Node3 -->
<g id="edge2" class="edge"><title>Node2&#45;&gt;Node3</title>
<path fill="none" stroke="midnightblue" d="M320.936,-101.946C342.679,-112.458 373.798,-126.764 402,-137 411.806,-140.559 422.37,-143.923 432.675,-146.96"/>
<polygon fill="midnightblue" stroke="midnightblue" points="322.461,-98.7955 311.939,-97.5535 319.39,-105.086 322.461,-98.7955"/>
</g>
<!-- Node4 -->
<g id="node4" class="node"><title>Node4</title>
<g id="a_node4"><a xlink:href="../../d4/dd2/class_nodes_1_1turtlecommands_1_1_home_node.html#ab3bbeb66894a4c93c40e651457efe097" target="_top" xlink:title="Nodes.turtlecommands.Home\lNode.update">
<polygon fill="white" stroke="black" points="411,-98 411,-128 573,-128 573,-98 411,-98"/>
<text text-anchor="start" x="419" y="-116" font-family="Helvetica,sans-Serif" font-size="10.00">Nodes.turtlecommands.Home</text>
<text text-anchor="middle" x="492" y="-105" font-family="Helvetica,sans-Serif" font-size="10.00">Node.update</text>
</a>
</g>
</g>
<!-- Node2&#45;&gt;Node4 -->
<g id="edge3" class="edge"><title>Node2&#45;&gt;Node4</title>
<path fill="none" stroke="midnightblue" d="M376.156,-98.4995C387.628,-99.948 399.392,-101.433 410.809,-102.875"/>
<polygon fill="midnightblue" stroke="midnightblue" points="376.525,-95.0184 366.165,-97.238 375.648,-101.963 376.525,-95.0184"/>
</g>
<!-- Node5 -->
<g id="node5" class="node"><title>Node5</title>
<g id="a_node5"><a xlink:href="../../d1/dd7/class_nodes_1_1turtlecommands_1_1_set_position_node.html#a5c752365147093605e4591ecbd0ededd" target="_top" xlink:title="Nodes.turtlecommands.Set\lPositionNode.update">
<polygon fill="white" stroke="black" points="417.5,-49 417.5,-79 566.5,-79 566.5,-49 417.5,-49"/>
<text text-anchor="start" x="425.5" y="-67" font-family="Helvetica,sans-Serif" font-size="10.00">Nodes.turtlecommands.Set</text>
<text text-anchor="middle" x="492" y="-56" font-family="Helvetica,sans-Serif" font-size="10.00">PositionNode.update</text>
</a>
</g>
</g>
<!-- Node2&#45;&gt;Node5 -->
<g id="edge4" class="edge"><title>Node2&#45;&gt;Node5</title>
<path fill="none" stroke="midnightblue" d="M376.483,-77.8809C390.1,-76.2303 404.119,-74.531 417.474,-72.9122"/>
<polygon fill="midnightblue" stroke="midnightblue" points="375.671,-74.4535 366.165,-79.1315 376.514,-81.4026 375.671,-74.4535"/>
</g>
<!-- Node6 -->
<g id="node6" class="node"><title>Node6</title>
<g id="a_node6"><a xlink:href="../../d8/ddb/class_nodes_1_1turtlecommands_1_1_forward_node.html#a4c29ece57a41db2da90359e0193fcb04" target="_top" xlink:title="Nodes.turtlecommands.Forward\lNode.update">
<polygon fill="white" stroke="black" points="407,-0 407,-30 577,-30 577,-0 407,-0"/>
<text text-anchor="start" x="415" y="-18" font-family="Helvetica,sans-Serif" font-size="10.00">Nodes.turtlecommands.Forward</text>
<text text-anchor="middle" x="492" y="-7" font-family="Helvetica,sans-Serif" font-size="10.00">Node.update</text>
</a>
</g>
</g>
<!-- Node2&#45;&gt;Node6 -->
<g id="edge5" class="edge"><title>Node2&#45;&gt;Node6</title>
<path fill="none" stroke="midnightblue" d="M321.656,-74.0521C343.381,-63.8055 374.15,-49.9872 402,-40 411.82,-36.4785 422.391,-33.1335 432.698,-30.1025"/>
<polygon fill="midnightblue" stroke="midnightblue" points="319.877,-71.0225 312.353,-78.4821 322.887,-77.3425 319.877,-71.0225"/>
</g>
</g>
</svg>
