<?xml version="1.0" encoding="UTF-8" standalone="no"?>
<!DOCTYPE svg PUBLIC "-//W3C//DTD SVG 1.1//EN"
 "http://www.w3.org/Graphics/SVG/1.1/DTD/svg11.dtd">
<!-- Generated by graphviz version 2.36.0 (20140111.2315)
 -->
<!-- Title: Nodes.turtlecommands.CommandNode Pages: 1 -->
<svg width="968pt" height="804pt"
 viewBox="0.00 0.00 968.00 804.00" xmlns="http://www.w3.org/2000/svg" xmlns:xlink="http://www.w3.org/1999/xlink">
<g id="graph0" class="graph" transform="scale(1 1) rotate(0) translate(4 800)">
<title>Nodes.turtlecommands.CommandNode</title>
<polygon fill="white" stroke="none" points="-4,4 -4,-800 964,-800 964,4 -4,4"/>
<!-- Node1 -->
<g id="node1" class="node"><title>Node1</title>
<polygon fill="#bfbfbf" stroke="black" points="112.5,-544.5 112.5,-563.5 321.5,-563.5 321.5,-544.5 112.5,-544.5"/>
<text text-anchor="middle" x="217" y="-551.5" font-family="Helvetica,sans-Serif" font-size="10.00">Nodes.turtlecommands.CommandNode</text>
</g>
<!-- Node3 -->
<g id="node3" class="node"><title>Node3</title>
<g id="a_node3"><a xlink:href="../../de/da2/class_nodes_1_1turtlecommands_1_1_one_child_node.html" target="_top" xlink:title="Nodes.turtlecommands.One\lChildNode">
<polygon fill="white" stroke="black" points="360,-676 360,-706 512,-706 512,-676 360,-676"/>
<text text-anchor="start" x="368" y="-694" font-family="Helvetica,sans-Serif" font-size="10.00">Nodes.turtlecommands.One</text>
<text text-anchor="middle" x="436" y="-683" font-family="Helvetica,sans-Serif" font-size="10.00">ChildNode</text>
</a>
</g>
</g>
<!-- Node1&#45;&gt;Node3 -->
<g id="edge2" class="edge"><title>Node1&#45;&gt;Node3</title>
<path fill="none" stroke="midnightblue" d="M241.944,-569.117C283.711,-595.486 369.407,-649.589 411.126,-675.927"/>
<polygon fill="midnightblue" stroke="midnightblue" points="243.583,-566.013 233.259,-563.634 239.846,-571.932 243.583,-566.013"/>
</g>
<!-- Node9 -->
<g id="node9" class="node"><title>Node9</title>
<g id="a_node9"><a xlink:href="../../dc/d2f/class_nodes_1_1turtlecommands_1_1_two_child_node.html" target="_top" xlink:title="Nodes.turtlecommands.Two\lChildNode">
<polygon fill="white" stroke="black" points="361.5,-539 361.5,-569 510.5,-569 510.5,-539 361.5,-539"/>
<text text-anchor="start" x="369.5" y="-557" font-family="Helvetica,sans-Serif" font-size="10.00">Nodes.turtlecommands.Two</text>
<text text-anchor="middle" x="436" y="-546" font-family="Helvetica,sans-Serif" font-size="10.00">ChildNode</text>
</a>
</g>
</g>
<!-- Node1&#45;&gt;Node9 -->
<g id="edge8" class="edge"><title>Node1&#45;&gt;Node9</title>
<path fill="none" stroke="midnightblue" d="M331.791,-554C341.841,-554 351.831,-554 361.414,-554"/>
<polygon fill="midnightblue" stroke="midnightblue" points="331.733,-550.5 321.733,-554 331.733,-557.5 331.733,-550.5"/>
</g>
<!-- Node12 -->
<g id="node12" class="node"><title>Node12</title>
<g id="a_node12"><a xlink:href="../../d6/dfd/class_nodes_1_1turtlecommands_1_1_zero_children_node.html" target="_top" xlink:title="Nodes.turtlecommands.Zero\lChildrenNode">
<polygon fill="white" stroke="black" points="358,-257 358,-287 514,-287 514,-257 358,-257"/>
<text text-anchor="start" x="366" y="-275" font-family="Helvetica,sans-Serif" font-size="10.00">Nodes.turtlecommands.Zero</text>
<text text-anchor="middle" x="436" y="-264" font-family="Helvetica,sans-Serif" font-size="10.00">ChildrenNode</text>
</a>
</g>
</g>
<!-- Node1&#45;&gt;Node12 -->
<g id="edge11" class="edge"><title>Node1&#45;&gt;Node12</title>
<path fill="none" stroke="midnightblue" d="M231.803,-536.062C271.643,-484.289 386.333,-335.245 423.339,-287.155"/>
<polygon fill="midnightblue" stroke="midnightblue" points="228.794,-534.233 225.47,-544.293 234.342,-538.502 228.794,-534.233"/>
</g>
<!-- Node2 -->
<g id="node2" class="node"><title>Node2</title>
<g id="a_node2"><a xlink:href="../../df/dac/class_nodes_1_1_node.html" target="_top" xlink:title="Nodes.Node">
<polygon fill="white" stroke="black" points="0,-544.5 0,-563.5 76,-563.5 76,-544.5 0,-544.5"/>
<text text-anchor="middle" x="38" y="-551.5" font-family="Helvetica,sans-Serif" font-size="10.00">Nodes.Node</text>
</a>
</g>
</g>
<!-- Node2&#45;&gt;Node1 -->
<g id="edge1" class="edge"><title>Node2&#45;&gt;Node1</title>
<path fill="none" stroke="midnightblue" d="M86.1525,-554C94.367,-554 103.194,-554 112.241,-554"/>
<polygon fill="midnightblue" stroke="midnightblue" points="86.105,-550.5 76.105,-554 86.105,-557.5 86.105,-550.5"/>
</g>
<!-- Node4 -->
<g id="node4" class="node"><title>Node4</title>
<g id="a_node4"><a xlink:href="../../dc/db0/class_nodes_1_1turtlecommands_1_1_backward_node.html" target="_top" xlink:title="Nodes.turtlecommands.BackwardNode">
<polygon fill="white" stroke="black" points="556,-776.5 556,-795.5 760,-795.5 760,-776.5 556,-776.5"/>
<text text-anchor="middle" x="658" y="-783.5" font-family="Helvetica,sans-Serif" font-size="10.00">Nodes.turtlecommands.BackwardNode</text>
</a>
</g>
</g>
<!-- Node3&#45;&gt;Node4 -->
<g id="edge3" class="edge"><title>Node3&#45;&gt;Node4</title>
<path fill="none" stroke="midnightblue" d="M462.227,-712.518C484.038,-729.954 517.15,-753.73 550,-767 559.621,-770.887 570.048,-773.98 580.489,-776.442"/>
<polygon fill="midnightblue" stroke="midnightblue" points="464.41,-709.782 454.446,-706.181 459.99,-715.21 464.41,-709.782"/>
</g>
<!-- Node5 -->
<g id="node5" class="node"><title>Node5</title>
<g id="a_node5"><a xlink:href="../../d8/ddb/class_nodes_1_1turtlecommands_1_1_forward_node.html" target="_top" xlink:title="Nodes.turtlecommands.ForwardNode">
<polygon fill="white" stroke="black" points="560,-738.5 560,-757.5 756,-757.5 756,-738.5 560,-738.5"/>
<text text-anchor="middle" x="658" y="-745.5" font-family="Helvetica,sans-Serif" font-size="10.00">Nodes.turtlecommands.ForwardNode</text>
</a>
</g>
</g>
<!-- Node3&#45;&gt;Node5 -->
<g id="edge4" class="edge"><title>Node3&#45;&gt;Node5</title>
<path fill="none" stroke="midnightblue" d="M486.463,-709.409C506.053,-716.232 528.899,-723.61 550,-729 564.258,-732.642 579.762,-735.828 594.427,-738.499"/>
<polygon fill="midnightblue" stroke="midnightblue" points="487.431,-706.039 476.836,-706.011 485.101,-712.64 487.431,-706.039"/>
</g>
<!-- Node6 -->
<g id="node6" class="node"><title>Node6</title>
<g id="a_node6"><a xlink:href="../../d8/d7e/class_nodes_1_1turtlecommands_1_1_left_node.html" target="_top" xlink:title="Nodes.turtlecommands.LeftNode">
<polygon fill="white" stroke="black" points="570,-700.5 570,-719.5 746,-719.5 746,-700.5 570,-700.5"/>
<text text-anchor="middle" x="658" y="-707.5" font-family="Helvetica,sans-Serif" font-size="10.00">Nodes.turtlecommands.LeftNode</text>
</a>
</g>
</g>
<!-- Node3&#45;&gt;Node6 -->
<g id="edge5" class="edge"><title>Node3&#45;&gt;Node6</title>
<path fill="none" stroke="midnightblue" d="M522.223,-698.36C537.809,-699.706 554.094,-701.113 569.738,-702.464"/>
<polygon fill="midnightblue" stroke="midnightblue" points="522.36,-694.859 512.096,-697.486 521.758,-701.833 522.36,-694.859"/>
</g>
<!-- Node7 -->
<g id="node7" class="node"><title>Node7</title>
<g id="a_node7"><a xlink:href="../../d0/dcd/class_nodes_1_1turtlecommands_1_1_right_node.html" target="_top" xlink:title="Nodes.turtlecommands.RightNode">
<polygon fill="white" stroke="black" points="567,-662.5 567,-681.5 749,-681.5 749,-662.5 567,-662.5"/>
<text text-anchor="middle" x="658" y="-669.5" font-family="Helvetica,sans-Serif" font-size="10.00">Nodes.turtlecommands.RightNode</text>
</a>
</g>
</g>
<!-- Node3&#45;&gt;Node7 -->
<g id="edge6" class="edge"><title>Node3&#45;&gt;Node7</title>
<path fill="none" stroke="midnightblue" d="M522.095,-683.651C536.699,-682.39 551.922,-681.075 566.658,-679.802"/>
<polygon fill="midnightblue" stroke="midnightblue" points="521.758,-680.167 512.096,-684.514 522.36,-687.141 521.758,-680.167"/>
</g>
<!-- Node8 -->
<g id="node8" class="node"><title>Node8</title>
<g id="a_node8"><a xlink:href="../../dc/d88/class_nodes_1_1turtlecommands_1_1_set_heading_node.html" target="_top" xlink:title="Nodes.turtlecommands.Set\lHeadingNode">
<polygon fill="white" stroke="black" points="583.5,-613 583.5,-643 732.5,-643 732.5,-613 583.5,-613"/>
<text text-anchor="start" x="591.5" y="-631" font-family="Helvetica,sans-Serif" font-size="10.00">Nodes.turtlecommands.Set</text>
<text text-anchor="middle" x="658" y="-620" font-family="Helvetica,sans-Serif" font-size="10.00">HeadingNode</text>
</a>
</g>
</g>
<!-- Node3&#45;&gt;Node8 -->
<g id="edge7" class="edge"><title>Node3&#45;&gt;Node8</title>
<path fill="none" stroke="midnightblue" d="M488.062,-672.685C507.345,-666.071 529.562,-658.81 550,-653 562.294,-649.505 575.482,-646.127 588.254,-643.044"/>
<polygon fill="midnightblue" stroke="midnightblue" points="486.868,-669.394 478.562,-675.971 489.157,-676.009 486.868,-669.394"/>
</g>
<!-- Node10 -->
<g id="node10" class="node"><title>Node10</title>
<g id="a_node10"><a xlink:href="../../d1/dd7/class_nodes_1_1turtlecommands_1_1_set_position_node.html" target="_top" xlink:title="Nodes.turtlecommands.Set\lPositionNode">
<polygon fill="white" stroke="black" points="583.5,-564 583.5,-594 732.5,-594 732.5,-564 583.5,-564"/>
<text text-anchor="start" x="591.5" y="-582" font-family="Helvetica,sans-Serif" font-size="10.00">Nodes.turtlecommands.Set</text>
<text text-anchor="middle" x="658" y="-571" font-family="Helvetica,sans-Serif" font-size="10.00">PositionNode</text>
</a>
</g>
</g>
<!-- Node9&#45;&gt;Node10 -->
<g id="edge9" class="edge"><title>Node9&#45;&gt;Node10</title>
<path fill="none" stroke="midnightblue" d="M520.55,-563.494C541.138,-565.834 563.039,-568.323 583.132,-570.606"/>
<polygon fill="midnightblue" stroke="midnightblue" points="520.894,-560.011 510.563,-562.359 520.104,-566.966 520.894,-560.011"/>
</g>
<!-- Node11 -->
<g id="node11" class="node"><title>Node11</title>
<g id="a_node11"><a xlink:href="../../df/d0e/class_nodes_1_1turtlecommands_1_1_set_towards_node.html" target="_top" xlink:title="Nodes.turtlecommands.Set\lTowardsNode">
<polygon fill="white" stroke="black" points="583.5,-515 583.5,-545 732.5,-545 732.5,-515 583.5,-515"/>
<text text-anchor="start" x="591.5" y="-533" font-family="Helvetica,sans-Serif" font-size="10.00">Nodes.turtlecommands.Set</text>
<text text-anchor="middle" x="658" y="-522" font-family="Helvetica,sans-Serif" font-size="10.00">TowardsNode</text>
</a>
</g>
</g>
<!-- Node9&#45;&gt;Node11 -->
<g id="edge10" class="edge"><title>Node9&#45;&gt;Node11</title>
<path fill="none" stroke="midnightblue" d="M520.55,-544.885C541.138,-542.64 563.039,-540.25 583.132,-538.058"/>
<polygon fill="midnightblue" stroke="midnightblue" points="520.124,-541.411 510.563,-545.975 520.883,-548.37 520.124,-541.411"/>
</g>
<!-- Node13 -->
<g id="node13" class="node"><title>Node13</title>
<g id="a_node13"><a xlink:href="../../d1/d2a/class_nodes_1_1turtlecommands_1_1_heading_node.html" target="_top" xlink:title="Nodes.turtlecommands.HeadingNode">
<polygon fill="white" stroke="black" points="559,-476.5 559,-495.5 757,-495.5 757,-476.5 559,-476.5"/>
<text text-anchor="middle" x="658" y="-483.5" font-family="Helvetica,sans-Serif" font-size="10.00">Nodes.turtlecommands.HeadingNode</text>
</a>
</g>
</g>
<!-- Node12&#45;&gt;Node13 -->
<g id="edge12" class="edge"><title>Node12&#45;&gt;Node13</title>
<path fill="none" stroke="midnightblue" d="M443.993,-296.813C457.22,-338.887 490.09,-423.763 550,-466 556.024,-470.247 562.695,-473.664 569.678,-476.405"/>
<polygon fill="midnightblue" stroke="midnightblue" points="447.297,-295.647 441.049,-287.09 440.597,-297.676 447.297,-295.647"/>
</g>
<!-- Node14 -->
<g id="node14" class="node"><title>Node14</title>
<g id="a_node14"><a xlink:href="../../d8/dd5/class_nodes_1_1turtlecommands_1_1_hide_turtle_node.html" target="_top" xlink:title="Nodes.turtlecommands.Hide\lTurtleNode">
<polygon fill="white" stroke="black" points="580.5,-427 580.5,-457 735.5,-457 735.5,-427 580.5,-427"/>
<text text-anchor="start" x="588.5" y="-445" font-family="Helvetica,sans-Serif" font-size="10.00">Nodes.turtlecommands.Hide</text>
<text text-anchor="middle" x="658" y="-434" font-family="Helvetica,sans-Serif" font-size="10.00">TurtleNode</text>
</a>
</g>
</g>
<!-- Node12&#45;&gt;Node14 -->
<g id="edge13" class="edge"><title>Node12&#45;&gt;Node14</title>
<path fill="none" stroke="midnightblue" d="M448.904,-295.94C466.418,-328.581 502.286,-386.473 550,-417 559.24,-422.912 569.727,-427.429 580.435,-430.88"/>
<polygon fill="midnightblue" stroke="midnightblue" points="451.997,-294.301 444.261,-287.062 445.794,-297.545 451.997,-294.301"/>
</g>
<!-- Node15 -->
<g id="node15" class="node"><title>Node15</title>
<g id="a_node15"><a xlink:href="../../d4/dd2/class_nodes_1_1turtlecommands_1_1_home_node.html" target="_top" xlink:title="Nodes.turtlecommands.HomeNode">
<polygon fill="white" stroke="black" points="564,-388.5 564,-407.5 752,-407.5 752,-388.5 564,-388.5"/>
<text text-anchor="middle" x="658" y="-395.5" font-family="Helvetica,sans-Serif" font-size="10.00">Nodes.turtlecommands.HomeNode</text>
</a>
</g>
</g>
<!-- Node12&#45;&gt;Node15 -->
<g id="edge14" class="edge"><title>Node12&#45;&gt;Node15</title>
<path fill="none" stroke="midnightblue" d="M454.48,-295.2C474.623,-320.137 510.118,-358.895 550,-379 557.666,-382.864 565.986,-385.955 574.487,-388.425"/>
<polygon fill="midnightblue" stroke="midnightblue" points="457.199,-292.996 448.253,-287.32 451.707,-297.336 457.199,-292.996"/>
</g>
<!-- Node17 -->
<g id="node17" class="node"><title>Node17</title>
<g id="a_node17"><a xlink:href="../../d9/d76/class_nodes_1_1turtlecommands_1_1_i_d_node.html" target="_top" xlink:title="Nodes.turtlecommands.IDNode">
<polygon fill="white" stroke="black" points="574,-350.5 574,-369.5 742,-369.5 742,-350.5 574,-350.5"/>
<text text-anchor="middle" x="658" y="-357.5" font-family="Helvetica,sans-Serif" font-size="10.00">Nodes.turtlecommands.IDNode</text>
</a>
</g>
</g>
<!-- Node12&#45;&gt;Node17 -->
<g id="edge16" class="edge"><title>Node12&#45;&gt;Node17</title>
<path fill="none" stroke="midnightblue" d="M465.311,-292.964C487.324,-308.262 519.203,-328.293 550,-340 561.394,-344.331 573.839,-347.749 586.082,-350.44"/>
<polygon fill="midnightblue" stroke="midnightblue" points="467.278,-290.068 457.092,-287.152 463.236,-295.783 467.278,-290.068"/>
</g>
<!-- Node18 -->
<g id="node18" class="node"><title>Node18</title>
<g id="a_node18"><a xlink:href="../../d2/daf/class_nodes_1_1turtlecommands_1_1_is_pen_down_node.html" target="_top" xlink:title="Nodes.turtlecommands.IsPen\lDownNode">
<polygon fill="white" stroke="black" points="579,-301 579,-331 737,-331 737,-301 579,-301"/>
<text text-anchor="start" x="587" y="-319" font-family="Helvetica,sans-Serif" font-size="10.00">Nodes.turtlecommands.IsPen</text>
<text text-anchor="middle" x="658" y="-308" font-family="Helvetica,sans-Serif" font-size="10.00">DownNode</text>
</a>
</g>
</g>
<!-- Node12&#45;&gt;Node18 -->
<g id="edge17" class="edge"><title>Node12&#45;&gt;Node18</title>
<path fill="none" stroke="midnightblue" d="M521.989,-288.998C541.724,-292.945 562.593,-297.119 581.869,-300.974"/>
<polygon fill="midnightblue" stroke="midnightblue" points="522.588,-285.548 512.096,-287.019 521.216,-292.413 522.588,-285.548"/>
</g>
<!-- Node19 -->
<g id="node19" class="node"><title>Node19</title>
<g id="a_node19"><a xlink:href="../../df/d31/class_nodes_1_1turtlecommands_1_1_is_showing_node.html" target="_top" xlink:title="Nodes.turtlecommands.IsShowingNode">
<polygon fill="white" stroke="black" points="555,-262.5 555,-281.5 761,-281.5 761,-262.5 555,-262.5"/>
<text text-anchor="middle" x="658" y="-269.5" font-family="Helvetica,sans-Serif" font-size="10.00">Nodes.turtlecommands.IsShowingNode</text>
</a>
</g>
</g>
<!-- Node12&#45;&gt;Node19 -->
<g id="edge18" class="edge"><title>Node12&#45;&gt;Node19</title>
<path fill="none" stroke="midnightblue" d="M524.527,-272C534.487,-272 544.705,-272 554.833,-272"/>
<polygon fill="midnightblue" stroke="midnightblue" points="524.254,-268.5 514.254,-272 524.254,-275.5 524.254,-268.5"/>
</g>
<!-- Node20 -->
<g id="node20" class="node"><title>Node20</title>
<g id="a_node20"><a xlink:href="../../d0/d04/class_nodes_1_1turtlecommands_1_1_pen_down_node.html" target="_top" xlink:title="Nodes.turtlecommands.Pen\lDownNode">
<polygon fill="white" stroke="black" points="582.5,-213 582.5,-243 733.5,-243 733.5,-213 582.5,-213"/>
<text text-anchor="start" x="590.5" y="-231" font-family="Helvetica,sans-Serif" font-size="10.00">Nodes.turtlecommands.Pen</text>
<text text-anchor="middle" x="658" y="-220" font-family="Helvetica,sans-Serif" font-size="10.00">DownNode</text>
</a>
</g>
</g>
<!-- Node12&#45;&gt;Node20 -->
<g id="edge19" class="edge"><title>Node12&#45;&gt;Node20</title>
<path fill="none" stroke="midnightblue" d="M522.044,-254.991C541.89,-251.022 562.881,-246.824 582.242,-242.952"/>
<polygon fill="midnightblue" stroke="midnightblue" points="521.216,-251.587 512.096,-256.981 522.588,-258.452 521.216,-251.587"/>
</g>
<!-- Node21 -->
<g id="node21" class="node"><title>Node21</title>
<g id="a_node21"><a xlink:href="../../d6/da9/class_nodes_1_1turtlecommands_1_1_pen_up_node.html" target="_top" xlink:title="Nodes.turtlecommands.Pen\lUpNode">
<polygon fill="white" stroke="black" points="582.5,-164 582.5,-194 733.5,-194 733.5,-164 582.5,-164"/>
<text text-anchor="start" x="590.5" y="-182" font-family="Helvetica,sans-Serif" font-size="10.00">Nodes.turtlecommands.Pen</text>
<text text-anchor="middle" x="658" y="-171" font-family="Helvetica,sans-Serif" font-size="10.00">UpNode</text>
</a>
</g>
</g>
<!-- Node12&#45;&gt;Node21 -->
<g id="edge20" class="edge"><title>Node12&#45;&gt;Node21</title>
<path fill="none" stroke="midnightblue" d="M465.389,-251.03C487.442,-235.665 519.337,-215.405 550,-203 560.236,-198.859 571.326,-195.362 582.358,-192.431"/>
<polygon fill="midnightblue" stroke="midnightblue" points="463.292,-248.226 457.152,-256.861 467.336,-253.94 463.292,-248.226"/>
</g>
<!-- Node22 -->
<g id="node22" class="node"><title>Node22</title>
<g id="a_node22"><a xlink:href="../../dc/d1b/class_nodes_1_1turtlecommands_1_1_show_turtle_node.html" target="_top" xlink:title="Nodes.turtlecommands.Show\lTurtleNode">
<polygon fill="white" stroke="black" points="579,-115 579,-145 737,-145 737,-115 579,-115"/>
<text text-anchor="start" x="587" y="-133" font-family="Helvetica,sans-Serif" font-size="10.00">Nodes.turtlecommands.Show</text>
<text text-anchor="middle" x="658" y="-122" font-family="Helvetica,sans-Serif" font-size="10.00">TurtleNode</text>
</a>
</g>
</g>
<!-- Node12&#45;&gt;Node22 -->
<g id="edge21" class="edge"><title>Node12&#45;&gt;Node22</title>
<path fill="none" stroke="midnightblue" d="M452.85,-248.497C472.42,-221.391 508.277,-177.549 550,-154 558.953,-148.947 568.89,-144.958 578.997,-141.808"/>
<polygon fill="midnightblue" stroke="midnightblue" points="449.76,-246.806 446.853,-256.994 455.479,-250.842 449.76,-246.806"/>
</g>
<!-- Node23 -->
<g id="node23" class="node"><title>Node23</title>
<g id="a_node23"><a xlink:href="../../d2/df1/class_nodes_1_1turtlecommands_1_1_tell_node.html" target="_top" xlink:title="Nodes.turtlecommands.TellNode">
<polygon fill="white" stroke="black" points="571.5,-76.5 571.5,-95.5 744.5,-95.5 744.5,-76.5 571.5,-76.5"/>
<text text-anchor="middle" x="658" y="-83.5" font-family="Helvetica,sans-Serif" font-size="10.00">Nodes.turtlecommands.TellNode</text>
</a>
</g>
</g>
<!-- Node12&#45;&gt;Node23 -->
<g id="edge22" class="edge"><title>Node12&#45;&gt;Node23</title>
<path fill="none" stroke="midnightblue" d="M446.265,-247.401C461.684,-210.088 496.323,-139.848 550,-105 556.567,-100.736 563.817,-97.3559 571.356,-94.6841"/>
<polygon fill="midnightblue" stroke="midnightblue" points="442.892,-246.411 442.426,-256.995 449.391,-249.011 442.892,-246.411"/>
</g>
<!-- Node24 -->
<g id="node24" class="node"><title>Node24</title>
<g id="a_node24"><a xlink:href="../../d8/d61/class_nodes_1_1turtlecommands_1_1_x_coordinate_node.html" target="_top" xlink:title="Nodes.turtlecommands.XCoordinateNode">
<polygon fill="white" stroke="black" points="550,-38.5 550,-57.5 766,-57.5 766,-38.5 550,-38.5"/>
<text text-anchor="middle" x="658" y="-45.5" font-family="Helvetica,sans-Serif" font-size="10.00">Nodes.turtlecommands.XCoordinateNode</text>
</a>
</g>
</g>
<!-- Node12&#45;&gt;Node24 -->
<g id="edge23" class="edge"><title>Node12&#45;&gt;Node24</title>
<path fill="none" stroke="midnightblue" d="M443.171,-247.005C455.435,-202.953 487.269,-111.914 550,-67 555.292,-63.2107 561.102,-60.0976 567.192,-57.5474"/>
<polygon fill="midnightblue" stroke="midnightblue" points="439.729,-246.327 440.53,-256.891 446.492,-248.133 439.729,-246.327"/>
</g>
<!-- Node25 -->
<g id="node25" class="node"><title>Node25</title>
<g id="a_node25"><a xlink:href="../../da/db9/class_nodes_1_1turtlecommands_1_1_y_coordinate_node.html" target="_top" xlink:title="Nodes.turtlecommands.YCoordinateNode">
<polygon fill="white" stroke="black" points="550.5,-0.5 550.5,-19.5 765.5,-19.5 765.5,-0.5 550.5,-0.5"/>
<text text-anchor="middle" x="658" y="-7.5" font-family="Helvetica,sans-Serif" font-size="10.00">Nodes.turtlecommands.YCoordinateNode</text>
</a>
</g>
</g>
<!-- Node12&#45;&gt;Node25 -->
<g id="edge24" class="edge"><title>Node12&#45;&gt;Node25</title>
<path fill="none" stroke="midnightblue" d="M440.915,-246.743C450.113,-196.557 478.019,-84.3622 550,-29 554.86,-25.2617 560.211,-22.1664 565.85,-19.611"/>
<polygon fill="midnightblue" stroke="midnightblue" points="437.442,-246.292 439.183,-256.742 444.339,-247.487 437.442,-246.292"/>
</g>
<!-- Node16 -->
<g id="node16" class="node"><title>Node16</title>
<g id="a_node16"><a xlink:href="../../de/d2e/class_nodes_1_1turtlecommands_1_1_clear_screen_node.html" target="_top" xlink:title="Nodes.turtlecommands.Clear\lScreenNode">
<polygon fill="white" stroke="black" points="802,-383 802,-413 960,-413 960,-383 802,-383"/>
<text text-anchor="start" x="810" y="-401" font-family="Helvetica,sans-Serif" font-size="10.00">Nodes.turtlecommands.Clear</text>
<text text-anchor="middle" x="881" y="-390" font-family="Helvetica,sans-Serif" font-size="10.00">ScreenNode</text>
</a>
</g>
</g>
<!-- Node15&#45;&gt;Node16 -->
<g id="edge15" class="edge"><title>Node15&#45;&gt;Node16</title>
<path fill="none" stroke="midnightblue" d="M762.2,-398C775.483,-398 788.907,-398 801.7,-398"/>
<polygon fill="midnightblue" stroke="midnightblue" points="762.083,-394.5 752.083,-398 762.083,-401.5 762.083,-394.5"/>
</g>
</g>
</svg>
