<?xml version="1.0" encoding="UTF-8" standalone="no"?>
<!DOCTYPE svg PUBLIC "-//W3C//DTD SVG 1.1//EN"
 "http://www.w3.org/Graphics/SVG/1.1/DTD/svg11.dtd">
<!-- Generated by graphviz version 2.36.0 (20140111.2315)
 -->
<!-- Title: Nodes.turtlecommands.IsShowingNode Pages: 1 -->
<svg width="216pt" height="208pt"
 viewBox="0.00 0.00 216.00 208.00" xmlns="http://www.w3.org/2000/svg" xmlns:xlink="http://www.w3.org/1999/xlink">
<g id="graph0" class="graph" transform="scale(1 1) rotate(0) translate(4 204)">
<title>Nodes.turtlecommands.IsShowingNode</title>
<polygon fill="white" stroke="none" points="-4,4 -4,-204 212,-204 212,4 -4,4"/>
<!-- Node1 -->
<g id="node1" class="node"><title>Node1</title>
<polygon fill="#bfbfbf" stroke="black" points="1,-0.5 1,-19.5 207,-19.5 207,-0.5 1,-0.5"/>
<text text-anchor="middle" x="104" y="-7.5" font-family="Helvetica,sans-Serif" font-size="10.00">Nodes.turtlecommands.IsShowingNode</text>
</g>
<!-- Node2 -->
<g id="node2" class="node"><title>Node2</title>
<g id="a_node2"><a xlink:href="../../d6/dfd/class_nodes_1_1turtlecommands_1_1_zero_children_node.html" target="_top" xlink:title="Nodes.turtlecommands.Zero\lChildrenNode">
<polygon fill="white" stroke="black" points="26,-57 26,-87 182,-87 182,-57 26,-57"/>
<text text-anchor="start" x="34" y="-75" font-family="Helvetica,sans-Serif" font-size="10.00">Nodes.turtlecommands.Zero</text>
<text text-anchor="middle" x="104" y="-64" font-family="Helvetica,sans-Serif" font-size="10.00">ChildrenNode</text>
</a>
</g>
</g>
<!-- Node2&#45;&gt;Node1 -->
<g id="edge1" class="edge"><title>Node2&#45;&gt;Node1</title>
<path fill="none" stroke="midnightblue" d="M104,-46.5858C104,-37.0743 104,-26.7864 104,-19.7305"/>
<polygon fill="midnightblue" stroke="midnightblue" points="100.5,-46.7808 104,-56.7808 107.5,-46.7809 100.5,-46.7808"/>
</g>
<!-- Node3 -->
<g id="node3" class="node"><title>Node3</title>
<g id="a_node3"><a xlink:href="../../dc/d38/class_nodes_1_1turtlecommands_1_1_command_node.html" target="_top" xlink:title="Nodes.turtlecommands.CommandNode">
<polygon fill="white" stroke="black" points="-0.5,-124.5 -0.5,-143.5 208.5,-143.5 208.5,-124.5 -0.5,-124.5"/>
<text text-anchor="middle" x="104" y="-131.5" font-family="Helvetica,sans-Serif" font-size="10.00">Nodes.turtlecommands.CommandNode</text>
</a>
</g>
</g>
<!-- Node3&#45;&gt;Node2 -->
<g id="edge2" class="edge"><title>Node3&#45;&gt;Node2</title>
<path fill="none" stroke="midnightblue" d="M104,-114.371C104,-105.585 104,-95.2721 104,-87.1408"/>
<polygon fill="midnightblue" stroke="midnightblue" points="100.5,-114.403 104,-124.403 107.5,-114.403 100.5,-114.403"/>
</g>
<!-- Node4 -->
<g id="node4" class="node"><title>Node4</title>
<g id="a_node4"><a xlink:href="../../df/dac/class_nodes_1_1_node.html" target="_top" xlink:title="Nodes.Node">
<polygon fill="white" stroke="black" points="66,-180.5 66,-199.5 142,-199.5 142,-180.5 66,-180.5"/>
<text text-anchor="middle" x="104" y="-187.5" font-family="Helvetica,sans-Serif" font-size="10.00">Nodes.Node</text>
</a>
</g>
</g>
<!-- Node4&#45;&gt;Node3 -->
<g id="edge3" class="edge"><title>Node4&#45;&gt;Node3</title>
<path fill="none" stroke="midnightblue" d="M104,-169.805C104,-160.91 104,-150.78 104,-143.751"/>
<polygon fill="midnightblue" stroke="midnightblue" points="100.5,-170.083 104,-180.083 107.5,-170.083 100.5,-170.083"/>
</g>
</g>
</svg>
