<?xml version="1.0" encoding="UTF-8" standalone="no"?>
<!DOCTYPE svg PUBLIC "-//W3C//DTD SVG 1.1//EN"
 "http://www.w3.org/Graphics/SVG/1.1/DTD/svg11.dtd">
<!-- Generated by graphviz version 2.36.0 (20140111.2315)
 -->
<!-- Title: FrontEnd.CommandFactory.makeCommand Pages: 1 -->
<svg width="534pt" height="53pt"
 viewBox="0.00 0.00 534.00 53.00" xmlns="http://www.w3.org/2000/svg" xmlns:xlink="http://www.w3.org/1999/xlink">
<g id="graph0" class="graph" transform="scale(1 1) rotate(0) translate(4 49)">
<title>FrontEnd.CommandFactory.makeCommand</title>
<polygon fill="white" stroke="none" points="-4,4 -4,-49 530,-49 530,4 -4,4"/>
<!-- Node1 -->
<g id="node1" class="node"><title>Node1</title>
<polygon fill="#bfbfbf" stroke="black" points="0.5,-1 0.5,-31 175.5,-31 175.5,-1 0.5,-1"/>
<text text-anchor="start" x="8.5" y="-19" font-family="Helvetica,sans-Serif" font-size="10.00">FrontEnd.CommandFactory.make</text>
<text text-anchor="middle" x="88" y="-8" font-family="Helvetica,sans-Serif" font-size="10.00">Command</text>
</g>
<!-- Node2 -->
<g id="node2" class="node"><title>Node2</title>
<g id="a_node2"><a xlink:href="../../df/dec/class_front_end_1_1_view.html#a839d96c7ec7c494a854d6086d5cd961b" target="_top" xlink:title="FrontEnd.View.makeEnterButton">
<polygon fill="white" stroke="black" points="212,-25.5 212,-44.5 382,-44.5 382,-25.5 212,-25.5"/>
<text text-anchor="middle" x="297" y="-32.5" font-family="Helvetica,sans-Serif" font-size="10.00">FrontEnd.View.makeEnterButton</text>
</a>
</g>
</g>
<!-- Node1&#45;&gt;Node2 -->
<g id="edge1" class="edge"><title>Node1&#45;&gt;Node2</title>
<path fill="none" stroke="midnightblue" d="M185.742,-24.8797C194.429,-25.6771 203.18,-26.4803 211.749,-27.2668"/>
<polygon fill="midnightblue" stroke="midnightblue" points="185.865,-21.3764 175.587,-23.9476 185.225,-28.3471 185.865,-21.3764"/>
</g>
<!-- Node3 -->
<g id="node3" class="node"><title>Node3</title>
<g id="a_node3"><a xlink:href="../../df/dec/class_front_end_1_1_view.html#a079d7e899ded516b169dc6e66da79e1e" target="_top" xlink:title="FrontEnd.View.View">
<polygon fill="white" stroke="black" points="418.5,-6.5 418.5,-25.5 525.5,-25.5 525.5,-6.5 418.5,-6.5"/>
<text text-anchor="middle" x="472" y="-13.5" font-family="Helvetica,sans-Serif" font-size="10.00">FrontEnd.View.View</text>
</a>
</g>
</g>
<!-- Node1&#45;&gt;Node3 -->
<g id="edge3" class="edge"><title>Node1&#45;&gt;Node3</title>
<path fill="none" stroke="midnightblue" d="M185.933,-16C259.805,-16 358.697,-16 418.472,-16"/>
<polygon fill="midnightblue" stroke="midnightblue" points="185.682,-12.5001 175.682,-16 185.682,-19.5001 185.682,-12.5001"/>
</g>
<!-- Node2&#45;&gt;Node3 -->
<g id="edge2" class="edge"><title>Node2&#45;&gt;Node3</title>
<path fill="none" stroke="midnightblue" d="M392.223,-24.6518C401.06,-23.6813 409.788,-22.7227 418.036,-21.8169"/>
<polygon fill="midnightblue" stroke="midnightblue" points="391.778,-21.1796 382.219,-25.7505 392.542,-28.1378 391.778,-21.1796"/>
</g>
</g>
</svg>
