<?xml version="1.0" encoding="UTF-8" standalone="no"?>
<!DOCTYPE svg PUBLIC "-//W3C//DTD SVG 1.1//EN"
 "http://www.w3.org/Graphics/SVG/1.1/DTD/svg11.dtd">
<!-- Generated by graphviz version 2.36.0 (20140111.2315)
 -->
<!-- Title: Backend.SceneUpdater Pages: 1 -->
<svg width="340pt" height="96pt"
 viewBox="0.00 0.00 340.00 96.00" xmlns="http://www.w3.org/2000/svg" xmlns:xlink="http://www.w3.org/1999/xlink">
<g id="graph0" class="graph" transform="scale(1 1) rotate(0) translate(4 92)">
<title>Backend.SceneUpdater</title>
<polygon fill="white" stroke="none" points="-4,4 -4,-92 336,-92 336,4 -4,4"/>
<!-- Node1 -->
<g id="node1" class="node"><title>Node1</title>
<polygon fill="#bfbfbf" stroke="black" points="83,-0.5 83,-19.5 213,-19.5 213,-0.5 83,-0.5"/>
<text text-anchor="middle" x="148" y="-7.5" font-family="Helvetica,sans-Serif" font-size="10.00">Backend.SceneUpdater</text>
</g>
<!-- Node2 -->
<g id="node2" class="node"><title>Node2</title>
<polygon fill="white" stroke="#bfbfbf" points="-0.5,-68.5 -0.5,-87.5 88.5,-87.5 88.5,-68.5 -0.5,-68.5"/>
<text text-anchor="middle" x="44" y="-75.5" font-family="Helvetica,sans-Serif" font-size="10.00">List&lt; Double &gt;</text>
</g>
<!-- Node2&#45;&gt;Node1 -->
<g id="edge1" class="edge"><title>Node2&#45;&gt;Node1</title>
<path fill="none" stroke="#9a32cd" stroke-dasharray="5,2" d="M56.7825,-59.9981C63.1123,-52.4772 71.2642,-43.9979 80,-38 91.5186,-30.0914 105.693,-23.9942 118.115,-19.6119"/>
<polygon fill="#9a32cd" stroke="#9a32cd" points="53.7571,-58.1786 50.2631,-68.1807 59.2319,-62.5406 53.7571,-58.1786"/>
<text text-anchor="middle" x="112" y="-41.5" font-family="Helvetica,sans-Serif" font-size="10.00"> returnValues</text>
</g>
<!-- Node3 -->
<g id="node3" class="node"><title>Node3</title>
<polygon fill="white" stroke="#bfbfbf" points="106,-68.5 106,-87.5 190,-87.5 190,-68.5 106,-68.5"/>
<text text-anchor="middle" x="148" y="-75.5" font-family="Helvetica,sans-Serif" font-size="10.00">List&lt; String &gt;</text>
</g>
<!-- Node3&#45;&gt;Node1 -->
<g id="edge2" class="edge"><title>Node3&#45;&gt;Node1</title>
<path fill="none" stroke="#9a32cd" stroke-dasharray="5,2" d="M148,-58.0413C148,-45.4724 148,-29.5631 148,-19.8411"/>
<polygon fill="#9a32cd" stroke="#9a32cd" points="144.5,-58.3716 148,-68.3717 151.5,-58.3717 144.5,-58.3716"/>
<text text-anchor="middle" x="179" y="-41.5" font-family="Helvetica,sans-Serif" font-size="10.00"> myVariables</text>
</g>
<!-- Node4 -->
<g id="node4" class="node"><title>Node4</title>
<polygon fill="white" stroke="#bfbfbf" points="207.5,-68.5 207.5,-87.5 332.5,-87.5 332.5,-68.5 207.5,-68.5"/>
<text text-anchor="middle" x="270" y="-75.5" font-family="Helvetica,sans-Serif" font-size="10.00">List&lt; Backend.Turtle &gt;</text>
</g>
<!-- Node4&#45;&gt;Node1 -->
<g id="edge3" class="edge"><title>Node4&#45;&gt;Node1</title>
<path fill="none" stroke="#9a32cd" stroke-dasharray="5,2" d="M251.235,-62.375C240.665,-54.5425 227.008,-45.0782 214,-38 200.733,-30.7812 185.122,-24.3108 172.414,-19.5149"/>
<polygon fill="#9a32cd" stroke="#9a32cd" points="249.22,-65.2392 259.306,-68.4824 253.444,-59.6572 249.22,-65.2392"/>
<text text-anchor="middle" x="250" y="-41.5" font-family="Helvetica,sans-Serif" font-size="10.00"> turtles</text>
</g>
</g>
</svg>
