<?xml version="1.0" encoding="UTF-8" standalone="no"?>
<!DOCTYPE svg PUBLIC "-//W3C//DTD SVG 1.1//EN"
 "http://www.w3.org/Graphics/SVG/1.1/DTD/svg11.dtd">
<!-- Generated by graphviz version 2.36.0 (20140111.2315)
 -->
<!-- Title: TurtleView.TurtleWindow.TurtleWindow Pages: 1 -->
<!--zoomable 273 -->
<svg id="main" version="1.1" xmlns="http://www.w3.org/2000/svg" xmlns:xlink="http://www.w3.org/1999/xlink" xml:space="preserve" onload="init(evt)">
<style type="text/css"><![CDATA[
.edge:hover path { stroke: red; }
.edge:hover polygon { stroke: red; fill: red; }
]]></style>
<script type="text/javascript"><![CDATA[
var edges = document.getElementsByTagName('g');
if (edges && edges.length) {
  for (var i=0;i<edges.length;i++) {
    if (edges[i].id.substr(0,4)=='edge') {
      edges[i].setAttribute('class','edge');
    }
  }
}
]]></script>
        <defs>
                <circle id="rim" cx="0" cy="0" r="7"/>
                <circle id="rim2" cx="0" cy="0" r="3.5"/>
                <g id="zoomPlus">
                        <use xlink:href="#rim" fill="#404040">
                                <set attributeName="fill" to="#808080" begin="zoomplus.mouseover" end="zoomplus.mouseout"/>
                        </use>
                        <path d="M-4,0h8M0,-4v8" fill="none" stroke="white" stroke-width="1.5" pointer-events="none"/>
                </g>
                <g id="zoomMin">
                        <use xlink:href="#rim" fill="#404040">
                                <set attributeName="fill" to="#808080" begin="zoomminus.mouseover" end="zoomminus.mouseout"/>
                        </use>
                        <path d="M-4,0h8" fill="none" stroke="white" stroke-width="1.5" pointer-events="none"/>
                </g>
                <g id="dirArrow">
                        <path fill="none" stroke="white" stroke-width="1.5" d="M0,-3.0v7 M-2.5,-0.5L0,-3.0L2.5,-0.5"/>
                </g>
               <g id="resetDef">
                       <use xlink:href="#rim2" fill="#404040">
                               <set attributeName="fill" to="#808080" begin="reset.mouseover" end="reset.mouseout"/>
                       </use>
               </g>
        </defs>

<script type="text/javascript">
var viewWidth = 1394;
var viewHeight = 273;
var sectionId = 'dynsection-2';
</script>
<script xlink:href="../../svgpan.js"/>
<svg id="graph" class="graph">
<g id="viewport">
<title>TurtleView.TurtleWindow.TurtleWindow</title>
<polygon fill="white" stroke="none" points="-4,4 -4,-269 1390,-269 1390,4 -4,4"/>
<!-- Node1 -->
<g id="node1" class="node"><title>Node1</title>
<polygon fill="#bfbfbf" stroke="black" points="0.5,-164 0.5,-194 129.5,-194 129.5,-164 0.5,-164"/>
<text text-anchor="start" x="8.5" y="-182" font-family="Helvetica,sans-Serif" font-size="10.00">TurtleView.TurtleWindow.</text>
<text text-anchor="middle" x="65" y="-171" font-family="Helvetica,sans-Serif" font-size="10.00">TurtleWindow</text>
</g>
<!-- Node2 -->
<g id="node2" class="node"><title>Node2</title>
<g id="a_node2"><a xlink:href="../../d4/d8a/class_turtle_view_1_1_turtle_window.html#a8b35462dc0695324294dd138277c615c" target="_top" xlink:title="TurtleView.TurtleWindow.change\lBackgroundColor">
<polygon fill="white" stroke="black" points="172,-227 172,-257 336,-257 336,-227 172,-227"/>
<text text-anchor="start" x="180" y="-245" font-family="Helvetica,sans-Serif" font-size="10.00">TurtleView.TurtleWindow.change</text>
<text text-anchor="middle" x="254" y="-234" font-family="Helvetica,sans-Serif" font-size="10.00">BackgroundColor</text>
</a>
</g>
</g>
<!-- Node1&#45;&gt;Node2 -->
<g id="edge1" class="edge"><title>Node1&#45;&gt;Node2</title>
<path fill="none" stroke="midnightblue" d="M110.791,-194.09C137.178,-202.98 170.746,-214.289 198.641,-223.687"/>
<polygon fill="midnightblue" stroke="midnightblue" points="197.657,-227.048 208.251,-226.924 199.891,-220.414 197.657,-227.048"/>
</g>
<!-- Node3 -->
<g id="node3" class="node"><title>Node3</title>
<g id="a_node3"><a xlink:href="../../d4/d8a/class_turtle_view_1_1_turtle_window.html#a55f7ffa346d2ced8f9e831efc900d0c0" target="_top" xlink:title="TurtleView.TurtleWindow.click">
<polygon fill="white" stroke="black" points="378.5,-147.5 378.5,-166.5 527.5,-166.5 527.5,-147.5 378.5,-147.5"/>
<text text-anchor="middle" x="453" y="-154.5" font-family="Helvetica,sans-Serif" font-size="10.00">TurtleView.TurtleWindow.click</text>
</a>
</g>
</g>
<!-- Node1&#45;&gt;Node3 -->
<g id="edge2" class="edge"><title>Node1&#45;&gt;Node3</title>
<path fill="none" stroke="midnightblue" d="M129.757,-182.553C185.81,-184.831 269.521,-186.177 342,-179 362.535,-176.967 384.915,-172.848 404.096,-168.718"/>
<polygon fill="midnightblue" stroke="midnightblue" points="405.091,-172.082 414.098,-166.502 403.577,-165.248 405.091,-172.082"/>
</g>
<!-- Node17 -->
<g id="node17" class="node"><title>Node17</title>
<g id="a_node17"><a xlink:href="../../d4/d8a/class_turtle_view_1_1_turtle_window.html#a82ab5227316aadf9d7caa8e1abe0fbd4" target="_top" xlink:title="TurtleView.TurtleWindow.makeGrid">
<polygon fill="white" stroke="black" points="166,-150.5 166,-169.5 342,-169.5 342,-150.5 166,-150.5"/>
<text text-anchor="middle" x="254" y="-157.5" font-family="Helvetica,sans-Serif" font-size="10.00">TurtleView.TurtleWindow.makeGrid</text>
</a>
</g>
</g>
<!-- Node1&#45;&gt;Node17 -->
<g id="edge17" class="edge"><title>Node1&#45;&gt;Node17</title>
<path fill="none" stroke="midnightblue" d="M129.571,-172.541C138.033,-171.681 146.861,-170.784 155.734,-169.883"/>
<polygon fill="midnightblue" stroke="midnightblue" points="156.159,-173.358 165.754,-168.865 155.452,-166.393 156.159,-173.358"/>
</g>
<!-- Node18 -->
<g id="node18" class="node"><title>Node18</title>
<g id="a_node18"><a xlink:href="../../d4/d8a/class_turtle_view_1_1_turtle_window.html#ab6961d80a7e356af4e9206478608ed40" target="_top" xlink:title="TurtleView.TurtleWindow.make\lTurtle">
<polygon fill="white" stroke="black" points="176,-101 176,-131 332,-131 332,-101 176,-101"/>
<text text-anchor="start" x="184" y="-119" font-family="Helvetica,sans-Serif" font-size="10.00">TurtleView.TurtleWindow.make</text>
<text text-anchor="middle" x="254" y="-108" font-family="Helvetica,sans-Serif" font-size="10.00">Turtle</text>
</a>
</g>
</g>
<!-- Node1&#45;&gt;Node18 -->
<g id="edge18" class="edge"><title>Node1&#45;&gt;Node18</title>
<path fill="none" stroke="midnightblue" d="M103.249,-163.999C121.949,-156.685 145.031,-147.983 166,-141 173.153,-138.618 180.681,-136.25 188.192,-133.976"/>
<polygon fill="midnightblue" stroke="midnightblue" points="189.439,-137.256 198.023,-131.046 187.439,-130.548 189.439,-137.256"/>
</g>
<!-- Node4 -->
<g id="node4" class="node"><title>Node4</title>
<g id="a_node4"><a xlink:href="../../d1/de0/class_backend_1_1_turtle.html#a56cc7f136ffa25bbe506ac4d48eb1298" target="_top" xlink:title="Backend.Turtle.showRing">
<polygon fill="white" stroke="black" points="590,-245.5 590,-264.5 724,-264.5 724,-245.5 590,-245.5"/>
<text text-anchor="middle" x="657" y="-252.5" font-family="Helvetica,sans-Serif" font-size="10.00">Backend.Turtle.showRing</text>
</a>
</g>
</g>
<!-- Node3&#45;&gt;Node4 -->
<g id="edge3" class="edge"><title>Node3&#45;&gt;Node4</title>
<path fill="none" stroke="midnightblue" d="M464.297,-166.734C482.741,-183.599 523.303,-218.155 564,-236 569.783,-238.536 575.922,-240.739 582.175,-242.653"/>
<polygon fill="midnightblue" stroke="midnightblue" points="581.489,-246.096 592.063,-245.427 583.381,-239.356 581.489,-246.096"/>
</g>
<!-- Node5 -->
<g id="node5" class="node"><title>Node5</title>
<g id="a_node5"><a xlink:href="../../d0/d46/class_pen_1_1_pen_options.html#a685386bb97365462feaa476bd353df67" target="_top" xlink:title="Pen.PenOptions.changePen">
<polygon fill="white" stroke="black" points="582.5,-207.5 582.5,-226.5 731.5,-226.5 731.5,-207.5 582.5,-207.5"/>
<text text-anchor="middle" x="657" y="-214.5" font-family="Helvetica,sans-Serif" font-size="10.00">Pen.PenOptions.changePen</text>
</a>
</g>
</g>
<!-- Node3&#45;&gt;Node5 -->
<g id="edge4" class="edge"><title>Node3&#45;&gt;Node5</title>
<path fill="none" stroke="midnightblue" d="M476.413,-166.51C498.406,-175.564 533.055,-189.094 564,-198 573.19,-200.645 582.996,-203.075 592.654,-205.249"/>
<polygon fill="midnightblue" stroke="midnightblue" points="592.118,-208.715 602.633,-207.422 593.607,-201.875 592.118,-208.715"/>
</g>
<!-- Node6 -->
<g id="node6" class="node"><title>Node6</title>
<g id="a_node6"><a xlink:href="../../d1/de0/class_backend_1_1_turtle.html#a5ecb58c234e1b7c851c17eaa4de8235d" target="_top" xlink:title="Backend.Turtle.getPen">
<polygon fill="white" stroke="black" points="595.5,-169.5 595.5,-188.5 718.5,-188.5 718.5,-169.5 595.5,-169.5"/>
<text text-anchor="middle" x="657" y="-176.5" font-family="Helvetica,sans-Serif" font-size="10.00">Backend.Turtle.getPen</text>
</a>
</g>
</g>
<!-- Node3&#45;&gt;Node6 -->
<g id="edge5" class="edge"><title>Node3&#45;&gt;Node6</title>
<path fill="none" stroke="midnightblue" d="M527.784,-165.036C546.517,-167.076 566.601,-169.263 585.183,-171.287"/>
<polygon fill="midnightblue" stroke="midnightblue" points="585.014,-174.789 595.334,-172.393 585.772,-167.831 585.014,-174.789"/>
</g>
<!-- Node7 -->
<g id="node7" class="node"><title>Node7</title>
<g id="a_node7"><a xlink:href="../../dc/d04/class_turtle_view_1_1_turtle_image_box.html#afc8ed7ffd8fe31dade346f0dee9d550c" target="_top" xlink:title="TurtleView.TurtleImageBox.change\lTurtle">
<polygon fill="white" stroke="black" points="568,-120 568,-150 746,-150 746,-120 568,-120"/>
<text text-anchor="start" x="576" y="-138" font-family="Helvetica,sans-Serif" font-size="10.00">TurtleView.TurtleImageBox.change</text>
<text text-anchor="middle" x="657" y="-127" font-family="Helvetica,sans-Serif" font-size="10.00">Turtle</text>
</a>
</g>
</g>
<!-- Node3&#45;&gt;Node7 -->
<g id="edge6" class="edge"><title>Node3&#45;&gt;Node7</title>
<path fill="none" stroke="midnightblue" d="M527.784,-148.964C537.505,-147.905 547.589,-146.807 557.638,-145.713"/>
<polygon fill="midnightblue" stroke="midnightblue" points="558.099,-149.183 567.661,-144.621 557.341,-142.224 558.099,-149.183"/>
</g>
<!-- Node8 -->
<g id="node8" class="node"><title>Node8</title>
<g id="a_node8"><a xlink:href="../../d9/d38/class_turtle_view_1_1_turtle_information.html#a3a64e1f1313c0c4f30a93c1fcc5f36c1" target="_top" xlink:title="TurtleView.TurtleInformation.change\lTurtle">
<polygon fill="white" stroke="black" points="564.5,-71 564.5,-101 749.5,-101 749.5,-71 564.5,-71"/>
<text text-anchor="start" x="572.5" y="-89" font-family="Helvetica,sans-Serif" font-size="10.00">TurtleView.TurtleInformation.change</text>
<text text-anchor="middle" x="657" y="-78" font-family="Helvetica,sans-Serif" font-size="10.00">Turtle</text>
</a>
</g>
</g>
<!-- Node3&#45;&gt;Node8 -->
<g id="edge7" class="edge"><title>Node3&#45;&gt;Node8</title>
<path fill="none" stroke="midnightblue" d="M473.922,-147.422C495.693,-137.209 531.774,-121.02 564,-110 570.296,-107.847 576.891,-105.777 583.534,-103.817"/>
<polygon fill="midnightblue" stroke="midnightblue" points="584.622,-107.146 593.272,-101.028 582.695,-100.417 584.622,-107.146"/>
</g>
<!-- Node16 -->
<g id="node16" class="node"><title>Node16</title>
<g id="a_node16"><a xlink:href="../../d1/de0/class_backend_1_1_turtle.html#aa99cd255ffa089963fad4be5955c8bb6" target="_top" xlink:title="Backend.Turtle.hideRing">
<polygon fill="white" stroke="black" points="592,-32.5 592,-51.5 722,-51.5 722,-32.5 592,-32.5"/>
<text text-anchor="middle" x="657" y="-39.5" font-family="Helvetica,sans-Serif" font-size="10.00">Backend.Turtle.hideRing</text>
</a>
</g>
</g>
<!-- Node3&#45;&gt;Node16 -->
<g id="edge16" class="edge"><title>Node3&#45;&gt;Node16</title>
<path fill="none" stroke="midnightblue" d="M461.961,-147.291C478.659,-127.625 519.497,-83.0823 564,-61 569.657,-58.1932 575.707,-55.8008 581.902,-53.7616"/>
<polygon fill="midnightblue" stroke="midnightblue" points="583.135,-57.0465 591.721,-50.8392 581.138,-50.3374 583.135,-57.0465"/>
</g>
<!-- Node9 -->
<g id="node9" class="node"><title>Node9</title>
<g id="a_node9"><a xlink:href="../../d9/d38/class_turtle_view_1_1_turtle_information.html#ad65201793ce738f9c6d6e592271c14e1" target="_top" xlink:title="TurtleView.TurtleInformation.update">
<polygon fill="white" stroke="black" points="786.5,-76.5 786.5,-95.5 969.5,-95.5 969.5,-76.5 786.5,-76.5"/>
<text text-anchor="middle" x="878" y="-83.5" font-family="Helvetica,sans-Serif" font-size="10.00">TurtleView.TurtleInformation.update</text>
</a>
</g>
</g>
<!-- Node8&#45;&gt;Node9 -->
<g id="edge8" class="edge"><title>Node8&#45;&gt;Node9</title>
<path fill="none" stroke="midnightblue" d="M749.607,-86C758.463,-86 767.481,-86 776.418,-86"/>
<polygon fill="midnightblue" stroke="midnightblue" points="776.462,-89.5001 786.462,-86 776.462,-82.5001 776.462,-89.5001"/>
</g>
<!-- Node10 -->
<g id="node10" class="node"><title>Node10</title>
<g id="a_node10"><a xlink:href="../../d9/d38/class_turtle_view_1_1_turtle_information.html#aca65258778dade3baa31e0d5ec643b3b" target="_top" xlink:title="TurtleView.TurtleInformation.emptyInfo">
<polygon fill="white" stroke="black" points="1006.5,-152.5 1006.5,-171.5 1203.5,-171.5 1203.5,-152.5 1006.5,-152.5"/>
<text text-anchor="middle" x="1105" y="-159.5" font-family="Helvetica,sans-Serif" font-size="10.00">TurtleView.TurtleInformation.emptyInfo</text>
</a>
</g>
</g>
<!-- Node9&#45;&gt;Node10 -->
<g id="edge9" class="edge"><title>Node9&#45;&gt;Node10</title>
<path fill="none" stroke="midnightblue" d="M896.988,-95.6734C921.138,-108.284 965.68,-130.232 1006,-143 1014.68,-145.747 1023.91,-148.167 1033.12,-150.278"/>
<polygon fill="midnightblue" stroke="midnightblue" points="1032.56,-153.736 1043.07,-152.448 1034.05,-146.897 1032.56,-153.736"/>
</g>
<!-- Node11 -->
<g id="node11" class="node"><title>Node11</title>
<g id="a_node11"><a xlink:href="../../d1/de0/class_backend_1_1_turtle.html#adc7cb6cc95ee918547d2b18d8bb20183" target="_top" xlink:title="Backend.Turtle.getID">
<polygon fill="white" stroke="black" points="1047.5,-114.5 1047.5,-133.5 1162.5,-133.5 1162.5,-114.5 1047.5,-114.5"/>
<text text-anchor="middle" x="1105" y="-121.5" font-family="Helvetica,sans-Serif" font-size="10.00">Backend.Turtle.getID</text>
</a>
</g>
</g>
<!-- Node9&#45;&gt;Node11 -->
<g id="edge10" class="edge"><title>Node9&#45;&gt;Node11</title>
<path fill="none" stroke="midnightblue" d="M935.487,-95.54C966.379,-100.757 1004.84,-107.253 1037.21,-112.72"/>
<polygon fill="midnightblue" stroke="midnightblue" points="1037.05,-116.242 1047.49,-114.456 1038.21,-109.34 1037.05,-116.242"/>
</g>
<!-- Node12 -->
<g id="node12" class="node"><title>Node12</title>
<g id="a_node12"><a xlink:href="../../d1/de0/class_backend_1_1_turtle.html#a715f94909b1ba74dc9e4f9eb4fd91e10" target="_top" xlink:title="Backend.Turtle.getXCord">
<polygon fill="white" stroke="black" points="1038.5,-76.5 1038.5,-95.5 1171.5,-95.5 1171.5,-76.5 1038.5,-76.5"/>
<text text-anchor="middle" x="1105" y="-83.5" font-family="Helvetica,sans-Serif" font-size="10.00">Backend.Turtle.getXCord</text>
</a>
</g>
</g>
<!-- Node9&#45;&gt;Node12 -->
<g id="edge11" class="edge"><title>Node9&#45;&gt;Node12</title>
<path fill="none" stroke="midnightblue" d="M969.544,-86C988.914,-86 1009.19,-86 1027.95,-86"/>
<polygon fill="midnightblue" stroke="midnightblue" points="1028.2,-89.5001 1038.2,-86 1028.2,-82.5001 1028.2,-89.5001"/>
</g>
<!-- Node14 -->
<g id="node14" class="node"><title>Node14</title>
<g id="a_node14"><a xlink:href="../../d1/de0/class_backend_1_1_turtle.html#a692174eccea232fc58e725cff6f50359" target="_top" xlink:title="Backend.Turtle.getYCord">
<polygon fill="white" stroke="black" points="1039,-38.5 1039,-57.5 1171,-57.5 1171,-38.5 1039,-38.5"/>
<text text-anchor="middle" x="1105" y="-45.5" font-family="Helvetica,sans-Serif" font-size="10.00">Backend.Turtle.getYCord</text>
</a>
</g>
</g>
<!-- Node9&#45;&gt;Node14 -->
<g id="edge13" class="edge"><title>Node9&#45;&gt;Node14</title>
<path fill="none" stroke="midnightblue" d="M935.487,-76.46C966.379,-71.2426 1004.84,-64.7475 1037.21,-59.28"/>
<polygon fill="midnightblue" stroke="midnightblue" points="1038.21,-62.6604 1047.49,-57.5439 1037.05,-55.7581 1038.21,-62.6604"/>
</g>
<!-- Node15 -->
<g id="node15" class="node"><title>Node15</title>
<g id="a_node15"><a xlink:href="../../d9/d38/class_turtle_view_1_1_turtle_information.html#a15bd13ad05cabb76c0861d0ab42722ef" target="_top" xlink:title="TurtleView.TurtleInformation.truncate">
<polygon fill="white" stroke="black" points="1010,-0.5 1010,-19.5 1200,-19.5 1200,-0.5 1010,-0.5"/>
<text text-anchor="middle" x="1105" y="-7.5" font-family="Helvetica,sans-Serif" font-size="10.00">TurtleView.TurtleInformation.truncate</text>
</a>
</g>
</g>
<!-- Node9&#45;&gt;Node15 -->
<g id="edge15" class="edge"><title>Node9&#45;&gt;Node15</title>
<path fill="none" stroke="midnightblue" d="M896.988,-76.3266C921.138,-63.7161 965.68,-41.7684 1006,-29 1014.68,-26.2527 1023.91,-23.8331 1033.12,-21.7223"/>
<polygon fill="midnightblue" stroke="midnightblue" points="1034.05,-25.1028 1043.07,-19.5522 1032.56,-18.2636 1034.05,-25.1028"/>
</g>
<!-- Node13 -->
<g id="node13" class="node"><title>Node13</title>
<g id="a_node13"><a xlink:href="../../d1/de0/class_backend_1_1_turtle.html#a33957258db9a7205d470c5a2d22b89af" target="_top" xlink:title="Backend.Turtle.getLocation">
<polygon fill="white" stroke="black" points="1240,-57.5 1240,-76.5 1386,-76.5 1386,-57.5 1240,-57.5"/>
<text text-anchor="middle" x="1313" y="-64.5" font-family="Helvetica,sans-Serif" font-size="10.00">Backend.Turtle.getLocation</text>
</a>
</g>
</g>
<!-- Node12&#45;&gt;Node13 -->
<g id="edge12" class="edge"><title>Node12&#45;&gt;Node13</title>
<path fill="none" stroke="midnightblue" d="M1171.75,-79.936C1190.2,-78.2344 1210.49,-76.3627 1229.77,-74.5845"/>
<polygon fill="midnightblue" stroke="midnightblue" points="1230.11,-78.0682 1239.74,-73.6645 1229.46,-71.0978 1230.11,-78.0682"/>
</g>
<!-- Node14&#45;&gt;Node13 -->
<g id="edge14" class="edge"><title>Node14&#45;&gt;Node13</title>
<path fill="none" stroke="midnightblue" d="M1171.18,-54.0117C1189.75,-55.7245 1210.22,-57.6129 1229.67,-59.4067"/>
<polygon fill="midnightblue" stroke="midnightblue" points="1229.45,-62.9014 1239.73,-60.3347 1230.1,-55.931 1229.45,-62.9014"/>
</g>
<!-- Node18&#45;&gt;Node3 -->
<g id="edge19" class="edge"><title>Node18&#45;&gt;Node3</title>
<path fill="none" stroke="midnightblue" d="M327.237,-131.034C349.989,-135.769 374.757,-140.924 396.184,-145.384"/>
<polygon fill="midnightblue" stroke="midnightblue" points="395.589,-148.834 406.092,-147.446 397.015,-141.981 395.589,-148.834"/>
</g>
</g>
</svg>
        <g id="navigator" transform="translate(0 0)" fill="#404254">
                <rect fill="#f2f5e9" fill-opacity="0.5" stroke="#606060" stroke-width=".5" x="0" y="0" width="60" height="60"/>
                <use id="zoomplus" xlink:href="#zoomPlus" x="17" y="9" onmousedown="handleZoom(evt,'in')"/>
                <use id="zoomminus" xlink:href="#zoomMin" x="42" y="9" onmousedown="handleZoom(evt,'out')"/>
                <use id="reset" xlink:href="#resetDef" x="30" y="36" onmousedown="handleReset()"/>
                <g id="arrowUp" xlink:href="#dirArrow" transform="translate(30 24)" onmousedown="handlePan(0,-1)">
                  <use xlink:href="#rim" fill="#404040">
                        <set attributeName="fill" to="#808080" begin="arrowUp.mouseover" end="arrowUp.mouseout"/>
                  </use>
                  <path fill="none" stroke="white" stroke-width="1.5" d="M0,-3.0v7 M-2.5,-0.5L0,-3.0L2.5,-0.5"/>
                </g>
                <g id="arrowRight" xlink:href="#dirArrow" transform="rotate(90) translate(36 -43)" onmousedown="handlePan(1,0)">
                  <use xlink:href="#rim" fill="#404040">
                        <set attributeName="fill" to="#808080" begin="arrowRight.mouseover" end="arrowRight.mouseout"/>
                  </use>
                  <path fill="none" stroke="white" stroke-width="1.5" d="M0,-3.0v7 M-2.5,-0.5L0,-3.0L2.5,-0.5"/>
                </g>
                <g id="arrowDown" xlink:href="#dirArrow" transform="rotate(180) translate(-30 -48)" onmousedown="handlePan(0,1)">
                  <use xlink:href="#rim" fill="#404040">
                        <set attributeName="fill" to="#808080" begin="arrowDown.mouseover" end="arrowDown.mouseout"/>
                  </use>
                  <path fill="none" stroke="white" stroke-width="1.5" d="M0,-3.0v7 M-2.5,-0.5L0,-3.0L2.5,-0.5"/>
                </g>
                <g id="arrowLeft" xlink:href="#dirArrow" transform="rotate(270) translate(-36 17)" onmousedown="handlePan(-1,0)">
                  <use xlink:href="#rim" fill="#404040">
                        <set attributeName="fill" to="#808080" begin="arrowLeft.mouseover" end="arrowLeft.mouseout"/>
                  </use>
                  <path fill="none" stroke="white" stroke-width="1.5" d="M0,-3.0v7 M-2.5,-0.5L0,-3.0L2.5,-0.5"/>
                </g>
        </g>
        <svg viewBox="0 0 15 15" width="100%" height="30px" preserveAspectRatio="xMaxYMin meet">
         <g id="arrow_out" transform="scale(0.3 0.3)">
          <a xlink:href="class_turtle_view_1_1_turtle_window_a82959fc46f81f3a875e126b5ecd6325d_cgraph_org.svg" target="_base">
           <rect id="button" ry="5" rx="5" y="6" x="6" height="38" width="38"
                fill="#f2f5e9" fill-opacity="0.5" stroke="#606060" stroke-width="1.0"/>
           <path id="arrow"
             d="M 11.500037,31.436501 C 11.940474,20.09759 22.043105,11.32322 32.158766,21.979434 L 37.068811,17.246167 C 37.068811,17.246167 37.088388,32 37.088388,32 L 22.160133,31.978069 C 22.160133,31.978069 26.997745,27.140456 26.997745,27.140456 C 18.528582,18.264221 13.291696,25.230495 11.500037,31.436501 z"
             style="fill:#404040;"/>
          </a>
         </g>
        </svg>
</svg>
