<?xml version="1.0" encoding="UTF-8" standalone="no"?>
<!DOCTYPE svg PUBLIC "-//W3C//DTD SVG 1.1//EN"
 "http://www.w3.org/Graphics/SVG/1.1/DTD/svg11.dtd">
<!-- Generated by graphviz version 2.36.0 (20140111.2315)
 -->
<!-- Title: TurtleView.TurtleWindow.changeBackgroundColor Pages: 1 -->
<svg width="540pt" height="87pt"
 viewBox="0.00 0.00 540.00 87.00" xmlns="http://www.w3.org/2000/svg" xmlns:xlink="http://www.w3.org/1999/xlink">
<g id="graph0" class="graph" transform="scale(1 1) rotate(0) translate(4 83)">
<title>TurtleView.TurtleWindow.changeBackgroundColor</title>
<polygon fill="white" stroke="none" points="-4,4 -4,-83 536,-83 536,4 -4,4"/>
<!-- Node1 -->
<g id="node1" class="node"><title>Node1</title>
<polygon fill="#bfbfbf" stroke="black" points="0,-24 0,-54 164,-54 164,-24 0,-24"/>
<text text-anchor="start" x="8" y="-42" font-family="Helvetica,sans-Serif" font-size="10.00">TurtleView.TurtleWindow.change</text>
<text text-anchor="middle" x="82" y="-31" font-family="Helvetica,sans-Serif" font-size="10.00">BackgroundColor</text>
</g>
<!-- Node2 -->
<g id="node2" class="node"><title>Node2</title>
<g id="a_node2"><a xlink:href="../../d0/d6a/class_turtle_view_1_1_background_color_box.html#ac30841a88d608da2e8bc8044b7bdc478" target="_top" xlink:title="TurtleView.BackgroundColor\lBox.handle">
<polygon fill="white" stroke="black" points="200,-49 200,-79 348,-79 348,-49 200,-49"/>
<text text-anchor="start" x="208" y="-67" font-family="Helvetica,sans-Serif" font-size="10.00">TurtleView.BackgroundColor</text>
<text text-anchor="middle" x="274" y="-56" font-family="Helvetica,sans-Serif" font-size="10.00">Box.handle</text>
</a>
</g>
</g>
<!-- Node1&#45;&gt;Node2 -->
<g id="edge1" class="edge"><title>Node1&#45;&gt;Node2</title>
<path fill="none" stroke="midnightblue" d="M174.224,-51.0031C182.854,-52.1387 191.527,-53.2798 199.955,-54.3888"/>
<polygon fill="midnightblue" stroke="midnightblue" points="174.499,-47.5093 164.128,-49.6748 173.586,-54.4495 174.499,-47.5093"/>
</g>
<!-- Node4 -->
<g id="node4" class="node"><title>Node4</title>
<g id="a_node4"><a xlink:href="../../d4/d8a/class_turtle_view_1_1_turtle_window.html#a82959fc46f81f3a875e126b5ecd6325d" target="_top" xlink:title="TurtleView.TurtleWindow.\lTurtleWindow">
<polygon fill="white" stroke="black" points="209.5,-0 209.5,-30 338.5,-30 338.5,-0 209.5,-0"/>
<text text-anchor="start" x="217.5" y="-18" font-family="Helvetica,sans-Serif" font-size="10.00">TurtleView.TurtleWindow.</text>
<text text-anchor="middle" x="274" y="-7" font-family="Helvetica,sans-Serif" font-size="10.00">TurtleWindow</text>
</a>
</g>
</g>
<!-- Node1&#45;&gt;Node4 -->
<g id="edge3" class="edge"><title>Node1&#45;&gt;Node4</title>
<path fill="none" stroke="midnightblue" d="M174.109,-27.4915C186.034,-25.9852 198.04,-24.4686 209.376,-23.0368"/>
<polygon fill="midnightblue" stroke="midnightblue" points="173.611,-24.0265 164.128,-28.7522 174.488,-30.9713 173.611,-24.0265"/>
</g>
<!-- Node3 -->
<g id="node3" class="node"><title>Node3</title>
<g id="a_node3"><a xlink:href="../../d0/d6a/class_turtle_view_1_1_background_color_box.html#a4f253f624878cbd8cf43214db4a0ae1a" target="_top" xlink:title="TurtleView.BackgroundColor\lBox.BackgroundColorBox">
<polygon fill="white" stroke="black" points="384,-49 384,-79 532,-79 532,-49 384,-49"/>
<text text-anchor="start" x="392" y="-67" font-family="Helvetica,sans-Serif" font-size="10.00">TurtleView.BackgroundColor</text>
<text text-anchor="middle" x="458" y="-56" font-family="Helvetica,sans-Serif" font-size="10.00">Box.BackgroundColorBox</text>
</a>
</g>
</g>
<!-- Node2&#45;&gt;Node3 -->
<g id="edge2" class="edge"><title>Node2&#45;&gt;Node3</title>
<path fill="none" stroke="midnightblue" d="M358.516,-64C366.992,-64 375.556,-64 383.91,-64"/>
<polygon fill="midnightblue" stroke="midnightblue" points="358.24,-60.5001 348.24,-64 358.24,-67.5001 358.24,-60.5001"/>
</g>
</g>
</svg>
