<?xml version="1.0" encoding="UTF-8" standalone="no"?>
<!DOCTYPE svg PUBLIC "-//W3C//DTD SVG 1.1//EN"
 "http://www.w3.org/Graphics/SVG/1.1/DTD/svg11.dtd">
<!-- Generated by graphviz version 2.36.0 (20140111.2315)
 -->
<!-- Title: TurtleView.TurtleWindow.makeTurtle Pages: 1 -->
<svg width="482pt" height="87pt"
 viewBox="0.00 0.00 482.00 87.00" xmlns="http://www.w3.org/2000/svg" xmlns:xlink="http://www.w3.org/1999/xlink">
<g id="graph0" class="graph" transform="scale(1 1) rotate(0) translate(4 83)">
<title>TurtleView.TurtleWindow.makeTurtle</title>
<polygon fill="white" stroke="none" points="-4,4 -4,-83 478,-83 478,4 -4,4"/>
<!-- Node1 -->
<g id="node1" class="node"><title>Node1</title>
<polygon fill="#bfbfbf" stroke="black" points="0,-24 0,-54 156,-54 156,-24 0,-24"/>
<text text-anchor="start" x="8" y="-42" font-family="Helvetica,sans-Serif" font-size="10.00">TurtleView.TurtleWindow.make</text>
<text text-anchor="middle" x="78" y="-31" font-family="Helvetica,sans-Serif" font-size="10.00">Turtle</text>
</g>
<!-- Node2 -->
<g id="node2" class="node"><title>Node2</title>
<g id="a_node2"><a xlink:href="../../df/dec/class_front_end_1_1_view.html#affad60393f506692d02f9dc2525780d2" target="_top" xlink:title="FrontEnd.View.makeTurtle\lButton">
<polygon fill="white" stroke="black" points="192,-49 192,-79 330,-79 330,-49 192,-49"/>
<text text-anchor="start" x="200" y="-67" font-family="Helvetica,sans-Serif" font-size="10.00">FrontEnd.View.makeTurtle</text>
<text text-anchor="middle" x="261" y="-56" font-family="Helvetica,sans-Serif" font-size="10.00">Button</text>
</a>
</g>
</g>
<!-- Node1&#45;&gt;Node2 -->
<g id="edge1" class="edge"><title>Node1&#45;&gt;Node2</title>
<path fill="none" stroke="midnightblue" d="M166.146,-51.0368C174.802,-52.2324 183.5,-53.4336 191.92,-54.5967"/>
<polygon fill="midnightblue" stroke="midnightblue" points="166.408,-47.5397 156.023,-49.6385 165.45,-54.4739 166.408,-47.5397"/>
</g>
<!-- Node4 -->
<g id="node4" class="node"><title>Node4</title>
<g id="a_node4"><a xlink:href="../../d4/d8a/class_turtle_view_1_1_turtle_window.html#a82959fc46f81f3a875e126b5ecd6325d" target="_top" xlink:title="TurtleView.TurtleWindow.\lTurtleWindow">
<polygon fill="white" stroke="black" points="196.5,-0 196.5,-30 325.5,-30 325.5,-0 196.5,-0"/>
<text text-anchor="start" x="204.5" y="-18" font-family="Helvetica,sans-Serif" font-size="10.00">TurtleView.TurtleWindow.</text>
<text text-anchor="middle" x="261" y="-7" font-family="Helvetica,sans-Serif" font-size="10.00">TurtleWindow</text>
</a>
</g>
</g>
<!-- Node1&#45;&gt;Node4 -->
<g id="edge3" class="edge"><title>Node1&#45;&gt;Node4</title>
<path fill="none" stroke="midnightblue" d="M166.183,-27.4398C176.381,-26.0876 186.635,-24.7279 196.427,-23.4296"/>
<polygon fill="midnightblue" stroke="midnightblue" points="165.476,-24.0029 156.023,-28.787 166.396,-30.9421 165.476,-24.0029"/>
</g>
<!-- Node3 -->
<g id="node3" class="node"><title>Node3</title>
<g id="a_node3"><a xlink:href="../../df/dec/class_front_end_1_1_view.html#a079d7e899ded516b169dc6e66da79e1e" target="_top" xlink:title="FrontEnd.View.View">
<polygon fill="white" stroke="black" points="366.5,-54.5 366.5,-73.5 473.5,-73.5 473.5,-54.5 366.5,-54.5"/>
<text text-anchor="middle" x="420" y="-61.5" font-family="Helvetica,sans-Serif" font-size="10.00">FrontEnd.View.View</text>
</a>
</g>
</g>
<!-- Node2&#45;&gt;Node3 -->
<g id="edge2" class="edge"><title>Node2&#45;&gt;Node3</title>
<path fill="none" stroke="midnightblue" d="M340.636,-64C349.372,-64 358.105,-64 366.404,-64"/>
<polygon fill="midnightblue" stroke="midnightblue" points="340.406,-60.5001 330.406,-64 340.406,-67.5001 340.406,-60.5001"/>
</g>
</g>
</svg>
