<?xml version="1.0" encoding="UTF-8" standalone="no"?>
<!DOCTYPE svg PUBLIC "-//W3C//DTD SVG 1.1//EN"
 "http://www.w3.org/Graphics/SVG/1.1/DTD/svg11.dtd">
<!-- Generated by graphviz version 2.36.0 (20140111.2315)
 -->
<!-- Title: TurtleView.TurtleWindow.click Pages: 1 -->
<svg width="1016pt" height="273pt"
 viewBox="0.00 0.00 1016.00 273.00" xmlns="http://www.w3.org/2000/svg" xmlns:xlink="http://www.w3.org/1999/xlink">
<g id="graph0" class="graph" transform="scale(1 1) rotate(0) translate(4 269)">
<title>TurtleView.TurtleWindow.click</title>
<polygon fill="white" stroke="none" points="-4,4 -4,-269 1012,-269 1012,4 -4,4"/>
<!-- Node1 -->
<g id="node1" class="node"><title>Node1</title>
<polygon fill="#bfbfbf" stroke="black" points="0.5,-98.5 0.5,-117.5 149.5,-117.5 149.5,-98.5 0.5,-98.5"/>
<text text-anchor="middle" x="75" y="-105.5" font-family="Helvetica,sans-Serif" font-size="10.00">TurtleView.TurtleWindow.click</text>
</g>
<!-- Node2 -->
<g id="node2" class="node"><title>Node2</title>
<g id="a_node2"><a xlink:href="../../d0/d46/class_pen_1_1_pen_options.html#a685386bb97365462feaa476bd353df67" target="_top" xlink:title="Pen.PenOptions.changePen">
<polygon fill="white" stroke="black" points="204.5,-213.5 204.5,-232.5 353.5,-232.5 353.5,-213.5 204.5,-213.5"/>
<text text-anchor="middle" x="279" y="-220.5" font-family="Helvetica,sans-Serif" font-size="10.00">Pen.PenOptions.changePen</text>
</a>
</g>
</g>
<!-- Node1&#45;&gt;Node2 -->
<g id="edge1" class="edge"><title>Node1&#45;&gt;Node2</title>
<path fill="none" stroke="midnightblue" d="M84.0035,-117.568C100.78,-136.954 141.754,-180.901 186,-203 191.758,-205.876 197.921,-208.34 204.228,-210.451"/>
<polygon fill="midnightblue" stroke="midnightblue" points="203.636,-213.929 214.221,-213.487 205.67,-207.231 203.636,-213.929"/>
</g>
<!-- Node3 -->
<g id="node3" class="node"><title>Node3</title>
<g id="a_node3"><a xlink:href="../../d9/d38/class_turtle_view_1_1_turtle_information.html#a3a64e1f1313c0c4f30a93c1fcc5f36c1" target="_top" xlink:title="TurtleView.TurtleInformation.change\lTurtle">
<polygon fill="white" stroke="black" points="186.5,-164 186.5,-194 371.5,-194 371.5,-164 186.5,-164"/>
<text text-anchor="start" x="194.5" y="-182" font-family="Helvetica,sans-Serif" font-size="10.00">TurtleView.TurtleInformation.change</text>
<text text-anchor="middle" x="279" y="-171" font-family="Helvetica,sans-Serif" font-size="10.00">Turtle</text>
</a>
</g>
</g>
<!-- Node1&#45;&gt;Node3 -->
<g id="edge2" class="edge"><title>Node1&#45;&gt;Node3</title>
<path fill="none" stroke="midnightblue" d="M96.7726,-117.647C118.658,-127.583 154.283,-143.111 186,-154 193.265,-156.494 200.919,-158.905 208.582,-161.182"/>
<polygon fill="midnightblue" stroke="midnightblue" points="207.687,-164.567 218.266,-163.99 209.636,-157.843 207.687,-164.567"/>
</g>
<!-- Node11 -->
<g id="node11" class="node"><title>Node11</title>
<g id="a_node11"><a xlink:href="../../dc/d04/class_turtle_view_1_1_turtle_image_box.html#afc8ed7ffd8fe31dade346f0dee9d550c" target="_top" xlink:title="TurtleView.TurtleImageBox.change\lTurtle">
<polygon fill="white" stroke="black" points="190,-115 190,-145 368,-145 368,-115 190,-115"/>
<text text-anchor="start" x="198" y="-133" font-family="Helvetica,sans-Serif" font-size="10.00">TurtleView.TurtleImageBox.change</text>
<text text-anchor="middle" x="279" y="-122" font-family="Helvetica,sans-Serif" font-size="10.00">Turtle</text>
</a>
</g>
</g>
<!-- Node1&#45;&gt;Node11 -->
<g id="edge11" class="edge"><title>Node1&#45;&gt;Node11</title>
<path fill="none" stroke="midnightblue" d="M149.784,-116.036C159.505,-117.095 169.589,-118.193 179.638,-119.287"/>
<polygon fill="midnightblue" stroke="midnightblue" points="179.341,-122.776 189.661,-120.379 180.099,-115.817 179.341,-122.776"/>
</g>
<!-- Node12 -->
<g id="node12" class="node"><title>Node12</title>
<g id="a_node12"><a xlink:href="../../d1/de0/class_backend_1_1_turtle.html#a5ecb58c234e1b7c851c17eaa4de8235d" target="_top" xlink:title="Backend.Turtle.getPen">
<polygon fill="white" stroke="black" points="217.5,-76.5 217.5,-95.5 340.5,-95.5 340.5,-76.5 217.5,-76.5"/>
<text text-anchor="middle" x="279" y="-83.5" font-family="Helvetica,sans-Serif" font-size="10.00">Backend.Turtle.getPen</text>
</a>
</g>
</g>
<!-- Node1&#45;&gt;Node12 -->
<g id="edge12" class="edge"><title>Node1&#45;&gt;Node12</title>
<path fill="none" stroke="midnightblue" d="M149.784,-99.9641C168.517,-97.9238 188.601,-95.7366 207.183,-93.7127"/>
<polygon fill="midnightblue" stroke="midnightblue" points="207.772,-97.1694 217.334,-92.6072 207.014,-90.2106 207.772,-97.1694"/>
</g>
<!-- Node13 -->
<g id="node13" class="node"><title>Node13</title>
<g id="a_node13"><a xlink:href="../../d1/de0/class_backend_1_1_turtle.html#aa99cd255ffa089963fad4be5955c8bb6" target="_top" xlink:title="Backend.Turtle.hideRing">
<polygon fill="white" stroke="black" points="214,-38.5 214,-57.5 344,-57.5 344,-38.5 214,-38.5"/>
<text text-anchor="middle" x="279" y="-45.5" font-family="Helvetica,sans-Serif" font-size="10.00">Backend.Turtle.hideRing</text>
</a>
</g>
</g>
<!-- Node1&#45;&gt;Node13 -->
<g id="edge13" class="edge"><title>Node1&#45;&gt;Node13</title>
<path fill="none" stroke="midnightblue" d="M98.4134,-98.4904C120.406,-89.4362 155.055,-75.9058 186,-67 195.19,-64.3553 204.996,-61.9254 214.654,-59.7506"/>
<polygon fill="midnightblue" stroke="midnightblue" points="215.607,-63.1253 224.633,-57.5783 214.118,-56.2855 215.607,-63.1253"/>
</g>
<!-- Node14 -->
<g id="node14" class="node"><title>Node14</title>
<g id="a_node14"><a xlink:href="../../d1/de0/class_backend_1_1_turtle.html#a56cc7f136ffa25bbe506ac4d48eb1298" target="_top" xlink:title="Backend.Turtle.showRing">
<polygon fill="white" stroke="black" points="212,-0.5 212,-19.5 346,-19.5 346,-0.5 212,-0.5"/>
<text text-anchor="middle" x="279" y="-7.5" font-family="Helvetica,sans-Serif" font-size="10.00">Backend.Turtle.showRing</text>
</a>
</g>
</g>
<!-- Node1&#45;&gt;Node14 -->
<g id="edge14" class="edge"><title>Node1&#45;&gt;Node14</title>
<path fill="none" stroke="midnightblue" d="M86.2972,-98.2658C104.741,-81.4006 145.303,-46.8453 186,-29 191.783,-26.4641 197.922,-24.2607 204.175,-22.3472"/>
<polygon fill="midnightblue" stroke="midnightblue" points="205.381,-25.6442 214.063,-19.5727 203.489,-18.9045 205.381,-25.6442"/>
</g>
<!-- Node4 -->
<g id="node4" class="node"><title>Node4</title>
<g id="a_node4"><a xlink:href="../../d9/d38/class_turtle_view_1_1_turtle_information.html#ad65201793ce738f9c6d6e592271c14e1" target="_top" xlink:title="TurtleView.TurtleInformation.update">
<polygon fill="white" stroke="black" points="408.5,-169.5 408.5,-188.5 591.5,-188.5 591.5,-169.5 408.5,-169.5"/>
<text text-anchor="middle" x="500" y="-176.5" font-family="Helvetica,sans-Serif" font-size="10.00">TurtleView.TurtleInformation.update</text>
</a>
</g>
</g>
<!-- Node3&#45;&gt;Node4 -->
<g id="edge3" class="edge"><title>Node3&#45;&gt;Node4</title>
<path fill="none" stroke="midnightblue" d="M371.607,-179C380.463,-179 389.481,-179 398.418,-179"/>
<polygon fill="midnightblue" stroke="midnightblue" points="398.462,-182.5 408.462,-179 398.462,-175.5 398.462,-182.5"/>
</g>
<!-- Node5 -->
<g id="node5" class="node"><title>Node5</title>
<g id="a_node5"><a xlink:href="../../d9/d38/class_turtle_view_1_1_turtle_information.html#aca65258778dade3baa31e0d5ec643b3b" target="_top" xlink:title="TurtleView.TurtleInformation.emptyInfo">
<polygon fill="white" stroke="black" points="628.5,-245.5 628.5,-264.5 825.5,-264.5 825.5,-245.5 628.5,-245.5"/>
<text text-anchor="middle" x="727" y="-252.5" font-family="Helvetica,sans-Serif" font-size="10.00">TurtleView.TurtleInformation.emptyInfo</text>
</a>
</g>
</g>
<!-- Node4&#45;&gt;Node5 -->
<g id="edge4" class="edge"><title>Node4&#45;&gt;Node5</title>
<path fill="none" stroke="midnightblue" d="M518.988,-188.673C543.138,-201.284 587.68,-223.232 628,-236 636.675,-238.747 645.915,-241.167 655.122,-243.278"/>
<polygon fill="midnightblue" stroke="midnightblue" points="654.555,-246.736 665.072,-245.448 656.047,-239.897 654.555,-246.736"/>
</g>
<!-- Node6 -->
<g id="node6" class="node"><title>Node6</title>
<g id="a_node6"><a xlink:href="../../d1/de0/class_backend_1_1_turtle.html#adc7cb6cc95ee918547d2b18d8bb20183" target="_top" xlink:title="Backend.Turtle.getID">
<polygon fill="white" stroke="black" points="669.5,-207.5 669.5,-226.5 784.5,-226.5 784.5,-207.5 669.5,-207.5"/>
<text text-anchor="middle" x="727" y="-214.5" font-family="Helvetica,sans-Serif" font-size="10.00">Backend.Turtle.getID</text>
</a>
</g>
</g>
<!-- Node4&#45;&gt;Node6 -->
<g id="edge5" class="edge"><title>Node4&#45;&gt;Node6</title>
<path fill="none" stroke="midnightblue" d="M557.487,-188.54C588.379,-193.757 626.837,-200.253 659.21,-205.72"/>
<polygon fill="midnightblue" stroke="midnightblue" points="659.047,-209.242 669.49,-207.456 660.213,-202.34 659.047,-209.242"/>
</g>
<!-- Node7 -->
<g id="node7" class="node"><title>Node7</title>
<g id="a_node7"><a xlink:href="../../d1/de0/class_backend_1_1_turtle.html#a715f94909b1ba74dc9e4f9eb4fd91e10" target="_top" xlink:title="Backend.Turtle.getXCord">
<polygon fill="white" stroke="black" points="660.5,-169.5 660.5,-188.5 793.5,-188.5 793.5,-169.5 660.5,-169.5"/>
<text text-anchor="middle" x="727" y="-176.5" font-family="Helvetica,sans-Serif" font-size="10.00">Backend.Turtle.getXCord</text>
</a>
</g>
</g>
<!-- Node4&#45;&gt;Node7 -->
<g id="edge6" class="edge"><title>Node4&#45;&gt;Node7</title>
<path fill="none" stroke="midnightblue" d="M591.544,-179C610.914,-179 631.187,-179 649.945,-179"/>
<polygon fill="midnightblue" stroke="midnightblue" points="650.195,-182.5 660.195,-179 650.195,-175.5 650.195,-182.5"/>
</g>
<!-- Node9 -->
<g id="node9" class="node"><title>Node9</title>
<g id="a_node9"><a xlink:href="../../d1/de0/class_backend_1_1_turtle.html#a692174eccea232fc58e725cff6f50359" target="_top" xlink:title="Backend.Turtle.getYCord">
<polygon fill="white" stroke="black" points="661,-131.5 661,-150.5 793,-150.5 793,-131.5 661,-131.5"/>
<text text-anchor="middle" x="727" y="-138.5" font-family="Helvetica,sans-Serif" font-size="10.00">Backend.Turtle.getYCord</text>
</a>
</g>
</g>
<!-- Node4&#45;&gt;Node9 -->
<g id="edge8" class="edge"><title>Node4&#45;&gt;Node9</title>
<path fill="none" stroke="midnightblue" d="M557.487,-169.46C588.379,-164.243 626.837,-157.747 659.21,-152.28"/>
<polygon fill="midnightblue" stroke="midnightblue" points="660.213,-155.66 669.49,-150.544 659.047,-148.758 660.213,-155.66"/>
</g>
<!-- Node10 -->
<g id="node10" class="node"><title>Node10</title>
<g id="a_node10"><a xlink:href="../../d9/d38/class_turtle_view_1_1_turtle_information.html#a15bd13ad05cabb76c0861d0ab42722ef" target="_top" xlink:title="TurtleView.TurtleInformation.truncate">
<polygon fill="white" stroke="black" points="632,-93.5 632,-112.5 822,-112.5 822,-93.5 632,-93.5"/>
<text text-anchor="middle" x="727" y="-100.5" font-family="Helvetica,sans-Serif" font-size="10.00">TurtleView.TurtleInformation.truncate</text>
</a>
</g>
</g>
<!-- Node4&#45;&gt;Node10 -->
<g id="edge10" class="edge"><title>Node4&#45;&gt;Node10</title>
<path fill="none" stroke="midnightblue" d="M518.988,-169.327C543.138,-156.716 587.68,-134.768 628,-122 636.675,-119.253 645.915,-116.833 655.122,-114.722"/>
<polygon fill="midnightblue" stroke="midnightblue" points="656.047,-118.103 665.072,-112.552 654.555,-111.264 656.047,-118.103"/>
</g>
<!-- Node8 -->
<g id="node8" class="node"><title>Node8</title>
<g id="a_node8"><a xlink:href="../../d1/de0/class_backend_1_1_turtle.html#a33957258db9a7205d470c5a2d22b89af" target="_top" xlink:title="Backend.Turtle.getLocation">
<polygon fill="white" stroke="black" points="862,-150.5 862,-169.5 1008,-169.5 1008,-150.5 862,-150.5"/>
<text text-anchor="middle" x="935" y="-157.5" font-family="Helvetica,sans-Serif" font-size="10.00">Backend.Turtle.getLocation</text>
</a>
</g>
</g>
<!-- Node7&#45;&gt;Node8 -->
<g id="edge7" class="edge"><title>Node7&#45;&gt;Node8</title>
<path fill="none" stroke="midnightblue" d="M793.746,-172.936C812.196,-171.234 832.489,-169.363 851.769,-167.584"/>
<polygon fill="midnightblue" stroke="midnightblue" points="852.107,-171.068 861.743,-166.664 851.464,-164.098 852.107,-171.068"/>
</g>
<!-- Node9&#45;&gt;Node8 -->
<g id="edge9" class="edge"><title>Node9&#45;&gt;Node8</title>
<path fill="none" stroke="midnightblue" d="M793.18,-147.012C811.749,-148.724 832.224,-150.613 851.673,-152.407"/>
<polygon fill="midnightblue" stroke="midnightblue" points="851.455,-155.901 861.734,-153.335 852.098,-148.931 851.455,-155.901"/>
</g>
</g>
</svg>
