<?xml version="1.0" encoding="UTF-8" standalone="no"?>
<!DOCTYPE svg PUBLIC "-//W3C//DTD SVG 1.1//EN"
 "http://www.w3.org/Graphics/SVG/1.1/DTD/svg11.dtd">
<!-- Generated by graphviz version 2.36.0 (20140111.2315)
 -->
<!-- Title: TurtleView.TurtleWindow.makeTurtle Pages: 1 -->
<svg width="1208pt" height="273pt"
 viewBox="0.00 0.00 1208.00 273.00" xmlns="http://www.w3.org/2000/svg" xmlns:xlink="http://www.w3.org/1999/xlink">
<g id="graph0" class="graph" transform="scale(1 1) rotate(0) translate(4 269)">
<title>TurtleView.TurtleWindow.makeTurtle</title>
<polygon fill="white" stroke="none" points="-4,4 -4,-269 1204,-269 1204,4 -4,4"/>
<!-- Node1 -->
<g id="node1" class="node"><title>Node1</title>
<polygon fill="#bfbfbf" stroke="black" points="0,-93 0,-123 156,-123 156,-93 0,-93"/>
<text text-anchor="start" x="8" y="-111" font-family="Helvetica,sans-Serif" font-size="10.00">TurtleView.TurtleWindow.make</text>
<text text-anchor="middle" x="78" y="-100" font-family="Helvetica,sans-Serif" font-size="10.00">Turtle</text>
</g>
<!-- Node2 -->
<g id="node2" class="node"><title>Node2</title>
<g id="a_node2"><a xlink:href="../../d4/d8a/class_turtle_view_1_1_turtle_window.html#a55f7ffa346d2ced8f9e831efc900d0c0" target="_top" xlink:title="TurtleView.TurtleWindow.click">
<polygon fill="white" stroke="black" points="192.5,-98.5 192.5,-117.5 341.5,-117.5 341.5,-98.5 192.5,-98.5"/>
<text text-anchor="middle" x="267" y="-105.5" font-family="Helvetica,sans-Serif" font-size="10.00">TurtleView.TurtleWindow.click</text>
</a>
</g>
</g>
<!-- Node1&#45;&gt;Node2 -->
<g id="edge1" class="edge"><title>Node1&#45;&gt;Node2</title>
<path fill="none" stroke="midnightblue" d="M156.14,-108C164.745,-108 173.541,-108 182.224,-108"/>
<polygon fill="midnightblue" stroke="midnightblue" points="182.346,-111.5 192.346,-108 182.346,-104.5 182.346,-111.5"/>
</g>
<!-- Node3 -->
<g id="node3" class="node"><title>Node3</title>
<g id="a_node3"><a xlink:href="../../d0/d46/class_pen_1_1_pen_options.html#a685386bb97365462feaa476bd353df67" target="_top" xlink:title="Pen.PenOptions.changePen">
<polygon fill="white" stroke="black" points="396.5,-213.5 396.5,-232.5 545.5,-232.5 545.5,-213.5 396.5,-213.5"/>
<text text-anchor="middle" x="471" y="-220.5" font-family="Helvetica,sans-Serif" font-size="10.00">Pen.PenOptions.changePen</text>
</a>
</g>
</g>
<!-- Node2&#45;&gt;Node3 -->
<g id="edge2" class="edge"><title>Node2&#45;&gt;Node3</title>
<path fill="none" stroke="midnightblue" d="M276.004,-117.568C292.78,-136.954 333.754,-180.901 378,-203 383.758,-205.876 389.921,-208.34 396.228,-210.451"/>
<polygon fill="midnightblue" stroke="midnightblue" points="395.636,-213.929 406.221,-213.487 397.67,-207.231 395.636,-213.929"/>
</g>
<!-- Node4 -->
<g id="node4" class="node"><title>Node4</title>
<g id="a_node4"><a xlink:href="../../d9/d38/class_turtle_view_1_1_turtle_information.html#a3a64e1f1313c0c4f30a93c1fcc5f36c1" target="_top" xlink:title="TurtleView.TurtleInformation.change\lTurtle">
<polygon fill="white" stroke="black" points="378.5,-164 378.5,-194 563.5,-194 563.5,-164 378.5,-164"/>
<text text-anchor="start" x="386.5" y="-182" font-family="Helvetica,sans-Serif" font-size="10.00">TurtleView.TurtleInformation.change</text>
<text text-anchor="middle" x="471" y="-171" font-family="Helvetica,sans-Serif" font-size="10.00">Turtle</text>
</a>
</g>
</g>
<!-- Node2&#45;&gt;Node4 -->
<g id="edge3" class="edge"><title>Node2&#45;&gt;Node4</title>
<path fill="none" stroke="midnightblue" d="M288.773,-117.647C310.658,-127.583 346.283,-143.111 378,-154 385.265,-156.494 392.919,-158.905 400.582,-161.182"/>
<polygon fill="midnightblue" stroke="midnightblue" points="399.687,-164.567 410.266,-163.99 401.636,-157.843 399.687,-164.567"/>
</g>
<!-- Node12 -->
<g id="node12" class="node"><title>Node12</title>
<g id="a_node12"><a xlink:href="../../dc/d04/class_turtle_view_1_1_turtle_image_box.html#afc8ed7ffd8fe31dade346f0dee9d550c" target="_top" xlink:title="TurtleView.TurtleImageBox.change\lTurtle">
<polygon fill="white" stroke="black" points="382,-115 382,-145 560,-145 560,-115 382,-115"/>
<text text-anchor="start" x="390" y="-133" font-family="Helvetica,sans-Serif" font-size="10.00">TurtleView.TurtleImageBox.change</text>
<text text-anchor="middle" x="471" y="-122" font-family="Helvetica,sans-Serif" font-size="10.00">Turtle</text>
</a>
</g>
</g>
<!-- Node2&#45;&gt;Node12 -->
<g id="edge12" class="edge"><title>Node2&#45;&gt;Node12</title>
<path fill="none" stroke="midnightblue" d="M341.784,-116.036C351.505,-117.095 361.589,-118.193 371.638,-119.287"/>
<polygon fill="midnightblue" stroke="midnightblue" points="371.341,-122.776 381.661,-120.379 372.099,-115.817 371.341,-122.776"/>
</g>
<!-- Node13 -->
<g id="node13" class="node"><title>Node13</title>
<g id="a_node13"><a xlink:href="../../d1/de0/class_backend_1_1_turtle.html#a5ecb58c234e1b7c851c17eaa4de8235d" target="_top" xlink:title="Backend.Turtle.getPen">
<polygon fill="white" stroke="black" points="409.5,-76.5 409.5,-95.5 532.5,-95.5 532.5,-76.5 409.5,-76.5"/>
<text text-anchor="middle" x="471" y="-83.5" font-family="Helvetica,sans-Serif" font-size="10.00">Backend.Turtle.getPen</text>
</a>
</g>
</g>
<!-- Node2&#45;&gt;Node13 -->
<g id="edge13" class="edge"><title>Node2&#45;&gt;Node13</title>
<path fill="none" stroke="midnightblue" d="M341.784,-99.9641C360.517,-97.9238 380.601,-95.7366 399.183,-93.7127"/>
<polygon fill="midnightblue" stroke="midnightblue" points="399.772,-97.1694 409.334,-92.6072 399.014,-90.2106 399.772,-97.1694"/>
</g>
<!-- Node14 -->
<g id="node14" class="node"><title>Node14</title>
<g id="a_node14"><a xlink:href="../../d1/de0/class_backend_1_1_turtle.html#aa99cd255ffa089963fad4be5955c8bb6" target="_top" xlink:title="Backend.Turtle.hideRing">
<polygon fill="white" stroke="black" points="406,-38.5 406,-57.5 536,-57.5 536,-38.5 406,-38.5"/>
<text text-anchor="middle" x="471" y="-45.5" font-family="Helvetica,sans-Serif" font-size="10.00">Backend.Turtle.hideRing</text>
</a>
</g>
</g>
<!-- Node2&#45;&gt;Node14 -->
<g id="edge14" class="edge"><title>Node2&#45;&gt;Node14</title>
<path fill="none" stroke="midnightblue" d="M290.413,-98.4904C312.406,-89.4362 347.055,-75.9058 378,-67 387.19,-64.3553 396.996,-61.9254 406.654,-59.7506"/>
<polygon fill="midnightblue" stroke="midnightblue" points="407.607,-63.1253 416.633,-57.5783 406.118,-56.2855 407.607,-63.1253"/>
</g>
<!-- Node15 -->
<g id="node15" class="node"><title>Node15</title>
<g id="a_node15"><a xlink:href="../../d1/de0/class_backend_1_1_turtle.html#a56cc7f136ffa25bbe506ac4d48eb1298" target="_top" xlink:title="Backend.Turtle.showRing">
<polygon fill="white" stroke="black" points="404,-0.5 404,-19.5 538,-19.5 538,-0.5 404,-0.5"/>
<text text-anchor="middle" x="471" y="-7.5" font-family="Helvetica,sans-Serif" font-size="10.00">Backend.Turtle.showRing</text>
</a>
</g>
</g>
<!-- Node2&#45;&gt;Node15 -->
<g id="edge15" class="edge"><title>Node2&#45;&gt;Node15</title>
<path fill="none" stroke="midnightblue" d="M278.297,-98.2658C296.741,-81.4006 337.303,-46.8453 378,-29 383.783,-26.4641 389.922,-24.2607 396.175,-22.3472"/>
<polygon fill="midnightblue" stroke="midnightblue" points="397.381,-25.6442 406.063,-19.5727 395.489,-18.9045 397.381,-25.6442"/>
</g>
<!-- Node5 -->
<g id="node5" class="node"><title>Node5</title>
<g id="a_node5"><a xlink:href="../../d9/d38/class_turtle_view_1_1_turtle_information.html#ad65201793ce738f9c6d6e592271c14e1" target="_top" xlink:title="TurtleView.TurtleInformation.update">
<polygon fill="white" stroke="black" points="600.5,-169.5 600.5,-188.5 783.5,-188.5 783.5,-169.5 600.5,-169.5"/>
<text text-anchor="middle" x="692" y="-176.5" font-family="Helvetica,sans-Serif" font-size="10.00">TurtleView.TurtleInformation.update</text>
</a>
</g>
</g>
<!-- Node4&#45;&gt;Node5 -->
<g id="edge4" class="edge"><title>Node4&#45;&gt;Node5</title>
<path fill="none" stroke="midnightblue" d="M563.607,-179C572.463,-179 581.481,-179 590.418,-179"/>
<polygon fill="midnightblue" stroke="midnightblue" points="590.462,-182.5 600.462,-179 590.462,-175.5 590.462,-182.5"/>
</g>
<!-- Node6 -->
<g id="node6" class="node"><title>Node6</title>
<g id="a_node6"><a xlink:href="../../d9/d38/class_turtle_view_1_1_turtle_information.html#aca65258778dade3baa31e0d5ec643b3b" target="_top" xlink:title="TurtleView.TurtleInformation.emptyInfo">
<polygon fill="white" stroke="black" points="820.5,-245.5 820.5,-264.5 1017.5,-264.5 1017.5,-245.5 820.5,-245.5"/>
<text text-anchor="middle" x="919" y="-252.5" font-family="Helvetica,sans-Serif" font-size="10.00">TurtleView.TurtleInformation.emptyInfo</text>
</a>
</g>
</g>
<!-- Node5&#45;&gt;Node6 -->
<g id="edge5" class="edge"><title>Node5&#45;&gt;Node6</title>
<path fill="none" stroke="midnightblue" d="M710.988,-188.673C735.138,-201.284 779.68,-223.232 820,-236 828.675,-238.747 837.915,-241.167 847.122,-243.278"/>
<polygon fill="midnightblue" stroke="midnightblue" points="846.555,-246.736 857.072,-245.448 848.047,-239.897 846.555,-246.736"/>
</g>
<!-- Node7 -->
<g id="node7" class="node"><title>Node7</title>
<g id="a_node7"><a xlink:href="../../d1/de0/class_backend_1_1_turtle.html#adc7cb6cc95ee918547d2b18d8bb20183" target="_top" xlink:title="Backend.Turtle.getID">
<polygon fill="white" stroke="black" points="861.5,-207.5 861.5,-226.5 976.5,-226.5 976.5,-207.5 861.5,-207.5"/>
<text text-anchor="middle" x="919" y="-214.5" font-family="Helvetica,sans-Serif" font-size="10.00">Backend.Turtle.getID</text>
</a>
</g>
</g>
<!-- Node5&#45;&gt;Node7 -->
<g id="edge6" class="edge"><title>Node5&#45;&gt;Node7</title>
<path fill="none" stroke="midnightblue" d="M749.487,-188.54C780.379,-193.757 818.837,-200.253 851.21,-205.72"/>
<polygon fill="midnightblue" stroke="midnightblue" points="851.047,-209.242 861.49,-207.456 852.213,-202.34 851.047,-209.242"/>
</g>
<!-- Node8 -->
<g id="node8" class="node"><title>Node8</title>
<g id="a_node8"><a xlink:href="../../d1/de0/class_backend_1_1_turtle.html#a715f94909b1ba74dc9e4f9eb4fd91e10" target="_top" xlink:title="Backend.Turtle.getXCord">
<polygon fill="white" stroke="black" points="852.5,-169.5 852.5,-188.5 985.5,-188.5 985.5,-169.5 852.5,-169.5"/>
<text text-anchor="middle" x="919" y="-176.5" font-family="Helvetica,sans-Serif" font-size="10.00">Backend.Turtle.getXCord</text>
</a>
</g>
</g>
<!-- Node5&#45;&gt;Node8 -->
<g id="edge7" class="edge"><title>Node5&#45;&gt;Node8</title>
<path fill="none" stroke="midnightblue" d="M783.544,-179C802.914,-179 823.187,-179 841.945,-179"/>
<polygon fill="midnightblue" stroke="midnightblue" points="842.195,-182.5 852.195,-179 842.195,-175.5 842.195,-182.5"/>
</g>
<!-- Node10 -->
<g id="node10" class="node"><title>Node10</title>
<g id="a_node10"><a xlink:href="../../d1/de0/class_backend_1_1_turtle.html#a692174eccea232fc58e725cff6f50359" target="_top" xlink:title="Backend.Turtle.getYCord">
<polygon fill="white" stroke="black" points="853,-131.5 853,-150.5 985,-150.5 985,-131.5 853,-131.5"/>
<text text-anchor="middle" x="919" y="-138.5" font-family="Helvetica,sans-Serif" font-size="10.00">Backend.Turtle.getYCord</text>
</a>
</g>
</g>
<!-- Node5&#45;&gt;Node10 -->
<g id="edge9" class="edge"><title>Node5&#45;&gt;Node10</title>
<path fill="none" stroke="midnightblue" d="M749.487,-169.46C780.379,-164.243 818.837,-157.747 851.21,-152.28"/>
<polygon fill="midnightblue" stroke="midnightblue" points="852.213,-155.66 861.49,-150.544 851.047,-148.758 852.213,-155.66"/>
</g>
<!-- Node11 -->
<g id="node11" class="node"><title>Node11</title>
<g id="a_node11"><a xlink:href="../../d9/d38/class_turtle_view_1_1_turtle_information.html#a15bd13ad05cabb76c0861d0ab42722ef" target="_top" xlink:title="TurtleView.TurtleInformation.truncate">
<polygon fill="white" stroke="black" points="824,-93.5 824,-112.5 1014,-112.5 1014,-93.5 824,-93.5"/>
<text text-anchor="middle" x="919" y="-100.5" font-family="Helvetica,sans-Serif" font-size="10.00">TurtleView.TurtleInformation.truncate</text>
</a>
</g>
</g>
<!-- Node5&#45;&gt;Node11 -->
<g id="edge11" class="edge"><title>Node5&#45;&gt;Node11</title>
<path fill="none" stroke="midnightblue" d="M710.988,-169.327C735.138,-156.716 779.68,-134.768 820,-122 828.675,-119.253 837.915,-116.833 847.122,-114.722"/>
<polygon fill="midnightblue" stroke="midnightblue" points="848.047,-118.103 857.072,-112.552 846.555,-111.264 848.047,-118.103"/>
</g>
<!-- Node9 -->
<g id="node9" class="node"><title>Node9</title>
<g id="a_node9"><a xlink:href="../../d1/de0/class_backend_1_1_turtle.html#a33957258db9a7205d470c5a2d22b89af" target="_top" xlink:title="Backend.Turtle.getLocation">
<polygon fill="white" stroke="black" points="1054,-150.5 1054,-169.5 1200,-169.5 1200,-150.5 1054,-150.5"/>
<text text-anchor="middle" x="1127" y="-157.5" font-family="Helvetica,sans-Serif" font-size="10.00">Backend.Turtle.getLocation</text>
</a>
</g>
</g>
<!-- Node8&#45;&gt;Node9 -->
<g id="edge8" class="edge"><title>Node8&#45;&gt;Node9</title>
<path fill="none" stroke="midnightblue" d="M985.746,-172.936C1004.2,-171.234 1024.49,-169.363 1043.77,-167.584"/>
<polygon fill="midnightblue" stroke="midnightblue" points="1044.11,-171.068 1053.74,-166.664 1043.46,-164.098 1044.11,-171.068"/>
</g>
<!-- Node10&#45;&gt;Node9 -->
<g id="edge10" class="edge"><title>Node10&#45;&gt;Node9</title>
<path fill="none" stroke="midnightblue" d="M985.18,-147.012C1003.75,-148.724 1024.22,-150.613 1043.67,-152.407"/>
<polygon fill="midnightblue" stroke="midnightblue" points="1043.45,-155.901 1053.73,-153.335 1044.1,-148.931 1043.45,-155.901"/>
</g>
</g>
</svg>
