<?xml version="1.0" encoding="UTF-8" standalone="no"?>
<!DOCTYPE svg PUBLIC "-//W3C//DTD SVG 1.1//EN"
 "http://www.w3.org/Graphics/SVG/1.1/DTD/svg11.dtd">
<!-- Generated by graphviz version 2.36.0 (20140111.2315)
 -->
<!-- Title: TurtleView.TurtleWindow.click Pages: 1 -->
<svg width="668pt" height="87pt"
 viewBox="0.00 0.00 668.00 87.00" xmlns="http://www.w3.org/2000/svg" xmlns:xlink="http://www.w3.org/1999/xlink">
<g id="graph0" class="graph" transform="scale(1 1) rotate(0) translate(4 83)">
<title>TurtleView.TurtleWindow.click</title>
<polygon fill="white" stroke="none" points="-4,4 -4,-83 664,-83 664,4 -4,4"/>
<!-- Node1 -->
<g id="node1" class="node"><title>Node1</title>
<polygon fill="#bfbfbf" stroke="black" points="0.5,-27.5 0.5,-46.5 149.5,-46.5 149.5,-27.5 0.5,-27.5"/>
<text text-anchor="middle" x="75" y="-34.5" font-family="Helvetica,sans-Serif" font-size="10.00">TurtleView.TurtleWindow.click</text>
</g>
<!-- Node2 -->
<g id="node2" class="node"><title>Node2</title>
<g id="a_node2"><a xlink:href="../../d4/d8a/class_turtle_view_1_1_turtle_window.html#ab6961d80a7e356af4e9206478608ed40" target="_top" xlink:title="TurtleView.TurtleWindow.make\lTurtle">
<polygon fill="white" stroke="black" points="186,-44 186,-74 342,-74 342,-44 186,-44"/>
<text text-anchor="start" x="194" y="-62" font-family="Helvetica,sans-Serif" font-size="10.00">TurtleView.TurtleWindow.make</text>
<text text-anchor="middle" x="264" y="-51" font-family="Helvetica,sans-Serif" font-size="10.00">Turtle</text>
</a>
</g>
</g>
<!-- Node1&#45;&gt;Node2 -->
<g id="edge1" class="edge"><title>Node1&#45;&gt;Node2</title>
<path fill="none" stroke="midnightblue" d="M159.73,-46.8506C168.386,-47.869 177.155,-48.9006 185.736,-49.9101"/>
<polygon fill="midnightblue" stroke="midnightblue" points="159.979,-43.3559 149.639,-45.6634 159.161,-50.3079 159.979,-43.3559"/>
</g>
<!-- Node5 -->
<g id="node5" class="node"><title>Node5</title>
<g id="a_node5"><a xlink:href="../../d4/d8a/class_turtle_view_1_1_turtle_window.html#a82959fc46f81f3a875e126b5ecd6325d" target="_top" xlink:title="TurtleView.TurtleWindow.\lTurtleWindow">
<polygon fill="white" stroke="black" points="382.5,-0 382.5,-30 511.5,-30 511.5,-0 382.5,-0"/>
<text text-anchor="start" x="390.5" y="-18" font-family="Helvetica,sans-Serif" font-size="10.00">TurtleView.TurtleWindow.</text>
<text text-anchor="middle" x="447" y="-7" font-family="Helvetica,sans-Serif" font-size="10.00">TurtleWindow</text>
</a>
</g>
</g>
<!-- Node1&#45;&gt;Node5 -->
<g id="edge5" class="edge"><title>Node1&#45;&gt;Node5</title>
<path fill="none" stroke="midnightblue" d="M159.736,-32.0211C227.312,-28.0031 320.942,-22.4359 382.461,-18.778"/>
<polygon fill="midnightblue" stroke="midnightblue" points="159.317,-28.5397 149.542,-32.6272 159.733,-35.5274 159.317,-28.5397"/>
</g>
<!-- Node3 -->
<g id="node3" class="node"><title>Node3</title>
<g id="a_node3"><a xlink:href="../../df/dec/class_front_end_1_1_view.html#affad60393f506692d02f9dc2525780d2" target="_top" xlink:title="FrontEnd.View.makeTurtle\lButton">
<polygon fill="white" stroke="black" points="378,-49 378,-79 516,-79 516,-49 378,-49"/>
<text text-anchor="start" x="386" y="-67" font-family="Helvetica,sans-Serif" font-size="10.00">FrontEnd.View.makeTurtle</text>
<text text-anchor="middle" x="447" y="-56" font-family="Helvetica,sans-Serif" font-size="10.00">Button</text>
</a>
</g>
</g>
<!-- Node2&#45;&gt;Node3 -->
<g id="edge2" class="edge"><title>Node2&#45;&gt;Node3</title>
<path fill="none" stroke="midnightblue" d="M352.146,-61.4074C360.802,-61.6465 369.5,-61.8867 377.92,-62.1193"/>
<polygon fill="midnightblue" stroke="midnightblue" points="352.116,-57.9053 342.023,-61.1277 351.922,-64.9026 352.116,-57.9053"/>
</g>
<!-- Node2&#45;&gt;Node5 -->
<g id="edge4" class="edge"><title>Node2&#45;&gt;Node5</title>
<path fill="none" stroke="midnightblue" d="M336.929,-41.5145C352.568,-37.7127 368.981,-33.723 384.188,-30.0262"/>
<polygon fill="midnightblue" stroke="midnightblue" points="335.674,-38.2176 326.784,-43.9808 337.327,-45.0195 335.674,-38.2176"/>
</g>
<!-- Node4 -->
<g id="node4" class="node"><title>Node4</title>
<g id="a_node4"><a xlink:href="../../df/dec/class_front_end_1_1_view.html#a079d7e899ded516b169dc6e66da79e1e" target="_top" xlink:title="FrontEnd.View.View">
<polygon fill="white" stroke="black" points="552.5,-54.5 552.5,-73.5 659.5,-73.5 659.5,-54.5 552.5,-54.5"/>
<text text-anchor="middle" x="606" y="-61.5" font-family="Helvetica,sans-Serif" font-size="10.00">FrontEnd.View.View</text>
</a>
</g>
</g>
<!-- Node3&#45;&gt;Node4 -->
<g id="edge3" class="edge"><title>Node3&#45;&gt;Node4</title>
<path fill="none" stroke="midnightblue" d="M526.636,-64C535.372,-64 544.105,-64 552.404,-64"/>
<polygon fill="midnightblue" stroke="midnightblue" points="526.406,-60.5001 516.406,-64 526.406,-67.5001 526.406,-60.5001"/>
</g>
</g>
</svg>
