<?xml version="1.0" encoding="UTF-8" standalone="no"?>
<!DOCTYPE svg PUBLIC "-//W3C//DTD SVG 1.1//EN"
 "http://www.w3.org/Graphics/SVG/1.1/DTD/svg11.dtd">
<!-- Generated by graphviz version 2.36.0 (20140111.2315)
 -->
<!-- Title: TurtleView.TurtleWindow.gridLines Pages: 1 -->
<svg width="532pt" height="38pt"
 viewBox="0.00 0.00 532.00 38.00" xmlns="http://www.w3.org/2000/svg" xmlns:xlink="http://www.w3.org/1999/xlink">
<g id="graph0" class="graph" transform="scale(1 1) rotate(0) translate(4 34)">
<title>TurtleView.TurtleWindow.gridLines</title>
<polygon fill="white" stroke="none" points="-4,4 -4,-34 528,-34 528,4 -4,4"/>
<!-- Node1 -->
<g id="node1" class="node"><title>Node1</title>
<polygon fill="#bfbfbf" stroke="black" points="0.5,-0 0.5,-30 147.5,-30 147.5,-0 0.5,-0"/>
<text text-anchor="start" x="8.5" y="-18" font-family="Helvetica,sans-Serif" font-size="10.00">TurtleView.TurtleWindow.grid</text>
<text text-anchor="middle" x="74" y="-7" font-family="Helvetica,sans-Serif" font-size="10.00">Lines</text>
</g>
<!-- Node2 -->
<g id="node2" class="node"><title>Node2</title>
<g id="a_node2"><a xlink:href="../../d1/df4/class_turtle_view_1_1_grid_check_box.html#a188089390fabac094e62bf3877912b9f" target="_top" xlink:title="TurtleView.GridCheckBox.handle">
<polygon fill="white" stroke="black" points="184,-5.5 184,-24.5 352,-24.5 352,-5.5 184,-5.5"/>
<text text-anchor="middle" x="268" y="-12.5" font-family="Helvetica,sans-Serif" font-size="10.00">TurtleView.GridCheckBox.handle</text>
</a>
</g>
</g>
<!-- Node1&#45;&gt;Node2 -->
<g id="edge1" class="edge"><title>Node1&#45;&gt;Node2</title>
<path fill="none" stroke="midnightblue" d="M157.635,-15C166.266,-15 175.044,-15 183.683,-15"/>
<polygon fill="midnightblue" stroke="midnightblue" points="157.587,-11.5001 147.587,-15 157.587,-18.5001 157.587,-11.5001"/>
</g>
<!-- Node3 -->
<g id="node3" class="node"><title>Node3</title>
<g id="a_node3"><a xlink:href="../../d1/df4/class_turtle_view_1_1_grid_check_box.html#a2681805422ca7fe0cfc089a30b39396a" target="_top" xlink:title="TurtleView.GridCheckBox.\lGridCheckBox">
<polygon fill="white" stroke="black" points="388,-0 388,-30 524,-30 524,-0 388,-0"/>
<text text-anchor="start" x="396" y="-18" font-family="Helvetica,sans-Serif" font-size="10.00">TurtleView.GridCheckBox.</text>
<text text-anchor="middle" x="456" y="-7" font-family="Helvetica,sans-Serif" font-size="10.00">GridCheckBox</text>
</a>
</g>
</g>
<!-- Node2&#45;&gt;Node3 -->
<g id="edge2" class="edge"><title>Node2&#45;&gt;Node3</title>
<path fill="none" stroke="midnightblue" d="M362.28,-15C370.873,-15 379.464,-15 387.757,-15"/>
<polygon fill="midnightblue" stroke="midnightblue" points="362.208,-11.5001 352.208,-15 362.208,-18.5001 362.208,-11.5001"/>
</g>
</g>
</svg>
