<?xml version="1.0" encoding="UTF-8" standalone="no"?>
<!DOCTYPE svg PUBLIC "-//W3C//DTD SVG 1.1//EN"
 "http://www.w3.org/Graphics/SVG/1.1/DTD/svg11.dtd">
<!-- Generated by graphviz version 2.36.0 (20140111.2315)
 -->
<!-- Title: TurtleView.TurtleWindow.getActiveTurtles Pages: 1 -->
<svg width="708pt" height="62pt"
 viewBox="0.00 0.00 708.00 62.00" xmlns="http://www.w3.org/2000/svg" xmlns:xlink="http://www.w3.org/1999/xlink">
<g id="graph0" class="graph" transform="scale(1 1) rotate(0) translate(4 58)">
<title>TurtleView.TurtleWindow.getActiveTurtles</title>
<polygon fill="white" stroke="none" points="-4,4 -4,-58 704,-58 704,4 -4,4"/>
<!-- Node1 -->
<g id="node1" class="node"><title>Node1</title>
<polygon fill="#bfbfbf" stroke="black" points="0.5,-0 0.5,-30 145.5,-30 145.5,-0 0.5,-0"/>
<text text-anchor="start" x="8.5" y="-18" font-family="Helvetica,sans-Serif" font-size="10.00">TurtleView.TurtleWindow.get</text>
<text text-anchor="middle" x="73" y="-7" font-family="Helvetica,sans-Serif" font-size="10.00">ActiveTurtles</text>
</g>
<!-- Node2 -->
<g id="node2" class="node"><title>Node2</title>
<g id="a_node2"><a xlink:href="../../dd/d2e/class_front_end_1_1_controller.html#a0ad45a00bc5c4475d3b1c6a4dbf74a91" target="_top" xlink:title="FrontEnd.Controller.interpret">
<polygon fill="white" stroke="black" points="182,-26.5 182,-45.5 334,-45.5 334,-26.5 182,-26.5"/>
<text text-anchor="middle" x="258" y="-33.5" font-family="Helvetica,sans-Serif" font-size="10.00">FrontEnd.Controller.interpret</text>
</a>
</g>
</g>
<!-- Node1&#45;&gt;Node2 -->
<g id="edge1" class="edge"><title>Node1&#45;&gt;Node2</title>
<path fill="none" stroke="midnightblue" d="M155.698,-24.3752C164.415,-25.3755 173.253,-26.3896 181.889,-27.3807"/>
<polygon fill="midnightblue" stroke="midnightblue" points="155.873,-20.8723 145.539,-23.2094 155.075,-27.8267 155.873,-20.8723"/>
</g>
<!-- Node4 -->
<g id="node4" class="node"><title>Node4</title>
<g id="a_node4"><a xlink:href="../../dd/d2e/class_front_end_1_1_controller.html#a29be9ff259428dbe97eebe3ec9a13ac5" target="_top" xlink:title="FrontEnd.Controller.update">
<polygon fill="white" stroke="black" points="556,-7.5 556,-26.5 700,-26.5 700,-7.5 556,-7.5"/>
<text text-anchor="middle" x="628" y="-14.5" font-family="Helvetica,sans-Serif" font-size="10.00">FrontEnd.Controller.update</text>
</a>
</g>
</g>
<!-- Node1&#45;&gt;Node4 -->
<g id="edge4" class="edge"><title>Node1&#45;&gt;Node4</title>
<path fill="none" stroke="midnightblue" d="M155.923,-14.0186C245.388,-13.1332 392.892,-12.2185 520,-14 531.614,-14.1628 543.934,-14.4249 555.924,-14.7281"/>
<polygon fill="midnightblue" stroke="midnightblue" points="155.807,-10.5195 145.843,-14.1207 155.878,-17.5192 155.807,-10.5195"/>
</g>
<!-- Node3 -->
<g id="node3" class="node"><title>Node3</title>
<g id="a_node3"><a xlink:href="../../dd/d2e/class_front_end_1_1_controller.html#a41885f349a8f334750e26d685a8981d2" target="_top" xlink:title="FrontEnd.Controller.execute\lCommand">
<polygon fill="white" stroke="black" points="370.5,-24 370.5,-54 519.5,-54 519.5,-24 370.5,-24"/>
<text text-anchor="start" x="378.5" y="-42" font-family="Helvetica,sans-Serif" font-size="10.00">FrontEnd.Controller.execute</text>
<text text-anchor="middle" x="445" y="-31" font-family="Helvetica,sans-Serif" font-size="10.00">Command</text>
</a>
</g>
</g>
<!-- Node2&#45;&gt;Node3 -->
<g id="edge2" class="edge"><title>Node2&#45;&gt;Node3</title>
<path fill="none" stroke="midnightblue" d="M344.366,-37.3843C353.035,-37.5249 361.788,-37.6668 370.318,-37.8052"/>
<polygon fill="midnightblue" stroke="midnightblue" points="344.302,-33.8829 334.247,-37.2202 344.188,-40.882 344.302,-33.8829"/>
</g>
<!-- Node3&#45;&gt;Node4 -->
<g id="edge3" class="edge"><title>Node3&#45;&gt;Node4</title>
<path fill="none" stroke="midnightblue" d="M529.771,-28.8178C538.468,-27.7607 547.249,-26.6935 555.789,-25.6555"/>
<polygon fill="midnightblue" stroke="midnightblue" points="529.124,-25.3707 519.62,-30.0518 529.969,-32.3195 529.124,-25.3707"/>
</g>
</g>
</svg>
