<?xml version="1.0" encoding="UTF-8" standalone="no"?>
<!DOCTYPE svg PUBLIC "-//W3C//DTD SVG 1.1//EN"
 "http://www.w3.org/Graphics/SVG/1.1/DTD/svg11.dtd">
<!-- Generated by graphviz version 2.36.0 (20140111.2315)
 -->
<!-- Title: FrontEnd.StringChooser.getWordInLang Pages: 1 -->
<svg width="536pt" height="349pt"
 viewBox="0.00 0.00 536.00 349.00" xmlns="http://www.w3.org/2000/svg" xmlns:xlink="http://www.w3.org/1999/xlink">
<g id="graph0" class="graph" transform="scale(1 1) rotate(0) translate(4 345)">
<title>FrontEnd.StringChooser.getWordInLang</title>
<polygon fill="white" stroke="none" points="-4,4 -4,-345 532,-345 532,4 -4,4"/>
<!-- Node1 -->
<g id="node1" class="node"><title>Node1</title>
<polygon fill="#bfbfbf" stroke="black" points="0,-171 0,-201 148,-201 148,-171 0,-171"/>
<text text-anchor="start" x="8" y="-189" font-family="Helvetica,sans-Serif" font-size="10.00">FrontEnd.StringChooser.get</text>
<text text-anchor="middle" x="74" y="-178" font-family="Helvetica,sans-Serif" font-size="10.00">WordInLang</text>
</g>
<!-- Node2 -->
<g id="node2" class="node"><title>Node2</title>
<g id="a_node2"><a xlink:href="../../df/dec/class_front_end_1_1_view.html#a56dd9fe4ba6efa4b300ce982d450adef" target="_top" xlink:title="FrontEnd.View.makeClearButton">
<polygon fill="white" stroke="black" points="199,-321.5 199,-340.5 369,-340.5 369,-321.5 199,-321.5"/>
<text text-anchor="middle" x="284" y="-328.5" font-family="Helvetica,sans-Serif" font-size="10.00">FrontEnd.View.makeClearButton</text>
</a>
</g>
</g>
<!-- Node1&#45;&gt;Node2 -->
<g id="edge1" class="edge"><title>Node1&#45;&gt;Node2</title>
<path fill="none" stroke="midnightblue" d="M90.0213,-209.993C108.641,-237.684 142.983,-282.542 184,-307 194.633,-313.34 206.853,-318.008 218.997,-321.443"/>
<polygon fill="midnightblue" stroke="midnightblue" points="92.7372,-207.752 84.3227,-201.314 86.8859,-211.594 92.7372,-207.752"/>
</g>
<!-- Node3 -->
<g id="node3" class="node"><title>Node3</title>
<g id="a_node3"><a xlink:href="../../df/dec/class_front_end_1_1_view.html#a079d7e899ded516b169dc6e66da79e1e" target="_top" xlink:title="FrontEnd.View.View">
<polygon fill="white" stroke="black" points="420.5,-264.5 420.5,-283.5 527.5,-283.5 527.5,-264.5 420.5,-264.5"/>
<text text-anchor="middle" x="474" y="-271.5" font-family="Helvetica,sans-Serif" font-size="10.00">FrontEnd.View.View</text>
</a>
</g>
</g>
<!-- Node1&#45;&gt;Node3 -->
<g id="edge11" class="edge"><title>Node1&#45;&gt;Node3</title>
<path fill="none" stroke="midnightblue" d="M94.2253,-208.609C114.145,-230.128 147.441,-261.084 184,-274 264.66,-302.496 366.072,-293.035 424.815,-283.536"/>
<polygon fill="midnightblue" stroke="midnightblue" points="96.8054,-206.244 87.5105,-201.159 91.6057,-210.93 96.8054,-206.244"/>
</g>
<!-- Node4 -->
<g id="node4" class="node"><title>Node4</title>
<g id="a_node4"><a xlink:href="../../df/dec/class_front_end_1_1_view.html#ae27925be2e927768205db39426bf228e" target="_top" xlink:title="FrontEnd.View.makeTextAreas">
<polygon fill="white" stroke="black" points="204.5,-245.5 204.5,-264.5 363.5,-264.5 363.5,-245.5 204.5,-245.5"/>
<text text-anchor="middle" x="284" y="-252.5" font-family="Helvetica,sans-Serif" font-size="10.00">FrontEnd.View.makeTextAreas</text>
</a>
</g>
</g>
<!-- Node1&#45;&gt;Node4 -->
<g id="edge3" class="edge"><title>Node1&#45;&gt;Node4</title>
<path fill="none" stroke="midnightblue" d="M112.948,-205.579C133.532,-215.55 159.676,-227.184 184,-235 196.938,-239.157 211.115,-242.63 224.596,-245.453"/>
<polygon fill="midnightblue" stroke="midnightblue" points="114.426,-202.406 103.907,-201.135 111.337,-208.688 114.426,-202.406"/>
</g>
<!-- Node5 -->
<g id="node5" class="node"><title>Node5</title>
<g id="a_node5"><a xlink:href="../../df/dec/class_front_end_1_1_view.html#affad60393f506692d02f9dc2525780d2" target="_top" xlink:title="FrontEnd.View.makeTurtle\lButton">
<polygon fill="white" stroke="black" points="215,-196 215,-226 353,-226 353,-196 215,-196"/>
<text text-anchor="start" x="223" y="-214" font-family="Helvetica,sans-Serif" font-size="10.00">FrontEnd.View.makeTurtle</text>
<text text-anchor="middle" x="284" y="-203" font-family="Helvetica,sans-Serif" font-size="10.00">Button</text>
</a>
</g>
</g>
<!-- Node1&#45;&gt;Node5 -->
<g id="edge5" class="edge"><title>Node1&#45;&gt;Node5</title>
<path fill="none" stroke="midnightblue" d="M158.06,-195.983C176.842,-198.241 196.574,-200.612 214.667,-202.787"/>
<polygon fill="midnightblue" stroke="midnightblue" points="158.387,-192.497 148.041,-194.779 157.551,-199.447 158.387,-192.497"/>
</g>
<!-- Node6 -->
<g id="node6" class="node"><title>Node6</title>
<g id="a_node6"><a xlink:href="../../d0/d61/class_front_end_commands_1_1_new_workspace.html#a5793dc07a1e48d58beb9618673d342d7" target="_top" xlink:title="FrontEndCommands.NewWorkspace.\lNewWorkspace">
<polygon fill="white" stroke="black" points="188.5,-147 188.5,-177 379.5,-177 379.5,-147 188.5,-147"/>
<text text-anchor="start" x="196.5" y="-165" font-family="Helvetica,sans-Serif" font-size="10.00">FrontEndCommands.NewWorkspace.</text>
<text text-anchor="middle" x="284" y="-154" font-family="Helvetica,sans-Serif" font-size="10.00">NewWorkspace</text>
</a>
</g>
</g>
<!-- Node1&#45;&gt;Node6 -->
<g id="edge7" class="edge"><title>Node1&#45;&gt;Node6</title>
<path fill="none" stroke="midnightblue" d="M158.216,-176.398C168.085,-175.259 178.215,-174.091 188.23,-172.935"/>
<polygon fill="midnightblue" stroke="midnightblue" points="157.573,-172.949 148.041,-177.572 158.376,-179.903 157.573,-172.949"/>
</g>
<!-- Node7 -->
<g id="node7" class="node"><title>Node7</title>
<g id="a_node7"><a xlink:href="../../de/d36/class_front_end_commands_1_1_super_command.html#aa30bcc4c457df0b399c61fa30c97bc8a" target="_top" xlink:title="FrontEndCommands.SuperCommand.\lSuperCommand">
<polygon fill="white" stroke="black" points="184.5,-98 184.5,-128 383.5,-128 383.5,-98 184.5,-98"/>
<text text-anchor="start" x="192.5" y="-116" font-family="Helvetica,sans-Serif" font-size="10.00">FrontEndCommands.SuperCommand.</text>
<text text-anchor="middle" x="284" y="-105" font-family="Helvetica,sans-Serif" font-size="10.00">SuperCommand</text>
</a>
</g>
</g>
<!-- Node1&#45;&gt;Node7 -->
<g id="edge8" class="edge"><title>Node1&#45;&gt;Node7</title>
<path fill="none" stroke="midnightblue" d="M114.737,-166.581C135.12,-157.116 160.536,-146.066 184,-138 194.562,-134.37 205.92,-131.012 217.045,-128.013"/>
<polygon fill="midnightblue" stroke="midnightblue" points="113.022,-163.52 105.46,-170.941 115.999,-169.855 113.022,-163.52"/>
</g>
<!-- Node8 -->
<g id="node8" class="node"><title>Node8</title>
<g id="a_node8"><a xlink:href="../../de/d8a/class_front_end_1_1_user_commands.html#a01fe78177fa8c04daa4be57ae42c27e2" target="_top" xlink:title="FrontEnd.UserCommands.User\lCommands">
<polygon fill="white" stroke="black" points="201.5,-49 201.5,-79 366.5,-79 366.5,-49 201.5,-49"/>
<text text-anchor="start" x="209.5" y="-67" font-family="Helvetica,sans-Serif" font-size="10.00">FrontEnd.UserCommands.User</text>
<text text-anchor="middle" x="284" y="-56" font-family="Helvetica,sans-Serif" font-size="10.00">Commands</text>
</a>
</g>
</g>
<!-- Node1&#45;&gt;Node8 -->
<g id="edge9" class="edge"><title>Node1&#45;&gt;Node8</title>
<path fill="none" stroke="midnightblue" d="M94.5988,-163.074C114.805,-140.884 148.316,-107.909 184,-89 191.284,-85.1404 199.188,-81.858 207.246,-79.0706"/>
<polygon fill="midnightblue" stroke="midnightblue" points="91.8261,-160.924 87.7771,-170.715 97.0479,-165.586 91.8261,-160.924"/>
</g>
<!-- Node9 -->
<g id="node9" class="node"><title>Node9</title>
<g id="a_node9"><a xlink:href="../../df/d59/class_front_end_1_1_user_variables_storage.html#a607aa4d36f074c51246f69be4db7106a" target="_top" xlink:title="FrontEnd.UserVariablesStorage.\lUserVariablesStorage">
<polygon fill="white" stroke="black" points="199.5,-0 199.5,-30 368.5,-30 368.5,-0 199.5,-0"/>
<text text-anchor="start" x="207.5" y="-18" font-family="Helvetica,sans-Serif" font-size="10.00">FrontEnd.UserVariablesStorage.</text>
<text text-anchor="middle" x="284" y="-7" font-family="Helvetica,sans-Serif" font-size="10.00">UserVariablesStorage</text>
</a>
</g>
</g>
<!-- Node1&#45;&gt;Node9 -->
<g id="edge10" class="edge"><title>Node1&#45;&gt;Node9</title>
<path fill="none" stroke="midnightblue" d="M86.5084,-161.592C103.258,-128.79 137.502,-71.0271 184,-40 189.825,-36.1134 196.209,-32.8311 202.841,-30.0589"/>
<polygon fill="midnightblue" stroke="midnightblue" points="83.1923,-160.401 81.8775,-170.913 89.4613,-163.515 83.1923,-160.401"/>
</g>
<!-- Node2&#45;&gt;Node3 -->
<g id="edge2" class="edge"><title>Node2&#45;&gt;Node3</title>
<path fill="none" stroke="midnightblue" d="M339.1,-319.098C353.763,-315.543 369.57,-311.408 384,-307 406.538,-300.116 431.667,-290.626 449.46,-283.589"/>
<polygon fill="midnightblue" stroke="midnightblue" points="338.08,-315.743 329.162,-321.462 339.7,-322.553 338.08,-315.743"/>
</g>
<!-- Node4&#45;&gt;Node3 -->
<g id="edge4" class="edge"><title>Node4&#45;&gt;Node3</title>
<path fill="none" stroke="midnightblue" d="M374.011,-263.996C389.863,-265.598 405.905,-267.219 420.327,-268.677"/>
<polygon fill="midnightblue" stroke="midnightblue" points="373.941,-260.471 363.64,-262.948 373.237,-267.435 373.941,-260.471"/>
</g>
<!-- Node5&#45;&gt;Node3 -->
<g id="edge6" class="edge"><title>Node5&#45;&gt;Node3</title>
<path fill="none" stroke="midnightblue" d="M360.417,-228.734C368.43,-231.008 376.417,-233.441 384,-236 408.356,-244.219 435.389,-256.187 453.2,-264.487"/>
<polygon fill="midnightblue" stroke="midnightblue" points="361.226,-225.327 350.656,-226.043 359.366,-232.075 361.226,-225.327"/>
</g>
</g>
</svg>
