<?xml version="1.0" encoding="UTF-8" standalone="no"?>
<!DOCTYPE svg PUBLIC "-//W3C//DTD SVG 1.1//EN"
 "http://www.w3.org/Graphics/SVG/1.1/DTD/svg11.dtd">
<!-- Generated by graphviz version 2.36.0 (20140111.2315)
 -->
<!-- Title: Nodes.turtlecommands.IDNode Pages: 1 -->
<!--zoomable 409 -->
<svg id="main" version="1.1" xmlns="http://www.w3.org/2000/svg" xmlns:xlink="http://www.w3.org/1999/xlink" xml:space="preserve" onload="init(evt)">
<style type="text/css"><![CDATA[
.edge:hover path { stroke: red; }
.edge:hover polygon { stroke: red; fill: red; }
]]></style>
<script type="text/javascript"><![CDATA[
var edges = document.getElementsByTagName('g');
if (edges && edges.length) {
  for (var i=0;i<edges.length;i++) {
    if (edges[i].id.substr(0,4)=='edge') {
      edges[i].setAttribute('class','edge');
    }
  }
}
]]></script>
        <defs>
                <circle id="rim" cx="0" cy="0" r="7"/>
                <circle id="rim2" cx="0" cy="0" r="3.5"/>
                <g id="zoomPlus">
                        <use xlink:href="#rim" fill="#404040">
                                <set attributeName="fill" to="#808080" begin="zoomplus.mouseover" end="zoomplus.mouseout"/>
                        </use>
                        <path d="M-4,0h8M0,-4v8" fill="none" stroke="white" stroke-width="1.5" pointer-events="none"/>
                </g>
                <g id="zoomMin">
                        <use xlink:href="#rim" fill="#404040">
                                <set attributeName="fill" to="#808080" begin="zoomminus.mouseover" end="zoomminus.mouseout"/>
                        </use>
                        <path d="M-4,0h8" fill="none" stroke="white" stroke-width="1.5" pointer-events="none"/>
                </g>
                <g id="dirArrow">
                        <path fill="none" stroke="white" stroke-width="1.5" d="M0,-3.0v7 M-2.5,-0.5L0,-3.0L2.5,-0.5"/>
                </g>
               <g id="resetDef">
                       <use xlink:href="#rim2" fill="#404040">
                               <set attributeName="fill" to="#808080" begin="reset.mouseover" end="reset.mouseout"/>
                       </use>
               </g>
        </defs>

<script type="text/javascript">
var viewWidth = 1562;
var viewHeight = 409;
var sectionId = 'dynsection-1';
</script>
<script xlink:href="../../svgpan.js"/>
<svg id="graph" class="graph">
<g id="viewport">
<title>Nodes.turtlecommands.IDNode</title>
<polygon fill="white" stroke="none" points="-4,4 -4,-405.157 1558,-405.157 1558,4 -4,4"/>
<!-- Node1 -->
<g id="node1" class="node"><title>Node1</title>
<polygon fill="#bfbfbf" stroke="black" points="1386,-315.657 1386,-334.657 1554,-334.657 1554,-315.657 1386,-315.657"/>
<text text-anchor="middle" x="1470" y="-322.657" font-family="Helvetica,sans-Serif" font-size="10.00">Nodes.turtlecommands.IDNode</text>
</g>
<!-- Node2 -->
<g id="node2" class="node"><title>Node2</title>
<g id="a_node2"><a xlink:href="../../d6/dfd/class_nodes_1_1turtlecommands_1_1_zero_children_node.html" target="_top" xlink:title="Nodes.turtlecommands.Zero\lChildrenNode">
<polygon fill="white" stroke="black" points="1192,-310.157 1192,-340.157 1348,-340.157 1348,-310.157 1192,-310.157"/>
<text text-anchor="start" x="1200" y="-328.157" font-family="Helvetica,sans-Serif" font-size="10.00">Nodes.turtlecommands.Zero</text>
<text text-anchor="middle" x="1270" y="-317.157" font-family="Helvetica,sans-Serif" font-size="10.00">ChildrenNode</text>
</a>
</g>
</g>
<!-- Node2&#45;&gt;Node1 -->
<g id="edge1" class="edge"><title>Node2&#45;&gt;Node1</title>
<path fill="none" stroke="midnightblue" d="M1358.36,-325.157C1367.5,-325.157 1376.78,-325.157 1385.87,-325.157"/>
<polygon fill="midnightblue" stroke="midnightblue" points="1358.12,-321.657 1348.12,-325.157 1358.12,-328.657 1358.12,-321.657"/>
</g>
<!-- Node3 -->
<g id="node3" class="node"><title>Node3</title>
<g id="a_node3"><a xlink:href="../../dc/d38/class_nodes_1_1turtlecommands_1_1_command_node.html" target="_top" xlink:title="Nodes.turtlecommands.CommandNode">
<polygon fill="white" stroke="black" points="944.5,-315.657 944.5,-334.657 1153.5,-334.657 1153.5,-315.657 944.5,-315.657"/>
<text text-anchor="middle" x="1049" y="-322.657" font-family="Helvetica,sans-Serif" font-size="10.00">Nodes.turtlecommands.CommandNode</text>
</a>
</g>
</g>
<!-- Node3&#45;&gt;Node2 -->
<g id="edge2" class="edge"><title>Node3&#45;&gt;Node2</title>
<path fill="none" stroke="midnightblue" d="M1163.96,-325.157C1173.38,-325.157 1182.76,-325.157 1191.81,-325.157"/>
<polygon fill="midnightblue" stroke="midnightblue" points="1163.73,-321.657 1153.73,-325.157 1163.73,-328.657 1163.73,-321.657"/>
</g>
<!-- Node4 -->
<g id="node4" class="node"><title>Node4</title>
<g id="a_node4"><a xlink:href="../../df/dac/class_nodes_1_1_node.html" target="_top" xlink:title="Nodes.Node">
<polygon fill="white" stroke="black" points="727,-352.657 727,-371.657 803,-371.657 803,-352.657 727,-352.657"/>
<text text-anchor="middle" x="765" y="-359.657" font-family="Helvetica,sans-Serif" font-size="10.00">Nodes.Node</text>
</a>
</g>
</g>
<!-- Node4&#45;&gt;Node3 -->
<g id="edge3" class="edge"><title>Node4&#45;&gt;Node3</title>
<path fill="none" stroke="midnightblue" d="M813.666,-359.227C845.553,-356.963 888.401,-353.333 926,-348.157 951.729,-344.615 980.268,-339.311 1003.27,-334.689"/>
<polygon fill="midnightblue" stroke="midnightblue" points="813.031,-355.762 803.296,-359.943 813.514,-362.746 813.031,-355.762"/>
</g>
<!-- Node4&#45;&gt;Node3 -->
<g id="edge6" class="edge"><title>Node4&#45;&gt;Node3</title>
<path fill="none" stroke="#9a32cd" stroke-dasharray="5,2" d="M784.212,-345.866C795.407,-336.972 810.532,-326.84 826,-322.157 881.89,-305.235 949.379,-309.392 995.164,-315.606"/>
<polygon fill="#9a32cd" stroke="#9a32cd" points="781.916,-343.223 776.477,-352.315 786.399,-348.6 781.916,-343.223"/>
<text text-anchor="middle" x="876" y="-336.157" font-family="Helvetica,sans-Serif" font-size="10.00"> right</text>
<text text-anchor="middle" x="876" y="-325.157" font-family="Helvetica,sans-Serif" font-size="10.00">left</text>
</g>
<!-- Node4&#45;&gt;Node4 -->
<g id="edge5" class="edge"><title>Node4&#45;&gt;Node4</title>
<path fill="none" stroke="#9a32cd" stroke-dasharray="5,2" d="M746.853,-381.557C748.065,-386.471 754.114,-390.157 765,-390.157 782.418,-390.157 787.453,-380.722 780.105,-371.914"/>
<polygon fill="#9a32cd" stroke="#9a32cd" points="750.224,-382.504 749.895,-371.914 743.548,-380.397 750.224,-382.504"/>
<text text-anchor="middle" x="765" y="-393.157" font-family="Helvetica,sans-Serif" font-size="10.00"> parent</text>
</g>
<!-- Node5 -->
<g id="node5" class="node"><title>Node5</title>
<polygon fill="white" stroke="#bfbfbf" points="472,-360.657 472,-379.657 612,-379.657 612,-360.657 472,-360.657"/>
<text text-anchor="middle" x="542" y="-367.657" font-family="Helvetica,sans-Serif" font-size="10.00">ArrayList&lt; Nodes.Node &gt;</text>
</g>
<!-- Node5&#45;&gt;Node4 -->
<g id="edge4" class="edge"><title>Node5&#45;&gt;Node4</title>
<path fill="none" stroke="#9a32cd" stroke-dasharray="5,2" d="M622.427,-367.282C658.098,-365.99 698.471,-364.529 726.949,-363.498"/>
<polygon fill="#9a32cd" stroke="#9a32cd" points="621.884,-363.799 612.017,-367.658 622.137,-370.794 621.884,-363.799"/>
<text text-anchor="middle" x="667" y="-369.157" font-family="Helvetica,sans-Serif" font-size="10.00"> myChildren</text>
</g>
<!-- Node6 -->
<g id="node6" class="node"><title>Node6</title>
<g id="a_node6"><a xlink:href="../../d1/de0/class_backend_1_1_turtle.html" target="_top" xlink:title="Backend.Turtle">
<polygon fill="white" stroke="black" points="722,-201.657 722,-220.657 808,-220.657 808,-201.657 722,-201.657"/>
<text text-anchor="middle" x="765" y="-208.657" font-family="Helvetica,sans-Serif" font-size="10.00">Backend.Turtle</text>
</a>
</g>
</g>
<!-- Node6&#45;&gt;Node3 -->
<g id="edge7" class="edge"><title>Node6&#45;&gt;Node3</title>
<path fill="none" stroke="#9a32cd" stroke-dasharray="5,2" d="M798.919,-224.464C856.466,-247.728 974.014,-295.248 1024.31,-315.58"/>
<polygon fill="#9a32cd" stroke="#9a32cd" points="800.141,-221.183 789.558,-220.68 797.517,-227.673 800.141,-221.183"/>
<text text-anchor="middle" x="876" y="-278.157" font-family="Helvetica,sans-Serif" font-size="10.00"> myTurtle</text>
</g>
<!-- Node8 -->
<g id="node8" class="node"><title>Node8</title>
<g id="a_node8"><a xlink:href="../../d9/d38/class_turtle_view_1_1_turtle_information.html" target="_top" xlink:title="TurtleView.TurtleInformation">
<polygon fill="white" stroke="black" points="976,-162.657 976,-181.657 1122,-181.657 1122,-162.657 976,-162.657"/>
<text text-anchor="middle" x="1049" y="-169.657" font-family="Helvetica,sans-Serif" font-size="10.00">TurtleView.TurtleInformation</text>
</a>
</g>
</g>
<!-- Node6&#45;&gt;Node8 -->
<g id="edge11" class="edge"><title>Node6&#45;&gt;Node8</title>
<path fill="none" stroke="#9a32cd" stroke-dasharray="5,2" d="M818.294,-200.453C820.897,-199.997 823.476,-199.562 826,-199.157 875.835,-191.155 932.304,-184.317 975.819,-179.525"/>
<polygon fill="#9a32cd" stroke="#9a32cd" points="817.422,-197.054 808.213,-202.294 818.679,-203.94 817.422,-197.054"/>
<text text-anchor="middle" x="876" y="-202.157" font-family="Helvetica,sans-Serif" font-size="10.00"> myTurtle</text>
</g>
<!-- Node12 -->
<g id="node12" class="node"><title>Node12</title>
<g id="a_node12"><a xlink:href="../../dc/d04/class_turtle_view_1_1_turtle_image_box.html" target="_top" xlink:title="TurtleView.TurtleImageBox">
<polygon fill="white" stroke="black" points="979,-66.6568 979,-85.6568 1119,-85.6568 1119,-66.6568 979,-66.6568"/>
<text text-anchor="middle" x="1049" y="-73.6568" font-family="Helvetica,sans-Serif" font-size="10.00">TurtleView.TurtleImageBox</text>
</a>
</g>
</g>
<!-- Node6&#45;&gt;Node12 -->
<g id="edge16" class="edge"><title>Node6&#45;&gt;Node12</title>
<path fill="none" stroke="#9a32cd" stroke-dasharray="5,2" d="M784.343,-194.498C792.744,-185.913 802.117,-174.812 808,-163.157 824.814,-129.848 797.19,-104.868 826,-81.1568 881.068,-35.8351 972.481,-53.4063 1018.95,-66.6389"/>
<polygon fill="#9a32cd" stroke="#9a32cd" points="781.753,-192.135 777.03,-201.619 786.636,-197.15 781.753,-192.135"/>
<text text-anchor="middle" x="876" y="-84.1568" font-family="Helvetica,sans-Serif" font-size="10.00"> myTurtle</text>
</g>
<!-- Node7 -->
<g id="node7" class="node"><title>Node7</title>
<polygon fill="white" stroke="#bfbfbf" points="508,-123.657 508,-142.657 576,-142.657 576,-123.657 508,-123.657"/>
<text text-anchor="middle" x="542" y="-130.657" font-family="Helvetica,sans-Serif" font-size="10.00">ImageView</text>
</g>
<!-- Node7&#45;&gt;Node6 -->
<g id="edge8" class="edge"><title>Node7&#45;&gt;Node6</title>
<path fill="none" stroke="midnightblue" d="M586.025,-141.371C619.055,-148.452 665.394,-160.083 704,-176.157 720.477,-183.017 737.956,-193.643 749.772,-201.388"/>
<polygon fill="midnightblue" stroke="midnightblue" points="586.729,-137.943 576.224,-139.32 585.295,-144.794 586.729,-137.943"/>
</g>
<!-- Node8&#45;&gt;Node6 -->
<g id="edge9" class="edge"><title>Node8&#45;&gt;Node6</title>
<path fill="none" stroke="#9a32cd" stroke-dasharray="5,2" d="M1016.65,-185.491C992.403,-195.047 957.727,-207.088 926,-212.157 882.112,-219.168 870.443,-212.527 826,-212.157 820.27,-212.109 814.233,-212.036 808.285,-211.95"/>
<polygon fill="#9a32cd" stroke="#9a32cd" points="1018.07,-188.69 1026.04,-181.708 1015.46,-182.197 1018.07,-188.69"/>
<text text-anchor="middle" x="876" y="-219.157" font-family="Helvetica,sans-Serif" font-size="10.00"> myTurtleInformation</text>
</g>
<!-- Node9 -->
<g id="node9" class="node"><title>Node9</title>
<polygon fill="white" stroke="#bfbfbf" points="291.5,-78.6568 291.5,-97.6568 332.5,-97.6568 332.5,-78.6568 291.5,-78.6568"/>
<text text-anchor="middle" x="312" y="-85.6568" font-family="Helvetica,sans-Serif" font-size="10.00">VBox</text>
</g>
<!-- Node9&#45;&gt;Node8 -->
<g id="edge10" class="edge"><title>Node9&#45;&gt;Node8</title>
<path fill="none" stroke="midnightblue" d="M342.607,-79.8669C352.138,-76.8704 362.648,-73.2141 372,-69.1568 380.396,-65.5146 381.16,-61.5235 390,-59.1568 505.069,-28.3517 826.831,13.838 926,-52.1568 943.248,-63.6349 931.216,-78.853 944,-95.1568 967.843,-125.565 1006.59,-149.871 1029.46,-162.548"/>
<polygon fill="midnightblue" stroke="midnightblue" points="341.311,-76.6025 332.752,-82.8473 343.337,-83.3028 341.311,-76.6025"/>
</g>
<!-- Node16 -->
<g id="node16" class="node"><title>Node16</title>
<g id="a_node16"><a xlink:href="../../d0/d46/class_pen_1_1_pen_options.html" target="_top" xlink:title="Pen.PenOptions">
<polygon fill="white" stroke="black" points="496,-161.657 496,-180.657 588,-180.657 588,-161.657 496,-161.657"/>
<text text-anchor="middle" x="542" y="-168.657" font-family="Helvetica,sans-Serif" font-size="10.00">Pen.PenOptions</text>
</a>
</g>
</g>
<!-- Node9&#45;&gt;Node16 -->
<g id="edge20" class="edge"><title>Node9&#45;&gt;Node16</title>
<path fill="none" stroke="midnightblue" d="M342.422,-97.5901C351.872,-100.631 362.382,-104.025 372,-107.157 408.483,-119.038 421.324,-114.045 454,-134.157 463.635,-140.087 462.222,-146.466 472,-152.157 479.302,-156.407 487.594,-159.739 495.834,-162.342"/>
<polygon fill="midnightblue" stroke="midnightblue" points="343.268,-94.1857 332.677,-94.458 341.127,-100.85 343.268,-94.1857"/>
</g>
<!-- Node10 -->
<g id="node10" class="node"><title>Node10</title>
<polygon fill="white" stroke="#bfbfbf" points="744,-134.657 744,-153.657 786,-153.657 786,-134.657 744,-134.657"/>
<text text-anchor="middle" x="765" y="-141.657" font-family="Helvetica,sans-Serif" font-size="10.00">Label</text>
</g>
<!-- Node10&#45;&gt;Node8 -->
<g id="edge12" class="edge"><title>Node10&#45;&gt;Node8</title>
<path fill="none" stroke="#9a32cd" stroke-dasharray="5,2" d="M796.152,-142.454C828.4,-141.075 880.987,-140.093 926,-145.157 956.18,-148.552 989.837,-156.309 1014.14,-162.641"/>
<polygon fill="#9a32cd" stroke="#9a32cd" points="795.86,-138.964 786.035,-142.93 796.188,-145.957 795.86,-138.964"/>
<text text-anchor="middle" x="876" y="-170.157" font-family="Helvetica,sans-Serif" font-size="10.00"> turtleIndexLabel</text>
<text text-anchor="middle" x="876" y="-159.157" font-family="Helvetica,sans-Serif" font-size="10.00">turtleDirectionLabel</text>
<text text-anchor="middle" x="876" y="-148.157" font-family="Helvetica,sans-Serif" font-size="10.00">turtlePositionLabel</text>
</g>
<!-- Node11 -->
<g id="node11" class="node"><title>Node11</title>
<polygon fill="white" stroke="#bfbfbf" points="515,-85.6568 515,-104.657 569,-104.657 569,-85.6568 515,-85.6568"/>
<text text-anchor="middle" x="542" y="-92.6568" font-family="Helvetica,sans-Serif" font-size="10.00">Point2D</text>
</g>
<!-- Node11&#45;&gt;Node6 -->
<g id="edge13" class="edge"><title>Node11&#45;&gt;Node6</title>
<path fill="none" stroke="#9a32cd" stroke-dasharray="5,2" d="M579.18,-97.4008C613.941,-101.116 666.563,-110.979 704,-137.157 715.518,-145.211 713.359,-152.073 722,-163.157 732.757,-176.955 746.234,-192.005 754.977,-201.506"/>
<polygon fill="#9a32cd" stroke="#9a32cd" points="579.289,-93.8955 569.003,-96.4339 578.627,-100.864 579.289,-93.8955"/>
<text text-anchor="middle" x="667" y="-140.157" font-family="Helvetica,sans-Serif" font-size="10.00"> myLocation</text>
</g>
<!-- Node12&#45;&gt;Node6 -->
<g id="edge14" class="edge"><title>Node12&#45;&gt;Node6</title>
<path fill="none" stroke="#9a32cd" stroke-dasharray="5,2" d="M968.981,-87.0473C914.539,-95.8847 848.166,-109.723 826,-127.157 811.94,-138.216 817.971,-148.305 808,-163.157 798.372,-177.499 784.882,-192.186 775.812,-201.471"/>
<polygon fill="#9a32cd" stroke="#9a32cd" points="969.668,-90.4821 978.995,-85.4556 968.569,-83.5689 969.668,-90.4821"/>
<text text-anchor="middle" x="876" y="-130.157" font-family="Helvetica,sans-Serif" font-size="10.00"> myImageBox</text>
</g>
<!-- Node13 -->
<g id="node13" class="node"><title>Node13</title>
<polygon fill="white" stroke="#bfbfbf" points="3,-10.1568 3,-40.1568 129,-40.1568 129,-10.1568 3,-10.1568"/>
<text text-anchor="start" x="11" y="-28.1568" font-family="Helvetica,sans-Serif" font-size="10.00">javafx::scene::control</text>
<text text-anchor="middle" x="66" y="-17.1568" font-family="Helvetica,sans-Serif" font-size="10.00">::ComboBox&lt; String &gt;</text>
</g>
<!-- Node13&#45;&gt;Node12 -->
<g id="edge15" class="edge"><title>Node13&#45;&gt;Node12</title>
<path fill="none" stroke="midnightblue" d="M139.326,-13.8376C187.775,-7.21989 253.057,-0.156823 311,-0.156823 311,-0.156823 311,-0.156823 766,-0.156823 837.611,-0.156823 857.132,0.47047 926,-19.1568 965.795,-30.4983 1008.88,-53.405 1031.69,-66.4628"/>
<polygon fill="midnightblue" stroke="midnightblue" points="138.674,-10.3946 129.252,-15.2403 139.639,-17.3277 138.674,-10.3946"/>
</g>
<!-- Node17 -->
<g id="node17" class="node"><title>Node17</title>
<g id="a_node17"><a xlink:href="../../d6/da0/class_pen_1_1_pen_type_box.html" target="_top" xlink:title="Pen.PenTypeBox">
<polygon fill="white" stroke="black" points="264.5,-40.6568 264.5,-59.6568 359.5,-59.6568 359.5,-40.6568 264.5,-40.6568"/>
<text text-anchor="middle" x="312" y="-47.6568" font-family="Helvetica,sans-Serif" font-size="10.00">Pen.PenTypeBox</text>
</a>
</g>
</g>
<!-- Node13&#45;&gt;Node17 -->
<g id="edge22" class="edge"><title>Node13&#45;&gt;Node17</title>
<path fill="none" stroke="midnightblue" d="M139.512,-30.3106C168.883,-32.639 203.096,-35.6571 234,-39.1568 243.795,-40.2661 254.265,-41.6372 264.229,-43.0306"/>
<polygon fill="midnightblue" stroke="midnightblue" points="139.581,-26.8054 129.339,-29.5161 139.036,-33.7842 139.581,-26.8054"/>
</g>
<!-- Node20 -->
<g id="node20" class="node"><title>Node20</title>
<g id="a_node20"><a xlink:href="../../df/d6f/class_pen_1_1_pen_color_box.html" target="_top" xlink:title="Pen.PenColorBox">
<polygon fill="white" stroke="black" points="263,-116.657 263,-135.657 361,-135.657 361,-116.657 263,-116.657"/>
<text text-anchor="middle" x="312" y="-123.657" font-family="Helvetica,sans-Serif" font-size="10.00">Pen.PenColorBox</text>
</a>
</g>
</g>
<!-- Node13&#45;&gt;Node20 -->
<g id="edge26" class="edge"><title>Node13&#45;&gt;Node20</title>
<path fill="none" stroke="midnightblue" d="M139.536,-35.4208C177.662,-42.0952 219.443,-51.8484 234,-64.1568 249.821,-77.5336 236.742,-93.1419 252,-107.157 256.2,-111.015 261.19,-114.09 266.463,-116.541"/>
<polygon fill="midnightblue" stroke="midnightblue" points="139.869,-31.9273 129.425,-33.7055 138.699,-38.8287 139.869,-31.9273"/>
</g>
<!-- Node14 -->
<g id="node14" class="node"><title>Node14</title>
<g id="a_node14"><a xlink:href="../../dc/ded/class_turtle_view_1_1_active_ring.html" target="_top" xlink:title="TurtleView.ActiveRing">
<polygon fill="white" stroke="black" points="484,-322.657 484,-341.657 600,-341.657 600,-322.657 484,-322.657"/>
<text text-anchor="middle" x="542" y="-329.657" font-family="Helvetica,sans-Serif" font-size="10.00">TurtleView.ActiveRing</text>
</a>
</g>
</g>
<!-- Node14&#45;&gt;Node6 -->
<g id="edge17" class="edge"><title>Node14&#45;&gt;Node6</title>
<path fill="none" stroke="#9a32cd" stroke-dasharray="5,2" d="M610.505,-329.743C641.146,-325.91 676.578,-317.409 704,-299.157 733.708,-279.383 752.725,-239.407 760.285,-220.929"/>
<polygon fill="#9a32cd" stroke="#9a32cd" points="609.87,-326.292 600.316,-330.871 610.64,-333.249 609.87,-326.292"/>
<text text-anchor="middle" x="667" y="-329.157" font-family="Helvetica,sans-Serif" font-size="10.00"> myRing</text>
</g>
<!-- Node15 -->
<g id="node15" class="node"><title>Node15</title>
<polygon fill="white" stroke="#bfbfbf" points="290.5,-322.657 290.5,-341.657 333.5,-341.657 333.5,-322.657 290.5,-322.657"/>
<text text-anchor="middle" x="312" y="-329.657" font-family="Helvetica,sans-Serif" font-size="10.00">Circle</text>
</g>
<!-- Node15&#45;&gt;Node14 -->
<g id="edge18" class="edge"><title>Node15&#45;&gt;Node14</title>
<path fill="none" stroke="midnightblue" d="M343.922,-332.157C379.675,-332.157 439.281,-332.157 483.597,-332.157"/>
<polygon fill="midnightblue" stroke="midnightblue" points="343.636,-328.657 333.636,-332.157 343.636,-335.657 343.636,-328.657"/>
</g>
<!-- Node16&#45;&gt;Node6 -->
<g id="edge19" class="edge"><title>Node16&#45;&gt;Node6</title>
<path fill="none" stroke="#9a32cd" stroke-dasharray="5,2" d="M598.39,-175.937C629.637,-179.242 669.262,-184.455 704,-192.157 715.094,-194.617 727.077,-198.214 737.395,-201.618"/>
<polygon fill="#9a32cd" stroke="#9a32cd" points="598.438,-172.424 588.134,-174.888 597.726,-179.388 598.438,-172.424"/>
<text text-anchor="middle" x="667" y="-195.157" font-family="Helvetica,sans-Serif" font-size="10.00"> myPenOptions</text>
</g>
<!-- Node17&#45;&gt;Node16 -->
<g id="edge21" class="edge"><title>Node17&#45;&gt;Node16</title>
<path fill="none" stroke="#9a32cd" stroke-dasharray="5,2" d="M369.585,-57.1865C398.296,-63.496 431.715,-75.4633 454,-98.1568 471.725,-116.207 453.643,-134.749 472,-152.157 478.581,-158.398 487.02,-162.625 495.722,-165.479"/>
<polygon fill="#9a32cd" stroke="#9a32cd" points="370.147,-53.7294 359.652,-55.1824 368.762,-60.5912 370.147,-53.7294"/>
<text text-anchor="middle" x="422" y="-101.157" font-family="Helvetica,sans-Serif" font-size="10.00"> myTypeBox</text>
</g>
<!-- Node18 -->
<g id="node18" class="node"><title>Node18</title>
<polygon fill="white" stroke="#bfbfbf" points="12.5,-68.1568 12.5,-98.1568 119.5,-98.1568 119.5,-68.1568 12.5,-68.1568"/>
<text text-anchor="start" x="20.5" y="-86.1568" font-family="Helvetica,sans-Serif" font-size="10.00">Map&lt; String, List&lt;</text>
<text text-anchor="middle" x="66" y="-75.1568" font-family="Helvetica,sans-Serif" font-size="10.00"> Double &gt; &gt;</text>
</g>
<!-- Node18&#45;&gt;Node17 -->
<g id="edge23" class="edge"><title>Node18&#45;&gt;Node17</title>
<path fill="none" stroke="#9a32cd" stroke-dasharray="5,2" d="M129.756,-74.6693C171.72,-68.9939 226.032,-61.6483 264.22,-56.4836"/>
<polygon fill="#9a32cd" stroke="#9a32cd" points="129.085,-71.2282 119.644,-76.0369 130.023,-78.165 129.085,-71.2282"/>
<text text-anchor="middle" x="192" y="-75.1568" font-family="Helvetica,sans-Serif" font-size="10.00"> myMap</text>
</g>
<!-- Node19 -->
<g id="node19" class="node"><title>Node19</title>
<polygon fill="white" stroke="#bfbfbf" points="280,-154.657 280,-173.657 344,-173.657 344,-154.657 280,-154.657"/>
<text text-anchor="middle" x="312" y="-161.657" font-family="Helvetica,sans-Serif" font-size="10.00">CheckBox</text>
</g>
<!-- Node19&#45;&gt;Node16 -->
<g id="edge24" class="edge"><title>Node19&#45;&gt;Node16</title>
<path fill="none" stroke="#9a32cd" stroke-dasharray="5,2" d="M354.353,-163.779C382.463,-163.687 420.487,-163.884 454,-165.157 467.616,-165.674 482.411,-166.569 495.874,-167.513"/>
<polygon fill="#9a32cd" stroke="#9a32cd" points="354.079,-160.28 344.096,-163.827 354.112,-167.28 354.079,-160.28"/>
<text text-anchor="middle" x="422" y="-168.157" font-family="Helvetica,sans-Serif" font-size="10.00"> myDownBox</text>
</g>
<!-- Node20&#45;&gt;Node16 -->
<g id="edge25" class="edge"><title>Node20&#45;&gt;Node16</title>
<path fill="none" stroke="#9a32cd" stroke-dasharray="5,2" d="M371.054,-134.477C396.589,-138.432 426.88,-143.527 454,-149.157 471.237,-152.735 490.208,-157.441 506.024,-161.582"/>
<polygon fill="#9a32cd" stroke="#9a32cd" points="371.57,-131.015 361.156,-132.963 370.512,-137.934 371.57,-131.015"/>
<text text-anchor="middle" x="422" y="-152.157" font-family="Helvetica,sans-Serif" font-size="10.00"> myColorBox</text>
</g>
<!-- Node21 -->
<g id="node21" class="node"><title>Node21</title>
<polygon fill="white" stroke="#bfbfbf" points="6.5,-117.657 6.5,-136.657 125.5,-136.657 125.5,-117.657 6.5,-117.657"/>
<text text-anchor="middle" x="66" y="-124.657" font-family="Helvetica,sans-Serif" font-size="10.00">Map&lt; String, Color &gt;</text>
</g>
<!-- Node21&#45;&gt;Node20 -->
<g id="edge27" class="edge"><title>Node21&#45;&gt;Node20</title>
<path fill="none" stroke="#9a32cd" stroke-dasharray="5,2" d="M135.842,-126.875C176.404,-126.708 226.711,-126.502 262.99,-126.354"/>
<polygon fill="#9a32cd" stroke="#9a32cd" points="135.74,-123.375 125.755,-126.916 135.769,-130.375 135.74,-123.375"/>
<text text-anchor="middle" x="192" y="-130.157" font-family="Helvetica,sans-Serif" font-size="10.00"> myMap</text>
</g>
<!-- Node22 -->
<g id="node22" class="node"><title>Node22</title>
<g id="a_node22"><a xlink:href="../../d4/dc3/class_pen_1_1_pen_thickness_box.html" target="_top" xlink:title="Pen.PenThicknessBox">
<polygon fill="white" stroke="black" points="252,-267.657 252,-286.657 372,-286.657 372,-267.657 252,-267.657"/>
<text text-anchor="middle" x="312" y="-274.657" font-family="Helvetica,sans-Serif" font-size="10.00">Pen.PenThicknessBox</text>
</a>
</g>
</g>
<!-- Node22&#45;&gt;Node16 -->
<g id="edge28" class="edge"><title>Node22&#45;&gt;Node16</title>
<path fill="none" stroke="#9a32cd" stroke-dasharray="5,2" d="M345.843,-263.681C375.098,-251.131 418.622,-231.101 454,-209.157 462.613,-203.815 463.096,-199.997 472,-195.157 482.698,-189.342 495.075,-184.513 506.368,-180.749"/>
<polygon fill="#9a32cd" stroke="#9a32cd" points="344.341,-260.516 336.501,-267.642 347.074,-266.96 344.341,-260.516"/>
<text text-anchor="middle" x="422" y="-245.157" font-family="Helvetica,sans-Serif" font-size="10.00"> myThickBox</text>
</g>
<!-- Node23 -->
<g id="node23" class="node"><title>Node23</title>
<polygon fill="white" stroke="#bfbfbf" points="0.5,-288.157 0.5,-318.157 131.5,-318.157 131.5,-288.157 0.5,-288.157"/>
<text text-anchor="start" x="8.5" y="-306.157" font-family="Helvetica,sans-Serif" font-size="10.00">javafx::scene::control</text>
<text text-anchor="middle" x="66" y="-295.157" font-family="Helvetica,sans-Serif" font-size="10.00">::ComboBox&lt; Double &gt;</text>
</g>
<!-- Node23&#45;&gt;Node22 -->
<g id="edge29" class="edge"><title>Node23&#45;&gt;Node22</title>
<path fill="none" stroke="midnightblue" d="M141.757,-298.028C170.625,-295.75 203.894,-292.76 234,-289.157 240.045,-288.433 246.344,-287.593 252.621,-286.7"/>
<polygon fill="midnightblue" stroke="midnightblue" points="141.442,-294.542 131.742,-298.804 141.983,-301.521 141.442,-294.542"/>
</g>
<!-- Node24 -->
<g id="node24" class="node"><title>Node24</title>
<polygon fill="white" stroke="#bfbfbf" points="21.5,-224.657 21.5,-243.657 110.5,-243.657 110.5,-224.657 21.5,-224.657"/>
<text text-anchor="middle" x="66" y="-231.657" font-family="Helvetica,sans-Serif" font-size="10.00">List&lt; Double &gt;</text>
</g>
<!-- Node24&#45;&gt;Node22 -->
<g id="edge30" class="edge"><title>Node24&#45;&gt;Node22</title>
<path fill="none" stroke="#9a32cd" stroke-dasharray="5,2" d="M110.908,-246.242C123.47,-249.433 137.22,-252.675 150,-255.157 183.509,-261.664 221.31,-266.935 251.859,-270.684"/>
<polygon fill="#9a32cd" stroke="#9a32cd" points="111.689,-242.829 101.131,-243.709 109.934,-249.605 111.689,-242.829"/>
<text text-anchor="middle" x="192" y="-272.157" font-family="Helvetica,sans-Serif" font-size="10.00"> myList</text>
</g>
<!-- Node25 -->
<g id="node25" class="node"><title>Node25</title>
<g id="a_node25"><a xlink:href="../../df/daf/class_pen_1_1_pen.html" target="_top" xlink:title="Pen.Pen">
<polygon fill="white" stroke="black" points="284,-196.657 284,-215.657 340,-215.657 340,-196.657 284,-196.657"/>
<text text-anchor="middle" x="312" y="-203.657" font-family="Helvetica,sans-Serif" font-size="10.00">Pen.Pen</text>
</a>
</g>
</g>
<!-- Node24&#45;&gt;Node25 -->
<g id="edge32" class="edge"><title>Node24&#45;&gt;Node25</title>
<path fill="none" stroke="#9a32cd" stroke-dasharray="5,2" d="M104.853,-221.613C118.876,-217.514 135.011,-213.433 150,-211.157 196.587,-204.083 251.597,-204.155 283.759,-205.031"/>
<polygon fill="#9a32cd" stroke="#9a32cd" points="103.62,-218.329 95.0624,-224.575 105.647,-225.029 103.62,-218.329"/>
<text text-anchor="middle" x="192" y="-247.157" font-family="Helvetica,sans-Serif" font-size="10.00"> DASHED</text>
<text text-anchor="middle" x="192" y="-236.157" font-family="Helvetica,sans-Serif" font-size="10.00">SOLID</text>
<text text-anchor="middle" x="192" y="-225.157" font-family="Helvetica,sans-Serif" font-size="10.00">myLineType</text>
<text text-anchor="middle" x="192" y="-214.157" font-family="Helvetica,sans-Serif" font-size="10.00">DOTTED</text>
</g>
<!-- Node25&#45;&gt;Node6 -->
<g id="edge34" class="edge"><title>Node25&#45;&gt;Node6</title>
<path fill="none" stroke="#9a32cd" stroke-dasharray="5,2" d="M350.248,-207.861C362.866,-208.37 377.043,-208.87 390,-209.157 510.418,-211.824 652.696,-211.676 721.928,-211.392"/>
<polygon fill="#9a32cd" stroke="#9a32cd" points="350.214,-204.356 340.076,-207.434 349.92,-211.35 350.214,-204.356"/>
<text text-anchor="middle" x="542" y="-215.157" font-family="Helvetica,sans-Serif" font-size="10.00"> myPen</text>
</g>
<!-- Node25&#45;&gt;Node16 -->
<g id="edge31" class="edge"><title>Node25&#45;&gt;Node16</title>
<path fill="none" stroke="#9a32cd" stroke-dasharray="5,2" d="M350.138,-200.456C389.98,-194.34 453.269,-184.624 495.933,-178.075"/>
<polygon fill="#9a32cd" stroke="#9a32cd" points="349.403,-197.028 340.05,-202.004 350.465,-203.947 349.403,-197.028"/>
<text text-anchor="middle" x="422" y="-197.157" font-family="Helvetica,sans-Serif" font-size="10.00"> myPen</text>
</g>
<!-- Node26 -->
<g id="node26" class="node"><title>Node26</title>
<polygon fill="white" stroke="#bfbfbf" points="45.5,-155.657 45.5,-174.657 86.5,-174.657 86.5,-155.657 45.5,-155.657"/>
<text text-anchor="middle" x="66" y="-162.657" font-family="Helvetica,sans-Serif" font-size="10.00">Color</text>
</g>
<!-- Node26&#45;&gt;Node25 -->
<g id="edge33" class="edge"><title>Node26&#45;&gt;Node25</title>
<path fill="none" stroke="#9a32cd" stroke-dasharray="5,2" d="M96.6028,-165.384C130.245,-166.16 186.631,-169.038 234,-179.157 252.841,-183.181 273.395,-190.55 288.524,-196.574"/>
<polygon fill="#9a32cd" stroke="#9a32cd" points="96.5819,-161.883 86.5195,-165.199 96.4537,-168.881 96.5819,-161.883"/>
<text text-anchor="middle" x="192" y="-193.157" font-family="Helvetica,sans-Serif" font-size="10.00"> DEFAULT_COLOR</text>
<text text-anchor="middle" x="192" y="-182.157" font-family="Helvetica,sans-Serif" font-size="10.00">myColor</text>
</g>
<!-- Node27 -->
<g id="node27" class="node"><title>Node27</title>
<polygon fill="white" stroke="#bfbfbf" points="495.5,-284.657 495.5,-303.657 588.5,-303.657 588.5,-284.657 495.5,-284.657"/>
<text text-anchor="middle" x="542" y="-291.657" font-family="Helvetica,sans-Serif" font-size="10.00">List&lt; Point2D &gt;</text>
</g>
<!-- Node27&#45;&gt;Node6 -->
<g id="edge35" class="edge"><title>Node27&#45;&gt;Node6</title>
<path fill="none" stroke="#9a32cd" stroke-dasharray="5,2" d="M598.664,-289.013C630.684,-284.464 670.983,-275.962 704,-260.157 724.622,-250.285 744.314,-231.916 755.218,-220.689"/>
<polygon fill="#9a32cd" stroke="#9a32cd" points="598.029,-285.566 588.578,-290.355 598.952,-292.505 598.029,-285.566"/>
<text text-anchor="middle" x="667" y="-287.157" font-family="Helvetica,sans-Serif" font-size="10.00"> nextLocations</text>
</g>
<!-- Node28 -->
<g id="node28" class="node"><title>Node28</title>
<polygon fill="white" stroke="#bfbfbf" points="496,-246.657 496,-265.657 588,-265.657 588,-246.657 496,-246.657"/>
<text text-anchor="middle" x="542" y="-253.657" font-family="Helvetica,sans-Serif" font-size="10.00">List&lt; Polyline &gt;</text>
</g>
<!-- Node28&#45;&gt;Node6 -->
<g id="edge36" class="edge"><title>Node28&#45;&gt;Node6</title>
<path fill="none" stroke="#9a32cd" stroke-dasharray="5,2" d="M598.419,-249.884C629.675,-245.766 669.3,-239.571 704,-231.157 715.525,-228.362 728.004,-224.366 738.581,-220.679"/>
<polygon fill="#9a32cd" stroke="#9a32cd" points="597.633,-246.456 588.16,-251.201 598.524,-253.399 597.633,-246.456"/>
<text text-anchor="middle" x="667" y="-248.157" font-family="Helvetica,sans-Serif" font-size="10.00"> myTrail</text>
</g>
</g>
</svg>
        <g id="navigator" transform="translate(0 0)" fill="#404254">
                <rect fill="#f2f5e9" fill-opacity="0.5" stroke="#606060" stroke-width=".5" x="0" y="0" width="60" height="60"/>
                <use id="zoomplus" xlink:href="#zoomPlus" x="17" y="9" onmousedown="handleZoom(evt,'in')"/>
                <use id="zoomminus" xlink:href="#zoomMin" x="42" y="9" onmousedown="handleZoom(evt,'out')"/>
                <use id="reset" xlink:href="#resetDef" x="30" y="36" onmousedown="handleReset()"/>
                <g id="arrowUp" xlink:href="#dirArrow" transform="translate(30 24)" onmousedown="handlePan(0,-1)">
                  <use xlink:href="#rim" fill="#404040">
                        <set attributeName="fill" to="#808080" begin="arrowUp.mouseover" end="arrowUp.mouseout"/>
                  </use>
                  <path fill="none" stroke="white" stroke-width="1.5" d="M0,-3.0v7 M-2.5,-0.5L0,-3.0L2.5,-0.5"/>
                </g>
                <g id="arrowRight" xlink:href="#dirArrow" transform="rotate(90) translate(36 -43)" onmousedown="handlePan(1,0)">
                  <use xlink:href="#rim" fill="#404040">
                        <set attributeName="fill" to="#808080" begin="arrowRight.mouseover" end="arrowRight.mouseout"/>
                  </use>
                  <path fill="none" stroke="white" stroke-width="1.5" d="M0,-3.0v7 M-2.5,-0.5L0,-3.0L2.5,-0.5"/>
                </g>
                <g id="arrowDown" xlink:href="#dirArrow" transform="rotate(180) translate(-30 -48)" onmousedown="handlePan(0,1)">
                  <use xlink:href="#rim" fill="#404040">
                        <set attributeName="fill" to="#808080" begin="arrowDown.mouseover" end="arrowDown.mouseout"/>
                  </use>
                  <path fill="none" stroke="white" stroke-width="1.5" d="M0,-3.0v7 M-2.5,-0.5L0,-3.0L2.5,-0.5"/>
                </g>
                <g id="arrowLeft" xlink:href="#dirArrow" transform="rotate(270) translate(-36 17)" onmousedown="handlePan(-1,0)">
                  <use xlink:href="#rim" fill="#404040">
                        <set attributeName="fill" to="#808080" begin="arrowLeft.mouseover" end="arrowLeft.mouseout"/>
                  </use>
                  <path fill="none" stroke="white" stroke-width="1.5" d="M0,-3.0v7 M-2.5,-0.5L0,-3.0L2.5,-0.5"/>
                </g>
        </g>
        <svg viewBox="0 0 15 15" width="100%" height="30px" preserveAspectRatio="xMaxYMin meet">
         <g id="arrow_out" transform="scale(0.3 0.3)">
          <a xlink:href="class_nodes_1_1turtlecommands_1_1_i_d_node__coll__graph_org.svg" target="_base">
           <rect id="button" ry="5" rx="5" y="6" x="6" height="38" width="38"
                fill="#f2f5e9" fill-opacity="0.5" stroke="#606060" stroke-width="1.0"/>
           <path id="arrow"
             d="M 11.500037,31.436501 C 11.940474,20.09759 22.043105,11.32322 32.158766,21.979434 L 37.068811,17.246167 C 37.068811,17.246167 37.088388,32 37.088388,32 L 22.160133,31.978069 C 22.160133,31.978069 26.997745,27.140456 26.997745,27.140456 C 18.528582,18.264221 13.291696,25.230495 11.500037,31.436501 z"
             style="fill:#404040;"/>
          </a>
         </g>
        </svg>
</svg>
