<?xml version="1.0" encoding="UTF-8" standalone="no"?>
<!DOCTYPE svg PUBLIC "-//W3C//DTD SVG 1.1//EN"
 "http://www.w3.org/Graphics/SVG/1.1/DTD/svg11.dtd">
<!-- Generated by graphviz version 2.36.0 (20140111.2315)
 -->
<!-- Title: FrontEndCommands.SuperCommand Pages: 1 -->
<svg width="554pt" height="180pt"
 viewBox="0.00 0.00 554.00 180.00" xmlns="http://www.w3.org/2000/svg" xmlns:xlink="http://www.w3.org/1999/xlink">
<g id="graph0" class="graph" transform="scale(1 1) rotate(0) translate(4 176)">
<title>FrontEndCommands.SuperCommand</title>
<polygon fill="white" stroke="none" points="-4,4 -4,-176 550,-176 550,4 -4,4"/>
<!-- Node1 -->
<g id="node1" class="node"><title>Node1</title>
<polygon fill="#bfbfbf" stroke="black" points="108,-76.5 108,-95.5 304,-95.5 304,-76.5 108,-76.5"/>
<text text-anchor="middle" x="206" y="-83.5" font-family="Helvetica,sans-Serif" font-size="10.00">FrontEndCommands.SuperCommand</text>
</g>
<!-- Node3 -->
<g id="node3" class="node"><title>Node3</title>
<g id="a_node3"><a xlink:href="../../d5/da6/class_front_end_commands_1_1_amount_command.html" target="_top" xlink:title="FrontEndCommands.AmountCommand">
<polygon fill="white" stroke="black" points="340,-152.5 340,-171.5 546,-171.5 546,-152.5 340,-152.5"/>
<text text-anchor="middle" x="443" y="-159.5" font-family="Helvetica,sans-Serif" font-size="10.00">FrontEndCommands.AmountCommand</text>
</a>
</g>
</g>
<!-- Node1&#45;&gt;Node3 -->
<g id="edge2" class="edge"><title>Node1&#45;&gt;Node3</title>
<path fill="none" stroke="midnightblue" d="M234.932,-100.125C261.388,-112.98 302.532,-131.634 340,-143 352.411,-146.765 365.909,-149.915 378.901,-152.498"/>
<polygon fill="midnightblue" stroke="midnightblue" points="236.402,-96.9474 225.884,-95.6753 233.313,-103.229 236.402,-96.9474"/>
</g>
<!-- Node4 -->
<g id="node4" class="node"><title>Node4</title>
<g id="a_node4"><a xlink:href="../../d8/dcf/class_front_end_commands_1_1_clear_command.html" target="_top" xlink:title="FrontEndCommands.ClearCommand">
<polygon fill="white" stroke="black" points="347,-114.5 347,-133.5 539,-133.5 539,-114.5 347,-114.5"/>
<text text-anchor="middle" x="443" y="-121.5" font-family="Helvetica,sans-Serif" font-size="10.00">FrontEndCommands.ClearCommand</text>
</a>
</g>
</g>
<!-- Node1&#45;&gt;Node4 -->
<g id="edge3" class="edge"><title>Node1&#45;&gt;Node4</title>
<path fill="none" stroke="midnightblue" d="M276.294,-97.205C310.193,-102.687 350.569,-109.215 382.979,-114.456"/>
<polygon fill="midnightblue" stroke="midnightblue" points="276.428,-93.6812 265.997,-95.54 275.31,-100.591 276.428,-93.6812"/>
</g>
<!-- Node5 -->
<g id="node5" class="node"><title>Node5</title>
<g id="a_node5"><a xlink:href="../../d7/d65/class_front_end_commands_1_1_enter_command.html" target="_top" xlink:title="FrontEndCommands.EnterCommand">
<polygon fill="white" stroke="black" points="346.5,-76.5 346.5,-95.5 539.5,-95.5 539.5,-76.5 346.5,-76.5"/>
<text text-anchor="middle" x="443" y="-83.5" font-family="Helvetica,sans-Serif" font-size="10.00">FrontEndCommands.EnterCommand</text>
</a>
</g>
</g>
<!-- Node1&#45;&gt;Node5 -->
<g id="edge4" class="edge"><title>Node1&#45;&gt;Node5</title>
<path fill="none" stroke="midnightblue" d="M314.428,-86C325.061,-86 335.804,-86 346.307,-86"/>
<polygon fill="midnightblue" stroke="midnightblue" points="314.28,-82.5001 304.28,-86 314.28,-89.5001 314.28,-82.5001"/>
</g>
<!-- Node6 -->
<g id="node6" class="node"><title>Node6</title>
<g id="a_node6"><a xlink:href="../../d8/dd2/class_front_end_commands_1_1_set_x_y_command.html" target="_top" xlink:title="FrontEndCommands.SetXYCommand">
<polygon fill="white" stroke="black" points="346,-38.5 346,-57.5 540,-57.5 540,-38.5 346,-38.5"/>
<text text-anchor="middle" x="443" y="-45.5" font-family="Helvetica,sans-Serif" font-size="10.00">FrontEndCommands.SetXYCommand</text>
</a>
</g>
</g>
<!-- Node1&#45;&gt;Node6 -->
<g id="edge5" class="edge"><title>Node1&#45;&gt;Node6</title>
<path fill="none" stroke="midnightblue" d="M276.294,-74.795C310.193,-69.3134 350.569,-62.7845 382.979,-57.5439"/>
<polygon fill="midnightblue" stroke="midnightblue" points="275.31,-71.4086 265.997,-76.46 276.428,-78.3188 275.31,-71.4086"/>
</g>
<!-- Node7 -->
<g id="node7" class="node"><title>Node7</title>
<g id="a_node7"><a xlink:href="../../d8/d82/class_front_end_commands_1_1_toward_command.html" target="_top" xlink:title="FrontEndCommands.TowardCommand">
<polygon fill="white" stroke="black" points="343,-0.5 343,-19.5 543,-19.5 543,-0.5 343,-0.5"/>
<text text-anchor="middle" x="443" y="-7.5" font-family="Helvetica,sans-Serif" font-size="10.00">FrontEndCommands.TowardCommand</text>
</a>
</g>
</g>
<!-- Node1&#45;&gt;Node7 -->
<g id="edge6" class="edge"><title>Node1&#45;&gt;Node7</title>
<path fill="none" stroke="midnightblue" d="M234.932,-71.8752C261.388,-59.0203 302.532,-40.366 340,-29 352.411,-25.2352 365.909,-22.0851 378.901,-19.5018"/>
<polygon fill="midnightblue" stroke="midnightblue" points="233.313,-68.771 225.884,-76.3247 236.402,-75.0526 233.313,-68.771"/>
</g>
<!-- Node2 -->
<g id="node2" class="node"><title>Node2</title>
<polygon fill="white" stroke="#bfbfbf" points="0.5,-76.5 0.5,-95.5 71.5,-95.5 71.5,-76.5 0.5,-76.5"/>
<text text-anchor="middle" x="36" y="-83.5" font-family="Helvetica,sans-Serif" font-size="10.00">Observable</text>
</g>
<!-- Node2&#45;&gt;Node1 -->
<g id="edge1" class="edge"><title>Node2&#45;&gt;Node1</title>
<path fill="none" stroke="midnightblue" d="M82.0772,-86C90.1866,-86 98.9173,-86 107.851,-86"/>
<polygon fill="midnightblue" stroke="midnightblue" points="81.8097,-82.5001 71.8097,-86 81.8097,-89.5001 81.8097,-82.5001"/>
</g>
</g>
</svg>
