<?xml version="1.0" encoding="UTF-8" standalone="no"?>
<!DOCTYPE svg PUBLIC "-//W3C//DTD SVG 1.1//EN"
 "http://www.w3.org/Graphics/SVG/1.1/DTD/svg11.dtd">
<!-- Generated by graphviz version 2.36.0 (20140111.2315)
 -->
<!-- Title: Nodes.ToNode Pages: 1 -->
<svg width="169pt" height="174pt"
 viewBox="0.00 0.00 169.00 174.00" xmlns="http://www.w3.org/2000/svg" xmlns:xlink="http://www.w3.org/1999/xlink">
<g id="graph0" class="graph" transform="scale(1 1) rotate(0) translate(4 170)">
<title>Nodes.ToNode</title>
<polygon fill="white" stroke="none" points="-4,4 -4,-170 165,-170 165,4 -4,4"/>
<!-- Node1 -->
<g id="node1" class="node"><title>Node1</title>
<polygon fill="#bfbfbf" stroke="black" points="27,-0.5 27,-19.5 113,-19.5 113,-0.5 27,-0.5"/>
<text text-anchor="middle" x="70" y="-7.5" font-family="Helvetica,sans-Serif" font-size="10.00">Nodes.ToNode</text>
</g>
<!-- Node2 -->
<g id="node2" class="node"><title>Node2</title>
<g id="a_node2"><a xlink:href="../../df/dac/class_nodes_1_1_node.html" target="_top" xlink:title="Nodes.Node">
<polygon fill="white" stroke="black" points="32,-78.5 32,-97.5 108,-97.5 108,-78.5 32,-78.5"/>
<text text-anchor="middle" x="70" y="-85.5" font-family="Helvetica,sans-Serif" font-size="10.00">Nodes.Node</text>
</a>
</g>
</g>
<!-- Node2&#45;&gt;Node1 -->
<g id="edge1" class="edge"><title>Node2&#45;&gt;Node1</title>
<path fill="none" stroke="midnightblue" d="M68.4399,-68.3825C68.2572,-65.5753 68.1003,-62.7126 68,-60 67.6386,-50.2289 67.6386,-47.7711 68,-38 68.2293,-31.7998 68.7539,-24.8151 69.2083,-19.5033"/>
<polygon fill="midnightblue" stroke="midnightblue" points="64.9607,-68.7906 69.2083,-78.4967 71.9406,-68.2602 64.9607,-68.7906"/>
</g>
<!-- Node2&#45;&gt;Node1 -->
<g id="edge4" class="edge"><title>Node2&#45;&gt;Node1</title>
<path fill="none" stroke="#9a32cd" stroke-dasharray="5,2" d="M70,-68.2239C70,-52.6974 70,-31.3582 70,-19.6165"/>
<polygon fill="#9a32cd" stroke="#9a32cd" points="66.5001,-68.2818 70,-78.2818 73.5001,-68.2819 66.5001,-68.2818"/>
<text text-anchor="middle" x="82.5" y="-52" font-family="Helvetica,sans-Serif" font-size="10.00"> right</text>
<text text-anchor="middle" x="82.5" y="-41" font-family="Helvetica,sans-Serif" font-size="10.00">left</text>
</g>
<!-- Node2&#45;&gt;Node2 -->
<g id="edge3" class="edge"><title>Node2&#45;&gt;Node2</title>
<path fill="none" stroke="#9a32cd" stroke-dasharray="5,2" d="M118.289,-93.1765C123.006,-92.1327 126,-90.4072 126,-88 126,-84.1484 118.335,-82.0421 108.214,-81.681"/>
<polygon fill="#9a32cd" stroke="#9a32cd" points="117.756,-89.7144 108.214,-94.319 118.545,-96.6698 117.756,-89.7144"/>
<text text-anchor="middle" x="143.5" y="-85.5" font-family="Helvetica,sans-Serif" font-size="10.00"> parent</text>
</g>
<!-- Node3 -->
<g id="node3" class="node"><title>Node3</title>
<polygon fill="white" stroke="#bfbfbf" points="0,-146.5 0,-165.5 140,-165.5 140,-146.5 0,-146.5"/>
<text text-anchor="middle" x="70" y="-153.5" font-family="Helvetica,sans-Serif" font-size="10.00">ArrayList&lt; Nodes.Node &gt;</text>
</g>
<!-- Node3&#45;&gt;Node2 -->
<g id="edge2" class="edge"><title>Node3&#45;&gt;Node2</title>
<path fill="none" stroke="#9a32cd" stroke-dasharray="5,2" d="M70,-136.041C70,-123.472 70,-107.563 70,-97.8411"/>
<polygon fill="#9a32cd" stroke="#9a32cd" points="66.5001,-136.372 70,-146.372 73.5001,-136.372 66.5001,-136.372"/>
<text text-anchor="middle" x="99" y="-119.5" font-family="Helvetica,sans-Serif" font-size="10.00"> myChildren</text>
</g>
</g>
</svg>
