<?xml version="1.0" encoding="UTF-8" standalone="no"?>
<!DOCTYPE svg PUBLIC "-//W3C//DTD SVG 1.1//EN"
 "http://www.w3.org/Graphics/SVG/1.1/DTD/svg11.dtd">
<!-- Generated by graphviz version 2.36.0 (20140111.2315)
 -->
<!-- Title: FrontEnd.CommandFactory Pages: 1 -->
<svg width="254pt" height="154pt"
 viewBox="0.00 0.00 254.00 154.00" xmlns="http://www.w3.org/2000/svg" xmlns:xlink="http://www.w3.org/1999/xlink">
<g id="graph0" class="graph" transform="scale(1 1) rotate(0) translate(4 150)">
<title>FrontEnd.CommandFactory</title>
<polygon fill="white" stroke="none" points="-4,4 -4,-150 250,-150 250,4 -4,4"/>
<!-- Node1 -->
<g id="node1" class="node"><title>Node1</title>
<polygon fill="#bfbfbf" stroke="black" points="33,-0.5 33,-19.5 179,-19.5 179,-0.5 33,-0.5"/>
<text text-anchor="middle" x="106" y="-7.5" font-family="Helvetica,sans-Serif" font-size="10.00">FrontEnd.CommandFactory</text>
</g>
<!-- Node2 -->
<g id="node2" class="node"><title>Node2</title>
<polygon fill="white" stroke="#bfbfbf" points="0,-68.5 0,-87.5 84,-87.5 84,-68.5 0,-68.5"/>
<text text-anchor="middle" x="42" y="-75.5" font-family="Helvetica,sans-Serif" font-size="10.00">List&lt; String &gt;</text>
</g>
<!-- Node2&#45;&gt;Node1 -->
<g id="edge1" class="edge"><title>Node2&#45;&gt;Node1</title>
<path fill="none" stroke="#9a32cd" stroke-dasharray="5,2" d="M38.468,-58.4447C38.124,-51.5051 39.0093,-43.8865 43,-38 48.8094,-29.4309 57.9463,-23.5678 67.4781,-19.5611"/>
<polygon fill="#9a32cd" stroke="#9a32cd" points="35.0068,-58.971 39.7509,-68.4443 41.9499,-58.0802 35.0068,-58.971"/>
<text text-anchor="middle" x="96" y="-41.5" font-family="Helvetica,sans-Serif" font-size="10.00"> myCommandButtons</text>
</g>
<!-- Node3 -->
<g id="node3" class="node"><title>Node3</title>
<g id="a_node3"><a xlink:href="../../df/d9c/class_front_end_1_1_command_line.html" target="_top" xlink:title="FrontEnd.CommandLine">
<polygon fill="white" stroke="black" points="105.5,-68.5 105.5,-87.5 236.5,-87.5 236.5,-68.5 105.5,-68.5"/>
<text text-anchor="middle" x="171" y="-75.5" font-family="Helvetica,sans-Serif" font-size="10.00">FrontEnd.CommandLine</text>
</a>
</g>
</g>
<!-- Node3&#45;&gt;Node1 -->
<g id="edge2" class="edge"><title>Node3&#45;&gt;Node1</title>
<path fill="none" stroke="#9a32cd" stroke-dasharray="5,2" d="M163.203,-58.9594C159.572,-51.8921 154.768,-44.0466 149,-38 141.82,-30.4739 132.123,-24.1494 123.755,-19.5178"/>
<polygon fill="#9a32cd" stroke="#9a32cd" points="160.244,-60.8917 167.661,-68.4569 166.58,-57.9173 160.244,-60.8917"/>
<text text-anchor="middle" x="202" y="-41.5" font-family="Helvetica,sans-Serif" font-size="10.00"> myCommandLine</text>
</g>
<!-- Node4 -->
<g id="node4" class="node"><title>Node4</title>
<polygon fill="white" stroke="#bfbfbf" points="103,-126.5 103,-145.5 161,-145.5 161,-126.5 103,-126.5"/>
<text text-anchor="middle" x="132" y="-133.5" font-family="Helvetica,sans-Serif" font-size="10.00">TextArea</text>
</g>
<!-- Node4&#45;&gt;Node3 -->
<g id="edge3" class="edge"><title>Node4&#45;&gt;Node3</title>
<path fill="none" stroke="midnightblue" d="M143.963,-117.822C150.963,-107.772 159.494,-95.522 165.077,-87.5052"/>
<polygon fill="midnightblue" stroke="midnightblue" points="140.937,-116.044 138.094,-126.25 146.681,-120.044 140.937,-116.044"/>
</g>
<!-- Node5 -->
<g id="node5" class="node"><title>Node5</title>
<polygon fill="white" stroke="#bfbfbf" points="179,-126.5 179,-145.5 239,-145.5 239,-126.5 179,-126.5"/>
<text text-anchor="middle" x="209" y="-133.5" font-family="Helvetica,sans-Serif" font-size="10.00">Observer</text>
</g>
<!-- Node5&#45;&gt;Node3 -->
<g id="edge4" class="edge"><title>Node5&#45;&gt;Node3</title>
<path fill="none" stroke="midnightblue" d="M197.344,-117.822C190.524,-107.772 182.211,-95.522 176.771,-87.5052"/>
<polygon fill="midnightblue" stroke="midnightblue" points="194.551,-119.94 203.062,-126.25 200.344,-116.01 194.551,-119.94"/>
</g>
</g>
</svg>
