<?xml version="1.0" encoding="UTF-8" standalone="no"?>
<!DOCTYPE svg PUBLIC "-//W3C//DTD SVG 1.1//EN"
 "http://www.w3.org/Graphics/SVG/1.1/DTD/svg11.dtd">
<!-- Generated by graphviz version 2.36.0 (20140111.2315)
 -->
<!-- Title: Nodes.booleans.OrNode Pages: 1 -->
<svg width="179pt" height="232pt"
 viewBox="0.00 0.00 179.00 232.00" xmlns="http://www.w3.org/2000/svg" xmlns:xlink="http://www.w3.org/1999/xlink">
<g id="graph0" class="graph" transform="scale(1 1) rotate(0) translate(4 228)">
<title>Nodes.booleans.OrNode</title>
<polygon fill="white" stroke="none" points="-4,4 -4,-228 175,-228 175,4 -4,4"/>
<!-- Node1 -->
<g id="node1" class="node"><title>Node1</title>
<polygon fill="#bfbfbf" stroke="black" points="13,-0.5 13,-19.5 147,-19.5 147,-0.5 13,-0.5"/>
<text text-anchor="middle" x="80" y="-7.5" font-family="Helvetica,sans-Serif" font-size="10.00">Nodes.booleans.OrNode</text>
</g>
<!-- Node2 -->
<g id="node2" class="node"><title>Node2</title>
<g id="a_node2"><a xlink:href="../../d5/d03/class_nodes_1_1booleans_1_1_boolean_node.html" target="_top" xlink:title="Nodes.booleans.BooleanNode">
<polygon fill="white" stroke="black" points="-0.5,-58.5 -0.5,-77.5 160.5,-77.5 160.5,-58.5 -0.5,-58.5"/>
<text text-anchor="middle" x="80" y="-65.5" font-family="Helvetica,sans-Serif" font-size="10.00">Nodes.booleans.BooleanNode</text>
</a>
</g>
</g>
<!-- Node2&#45;&gt;Node1 -->
<g id="edge1" class="edge"><title>Node2&#45;&gt;Node1</title>
<path fill="none" stroke="midnightblue" d="M80,-47.953C80,-38.2875 80,-27.0312 80,-19.5052"/>
<polygon fill="midnightblue" stroke="midnightblue" points="76.5001,-48.25 80,-58.25 83.5001,-48.25 76.5001,-48.25"/>
</g>
<!-- Node3 -->
<g id="node3" class="node"><title>Node3</title>
<g id="a_node3"><a xlink:href="../../df/dac/class_nodes_1_1_node.html" target="_top" xlink:title="Nodes.Node">
<polygon fill="white" stroke="black" points="42,-136.5 42,-155.5 118,-155.5 118,-136.5 42,-136.5"/>
<text text-anchor="middle" x="80" y="-143.5" font-family="Helvetica,sans-Serif" font-size="10.00">Nodes.Node</text>
</a>
</g>
</g>
<!-- Node3&#45;&gt;Node2 -->
<g id="edge2" class="edge"><title>Node3&#45;&gt;Node2</title>
<path fill="none" stroke="midnightblue" d="M78.4399,-126.382C78.2572,-123.575 78.1003,-120.713 78,-118 77.6386,-108.229 77.6386,-105.771 78,-96 78.2293,-89.7998 78.7539,-82.8151 79.2083,-77.5033"/>
<polygon fill="midnightblue" stroke="midnightblue" points="74.9607,-126.791 79.2083,-136.497 81.9406,-126.26 74.9607,-126.791"/>
</g>
<!-- Node3&#45;&gt;Node2 -->
<g id="edge5" class="edge"><title>Node3&#45;&gt;Node2</title>
<path fill="none" stroke="#9a32cd" stroke-dasharray="5,2" d="M80,-126.224C80,-110.697 80,-89.3582 80,-77.6165"/>
<polygon fill="#9a32cd" stroke="#9a32cd" points="76.5001,-126.282 80,-136.282 83.5001,-126.282 76.5001,-126.282"/>
<text text-anchor="middle" x="92.5" y="-110" font-family="Helvetica,sans-Serif" font-size="10.00"> right</text>
<text text-anchor="middle" x="92.5" y="-99" font-family="Helvetica,sans-Serif" font-size="10.00">left</text>
</g>
<!-- Node3&#45;&gt;Node3 -->
<g id="edge4" class="edge"><title>Node3&#45;&gt;Node3</title>
<path fill="none" stroke="#9a32cd" stroke-dasharray="5,2" d="M128.289,-151.176C133.006,-150.133 136,-148.407 136,-146 136,-142.148 128.335,-140.042 118.214,-139.681"/>
<polygon fill="#9a32cd" stroke="#9a32cd" points="127.756,-147.714 118.214,-152.319 128.545,-154.67 127.756,-147.714"/>
<text text-anchor="middle" x="153.5" y="-143.5" font-family="Helvetica,sans-Serif" font-size="10.00"> parent</text>
</g>
<!-- Node4 -->
<g id="node4" class="node"><title>Node4</title>
<polygon fill="white" stroke="#bfbfbf" points="10,-204.5 10,-223.5 150,-223.5 150,-204.5 10,-204.5"/>
<text text-anchor="middle" x="80" y="-211.5" font-family="Helvetica,sans-Serif" font-size="10.00">ArrayList&lt; Nodes.Node &gt;</text>
</g>
<!-- Node4&#45;&gt;Node3 -->
<g id="edge3" class="edge"><title>Node4&#45;&gt;Node3</title>
<path fill="none" stroke="#9a32cd" stroke-dasharray="5,2" d="M80,-194.041C80,-181.472 80,-165.563 80,-155.841"/>
<polygon fill="#9a32cd" stroke="#9a32cd" points="76.5001,-194.372 80,-204.372 83.5001,-194.372 76.5001,-194.372"/>
<text text-anchor="middle" x="109" y="-177.5" font-family="Helvetica,sans-Serif" font-size="10.00"> myChildren</text>
</g>
</g>
</svg>
