<?xml version="1.0" encoding="UTF-8" standalone="no"?>
<!DOCTYPE svg PUBLIC "-//W3C//DTD SVG 1.1//EN"
 "http://www.w3.org/Graphics/SVG/1.1/DTD/svg11.dtd">
<!-- Generated by graphviz version 2.36.0 (20140111.2315)
 -->
<!-- Title: Nodes.turtlecommands.LeftNode.update Pages: 1 -->
<svg width="328pt" height="66pt"
 viewBox="0.00 0.00 328.00 66.00" xmlns="http://www.w3.org/2000/svg" xmlns:xlink="http://www.w3.org/1999/xlink">
<g id="graph0" class="graph" transform="scale(1 1) rotate(0) translate(4 62)">
<title>Nodes.turtlecommands.LeftNode.update</title>
<polygon fill="white" stroke="none" points="-4,4 -4,-62 324,-62 324,4 -4,4"/>
<!-- Node1 -->
<g id="node1" class="node"><title>Node1</title>
<polygon fill="#bfbfbf" stroke="black" points="0.5,-14 0.5,-44 151.5,-44 151.5,-14 0.5,-14"/>
<text text-anchor="start" x="8.5" y="-32" font-family="Helvetica,sans-Serif" font-size="10.00">Nodes.turtlecommands.Left</text>
<text text-anchor="middle" x="76" y="-21" font-family="Helvetica,sans-Serif" font-size="10.00">Node.update</text>
</g>
<!-- Node2 -->
<g id="node2" class="node"><title>Node2</title>
<g id="a_node2"><a xlink:href="../../d1/de0/class_backend_1_1_turtle.html#a0750b978634bf49bbc7e640e15e22777" target="_top" xlink:title="Backend.Turtle.getAngle">
<polygon fill="white" stroke="black" points="188,-38.5 188,-57.5 320,-57.5 320,-38.5 188,-38.5"/>
<text text-anchor="middle" x="254" y="-45.5" font-family="Helvetica,sans-Serif" font-size="10.00">Backend.Turtle.getAngle</text>
</a>
</g>
</g>
<!-- Node1&#45;&gt;Node2 -->
<g id="edge1" class="edge"><title>Node1&#45;&gt;Node2</title>
<path fill="none" stroke="midnightblue" d="M151.64,-37.0577C160.327,-37.9955 169.191,-38.9525 177.884,-39.8909"/>
<polygon fill="midnightblue" stroke="midnightblue" points="177.672,-43.3882 187.99,-40.9818 178.423,-36.4286 177.672,-43.3882"/>
</g>
<!-- Node3 -->
<g id="node3" class="node"><title>Node3</title>
<g id="a_node3"><a xlink:href="../../d1/de0/class_backend_1_1_turtle.html#a8b2127f59e8089449229ab93a0ac8ce3" target="_top" xlink:title="Backend.Turtle.setAngle">
<polygon fill="white" stroke="black" points="188.5,-0.5 188.5,-19.5 319.5,-19.5 319.5,-0.5 188.5,-0.5"/>
<text text-anchor="middle" x="254" y="-7.5" font-family="Helvetica,sans-Serif" font-size="10.00">Backend.Turtle.setAngle</text>
</a>
</g>
</g>
<!-- Node1&#45;&gt;Node3 -->
<g id="edge2" class="edge"><title>Node1&#45;&gt;Node3</title>
<path fill="none" stroke="midnightblue" d="M151.64,-20.9423C160.394,-19.9972 169.329,-19.0327 178.086,-18.0873"/>
<polygon fill="midnightblue" stroke="midnightblue" points="178.698,-21.5417 188.265,-16.9885 177.947,-14.5821 178.698,-21.5417"/>
</g>
</g>
</svg>
