<?xml version="1.0" encoding="UTF-8" standalone="no"?>
<!DOCTYPE svg PUBLIC "-//W3C//DTD SVG 1.1//EN"
 "http://www.w3.org/Graphics/SVG/1.1/DTD/svg11.dtd">
<!-- Generated by graphviz version 2.36.0 (20140111.2315)
 -->
<!-- Title: Pen.PenOptions Pages: 1 -->
<svg width="572pt" height="308pt"
 viewBox="0.00 0.00 572.00 308.00" xmlns="http://www.w3.org/2000/svg" xmlns:xlink="http://www.w3.org/1999/xlink">
<g id="graph0" class="graph" transform="scale(1 1) rotate(0) translate(4 304)">
<title>Pen.PenOptions</title>
<polygon fill="white" stroke="none" points="-4,4 -4,-304 568,-304 568,4 -4,4"/>
<!-- Node1 -->
<g id="node1" class="node"><title>Node1</title>
<polygon fill="#bfbfbf" stroke="black" points="472,-175.5 472,-194.5 564,-194.5 564,-175.5 472,-175.5"/>
<text text-anchor="middle" x="518" y="-182.5" font-family="Helvetica,sans-Serif" font-size="10.00">Pen.PenOptions</text>
</g>
<!-- Node2 -->
<g id="node2" class="node"><title>Node2</title>
<polygon fill="white" stroke="#bfbfbf" points="291.5,-271.5 291.5,-290.5 332.5,-290.5 332.5,-271.5 291.5,-271.5"/>
<text text-anchor="middle" x="312" y="-278.5" font-family="Helvetica,sans-Serif" font-size="10.00">VBox</text>
</g>
<!-- Node2&#45;&gt;Node1 -->
<g id="edge1" class="edge"><title>Node2&#45;&gt;Node1</title>
<path fill="none" stroke="midnightblue" d="M342.982,-277.504C372.672,-273.067 418.683,-263.507 454,-244 477.349,-231.104 498.686,-207.617 509.521,-194.502"/>
<polygon fill="midnightblue" stroke="midnightblue" points="342.255,-274.071 332.832,-278.916 343.219,-281.005 342.255,-274.071"/>
</g>
<!-- Node3 -->
<g id="node3" class="node"><title>Node3</title>
<g id="a_node3"><a xlink:href="../../d6/da0/class_pen_1_1_pen_type_box.html" target="_top" xlink:title="Pen.PenTypeBox">
<polygon fill="white" stroke="black" points="264.5,-233.5 264.5,-252.5 359.5,-252.5 359.5,-233.5 264.5,-233.5"/>
<text text-anchor="middle" x="312" y="-240.5" font-family="Helvetica,sans-Serif" font-size="10.00">Pen.PenTypeBox</text>
</a>
</g>
</g>
<!-- Node3&#45;&gt;Node1 -->
<g id="edge2" class="edge"><title>Node3&#45;&gt;Node1</title>
<path fill="none" stroke="#9a32cd" stroke-dasharray="5,2" d="M369.751,-233.723C395.759,-228.762 426.786,-221.835 454,-213 469.369,-208.01 486.048,-200.497 498.382,-194.509"/>
<polygon fill="#9a32cd" stroke="#9a32cd" points="368.872,-230.327 359.68,-235.595 370.151,-237.209 368.872,-230.327"/>
<text text-anchor="middle" x="422" y="-232" font-family="Helvetica,sans-Serif" font-size="10.00"> myTypeBox</text>
</g>
<!-- Node4 -->
<g id="node4" class="node"><title>Node4</title>
<polygon fill="white" stroke="#bfbfbf" points="3,-221 3,-251 129,-251 129,-221 3,-221"/>
<text text-anchor="start" x="11" y="-239" font-family="Helvetica,sans-Serif" font-size="10.00">javafx::scene::control</text>
<text text-anchor="middle" x="66" y="-228" font-family="Helvetica,sans-Serif" font-size="10.00">::ComboBox&lt; String &gt;</text>
</g>
<!-- Node4&#45;&gt;Node3 -->
<g id="edge3" class="edge"><title>Node4&#45;&gt;Node3</title>
<path fill="none" stroke="midnightblue" d="M139.281,-238.074C179.723,-239.234 228.958,-240.646 264.322,-241.661"/>
<polygon fill="midnightblue" stroke="midnightblue" points="139.299,-234.573 129.203,-237.785 139.098,-241.57 139.299,-234.573"/>
</g>
<!-- Node7 -->
<g id="node7" class="node"><title>Node7</title>
<g id="a_node7"><a xlink:href="../../df/d6f/class_pen_1_1_pen_color_box.html" target="_top" xlink:title="Pen.PenColorBox">
<polygon fill="white" stroke="black" points="263,-195.5 263,-214.5 361,-214.5 361,-195.5 263,-195.5"/>
<text text-anchor="middle" x="312" y="-202.5" font-family="Helvetica,sans-Serif" font-size="10.00">Pen.PenColorBox</text>
</a>
</g>
</g>
<!-- Node4&#45;&gt;Node7 -->
<g id="edge7" class="edge"><title>Node4&#45;&gt;Node7</title>
<path fill="none" stroke="midnightblue" d="M139.143,-226.834C179.022,-221.768 227.486,-215.61 262.768,-211.128"/>
<polygon fill="midnightblue" stroke="midnightblue" points="138.682,-223.365 129.203,-228.097 139.564,-230.309 138.682,-223.365"/>
</g>
<!-- Node5 -->
<g id="node5" class="node"><title>Node5</title>
<polygon fill="white" stroke="#bfbfbf" points="12.5,-270 12.5,-300 119.5,-300 119.5,-270 12.5,-270"/>
<text text-anchor="start" x="20.5" y="-288" font-family="Helvetica,sans-Serif" font-size="10.00">Map&lt; String, List&lt;</text>
<text text-anchor="middle" x="66" y="-277" font-family="Helvetica,sans-Serif" font-size="10.00"> Double &gt; &gt;</text>
</g>
<!-- Node5&#45;&gt;Node3 -->
<g id="edge4" class="edge"><title>Node5&#45;&gt;Node3</title>
<path fill="none" stroke="#9a32cd" stroke-dasharray="5,2" d="M129.756,-274.198C171.72,-266.974 226.032,-257.626 264.22,-251.052"/>
<polygon fill="#9a32cd" stroke="#9a32cd" points="128.905,-270.793 119.644,-275.938 130.093,-277.691 128.905,-270.793"/>
<text text-anchor="middle" x="192" y="-273" font-family="Helvetica,sans-Serif" font-size="10.00"> myMap</text>
</g>
<!-- Node6 -->
<g id="node6" class="node"><title>Node6</title>
<polygon fill="white" stroke="#bfbfbf" points="280,-157.5 280,-176.5 344,-176.5 344,-157.5 280,-157.5"/>
<text text-anchor="middle" x="312" y="-164.5" font-family="Helvetica,sans-Serif" font-size="10.00">CheckBox</text>
</g>
<!-- Node6&#45;&gt;Node1 -->
<g id="edge5" class="edge"><title>Node6&#45;&gt;Node1</title>
<path fill="none" stroke="#9a32cd" stroke-dasharray="5,2" d="M354.51,-165.577C382.687,-165.175 420.729,-165.734 454,-170 463.479,-171.215 473.609,-173.277 482.912,-175.49"/>
<polygon fill="#9a32cd" stroke="#9a32cd" points="354.156,-162.083 344.224,-165.772 354.289,-169.082 354.156,-162.083"/>
<text text-anchor="middle" x="422" y="-173" font-family="Helvetica,sans-Serif" font-size="10.00"> myDownBox</text>
</g>
<!-- Node7&#45;&gt;Node1 -->
<g id="edge6" class="edge"><title>Node7&#45;&gt;Node1</title>
<path fill="none" stroke="#9a32cd" stroke-dasharray="5,2" d="M371.178,-199.296C403.086,-196.168 442.059,-192.347 471.684,-189.443"/>
<polygon fill="#9a32cd" stroke="#9a32cd" points="370.698,-195.827 361.087,-200.286 371.381,-202.793 370.698,-195.827"/>
<text text-anchor="middle" x="422" y="-201" font-family="Helvetica,sans-Serif" font-size="10.00"> myColorBox</text>
</g>
<!-- Node8 -->
<g id="node8" class="node"><title>Node8</title>
<polygon fill="white" stroke="#bfbfbf" points="6.5,-182.5 6.5,-201.5 125.5,-201.5 125.5,-182.5 6.5,-182.5"/>
<text text-anchor="middle" x="66" y="-189.5" font-family="Helvetica,sans-Serif" font-size="10.00">Map&lt; String, Color &gt;</text>
</g>
<!-- Node8&#45;&gt;Node7 -->
<g id="edge8" class="edge"><title>Node8&#45;&gt;Node7</title>
<path fill="none" stroke="#9a32cd" stroke-dasharray="5,2" d="M135.832,-190.117C166.003,-189.884 201.803,-190.409 234,-193 243.305,-193.749 253.188,-194.966 262.661,-196.344"/>
<polygon fill="#9a32cd" stroke="#9a32cd" points="135.792,-186.617 125.83,-190.223 135.866,-193.617 135.792,-186.617"/>
<text text-anchor="middle" x="192" y="-196" font-family="Helvetica,sans-Serif" font-size="10.00"> myMap</text>
</g>
<!-- Node9 -->
<g id="node9" class="node"><title>Node9</title>
<g id="a_node9"><a xlink:href="../../d4/dc3/class_pen_1_1_pen_thickness_box.html" target="_top" xlink:title="Pen.PenThicknessBox">
<polygon fill="white" stroke="black" points="252,-119.5 252,-138.5 372,-138.5 372,-119.5 252,-119.5"/>
<text text-anchor="middle" x="312" y="-126.5" font-family="Helvetica,sans-Serif" font-size="10.00">Pen.PenThicknessBox</text>
</a>
</g>
</g>
<!-- Node9&#45;&gt;Node1 -->
<g id="edge9" class="edge"><title>Node9&#45;&gt;Node1</title>
<path fill="none" stroke="#9a32cd" stroke-dasharray="5,2" d="M382.162,-135.029C405.398,-138.301 431.195,-143.32 454,-151 471.668,-156.95 490.261,-167.6 502.629,-175.4"/>
<polygon fill="#9a32cd" stroke="#9a32cd" points="382.406,-131.531 372.033,-133.688 381.487,-138.47 382.406,-131.531"/>
<text text-anchor="middle" x="422" y="-154" font-family="Helvetica,sans-Serif" font-size="10.00"> myThickBox</text>
</g>
<!-- Node10 -->
<g id="node10" class="node"><title>Node10</title>
<polygon fill="white" stroke="#bfbfbf" points="0.5,-133 0.5,-163 131.5,-163 131.5,-133 0.5,-133"/>
<text text-anchor="start" x="8.5" y="-151" font-family="Helvetica,sans-Serif" font-size="10.00">javafx::scene::control</text>
<text text-anchor="middle" x="66" y="-140" font-family="Helvetica,sans-Serif" font-size="10.00">::ComboBox&lt; Double &gt;</text>
</g>
<!-- Node10&#45;&gt;Node9 -->
<g id="edge10" class="edge"><title>Node10&#45;&gt;Node9</title>
<path fill="none" stroke="midnightblue" d="M142.002,-142.16C177.291,-139.412 218.773,-136.182 251.808,-133.609"/>
<polygon fill="midnightblue" stroke="midnightblue" points="141.445,-138.692 131.747,-142.958 141.988,-145.671 141.445,-138.692"/>
</g>
<!-- Node11 -->
<g id="node11" class="node"><title>Node11</title>
<polygon fill="white" stroke="#bfbfbf" points="21.5,-69.5 21.5,-88.5 110.5,-88.5 110.5,-69.5 21.5,-69.5"/>
<text text-anchor="middle" x="66" y="-76.5" font-family="Helvetica,sans-Serif" font-size="10.00">List&lt; Double &gt;</text>
</g>
<!-- Node11&#45;&gt;Node9 -->
<g id="edge11" class="edge"><title>Node11&#45;&gt;Node9</title>
<path fill="none" stroke="#9a32cd" stroke-dasharray="5,2" d="M112.367,-91.0852C124.548,-94.1639 137.742,-97.3487 150,-100 183.728,-107.295 221.706,-114.198 252.303,-119.438"/>
<polygon fill="#9a32cd" stroke="#9a32cd" points="112.971,-87.6271 102.415,-88.5381 111.235,-94.4085 112.971,-87.6271"/>
<text text-anchor="middle" x="192" y="-120" font-family="Helvetica,sans-Serif" font-size="10.00"> myList</text>
</g>
<!-- Node12 -->
<g id="node12" class="node"><title>Node12</title>
<g id="a_node12"><a xlink:href="../../df/daf/class_pen_1_1_pen.html" target="_top" xlink:title="Pen.Pen">
<polygon fill="white" stroke="black" points="284,-45.5 284,-64.5 340,-64.5 340,-45.5 284,-45.5"/>
<text text-anchor="middle" x="312" y="-52.5" font-family="Helvetica,sans-Serif" font-size="10.00">Pen.Pen</text>
</a>
</g>
</g>
<!-- Node11&#45;&gt;Node12 -->
<g id="edge13" class="edge"><title>Node11&#45;&gt;Node12</title>
<path fill="none" stroke="#9a32cd" stroke-dasharray="5,2" d="M104.157,-66.4484C118.33,-62.2606 134.746,-58.1227 150,-56 196.649,-49.5084 251.64,-51.1292 283.781,-52.9955"/>
<polygon fill="#9a32cd" stroke="#9a32cd" points="102.816,-63.1989 94.2824,-69.4785 104.869,-69.891 102.816,-63.1989"/>
<text text-anchor="middle" x="192" y="-92" font-family="Helvetica,sans-Serif" font-size="10.00"> DASHED</text>
<text text-anchor="middle" x="192" y="-81" font-family="Helvetica,sans-Serif" font-size="10.00">SOLID</text>
<text text-anchor="middle" x="192" y="-70" font-family="Helvetica,sans-Serif" font-size="10.00">myLineType</text>
<text text-anchor="middle" x="192" y="-59" font-family="Helvetica,sans-Serif" font-size="10.00">DOTTED</text>
</g>
<!-- Node12&#45;&gt;Node1 -->
<g id="edge12" class="edge"><title>Node12&#45;&gt;Node1</title>
<path fill="none" stroke="#9a32cd" stroke-dasharray="5,2" d="M349.198,-68.2006C378.828,-79.9187 421.073,-98.7659 454,-122 476.496,-137.874 498.167,-162.131 509.284,-175.439"/>
<polygon fill="#9a32cd" stroke="#9a32cd" points="350.254,-64.8561 339.665,-64.5039 347.723,-71.3826 350.254,-64.8561"/>
<text text-anchor="middle" x="422" y="-125" font-family="Helvetica,sans-Serif" font-size="10.00"> myPen</text>
</g>
<!-- Node13 -->
<g id="node13" class="node"><title>Node13</title>
<polygon fill="white" stroke="#bfbfbf" points="45.5,-0.5 45.5,-19.5 86.5,-19.5 86.5,-0.5 45.5,-0.5"/>
<text text-anchor="middle" x="66" y="-7.5" font-family="Helvetica,sans-Serif" font-size="10.00">Color</text>
</g>
<!-- Node13&#45;&gt;Node12 -->
<g id="edge14" class="edge"><title>Node13&#45;&gt;Node12</title>
<path fill="none" stroke="#9a32cd" stroke-dasharray="5,2" d="M96.6515,-10.4831C130.338,-11.5731 186.764,-15.0468 234,-26 253.621,-30.5497 274.987,-38.8851 290.223,-45.4558"/>
<polygon fill="#9a32cd" stroke="#9a32cd" points="96.6461,-6.98171 86.554,-10.2065 96.4543,-13.9791 96.6461,-6.98171"/>
<text text-anchor="middle" x="192" y="-40" font-family="Helvetica,sans-Serif" font-size="10.00"> DEFAULT_COLOR</text>
<text text-anchor="middle" x="192" y="-29" font-family="Helvetica,sans-Serif" font-size="10.00">myColor</text>
</g>
</g>
</svg>
