<?xml version="1.0" encoding="UTF-8" standalone="no"?>
<!DOCTYPE svg PUBLIC "-//W3C//DTD SVG 1.1//EN"
 "http://www.w3.org/Graphics/SVG/1.1/DTD/svg11.dtd">
<!-- Generated by graphviz version 2.36.0 (20140111.2315)
 -->
<!-- Title: Nodes.math.DifferenceNode Pages: 1 -->
<svg width="175pt" height="290pt"
 viewBox="0.00 0.00 175.00 290.00" xmlns="http://www.w3.org/2000/svg" xmlns:xlink="http://www.w3.org/1999/xlink">
<g id="graph0" class="graph" transform="scale(1 1) rotate(0) translate(4 286)">
<title>Nodes.math.DifferenceNode</title>
<polygon fill="white" stroke="none" points="-4,4 -4,-286 171,-286 171,4 -4,4"/>
<!-- Node1 -->
<g id="node1" class="node"><title>Node1</title>
<polygon fill="#bfbfbf" stroke="black" points="-0.5,-0.5 -0.5,-19.5 152.5,-19.5 152.5,-0.5 -0.5,-0.5"/>
<text text-anchor="middle" x="76" y="-7.5" font-family="Helvetica,sans-Serif" font-size="10.00">Nodes.math.DifferenceNode</text>
</g>
<!-- Node2 -->
<g id="node2" class="node"><title>Node2</title>
<g id="a_node2"><a xlink:href="../../d9/d91/class_nodes_1_1math_1_1_two_child_node.html" target="_top" xlink:title="Nodes.math.TwoChildNode">
<polygon fill="white" stroke="black" points="4,-58.5 4,-77.5 148,-77.5 148,-58.5 4,-58.5"/>
<text text-anchor="middle" x="76" y="-65.5" font-family="Helvetica,sans-Serif" font-size="10.00">Nodes.math.TwoChildNode</text>
</a>
</g>
</g>
<!-- Node2&#45;&gt;Node1 -->
<g id="edge1" class="edge"><title>Node2&#45;&gt;Node1</title>
<path fill="none" stroke="midnightblue" d="M76,-47.953C76,-38.2875 76,-27.0312 76,-19.5052"/>
<polygon fill="midnightblue" stroke="midnightblue" points="72.5001,-48.25 76,-58.25 79.5001,-48.25 72.5001,-48.25"/>
</g>
<!-- Node3 -->
<g id="node3" class="node"><title>Node3</title>
<g id="a_node3"><a xlink:href="../../de/d80/class_nodes_1_1math_1_1_math_node.html" target="_top" xlink:title="Nodes.math.MathNode">
<polygon fill="white" stroke="black" points="12,-116.5 12,-135.5 140,-135.5 140,-116.5 12,-116.5"/>
<text text-anchor="middle" x="76" y="-123.5" font-family="Helvetica,sans-Serif" font-size="10.00">Nodes.math.MathNode</text>
</a>
</g>
</g>
<!-- Node3&#45;&gt;Node2 -->
<g id="edge2" class="edge"><title>Node3&#45;&gt;Node2</title>
<path fill="none" stroke="midnightblue" d="M76,-105.953C76,-96.2875 76,-85.0312 76,-77.5052"/>
<polygon fill="midnightblue" stroke="midnightblue" points="72.5001,-106.25 76,-116.25 79.5001,-106.25 72.5001,-106.25"/>
</g>
<!-- Node4 -->
<g id="node4" class="node"><title>Node4</title>
<g id="a_node4"><a xlink:href="../../df/dac/class_nodes_1_1_node.html" target="_top" xlink:title="Nodes.Node">
<polygon fill="white" stroke="black" points="38,-194.5 38,-213.5 114,-213.5 114,-194.5 38,-194.5"/>
<text text-anchor="middle" x="76" y="-201.5" font-family="Helvetica,sans-Serif" font-size="10.00">Nodes.Node</text>
</a>
</g>
</g>
<!-- Node4&#45;&gt;Node3 -->
<g id="edge3" class="edge"><title>Node4&#45;&gt;Node3</title>
<path fill="none" stroke="midnightblue" d="M74.4399,-184.382C74.2572,-181.575 74.1003,-178.713 74,-176 73.6386,-166.229 73.6386,-163.771 74,-154 74.2293,-147.8 74.7539,-140.815 75.2083,-135.503"/>
<polygon fill="midnightblue" stroke="midnightblue" points="70.9607,-184.791 75.2083,-194.497 77.9406,-184.26 70.9607,-184.791"/>
</g>
<!-- Node4&#45;&gt;Node3 -->
<g id="edge6" class="edge"><title>Node4&#45;&gt;Node3</title>
<path fill="none" stroke="#9a32cd" stroke-dasharray="5,2" d="M76,-184.224C76,-168.697 76,-147.358 76,-135.616"/>
<polygon fill="#9a32cd" stroke="#9a32cd" points="72.5001,-184.282 76,-194.282 79.5001,-184.282 72.5001,-184.282"/>
<text text-anchor="middle" x="88.5" y="-168" font-family="Helvetica,sans-Serif" font-size="10.00"> right</text>
<text text-anchor="middle" x="88.5" y="-157" font-family="Helvetica,sans-Serif" font-size="10.00">left</text>
</g>
<!-- Node4&#45;&gt;Node4 -->
<g id="edge5" class="edge"><title>Node4&#45;&gt;Node4</title>
<path fill="none" stroke="#9a32cd" stroke-dasharray="5,2" d="M124.289,-209.176C129.006,-208.133 132,-206.407 132,-204 132,-200.148 124.335,-198.042 114.214,-197.681"/>
<polygon fill="#9a32cd" stroke="#9a32cd" points="123.756,-205.714 114.214,-210.319 124.545,-212.67 123.756,-205.714"/>
<text text-anchor="middle" x="149.5" y="-201.5" font-family="Helvetica,sans-Serif" font-size="10.00"> parent</text>
</g>
<!-- Node5 -->
<g id="node5" class="node"><title>Node5</title>
<polygon fill="white" stroke="#bfbfbf" points="6,-262.5 6,-281.5 146,-281.5 146,-262.5 6,-262.5"/>
<text text-anchor="middle" x="76" y="-269.5" font-family="Helvetica,sans-Serif" font-size="10.00">ArrayList&lt; Nodes.Node &gt;</text>
</g>
<!-- Node5&#45;&gt;Node4 -->
<g id="edge4" class="edge"><title>Node5&#45;&gt;Node4</title>
<path fill="none" stroke="#9a32cd" stroke-dasharray="5,2" d="M76,-252.041C76,-239.472 76,-223.563 76,-213.841"/>
<polygon fill="#9a32cd" stroke="#9a32cd" points="72.5001,-252.372 76,-262.372 79.5001,-252.372 72.5001,-252.372"/>
<text text-anchor="middle" x="105" y="-235.5" font-family="Helvetica,sans-Serif" font-size="10.00"> myChildren</text>
</g>
</g>
</svg>
