<?xml version="1.0" encoding="UTF-8" standalone="no"?>
<!DOCTYPE svg PUBLIC "-//W3C//DTD SVG 1.1//EN"
 "http://www.w3.org/Graphics/SVG/1.1/DTD/svg11.dtd">
<!-- Generated by graphviz version 2.36.0 (20140111.2315)
 -->
<!-- Title: Nodes.booleans.NotEqualsNode Pages: 1 -->
<svg width="184pt" height="232pt"
 viewBox="0.00 0.00 184.00 232.00" xmlns="http://www.w3.org/2000/svg" xmlns:xlink="http://www.w3.org/1999/xlink">
<g id="graph0" class="graph" transform="scale(1 1) rotate(0) translate(4 228)">
<title>Nodes.booleans.NotEqualsNode</title>
<polygon fill="white" stroke="none" points="-4,4 -4,-228 180,-228 180,4 -4,4"/>
<!-- Node1 -->
<g id="node1" class="node"><title>Node1</title>
<polygon fill="#bfbfbf" stroke="black" points="-0.5,-0.5 -0.5,-19.5 170.5,-19.5 170.5,-0.5 -0.5,-0.5"/>
<text text-anchor="middle" x="85" y="-7.5" font-family="Helvetica,sans-Serif" font-size="10.00">Nodes.booleans.NotEqualsNode</text>
</g>
<!-- Node2 -->
<g id="node2" class="node"><title>Node2</title>
<g id="a_node2"><a xlink:href="../../d5/d03/class_nodes_1_1booleans_1_1_boolean_node.html" target="_top" xlink:title="Nodes.booleans.BooleanNode">
<polygon fill="white" stroke="black" points="4.5,-58.5 4.5,-77.5 165.5,-77.5 165.5,-58.5 4.5,-58.5"/>
<text text-anchor="middle" x="85" y="-65.5" font-family="Helvetica,sans-Serif" font-size="10.00">Nodes.booleans.BooleanNode</text>
</a>
</g>
</g>
<!-- Node2&#45;&gt;Node1 -->
<g id="edge1" class="edge"><title>Node2&#45;&gt;Node1</title>
<path fill="none" stroke="midnightblue" d="M85,-47.953C85,-38.2875 85,-27.0312 85,-19.5052"/>
<polygon fill="midnightblue" stroke="midnightblue" points="81.5001,-48.25 85,-58.25 88.5001,-48.25 81.5001,-48.25"/>
</g>
<!-- Node3 -->
<g id="node3" class="node"><title>Node3</title>
<g id="a_node3"><a xlink:href="../../df/dac/class_nodes_1_1_node.html" target="_top" xlink:title="Nodes.Node">
<polygon fill="white" stroke="black" points="47,-136.5 47,-155.5 123,-155.5 123,-136.5 47,-136.5"/>
<text text-anchor="middle" x="85" y="-143.5" font-family="Helvetica,sans-Serif" font-size="10.00">Nodes.Node</text>
</a>
</g>
</g>
<!-- Node3&#45;&gt;Node2 -->
<g id="edge2" class="edge"><title>Node3&#45;&gt;Node2</title>
<path fill="none" stroke="midnightblue" d="M83.4399,-126.382C83.2572,-123.575 83.1003,-120.713 83,-118 82.6386,-108.229 82.6386,-105.771 83,-96 83.2293,-89.7998 83.7539,-82.8151 84.2083,-77.5033"/>
<polygon fill="midnightblue" stroke="midnightblue" points="79.9607,-126.791 84.2083,-136.497 86.9406,-126.26 79.9607,-126.791"/>
</g>
<!-- Node3&#45;&gt;Node2 -->
<g id="edge5" class="edge"><title>Node3&#45;&gt;Node2</title>
<path fill="none" stroke="#9a32cd" stroke-dasharray="5,2" d="M85,-126.224C85,-110.697 85,-89.3582 85,-77.6165"/>
<polygon fill="#9a32cd" stroke="#9a32cd" points="81.5001,-126.282 85,-136.282 88.5001,-126.282 81.5001,-126.282"/>
<text text-anchor="middle" x="97.5" y="-110" font-family="Helvetica,sans-Serif" font-size="10.00"> right</text>
<text text-anchor="middle" x="97.5" y="-99" font-family="Helvetica,sans-Serif" font-size="10.00">left</text>
</g>
<!-- Node3&#45;&gt;Node3 -->
<g id="edge4" class="edge"><title>Node3&#45;&gt;Node3</title>
<path fill="none" stroke="#9a32cd" stroke-dasharray="5,2" d="M133.289,-151.176C138.006,-150.133 141,-148.407 141,-146 141,-142.148 133.335,-140.042 123.214,-139.681"/>
<polygon fill="#9a32cd" stroke="#9a32cd" points="132.756,-147.714 123.214,-152.319 133.545,-154.67 132.756,-147.714"/>
<text text-anchor="middle" x="158.5" y="-143.5" font-family="Helvetica,sans-Serif" font-size="10.00"> parent</text>
</g>
<!-- Node4 -->
<g id="node4" class="node"><title>Node4</title>
<polygon fill="white" stroke="#bfbfbf" points="15,-204.5 15,-223.5 155,-223.5 155,-204.5 15,-204.5"/>
<text text-anchor="middle" x="85" y="-211.5" font-family="Helvetica,sans-Serif" font-size="10.00">ArrayList&lt; Nodes.Node &gt;</text>
</g>
<!-- Node4&#45;&gt;Node3 -->
<g id="edge3" class="edge"><title>Node4&#45;&gt;Node3</title>
<path fill="none" stroke="#9a32cd" stroke-dasharray="5,2" d="M85,-194.041C85,-181.472 85,-165.563 85,-155.841"/>
<polygon fill="#9a32cd" stroke="#9a32cd" points="81.5001,-194.372 85,-204.372 88.5001,-194.372 81.5001,-194.372"/>
<text text-anchor="middle" x="114" y="-177.5" font-family="Helvetica,sans-Serif" font-size="10.00"> myChildren</text>
</g>
</g>
</svg>
