<?xml version="1.0" encoding="UTF-8" standalone="no"?>
<!DOCTYPE svg PUBLIC "-//W3C//DTD SVG 1.1//EN"
 "http://www.w3.org/Graphics/SVG/1.1/DTD/svg11.dtd">
<!-- Generated by graphviz version 2.36.0 (20140111.2315)
 -->
<!-- Title: Backend.SceneUpdater.isNoError Pages: 1 -->
<svg width="716pt" height="38pt"
 viewBox="0.00 0.00 716.00 38.00" xmlns="http://www.w3.org/2000/svg" xmlns:xlink="http://www.w3.org/1999/xlink">
<g id="graph0" class="graph" transform="scale(1 1) rotate(0) translate(4 34)">
<title>Backend.SceneUpdater.isNoError</title>
<polygon fill="white" stroke="none" points="-4,4 -4,-34 712,-34 712,4 -4,4"/>
<!-- Node1 -->
<g id="node1" class="node"><title>Node1</title>
<polygon fill="#bfbfbf" stroke="black" points="0.5,-0 0.5,-30 153.5,-30 153.5,-0 0.5,-0"/>
<text text-anchor="start" x="8.5" y="-18" font-family="Helvetica,sans-Serif" font-size="10.00">Backend.SceneUpdater.isNo</text>
<text text-anchor="middle" x="77" y="-7" font-family="Helvetica,sans-Serif" font-size="10.00">Error</text>
</g>
<!-- Node2 -->
<g id="node2" class="node"><title>Node2</title>
<g id="a_node2"><a xlink:href="../../dd/d2e/class_front_end_1_1_controller.html#a0ad45a00bc5c4475d3b1c6a4dbf74a91" target="_top" xlink:title="FrontEnd.Controller.interpret">
<polygon fill="white" stroke="black" points="190,-5.5 190,-24.5 342,-24.5 342,-5.5 190,-5.5"/>
<text text-anchor="middle" x="266" y="-12.5" font-family="Helvetica,sans-Serif" font-size="10.00">FrontEnd.Controller.interpret</text>
</a>
</g>
</g>
<!-- Node1&#45;&gt;Node2 -->
<g id="edge1" class="edge"><title>Node1&#45;&gt;Node2</title>
<path fill="none" stroke="midnightblue" d="M163.692,-15C172.407,-15 181.213,-15 189.805,-15"/>
<polygon fill="midnightblue" stroke="midnightblue" points="163.521,-11.5001 153.521,-15 163.521,-18.5001 163.521,-11.5001"/>
</g>
<!-- Node3 -->
<g id="node3" class="node"><title>Node3</title>
<g id="a_node3"><a xlink:href="../../dd/d2e/class_front_end_1_1_controller.html#a41885f349a8f334750e26d685a8981d2" target="_top" xlink:title="FrontEnd.Controller.execute\lCommand">
<polygon fill="white" stroke="black" points="378.5,-0 378.5,-30 527.5,-30 527.5,-0 378.5,-0"/>
<text text-anchor="start" x="386.5" y="-18" font-family="Helvetica,sans-Serif" font-size="10.00">FrontEnd.Controller.execute</text>
<text text-anchor="middle" x="453" y="-7" font-family="Helvetica,sans-Serif" font-size="10.00">Command</text>
</a>
</g>
</g>
<!-- Node2&#45;&gt;Node3 -->
<g id="edge2" class="edge"><title>Node2&#45;&gt;Node3</title>
<path fill="none" stroke="midnightblue" d="M352.366,-15C361.035,-15 369.788,-15 378.318,-15"/>
<polygon fill="midnightblue" stroke="midnightblue" points="352.247,-11.5001 342.247,-15 352.247,-18.5001 352.247,-11.5001"/>
</g>
<!-- Node4 -->
<g id="node4" class="node"><title>Node4</title>
<g id="a_node4"><a xlink:href="../../dd/d2e/class_front_end_1_1_controller.html#a29be9ff259428dbe97eebe3ec9a13ac5" target="_top" xlink:title="FrontEnd.Controller.update">
<polygon fill="white" stroke="black" points="564,-5.5 564,-24.5 708,-24.5 708,-5.5 564,-5.5"/>
<text text-anchor="middle" x="636" y="-12.5" font-family="Helvetica,sans-Serif" font-size="10.00">FrontEnd.Controller.update</text>
</a>
</g>
</g>
<!-- Node3&#45;&gt;Node4 -->
<g id="edge3" class="edge"><title>Node3&#45;&gt;Node4</title>
<path fill="none" stroke="midnightblue" d="M537.771,-15C546.468,-15 555.249,-15 563.789,-15"/>
<polygon fill="midnightblue" stroke="midnightblue" points="537.62,-11.5001 527.62,-15 537.62,-18.5001 537.62,-11.5001"/>
</g>
</g>
</svg>
