<?xml version="1.0" encoding="UTF-8" standalone="no"?>
<!DOCTYPE svg PUBLIC "-//W3C//DTD SVG 1.1//EN"
 "http://www.w3.org/Graphics/SVG/1.1/DTD/svg11.dtd">
<!-- Generated by graphviz version 2.36.0 (20140111.2315)
 -->
<!-- Title: Backend.Turtle Pages: 1 -->
<!--zoomable 515 -->
<svg id="main" version="1.1" xmlns="http://www.w3.org/2000/svg" xmlns:xlink="http://www.w3.org/1999/xlink" xml:space="preserve" onload="init(evt)">
<style type="text/css"><![CDATA[
.edge:hover path { stroke: red; }
.edge:hover polygon { stroke: red; fill: red; }
]]></style>
<script type="text/javascript"><![CDATA[
var edges = document.getElementsByTagName('g');
if (edges && edges.length) {
  for (var i=0;i<edges.length;i++) {
    if (edges[i].id.substr(0,4)=='edge') {
      edges[i].setAttribute('class','edge');
    }
  }
}
]]></script>
        <defs>
                <circle id="rim" cx="0" cy="0" r="7"/>
                <circle id="rim2" cx="0" cy="0" r="3.5"/>
                <g id="zoomPlus">
                        <use xlink:href="#rim" fill="#404040">
                                <set attributeName="fill" to="#808080" begin="zoomplus.mouseover" end="zoomplus.mouseout"/>
                        </use>
                        <path d="M-4,0h8M0,-4v8" fill="none" stroke="white" stroke-width="1.5" pointer-events="none"/>
                </g>
                <g id="zoomMin">
                        <use xlink:href="#rim" fill="#404040">
                                <set attributeName="fill" to="#808080" begin="zoomminus.mouseover" end="zoomminus.mouseout"/>
                        </use>
                        <path d="M-4,0h8" fill="none" stroke="white" stroke-width="1.5" pointer-events="none"/>
                </g>
                <g id="dirArrow">
                        <path fill="none" stroke="white" stroke-width="1.5" d="M0,-3.0v7 M-2.5,-0.5L0,-3.0L2.5,-0.5"/>
                </g>
               <g id="resetDef">
                       <use xlink:href="#rim2" fill="#404040">
                               <set attributeName="fill" to="#808080" begin="reset.mouseover" end="reset.mouseout"/>
                       </use>
               </g>
        </defs>

<script type="text/javascript">
var viewWidth = 1074;
var viewHeight = 515;
var sectionId = 'dynsection-1';
</script>
<script xlink:href="../../svgpan.js"/>
<svg id="graph" class="graph">
<g id="viewport">
<title>Backend.Turtle</title>
<polygon fill="white" stroke="none" points="-4,4 -4,-510.907 1070,-510.907 1070,4 -4,4"/>
<!-- Node1 -->
<g id="node1" class="node"><title>Node1</title>
<polygon fill="#bfbfbf" stroke="black" points="698,-155.407 698,-174.407 784,-174.407 784,-155.407 698,-155.407"/>
<text text-anchor="middle" x="741" y="-162.407" font-family="Helvetica,sans-Serif" font-size="10.00">Backend.Turtle</text>
</g>
<!-- Node3 -->
<g id="node3" class="node"><title>Node3</title>
<g id="a_node3"><a xlink:href="../../d9/d38/class_turtle_view_1_1_turtle_information.html" target="_top" xlink:title="TurtleView.TurtleInformation">
<polygon fill="white" stroke="black" points="920,-81.4066 920,-100.407 1066,-100.407 1066,-81.4066 920,-81.4066"/>
<text text-anchor="middle" x="993" y="-88.4066" font-family="Helvetica,sans-Serif" font-size="10.00">TurtleView.TurtleInformation</text>
</a>
</g>
</g>
<!-- Node1&#45;&gt;Node3 -->
<g id="edge4" class="edge"><title>Node1&#45;&gt;Node3</title>
<path fill="none" stroke="#9a32cd" stroke-dasharray="5,2" d="M758.481,-148.069C769.736,-137.632 785.544,-124.919 802,-117.907 822.842,-109.025 875.163,-101.96 919.634,-97.288"/>
<polygon fill="#9a32cd" stroke="#9a32cd" points="755.908,-145.688 751.146,-155.153 760.77,-150.724 755.908,-145.688"/>
<text text-anchor="middle" x="852" y="-120.907" font-family="Helvetica,sans-Serif" font-size="10.00"> myTurtle</text>
</g>
<!-- Node7 -->
<g id="node7" class="node"><title>Node7</title>
<g id="a_node7"><a xlink:href="../../dc/d04/class_turtle_view_1_1_turtle_image_box.html" target="_top" xlink:title="TurtleView.TurtleImageBox">
<polygon fill="white" stroke="black" points="923,-211.407 923,-230.407 1063,-230.407 1063,-211.407 923,-211.407"/>
<text text-anchor="middle" x="993" y="-218.407" font-family="Helvetica,sans-Serif" font-size="10.00">TurtleView.TurtleImageBox</text>
</a>
</g>
</g>
<!-- Node1&#45;&gt;Node7 -->
<g id="edge9" class="edge"><title>Node1&#45;&gt;Node7</title>
<path fill="none" stroke="#9a32cd" stroke-dasharray="5,2" d="M794.612,-168.606C826.119,-171.611 866.765,-176.884 902,-185.907 926.686,-192.228 953.786,-203.382 971.73,-211.401"/>
<polygon fill="#9a32cd" stroke="#9a32cd" points="794.573,-165.089 784.298,-167.672 793.941,-172.06 794.573,-165.089"/>
<text text-anchor="middle" x="852" y="-188.907" font-family="Helvetica,sans-Serif" font-size="10.00"> myTurtle</text>
</g>
<!-- Node2 -->
<g id="node2" class="node"><title>Node2</title>
<polygon fill="white" stroke="#bfbfbf" points="496,-193.407 496,-212.407 564,-212.407 564,-193.407 496,-193.407"/>
<text text-anchor="middle" x="530" y="-200.407" font-family="Helvetica,sans-Serif" font-size="10.00">ImageView</text>
</g>
<!-- Node2&#45;&gt;Node1 -->
<g id="edge1" class="edge"><title>Node2&#45;&gt;Node1</title>
<path fill="none" stroke="midnightblue" d="M574.086,-197.323C603.941,-193.193 644.54,-187.06 680,-179.907 687.894,-178.314 696.312,-176.367 704.27,-174.41"/>
<polygon fill="midnightblue" stroke="midnightblue" points="573.435,-193.879 564,-198.698 574.381,-200.815 573.435,-193.879"/>
</g>
<!-- Node3&#45;&gt;Node1 -->
<g id="edge2" class="edge"><title>Node3&#45;&gt;Node1</title>
<path fill="none" stroke="#9a32cd" stroke-dasharray="5,2" d="M964.405,-104.976C946.891,-113.449 923.544,-123.915 902,-130.907 880.526,-137.875 824.006,-149.303 784.257,-156.963"/>
<polygon fill="#9a32cd" stroke="#9a32cd" points="966.059,-108.063 973.487,-100.508 962.969,-101.782 966.059,-108.063"/>
<text text-anchor="middle" x="852" y="-156.907" font-family="Helvetica,sans-Serif" font-size="10.00"> myTurtleInformation</text>
</g>
<!-- Node4 -->
<g id="node4" class="node"><title>Node4</title>
<polygon fill="white" stroke="#bfbfbf" points="291.5,-173.407 291.5,-192.407 332.5,-192.407 332.5,-173.407 291.5,-173.407"/>
<text text-anchor="middle" x="312" y="-180.407" font-family="Helvetica,sans-Serif" font-size="10.00">VBox</text>
</g>
<!-- Node4&#45;&gt;Node3 -->
<g id="edge3" class="edge"><title>Node4&#45;&gt;Node3</title>
<path fill="none" stroke="midnightblue" d="M339.992,-168.235C350.459,-161.982 362.246,-154.213 372,-145.907 423.312,-102.209 410.608,-59.7182 472,-31.9066 651.177,49.2642 899.204,-49.0554 971.478,-81.3287"/>
<polygon fill="midnightblue" stroke="midnightblue" points="338.119,-165.276 331.219,-173.316 341.627,-171.334 338.119,-165.276"/>
</g>
<!-- Node11 -->
<g id="node11" class="node"><title>Node11</title>
<g id="a_node11"><a xlink:href="../../d0/d46/class_pen_1_1_pen_options.html" target="_top" xlink:title="Pen.PenOptions">
<polygon fill="white" stroke="black" points="484,-306.407 484,-325.407 576,-325.407 576,-306.407 484,-306.407"/>
<text text-anchor="middle" x="530" y="-313.407" font-family="Helvetica,sans-Serif" font-size="10.00">Pen.PenOptions</text>
</a>
</g>
</g>
<!-- Node4&#45;&gt;Node11 -->
<g id="edge13" class="edge"><title>Node4&#45;&gt;Node11</title>
<path fill="none" stroke="midnightblue" d="M338.503,-197.672C366.893,-214.208 414.041,-241.965 454,-266.907 475.375,-280.248 499.731,-296.326 514.736,-306.335"/>
<polygon fill="midnightblue" stroke="midnightblue" points="340.036,-194.515 329.632,-192.515 336.518,-200.567 340.036,-194.515"/>
</g>
<!-- Node5 -->
<g id="node5" class="node"><title>Node5</title>
<polygon fill="white" stroke="#bfbfbf" points="720,-53.4066 720,-72.4066 762,-72.4066 762,-53.4066 720,-53.4066"/>
<text text-anchor="middle" x="741" y="-60.4066" font-family="Helvetica,sans-Serif" font-size="10.00">Label</text>
</g>
<!-- Node5&#45;&gt;Node3 -->
<g id="edge5" class="edge"><title>Node5&#45;&gt;Node3</title>
<path fill="none" stroke="#9a32cd" stroke-dasharray="5,2" d="M772.237,-60.5504C804.557,-58.6235 857.204,-57.1888 902,-63.9066 924.586,-67.2936 949.385,-75.051 967.222,-81.3857"/>
<polygon fill="#9a32cd" stroke="#9a32cd" points="771.848,-57.0683 762.097,-61.2116 772.303,-64.0534 771.848,-57.0683"/>
<text text-anchor="middle" x="852" y="-88.9066" font-family="Helvetica,sans-Serif" font-size="10.00"> turtleIndexLabel</text>
<text text-anchor="middle" x="852" y="-77.9066" font-family="Helvetica,sans-Serif" font-size="10.00">turtleDirectionLabel</text>
<text text-anchor="middle" x="852" y="-66.9066" font-family="Helvetica,sans-Serif" font-size="10.00">turtlePositionLabel</text>
</g>
<!-- Node6 -->
<g id="node6" class="node"><title>Node6</title>
<polygon fill="white" stroke="#bfbfbf" points="503,-155.407 503,-174.407 557,-174.407 557,-155.407 503,-155.407"/>
<text text-anchor="middle" x="530" y="-162.407" font-family="Helvetica,sans-Serif" font-size="10.00">Point2D</text>
</g>
<!-- Node6&#45;&gt;Node1 -->
<g id="edge6" class="edge"><title>Node6&#45;&gt;Node1</title>
<path fill="none" stroke="#9a32cd" stroke-dasharray="5,2" d="M567.188,-164.907C603.482,-164.907 659.344,-164.907 697.672,-164.907"/>
<polygon fill="#9a32cd" stroke="#9a32cd" points="567.047,-161.407 557.047,-164.907 567.047,-168.407 567.047,-161.407"/>
<text text-anchor="middle" x="643" y="-167.907" font-family="Helvetica,sans-Serif" font-size="10.00"> myLocation</text>
</g>
<!-- Node7&#45;&gt;Node1 -->
<g id="edge7" class="edge"><title>Node7&#45;&gt;Node1</title>
<path fill="none" stroke="#9a32cd" stroke-dasharray="5,2" d="M912.794,-218.802C878.106,-216.092 837.341,-210.438 802,-198.907 784.927,-193.335 767.262,-182.62 755.56,-174.701"/>
<polygon fill="#9a32cd" stroke="#9a32cd" points="912.654,-222.301 922.878,-219.522 913.152,-215.319 912.654,-222.301"/>
<text text-anchor="middle" x="852" y="-220.907" font-family="Helvetica,sans-Serif" font-size="10.00"> myImageBox</text>
</g>
<!-- Node8 -->
<g id="node8" class="node"><title>Node8</title>
<polygon fill="white" stroke="#bfbfbf" points="3,-403.907 3,-433.907 129,-433.907 129,-403.907 3,-403.907"/>
<text text-anchor="start" x="11" y="-421.907" font-family="Helvetica,sans-Serif" font-size="10.00">javafx::scene::control</text>
<text text-anchor="middle" x="66" y="-410.907" font-family="Helvetica,sans-Serif" font-size="10.00">::ComboBox&lt; String &gt;</text>
</g>
<!-- Node8&#45;&gt;Node7 -->
<g id="edge8" class="edge"><title>Node8&#45;&gt;Node7</title>
<path fill="none" stroke="midnightblue" d="M128.185,-436.585C177.192,-449.187 247.932,-463.907 311,-463.907 311,-463.907 311,-463.907 742,-463.907 878.49,-463.907 968.501,-275.36 988.012,-230.432"/>
<polygon fill="midnightblue" stroke="midnightblue" points="128.936,-433.164 118.376,-434.016 127.163,-439.935 128.936,-433.164"/>
</g>
<!-- Node12 -->
<g id="node12" class="node"><title>Node12</title>
<g id="a_node12"><a xlink:href="../../d6/da0/class_pen_1_1_pen_type_box.html" target="_top" xlink:title="Pen.PenTypeBox">
<polygon fill="white" stroke="black" points="264.5,-340.407 264.5,-359.407 359.5,-359.407 359.5,-340.407 264.5,-340.407"/>
<text text-anchor="middle" x="312" y="-347.407" font-family="Helvetica,sans-Serif" font-size="10.00">Pen.PenTypeBox</text>
</a>
</g>
</g>
<!-- Node8&#45;&gt;Node12 -->
<g id="edge15" class="edge"><title>Node8&#45;&gt;Node12</title>
<path fill="none" stroke="midnightblue" d="M139.092,-403.637C168.82,-396.605 203.405,-387.465 234,-376.907 242.276,-374.051 243.822,-372.031 252,-368.907 260.746,-365.566 270.361,-362.301 279.245,-359.447"/>
<polygon fill="midnightblue" stroke="midnightblue" points="138.154,-400.262 129.209,-405.94 139.743,-407.079 138.154,-400.262"/>
</g>
<!-- Node15 -->
<g id="node15" class="node"><title>Node15</title>
<g id="a_node15"><a xlink:href="../../df/d6f/class_pen_1_1_pen_color_box.html" target="_top" xlink:title="Pen.PenColorBox">
<polygon fill="white" stroke="black" points="263,-378.407 263,-397.407 361,-397.407 361,-378.407 263,-378.407"/>
<text text-anchor="middle" x="312" y="-385.407" font-family="Helvetica,sans-Serif" font-size="10.00">Pen.PenColorBox</text>
</a>
</g>
</g>
<!-- Node8&#45;&gt;Node15 -->
<g id="edge19" class="edge"><title>Node8&#45;&gt;Node15</title>
<path fill="none" stroke="midnightblue" d="M139.3,-414.963C168.776,-412.805 203.121,-409.588 234,-404.907 246.588,-402.998 260.192,-400.233 272.412,-397.485"/>
<polygon fill="midnightblue" stroke="midnightblue" points="138.82,-411.488 129.091,-415.682 139.313,-418.47 138.82,-411.488"/>
</g>
<!-- Node9 -->
<g id="node9" class="node"><title>Node9</title>
<g id="a_node9"><a xlink:href="../../dc/ded/class_turtle_view_1_1_active_ring.html" target="_top" xlink:title="TurtleView.ActiveRing">
<polygon fill="white" stroke="black" points="472,-117.407 472,-136.407 588,-136.407 588,-117.407 472,-117.407"/>
<text text-anchor="middle" x="530" y="-124.407" font-family="Helvetica,sans-Serif" font-size="10.00">TurtleView.ActiveRing</text>
</a>
</g>
</g>
<!-- Node9&#45;&gt;Node1 -->
<g id="edge10" class="edge"><title>Node9&#45;&gt;Node1</title>
<path fill="none" stroke="#9a32cd" stroke-dasharray="5,2" d="M598.186,-135.939C623.876,-139.743 653.385,-144.537 680,-149.907 687.894,-151.499 696.312,-153.446 704.27,-155.403"/>
<polygon fill="#9a32cd" stroke="#9a32cd" points="598.575,-132.459 588.174,-134.478 597.564,-139.386 598.575,-132.459"/>
<text text-anchor="middle" x="643" y="-152.907" font-family="Helvetica,sans-Serif" font-size="10.00"> myRing</text>
</g>
<!-- Node10 -->
<g id="node10" class="node"><title>Node10</title>
<polygon fill="white" stroke="#bfbfbf" points="290.5,-117.407 290.5,-136.407 333.5,-136.407 333.5,-117.407 290.5,-117.407"/>
<text text-anchor="middle" x="312" y="-124.407" font-family="Helvetica,sans-Serif" font-size="10.00">Circle</text>
</g>
<!-- Node10&#45;&gt;Node9 -->
<g id="edge11" class="edge"><title>Node10&#45;&gt;Node9</title>
<path fill="none" stroke="midnightblue" d="M343.733,-126.907C376.942,-126.907 430.613,-126.907 471.661,-126.907"/>
<polygon fill="midnightblue" stroke="midnightblue" points="343.711,-123.407 333.711,-126.907 343.711,-130.407 343.711,-123.407"/>
</g>
<!-- Node11&#45;&gt;Node1 -->
<g id="edge12" class="edge"><title>Node11&#45;&gt;Node1</title>
<path fill="none" stroke="#9a32cd" stroke-dasharray="5,2" d="M586.297,-305.689C616.486,-297.93 653.086,-284.742 680,-262.907 710.365,-238.272 729.404,-193.913 736.661,-174.473"/>
<polygon fill="#9a32cd" stroke="#9a32cd" points="585.216,-302.35 576.328,-308.117 586.872,-309.152 585.216,-302.35"/>
<text text-anchor="middle" x="643" y="-302.907" font-family="Helvetica,sans-Serif" font-size="10.00"> myPenOptions</text>
</g>
<!-- Node12&#45;&gt;Node11 -->
<g id="edge14" class="edge"><title>Node12&#45;&gt;Node11</title>
<path fill="none" stroke="#9a32cd" stroke-dasharray="5,2" d="M369.65,-341.119C395.394,-337.112 426.239,-332.293 454,-327.907 463.638,-326.384 473.971,-324.738 483.792,-323.169"/>
<polygon fill="#9a32cd" stroke="#9a32cd" points="369.029,-337.673 359.686,-342.669 370.105,-344.59 369.029,-337.673"/>
<text text-anchor="middle" x="422" y="-340.907" font-family="Helvetica,sans-Serif" font-size="10.00"> myTypeBox</text>
</g>
<!-- Node13 -->
<g id="node13" class="node"><title>Node13</title>
<polygon fill="white" stroke="#bfbfbf" points="12.5,-353.907 12.5,-383.907 119.5,-383.907 119.5,-353.907 12.5,-353.907"/>
<text text-anchor="start" x="20.5" y="-371.907" font-family="Helvetica,sans-Serif" font-size="10.00">Map&lt; String, List&lt;</text>
<text text-anchor="middle" x="66" y="-360.907" font-family="Helvetica,sans-Serif" font-size="10.00"> Double &gt; &gt;</text>
</g>
<!-- Node13&#45;&gt;Node12 -->
<g id="edge16" class="edge"><title>Node13&#45;&gt;Node12</title>
<path fill="none" stroke="#9a32cd" stroke-dasharray="5,2" d="M129.756,-364.02C171.72,-360.752 226.032,-356.523 264.22,-353.549"/>
<polygon fill="#9a32cd" stroke="#9a32cd" points="129.342,-360.541 119.644,-364.807 129.886,-367.52 129.342,-360.541"/>
<text text-anchor="middle" x="192" y="-364.907" font-family="Helvetica,sans-Serif" font-size="10.00"> myMap</text>
</g>
<!-- Node14 -->
<g id="node14" class="node"><title>Node14</title>
<polygon fill="white" stroke="#bfbfbf" points="280,-416.407 280,-435.407 344,-435.407 344,-416.407 280,-416.407"/>
<text text-anchor="middle" x="312" y="-423.407" font-family="Helvetica,sans-Serif" font-size="10.00">CheckBox</text>
</g>
<!-- Node14&#45;&gt;Node11 -->
<g id="edge17" class="edge"><title>Node14&#45;&gt;Node11</title>
<path fill="none" stroke="#9a32cd" stroke-dasharray="5,2" d="M353.949,-419.602C383.215,-413.864 422.777,-403.522 454,-385.907 482.543,-369.803 508.8,-340.686 521.313,-325.582"/>
<polygon fill="#9a32cd" stroke="#9a32cd" points="353.248,-416.173 344.057,-421.444 354.529,-423.054 353.248,-416.173"/>
<text text-anchor="middle" x="422" y="-412.907" font-family="Helvetica,sans-Serif" font-size="10.00"> myDownBox</text>
</g>
<!-- Node15&#45;&gt;Node11 -->
<g id="edge18" class="edge"><title>Node15&#45;&gt;Node11</title>
<path fill="none" stroke="#9a32cd" stroke-dasharray="5,2" d="M371.085,-376.444C396.865,-370.606 427.339,-362.663 454,-352.907 474.725,-345.322 497.279,-333.701 512.185,-325.509"/>
<polygon fill="#9a32cd" stroke="#9a32cd" points="370.093,-373.079 361.086,-378.657 371.606,-379.913 370.093,-373.079"/>
<text text-anchor="middle" x="422" y="-373.907" font-family="Helvetica,sans-Serif" font-size="10.00"> myColorBox</text>
</g>
<!-- Node16 -->
<g id="node16" class="node"><title>Node16</title>
<polygon fill="white" stroke="#bfbfbf" points="6.5,-487.407 6.5,-506.407 125.5,-506.407 125.5,-487.407 6.5,-487.407"/>
<text text-anchor="middle" x="66" y="-494.407" font-family="Helvetica,sans-Serif" font-size="10.00">Map&lt; String, Color &gt;</text>
</g>
<!-- Node16&#45;&gt;Node15 -->
<g id="edge20" class="edge"><title>Node16&#45;&gt;Node15</title>
<path fill="none" stroke="#9a32cd" stroke-dasharray="5,2" d="M105.356,-483.794C140.35,-470.95 192.74,-449.462 234,-422.907 243.001,-417.114 242.706,-412.217 252,-406.907 258.54,-403.17 265.915,-400.056 273.18,-397.504"/>
<polygon fill="#9a32cd" stroke="#9a32cd" points="103.747,-480.654 95.5294,-487.342 106.124,-487.238 103.747,-480.654"/>
<text text-anchor="middle" x="192" y="-468.907" font-family="Helvetica,sans-Serif" font-size="10.00"> myMap</text>
</g>
<!-- Node17 -->
<g id="node17" class="node"><title>Node17</title>
<g id="a_node17"><a xlink:href="../../d4/dc3/class_pen_1_1_pen_thickness_box.html" target="_top" xlink:title="Pen.PenThicknessBox">
<polygon fill="white" stroke="black" points="252,-302.407 252,-321.407 372,-321.407 372,-302.407 252,-302.407"/>
<text text-anchor="middle" x="312" y="-309.407" font-family="Helvetica,sans-Serif" font-size="10.00">Pen.PenThicknessBox</text>
</a>
</g>
</g>
<!-- Node17&#45;&gt;Node11 -->
<g id="edge21" class="edge"><title>Node17&#45;&gt;Node11</title>
<path fill="none" stroke="#9a32cd" stroke-dasharray="5,2" d="M382.146,-313.187C415.404,-313.803 454.334,-314.524 483.752,-315.069"/>
<polygon fill="#9a32cd" stroke="#9a32cd" points="382.086,-309.685 372.023,-313 381.956,-316.684 382.086,-309.685"/>
<text text-anchor="middle" x="422" y="-317.907" font-family="Helvetica,sans-Serif" font-size="10.00"> myThickBox</text>
</g>
<!-- Node18 -->
<g id="node18" class="node"><title>Node18</title>
<polygon fill="white" stroke="#bfbfbf" points="0.5,-304.907 0.5,-334.907 131.5,-334.907 131.5,-304.907 0.5,-304.907"/>
<text text-anchor="start" x="8.5" y="-322.907" font-family="Helvetica,sans-Serif" font-size="10.00">javafx::scene::control</text>
<text text-anchor="middle" x="66" y="-311.907" font-family="Helvetica,sans-Serif" font-size="10.00">::ComboBox&lt; Double &gt;</text>
</g>
<!-- Node18&#45;&gt;Node17 -->
<g id="edge22" class="edge"><title>Node18&#45;&gt;Node17</title>
<path fill="none" stroke="midnightblue" d="M142.002,-317.448C177.291,-316.29 218.773,-314.93 251.808,-313.847"/>
<polygon fill="midnightblue" stroke="midnightblue" points="141.627,-313.958 131.747,-317.784 141.856,-320.954 141.627,-313.958"/>
</g>
<!-- Node19 -->
<g id="node19" class="node"><title>Node19</title>
<polygon fill="white" stroke="#bfbfbf" points="21.5,-245.407 21.5,-264.407 110.5,-264.407 110.5,-245.407 21.5,-245.407"/>
<text text-anchor="middle" x="66" y="-252.407" font-family="Helvetica,sans-Serif" font-size="10.00">List&lt; Double &gt;</text>
</g>
<!-- Node19&#45;&gt;Node17 -->
<g id="edge23" class="edge"><title>Node19&#45;&gt;Node17</title>
<path fill="none" stroke="#9a32cd" stroke-dasharray="5,2" d="M106.061,-267.517C119.863,-271.748 135.547,-276.303 150,-279.907 185.117,-288.664 225.015,-296.608 256.308,-302.39"/>
<polygon fill="#9a32cd" stroke="#9a32cd" points="106.975,-264.137 96.3871,-264.512 104.898,-270.821 106.975,-264.137"/>
<text text-anchor="middle" x="192" y="-301.907" font-family="Helvetica,sans-Serif" font-size="10.00"> myList</text>
</g>
<!-- Node20 -->
<g id="node20" class="node"><title>Node20</title>
<g id="a_node20"><a xlink:href="../../df/daf/class_pen_1_1_pen.html" target="_top" xlink:title="Pen.Pen">
<polygon fill="white" stroke="black" points="284,-232.407 284,-251.407 340,-251.407 340,-232.407 284,-232.407"/>
<text text-anchor="middle" x="312" y="-239.407" font-family="Helvetica,sans-Serif" font-size="10.00">Pen.Pen</text>
</a>
</g>
</g>
<!-- Node19&#45;&gt;Node20 -->
<g id="edge25" class="edge"><title>Node19&#45;&gt;Node20</title>
<path fill="none" stroke="#9a32cd" stroke-dasharray="5,2" d="M110.458,-243.023C123.109,-240.092 137.019,-237.373 150,-235.907 187.097,-231.715 196.695,-234.455 234,-235.907 250.614,-236.553 269.199,-237.981 283.947,-239.282"/>
<polygon fill="#9a32cd" stroke="#9a32cd" points="109.523,-239.648 100.625,-245.399 111.167,-246.452 109.523,-239.648"/>
<text text-anchor="middle" x="192" y="-271.907" font-family="Helvetica,sans-Serif" font-size="10.00"> DASHED</text>
<text text-anchor="middle" x="192" y="-260.907" font-family="Helvetica,sans-Serif" font-size="10.00">SOLID</text>
<text text-anchor="middle" x="192" y="-249.907" font-family="Helvetica,sans-Serif" font-size="10.00">myLineType</text>
<text text-anchor="middle" x="192" y="-238.907" font-family="Helvetica,sans-Serif" font-size="10.00">DOTTED</text>
</g>
<!-- Node20&#45;&gt;Node1 -->
<g id="edge27" class="edge"><title>Node20&#45;&gt;Node1</title>
<path fill="none" stroke="#9a32cd" stroke-dasharray="5,2" d="M350.724,-244.187C419.074,-246.931 566.798,-246.439 680,-200.907 697.131,-194.016 715.071,-182.617 726.82,-174.492"/>
<polygon fill="#9a32cd" stroke="#9a32cd" points="350.6,-240.678 340.453,-243.725 350.286,-247.67 350.6,-240.678"/>
<text text-anchor="middle" x="530" y="-245.907" font-family="Helvetica,sans-Serif" font-size="10.00"> myPen</text>
</g>
<!-- Node20&#45;&gt;Node11 -->
<g id="edge24" class="edge"><title>Node20&#45;&gt;Node11</title>
<path fill="none" stroke="#9a32cd" stroke-dasharray="5,2" d="M349.861,-254.535C392.749,-269.228 462.598,-293.158 501.183,-306.377"/>
<polygon fill="#9a32cd" stroke="#9a32cd" points="350.951,-251.209 340.357,-251.279 348.682,-257.831 350.951,-251.209"/>
<text text-anchor="middle" x="422" y="-292.907" font-family="Helvetica,sans-Serif" font-size="10.00"> myPen</text>
</g>
<!-- Node21 -->
<g id="node21" class="node"><title>Node21</title>
<polygon fill="white" stroke="#bfbfbf" points="45.5,-180.407 45.5,-199.407 86.5,-199.407 86.5,-180.407 45.5,-180.407"/>
<text text-anchor="middle" x="66" y="-187.407" font-family="Helvetica,sans-Serif" font-size="10.00">Color</text>
</g>
<!-- Node21&#45;&gt;Node20 -->
<g id="edge26" class="edge"><title>Node21&#45;&gt;Node20</title>
<path fill="none" stroke="#9a32cd" stroke-dasharray="5,2" d="M96.7762,-190.365C130.575,-191.513 187.104,-195.351 234,-207.907 255.315,-213.613 278.275,-224.417 293.523,-232.319"/>
<polygon fill="#9a32cd" stroke="#9a32cd" points="96.7369,-186.862 86.6421,-190.078 96.5393,-193.859 96.7369,-186.862"/>
<text text-anchor="middle" x="192" y="-221.907" font-family="Helvetica,sans-Serif" font-size="10.00"> DEFAULT_COLOR</text>
<text text-anchor="middle" x="192" y="-210.907" font-family="Helvetica,sans-Serif" font-size="10.00">myColor</text>
</g>
<!-- Node22 -->
<g id="node22" class="node"><title>Node22</title>
<polygon fill="white" stroke="#bfbfbf" points="483.5,-79.4066 483.5,-98.4066 576.5,-98.4066 576.5,-79.4066 483.5,-79.4066"/>
<text text-anchor="middle" x="530" y="-86.4066" font-family="Helvetica,sans-Serif" font-size="10.00">List&lt; Point2D &gt;</text>
</g>
<!-- Node22&#45;&gt;Node1 -->
<g id="edge28" class="edge"><title>Node22&#45;&gt;Node1</title>
<path fill="none" stroke="#9a32cd" stroke-dasharray="5,2" d="M586.657,-96.3551C615.382,-101.49 650.494,-109.817 680,-122.907 698.596,-131.156 717.385,-145.5 728.861,-155.098"/>
<polygon fill="#9a32cd" stroke="#9a32cd" points="587.228,-92.9021 576.782,-94.6693 586.05,-99.8023 587.228,-92.9021"/>
<text text-anchor="middle" x="643" y="-125.907" font-family="Helvetica,sans-Serif" font-size="10.00"> nextLocations</text>
</g>
<!-- Node23 -->
<g id="node23" class="node"><title>Node23</title>
<polygon fill="white" stroke="#bfbfbf" points="484,-41.4066 484,-60.4066 576,-60.4066 576,-41.4066 484,-41.4066"/>
<text text-anchor="middle" x="530" y="-48.4066" font-family="Helvetica,sans-Serif" font-size="10.00">List&lt; Polyline &gt;</text>
</g>
<!-- Node23&#45;&gt;Node1 -->
<g id="edge29" class="edge"><title>Node23&#45;&gt;Node1</title>
<path fill="none" stroke="#9a32cd" stroke-dasharray="5,2" d="M586.388,-54.8317C616.09,-59.0769 652.191,-67.8465 680,-85.9066 707.299,-103.636 726.993,-138.246 735.431,-155.148"/>
<polygon fill="#9a32cd" stroke="#9a32cd" points="586.539,-51.3222 576.173,-53.5111 585.641,-58.2645 586.539,-51.3222"/>
<text text-anchor="middle" x="643" y="-88.9066" font-family="Helvetica,sans-Serif" font-size="10.00"> myTrail</text>
</g>
</g>
</svg>
        <g id="navigator" transform="translate(0 0)" fill="#404254">
                <rect fill="#f2f5e9" fill-opacity="0.5" stroke="#606060" stroke-width=".5" x="0" y="0" width="60" height="60"/>
                <use id="zoomplus" xlink:href="#zoomPlus" x="17" y="9" onmousedown="handleZoom(evt,'in')"/>
                <use id="zoomminus" xlink:href="#zoomMin" x="42" y="9" onmousedown="handleZoom(evt,'out')"/>
                <use id="reset" xlink:href="#resetDef" x="30" y="36" onmousedown="handleReset()"/>
                <g id="arrowUp" xlink:href="#dirArrow" transform="translate(30 24)" onmousedown="handlePan(0,-1)">
                  <use xlink:href="#rim" fill="#404040">
                        <set attributeName="fill" to="#808080" begin="arrowUp.mouseover" end="arrowUp.mouseout"/>
                  </use>
                  <path fill="none" stroke="white" stroke-width="1.5" d="M0,-3.0v7 M-2.5,-0.5L0,-3.0L2.5,-0.5"/>
                </g>
                <g id="arrowRight" xlink:href="#dirArrow" transform="rotate(90) translate(36 -43)" onmousedown="handlePan(1,0)">
                  <use xlink:href="#rim" fill="#404040">
                        <set attributeName="fill" to="#808080" begin="arrowRight.mouseover" end="arrowRight.mouseout"/>
                  </use>
                  <path fill="none" stroke="white" stroke-width="1.5" d="M0,-3.0v7 M-2.5,-0.5L0,-3.0L2.5,-0.5"/>
                </g>
                <g id="arrowDown" xlink:href="#dirArrow" transform="rotate(180) translate(-30 -48)" onmousedown="handlePan(0,1)">
                  <use xlink:href="#rim" fill="#404040">
                        <set attributeName="fill" to="#808080" begin="arrowDown.mouseover" end="arrowDown.mouseout"/>
                  </use>
                  <path fill="none" stroke="white" stroke-width="1.5" d="M0,-3.0v7 M-2.5,-0.5L0,-3.0L2.5,-0.5"/>
                </g>
                <g id="arrowLeft" xlink:href="#dirArrow" transform="rotate(270) translate(-36 17)" onmousedown="handlePan(-1,0)">
                  <use xlink:href="#rim" fill="#404040">
                        <set attributeName="fill" to="#808080" begin="arrowLeft.mouseover" end="arrowLeft.mouseout"/>
                  </use>
                  <path fill="none" stroke="white" stroke-width="1.5" d="M0,-3.0v7 M-2.5,-0.5L0,-3.0L2.5,-0.5"/>
                </g>
        </g>
        <svg viewBox="0 0 15 15" width="100%" height="30px" preserveAspectRatio="xMaxYMin meet">
         <g id="arrow_out" transform="scale(0.3 0.3)">
          <a xlink:href="class_backend_1_1_turtle__coll__graph_org.svg" target="_base">
           <rect id="button" ry="5" rx="5" y="6" x="6" height="38" width="38"
                fill="#f2f5e9" fill-opacity="0.5" stroke="#606060" stroke-width="1.0"/>
           <path id="arrow"
             d="M 11.500037,31.436501 C 11.940474,20.09759 22.043105,11.32322 32.158766,21.979434 L 37.068811,17.246167 C 37.068811,17.246167 37.088388,32 37.088388,32 L 22.160133,31.978069 C 22.160133,31.978069 26.997745,27.140456 26.997745,27.140456 C 18.528582,18.264221 13.291696,25.230495 11.500037,31.436501 z"
             style="fill:#404040;"/>
          </a>
         </g>
        </svg>
</svg>
