<?xml version="1.0" encoding="UTF-8" standalone="no"?>
<!DOCTYPE svg PUBLIC "-//W3C//DTD SVG 1.1//EN"
 "http://www.w3.org/Graphics/SVG/1.1/DTD/svg11.dtd">
<!-- Generated by graphviz version 2.36.0 (20140111.2315)
 -->
<!-- Title: Nodes.turtlecommands.TwoChildNode Pages: 1 -->
<svg width="323pt" height="220pt"
 viewBox="0.00 0.00 323.00 220.00" xmlns="http://www.w3.org/2000/svg" xmlns:xlink="http://www.w3.org/1999/xlink">
<g id="graph0" class="graph" transform="scale(1 1) rotate(0) translate(4 216)">
<title>Nodes.turtlecommands.TwoChildNode</title>
<polygon fill="white" stroke="none" points="-4,4 -4,-216 319,-216 319,4 -4,4"/>
<!-- Node1 -->
<g id="node1" class="node"><title>Node1</title>
<polygon fill="#bfbfbf" stroke="black" points="82.5,-69 82.5,-99 231.5,-99 231.5,-69 82.5,-69"/>
<text text-anchor="start" x="90.5" y="-87" font-family="Helvetica,sans-Serif" font-size="10.00">Nodes.turtlecommands.Two</text>
<text text-anchor="middle" x="157" y="-76" font-family="Helvetica,sans-Serif" font-size="10.00">ChildNode</text>
</g>
<!-- Node4 -->
<g id="node4" class="node"><title>Node4</title>
<g id="a_node4"><a xlink:href="../../d1/dd7/class_nodes_1_1turtlecommands_1_1_set_position_node.html" target="_top" xlink:title="Nodes.turtlecommands.Set\lPositionNode">
<polygon fill="white" stroke="black" points="-0.5,-1 -0.5,-31 148.5,-31 148.5,-1 -0.5,-1"/>
<text text-anchor="start" x="7.5" y="-19" font-family="Helvetica,sans-Serif" font-size="10.00">Nodes.turtlecommands.Set</text>
<text text-anchor="middle" x="74" y="-8" font-family="Helvetica,sans-Serif" font-size="10.00">PositionNode</text>
</a>
</g>
</g>
<!-- Node1&#45;&gt;Node4 -->
<g id="edge3" class="edge"><title>Node1&#45;&gt;Node4</title>
<path fill="none" stroke="midnightblue" d="M130.98,-62.3094C118.194,-52.1426 103.121,-40.1562 91.6895,-31.0663"/>
<polygon fill="midnightblue" stroke="midnightblue" points="128.985,-65.1945 138.99,-68.679 133.342,-59.7155 128.985,-65.1945"/>
</g>
<!-- Node5 -->
<g id="node5" class="node"><title>Node5</title>
<g id="a_node5"><a xlink:href="../../df/d0e/class_nodes_1_1turtlecommands_1_1_set_towards_node.html" target="_top" xlink:title="Nodes.turtlecommands.Set\lTowardsNode">
<polygon fill="white" stroke="black" points="166.5,-1 166.5,-31 315.5,-31 315.5,-1 166.5,-1"/>
<text text-anchor="start" x="174.5" y="-19" font-family="Helvetica,sans-Serif" font-size="10.00">Nodes.turtlecommands.Set</text>
<text text-anchor="middle" x="241" y="-8" font-family="Helvetica,sans-Serif" font-size="10.00">TowardsNode</text>
</a>
</g>
</g>
<!-- Node1&#45;&gt;Node5 -->
<g id="edge4" class="edge"><title>Node1&#45;&gt;Node5</title>
<path fill="none" stroke="midnightblue" d="M183.333,-62.3094C196.273,-52.1426 211.528,-40.1562 223.097,-31.0663"/>
<polygon fill="midnightblue" stroke="midnightblue" points="180.928,-59.7486 175.227,-68.679 185.252,-65.2529 180.928,-59.7486"/>
</g>
<!-- Node2 -->
<g id="node2" class="node"><title>Node2</title>
<g id="a_node2"><a xlink:href="../../dc/d38/class_nodes_1_1turtlecommands_1_1_command_node.html" target="_top" xlink:title="Nodes.turtlecommands.CommandNode">
<polygon fill="white" stroke="black" points="52.5,-136.5 52.5,-155.5 261.5,-155.5 261.5,-136.5 52.5,-136.5"/>
<text text-anchor="middle" x="157" y="-143.5" font-family="Helvetica,sans-Serif" font-size="10.00">Nodes.turtlecommands.CommandNode</text>
</a>
</g>
</g>
<!-- Node2&#45;&gt;Node1 -->
<g id="edge1" class="edge"><title>Node2&#45;&gt;Node1</title>
<path fill="none" stroke="midnightblue" d="M157,-126.371C157,-117.585 157,-107.272 157,-99.1408"/>
<polygon fill="midnightblue" stroke="midnightblue" points="153.5,-126.403 157,-136.403 160.5,-126.403 153.5,-126.403"/>
</g>
<!-- Node3 -->
<g id="node3" class="node"><title>Node3</title>
<g id="a_node3"><a xlink:href="../../df/dac/class_nodes_1_1_node.html" target="_top" xlink:title="Nodes.Node">
<polygon fill="white" stroke="black" points="119,-192.5 119,-211.5 195,-211.5 195,-192.5 119,-192.5"/>
<text text-anchor="middle" x="157" y="-199.5" font-family="Helvetica,sans-Serif" font-size="10.00">Nodes.Node</text>
</a>
</g>
</g>
<!-- Node3&#45;&gt;Node2 -->
<g id="edge2" class="edge"><title>Node3&#45;&gt;Node2</title>
<path fill="none" stroke="midnightblue" d="M157,-181.805C157,-172.91 157,-162.78 157,-155.751"/>
<polygon fill="midnightblue" stroke="midnightblue" points="153.5,-182.083 157,-192.083 160.5,-182.083 153.5,-182.083"/>
</g>
</g>
</svg>
