<?xml version="1.0" encoding="UTF-8" standalone="no"?>
<!DOCTYPE svg PUBLIC "-//W3C//DTD SVG 1.1//EN"
 "http://www.w3.org/Graphics/SVG/1.1/DTD/svg11.dtd">
<!-- Generated by graphviz version 2.36.0 (20140111.2315)
 -->
<!-- Title: FrontEndCommands.SuperCommand Pages: 1 -->
<svg width="226pt" height="96pt"
 viewBox="0.00 0.00 226.00 96.00" xmlns="http://www.w3.org/2000/svg" xmlns:xlink="http://www.w3.org/1999/xlink">
<g id="graph0" class="graph" transform="scale(1 1) rotate(0) translate(4 92)">
<title>FrontEndCommands.SuperCommand</title>
<polygon fill="white" stroke="none" points="-4,4 -4,-92 222,-92 222,4 -4,4"/>
<!-- Node1 -->
<g id="node1" class="node"><title>Node1</title>
<polygon fill="#bfbfbf" stroke="black" points="15,-0.5 15,-19.5 211,-19.5 211,-0.5 15,-0.5"/>
<text text-anchor="middle" x="113" y="-7.5" font-family="Helvetica,sans-Serif" font-size="10.00">FrontEndCommands.SuperCommand</text>
</g>
<!-- Node2 -->
<g id="node2" class="node"><title>Node2</title>
<polygon fill="white" stroke="#bfbfbf" points="-0.5,-68.5 -0.5,-87.5 70.5,-87.5 70.5,-68.5 -0.5,-68.5"/>
<text text-anchor="middle" x="35" y="-75.5" font-family="Helvetica,sans-Serif" font-size="10.00">Observable</text>
</g>
<!-- Node2&#45;&gt;Node1 -->
<g id="edge1" class="edge"><title>Node2&#45;&gt;Node1</title>
<path fill="none" stroke="midnightblue" d="M52.9939,-61.7744C68.3466,-48.7837 89.8894,-30.5551 102.551,-19.8411"/>
<polygon fill="midnightblue" stroke="midnightblue" points="50.5702,-59.2403 45.1971,-68.3717 55.0918,-64.5841 50.5702,-59.2403"/>
</g>
<!-- Node3 -->
<g id="node3" class="node"><title>Node3</title>
<polygon fill="white" stroke="#bfbfbf" points="88.5,-68.5 88.5,-87.5 137.5,-87.5 137.5,-68.5 88.5,-68.5"/>
<text text-anchor="middle" x="113" y="-75.5" font-family="Helvetica,sans-Serif" font-size="10.00">Button</text>
</g>
<!-- Node3&#45;&gt;Node1 -->
<g id="edge2" class="edge"><title>Node3&#45;&gt;Node1</title>
<path fill="none" stroke="#9a32cd" stroke-dasharray="5,2" d="M113,-58.0413C113,-45.4724 113,-29.5631 113,-19.8411"/>
<polygon fill="#9a32cd" stroke="#9a32cd" points="109.5,-58.3716 113,-68.3717 116.5,-58.3717 109.5,-58.3716"/>
<text text-anchor="middle" x="138.5" y="-41.5" font-family="Helvetica,sans-Serif" font-size="10.00"> myButton</text>
</g>
<!-- Node4 -->
<g id="node4" class="node"><title>Node4</title>
<polygon fill="white" stroke="#bfbfbf" points="166,-68.5 166,-87.5 208,-87.5 208,-68.5 166,-68.5"/>
<text text-anchor="middle" x="187" y="-75.5" font-family="Helvetica,sans-Serif" font-size="10.00">HBox</text>
</g>
<!-- Node4&#45;&gt;Node1 -->
<g id="edge3" class="edge"><title>Node4&#45;&gt;Node1</title>
<path fill="none" stroke="#9a32cd" stroke-dasharray="5,2" d="M179.448,-58.7163C175.853,-51.6127 171.011,-43.8058 165,-38 156.806,-30.085 145.828,-23.9276 136.071,-19.505"/>
<polygon fill="#9a32cd" stroke="#9a32cd" points="176.484,-60.6546 183.813,-68.3057 182.855,-57.7542 176.484,-60.6546"/>
<text text-anchor="middle" x="196" y="-41.5" font-family="Helvetica,sans-Serif" font-size="10.00"> myHBox</text>
</g>
</g>
</svg>
