<?xml version="1.0" encoding="UTF-8" standalone="no"?>
<!DOCTYPE svg PUBLIC "-//W3C//DTD SVG 1.1//EN"
 "http://www.w3.org/Graphics/SVG/1.1/DTD/svg11.dtd">
<!-- Generated by graphviz version 2.36.0 (20140111.2315)
 -->
<!-- Title: /tmp/duke&#45;compsci308&#45;fall2014/slogo_team11/repository/src Pages: 1 -->
<svg width="622pt" height="111pt"
 viewBox="0.00 0.00 622.00 111.00" xmlns="http://www.w3.org/2000/svg" xmlns:xlink="http://www.w3.org/1999/xlink">
<g id="graph0" class="graph" transform="scale(1 1) rotate(0) translate(4 107)">
<title>/tmp/duke&#45;compsci308&#45;fall2014/slogo_team11/repository/src</title>
<polygon fill="white" stroke="none" points="-4,4 -4,-107 618,-107 618,4 -4,4"/>
<g id="clust1" class="cluster"><title>clusterdir_dfa0d2a26f32cf10791de42a843d10f4</title>
<g id="a_clust1"><a xlink:href="dir_dfa0d2a26f32cf10791de42a843d10f4.html" target="_top" xlink:title="repository">
<polygon fill="#ddddee" stroke="black" points="8,-8 8,-95 606,-95 606,-8 8,-8"/>
<text text-anchor="middle" x="307" y="-83" font-family="Helvetica,sans-Serif" font-size="10.00">repository</text>
</a>
</g>
</g>
<g id="clust2" class="cluster"><title>clusterdir_f80ed5d522b9cfa9913f99e54aa63fc2</title>
<g id="a_clust2"><a xlink:href="dir_f80ed5d522b9cfa9913f99e54aa63fc2.html" target="_top">
<polygon fill="#eeeeff" stroke="black" points="16,-16 16,-68 598,-68 598,-16 16,-16"/>
</a>
</g>
</g>
<!-- dir_f80ed5d522b9cfa9913f99e54aa63fc2 -->
<g id="node1" class="node"><title>dir_f80ed5d522b9cfa9913f99e54aa63fc2</title>
<text text-anchor="middle" x="563" y="-39.5" font-family="Helvetica,sans-Serif" font-size="10.00">src</text>
</g>
<!-- dir_a8a293d0a8e2470f703f722a6f4eed29 -->
<g id="node2" class="node"><title>dir_a8a293d0a8e2470f703f722a6f4eed29</title>
<g id="a_node2"><a xlink:href="dir_a8a293d0a8e2470f703f722a6f4eed29.html" target="_top" xlink:title="Backend">
<polygon fill="white" stroke="black" points="517.5,-60 460.5,-60 460.5,-24 517.5,-24 517.5,-60"/>
<text text-anchor="middle" x="489" y="-39.5" font-family="Helvetica,sans-Serif" font-size="10.00">Backend</text>
</a>
</g>
</g>
<!-- dir_5c64eb43198ecbb72b20a162271e044d -->
<g id="node3" class="node"><title>dir_5c64eb43198ecbb72b20a162271e044d</title>
<g id="a_node3"><a xlink:href="dir_5c64eb43198ecbb72b20a162271e044d.html" target="_top" xlink:title="FrontEnd">
<polygon fill="white" stroke="black" points="441.25,-60 382.75,-60 382.75,-24 441.25,-24 441.25,-60"/>
<text text-anchor="middle" x="412" y="-39.5" font-family="Helvetica,sans-Serif" font-size="10.00">FrontEnd</text>
</a>
</g>
</g>
<!-- dir_5b21d853daed484aac8988058d3df8b7 -->
<g id="node4" class="node"><title>dir_5b21d853daed484aac8988058d3df8b7</title>
<g id="a_node4"><a xlink:href="dir_5b21d853daed484aac8988058d3df8b7.html" target="_top" xlink:title="FrontEndCommands">
<polygon fill="white" stroke="black" points="364,-60 250,-60 250,-24 364,-24 364,-60"/>
<text text-anchor="middle" x="307" y="-39.5" font-family="Helvetica,sans-Serif" font-size="10.00">FrontEndCommands</text>
</a>
</g>
</g>
<!-- dir_71d99cc6575682af97981136431b5c94 -->
<g id="node5" class="node"><title>dir_71d99cc6575682af97981136431b5c94</title>
<g id="a_node5"><a xlink:href="dir_71d99cc6575682af97981136431b5c94.html" target="_top" xlink:title="Nodes">
<polygon fill="white" stroke="red" points="232,-60 178,-60 178,-24 232,-24 232,-60"/>
<text text-anchor="middle" x="205" y="-39.5" font-family="Helvetica,sans-Serif" font-size="10.00">Nodes</text>
</a>
</g>
</g>
<!-- dir_5bda6cd1a77f53db4797738199ed6e7a -->
<g id="node6" class="node"><title>dir_5bda6cd1a77f53db4797738199ed6e7a</title>
<g id="a_node6"><a xlink:href="dir_5bda6cd1a77f53db4797738199ed6e7a.html" target="_top" xlink:title="Pen">
<polygon fill="white" stroke="black" points="160,-60 106,-60 106,-24 160,-24 160,-60"/>
<text text-anchor="middle" x="133" y="-39.5" font-family="Helvetica,sans-Serif" font-size="10.00">Pen</text>
</a>
</g>
</g>
<!-- dir_caf0cf2b0a04aca7801dbd29156d2870 -->
<g id="node7" class="node"><title>dir_caf0cf2b0a04aca7801dbd29156d2870</title>
<g id="a_node7"><a xlink:href="dir_caf0cf2b0a04aca7801dbd29156d2870.html" target="_top" xlink:title="TurtleView">
<polygon fill="white" stroke="black" points="88,-60 24,-60 24,-24 88,-24 88,-60"/>
<text text-anchor="middle" x="56" y="-39.5" font-family="Helvetica,sans-Serif" font-size="10.00">TurtleView</text>
</a>
</g>
</g>
</g>
</svg>
