<?xml version="1.0" encoding="UTF-8" standalone="no"?>
<!DOCTYPE svg PUBLIC "-//W3C//DTD SVG 1.1//EN"
 "http://www.w3.org/Graphics/SVG/1.1/DTD/svg11.dtd">
<!-- Generated by graphviz version 2.36.0 (20140111.2315)
 -->
<!-- Title: /tmp/duke&#45;compsci308&#45;fall2014/slogo_team11/repository/src/Nodes Pages: 1 -->
<svg width="690pt" height="111pt"
 viewBox="0.00 0.00 690.00 111.00" xmlns="http://www.w3.org/2000/svg" xmlns:xlink="http://www.w3.org/1999/xlink">
<g id="graph0" class="graph" transform="scale(1 1) rotate(0) translate(4 107)">
<title>/tmp/duke&#45;compsci308&#45;fall2014/slogo_team11/repository/src/Nodes</title>
<polygon fill="white" stroke="none" points="-4,4 -4,-107 686,-107 686,4 -4,4"/>
<g id="clust1" class="cluster"><title>clusterdir_f80ed5d522b9cfa9913f99e54aa63fc2</title>
<g id="a_clust1"><a xlink:href="dir_f80ed5d522b9cfa9913f99e54aa63fc2.html" target="_top" xlink:title="src">
<polygon fill="#ddddee" stroke="black" points="8,-8 8,-95 674,-95 674,-8 8,-8"/>
<text text-anchor="middle" x="341" y="-83" font-family="Helvetica,sans-Serif" font-size="10.00">src</text>
</a>
</g>
</g>
<g id="clust2" class="cluster"><title>clusterdir_71d99cc6575682af97981136431b5c94</title>
<g id="a_clust2"><a xlink:href="dir_71d99cc6575682af97981136431b5c94.html" target="_top">
<polygon fill="#eeeeff" stroke="black" points="16,-16 16,-68 666,-68 666,-16 16,-16"/>
</a>
</g>
</g>
<!-- dir_71d99cc6575682af97981136431b5c94 -->
<g id="node1" class="node"><title>dir_71d99cc6575682af97981136431b5c94</title>
<text text-anchor="middle" x="631" y="-39.5" font-family="Helvetica,sans-Serif" font-size="10.00">Nodes</text>
</g>
<!-- dir_e157b118bc16b509a034f377f66796c9 -->
<g id="node2" class="node"><title>dir_e157b118bc16b509a034f377f66796c9</title>
<g id="a_node2"><a xlink:href="dir_e157b118bc16b509a034f377f66796c9.html" target="_top" xlink:title="booleans">
<polygon fill="white" stroke="black" points="585.5,-60 526.5,-60 526.5,-24 585.5,-24 585.5,-60"/>
<text text-anchor="middle" x="556" y="-39.5" font-family="Helvetica,sans-Serif" font-size="10.00">booleans</text>
</a>
</g>
</g>
<!-- dir_1ab89df62f444bf93271e4365974e029 -->
<g id="node3" class="node"><title>dir_1ab89df62f444bf93271e4365974e029</title>
<g id="a_node3"><a xlink:href="dir_1ab89df62f444bf93271e4365974e029.html" target="_top" xlink:title="conditionals">
<polygon fill="white" stroke="black" points="508,-60 434,-60 434,-24 508,-24 508,-60"/>
<text text-anchor="middle" x="471" y="-39.5" font-family="Helvetica,sans-Serif" font-size="10.00">conditionals</text>
</a>
</g>
</g>
<!-- dir_aa5851c02c2b5f868be77304b8e0d59f -->
<g id="node4" class="node"><title>dir_aa5851c02c2b5f868be77304b8e0d59f</title>
<g id="a_node4"><a xlink:href="dir_aa5851c02c2b5f868be77304b8e0d59f.html" target="_top" xlink:title="loops">
<polygon fill="white" stroke="black" points="416,-60 362,-60 362,-24 416,-24 416,-60"/>
<text text-anchor="middle" x="389" y="-39.5" font-family="Helvetica,sans-Serif" font-size="10.00">loops</text>
</a>
</g>
</g>
<!-- dir_9b846566e20c778fdd090fa3cbf433b5 -->
<g id="node5" class="node"><title>dir_9b846566e20c778fdd090fa3cbf433b5</title>
<g id="a_node5"><a xlink:href="dir_9b846566e20c778fdd090fa3cbf433b5.html" target="_top" xlink:title="math">
<polygon fill="white" stroke="black" points="344,-60 290,-60 290,-24 344,-24 344,-60"/>
<text text-anchor="middle" x="317" y="-39.5" font-family="Helvetica,sans-Serif" font-size="10.00">math</text>
</a>
</g>
</g>
<!-- dir_dea80d2a0e1dab021702be849f606cd1 -->
<g id="node6" class="node"><title>dir_dea80d2a0e1dab021702be849f606cd1</title>
<g id="a_node6"><a xlink:href="dir_dea80d2a0e1dab021702be849f606cd1.html" target="_top" xlink:title="multipleTurtlecommands">
<polygon fill="white" stroke="black" points="272,-60 138,-60 138,-24 272,-24 272,-60"/>
<text text-anchor="middle" x="205" y="-39.5" font-family="Helvetica,sans-Serif" font-size="10.00">multipleTurtlecommands</text>
</a>
</g>
</g>
<!-- dir_2a7b82c6d397412a67fe425054492f0f -->
<g id="node7" class="node"><title>dir_2a7b82c6d397412a67fe425054492f0f</title>
<g id="a_node7"><a xlink:href="dir_2a7b82c6d397412a67fe425054492f0f.html" target="_top" xlink:title="turtlecommands">
<polygon fill="white" stroke="black" points="120,-60 24,-60 24,-24 120,-24 120,-60"/>
<text text-anchor="middle" x="72" y="-39.5" font-family="Helvetica,sans-Serif" font-size="10.00">turtlecommands</text>
</a>
</g>
</g>
</g>
</svg>
