<?xml version="1.0" encoding="UTF-8" standalone="no"?>
<!DOCTYPE svg PUBLIC "-//W3C//DTD SVG 1.1//EN"
 "http://www.w3.org/Graphics/SVG/1.1/DTD/svg11.dtd">
<!-- Generated by graphviz version 2.36.0 (20140111.2315)
 -->
<!-- Title: Graphical Class Hierarchy Pages: 1 -->
<svg width="290pt" height="66pt"
 viewBox="0.00 0.00 290.00 66.00" xmlns="http://www.w3.org/2000/svg" xmlns:xlink="http://www.w3.org/1999/xlink">
<g id="graph0" class="graph" transform="scale(1 1) rotate(0) translate(4 62)">
<title>Graphical Class Hierarchy</title>
<polygon fill="white" stroke="none" points="-4,4 -4,-62 286,-62 286,4 -4,4"/>
<!-- Node1 -->
<g id="node1" class="node"><title>Node1</title>
<g id="a_node1"><a xlink:href="d2/d86/class_backend_1_1_saved_data.html" target="_top" xlink:title="Backend.SavedData">
<polygon fill="white" stroke="black" points="0,-19.5 0,-38.5 114,-38.5 114,-19.5 0,-19.5"/>
<text text-anchor="middle" x="57" y="-26.5" font-family="Helvetica,sans-Serif" font-size="10.00">Backend.SavedData</text>
</a>
</g>
</g>
<!-- Node2 -->
<g id="node2" class="node"><title>Node2</title>
<g id="a_node2"><a xlink:href="d8/dd2/class_backend_1_1_saved_function.html" target="_top" xlink:title="Backend.SavedFunction">
<polygon fill="white" stroke="black" points="150.5,-38.5 150.5,-57.5 281.5,-57.5 281.5,-38.5 150.5,-38.5"/>
<text text-anchor="middle" x="216" y="-45.5" font-family="Helvetica,sans-Serif" font-size="10.00">Backend.SavedFunction</text>
</a>
</g>
</g>
<!-- Node1&#45;&gt;Node2 -->
<g id="edge1" class="edge"><title>Node1&#45;&gt;Node2</title>
<path fill="none" stroke="midnightblue" d="M124.256,-37.0182C132.892,-38.0633 141.73,-39.1329 150.339,-40.1748"/>
<polygon fill="midnightblue" stroke="midnightblue" points="124.585,-33.5326 114.237,-35.8058 123.744,-40.4819 124.585,-33.5326"/>
</g>
<!-- Node3 -->
<g id="node3" class="node"><title>Node3</title>
<g id="a_node3"><a xlink:href="df/d19/class_backend_1_1_saved_variable.html" target="_top" xlink:title="Backend.SavedVariable">
<polygon fill="white" stroke="black" points="151.5,-0.5 151.5,-19.5 280.5,-19.5 280.5,-0.5 151.5,-0.5"/>
<text text-anchor="middle" x="216" y="-7.5" font-family="Helvetica,sans-Serif" font-size="10.00">Backend.SavedVariable</text>
</a>
</g>
</g>
<!-- Node1&#45;&gt;Node3 -->
<g id="edge2" class="edge"><title>Node1&#45;&gt;Node3</title>
<path fill="none" stroke="midnightblue" d="M124.271,-20.98C133.263,-19.8917 142.475,-18.7769 151.419,-17.6945"/>
<polygon fill="midnightblue" stroke="midnightblue" points="123.744,-17.5181 114.237,-22.1942 124.585,-24.4674 123.744,-17.5181"/>
</g>
</g>
</svg>
