<?xml version="1.0" encoding="UTF-8" standalone="no"?>
<!DOCTYPE svg PUBLIC "-//W3C//DTD SVG 1.1//EN"
 "http://www.w3.org/Graphics/SVG/1.1/DTD/svg11.dtd">
<!-- Generated by graphviz version 2.36.0 (20140111.2315)
 -->
<!-- Title: Graphical Class Hierarchy Pages: 1 -->
<svg width="236pt" height="142pt"
 viewBox="0.00 0.00 236.00 142.00" xmlns="http://www.w3.org/2000/svg" xmlns:xlink="http://www.w3.org/1999/xlink">
<g id="graph0" class="graph" transform="scale(1 1) rotate(0) translate(4 138)">
<title>Graphical Class Hierarchy</title>
<polygon fill="white" stroke="none" points="-4,4 -4,-138 232,-138 232,4 -4,4"/>
<!-- Node1 -->
<g id="node1" class="node"><title>Node1</title>
<polygon fill="white" stroke="#bfbfbf" points="0,-95.5 0,-114.5 60,-114.5 60,-95.5 0,-95.5"/>
<text text-anchor="middle" x="30" y="-102.5" font-family="Helvetica,sans-Serif" font-size="10.00">Observer</text>
</g>
<!-- Node2 -->
<g id="node2" class="node"><title>Node2</title>
<g id="a_node2"><a xlink:href="df/d9c/class_front_end_1_1_command_line.html" target="_top" xlink:title="FrontEnd.CommandLine">
<polygon fill="white" stroke="black" points="96.5,-76.5 96.5,-95.5 227.5,-95.5 227.5,-76.5 96.5,-76.5"/>
<text text-anchor="middle" x="162" y="-83.5" font-family="Helvetica,sans-Serif" font-size="10.00">FrontEnd.CommandLine</text>
</a>
</g>
</g>
<!-- Node1&#45;&gt;Node2 -->
<g id="edge1" class="edge"><title>Node1&#45;&gt;Node2</title>
<path fill="none" stroke="midnightblue" d="M70.2304,-99.2663C78.4886,-98.0594 87.409,-96.7556 96.3213,-95.453"/>
<polygon fill="midnightblue" stroke="midnightblue" points="69.5632,-95.8266 60.1745,-100.736 70.5756,-102.753 69.5632,-95.8266"/>
</g>
<!-- Node3 -->
<g id="node3" class="node"><title>Node3</title>
<g id="a_node3"><a xlink:href="dd/d2e/class_front_end_1_1_controller.html" target="_top" xlink:title="FrontEnd.Controller">
<polygon fill="white" stroke="black" points="108,-114.5 108,-133.5 216,-133.5 216,-114.5 108,-114.5"/>
<text text-anchor="middle" x="162" y="-121.5" font-family="Helvetica,sans-Serif" font-size="10.00">FrontEnd.Controller</text>
</a>
</g>
</g>
<!-- Node1&#45;&gt;Node3 -->
<g id="edge2" class="edge"><title>Node1&#45;&gt;Node3</title>
<path fill="none" stroke="midnightblue" d="M70.1921,-110.728C82.0489,-112.461 95.2735,-114.394 107.881,-116.236"/>
<polygon fill="midnightblue" stroke="midnightblue" points="70.5756,-107.247 60.1745,-109.264 69.5632,-114.173 70.5756,-107.247"/>
</g>
<!-- Node4 -->
<g id="node4" class="node"><title>Node4</title>
<polygon fill="white" stroke="#bfbfbf" points="1,-38.5 1,-57.5 59,-57.5 59,-38.5 1,-38.5"/>
<text text-anchor="middle" x="30" y="-45.5" font-family="Helvetica,sans-Serif" font-size="10.00">TextArea</text>
</g>
<!-- Node4&#45;&gt;Node2 -->
<g id="edge3" class="edge"><title>Node4&#45;&gt;Node2</title>
<path fill="none" stroke="midnightblue" d="M68.9417,-59.0907C87.7429,-64.5864 110.221,-71.1568 128.258,-76.4294"/>
<polygon fill="midnightblue" stroke="midnightblue" points="69.7884,-55.6918 59.2081,-56.2454 67.8244,-62.4106 69.7884,-55.6918"/>
</g>
<!-- Node5 -->
<g id="node5" class="node"><title>Node5</title>
<g id="a_node5"><a xlink:href="d2/d82/class_front_end_1_1_console.html" target="_top" xlink:title="FrontEnd.Console">
<polygon fill="white" stroke="black" points="112,-38.5 112,-57.5 212,-57.5 212,-38.5 112,-38.5"/>
<text text-anchor="middle" x="162" y="-45.5" font-family="Helvetica,sans-Serif" font-size="10.00">FrontEnd.Console</text>
</a>
</g>
</g>
<!-- Node4&#45;&gt;Node5 -->
<g id="edge4" class="edge"><title>Node4&#45;&gt;Node5</title>
<path fill="none" stroke="midnightblue" d="M69.4356,-48C82.7354,-48 97.8272,-48 111.867,-48"/>
<polygon fill="midnightblue" stroke="midnightblue" points="69.2081,-44.5001 59.2081,-48 69.208,-51.5001 69.2081,-44.5001"/>
</g>
<!-- Node6 -->
<g id="node6" class="node"><title>Node6</title>
<g id="a_node6"><a xlink:href="d4/d1b/class_front_end_1_1_history_box.html" target="_top" xlink:title="FrontEnd.HistoryBox">
<polygon fill="white" stroke="black" points="105.5,-0.5 105.5,-19.5 218.5,-19.5 218.5,-0.5 105.5,-0.5"/>
<text text-anchor="middle" x="162" y="-7.5" font-family="Helvetica,sans-Serif" font-size="10.00">FrontEnd.HistoryBox</text>
</a>
</g>
</g>
<!-- Node4&#45;&gt;Node6 -->
<g id="edge5" class="edge"><title>Node4&#45;&gt;Node6</title>
<path fill="none" stroke="midnightblue" d="M68.9417,-36.9093C87.7429,-31.4136 110.221,-24.8432 128.258,-19.5706"/>
<polygon fill="midnightblue" stroke="midnightblue" points="67.8244,-33.5894 59.2081,-39.7546 69.7884,-40.3082 67.8244,-33.5894"/>
</g>
</g>
</svg>
