<?xml version="1.0" encoding="UTF-8" standalone="no"?>
<!DOCTYPE svg PUBLIC "-//W3C//DTD SVG 1.1//EN"
 "http://www.w3.org/Graphics/SVG/1.1/DTD/svg11.dtd">
<!-- Generated by graphviz version 2.36.0 (20140111.2315)
 -->
<!-- Title: Graphical Class Hierarchy Pages: 1 -->
<svg width="280pt" height="180pt"
 viewBox="0.00 0.00 280.00 180.00" xmlns="http://www.w3.org/2000/svg" xmlns:xlink="http://www.w3.org/1999/xlink">
<g id="graph0" class="graph" transform="scale(1 1) rotate(0) translate(4 176)">
<title>Graphical Class Hierarchy</title>
<polygon fill="white" stroke="none" points="-4,4 -4,-176 276,-176 276,4 -4,4"/>
<!-- Node1 -->
<g id="node1" class="node"><title>Node1</title>
<polygon fill="white" stroke="#bfbfbf" points="0.5,-76.5 0.5,-95.5 69.5,-95.5 69.5,-76.5 0.5,-76.5"/>
<text text-anchor="middle" x="35" y="-83.5" font-family="Helvetica,sans-Serif" font-size="10.00">ComboBox</text>
</g>
<!-- Node2 -->
<g id="node2" class="node"><title>Node2</title>
<g id="a_node2"><a xlink:href="df/d6f/class_pen_1_1_pen_color_box.html" target="_top" xlink:title="Pen.PenColorBox">
<polygon fill="white" stroke="black" points="140,-152.5 140,-171.5 238,-171.5 238,-152.5 140,-152.5"/>
<text text-anchor="middle" x="189" y="-159.5" font-family="Helvetica,sans-Serif" font-size="10.00">Pen.PenColorBox</text>
</a>
</g>
</g>
<!-- Node1&#45;&gt;Node2 -->
<g id="edge1" class="edge"><title>Node1&#45;&gt;Node2</title>
<path fill="none" stroke="midnightblue" d="M52.3527,-103.018C65.6417,-115.868 85.4872,-132.951 106,-143 116.498,-148.143 128.443,-151.927 139.905,-154.7"/>
<polygon fill="midnightblue" stroke="midnightblue" points="54.531,-100.248 44.9784,-95.665 49.5884,-105.204 54.531,-100.248"/>
</g>
<!-- Node3 -->
<g id="node3" class="node"><title>Node3</title>
<g id="a_node3"><a xlink:href="d4/dc3/class_pen_1_1_pen_thickness_box.html" target="_top" xlink:title="Pen.PenThicknessBox">
<polygon fill="white" stroke="black" points="129,-114.5 129,-133.5 249,-133.5 249,-114.5 129,-114.5"/>
<text text-anchor="middle" x="189" y="-121.5" font-family="Helvetica,sans-Serif" font-size="10.00">Pen.PenThicknessBox</text>
</a>
</g>
</g>
<!-- Node1&#45;&gt;Node3 -->
<g id="edge2" class="edge"><title>Node1&#45;&gt;Node3</title>
<path fill="none" stroke="midnightblue" d="M79.4446,-98.0627C88.22,-100.423 97.3932,-102.836 106,-105 118.755,-108.208 132.676,-111.508 145.368,-114.44"/>
<polygon fill="midnightblue" stroke="midnightblue" points="80.3248,-94.675 69.7573,-95.4362 78.493,-101.431 80.3248,-94.675"/>
</g>
<!-- Node4 -->
<g id="node4" class="node"><title>Node4</title>
<g id="a_node4"><a xlink:href="d6/da0/class_pen_1_1_pen_type_box.html" target="_top" xlink:title="Pen.PenTypeBox">
<polygon fill="white" stroke="black" points="141.5,-76.5 141.5,-95.5 236.5,-95.5 236.5,-76.5 141.5,-76.5"/>
<text text-anchor="middle" x="189" y="-83.5" font-family="Helvetica,sans-Serif" font-size="10.00">Pen.PenTypeBox</text>
</a>
</g>
</g>
<!-- Node1&#45;&gt;Node4 -->
<g id="edge3" class="edge"><title>Node1&#45;&gt;Node4</title>
<path fill="none" stroke="midnightblue" d="M79.7723,-86C99.0724,-86 121.776,-86 141.391,-86"/>
<polygon fill="midnightblue" stroke="midnightblue" points="79.7338,-82.5001 69.7337,-86 79.7337,-89.5001 79.7338,-82.5001"/>
</g>
<!-- Node5 -->
<g id="node5" class="node"><title>Node5</title>
<g id="a_node5"><a xlink:href="d0/d6a/class_turtle_view_1_1_background_color_box.html" target="_top" xlink:title="TurtleView.BackgroundColorBox">
<polygon fill="white" stroke="black" points="106,-38.5 106,-57.5 272,-57.5 272,-38.5 106,-38.5"/>
<text text-anchor="middle" x="189" y="-45.5" font-family="Helvetica,sans-Serif" font-size="10.00">TurtleView.BackgroundColorBox</text>
</a>
</g>
</g>
<!-- Node1&#45;&gt;Node5 -->
<g id="edge4" class="edge"><title>Node1&#45;&gt;Node5</title>
<path fill="none" stroke="midnightblue" d="M79.4446,-73.9373C88.22,-71.5771 97.3932,-69.1644 106,-67 118.755,-63.7925 132.676,-60.4919 145.368,-57.5602"/>
<polygon fill="midnightblue" stroke="midnightblue" points="78.493,-70.5689 69.7573,-76.5638 80.3248,-77.325 78.493,-70.5689"/>
</g>
<!-- Node6 -->
<g id="node6" class="node"><title>Node6</title>
<g id="a_node6"><a xlink:href="dc/d04/class_turtle_view_1_1_turtle_image_box.html" target="_top" xlink:title="TurtleView.TurtleImageBox">
<polygon fill="white" stroke="black" points="119,-0.5 119,-19.5 259,-19.5 259,-0.5 119,-0.5"/>
<text text-anchor="middle" x="189" y="-7.5" font-family="Helvetica,sans-Serif" font-size="10.00">TurtleView.TurtleImageBox</text>
</a>
</g>
</g>
<!-- Node1&#45;&gt;Node6 -->
<g id="edge5" class="edge"><title>Node1&#45;&gt;Node6</title>
<path fill="none" stroke="midnightblue" d="M52.3527,-68.9818C65.6417,-56.132 85.4872,-39.0494 106,-29 113.874,-25.1426 122.561,-22.0496 131.248,-19.5746"/>
<polygon fill="midnightblue" stroke="midnightblue" points="49.5884,-66.7956 44.9784,-76.335 54.531,-71.7525 49.5884,-66.7956"/>
</g>
</g>
</svg>
