<?xml version="1.0" encoding="UTF-8" standalone="no"?>
<!DOCTYPE svg PUBLIC "-//W3C//DTD SVG 1.1//EN"
 "http://www.w3.org/Graphics/SVG/1.1/DTD/svg11.dtd">
<!-- Generated by graphviz version 2.36.0 (20140111.2315)
 -->
<!-- Title: Nodes.turtlecommands.ClearScreenNode Pages: 1 -->
<svg width="216pt" height="276pt"
 viewBox="0.00 0.00 216.00 276.00" xmlns="http://www.w3.org/2000/svg" xmlns:xlink="http://www.w3.org/1999/xlink">
<g id="graph0" class="graph" transform="scale(1 1) rotate(0) translate(4 272)">
<title>Nodes.turtlecommands.ClearScreenNode</title>
<polygon fill="white" stroke="none" points="-4,4 -4,-272 212,-272 212,4 -4,4"/>
<!-- Node1 -->
<g id="node1" class="node"><title>Node1</title>
<polygon fill="#bfbfbf" stroke="black" points="25,-1 25,-31 183,-31 183,-1 25,-1"/>
<text text-anchor="start" x="33" y="-19" font-family="Helvetica,sans-Serif" font-size="10.00">Nodes.turtlecommands.Clear</text>
<text text-anchor="middle" x="104" y="-8" font-family="Helvetica,sans-Serif" font-size="10.00">ScreenNode</text>
</g>
<!-- Node2 -->
<g id="node2" class="node"><title>Node2</title>
<g id="a_node2"><a xlink:href="../../d4/dd2/class_nodes_1_1turtlecommands_1_1_home_node.html" target="_top" xlink:title="Nodes.turtlecommands.HomeNode">
<polygon fill="white" stroke="black" points="10,-68.5 10,-87.5 198,-87.5 198,-68.5 10,-68.5"/>
<text text-anchor="middle" x="104" y="-75.5" font-family="Helvetica,sans-Serif" font-size="10.00">Nodes.turtlecommands.HomeNode</text>
</a>
</g>
</g>
<!-- Node2&#45;&gt;Node1 -->
<g id="edge1" class="edge"><title>Node2&#45;&gt;Node1</title>
<path fill="none" stroke="midnightblue" d="M104,-58.3707C104,-49.5849 104,-39.2721 104,-31.1408"/>
<polygon fill="midnightblue" stroke="midnightblue" points="100.5,-58.4034 104,-68.4035 107.5,-58.4035 100.5,-58.4034"/>
</g>
<!-- Node3 -->
<g id="node3" class="node"><title>Node3</title>
<g id="a_node3"><a xlink:href="../../d6/dfd/class_nodes_1_1turtlecommands_1_1_zero_children_node.html" target="_top" xlink:title="Nodes.turtlecommands.Zero\lChildrenNode">
<polygon fill="white" stroke="black" points="26,-125 26,-155 182,-155 182,-125 26,-125"/>
<text text-anchor="start" x="34" y="-143" font-family="Helvetica,sans-Serif" font-size="10.00">Nodes.turtlecommands.Zero</text>
<text text-anchor="middle" x="104" y="-132" font-family="Helvetica,sans-Serif" font-size="10.00">ChildrenNode</text>
</a>
</g>
</g>
<!-- Node3&#45;&gt;Node2 -->
<g id="edge2" class="edge"><title>Node3&#45;&gt;Node2</title>
<path fill="none" stroke="midnightblue" d="M104,-114.586C104,-105.074 104,-94.7864 104,-87.7305"/>
<polygon fill="midnightblue" stroke="midnightblue" points="100.5,-114.781 104,-124.781 107.5,-114.781 100.5,-114.781"/>
</g>
<!-- Node4 -->
<g id="node4" class="node"><title>Node4</title>
<g id="a_node4"><a xlink:href="../../dc/d38/class_nodes_1_1turtlecommands_1_1_command_node.html" target="_top" xlink:title="Nodes.turtlecommands.CommandNode">
<polygon fill="white" stroke="black" points="-0.5,-192.5 -0.5,-211.5 208.5,-211.5 208.5,-192.5 -0.5,-192.5"/>
<text text-anchor="middle" x="104" y="-199.5" font-family="Helvetica,sans-Serif" font-size="10.00">Nodes.turtlecommands.CommandNode</text>
</a>
</g>
</g>
<!-- Node4&#45;&gt;Node3 -->
<g id="edge3" class="edge"><title>Node4&#45;&gt;Node3</title>
<path fill="none" stroke="midnightblue" d="M104,-182.371C104,-173.585 104,-163.272 104,-155.141"/>
<polygon fill="midnightblue" stroke="midnightblue" points="100.5,-182.403 104,-192.403 107.5,-182.403 100.5,-182.403"/>
</g>
<!-- Node5 -->
<g id="node5" class="node"><title>Node5</title>
<g id="a_node5"><a xlink:href="../../df/dac/class_nodes_1_1_node.html" target="_top" xlink:title="Nodes.Node">
<polygon fill="white" stroke="black" points="66,-248.5 66,-267.5 142,-267.5 142,-248.5 66,-248.5"/>
<text text-anchor="middle" x="104" y="-255.5" font-family="Helvetica,sans-Serif" font-size="10.00">Nodes.Node</text>
</a>
</g>
</g>
<!-- Node5&#45;&gt;Node4 -->
<g id="edge4" class="edge"><title>Node5&#45;&gt;Node4</title>
<path fill="none" stroke="midnightblue" d="M104,-237.805C104,-228.91 104,-218.78 104,-211.751"/>
<polygon fill="midnightblue" stroke="midnightblue" points="100.5,-238.083 104,-248.083 107.5,-238.083 100.5,-238.083"/>
</g>
</g>
</svg>
