<?xml version="1.0" encoding="UTF-8" standalone="no"?>
<!DOCTYPE svg PUBLIC "-//W3C//DTD SVG 1.1//EN"
 "http://www.w3.org/Graphics/SVG/1.1/DTD/svg11.dtd">
<!-- Generated by graphviz version 2.36.0 (20140111.2315)
 -->
<!-- Title: FrontEnd.Controller.update Pages: 1 -->
<svg width="1366pt" height="802pt"
 viewBox="0.00 0.00 1366.00 802.00" xmlns="http://www.w3.org/2000/svg" xmlns:xlink="http://www.w3.org/1999/xlink">
<g id="graph0" class="graph" transform="scale(1 1) rotate(0) translate(4 798)">
<title>FrontEnd.Controller.update</title>
<polygon fill="white" stroke="none" points="-4,4 -4,-798 1362,-798 1362,4 -4,4"/>
<!-- Node1 -->
<g id="node1" class="node"><title>Node1</title>
<polygon fill="#bfbfbf" stroke="black" points="0,-289.5 0,-308.5 144,-308.5 144,-289.5 0,-289.5"/>
<text text-anchor="middle" x="72" y="-296.5" font-family="Helvetica,sans-Serif" font-size="10.00">FrontEnd.Controller.update</text>
</g>
<!-- Node2 -->
<g id="node2" class="node"><title>Node2</title>
<g id="a_node2"><a xlink:href="../../dd/d2e/class_front_end_1_1_controller.html#a41885f349a8f334750e26d685a8981d2" target="_top" xlink:title="FrontEnd.Controller.execute\lCommand">
<polygon fill="white" stroke="black" points="180.5,-262 180.5,-292 329.5,-292 329.5,-262 180.5,-262"/>
<text text-anchor="start" x="188.5" y="-280" font-family="Helvetica,sans-Serif" font-size="10.00">FrontEnd.Controller.execute</text>
<text text-anchor="middle" x="255" y="-269" font-family="Helvetica,sans-Serif" font-size="10.00">Command</text>
</a>
</g>
</g>
<!-- Node1&#45;&gt;Node2 -->
<g id="edge1" class="edge"><title>Node1&#45;&gt;Node2</title>
<path fill="none" stroke="midnightblue" d="M144.016,-290.368C152.559,-289.33 161.344,-288.262 170.048,-287.204"/>
<polygon fill="midnightblue" stroke="midnightblue" points="170.704,-290.65 180.209,-285.969 169.86,-283.701 170.704,-290.65"/>
</g>
<!-- Node10 -->
<g id="node10" class="node"><title>Node10</title>
<g id="a_node10"><a xlink:href="../../d4/d8a/class_turtle_view_1_1_turtle_window.html#a0b2d9c9953cd10acd2ee6fb793bb7a9a" target="_top" xlink:title="TurtleView.TurtleWindow.get\lActiveTurtles">
<polygon fill="white" stroke="black" points="565.5,-306 565.5,-336 710.5,-336 710.5,-306 565.5,-306"/>
<text text-anchor="start" x="573.5" y="-324" font-family="Helvetica,sans-Serif" font-size="10.00">TurtleView.TurtleWindow.get</text>
<text text-anchor="middle" x="638" y="-313" font-family="Helvetica,sans-Serif" font-size="10.00">ActiveTurtles</text>
</a>
</g>
</g>
<!-- Node1&#45;&gt;Node10 -->
<g id="edge44" class="edge"><title>Node1&#45;&gt;Node10</title>
<path fill="none" stroke="midnightblue" d="M144.145,-301.775C248.963,-305.864 444.397,-313.487 555.067,-317.804"/>
<polygon fill="midnightblue" stroke="midnightblue" points="555.049,-321.306 565.178,-318.198 555.322,-314.311 555.049,-321.306"/>
</g>
<!-- Node3 -->
<g id="node3" class="node"><title>Node3</title>
<g id="a_node3"><a xlink:href="../../df/dec/class_front_end_1_1_view.html#a6b0235dbcef17df58c19a639464103b6" target="_top" xlink:title="FrontEnd.View.getCurrent\lLanguage">
<polygon fill="white" stroke="black" points="373.5,-184 373.5,-214 510.5,-214 510.5,-184 373.5,-184"/>
<text text-anchor="start" x="381.5" y="-202" font-family="Helvetica,sans-Serif" font-size="10.00">FrontEnd.View.getCurrent</text>
<text text-anchor="middle" x="442" y="-191" font-family="Helvetica,sans-Serif" font-size="10.00">Language</text>
</a>
</g>
</g>
<!-- Node2&#45;&gt;Node3 -->
<g id="edge2" class="edge"><title>Node2&#45;&gt;Node3</title>
<path fill="none" stroke="midnightblue" d="M286.498,-261.974C308.399,-251.403 338.741,-237.2 366,-226 372.864,-223.18 380.144,-220.356 387.363,-217.655"/>
<polygon fill="midnightblue" stroke="midnightblue" points="388.953,-220.799 397.126,-214.058 386.533,-214.231 388.953,-220.799"/>
</g>
<!-- Node5 -->
<g id="node5" class="node"><title>Node5</title>
<g id="a_node5"><a xlink:href="../../dd/d2e/class_front_end_1_1_controller.html#a0ad45a00bc5c4475d3b1c6a4dbf74a91" target="_top" xlink:title="FrontEnd.Controller.interpret">
<polygon fill="white" stroke="black" points="366,-510.5 366,-529.5 518,-529.5 518,-510.5 366,-510.5"/>
<text text-anchor="middle" x="442" y="-517.5" font-family="Helvetica,sans-Serif" font-size="10.00">FrontEnd.Controller.interpret</text>
</a>
</g>
</g>
<!-- Node2&#45;&gt;Node5 -->
<g id="edge4" class="edge"><title>Node2&#45;&gt;Node5</title>
<path fill="none" stroke="midnightblue" d="M267.573,-292.201C300.203,-335.061 392.826,-456.723 427.593,-502.39"/>
<polygon fill="midnightblue" stroke="midnightblue" points="424.898,-504.628 433.741,-510.465 430.468,-500.388 424.898,-504.628"/>
</g>
<!-- Node26 -->
<g id="node26" class="node"><title>Node26</title>
<g id="a_node26"><a xlink:href="../../da/d3c/class_backend_1_1_model.html#a972866b8540ea6b615e3c80b0ad1f9c6" target="_top" xlink:title="Backend.Model.parse">
<polygon fill="white" stroke="black" points="382.5,-235.5 382.5,-254.5 501.5,-254.5 501.5,-235.5 382.5,-235.5"/>
<text text-anchor="middle" x="442" y="-242.5" font-family="Helvetica,sans-Serif" font-size="10.00">Backend.Model.parse</text>
</a>
</g>
</g>
<!-- Node2&#45;&gt;Node26 -->
<g id="edge26" class="edge"><title>Node2&#45;&gt;Node26</title>
<path fill="none" stroke="midnightblue" d="M329.648,-264.261C344.876,-261.627 360.816,-258.87 375.72,-256.292"/>
<polygon fill="midnightblue" stroke="midnightblue" points="376.595,-259.692 385.852,-254.539 375.402,-252.795 376.595,-259.692"/>
</g>
<!-- Node43 -->
<g id="node43" class="node"><title>Node43</title>
<g id="a_node43"><a xlink:href="../../df/dec/class_front_end_1_1_view.html#ae59731d3a1fe87080d0bae87d22318e4" target="_top" xlink:title="FrontEnd.View.updateFocus">
<polygon fill="white" stroke="black" points="368.5,-273.5 368.5,-292.5 515.5,-292.5 515.5,-273.5 368.5,-273.5"/>
<text text-anchor="middle" x="442" y="-280.5" font-family="Helvetica,sans-Serif" font-size="10.00">FrontEnd.View.updateFocus</text>
</a>
</g>
</g>
<!-- Node2&#45;&gt;Node43 -->
<g id="edge43" class="edge"><title>Node2&#45;&gt;Node43</title>
<path fill="none" stroke="midnightblue" d="M329.648,-279.389C338.972,-279.691 348.563,-280.002 358.019,-280.309"/>
<polygon fill="midnightblue" stroke="midnightblue" points="358.101,-283.813 368.209,-280.639 358.328,-276.817 358.101,-283.813"/>
</g>
<!-- Node4 -->
<g id="node4" class="node"><title>Node4</title>
<g id="a_node4"><a xlink:href="../../d2/d5e/class_front_end_1_1_language_selector.html#a0983f98727268c16f03d4448d618a13e" target="_top" xlink:title="FrontEnd.LanguageSelector.get\lComboBox">
<polygon fill="white" stroke="black" points="554.5,-181 554.5,-211 721.5,-211 721.5,-181 554.5,-181"/>
<text text-anchor="start" x="562.5" y="-199" font-family="Helvetica,sans-Serif" font-size="10.00">FrontEnd.LanguageSelector.get</text>
<text text-anchor="middle" x="638" y="-188" font-family="Helvetica,sans-Serif" font-size="10.00">ComboBox</text>
</a>
</g>
</g>
<!-- Node3&#45;&gt;Node4 -->
<g id="edge3" class="edge"><title>Node3&#45;&gt;Node4</title>
<path fill="none" stroke="midnightblue" d="M510.579,-197.955C521.38,-197.788 532.717,-197.613 543.983,-197.438"/>
<polygon fill="midnightblue" stroke="midnightblue" points="544.347,-200.933 554.292,-197.279 544.239,-193.934 544.347,-200.933"/>
</g>
<!-- Node6 -->
<g id="node6" class="node"><title>Node6</title>
<g id="a_node6"><a xlink:href="../../df/dec/class_front_end_1_1_view.html#aa6d2d76b51cd95e66064fb2ccad96fc8" target="_top" xlink:title="FrontEnd.View.addConsole\lEntries">
<polygon fill="white" stroke="black" points="567,-404 567,-434 709,-434 709,-404 567,-404"/>
<text text-anchor="start" x="575" y="-422" font-family="Helvetica,sans-Serif" font-size="10.00">FrontEnd.View.addConsole</text>
<text text-anchor="middle" x="638" y="-411" font-family="Helvetica,sans-Serif" font-size="10.00">Entries</text>
</a>
</g>
</g>
<!-- Node5&#45;&gt;Node6 -->
<g id="edge5" class="edge"><title>Node5&#45;&gt;Node6</title>
<path fill="none" stroke="midnightblue" d="M454.57,-510.268C473.976,-494.377 514.818,-462.757 554,-444 558.836,-441.685 563.933,-439.53 569.125,-437.536"/>
<polygon fill="midnightblue" stroke="midnightblue" points="570.332,-440.821 578.538,-434.119 567.944,-434.241 570.332,-440.821"/>
</g>
<!-- Node7 -->
<g id="node7" class="node"><title>Node7</title>
<g id="a_node7"><a xlink:href="../../df/dec/class_front_end_1_1_view.html#a0dc533900f63d1fda3d421c4252b497d" target="_top" xlink:title="FrontEnd.View.addHistory\lEntry">
<polygon fill="white" stroke="black" points="569.5,-355 569.5,-385 706.5,-385 706.5,-355 569.5,-355"/>
<text text-anchor="start" x="577.5" y="-373" font-family="Helvetica,sans-Serif" font-size="10.00">FrontEnd.View.addHistory</text>
<text text-anchor="middle" x="638" y="-362" font-family="Helvetica,sans-Serif" font-size="10.00">Entry</text>
</a>
</g>
</g>
<!-- Node5&#45;&gt;Node7 -->
<g id="edge6" class="edge"><title>Node5&#45;&gt;Node7</title>
<path fill="none" stroke="midnightblue" d="M448.919,-510.224C463.647,-486.736 504.354,-426.724 554,-395 557.166,-392.977 560.505,-391.11 563.951,-389.389"/>
<polygon fill="midnightblue" stroke="midnightblue" points="565.616,-392.478 573.283,-385.166 562.73,-386.1 565.616,-392.478"/>
</g>
<!-- Node5&#45;&gt;Node10 -->
<g id="edge9" class="edge"><title>Node5&#45;&gt;Node10</title>
<path fill="none" stroke="midnightblue" d="M446.342,-510.409C457.054,-481.084 493.424,-391.836 554,-346 556.5,-344.109 559.142,-342.36 561.887,-340.742"/>
<polygon fill="midnightblue" stroke="midnightblue" points="563.708,-343.74 570.956,-336.012 560.471,-337.533 563.708,-343.74"/>
</g>
<!-- Node11 -->
<g id="node11" class="node"><title>Node11</title>
<g id="a_node11"><a xlink:href="../../d9/dae/class_backend_1_1_scene_updater.html#a86172bf527ba1b205d3392ce57c54530" target="_top" xlink:title="Backend.SceneUpdater.get\lErrorMessage">
<polygon fill="white" stroke="black" points="564,-764 564,-794 712,-794 712,-764 564,-764"/>
<text text-anchor="start" x="572" y="-782" font-family="Helvetica,sans-Serif" font-size="10.00">Backend.SceneUpdater.get</text>
<text text-anchor="middle" x="638" y="-771" font-family="Helvetica,sans-Serif" font-size="10.00">ErrorMessage</text>
</a>
</g>
</g>
<!-- Node5&#45;&gt;Node11 -->
<g id="edge10" class="edge"><title>Node5&#45;&gt;Node11</title>
<path fill="none" stroke="midnightblue" d="M444.698,-529.712C451.443,-565.34 479.678,-690.09 554,-754 555.947,-755.674 558.003,-757.236 560.145,-758.694"/>
<polygon fill="midnightblue" stroke="midnightblue" points="558.397,-761.726 568.785,-763.813 561.965,-755.704 558.397,-761.726"/>
</g>
<!-- Node12 -->
<g id="node12" class="node"><title>Node12</title>
<g id="a_node12"><a xlink:href="../../d9/dae/class_backend_1_1_scene_updater.html#afe241e467e3eb888257114a8f03efee2" target="_top" xlink:title="Backend.SceneUpdater.get\lReturnValues">
<polygon fill="white" stroke="black" points="564,-715 564,-745 712,-745 712,-715 564,-715"/>
<text text-anchor="start" x="572" y="-733" font-family="Helvetica,sans-Serif" font-size="10.00">Backend.SceneUpdater.get</text>
<text text-anchor="middle" x="638" y="-722" font-family="Helvetica,sans-Serif" font-size="10.00">ReturnValues</text>
</a>
</g>
</g>
<!-- Node5&#45;&gt;Node12 -->
<g id="edge11" class="edge"><title>Node5&#45;&gt;Node12</title>
<path fill="none" stroke="midnightblue" d="M446.015,-529.757C456.009,-560.465 491.046,-655.993 554,-705 556.338,-706.82 558.807,-708.508 561.374,-710.073"/>
<polygon fill="midnightblue" stroke="midnightblue" points="559.96,-713.287 570.425,-714.937 563.273,-707.121 559.96,-713.287"/>
</g>
<!-- Node13 -->
<g id="node13" class="node"><title>Node13</title>
<g id="a_node13"><a xlink:href="../../d9/dae/class_backend_1_1_scene_updater.html#a069e3ab4f9b7da6cc1cf0239082cac28" target="_top" xlink:title="Backend.SceneUpdater.get\lTurtles">
<polygon fill="white" stroke="black" points="564,-666 564,-696 712,-696 712,-666 564,-666"/>
<text text-anchor="start" x="572" y="-684" font-family="Helvetica,sans-Serif" font-size="10.00">Backend.SceneUpdater.get</text>
<text text-anchor="middle" x="638" y="-673" font-family="Helvetica,sans-Serif" font-size="10.00">Turtles</text>
</a>
</g>
</g>
<!-- Node5&#45;&gt;Node13 -->
<g id="edge12" class="edge"><title>Node5&#45;&gt;Node13</title>
<path fill="none" stroke="midnightblue" d="M448.076,-529.543C461.739,-554.304 501.811,-621.101 554,-656 557.057,-658.044 560.287,-659.926 563.629,-661.658"/>
<polygon fill="midnightblue" stroke="midnightblue" points="562.153,-664.831 572.693,-665.9 565.12,-658.491 562.153,-664.831"/>
</g>
<!-- Node14 -->
<g id="node14" class="node"><title>Node14</title>
<g id="a_node14"><a xlink:href="../../d9/dae/class_backend_1_1_scene_updater.html#a23e294ce4ed4c8ef9ba9acdb68f37646" target="_top" xlink:title="Backend.SceneUpdater.get\lVariables">
<polygon fill="white" stroke="black" points="564,-617 564,-647 712,-647 712,-617 564,-617"/>
<text text-anchor="start" x="572" y="-635" font-family="Helvetica,sans-Serif" font-size="10.00">Backend.SceneUpdater.get</text>
<text text-anchor="middle" x="638" y="-624" font-family="Helvetica,sans-Serif" font-size="10.00">Variables</text>
</a>
</g>
</g>
<!-- Node5&#45;&gt;Node14 -->
<g id="edge13" class="edge"><title>Node5&#45;&gt;Node14</title>
<path fill="none" stroke="midnightblue" d="M452.52,-529.534C470.699,-547.236 512.273,-585.347 554,-607 558.283,-609.222 562.795,-611.28 567.411,-613.18"/>
<polygon fill="midnightblue" stroke="midnightblue" points="566.404,-616.542 576.994,-616.859 568.913,-610.008 566.404,-616.542"/>
</g>
<!-- Node15 -->
<g id="node15" class="node"><title>Node15</title>
<g id="a_node15"><a xlink:href="../../d9/dae/class_backend_1_1_scene_updater.html#abff174da75dc70f3cca083770de43afe" target="_top" xlink:title="Backend.SceneUpdater.isNo\lError">
<polygon fill="white" stroke="black" points="561.5,-568 561.5,-598 714.5,-598 714.5,-568 561.5,-568"/>
<text text-anchor="start" x="569.5" y="-586" font-family="Helvetica,sans-Serif" font-size="10.00">Backend.SceneUpdater.isNo</text>
<text text-anchor="middle" x="638" y="-575" font-family="Helvetica,sans-Serif" font-size="10.00">Error</text>
</a>
</g>
</g>
<!-- Node5&#45;&gt;Node15 -->
<g id="edge14" class="edge"><title>Node5&#45;&gt;Node15</title>
<path fill="none" stroke="midnightblue" d="M470.275,-529.655C492.687,-537.511 525.302,-548.769 554,-558 561.172,-560.307 568.713,-562.668 576.205,-564.973"/>
<polygon fill="midnightblue" stroke="midnightblue" points="575.403,-568.388 585.989,-567.962 577.448,-561.693 575.403,-568.388"/>
</g>
<!-- Node16 -->
<g id="node16" class="node"><title>Node16</title>
<g id="a_node16"><a xlink:href="../../df/dec/class_front_end_1_1_view.html#aba848cd44a4726c74dc85535f0c5722d" target="_top" xlink:title="FrontEnd.View.makeErrorDialog">
<polygon fill="white" stroke="black" points="555,-529.5 555,-548.5 721,-548.5 721,-529.5 555,-529.5"/>
<text text-anchor="middle" x="638" y="-536.5" font-family="Helvetica,sans-Serif" font-size="10.00">FrontEnd.View.makeErrorDialog</text>
</a>
</g>
</g>
<!-- Node5&#45;&gt;Node16 -->
<g id="edge15" class="edge"><title>Node5&#45;&gt;Node16</title>
<path fill="none" stroke="midnightblue" d="M518.005,-527.346C526.759,-528.203 535.766,-529.085 544.718,-529.962"/>
<polygon fill="midnightblue" stroke="midnightblue" points="544.493,-533.457 554.787,-530.948 545.176,-526.49 544.493,-533.457"/>
</g>
<!-- Node17 -->
<g id="node17" class="node"><title>Node17</title>
<g id="a_node17"><a xlink:href="../../d4/d8a/class_turtle_view_1_1_turtle_window.html#afe0302fc0fbc1e5797b56a03c1ec84a4" target="_top" xlink:title="TurtleView.TurtleWindow.update">
<polygon fill="white" stroke="black" points="556.5,-491.5 556.5,-510.5 719.5,-510.5 719.5,-491.5 556.5,-491.5"/>
<text text-anchor="middle" x="638" y="-498.5" font-family="Helvetica,sans-Serif" font-size="10.00">TurtleView.TurtleWindow.update</text>
</a>
</g>
</g>
<!-- Node5&#45;&gt;Node17 -->
<g id="edge16" class="edge"><title>Node5&#45;&gt;Node17</title>
<path fill="none" stroke="midnightblue" d="M518.005,-512.654C527.245,-511.749 536.766,-510.817 546.208,-509.892"/>
<polygon fill="midnightblue" stroke="midnightblue" points="546.794,-513.351 556.405,-508.893 546.112,-506.385 546.794,-513.351"/>
</g>
<!-- Node18 -->
<g id="node18" class="node"><title>Node18</title>
<g id="a_node18"><a xlink:href="../../df/dec/class_front_end_1_1_view.html#afa6c660ce1c2e6493f471b5344638d5b" target="_top" xlink:title="FrontEnd.View.updateTurtleInfo">
<polygon fill="white" stroke="black" points="557,-453.5 557,-472.5 719,-472.5 719,-453.5 557,-453.5"/>
<text text-anchor="middle" x="638" y="-460.5" font-family="Helvetica,sans-Serif" font-size="10.00">FrontEnd.View.updateTurtleInfo</text>
</a>
</g>
</g>
<!-- Node5&#45;&gt;Node18 -->
<g id="edge17" class="edge"><title>Node5&#45;&gt;Node18</title>
<path fill="none" stroke="midnightblue" d="M468.331,-510.48C490.675,-502.286 524.223,-490.48 554,-482 562.875,-479.473 572.356,-477.048 581.621,-474.827"/>
<polygon fill="midnightblue" stroke="midnightblue" points="582.612,-478.189 591.55,-472.5 581.016,-471.374 582.612,-478.189"/>
</g>
<!-- Node8 -->
<g id="node8" class="node"><title>Node8</title>
<g id="a_node8"><a xlink:href="../../d4/d1b/class_front_end_1_1_history_box.html#a64947a52c0dbe236075698aab3d181dc" target="_top" xlink:title="FrontEnd.HistoryBox.addEntry">
<polygon fill="white" stroke="black" points="770.5,-360.5 770.5,-379.5 929.5,-379.5 929.5,-360.5 770.5,-360.5"/>
<text text-anchor="middle" x="850" y="-367.5" font-family="Helvetica,sans-Serif" font-size="10.00">FrontEnd.HistoryBox.addEntry</text>
</a>
</g>
</g>
<!-- Node7&#45;&gt;Node8 -->
<g id="edge7" class="edge"><title>Node7&#45;&gt;Node8</title>
<path fill="none" stroke="midnightblue" d="M706.601,-370C723.54,-370 741.973,-370 759.785,-370"/>
<polygon fill="midnightblue" stroke="midnightblue" points="760.185,-373.5 770.185,-370 760.185,-366.5 760.185,-373.5"/>
</g>
<!-- Node9 -->
<g id="node9" class="node"><title>Node9</title>
<g id="a_node9"><a xlink:href="../../de/d8a/class_front_end_1_1_user_commands.html#af04d6a5776faf7e2e99bdae3100a6add" target="_top" xlink:title="FrontEnd.UserCommands.add\lCommand">
<polygon fill="white" stroke="black" points="996.5,-355 996.5,-385 1157.5,-385 1157.5,-355 996.5,-355"/>
<text text-anchor="start" x="1004.5" y="-373" font-family="Helvetica,sans-Serif" font-size="10.00">FrontEnd.UserCommands.add</text>
<text text-anchor="middle" x="1077" y="-362" font-family="Helvetica,sans-Serif" font-size="10.00">Command</text>
</a>
</g>
</g>
<!-- Node8&#45;&gt;Node9 -->
<g id="edge8" class="edge"><title>Node8&#45;&gt;Node9</title>
<path fill="none" stroke="midnightblue" d="M929.694,-370C947.871,-370 967.347,-370 985.966,-370"/>
<polygon fill="midnightblue" stroke="midnightblue" points="986.208,-373.5 996.208,-370 986.208,-366.5 986.208,-373.5"/>
</g>
<!-- Node19 -->
<g id="node19" class="node"><title>Node19</title>
<g id="a_node19"><a xlink:href="../../d9/d38/class_turtle_view_1_1_turtle_information.html#ad65201793ce738f9c6d6e592271c14e1" target="_top" xlink:title="TurtleView.TurtleInformation.update">
<polygon fill="white" stroke="black" points="758.5,-466.5 758.5,-485.5 941.5,-485.5 941.5,-466.5 758.5,-466.5"/>
<text text-anchor="middle" x="850" y="-473.5" font-family="Helvetica,sans-Serif" font-size="10.00">TurtleView.TurtleInformation.update</text>
</a>
</g>
</g>
<!-- Node18&#45;&gt;Node19 -->
<g id="edge18" class="edge"><title>Node18&#45;&gt;Node19</title>
<path fill="none" stroke="midnightblue" d="M719.291,-467.97C728.744,-468.556 738.48,-469.158 748.169,-469.758"/>
<polygon fill="midnightblue" stroke="midnightblue" points="748.038,-473.257 758.235,-470.381 748.47,-466.27 748.038,-473.257"/>
</g>
<!-- Node20 -->
<g id="node20" class="node"><title>Node20</title>
<g id="a_node20"><a xlink:href="../../d9/d38/class_turtle_view_1_1_turtle_information.html#aca65258778dade3baa31e0d5ec643b3b" target="_top" xlink:title="TurtleView.TurtleInformation.emptyInfo">
<polygon fill="white" stroke="black" points="978.5,-518.5 978.5,-537.5 1175.5,-537.5 1175.5,-518.5 978.5,-518.5"/>
<text text-anchor="middle" x="1077" y="-525.5" font-family="Helvetica,sans-Serif" font-size="10.00">TurtleView.TurtleInformation.emptyInfo</text>
</a>
</g>
</g>
<!-- Node19&#45;&gt;Node20 -->
<g id="edge19" class="edge"><title>Node19&#45;&gt;Node20</title>
<path fill="none" stroke="midnightblue" d="M885.355,-485.55C910.827,-492.479 946.451,-501.85 978,-509 989.554,-511.618 1001.93,-514.193 1013.85,-516.561"/>
<polygon fill="midnightblue" stroke="midnightblue" points="1013.26,-520.01 1023.74,-518.498 1014.6,-513.141 1013.26,-520.01"/>
</g>
<!-- Node21 -->
<g id="node21" class="node"><title>Node21</title>
<g id="a_node21"><a xlink:href="../../d1/de0/class_backend_1_1_turtle.html#adc7cb6cc95ee918547d2b18d8bb20183" target="_top" xlink:title="Backend.Turtle.getID">
<polygon fill="white" stroke="black" points="1019.5,-480.5 1019.5,-499.5 1134.5,-499.5 1134.5,-480.5 1019.5,-480.5"/>
<text text-anchor="middle" x="1077" y="-487.5" font-family="Helvetica,sans-Serif" font-size="10.00">Backend.Turtle.getID</text>
</a>
</g>
</g>
<!-- Node19&#45;&gt;Node21 -->
<g id="edge20" class="edge"><title>Node19&#45;&gt;Node21</title>
<path fill="none" stroke="midnightblue" d="M941.544,-481.634C964.106,-483.038 987.894,-484.518 1009.08,-485.836"/>
<polygon fill="midnightblue" stroke="midnightblue" points="1009.06,-489.342 1019.26,-486.47 1009.5,-482.355 1009.06,-489.342"/>
</g>
<!-- Node22 -->
<g id="node22" class="node"><title>Node22</title>
<g id="a_node22"><a xlink:href="../../d9/d38/class_turtle_view_1_1_turtle_information.html#a15bd13ad05cabb76c0861d0ab42722ef" target="_top" xlink:title="TurtleView.TurtleInformation.truncate">
<polygon fill="white" stroke="black" points="982,-442.5 982,-461.5 1172,-461.5 1172,-442.5 982,-442.5"/>
<text text-anchor="middle" x="1077" y="-449.5" font-family="Helvetica,sans-Serif" font-size="10.00">TurtleView.TurtleInformation.truncate</text>
</a>
</g>
</g>
<!-- Node19&#45;&gt;Node22 -->
<g id="edge21" class="edge"><title>Node19&#45;&gt;Node22</title>
<path fill="none" stroke="midnightblue" d="M940.249,-466.48C952.231,-465.202 964.58,-463.885 976.722,-462.59"/>
<polygon fill="midnightblue" stroke="midnightblue" points="977.286,-466.049 986.859,-461.508 976.544,-459.089 977.286,-466.049"/>
</g>
<!-- Node23 -->
<g id="node23" class="node"><title>Node23</title>
<g id="a_node23"><a xlink:href="../../d1/de0/class_backend_1_1_turtle.html#a715f94909b1ba74dc9e4f9eb4fd91e10" target="_top" xlink:title="Backend.Turtle.getXCord">
<polygon fill="white" stroke="black" points="1010.5,-556.5 1010.5,-575.5 1143.5,-575.5 1143.5,-556.5 1010.5,-556.5"/>
<text text-anchor="middle" x="1077" y="-563.5" font-family="Helvetica,sans-Serif" font-size="10.00">Backend.Turtle.getXCord</text>
</a>
</g>
</g>
<!-- Node19&#45;&gt;Node23 -->
<g id="edge22" class="edge"><title>Node19&#45;&gt;Node23</title>
<path fill="none" stroke="midnightblue" d="M864.76,-485.65C887.332,-501.018 934.112,-530.948 978,-547 985.464,-549.73 993.398,-552.091 1001.39,-554.129"/>
<polygon fill="midnightblue" stroke="midnightblue" points="1000.61,-557.54 1011.15,-556.456 1002.24,-550.731 1000.61,-557.54"/>
</g>
<!-- Node25 -->
<g id="node25" class="node"><title>Node25</title>
<g id="a_node25"><a xlink:href="../../d1/de0/class_backend_1_1_turtle.html#a692174eccea232fc58e725cff6f50359" target="_top" xlink:title="Backend.Turtle.getYCord">
<polygon fill="white" stroke="black" points="1011,-404.5 1011,-423.5 1143,-423.5 1143,-404.5 1011,-404.5"/>
<text text-anchor="middle" x="1077" y="-411.5" font-family="Helvetica,sans-Serif" font-size="10.00">Backend.Turtle.getYCord</text>
</a>
</g>
</g>
<!-- Node19&#45;&gt;Node25 -->
<g id="edge24" class="edge"><title>Node19&#45;&gt;Node25</title>
<path fill="none" stroke="midnightblue" d="M875.995,-466.419C901.388,-456.951 941.997,-442.538 978,-433 988.325,-430.265 999.359,-427.745 1010.16,-425.496"/>
<polygon fill="midnightblue" stroke="midnightblue" points="1010.88,-428.921 1019.99,-423.508 1009.5,-422.06 1010.88,-428.921"/>
</g>
<!-- Node24 -->
<g id="node24" class="node"><title>Node24</title>
<g id="a_node24"><a xlink:href="../../d1/de0/class_backend_1_1_turtle.html#a33957258db9a7205d470c5a2d22b89af" target="_top" xlink:title="Backend.Turtle.getLocation">
<polygon fill="white" stroke="black" points="1212,-480.5 1212,-499.5 1358,-499.5 1358,-480.5 1212,-480.5"/>
<text text-anchor="middle" x="1285" y="-487.5" font-family="Helvetica,sans-Serif" font-size="10.00">Backend.Turtle.getLocation</text>
</a>
</g>
</g>
<!-- Node23&#45;&gt;Node24 -->
<g id="edge23" class="edge"><title>Node23&#45;&gt;Node24</title>
<path fill="none" stroke="midnightblue" d="M1141.73,-556.472C1153.29,-553.949 1165.13,-550.828 1176,-547 1206.66,-536.204 1239.33,-517.896 1260.61,-504.945"/>
<polygon fill="midnightblue" stroke="midnightblue" points="1262.6,-507.828 1269.26,-499.589 1258.92,-501.876 1262.6,-507.828"/>
</g>
<!-- Node25&#45;&gt;Node24 -->
<g id="edge25" class="edge"><title>Node25&#45;&gt;Node24</title>
<path fill="none" stroke="midnightblue" d="M1141.73,-423.528C1153.29,-426.051 1165.13,-429.172 1176,-433 1206.66,-443.796 1239.33,-462.104 1260.61,-475.055"/>
<polygon fill="midnightblue" stroke="midnightblue" points="1258.92,-478.124 1269.26,-480.411 1262.6,-472.172 1258.92,-478.124"/>
</g>
<!-- Node27 -->
<g id="node27" class="node"><title>Node27</title>
<g id="a_node27"><a xlink:href="../../da/d3c/class_backend_1_1_model.html#a3b4294a767985d6585d71cfe0293fba2" target="_top" xlink:title="Backend.Model.makeTreeand\lAddValues">
<polygon fill="white" stroke="black" points="559.5,-230 559.5,-260 716.5,-260 716.5,-230 559.5,-230"/>
<text text-anchor="start" x="567.5" y="-248" font-family="Helvetica,sans-Serif" font-size="10.00">Backend.Model.makeTreeand</text>
<text text-anchor="middle" x="638" y="-237" font-family="Helvetica,sans-Serif" font-size="10.00">AddValues</text>
</a>
</g>
</g>
<!-- Node26&#45;&gt;Node27 -->
<g id="edge27" class="edge"><title>Node26&#45;&gt;Node27</title>
<path fill="none" stroke="midnightblue" d="M501.733,-245C516.787,-245 533.305,-245 549.469,-245"/>
<polygon fill="midnightblue" stroke="midnightblue" points="549.471,-248.5 559.471,-245 549.471,-241.5 549.471,-248.5"/>
</g>
<!-- Node28 -->
<g id="node28" class="node"><title>Node28</title>
<g id="a_node28"><a xlink:href="../../da/de9/class_backend_1_1_parser.html#afd0ff53630ea682c6fd3e0144f413000" target="_top" xlink:title="Backend.Parser.getMap">
<polygon fill="white" stroke="black" points="785.5,-95.5 785.5,-114.5 914.5,-114.5 914.5,-95.5 785.5,-95.5"/>
<text text-anchor="middle" x="850" y="-102.5" font-family="Helvetica,sans-Serif" font-size="10.00">Backend.Parser.getMap</text>
</a>
</g>
</g>
<!-- Node27&#45;&gt;Node28 -->
<g id="edge28" class="edge"><title>Node27&#45;&gt;Node28</title>
<path fill="none" stroke="midnightblue" d="M707.973,-229.99C713.06,-227.206 717.825,-223.908 722,-220 755.27,-188.863 723.411,-153.666 758,-124 763.268,-119.482 769.333,-115.946 775.78,-113.189"/>
<polygon fill="midnightblue" stroke="midnightblue" points="777.241,-116.382 785.449,-109.684 774.855,-109.801 777.241,-116.382"/>
</g>
<!-- Node29 -->
<g id="node29" class="node"><title>Node29</title>
<g id="a_node29"><a xlink:href="../../da/de9/class_backend_1_1_parser.html#acb55abf150a283af483433e9296e0a76" target="_top" xlink:title="Backend.Parser.getNoError">
<polygon fill="white" stroke="black" points="777,-322.5 777,-341.5 923,-341.5 923,-322.5 777,-322.5"/>
<text text-anchor="middle" x="850" y="-329.5" font-family="Helvetica,sans-Serif" font-size="10.00">Backend.Parser.getNoError</text>
</a>
</g>
</g>
<!-- Node27&#45;&gt;Node29 -->
<g id="edge29" class="edge"><title>Node27&#45;&gt;Node29</title>
<path fill="none" stroke="midnightblue" d="M661.266,-260.209C684.464,-275.399 722.337,-298.39 758,-312 765.929,-315.026 774.431,-317.652 782.937,-319.914"/>
<polygon fill="midnightblue" stroke="midnightblue" points="782.34,-323.373 792.891,-322.406 784.04,-316.582 782.34,-323.373"/>
</g>
<!-- Node30 -->
<g id="node30" class="node"><title>Node30</title>
<g id="a_node30"><a xlink:href="../../da/de9/class_backend_1_1_parser.html#a1de7bf91dcf43ce4bc3db66df4074c30" target="_top" xlink:title="Backend.Parser.getQueueOf\lNodes">
<polygon fill="white" stroke="black" points="774.5,-273 774.5,-303 925.5,-303 925.5,-273 774.5,-273"/>
<text text-anchor="start" x="782.5" y="-291" font-family="Helvetica,sans-Serif" font-size="10.00">Backend.Parser.getQueueOf</text>
<text text-anchor="middle" x="850" y="-280" font-family="Helvetica,sans-Serif" font-size="10.00">Nodes</text>
</a>
</g>
</g>
<!-- Node27&#45;&gt;Node30 -->
<g id="edge30" class="edge"><title>Node27&#45;&gt;Node30</title>
<path fill="none" stroke="midnightblue" d="M712.448,-260.039C729.553,-263.542 747.889,-267.296 765.397,-270.881"/>
<polygon fill="midnightblue" stroke="midnightblue" points="765.095,-274.392 775.594,-272.969 766.499,-267.534 765.095,-274.392"/>
</g>
<!-- Node32 -->
<g id="node32" class="node"><title>Node32</title>
<g id="a_node32"><a xlink:href="../../da/de9/class_backend_1_1_parser.html#a3fc5e64b991a86b2efc668961650202e" target="_top" xlink:title="Backend.Parser.newInfo">
<polygon fill="white" stroke="black" points="785.5,-234.5 785.5,-253.5 914.5,-253.5 914.5,-234.5 785.5,-234.5"/>
<text text-anchor="middle" x="850" y="-241.5" font-family="Helvetica,sans-Serif" font-size="10.00">Backend.Parser.newInfo</text>
</a>
</g>
</g>
<!-- Node27&#45;&gt;Node32 -->
<g id="edge32" class="edge"><title>Node27&#45;&gt;Node32</title>
<path fill="none" stroke="midnightblue" d="M716.6,-244.63C735.813,-244.539 756.343,-244.441 775.361,-244.351"/>
<polygon fill="midnightblue" stroke="midnightblue" points="775.469,-247.85 785.452,-244.303 775.436,-240.85 775.469,-247.85"/>
</g>
<!-- Node35 -->
<g id="node35" class="node"><title>Node35</title>
<g id="a_node35"><a xlink:href="../../db/d5d/class_backend_1_1_a_s_t.html#a1570c419383f1993e4b7df53d536035e" target="_top" xlink:title="Backend.AST.populateTree">
<polygon fill="white" stroke="black" points="778.5,-133.5 778.5,-152.5 921.5,-152.5 921.5,-133.5 778.5,-133.5"/>
<text text-anchor="middle" x="850" y="-140.5" font-family="Helvetica,sans-Serif" font-size="10.00">Backend.AST.populateTree</text>
</a>
</g>
</g>
<!-- Node27&#45;&gt;Node35 -->
<g id="edge35" class="edge"><title>Node27&#45;&gt;Node35</title>
<path fill="none" stroke="midnightblue" d="M695.953,-229.933C704.809,-226.996 713.751,-223.672 722,-220 761.022,-202.63 802.721,-175.498 827.293,-158.511"/>
<polygon fill="midnightblue" stroke="midnightblue" points="829.344,-161.347 835.534,-152.748 825.333,-155.61 829.344,-161.347"/>
</g>
<!-- Node31 -->
<g id="node31" class="node"><title>Node31</title>
<g id="a_node31"><a xlink:href="../../da/de9/class_backend_1_1_parser.html#a249b99650270f42aabd1aad4d2352606" target="_top" xlink:title="Backend.Parser.getNextString">
<polygon fill="white" stroke="black" points="997,-316.5 997,-335.5 1157,-335.5 1157,-316.5 997,-316.5"/>
<text text-anchor="middle" x="1077" y="-323.5" font-family="Helvetica,sans-Serif" font-size="10.00">Backend.Parser.getNextString</text>
</a>
</g>
</g>
<!-- Node30&#45;&gt;Node31 -->
<g id="edge31" class="edge"><title>Node30&#45;&gt;Node31</title>
<path fill="none" stroke="midnightblue" d="M925.609,-300.601C952.719,-305.179 983.152,-310.319 1009.51,-314.771"/>
<polygon fill="midnightblue" stroke="midnightblue" points="1008.96,-318.227 1019.4,-316.441 1010.12,-311.325 1008.96,-318.227"/>
</g>
<!-- Node33 -->
<g id="node33" class="node"><title>Node33</title>
<g id="a_node33"><a xlink:href="../../da/de9/class_backend_1_1_parser.html#a57ac3fe734297dc7b65d56ab69a19fc6" target="_top" xlink:title="Backend.Parser.convert">
<polygon fill="white" stroke="black" points="1012.5,-278.5 1012.5,-297.5 1141.5,-297.5 1141.5,-278.5 1012.5,-278.5"/>
<text text-anchor="middle" x="1077" y="-285.5" font-family="Helvetica,sans-Serif" font-size="10.00">Backend.Parser.convert</text>
</a>
</g>
</g>
<!-- Node32&#45;&gt;Node33 -->
<g id="edge33" class="edge"><title>Node32&#45;&gt;Node33</title>
<path fill="none" stroke="midnightblue" d="M899.822,-253.547C934.318,-260.293 980.726,-269.369 1017.25,-276.511"/>
<polygon fill="midnightblue" stroke="midnightblue" points="1016.79,-279.987 1027.27,-278.471 1018.13,-273.117 1016.79,-279.987"/>
</g>
<!-- Node34 -->
<g id="node34" class="node"><title>Node34</title>
<g id="a_node34"><a xlink:href="../../da/de9/class_backend_1_1_parser.html#af7a0fc52eb5fe8714367d85241ba9e84" target="_top" xlink:title="Backend.Parser.convertResource\lBundleToMap">
<polygon fill="white" stroke="black" points="990.5,-229 990.5,-259 1163.5,-259 1163.5,-229 990.5,-229"/>
<text text-anchor="start" x="998.5" y="-247" font-family="Helvetica,sans-Serif" font-size="10.00">Backend.Parser.convertResource</text>
<text text-anchor="middle" x="1077" y="-236" font-family="Helvetica,sans-Serif" font-size="10.00">BundleToMap</text>
</a>
</g>
</g>
<!-- Node32&#45;&gt;Node34 -->
<g id="edge34" class="edge"><title>Node32&#45;&gt;Node34</title>
<path fill="none" stroke="midnightblue" d="M914.574,-244C934.971,-244 958.033,-244 980.21,-244"/>
<polygon fill="midnightblue" stroke="midnightblue" points="980.324,-247.5 990.324,-244 980.323,-240.5 980.324,-247.5"/>
</g>
<!-- Node36 -->
<g id="node36" class="node"><title>Node36</title>
<g id="a_node36"><a xlink:href="../../df/dac/class_nodes_1_1_node.html#ae200fe31f562bfb695af21f5673b8345" target="_top" xlink:title="Nodes.Node.addChildren">
<polygon fill="white" stroke="black" points="1009,-114.5 1009,-133.5 1145,-133.5 1145,-114.5 1009,-114.5"/>
<text text-anchor="middle" x="1077" y="-121.5" font-family="Helvetica,sans-Serif" font-size="10.00">Nodes.Node.addChildren</text>
</a>
</g>
</g>
<!-- Node35&#45;&gt;Node36 -->
<g id="edge36" class="edge"><title>Node35&#45;&gt;Node36</title>
<path fill="none" stroke="midnightblue" d="M921.574,-137.04C946.041,-134.974 973.594,-132.648 998.582,-130.537"/>
<polygon fill="midnightblue" stroke="midnightblue" points="999.08,-134.008 1008.75,-129.679 998.491,-127.033 999.08,-134.008"/>
</g>
<!-- Node38 -->
<g id="node38" class="node"><title>Node38</title>
<g id="a_node38"><a xlink:href="../../df/dac/class_nodes_1_1_node.html#ace0ce29f3bed613594598fab03985985" target="_top" xlink:title="Nodes.Node.clearChildren">
<polygon fill="white" stroke="black" points="1006.5,-76.5 1006.5,-95.5 1147.5,-95.5 1147.5,-76.5 1006.5,-76.5"/>
<text text-anchor="middle" x="1077" y="-83.5" font-family="Helvetica,sans-Serif" font-size="10.00">Nodes.Node.clearChildren</text>
</a>
</g>
</g>
<!-- Node35&#45;&gt;Node38 -->
<g id="edge38" class="edge"><title>Node35&#45;&gt;Node38</title>
<path fill="none" stroke="midnightblue" d="M908.96,-133.438C920.083,-130.894 931.523,-127.774 942,-124 959.021,-117.869 960.935,-111.009 978,-105 985.813,-102.249 994.125,-99.8626 1002.48,-97.801"/>
<polygon fill="midnightblue" stroke="midnightblue" points="1003.32,-101.198 1012.27,-95.5276 1001.74,-94.3791 1003.32,-101.198"/>
</g>
<!-- Node39 -->
<g id="node39" class="node"><title>Node39</title>
<g id="a_node39"><a xlink:href="../../df/dac/class_nodes_1_1_node.html#a74e0332d0a40c6575211d9c7e5432df1" target="_top" xlink:title="Nodes.Node.getParent">
<polygon fill="white" stroke="black" points="1014.5,-38.5 1014.5,-57.5 1139.5,-57.5 1139.5,-38.5 1014.5,-38.5"/>
<text text-anchor="middle" x="1077" y="-45.5" font-family="Helvetica,sans-Serif" font-size="10.00">Nodes.Node.getParent</text>
</a>
</g>
</g>
<!-- Node35&#45;&gt;Node39 -->
<g id="edge39" class="edge"><title>Node35&#45;&gt;Node39</title>
<path fill="none" stroke="midnightblue" d="M921.928,-134.165C929.055,-131.558 935.901,-128.233 942,-124 966.616,-106.917 953.262,-83.9058 978,-67 985.965,-61.557 995.099,-57.5827 1004.52,-54.6957"/>
<polygon fill="midnightblue" stroke="midnightblue" points="1005.64,-58.0199 1014.4,-52.0649 1003.84,-51.2556 1005.64,-58.0199"/>
</g>
<!-- Node40 -->
<g id="node40" class="node"><title>Node40</title>
<g id="a_node40"><a xlink:href="../../df/dac/class_nodes_1_1_node.html#aec63a25442128910503dee368ee4328b" target="_top" xlink:title="Nodes.Node.isFinished">
<polygon fill="white" stroke="black" points="1014.5,-0.5 1014.5,-19.5 1139.5,-19.5 1139.5,-0.5 1014.5,-0.5"/>
<text text-anchor="middle" x="1077" y="-7.5" font-family="Helvetica,sans-Serif" font-size="10.00">Nodes.Node.isFinished</text>
</a>
</g>
</g>
<!-- Node35&#45;&gt;Node40 -->
<g id="edge40" class="edge"><title>Node35&#45;&gt;Node40</title>
<path fill="none" stroke="midnightblue" d="M921.939,-135.722C929.231,-132.847 936.111,-129.033 942,-124 976.324,-94.6642 943.467,-58.089 978,-29 985.704,-22.5102 994.962,-17.988 1004.67,-14.8743"/>
<polygon fill="midnightblue" stroke="midnightblue" points="1005.76,-18.2068 1014.49,-12.2096 1003.92,-11.4512 1005.76,-18.2068"/>
</g>
<!-- Node41 -->
<g id="node41" class="node"><title>Node41</title>
<g id="a_node41"><a xlink:href="../../df/dac/class_nodes_1_1_node.html#a072be25270214e88e4f3d954edd4e98d" target="_top" xlink:title="Nodes.Node.returnPrintValue">
<polygon fill="white" stroke="black" points="999,-190.5 999,-209.5 1155,-209.5 1155,-190.5 999,-190.5"/>
<text text-anchor="middle" x="1077" y="-197.5" font-family="Helvetica,sans-Serif" font-size="10.00">Nodes.Node.returnPrintValue</text>
</a>
</g>
</g>
<!-- Node35&#45;&gt;Node41 -->
<g id="edge41" class="edge"><title>Node35&#45;&gt;Node41</title>
<path fill="none" stroke="midnightblue" d="M879.779,-152.502C905.374,-160.739 943.918,-172.619 978,-181 988.869,-183.673 1000.49,-186.206 1011.79,-188.5"/>
<polygon fill="midnightblue" stroke="midnightblue" points="1011.13,-191.936 1021.62,-190.452 1012.49,-185.07 1011.13,-191.936"/>
</g>
<!-- Node42 -->
<g id="node42" class="node"><title>Node42</title>
<g id="a_node42"><a xlink:href="../../df/dac/class_nodes_1_1_node.html#adf0f88f5b587f4324d763d63b743bb29" target="_top" xlink:title="Nodes.Node.update">
<polygon fill="white" stroke="black" points="1020.5,-152.5 1020.5,-171.5 1133.5,-171.5 1133.5,-152.5 1020.5,-152.5"/>
<text text-anchor="middle" x="1077" y="-159.5" font-family="Helvetica,sans-Serif" font-size="10.00">Nodes.Node.update</text>
</a>
</g>
</g>
<!-- Node35&#45;&gt;Node42 -->
<g id="edge42" class="edge"><title>Node35&#45;&gt;Node42</title>
<path fill="none" stroke="midnightblue" d="M921.574,-148.96C949.925,-151.354 982.421,-154.098 1010.27,-156.449"/>
<polygon fill="midnightblue" stroke="midnightblue" points="1010.04,-159.942 1020.3,-157.296 1010.63,-152.967 1010.04,-159.942"/>
</g>
<!-- Node37 -->
<g id="node37" class="node"><title>Node37</title>
<g id="a_node37"><a xlink:href="../../df/dac/class_nodes_1_1_node.html#a95dd6a377e7e4db934301bd83ddfd12c" target="_top" xlink:title="Nodes.Node.setParent">
<polygon fill="white" stroke="black" points="1222.5,-114.5 1222.5,-133.5 1347.5,-133.5 1347.5,-114.5 1222.5,-114.5"/>
<text text-anchor="middle" x="1285" y="-121.5" font-family="Helvetica,sans-Serif" font-size="10.00">Nodes.Node.setParent</text>
</a>
</g>
</g>
<!-- Node36&#45;&gt;Node37 -->
<g id="edge37" class="edge"><title>Node36&#45;&gt;Node37</title>
<path fill="none" stroke="midnightblue" d="M1145.17,-124C1166.55,-124 1190.3,-124 1212.01,-124"/>
<polygon fill="midnightblue" stroke="midnightblue" points="1212.16,-127.5 1222.16,-124 1212.16,-120.5 1212.16,-127.5"/>
</g>
</g>
</svg>
