<?xml version="1.0" encoding="UTF-8" standalone="no"?>
<!DOCTYPE svg PUBLIC "-//W3C//DTD SVG 1.1//EN"
 "http://www.w3.org/Graphics/SVG/1.1/DTD/svg11.dtd">
<!-- Generated by graphviz version 2.36.0 (20140111.2315)
 -->
<!-- Title: FrontEnd.Controller.interpret Pages: 1 -->
<!--zoomable 572 -->
<svg id="main" version="1.1" xmlns="http://www.w3.org/2000/svg" xmlns:xlink="http://www.w3.org/1999/xlink" xml:space="preserve" onload="init(evt)">
<style type="text/css"><![CDATA[
.edge:hover path { stroke: red; }
.edge:hover polygon { stroke: red; fill: red; }
]]></style>
<script type="text/javascript"><![CDATA[
var edges = document.getElementsByTagName('g');
if (edges && edges.length) {
  for (var i=0;i<edges.length;i++) {
    if (edges[i].id.substr(0,4)=='edge') {
      edges[i].setAttribute('class','edge');
    }
  }
}
]]></script>
        <defs>
                <circle id="rim" cx="0" cy="0" r="7"/>
                <circle id="rim2" cx="0" cy="0" r="3.5"/>
                <g id="zoomPlus">
                        <use xlink:href="#rim" fill="#404040">
                                <set attributeName="fill" to="#808080" begin="zoomplus.mouseover" end="zoomplus.mouseout"/>
                        </use>
                        <path d="M-4,0h8M0,-4v8" fill="none" stroke="white" stroke-width="1.5" pointer-events="none"/>
                </g>
                <g id="zoomMin">
                        <use xlink:href="#rim" fill="#404040">
                                <set attributeName="fill" to="#808080" begin="zoomminus.mouseover" end="zoomminus.mouseout"/>
                        </use>
                        <path d="M-4,0h8" fill="none" stroke="white" stroke-width="1.5" pointer-events="none"/>
                </g>
                <g id="dirArrow">
                        <path fill="none" stroke="white" stroke-width="1.5" d="M0,-3.0v7 M-2.5,-0.5L0,-3.0L2.5,-0.5"/>
                </g>
               <g id="resetDef">
                       <use xlink:href="#rim2" fill="#404040">
                               <set attributeName="fill" to="#808080" begin="reset.mouseover" end="reset.mouseout"/>
                       </use>
               </g>
        </defs>

<script type="text/javascript">
var viewWidth = 998;
var viewHeight = 572;
var sectionId = 'dynsection-5';
</script>
<script xlink:href="../../svgpan.js"/>
<svg id="graph" class="graph">
<g id="viewport">
<title>FrontEnd.Controller.interpret</title>
<polygon fill="white" stroke="none" points="-4,4 -4,-568 994,-568 994,4 -4,4"/>
<!-- Node1 -->
<g id="node1" class="node"><title>Node1</title>
<polygon fill="#bfbfbf" stroke="black" points="0,-294.5 0,-313.5 152,-313.5 152,-294.5 0,-294.5"/>
<text text-anchor="middle" x="76" y="-301.5" font-family="Helvetica,sans-Serif" font-size="10.00">FrontEnd.Controller.interpret</text>
</g>
<!-- Node2 -->
<g id="node2" class="node"><title>Node2</title>
<g id="a_node2"><a xlink:href="../../df/dec/class_front_end_1_1_view.html#aa6d2d76b51cd95e66064fb2ccad96fc8" target="_top" xlink:title="FrontEnd.View.addConsole\lEntries">
<polygon fill="white" stroke="black" points="200,-534 200,-564 342,-564 342,-534 200,-534"/>
<text text-anchor="start" x="208" y="-552" font-family="Helvetica,sans-Serif" font-size="10.00">FrontEnd.View.addConsole</text>
<text text-anchor="middle" x="271" y="-541" font-family="Helvetica,sans-Serif" font-size="10.00">Entries</text>
</a>
</g>
</g>
<!-- Node1&#45;&gt;Node2 -->
<g id="edge1" class="edge"><title>Node1&#45;&gt;Node2</title>
<path fill="none" stroke="midnightblue" d="M78.9987,-313.599C86.6053,-347.709 116.98,-464.214 188,-524 189.993,-525.677 192.096,-527.242 194.285,-528.702"/>
<polygon fill="midnightblue" stroke="midnightblue" points="192.702,-531.83 203.107,-533.829 196.22,-525.778 192.702,-531.83"/>
</g>
<!-- Node3 -->
<g id="node3" class="node"><title>Node3</title>
<g id="a_node3"><a xlink:href="../../df/dec/class_front_end_1_1_view.html#a0dc533900f63d1fda3d421c4252b497d" target="_top" xlink:title="FrontEnd.View.addHistory\lEntry">
<polygon fill="white" stroke="black" points="202.5,-485 202.5,-515 339.5,-515 339.5,-485 202.5,-485"/>
<text text-anchor="start" x="210.5" y="-503" font-family="Helvetica,sans-Serif" font-size="10.00">FrontEnd.View.addHistory</text>
<text text-anchor="middle" x="271" y="-492" font-family="Helvetica,sans-Serif" font-size="10.00">Entry</text>
</a>
</g>
</g>
<!-- Node1&#45;&gt;Node3 -->
<g id="edge2" class="edge"><title>Node1&#45;&gt;Node3</title>
<path fill="none" stroke="midnightblue" d="M80.5537,-313.829C91.621,-343.039 128.344,-430.073 188,-475 190.476,-476.865 193.092,-478.592 195.809,-480.191"/>
<polygon fill="midnightblue" stroke="midnightblue" points="194.296,-483.349 204.78,-484.875 197.536,-477.144 194.296,-483.349"/>
</g>
<!-- Node6 -->
<g id="node6" class="node"><title>Node6</title>
<g id="a_node6"><a xlink:href="../../d4/d8a/class_turtle_view_1_1_turtle_window.html#a0b2d9c9953cd10acd2ee6fb793bb7a9a" target="_top" xlink:title="TurtleView.TurtleWindow.get\lActiveTurtles">
<polygon fill="white" stroke="black" points="198.5,-436 198.5,-466 343.5,-466 343.5,-436 198.5,-436"/>
<text text-anchor="start" x="206.5" y="-454" font-family="Helvetica,sans-Serif" font-size="10.00">TurtleView.TurtleWindow.get</text>
<text text-anchor="middle" x="271" y="-443" font-family="Helvetica,sans-Serif" font-size="10.00">ActiveTurtles</text>
</a>
</g>
</g>
<!-- Node1&#45;&gt;Node6 -->
<g id="edge5" class="edge"><title>Node1&#45;&gt;Node6</title>
<path fill="none" stroke="midnightblue" d="M82.987,-313.525C97.8649,-336.415 138.881,-394.913 188,-426 191.301,-428.089 194.788,-430.013 198.386,-431.783"/>
<polygon fill="midnightblue" stroke="midnightblue" points="196.965,-434.981 207.522,-435.873 199.826,-428.593 196.965,-434.981"/>
</g>
<!-- Node7 -->
<g id="node7" class="node"><title>Node7</title>
<g id="a_node7"><a xlink:href="../../d9/dae/class_backend_1_1_scene_updater.html#a86172bf527ba1b205d3392ce57c54530" target="_top" xlink:title="Backend.SceneUpdater.get\lErrorMessage">
<polygon fill="white" stroke="black" points="197,-387 197,-417 345,-417 345,-387 197,-387"/>
<text text-anchor="start" x="205" y="-405" font-family="Helvetica,sans-Serif" font-size="10.00">Backend.SceneUpdater.get</text>
<text text-anchor="middle" x="271" y="-394" font-family="Helvetica,sans-Serif" font-size="10.00">ErrorMessage</text>
</a>
</g>
</g>
<!-- Node1&#45;&gt;Node7 -->
<g id="edge6" class="edge"><title>Node1&#45;&gt;Node7</title>
<path fill="none" stroke="midnightblue" d="M88.9648,-313.547C108.606,-328.821 149.373,-358.87 188,-377 192.968,-379.332 198.206,-381.511 203.534,-383.532"/>
<polygon fill="midnightblue" stroke="midnightblue" points="202.586,-386.911 213.181,-387 204.954,-380.323 202.586,-386.911"/>
</g>
<!-- Node8 -->
<g id="node8" class="node"><title>Node8</title>
<g id="a_node8"><a xlink:href="../../d9/dae/class_backend_1_1_scene_updater.html#afe241e467e3eb888257114a8f03efee2" target="_top" xlink:title="Backend.SceneUpdater.get\lReturnValues">
<polygon fill="white" stroke="black" points="197,-338 197,-368 345,-368 345,-338 197,-338"/>
<text text-anchor="start" x="205" y="-356" font-family="Helvetica,sans-Serif" font-size="10.00">Backend.SceneUpdater.get</text>
<text text-anchor="middle" x="271" y="-345" font-family="Helvetica,sans-Serif" font-size="10.00">ReturnValues</text>
</a>
</g>
</g>
<!-- Node1&#45;&gt;Node8 -->
<g id="edge7" class="edge"><title>Node1&#45;&gt;Node8</title>
<path fill="none" stroke="midnightblue" d="M114.671,-313.564C139.212,-319.795 171.961,-328.109 201.061,-335.497"/>
<polygon fill="midnightblue" stroke="midnightblue" points="200.219,-338.895 210.773,-337.963 201.942,-332.11 200.219,-338.895"/>
</g>
<!-- Node9 -->
<g id="node9" class="node"><title>Node9</title>
<g id="a_node9"><a xlink:href="../../d9/dae/class_backend_1_1_scene_updater.html#a069e3ab4f9b7da6cc1cf0239082cac28" target="_top" xlink:title="Backend.SceneUpdater.get\lTurtles">
<polygon fill="white" stroke="black" points="197,-289 197,-319 345,-319 345,-289 197,-289"/>
<text text-anchor="start" x="205" y="-307" font-family="Helvetica,sans-Serif" font-size="10.00">Backend.SceneUpdater.get</text>
<text text-anchor="middle" x="271" y="-296" font-family="Helvetica,sans-Serif" font-size="10.00">Turtles</text>
</a>
</g>
</g>
<!-- Node1&#45;&gt;Node9 -->
<g id="edge8" class="edge"><title>Node1&#45;&gt;Node9</title>
<path fill="none" stroke="midnightblue" d="M152.171,-304C163.55,-304 175.346,-304 186.881,-304"/>
<polygon fill="midnightblue" stroke="midnightblue" points="186.934,-307.5 196.934,-304 186.934,-300.5 186.934,-307.5"/>
</g>
<!-- Node10 -->
<g id="node10" class="node"><title>Node10</title>
<g id="a_node10"><a xlink:href="../../d9/dae/class_backend_1_1_scene_updater.html#a23e294ce4ed4c8ef9ba9acdb68f37646" target="_top" xlink:title="Backend.SceneUpdater.get\lVariables">
<polygon fill="white" stroke="black" points="197,-240 197,-270 345,-270 345,-240 197,-240"/>
<text text-anchor="start" x="205" y="-258" font-family="Helvetica,sans-Serif" font-size="10.00">Backend.SceneUpdater.get</text>
<text text-anchor="middle" x="271" y="-247" font-family="Helvetica,sans-Serif" font-size="10.00">Variables</text>
</a>
</g>
</g>
<!-- Node1&#45;&gt;Node10 -->
<g id="edge9" class="edge"><title>Node1&#45;&gt;Node10</title>
<path fill="none" stroke="midnightblue" d="M114.671,-294.436C139.212,-288.205 171.961,-279.891 201.061,-272.503"/>
<polygon fill="midnightblue" stroke="midnightblue" points="201.942,-275.89 210.773,-270.037 200.219,-269.105 201.942,-275.89"/>
</g>
<!-- Node11 -->
<g id="node11" class="node"><title>Node11</title>
<g id="a_node11"><a xlink:href="../../d9/dae/class_backend_1_1_scene_updater.html#abff174da75dc70f3cca083770de43afe" target="_top" xlink:title="Backend.SceneUpdater.isNo\lError">
<polygon fill="white" stroke="black" points="194.5,-191 194.5,-221 347.5,-221 347.5,-191 194.5,-191"/>
<text text-anchor="start" x="202.5" y="-209" font-family="Helvetica,sans-Serif" font-size="10.00">Backend.SceneUpdater.isNo</text>
<text text-anchor="middle" x="271" y="-198" font-family="Helvetica,sans-Serif" font-size="10.00">Error</text>
</a>
</g>
</g>
<!-- Node1&#45;&gt;Node11 -->
<g id="edge10" class="edge"><title>Node1&#45;&gt;Node11</title>
<path fill="none" stroke="midnightblue" d="M88.9648,-294.453C108.606,-279.179 149.373,-249.13 188,-231 192.968,-228.668 198.206,-226.489 203.534,-224.468"/>
<polygon fill="midnightblue" stroke="midnightblue" points="204.954,-227.677 213.181,-221 202.586,-221.089 204.954,-227.677"/>
</g>
<!-- Node12 -->
<g id="node12" class="node"><title>Node12</title>
<g id="a_node12"><a xlink:href="../../df/dec/class_front_end_1_1_view.html#aba848cd44a4726c74dc85535f0c5722d" target="_top" xlink:title="FrontEnd.View.makeErrorDialog">
<polygon fill="white" stroke="black" points="188,-152.5 188,-171.5 354,-171.5 354,-152.5 188,-152.5"/>
<text text-anchor="middle" x="271" y="-159.5" font-family="Helvetica,sans-Serif" font-size="10.00">FrontEnd.View.makeErrorDialog</text>
</a>
</g>
</g>
<!-- Node1&#45;&gt;Node12 -->
<g id="edge11" class="edge"><title>Node1&#45;&gt;Node12</title>
<path fill="none" stroke="midnightblue" d="M82.8763,-294.294C97.5083,-271.004 138.02,-211.682 188,-182 192.453,-179.355 197.239,-177.06 202.182,-175.067"/>
<polygon fill="midnightblue" stroke="midnightblue" points="203.608,-178.274 211.834,-171.597 201.24,-171.687 203.608,-178.274"/>
</g>
<!-- Node13 -->
<g id="node13" class="node"><title>Node13</title>
<g id="a_node13"><a xlink:href="../../d4/d8a/class_turtle_view_1_1_turtle_window.html#afe0302fc0fbc1e5797b56a03c1ec84a4" target="_top" xlink:title="TurtleView.TurtleWindow.update">
<polygon fill="white" stroke="black" points="189.5,-114.5 189.5,-133.5 352.5,-133.5 352.5,-114.5 189.5,-114.5"/>
<text text-anchor="middle" x="271" y="-121.5" font-family="Helvetica,sans-Serif" font-size="10.00">TurtleView.TurtleWindow.update</text>
</a>
</g>
</g>
<!-- Node1&#45;&gt;Node13 -->
<g id="edge12" class="edge"><title>Node1&#45;&gt;Node13</title>
<path fill="none" stroke="midnightblue" d="M80.7541,-294.158C92.1229,-265.752 129.054,-183.106 188,-143 190.928,-141.008 194.036,-139.223 197.265,-137.623"/>
<polygon fill="midnightblue" stroke="midnightblue" points="198.832,-140.759 206.631,-133.588 196.063,-134.33 198.832,-140.759"/>
</g>
<!-- Node14 -->
<g id="node14" class="node"><title>Node14</title>
<g id="a_node14"><a xlink:href="../../df/dec/class_front_end_1_1_view.html#afa6c660ce1c2e6493f471b5344638d5b" target="_top" xlink:title="FrontEnd.View.updateTurtleInfo">
<polygon fill="white" stroke="black" points="190,-76.5 190,-95.5 352,-95.5 352,-76.5 190,-76.5"/>
<text text-anchor="middle" x="271" y="-83.5" font-family="Helvetica,sans-Serif" font-size="10.00">FrontEnd.View.updateTurtleInfo</text>
</a>
</g>
</g>
<!-- Node1&#45;&gt;Node14 -->
<g id="edge13" class="edge"><title>Node1&#45;&gt;Node14</title>
<path fill="none" stroke="midnightblue" d="M79.3989,-294.256C87.9345,-261.738 120.026,-156.123 188,-105 190.489,-103.128 193.132,-101.436 195.886,-99.907"/>
<polygon fill="midnightblue" stroke="midnightblue" points="197.487,-103.021 205.007,-95.5578 194.474,-96.7029 197.487,-103.021"/>
</g>
<!-- Node4 -->
<g id="node4" class="node"><title>Node4</title>
<g id="a_node4"><a xlink:href="../../d4/d1b/class_front_end_1_1_history_box.html#a64947a52c0dbe236075698aab3d181dc" target="_top" xlink:title="FrontEnd.HistoryBox.addEntry">
<polygon fill="white" stroke="black" points="402.5,-490.5 402.5,-509.5 561.5,-509.5 561.5,-490.5 402.5,-490.5"/>
<text text-anchor="middle" x="482" y="-497.5" font-family="Helvetica,sans-Serif" font-size="10.00">FrontEnd.HistoryBox.addEntry</text>
</a>
</g>
</g>
<!-- Node3&#45;&gt;Node4 -->
<g id="edge3" class="edge"><title>Node3&#45;&gt;Node4</title>
<path fill="none" stroke="midnightblue" d="M339.568,-500C356.317,-500 374.518,-500 392.115,-500"/>
<polygon fill="midnightblue" stroke="midnightblue" points="392.391,-503.5 402.391,-500 392.391,-496.5 392.391,-503.5"/>
</g>
<!-- Node5 -->
<g id="node5" class="node"><title>Node5</title>
<g id="a_node5"><a xlink:href="../../de/d8a/class_front_end_1_1_user_commands.html#af04d6a5776faf7e2e99bdae3100a6add" target="_top" xlink:title="FrontEnd.UserCommands.add\lCommand">
<polygon fill="white" stroke="black" points="628.5,-485 628.5,-515 789.5,-515 789.5,-485 628.5,-485"/>
<text text-anchor="start" x="636.5" y="-503" font-family="Helvetica,sans-Serif" font-size="10.00">FrontEnd.UserCommands.add</text>
<text text-anchor="middle" x="709" y="-492" font-family="Helvetica,sans-Serif" font-size="10.00">Command</text>
</a>
</g>
</g>
<!-- Node4&#45;&gt;Node5 -->
<g id="edge4" class="edge"><title>Node4&#45;&gt;Node5</title>
<path fill="none" stroke="midnightblue" d="M561.694,-500C579.871,-500 599.347,-500 617.966,-500"/>
<polygon fill="midnightblue" stroke="midnightblue" points="618.208,-503.5 628.208,-500 618.208,-496.5 618.208,-503.5"/>
</g>
<!-- Node15 -->
<g id="node15" class="node"><title>Node15</title>
<g id="a_node15"><a xlink:href="../../d9/d38/class_turtle_view_1_1_turtle_information.html#ad65201793ce738f9c6d6e592271c14e1" target="_top" xlink:title="TurtleView.TurtleInformation.update">
<polygon fill="white" stroke="black" points="390.5,-76.5 390.5,-95.5 573.5,-95.5 573.5,-76.5 390.5,-76.5"/>
<text text-anchor="middle" x="482" y="-83.5" font-family="Helvetica,sans-Serif" font-size="10.00">TurtleView.TurtleInformation.update</text>
</a>
</g>
</g>
<!-- Node14&#45;&gt;Node15 -->
<g id="edge14" class="edge"><title>Node14&#45;&gt;Node15</title>
<path fill="none" stroke="midnightblue" d="M352.207,-86C361.337,-86 370.729,-86 380.083,-86"/>
<polygon fill="midnightblue" stroke="midnightblue" points="380.203,-89.5001 390.203,-86 380.203,-82.5001 380.203,-89.5001"/>
</g>
<!-- Node16 -->
<g id="node16" class="node"><title>Node16</title>
<g id="a_node16"><a xlink:href="../../d9/d38/class_turtle_view_1_1_turtle_information.html#aca65258778dade3baa31e0d5ec643b3b" target="_top" xlink:title="TurtleView.TurtleInformation.emptyInfo">
<polygon fill="white" stroke="black" points="610.5,-152.5 610.5,-171.5 807.5,-171.5 807.5,-152.5 610.5,-152.5"/>
<text text-anchor="middle" x="709" y="-159.5" font-family="Helvetica,sans-Serif" font-size="10.00">TurtleView.TurtleInformation.emptyInfo</text>
</a>
</g>
</g>
<!-- Node15&#45;&gt;Node16 -->
<g id="edge15" class="edge"><title>Node15&#45;&gt;Node16</title>
<path fill="none" stroke="midnightblue" d="M500.988,-95.6734C525.138,-108.284 569.68,-130.232 610,-143 618.675,-145.747 627.915,-148.167 637.122,-150.278"/>
<polygon fill="midnightblue" stroke="midnightblue" points="636.555,-153.736 647.072,-152.448 638.047,-146.897 636.555,-153.736"/>
</g>
<!-- Node17 -->
<g id="node17" class="node"><title>Node17</title>
<g id="a_node17"><a xlink:href="../../d1/de0/class_backend_1_1_turtle.html#adc7cb6cc95ee918547d2b18d8bb20183" target="_top" xlink:title="Backend.Turtle.getID">
<polygon fill="white" stroke="black" points="651.5,-114.5 651.5,-133.5 766.5,-133.5 766.5,-114.5 651.5,-114.5"/>
<text text-anchor="middle" x="709" y="-121.5" font-family="Helvetica,sans-Serif" font-size="10.00">Backend.Turtle.getID</text>
</a>
</g>
</g>
<!-- Node15&#45;&gt;Node17 -->
<g id="edge16" class="edge"><title>Node15&#45;&gt;Node17</title>
<path fill="none" stroke="midnightblue" d="M539.487,-95.54C570.379,-100.757 608.837,-107.253 641.21,-112.72"/>
<polygon fill="midnightblue" stroke="midnightblue" points="641.047,-116.242 651.49,-114.456 642.213,-109.34 641.047,-116.242"/>
</g>
<!-- Node18 -->
<g id="node18" class="node"><title>Node18</title>
<g id="a_node18"><a xlink:href="../../d9/d38/class_turtle_view_1_1_turtle_information.html#a15bd13ad05cabb76c0861d0ab42722ef" target="_top" xlink:title="TurtleView.TurtleInformation.truncate">
<polygon fill="white" stroke="black" points="614,-76.5 614,-95.5 804,-95.5 804,-76.5 614,-76.5"/>
<text text-anchor="middle" x="709" y="-83.5" font-family="Helvetica,sans-Serif" font-size="10.00">TurtleView.TurtleInformation.truncate</text>
</a>
</g>
</g>
<!-- Node15&#45;&gt;Node18 -->
<g id="edge17" class="edge"><title>Node15&#45;&gt;Node18</title>
<path fill="none" stroke="midnightblue" d="M573.544,-86C583.526,-86 593.749,-86 603.88,-86"/>
<polygon fill="midnightblue" stroke="midnightblue" points="603.969,-89.5001 613.969,-86 603.969,-82.5001 603.969,-89.5001"/>
</g>
<!-- Node19 -->
<g id="node19" class="node"><title>Node19</title>
<g id="a_node19"><a xlink:href="../../d1/de0/class_backend_1_1_turtle.html#a715f94909b1ba74dc9e4f9eb4fd91e10" target="_top" xlink:title="Backend.Turtle.getXCord">
<polygon fill="white" stroke="black" points="642.5,-38.5 642.5,-57.5 775.5,-57.5 775.5,-38.5 642.5,-38.5"/>
<text text-anchor="middle" x="709" y="-45.5" font-family="Helvetica,sans-Serif" font-size="10.00">Backend.Turtle.getXCord</text>
</a>
</g>
</g>
<!-- Node15&#45;&gt;Node19 -->
<g id="edge18" class="edge"><title>Node15&#45;&gt;Node19</title>
<path fill="none" stroke="midnightblue" d="M539.487,-76.46C570.379,-71.2426 608.837,-64.7475 641.21,-59.28"/>
<polygon fill="midnightblue" stroke="midnightblue" points="642.213,-62.6604 651.49,-57.5439 641.047,-55.7581 642.213,-62.6604"/>
</g>
<!-- Node21 -->
<g id="node21" class="node"><title>Node21</title>
<g id="a_node21"><a xlink:href="../../d1/de0/class_backend_1_1_turtle.html#a692174eccea232fc58e725cff6f50359" target="_top" xlink:title="Backend.Turtle.getYCord">
<polygon fill="white" stroke="black" points="643,-0.5 643,-19.5 775,-19.5 775,-0.5 643,-0.5"/>
<text text-anchor="middle" x="709" y="-7.5" font-family="Helvetica,sans-Serif" font-size="10.00">Backend.Turtle.getYCord</text>
</a>
</g>
</g>
<!-- Node15&#45;&gt;Node21 -->
<g id="edge20" class="edge"><title>Node15&#45;&gt;Node21</title>
<path fill="none" stroke="midnightblue" d="M500.988,-76.3266C525.138,-63.7161 569.68,-41.7684 610,-29 618.675,-26.2527 627.915,-23.8331 637.122,-21.7223"/>
<polygon fill="midnightblue" stroke="midnightblue" points="638.047,-25.1028 647.072,-19.5522 636.555,-18.2636 638.047,-25.1028"/>
</g>
<!-- Node20 -->
<g id="node20" class="node"><title>Node20</title>
<g id="a_node20"><a xlink:href="../../d1/de0/class_backend_1_1_turtle.html#a33957258db9a7205d470c5a2d22b89af" target="_top" xlink:title="Backend.Turtle.getLocation">
<polygon fill="white" stroke="black" points="844,-19.5 844,-38.5 990,-38.5 990,-19.5 844,-19.5"/>
<text text-anchor="middle" x="917" y="-26.5" font-family="Helvetica,sans-Serif" font-size="10.00">Backend.Turtle.getLocation</text>
</a>
</g>
</g>
<!-- Node19&#45;&gt;Node20 -->
<g id="edge19" class="edge"><title>Node19&#45;&gt;Node20</title>
<path fill="none" stroke="midnightblue" d="M775.746,-41.936C794.196,-40.2344 814.489,-38.3627 833.769,-36.5845"/>
<polygon fill="midnightblue" stroke="midnightblue" points="834.107,-40.0682 843.743,-35.6645 833.464,-33.0978 834.107,-40.0682"/>
</g>
<!-- Node21&#45;&gt;Node20 -->
<g id="edge21" class="edge"><title>Node21&#45;&gt;Node20</title>
<path fill="none" stroke="midnightblue" d="M775.18,-16.0117C793.749,-17.7245 814.224,-19.6129 833.673,-21.4067"/>
<polygon fill="midnightblue" stroke="midnightblue" points="833.455,-24.9014 843.734,-22.3347 834.098,-17.931 833.455,-24.9014"/>
</g>
</g>
</svg>
        <g id="navigator" transform="translate(0 0)" fill="#404254">
                <rect fill="#f2f5e9" fill-opacity="0.5" stroke="#606060" stroke-width=".5" x="0" y="0" width="60" height="60"/>
                <use id="zoomplus" xlink:href="#zoomPlus" x="17" y="9" onmousedown="handleZoom(evt,'in')"/>
                <use id="zoomminus" xlink:href="#zoomMin" x="42" y="9" onmousedown="handleZoom(evt,'out')"/>
                <use id="reset" xlink:href="#resetDef" x="30" y="36" onmousedown="handleReset()"/>
                <g id="arrowUp" xlink:href="#dirArrow" transform="translate(30 24)" onmousedown="handlePan(0,-1)">
                  <use xlink:href="#rim" fill="#404040">
                        <set attributeName="fill" to="#808080" begin="arrowUp.mouseover" end="arrowUp.mouseout"/>
                  </use>
                  <path fill="none" stroke="white" stroke-width="1.5" d="M0,-3.0v7 M-2.5,-0.5L0,-3.0L2.5,-0.5"/>
                </g>
                <g id="arrowRight" xlink:href="#dirArrow" transform="rotate(90) translate(36 -43)" onmousedown="handlePan(1,0)">
                  <use xlink:href="#rim" fill="#404040">
                        <set attributeName="fill" to="#808080" begin="arrowRight.mouseover" end="arrowRight.mouseout"/>
                  </use>
                  <path fill="none" stroke="white" stroke-width="1.5" d="M0,-3.0v7 M-2.5,-0.5L0,-3.0L2.5,-0.5"/>
                </g>
                <g id="arrowDown" xlink:href="#dirArrow" transform="rotate(180) translate(-30 -48)" onmousedown="handlePan(0,1)">
                  <use xlink:href="#rim" fill="#404040">
                        <set attributeName="fill" to="#808080" begin="arrowDown.mouseover" end="arrowDown.mouseout"/>
                  </use>
                  <path fill="none" stroke="white" stroke-width="1.5" d="M0,-3.0v7 M-2.5,-0.5L0,-3.0L2.5,-0.5"/>
                </g>
                <g id="arrowLeft" xlink:href="#dirArrow" transform="rotate(270) translate(-36 17)" onmousedown="handlePan(-1,0)">
                  <use xlink:href="#rim" fill="#404040">
                        <set attributeName="fill" to="#808080" begin="arrowLeft.mouseover" end="arrowLeft.mouseout"/>
                  </use>
                  <path fill="none" stroke="white" stroke-width="1.5" d="M0,-3.0v7 M-2.5,-0.5L0,-3.0L2.5,-0.5"/>
                </g>
        </g>
        <svg viewBox="0 0 15 15" width="100%" height="30px" preserveAspectRatio="xMaxYMin meet">
         <g id="arrow_out" transform="scale(0.3 0.3)">
          <a xlink:href="class_front_end_1_1_controller_a0ad45a00bc5c4475d3b1c6a4dbf74a91_cgraph_org.svg" target="_base">
           <rect id="button" ry="5" rx="5" y="6" x="6" height="38" width="38"
                fill="#f2f5e9" fill-opacity="0.5" stroke="#606060" stroke-width="1.0"/>
           <path id="arrow"
             d="M 11.500037,31.436501 C 11.940474,20.09759 22.043105,11.32322 32.158766,21.979434 L 37.068811,17.246167 C 37.068811,17.246167 37.088388,32 37.088388,32 L 22.160133,31.978069 C 22.160133,31.978069 26.997745,27.140456 26.997745,27.140456 C 18.528582,18.264221 13.291696,25.230495 11.500037,31.436501 z"
             style="fill:#404040;"/>
          </a>
         </g>
        </svg>
</svg>
