<?xml version="1.0" encoding="UTF-8" standalone="no"?>
<!DOCTYPE svg PUBLIC "-//W3C//DTD SVG 1.1//EN"
 "http://www.w3.org/Graphics/SVG/1.1/DTD/svg11.dtd">
<!-- Generated by graphviz version 2.36.0 (20140111.2315)
 -->
<!-- Title: FrontEnd.Controller.Controller Pages: 1 -->
<svg width="364pt" height="66pt"
 viewBox="0.00 0.00 364.00 66.00" xmlns="http://www.w3.org/2000/svg" xmlns:xlink="http://www.w3.org/1999/xlink">
<g id="graph0" class="graph" transform="scale(1 1) rotate(0) translate(4 62)">
<title>FrontEnd.Controller.Controller</title>
<polygon fill="white" stroke="none" points="-4,4 -4,-62 360,-62 360,4 -4,4"/>
<!-- Node1 -->
<g id="node1" class="node"><title>Node1</title>
<polygon fill="#bfbfbf" stroke="black" points="0.5,-19.5 0.5,-38.5 157.5,-38.5 157.5,-19.5 0.5,-19.5"/>
<text text-anchor="middle" x="79" y="-26.5" font-family="Helvetica,sans-Serif" font-size="10.00">FrontEnd.Controller.Controller</text>
</g>
<!-- Node2 -->
<g id="node2" class="node"><title>Node2</title>
<g id="a_node2"><a xlink:href="../../df/dec/class_front_end_1_1_view.html#afe02711a5ea2b653db79aef3cbacc4ac" target="_top" xlink:title="FrontEnd.View.getTurtleInfo">
<polygon fill="white" stroke="black" points="203,-38.5 203,-57.5 347,-57.5 347,-38.5 203,-38.5"/>
<text text-anchor="middle" x="275" y="-45.5" font-family="Helvetica,sans-Serif" font-size="10.00">FrontEnd.View.getTurtleInfo</text>
</a>
</g>
</g>
<!-- Node1&#45;&gt;Node2 -->
<g id="edge1" class="edge"><title>Node1&#45;&gt;Node2</title>
<path fill="none" stroke="midnightblue" d="M157.51,-36.5912C169.102,-37.7264 181.08,-38.8996 192.746,-40.0422"/>
<polygon fill="midnightblue" stroke="midnightblue" points="192.607,-43.5452 202.901,-41.0367 193.29,-36.5785 192.607,-43.5452"/>
</g>
<!-- Node3 -->
<g id="node3" class="node"><title>Node3</title>
<g id="a_node3"><a xlink:href="../../df/dec/class_front_end_1_1_view.html#a19e6144ef2ebaaa6035c3837b2c0cbb5" target="_top" xlink:title="FrontEnd.View.getTurtleWindow">
<polygon fill="white" stroke="black" points="194,-0.5 194,-19.5 356,-19.5 356,-0.5 194,-0.5"/>
<text text-anchor="middle" x="275" y="-7.5" font-family="Helvetica,sans-Serif" font-size="10.00">FrontEnd.View.getTurtleWindow</text>
</a>
</g>
</g>
<!-- Node1&#45;&gt;Node3 -->
<g id="edge2" class="edge"><title>Node1&#45;&gt;Node3</title>
<path fill="none" stroke="midnightblue" d="M157.51,-21.4088C166.082,-20.5693 174.866,-19.709 183.578,-18.8557"/>
<polygon fill="midnightblue" stroke="midnightblue" points="184.145,-22.317 193.756,-17.8589 183.463,-15.3504 184.145,-22.317"/>
</g>
</g>
</svg>
