<?xml version="1.0" encoding="UTF-8" standalone="no"?>
<!DOCTYPE svg PUBLIC "-//W3C//DTD SVG 1.1//EN"
 "http://www.w3.org/Graphics/SVG/1.1/DTD/svg11.dtd">
<!-- Generated by graphviz version 2.36.0 (20140111.2315)
 -->
<!-- Title: FrontEnd.Controller.executeCommand Pages: 1 -->
<!--zoomable 932 -->
<svg id="main" version="1.1" xmlns="http://www.w3.org/2000/svg" xmlns:xlink="http://www.w3.org/1999/xlink" xml:space="preserve" onload="init(evt)">
<style type="text/css"><![CDATA[
.edge:hover path { stroke: red; }
.edge:hover polygon { stroke: red; fill: red; }
]]></style>
<script type="text/javascript"><![CDATA[
var edges = document.getElementsByTagName('g');
if (edges && edges.length) {
  for (var i=0;i<edges.length;i++) {
    if (edges[i].id.substr(0,4)=='edge') {
      edges[i].setAttribute('class','edge');
    }
  }
}
]]></script>
        <defs>
                <circle id="rim" cx="0" cy="0" r="7"/>
                <circle id="rim2" cx="0" cy="0" r="3.5"/>
                <g id="zoomPlus">
                        <use xlink:href="#rim" fill="#404040">
                                <set attributeName="fill" to="#808080" begin="zoomplus.mouseover" end="zoomplus.mouseout"/>
                        </use>
                        <path d="M-4,0h8M0,-4v8" fill="none" stroke="white" stroke-width="1.5" pointer-events="none"/>
                </g>
                <g id="zoomMin">
                        <use xlink:href="#rim" fill="#404040">
                                <set attributeName="fill" to="#808080" begin="zoomminus.mouseover" end="zoomminus.mouseout"/>
                        </use>
                        <path d="M-4,0h8" fill="none" stroke="white" stroke-width="1.5" pointer-events="none"/>
                </g>
                <g id="dirArrow">
                        <path fill="none" stroke="white" stroke-width="1.5" d="M0,-3.0v7 M-2.5,-0.5L0,-3.0L2.5,-0.5"/>
                </g>
               <g id="resetDef">
                       <use xlink:href="#rim2" fill="#404040">
                               <set attributeName="fill" to="#808080" begin="reset.mouseover" end="reset.mouseout"/>
                       </use>
               </g>
        </defs>

<script type="text/javascript">
var viewWidth = 1186;
var viewHeight = 932;
var sectionId = 'dynsection-3';
</script>
<script xlink:href="../../svgpan.js"/>
<svg id="graph" class="graph">
<g id="viewport">
<title>FrontEnd.Controller.executeCommand</title>
<polygon fill="white" stroke="none" points="-4,4 -4,-928 1182,-928 1182,4 -4,4"/>
<!-- Node1 -->
<g id="node1" class="node"><title>Node1</title>
<polygon fill="#bfbfbf" stroke="black" points="0.5,-601 0.5,-631 149.5,-631 149.5,-601 0.5,-601"/>
<text text-anchor="start" x="8.5" y="-619" font-family="Helvetica,sans-Serif" font-size="10.00">FrontEnd.Controller.execute</text>
<text text-anchor="middle" x="75" y="-608" font-family="Helvetica,sans-Serif" font-size="10.00">Command</text>
</g>
<!-- Node2 -->
<g id="node2" class="node"><title>Node2</title>
<g id="a_node2"><a xlink:href="../../df/dec/class_front_end_1_1_view.html#a6b0235dbcef17df58c19a639464103b6" target="_top" xlink:title="FrontEnd.View.getCurrent\lLanguage">
<polygon fill="white" stroke="black" points="193.5,-779 193.5,-809 330.5,-809 330.5,-779 193.5,-779"/>
<text text-anchor="start" x="201.5" y="-797" font-family="Helvetica,sans-Serif" font-size="10.00">FrontEnd.View.getCurrent</text>
<text text-anchor="middle" x="262" y="-786" font-family="Helvetica,sans-Serif" font-size="10.00">Language</text>
</a>
</g>
</g>
<!-- Node1&#45;&gt;Node2 -->
<g id="edge1" class="edge"><title>Node1&#45;&gt;Node2</title>
<path fill="none" stroke="midnightblue" d="M91.773,-631.176C124.404,-662.572 199.46,-734.789 237.695,-771.577"/>
<polygon fill="midnightblue" stroke="midnightblue" points="235.634,-774.451 245.267,-778.862 240.488,-769.407 235.634,-774.451"/>
</g>
<!-- Node4 -->
<g id="node4" class="node"><title>Node4</title>
<g id="a_node4"><a xlink:href="../../dd/d2e/class_front_end_1_1_controller.html#a0ad45a00bc5c4475d3b1c6a4dbf74a91" target="_top" xlink:title="FrontEnd.Controller.interpret">
<polygon fill="white" stroke="black" points="186,-625.5 186,-644.5 338,-644.5 338,-625.5 186,-625.5"/>
<text text-anchor="middle" x="262" y="-632.5" font-family="Helvetica,sans-Serif" font-size="10.00">FrontEnd.Controller.interpret</text>
</a>
</g>
</g>
<!-- Node1&#45;&gt;Node4 -->
<g id="edge3" class="edge"><title>Node1&#45;&gt;Node4</title>
<path fill="none" stroke="midnightblue" d="M149.648,-623.564C158.194,-624.442 166.965,-625.342 175.65,-626.234"/>
<polygon fill="midnightblue" stroke="midnightblue" points="175.484,-629.736 185.789,-627.276 176.199,-622.772 175.484,-629.736"/>
</g>
<!-- Node25 -->
<g id="node25" class="node"><title>Node25</title>
<g id="a_node25"><a xlink:href="../../da/d3c/class_backend_1_1_model.html#a972866b8540ea6b615e3c80b0ad1f9c6" target="_top" xlink:title="Backend.Model.parse">
<polygon fill="white" stroke="black" points="202.5,-587.5 202.5,-606.5 321.5,-606.5 321.5,-587.5 202.5,-587.5"/>
<text text-anchor="middle" x="262" y="-594.5" font-family="Helvetica,sans-Serif" font-size="10.00">Backend.Model.parse</text>
</a>
</g>
</g>
<!-- Node1&#45;&gt;Node25 -->
<g id="edge25" class="edge"><title>Node1&#45;&gt;Node25</title>
<path fill="none" stroke="midnightblue" d="M149.648,-608.436C163.757,-606.987 178.476,-605.475 192.417,-604.044"/>
<polygon fill="midnightblue" stroke="midnightblue" points="192.821,-607.521 202.411,-603.017 192.106,-600.557 192.821,-607.521"/>
</g>
<!-- Node42 -->
<g id="node42" class="node"><title>Node42</title>
<g id="a_node42"><a xlink:href="../../df/dec/class_front_end_1_1_view.html#ae59731d3a1fe87080d0bae87d22318e4" target="_top" xlink:title="FrontEnd.View.updateFocus">
<polygon fill="white" stroke="black" points="188.5,-549.5 188.5,-568.5 335.5,-568.5 335.5,-549.5 188.5,-549.5"/>
<text text-anchor="middle" x="262" y="-556.5" font-family="Helvetica,sans-Serif" font-size="10.00">FrontEnd.View.updateFocus</text>
</a>
</g>
</g>
<!-- Node1&#45;&gt;Node42 -->
<g id="edge42" class="edge"><title>Node1&#45;&gt;Node42</title>
<path fill="none" stroke="midnightblue" d="M116.998,-600.914C137.574,-593.579 162.963,-584.884 186,-578 194.048,-575.595 202.639,-573.232 211.027,-571.033"/>
<polygon fill="midnightblue" stroke="midnightblue" points="211.925,-574.416 220.738,-568.534 210.181,-567.637 211.925,-574.416"/>
</g>
<!-- Node3 -->
<g id="node3" class="node"><title>Node3</title>
<g id="a_node3"><a xlink:href="../../d2/d5e/class_front_end_1_1_language_selector.html#a0983f98727268c16f03d4448d618a13e" target="_top" xlink:title="FrontEnd.LanguageSelector.get\lComboBox">
<polygon fill="white" stroke="black" points="374.5,-894 374.5,-924 541.5,-924 541.5,-894 374.5,-894"/>
<text text-anchor="start" x="382.5" y="-912" font-family="Helvetica,sans-Serif" font-size="10.00">FrontEnd.LanguageSelector.get</text>
<text text-anchor="middle" x="458" y="-901" font-family="Helvetica,sans-Serif" font-size="10.00">ComboBox</text>
</a>
</g>
</g>
<!-- Node2&#45;&gt;Node3 -->
<g id="edge2" class="edge"><title>Node2&#45;&gt;Node3</title>
<path fill="none" stroke="midnightblue" d="M277.781,-809.227C297.848,-829.087 335.63,-863.685 374,-884 378.264,-886.258 382.762,-888.342 387.369,-890.261"/>
<polygon fill="midnightblue" stroke="midnightblue" points="386.347,-893.619 396.936,-893.97 388.878,-887.092 386.347,-893.619"/>
</g>
<!-- Node5 -->
<g id="node5" class="node"><title>Node5</title>
<g id="a_node5"><a xlink:href="../../d9/dae/class_backend_1_1_scene_updater.html#abff174da75dc70f3cca083770de43afe" target="_top" xlink:title="Backend.SceneUpdater.isNo\lError">
<polygon fill="white" stroke="black" points="381.5,-845 381.5,-875 534.5,-875 534.5,-845 381.5,-845"/>
<text text-anchor="start" x="389.5" y="-863" font-family="Helvetica,sans-Serif" font-size="10.00">Backend.SceneUpdater.isNo</text>
<text text-anchor="middle" x="458" y="-852" font-family="Helvetica,sans-Serif" font-size="10.00">Error</text>
</a>
</g>
</g>
<!-- Node4&#45;&gt;Node5 -->
<g id="edge4" class="edge"><title>Node4&#45;&gt;Node5</title>
<path fill="none" stroke="midnightblue" d="M268.462,-644.822C280.844,-667.087 311.989,-723.108 338,-770 354.019,-798.878 348.296,-814.266 374,-835 376.251,-836.816 378.632,-838.5 381.111,-840.062"/>
<polygon fill="midnightblue" stroke="midnightblue" points="379.424,-843.129 389.867,-844.916 382.818,-837.006 379.424,-843.129"/>
</g>
<!-- Node6 -->
<g id="node6" class="node"><title>Node6</title>
<g id="a_node6"><a xlink:href="../../df/dec/class_front_end_1_1_view.html#aba848cd44a4726c74dc85535f0c5722d" target="_top" xlink:title="FrontEnd.View.makeErrorDialog">
<polygon fill="white" stroke="black" points="375,-806.5 375,-825.5 541,-825.5 541,-806.5 375,-806.5"/>
<text text-anchor="middle" x="458" y="-813.5" font-family="Helvetica,sans-Serif" font-size="10.00">FrontEnd.View.makeErrorDialog</text>
</a>
</g>
</g>
<!-- Node4&#45;&gt;Node6 -->
<g id="edge5" class="edge"><title>Node4&#45;&gt;Node6</title>
<path fill="none" stroke="midnightblue" d="M266.771,-644.817C278.186,-673.155 315.23,-755.636 374,-796 377.574,-798.455 381.414,-800.609 385.414,-802.501"/>
<polygon fill="midnightblue" stroke="midnightblue" points="384.407,-805.871 394.986,-806.453 387.079,-799.401 384.407,-805.871"/>
</g>
<!-- Node7 -->
<g id="node7" class="node"><title>Node7</title>
<g id="a_node7"><a xlink:href="../../d9/dae/class_backend_1_1_scene_updater.html#a86172bf527ba1b205d3392ce57c54530" target="_top" xlink:title="Backend.SceneUpdater.get\lErrorMessage">
<polygon fill="white" stroke="black" points="384,-757 384,-787 532,-787 532,-757 384,-757"/>
<text text-anchor="start" x="392" y="-775" font-family="Helvetica,sans-Serif" font-size="10.00">Backend.SceneUpdater.get</text>
<text text-anchor="middle" x="458" y="-764" font-family="Helvetica,sans-Serif" font-size="10.00">ErrorMessage</text>
</a>
</g>
</g>
<!-- Node4&#45;&gt;Node7 -->
<g id="edge6" class="edge"><title>Node4&#45;&gt;Node7</title>
<path fill="none" stroke="midnightblue" d="M269.874,-644.684C285.72,-666.3 327.073,-718.793 374,-747 377.456,-749.078 381.099,-750.994 384.85,-752.761"/>
<polygon fill="midnightblue" stroke="midnightblue" points="383.786,-756.113 394.355,-756.849 386.552,-749.683 383.786,-756.113"/>
</g>
<!-- Node8 -->
<g id="node8" class="node"><title>Node8</title>
<g id="a_node8"><a xlink:href="../../d9/dae/class_backend_1_1_scene_updater.html#a23e294ce4ed4c8ef9ba9acdb68f37646" target="_top" xlink:title="Backend.SceneUpdater.get\lVariables">
<polygon fill="white" stroke="black" points="384,-708 384,-738 532,-738 532,-708 384,-708"/>
<text text-anchor="start" x="392" y="-726" font-family="Helvetica,sans-Serif" font-size="10.00">Backend.SceneUpdater.get</text>
<text text-anchor="middle" x="458" y="-715" font-family="Helvetica,sans-Serif" font-size="10.00">Variables</text>
</a>
</g>
</g>
<!-- Node4&#45;&gt;Node8 -->
<g id="edge7" class="edge"><title>Node4&#45;&gt;Node8</title>
<path fill="none" stroke="midnightblue" d="M277.536,-644.66C298.24,-658.085 337.739,-682.481 374,-698 379.407,-700.314 385.097,-702.504 390.858,-704.554"/>
<polygon fill="midnightblue" stroke="midnightblue" points="389.988,-707.955 400.582,-707.869 392.246,-701.33 389.988,-707.955"/>
</g>
<!-- Node9 -->
<g id="node9" class="node"><title>Node9</title>
<g id="a_node9"><a xlink:href="../../d4/d8a/class_turtle_view_1_1_turtle_window.html#afe0302fc0fbc1e5797b56a03c1ec84a4" target="_top" xlink:title="TurtleView.TurtleWindow.update">
<polygon fill="white" stroke="black" points="376.5,-669.5 376.5,-688.5 539.5,-688.5 539.5,-669.5 376.5,-669.5"/>
<text text-anchor="middle" x="458" y="-676.5" font-family="Helvetica,sans-Serif" font-size="10.00">TurtleView.TurtleWindow.update</text>
</a>
</g>
</g>
<!-- Node4&#45;&gt;Node9 -->
<g id="edge8" class="edge"><title>Node4&#45;&gt;Node9</title>
<path fill="none" stroke="midnightblue" d="M305.095,-644.547C334.458,-651.207 373.828,-660.136 405.13,-667.236"/>
<polygon fill="midnightblue" stroke="midnightblue" points="404.461,-670.673 414.987,-669.471 406.009,-663.846 404.461,-670.673"/>
</g>
<!-- Node10 -->
<g id="node10" class="node"><title>Node10</title>
<g id="a_node10"><a xlink:href="../../d9/dae/class_backend_1_1_scene_updater.html#a069e3ab4f9b7da6cc1cf0239082cac28" target="_top" xlink:title="Backend.SceneUpdater.get\lTurtles">
<polygon fill="white" stroke="black" points="384,-620 384,-650 532,-650 532,-620 384,-620"/>
<text text-anchor="start" x="392" y="-638" font-family="Helvetica,sans-Serif" font-size="10.00">Backend.SceneUpdater.get</text>
<text text-anchor="middle" x="458" y="-627" font-family="Helvetica,sans-Serif" font-size="10.00">Turtles</text>
</a>
</g>
</g>
<!-- Node4&#45;&gt;Node10 -->
<g id="edge9" class="edge"><title>Node4&#45;&gt;Node10</title>
<path fill="none" stroke="midnightblue" d="M338.005,-635C349.633,-635 361.706,-635 373.507,-635"/>
<polygon fill="midnightblue" stroke="midnightblue" points="373.79,-638.5 383.79,-635 373.79,-631.5 373.79,-638.5"/>
</g>
<!-- Node11 -->
<g id="node11" class="node"><title>Node11</title>
<g id="a_node11"><a xlink:href="../../df/dec/class_front_end_1_1_view.html#aa6d2d76b51cd95e66064fb2ccad96fc8" target="_top" xlink:title="FrontEnd.View.addConsole\lEntries">
<polygon fill="white" stroke="black" points="387,-571 387,-601 529,-601 529,-571 387,-571"/>
<text text-anchor="start" x="395" y="-589" font-family="Helvetica,sans-Serif" font-size="10.00">FrontEnd.View.addConsole</text>
<text text-anchor="middle" x="458" y="-578" font-family="Helvetica,sans-Serif" font-size="10.00">Entries</text>
</a>
</g>
</g>
<!-- Node4&#45;&gt;Node11 -->
<g id="edge10" class="edge"><title>Node4&#45;&gt;Node11</title>
<path fill="none" stroke="midnightblue" d="M300.866,-625.436C325.534,-619.205 358.453,-610.891 387.704,-603.503"/>
<polygon fill="midnightblue" stroke="midnightblue" points="388.628,-606.879 397.466,-601.037 386.913,-600.092 388.628,-606.879"/>
</g>
<!-- Node12 -->
<g id="node12" class="node"><title>Node12</title>
<g id="a_node12"><a xlink:href="../../d9/dae/class_backend_1_1_scene_updater.html#afe241e467e3eb888257114a8f03efee2" target="_top" xlink:title="Backend.SceneUpdater.get\lReturnValues">
<polygon fill="white" stroke="black" points="384,-522 384,-552 532,-552 532,-522 384,-522"/>
<text text-anchor="start" x="392" y="-540" font-family="Helvetica,sans-Serif" font-size="10.00">Backend.SceneUpdater.get</text>
<text text-anchor="middle" x="458" y="-529" font-family="Helvetica,sans-Serif" font-size="10.00">ReturnValues</text>
</a>
</g>
</g>
<!-- Node4&#45;&gt;Node12 -->
<g id="edge11" class="edge"><title>Node4&#45;&gt;Node12</title>
<path fill="none" stroke="midnightblue" d="M319.882,-625.423C326.314,-622.965 332.516,-619.877 338,-616 361.552,-599.347 350.824,-579.172 374,-562 376.518,-560.134 379.177,-558.406 381.935,-556.806"/>
<polygon fill="midnightblue" stroke="midnightblue" points="383.748,-559.809 391.037,-552.12 380.544,-553.586 383.748,-559.809"/>
</g>
<!-- Node13 -->
<g id="node13" class="node"><title>Node13</title>
<g id="a_node13"><a xlink:href="../../df/dec/class_front_end_1_1_view.html#a0dc533900f63d1fda3d421c4252b497d" target="_top" xlink:title="FrontEnd.View.addHistory\lEntry">
<polygon fill="white" stroke="black" points="389.5,-473 389.5,-503 526.5,-503 526.5,-473 389.5,-473"/>
<text text-anchor="start" x="397.5" y="-491" font-family="Helvetica,sans-Serif" font-size="10.00">FrontEnd.View.addHistory</text>
<text text-anchor="middle" x="458" y="-480" font-family="Helvetica,sans-Serif" font-size="10.00">Entry</text>
</a>
</g>
</g>
<!-- Node4&#45;&gt;Node13 -->
<g id="edge12" class="edge"><title>Node4&#45;&gt;Node13</title>
<path fill="none" stroke="midnightblue" d="M323.883,-625.353C329.025,-622.881 333.839,-619.81 338,-616 373.767,-583.254 338.969,-546.533 374,-513 375.95,-511.133 378.034,-509.406 380.224,-507.806"/>
<polygon fill="midnightblue" stroke="midnightblue" points="382.5,-510.512 389.136,-502.253 378.798,-504.571 382.5,-510.512"/>
</g>
<!-- Node16 -->
<g id="node16" class="node"><title>Node16</title>
<g id="a_node16"><a xlink:href="../../df/dec/class_front_end_1_1_view.html#afa6c660ce1c2e6493f471b5344638d5b" target="_top" xlink:title="FrontEnd.View.updateTurtleInfo">
<polygon fill="white" stroke="black" points="377,-434.5 377,-453.5 539,-453.5 539,-434.5 377,-434.5"/>
<text text-anchor="middle" x="458" y="-441.5" font-family="Helvetica,sans-Serif" font-size="10.00">FrontEnd.View.updateTurtleInfo</text>
</a>
</g>
</g>
<!-- Node4&#45;&gt;Node16 -->
<g id="edge15" class="edge"><title>Node4&#45;&gt;Node16</title>
<path fill="none" stroke="midnightblue" d="M325.028,-625.424C329.808,-622.925 334.23,-619.829 338,-616 386.707,-566.529 325.005,-513.186 374,-464 375.876,-462.116 377.897,-460.398 380.033,-458.832"/>
<polygon fill="midnightblue" stroke="midnightblue" points="382.053,-461.7 388.78,-453.515 378.417,-455.719 382.053,-461.7"/>
</g>
<!-- Node24 -->
<g id="node24" class="node"><title>Node24</title>
<g id="a_node24"><a xlink:href="../../d4/d8a/class_turtle_view_1_1_turtle_window.html#a0b2d9c9953cd10acd2ee6fb793bb7a9a" target="_top" xlink:title="TurtleView.TurtleWindow.get\lActiveTurtles">
<polygon fill="white" stroke="black" points="385.5,-385 385.5,-415 530.5,-415 530.5,-385 385.5,-385"/>
<text text-anchor="start" x="393.5" y="-403" font-family="Helvetica,sans-Serif" font-size="10.00">TurtleView.TurtleWindow.get</text>
<text text-anchor="middle" x="458" y="-392" font-family="Helvetica,sans-Serif" font-size="10.00">ActiveTurtles</text>
</a>
</g>
</g>
<!-- Node4&#45;&gt;Node24 -->
<g id="edge24" class="edge"><title>Node4&#45;&gt;Node24</title>
<path fill="none" stroke="midnightblue" d="M325.574,-625.416C330.177,-622.912 334.412,-619.817 338,-616 397.166,-553.059 316.248,-489.24 374,-425 375.176,-423.692 376.417,-422.451 377.716,-421.275"/>
<polygon fill="midnightblue" stroke="midnightblue" points="379.864,-424.038 385.721,-415.21 375.637,-418.459 379.864,-424.038"/>
</g>
<!-- Node14 -->
<g id="node14" class="node"><title>Node14</title>
<g id="a_node14"><a xlink:href="../../d4/d1b/class_front_end_1_1_history_box.html#a64947a52c0dbe236075698aab3d181dc" target="_top" xlink:title="FrontEnd.HistoryBox.addEntry">
<polygon fill="white" stroke="black" points="590.5,-515.5 590.5,-534.5 749.5,-534.5 749.5,-515.5 590.5,-515.5"/>
<text text-anchor="middle" x="670" y="-522.5" font-family="Helvetica,sans-Serif" font-size="10.00">FrontEnd.HistoryBox.addEntry</text>
</a>
</g>
</g>
<!-- Node13&#45;&gt;Node14 -->
<g id="edge13" class="edge"><title>Node13&#45;&gt;Node14</title>
<path fill="none" stroke="midnightblue" d="M526.601,-499.911C551.682,-504.33 580.038,-509.326 604.806,-513.69"/>
<polygon fill="midnightblue" stroke="midnightblue" points="604.366,-517.166 614.822,-515.454 605.581,-510.272 604.366,-517.166"/>
</g>
<!-- Node15 -->
<g id="node15" class="node"><title>Node15</title>
<g id="a_node15"><a xlink:href="../../de/d8a/class_front_end_1_1_user_commands.html#af04d6a5776faf7e2e99bdae3100a6add" target="_top" xlink:title="FrontEnd.UserCommands.add\lCommand">
<polygon fill="white" stroke="black" points="816.5,-548 816.5,-578 977.5,-578 977.5,-548 816.5,-548"/>
<text text-anchor="start" x="824.5" y="-566" font-family="Helvetica,sans-Serif" font-size="10.00">FrontEnd.UserCommands.add</text>
<text text-anchor="middle" x="897" y="-555" font-family="Helvetica,sans-Serif" font-size="10.00">Command</text>
</a>
</g>
</g>
<!-- Node14&#45;&gt;Node15 -->
<g id="edge14" class="edge"><title>Node14&#45;&gt;Node15</title>
<path fill="none" stroke="midnightblue" d="M727.487,-534.54C751.265,-538.556 779.525,-543.329 806.043,-547.807"/>
<polygon fill="midnightblue" stroke="midnightblue" points="805.665,-551.293 816.108,-549.507 806.831,-544.391 805.665,-551.293"/>
</g>
<!-- Node17 -->
<g id="node17" class="node"><title>Node17</title>
<g id="a_node17"><a xlink:href="../../d9/d38/class_turtle_view_1_1_turtle_information.html#ad65201793ce738f9c6d6e592271c14e1" target="_top" xlink:title="TurtleView.TurtleInformation.update">
<polygon fill="white" stroke="black" points="578.5,-434.5 578.5,-453.5 761.5,-453.5 761.5,-434.5 578.5,-434.5"/>
<text text-anchor="middle" x="670" y="-441.5" font-family="Helvetica,sans-Serif" font-size="10.00">TurtleView.TurtleInformation.update</text>
</a>
</g>
</g>
<!-- Node16&#45;&gt;Node17 -->
<g id="edge16" class="edge"><title>Node16&#45;&gt;Node17</title>
<path fill="none" stroke="midnightblue" d="M539.291,-444C548.744,-444 558.48,-444 568.169,-444"/>
<polygon fill="midnightblue" stroke="midnightblue" points="568.235,-447.5 578.235,-444 568.235,-440.5 568.235,-447.5"/>
</g>
<!-- Node18 -->
<g id="node18" class="node"><title>Node18</title>
<g id="a_node18"><a xlink:href="../../d9/d38/class_turtle_view_1_1_turtle_information.html#aca65258778dade3baa31e0d5ec643b3b" target="_top" xlink:title="TurtleView.TurtleInformation.emptyInfo">
<polygon fill="white" stroke="black" points="798.5,-509.5 798.5,-528.5 995.5,-528.5 995.5,-509.5 798.5,-509.5"/>
<text text-anchor="middle" x="897" y="-516.5" font-family="Helvetica,sans-Serif" font-size="10.00">TurtleView.TurtleInformation.emptyInfo</text>
</a>
</g>
</g>
<!-- Node17&#45;&gt;Node18 -->
<g id="edge17" class="edge"><title>Node17&#45;&gt;Node18</title>
<path fill="none" stroke="midnightblue" d="M689.427,-453.7C713.695,-466.104 757.986,-487.473 798,-500 806.899,-502.786 816.387,-505.24 825.823,-507.379"/>
<polygon fill="midnightblue" stroke="midnightblue" points="825.097,-510.803 835.611,-509.495 826.576,-503.961 825.097,-510.803"/>
</g>
<!-- Node19 -->
<g id="node19" class="node"><title>Node19</title>
<g id="a_node19"><a xlink:href="../../d1/de0/class_backend_1_1_turtle.html#adc7cb6cc95ee918547d2b18d8bb20183" target="_top" xlink:title="Backend.Turtle.getID">
<polygon fill="white" stroke="black" points="839.5,-471.5 839.5,-490.5 954.5,-490.5 954.5,-471.5 839.5,-471.5"/>
<text text-anchor="middle" x="897" y="-478.5" font-family="Helvetica,sans-Serif" font-size="10.00">Backend.Turtle.getID</text>
</a>
</g>
</g>
<!-- Node17&#45;&gt;Node19 -->
<g id="edge18" class="edge"><title>Node17&#45;&gt;Node19</title>
<path fill="none" stroke="midnightblue" d="M728.943,-453.528C759.608,-458.571 797.409,-464.787 829.293,-470.03"/>
<polygon fill="midnightblue" stroke="midnightblue" points="828.985,-473.527 839.42,-471.696 830.121,-466.619 828.985,-473.527"/>
</g>
<!-- Node20 -->
<g id="node20" class="node"><title>Node20</title>
<g id="a_node20"><a xlink:href="../../d9/d38/class_turtle_view_1_1_turtle_information.html#a15bd13ad05cabb76c0861d0ab42722ef" target="_top" xlink:title="TurtleView.TurtleInformation.truncate">
<polygon fill="white" stroke="black" points="802,-433.5 802,-452.5 992,-452.5 992,-433.5 802,-433.5"/>
<text text-anchor="middle" x="897" y="-440.5" font-family="Helvetica,sans-Serif" font-size="10.00">TurtleView.TurtleInformation.truncate</text>
</a>
</g>
</g>
<!-- Node17&#45;&gt;Node20 -->
<g id="edge19" class="edge"><title>Node17&#45;&gt;Node20</title>
<path fill="none" stroke="midnightblue" d="M761.544,-443.598C771.526,-443.553 781.749,-443.508 791.88,-443.463"/>
<polygon fill="midnightblue" stroke="midnightblue" points="791.985,-446.962 801.969,-443.418 791.954,-439.962 791.985,-446.962"/>
</g>
<!-- Node21 -->
<g id="node21" class="node"><title>Node21</title>
<g id="a_node21"><a xlink:href="../../d1/de0/class_backend_1_1_turtle.html#a715f94909b1ba74dc9e4f9eb4fd91e10" target="_top" xlink:title="Backend.Turtle.getXCord">
<polygon fill="white" stroke="black" points="830.5,-395.5 830.5,-414.5 963.5,-414.5 963.5,-395.5 830.5,-395.5"/>
<text text-anchor="middle" x="897" y="-402.5" font-family="Helvetica,sans-Serif" font-size="10.00">Backend.Turtle.getXCord</text>
</a>
</g>
</g>
<!-- Node17&#45;&gt;Node21 -->
<g id="edge20" class="edge"><title>Node17&#45;&gt;Node21</title>
<path fill="none" stroke="midnightblue" d="M726.041,-434.46C757.757,-428.962 797.801,-422.021 831.053,-416.257"/>
<polygon fill="midnightblue" stroke="midnightblue" points="831.882,-419.666 841.138,-414.509 830.687,-412.769 831.882,-419.666"/>
</g>
<!-- Node23 -->
<g id="node23" class="node"><title>Node23</title>
<g id="a_node23"><a xlink:href="../../d1/de0/class_backend_1_1_turtle.html#a692174eccea232fc58e725cff6f50359" target="_top" xlink:title="Backend.Turtle.getYCord">
<polygon fill="white" stroke="black" points="831,-357.5 831,-376.5 963,-376.5 963,-357.5 831,-357.5"/>
<text text-anchor="middle" x="897" y="-364.5" font-family="Helvetica,sans-Serif" font-size="10.00">Backend.Turtle.getYCord</text>
</a>
</g>
</g>
<!-- Node17&#45;&gt;Node23 -->
<g id="edge22" class="edge"><title>Node17&#45;&gt;Node23</title>
<path fill="none" stroke="midnightblue" d="M739.779,-434.47C747.54,-432.002 755.12,-428.899 762,-425 782.522,-413.369 777.395,-397.484 798,-386 805.157,-382.011 813.013,-378.848 821.066,-376.341"/>
<polygon fill="midnightblue" stroke="midnightblue" points="822.252,-379.644 830.952,-373.597 820.38,-372.899 822.252,-379.644"/>
</g>
<!-- Node22 -->
<g id="node22" class="node"><title>Node22</title>
<g id="a_node22"><a xlink:href="../../d1/de0/class_backend_1_1_turtle.html#a33957258db9a7205d470c5a2d22b89af" target="_top" xlink:title="Backend.Turtle.getLocation">
<polygon fill="white" stroke="black" points="1032,-376.5 1032,-395.5 1178,-395.5 1178,-376.5 1032,-376.5"/>
<text text-anchor="middle" x="1105" y="-383.5" font-family="Helvetica,sans-Serif" font-size="10.00">Backend.Turtle.getLocation</text>
</a>
</g>
</g>
<!-- Node21&#45;&gt;Node22 -->
<g id="edge21" class="edge"><title>Node21&#45;&gt;Node22</title>
<path fill="none" stroke="midnightblue" d="M963.746,-398.936C982.196,-397.234 1002.49,-395.363 1021.77,-393.584"/>
<polygon fill="midnightblue" stroke="midnightblue" points="1022.11,-397.068 1031.74,-392.664 1021.46,-390.098 1022.11,-397.068"/>
</g>
<!-- Node23&#45;&gt;Node22 -->
<g id="edge23" class="edge"><title>Node23&#45;&gt;Node22</title>
<path fill="none" stroke="midnightblue" d="M963.18,-373.012C981.749,-374.724 1002.22,-376.613 1021.67,-378.407"/>
<polygon fill="midnightblue" stroke="midnightblue" points="1021.45,-381.901 1031.73,-379.335 1022.1,-374.931 1021.45,-381.901"/>
</g>
<!-- Node26 -->
<g id="node26" class="node"><title>Node26</title>
<g id="a_node26"><a xlink:href="../../da/d3c/class_backend_1_1_model.html#a3b4294a767985d6585d71cfe0293fba2" target="_top" xlink:title="Backend.Model.makeTreeand\lAddValues">
<polygon fill="white" stroke="black" points="379.5,-322 379.5,-352 536.5,-352 536.5,-322 379.5,-322"/>
<text text-anchor="start" x="387.5" y="-340" font-family="Helvetica,sans-Serif" font-size="10.00">Backend.Model.makeTreeand</text>
<text text-anchor="middle" x="458" y="-329" font-family="Helvetica,sans-Serif" font-size="10.00">AddValues</text>
</a>
</g>
</g>
<!-- Node25&#45;&gt;Node26 -->
<g id="edge26" class="edge"><title>Node25&#45;&gt;Node26</title>
<path fill="none" stroke="midnightblue" d="M321.65,-589.445C327.778,-586.64 333.426,-582.918 338,-578 400.398,-510.899 317.93,-447.472 374,-375 379.626,-367.728 386.965,-361.8 394.951,-356.981"/>
<polygon fill="midnightblue" stroke="midnightblue" points="396.696,-360.017 403.821,-352.176 393.361,-353.862 396.696,-360.017"/>
</g>
<!-- Node27 -->
<g id="node27" class="node"><title>Node27</title>
<g id="a_node27"><a xlink:href="../../da/de9/class_backend_1_1_parser.html#afd0ff53630ea682c6fd3e0144f413000" target="_top" xlink:title="Backend.Parser.getMap">
<polygon fill="white" stroke="black" points="605.5,-396.5 605.5,-415.5 734.5,-415.5 734.5,-396.5 605.5,-396.5"/>
<text text-anchor="middle" x="670" y="-403.5" font-family="Helvetica,sans-Serif" font-size="10.00">Backend.Parser.getMap</text>
</a>
</g>
</g>
<!-- Node26&#45;&gt;Node27 -->
<g id="edge27" class="edge"><title>Node26&#45;&gt;Node27</title>
<path fill="none" stroke="midnightblue" d="M490.204,-352.058C513.857,-362.99 547.403,-377.475 578,-387 586.601,-389.677 595.776,-392.091 604.868,-394.227"/>
<polygon fill="midnightblue" stroke="midnightblue" points="604.144,-397.652 614.669,-396.437 605.683,-390.823 604.144,-397.652"/>
</g>
<!-- Node28 -->
<g id="node28" class="node"><title>Node28</title>
<g id="a_node28"><a xlink:href="../../da/de9/class_backend_1_1_parser.html#acb55abf150a283af483433e9296e0a76" target="_top" xlink:title="Backend.Parser.getNoError">
<polygon fill="white" stroke="black" points="597,-358.5 597,-377.5 743,-377.5 743,-358.5 597,-358.5"/>
<text text-anchor="middle" x="670" y="-365.5" font-family="Helvetica,sans-Serif" font-size="10.00">Backend.Parser.getNoError</text>
</a>
</g>
</g>
<!-- Node26&#45;&gt;Node28 -->
<g id="edge28" class="edge"><title>Node26&#45;&gt;Node28</title>
<path fill="none" stroke="midnightblue" d="M536.6,-348.455C555.516,-351.248 575.708,-354.228 594.478,-356.999"/>
<polygon fill="midnightblue" stroke="midnightblue" points="594.04,-360.472 604.444,-358.47 595.062,-353.547 594.04,-360.472"/>
</g>
<!-- Node29 -->
<g id="node29" class="node"><title>Node29</title>
<g id="a_node29"><a xlink:href="../../da/de9/class_backend_1_1_parser.html#a1de7bf91dcf43ce4bc3db66df4074c30" target="_top" xlink:title="Backend.Parser.getQueueOf\lNodes">
<polygon fill="white" stroke="black" points="594.5,-309 594.5,-339 745.5,-339 745.5,-309 594.5,-309"/>
<text text-anchor="start" x="602.5" y="-327" font-family="Helvetica,sans-Serif" font-size="10.00">Backend.Parser.getQueueOf</text>
<text text-anchor="middle" x="670" y="-316" font-family="Helvetica,sans-Serif" font-size="10.00">Nodes</text>
</a>
</g>
</g>
<!-- Node26&#45;&gt;Node29 -->
<g id="edge29" class="edge"><title>Node26&#45;&gt;Node29</title>
<path fill="none" stroke="midnightblue" d="M536.6,-332.196C552.03,-331.241 568.31,-330.233 583.974,-329.264"/>
<polygon fill="midnightblue" stroke="midnightblue" points="584.399,-332.744 594.164,-328.633 583.966,-325.757 584.399,-332.744"/>
</g>
<!-- Node31 -->
<g id="node31" class="node"><title>Node31</title>
<g id="a_node31"><a xlink:href="../../da/de9/class_backend_1_1_parser.html#a3fc5e64b991a86b2efc668961650202e" target="_top" xlink:title="Backend.Parser.newInfo">
<polygon fill="white" stroke="black" points="605.5,-270.5 605.5,-289.5 734.5,-289.5 734.5,-270.5 605.5,-270.5"/>
<text text-anchor="middle" x="670" y="-277.5" font-family="Helvetica,sans-Serif" font-size="10.00">Backend.Parser.newInfo</text>
</a>
</g>
</g>
<!-- Node26&#45;&gt;Node31 -->
<g id="edge31" class="edge"><title>Node26&#45;&gt;Node31</title>
<path fill="none" stroke="midnightblue" d="M502.483,-321.925C524.881,-314.464 552.728,-305.654 578,-299 587.935,-296.384 598.556,-293.894 608.907,-291.63"/>
<polygon fill="midnightblue" stroke="midnightblue" points="609.671,-295.045 618.718,-289.531 608.207,-288.2 609.671,-295.045"/>
</g>
<!-- Node34 -->
<g id="node34" class="node"><title>Node34</title>
<g id="a_node34"><a xlink:href="../../db/d5d/class_backend_1_1_a_s_t.html#a1570c419383f1993e4b7df53d536035e" target="_top" xlink:title="Backend.AST.populateTree">
<polygon fill="white" stroke="black" points="598.5,-114.5 598.5,-133.5 741.5,-133.5 741.5,-114.5 598.5,-114.5"/>
<text text-anchor="middle" x="670" y="-121.5" font-family="Helvetica,sans-Serif" font-size="10.00">Backend.AST.populateTree</text>
</a>
</g>
</g>
<!-- Node26&#45;&gt;Node34 -->
<g id="edge34" class="edge"><title>Node26&#45;&gt;Node34</title>
<path fill="none" stroke="midnightblue" d="M474.103,-321.682C512.191,-283.049 611.971,-181.844 652.012,-141.231"/>
<polygon fill="midnightblue" stroke="midnightblue" points="654.659,-143.531 659.188,-133.952 649.675,-138.616 654.659,-143.531"/>
</g>
<!-- Node30 -->
<g id="node30" class="node"><title>Node30</title>
<g id="a_node30"><a xlink:href="../../da/de9/class_backend_1_1_parser.html#a249b99650270f42aabd1aad4d2352606" target="_top" xlink:title="Backend.Parser.getNextString">
<polygon fill="white" stroke="black" points="817,-316.5 817,-335.5 977,-335.5 977,-316.5 817,-316.5"/>
<text text-anchor="middle" x="897" y="-323.5" font-family="Helvetica,sans-Serif" font-size="10.00">Backend.Parser.getNextString</text>
</a>
</g>
</g>
<!-- Node29&#45;&gt;Node30 -->
<g id="edge30" class="edge"><title>Node29&#45;&gt;Node30</title>
<path fill="none" stroke="midnightblue" d="M745.609,-324.663C765.198,-324.837 786.521,-325.027 806.79,-325.207"/>
<polygon fill="midnightblue" stroke="midnightblue" points="806.929,-328.708 816.96,-325.297 806.991,-321.709 806.929,-328.708"/>
</g>
<!-- Node32 -->
<g id="node32" class="node"><title>Node32</title>
<g id="a_node32"><a xlink:href="../../da/de9/class_backend_1_1_parser.html#a57ac3fe734297dc7b65d56ab69a19fc6" target="_top" xlink:title="Backend.Parser.convert">
<polygon fill="white" stroke="black" points="832.5,-278.5 832.5,-297.5 961.5,-297.5 961.5,-278.5 832.5,-278.5"/>
<text text-anchor="middle" x="897" y="-285.5" font-family="Helvetica,sans-Serif" font-size="10.00">Backend.Parser.convert</text>
</a>
</g>
</g>
<!-- Node31&#45;&gt;Node32 -->
<g id="edge32" class="edge"><title>Node31&#45;&gt;Node32</title>
<path fill="none" stroke="midnightblue" d="M734.574,-282.26C761.772,-283.227 793.709,-284.363 821.965,-285.368"/>
<polygon fill="midnightblue" stroke="midnightblue" points="822.075,-288.874 832.193,-285.731 822.324,-281.878 822.075,-288.874"/>
</g>
<!-- Node33 -->
<g id="node33" class="node"><title>Node33</title>
<g id="a_node33"><a xlink:href="../../da/de9/class_backend_1_1_parser.html#af7a0fc52eb5fe8714367d85241ba9e84" target="_top" xlink:title="Backend.Parser.convertResource\lBundleToMap">
<polygon fill="white" stroke="black" points="810.5,-229 810.5,-259 983.5,-259 983.5,-229 810.5,-229"/>
<text text-anchor="start" x="818.5" y="-247" font-family="Helvetica,sans-Serif" font-size="10.00">Backend.Parser.convertResource</text>
<text text-anchor="middle" x="897" y="-236" font-family="Helvetica,sans-Serif" font-size="10.00">BundleToMap</text>
</a>
</g>
</g>
<!-- Node31&#45;&gt;Node33 -->
<g id="edge33" class="edge"><title>Node31&#45;&gt;Node33</title>
<path fill="none" stroke="midnightblue" d="M730.41,-270.494C751.828,-267.068 776.576,-263.108 800.304,-259.311"/>
<polygon fill="midnightblue" stroke="midnightblue" points="801.077,-262.732 810.398,-257.696 799.971,-255.82 801.077,-262.732"/>
</g>
<!-- Node35 -->
<g id="node35" class="node"><title>Node35</title>
<g id="a_node35"><a xlink:href="../../df/dac/class_nodes_1_1_node.html#ae200fe31f562bfb695af21f5673b8345" target="_top" xlink:title="Nodes.Node.addChildren">
<polygon fill="white" stroke="black" points="829,-190.5 829,-209.5 965,-209.5 965,-190.5 829,-190.5"/>
<text text-anchor="middle" x="897" y="-197.5" font-family="Helvetica,sans-Serif" font-size="10.00">Nodes.Node.addChildren</text>
</a>
</g>
</g>
<!-- Node34&#45;&gt;Node35 -->
<g id="edge35" class="edge"><title>Node34&#45;&gt;Node35</title>
<path fill="none" stroke="midnightblue" d="M688.988,-133.673C713.138,-146.284 757.68,-168.232 798,-181 806.675,-183.747 815.915,-186.167 825.122,-188.278"/>
<polygon fill="midnightblue" stroke="midnightblue" points="824.555,-191.736 835.072,-190.448 826.047,-184.897 824.555,-191.736"/>
</g>
<!-- Node37 -->
<g id="node37" class="node"><title>Node37</title>
<g id="a_node37"><a xlink:href="../../df/dac/class_nodes_1_1_node.html#ace0ce29f3bed613594598fab03985985" target="_top" xlink:title="Nodes.Node.clearChildren">
<polygon fill="white" stroke="black" points="826.5,-152.5 826.5,-171.5 967.5,-171.5 967.5,-152.5 826.5,-152.5"/>
<text text-anchor="middle" x="897" y="-159.5" font-family="Helvetica,sans-Serif" font-size="10.00">Nodes.Node.clearChildren</text>
</a>
</g>
</g>
<!-- Node34&#45;&gt;Node37 -->
<g id="edge37" class="edge"><title>Node34&#45;&gt;Node37</title>
<path fill="none" stroke="midnightblue" d="M727.487,-133.54C758.379,-138.757 796.837,-145.253 829.21,-150.72"/>
<polygon fill="midnightblue" stroke="midnightblue" points="829.047,-154.242 839.49,-152.456 830.213,-147.34 829.047,-154.242"/>
</g>
<!-- Node38 -->
<g id="node38" class="node"><title>Node38</title>
<g id="a_node38"><a xlink:href="../../df/dac/class_nodes_1_1_node.html#a74e0332d0a40c6575211d9c7e5432df1" target="_top" xlink:title="Nodes.Node.getParent">
<polygon fill="white" stroke="black" points="834.5,-114.5 834.5,-133.5 959.5,-133.5 959.5,-114.5 834.5,-114.5"/>
<text text-anchor="middle" x="897" y="-121.5" font-family="Helvetica,sans-Serif" font-size="10.00">Nodes.Node.getParent</text>
</a>
</g>
</g>
<!-- Node34&#45;&gt;Node38 -->
<g id="edge38" class="edge"><title>Node34&#45;&gt;Node38</title>
<path fill="none" stroke="midnightblue" d="M741.574,-124C767.856,-124 797.7,-124 824.1,-124"/>
<polygon fill="midnightblue" stroke="midnightblue" points="824.414,-127.5 834.414,-124 824.414,-120.5 824.414,-127.5"/>
</g>
<!-- Node39 -->
<g id="node39" class="node"><title>Node39</title>
<g id="a_node39"><a xlink:href="../../df/dac/class_nodes_1_1_node.html#aec63a25442128910503dee368ee4328b" target="_top" xlink:title="Nodes.Node.isFinished">
<polygon fill="white" stroke="black" points="834.5,-76.5 834.5,-95.5 959.5,-95.5 959.5,-76.5 834.5,-76.5"/>
<text text-anchor="middle" x="897" y="-83.5" font-family="Helvetica,sans-Serif" font-size="10.00">Nodes.Node.isFinished</text>
</a>
</g>
</g>
<!-- Node34&#45;&gt;Node39 -->
<g id="edge39" class="edge"><title>Node34&#45;&gt;Node39</title>
<path fill="none" stroke="midnightblue" d="M727.487,-114.46C758.379,-109.243 796.837,-102.747 829.21,-97.28"/>
<polygon fill="midnightblue" stroke="midnightblue" points="830.213,-100.66 839.49,-95.5439 829.047,-93.7581 830.213,-100.66"/>
</g>
<!-- Node40 -->
<g id="node40" class="node"><title>Node40</title>
<g id="a_node40"><a xlink:href="../../df/dac/class_nodes_1_1_node.html#a072be25270214e88e4f3d954edd4e98d" target="_top" xlink:title="Nodes.Node.returnPrintValue">
<polygon fill="white" stroke="black" points="819,-38.5 819,-57.5 975,-57.5 975,-38.5 819,-38.5"/>
<text text-anchor="middle" x="897" y="-45.5" font-family="Helvetica,sans-Serif" font-size="10.00">Nodes.Node.returnPrintValue</text>
</a>
</g>
</g>
<!-- Node34&#45;&gt;Node40 -->
<g id="edge40" class="edge"><title>Node34&#45;&gt;Node40</title>
<path fill="none" stroke="midnightblue" d="M688.988,-114.327C713.138,-101.716 757.68,-79.7684 798,-67 806.675,-64.2527 815.915,-61.8331 825.122,-59.7223"/>
<polygon fill="midnightblue" stroke="midnightblue" points="826.047,-63.1028 835.072,-57.5522 824.555,-56.2636 826.047,-63.1028"/>
</g>
<!-- Node41 -->
<g id="node41" class="node"><title>Node41</title>
<g id="a_node41"><a xlink:href="../../df/dac/class_nodes_1_1_node.html#adf0f88f5b587f4324d763d63b743bb29" target="_top" xlink:title="Nodes.Node.update">
<polygon fill="white" stroke="black" points="840.5,-0.5 840.5,-19.5 953.5,-19.5 953.5,-0.5 840.5,-0.5"/>
<text text-anchor="middle" x="897" y="-7.5" font-family="Helvetica,sans-Serif" font-size="10.00">Nodes.Node.update</text>
</a>
</g>
</g>
<!-- Node34&#45;&gt;Node41 -->
<g id="edge41" class="edge"><title>Node34&#45;&gt;Node41</title>
<path fill="none" stroke="midnightblue" d="M680.527,-114.392C700.424,-94.9303 748.654,-50.8518 798,-29 808.07,-24.5408 819.179,-21.1246 830.191,-18.5085"/>
<polygon fill="midnightblue" stroke="midnightblue" points="831.216,-21.8676 840.244,-16.3238 829.729,-15.0273 831.216,-21.8676"/>
</g>
<!-- Node36 -->
<g id="node36" class="node"><title>Node36</title>
<g id="a_node36"><a xlink:href="../../df/dac/class_nodes_1_1_node.html#a95dd6a377e7e4db934301bd83ddfd12c" target="_top" xlink:title="Nodes.Node.setParent">
<polygon fill="white" stroke="black" points="1042.5,-190.5 1042.5,-209.5 1167.5,-209.5 1167.5,-190.5 1042.5,-190.5"/>
<text text-anchor="middle" x="1105" y="-197.5" font-family="Helvetica,sans-Serif" font-size="10.00">Nodes.Node.setParent</text>
</a>
</g>
</g>
<!-- Node35&#45;&gt;Node36 -->
<g id="edge36" class="edge"><title>Node35&#45;&gt;Node36</title>
<path fill="none" stroke="midnightblue" d="M965.167,-200C986.554,-200 1010.3,-200 1032.01,-200"/>
<polygon fill="midnightblue" stroke="midnightblue" points="1032.16,-203.5 1042.16,-200 1032.16,-196.5 1032.16,-203.5"/>
</g>
</g>
</svg>
        <g id="navigator" transform="translate(0 0)" fill="#404254">
                <rect fill="#f2f5e9" fill-opacity="0.5" stroke="#606060" stroke-width=".5" x="0" y="0" width="60" height="60"/>
                <use id="zoomplus" xlink:href="#zoomPlus" x="17" y="9" onmousedown="handleZoom(evt,'in')"/>
                <use id="zoomminus" xlink:href="#zoomMin" x="42" y="9" onmousedown="handleZoom(evt,'out')"/>
                <use id="reset" xlink:href="#resetDef" x="30" y="36" onmousedown="handleReset()"/>
                <g id="arrowUp" xlink:href="#dirArrow" transform="translate(30 24)" onmousedown="handlePan(0,-1)">
                  <use xlink:href="#rim" fill="#404040">
                        <set attributeName="fill" to="#808080" begin="arrowUp.mouseover" end="arrowUp.mouseout"/>
                  </use>
                  <path fill="none" stroke="white" stroke-width="1.5" d="M0,-3.0v7 M-2.5,-0.5L0,-3.0L2.5,-0.5"/>
                </g>
                <g id="arrowRight" xlink:href="#dirArrow" transform="rotate(90) translate(36 -43)" onmousedown="handlePan(1,0)">
                  <use xlink:href="#rim" fill="#404040">
                        <set attributeName="fill" to="#808080" begin="arrowRight.mouseover" end="arrowRight.mouseout"/>
                  </use>
                  <path fill="none" stroke="white" stroke-width="1.5" d="M0,-3.0v7 M-2.5,-0.5L0,-3.0L2.5,-0.5"/>
                </g>
                <g id="arrowDown" xlink:href="#dirArrow" transform="rotate(180) translate(-30 -48)" onmousedown="handlePan(0,1)">
                  <use xlink:href="#rim" fill="#404040">
                        <set attributeName="fill" to="#808080" begin="arrowDown.mouseover" end="arrowDown.mouseout"/>
                  </use>
                  <path fill="none" stroke="white" stroke-width="1.5" d="M0,-3.0v7 M-2.5,-0.5L0,-3.0L2.5,-0.5"/>
                </g>
                <g id="arrowLeft" xlink:href="#dirArrow" transform="rotate(270) translate(-36 17)" onmousedown="handlePan(-1,0)">
                  <use xlink:href="#rim" fill="#404040">
                        <set attributeName="fill" to="#808080" begin="arrowLeft.mouseover" end="arrowLeft.mouseout"/>
                  </use>
                  <path fill="none" stroke="white" stroke-width="1.5" d="M0,-3.0v7 M-2.5,-0.5L0,-3.0L2.5,-0.5"/>
                </g>
        </g>
        <svg viewBox="0 0 15 15" width="100%" height="30px" preserveAspectRatio="xMaxYMin meet">
         <g id="arrow_out" transform="scale(0.3 0.3)">
          <a xlink:href="class_front_end_1_1_controller_a41885f349a8f334750e26d685a8981d2_cgraph_org.svg" target="_base">
           <rect id="button" ry="5" rx="5" y="6" x="6" height="38" width="38"
                fill="#f2f5e9" fill-opacity="0.5" stroke="#606060" stroke-width="1.0"/>
           <path id="arrow"
             d="M 11.500037,31.436501 C 11.940474,20.09759 22.043105,11.32322 32.158766,21.979434 L 37.068811,17.246167 C 37.068811,17.246167 37.088388,32 37.088388,32 L 22.160133,31.978069 C 22.160133,31.978069 26.997745,27.140456 26.997745,27.140456 C 18.528582,18.264221 13.291696,25.230495 11.500037,31.436501 z"
             style="fill:#404040;"/>
          </a>
         </g>
        </svg>
</svg>
