<?xml version="1.0" encoding="UTF-8" standalone="no"?>
<!DOCTYPE svg PUBLIC "-//W3C//DTD SVG 1.1//EN"
 "http://www.w3.org/Graphics/SVG/1.1/DTD/svg11.dtd">
<!-- Generated by graphviz version 2.36.0 (20140111.2315)
 -->
<!-- Title: TurtleView.TurtleInformation Pages: 1 -->
<svg width="1122pt" height="465pt"
 viewBox="0.00 0.00 1122.00 465.00" xmlns="http://www.w3.org/2000/svg" xmlns:xlink="http://www.w3.org/1999/xlink">
<g id="graph0" class="graph" transform="scale(1 1) rotate(0) translate(4 461)">
<title>TurtleView.TurtleInformation</title>
<polygon fill="white" stroke="none" points="-4,4 -4,-461 1118,-461 1118,4 -4,4"/>
<!-- Node1 -->
<g id="node1" class="node"><title>Node1</title>
<polygon fill="#bfbfbf" stroke="black" points="502,-155.5 502,-174.5 648,-174.5 648,-155.5 502,-155.5"/>
<text text-anchor="middle" x="575" y="-162.5" font-family="Helvetica,sans-Serif" font-size="10.00">TurtleView.TurtleInformation</text>
</g>
<!-- Node3 -->
<g id="node3" class="node"><title>Node3</title>
<g id="a_node3"><a xlink:href="../../d1/de0/class_backend_1_1_turtle.html" target="_top" xlink:title="Backend.Turtle">
<polygon fill="white" stroke="black" points="784,-235.5 784,-254.5 870,-254.5 870,-235.5 784,-235.5"/>
<text text-anchor="middle" x="827" y="-242.5" font-family="Helvetica,sans-Serif" font-size="10.00">Backend.Turtle</text>
</a>
</g>
</g>
<!-- Node1&#45;&gt;Node3 -->
<g id="edge4" class="edge"><title>Node1&#45;&gt;Node3</title>
<path fill="none" stroke="#9a32cd" stroke-dasharray="5,2" d="M637.692,-176.617C675.447,-184.694 724.34,-196.904 766,-213 781.747,-219.084 798.624,-228.356 810.454,-235.356"/>
<polygon fill="#9a32cd" stroke="#9a32cd" points="638.356,-173.181 627.85,-174.551 636.918,-180.031 638.356,-173.181"/>
<text text-anchor="middle" x="716" y="-216" font-family="Helvetica,sans-Serif" font-size="10.00"> myTurtleInformation</text>
</g>
<!-- Node2 -->
<g id="node2" class="node"><title>Node2</title>
<polygon fill="white" stroke="#bfbfbf" points="291.5,-165.5 291.5,-184.5 332.5,-184.5 332.5,-165.5 291.5,-165.5"/>
<text text-anchor="middle" x="312" y="-172.5" font-family="Helvetica,sans-Serif" font-size="10.00">VBox</text>
</g>
<!-- Node2&#45;&gt;Node1 -->
<g id="edge1" class="edge"><title>Node2&#45;&gt;Node1</title>
<path fill="none" stroke="midnightblue" d="M342.625,-173.865C381.05,-172.393 449.364,-169.775 501.836,-167.765"/>
<polygon fill="midnightblue" stroke="midnightblue" points="342.476,-170.368 332.617,-174.248 342.744,-177.363 342.476,-170.368"/>
</g>
<!-- Node10 -->
<g id="node10" class="node"><title>Node10</title>
<g id="a_node10"><a xlink:href="../../d0/d46/class_pen_1_1_pen_options.html" target="_top" xlink:title="Pen.PenOptions">
<polygon fill="white" stroke="black" points="529,-214.5 529,-233.5 621,-233.5 621,-214.5 529,-214.5"/>
<text text-anchor="middle" x="575" y="-221.5" font-family="Helvetica,sans-Serif" font-size="10.00">Pen.PenOptions</text>
</a>
</g>
</g>
<!-- Node2&#45;&gt;Node10 -->
<g id="edge12" class="edge"><title>Node2&#45;&gt;Node10</title>
<path fill="none" stroke="midnightblue" d="M342.712,-180.578C388.191,-189.116 475.394,-205.488 528.763,-215.507"/>
<polygon fill="midnightblue" stroke="midnightblue" points="343.092,-177.088 332.617,-178.683 341.8,-183.968 343.092,-177.088"/>
</g>
<!-- Node3&#45;&gt;Node1 -->
<g id="edge2" class="edge"><title>Node3&#45;&gt;Node1</title>
<path fill="none" stroke="#9a32cd" stroke-dasharray="5,2" d="M818.646,-225.908C809.661,-205.591 792.325,-174.548 766,-161 715.834,-135.184 647.912,-145.641 608.338,-155.432"/>
<polygon fill="#9a32cd" stroke="#9a32cd" points="815.521,-227.51 822.587,-235.405 821.987,-224.827 815.521,-227.51"/>
<text text-anchor="middle" x="716" y="-164" font-family="Helvetica,sans-Serif" font-size="10.00"> myTurtle</text>
</g>
<!-- Node6 -->
<g id="node6" class="node"><title>Node6</title>
<g id="a_node6"><a xlink:href="../../dc/d04/class_turtle_view_1_1_turtle_image_box.html" target="_top" xlink:title="TurtleView.TurtleImageBox">
<polygon fill="white" stroke="black" points="974,-269.5 974,-288.5 1114,-288.5 1114,-269.5 974,-269.5"/>
<text text-anchor="middle" x="1044" y="-276.5" font-family="Helvetica,sans-Serif" font-size="10.00">TurtleView.TurtleImageBox</text>
</a>
</g>
</g>
<!-- Node3&#45;&gt;Node6 -->
<g id="edge8" class="edge"><title>Node3&#45;&gt;Node6</title>
<path fill="none" stroke="#9a32cd" stroke-dasharray="5,2" d="M880.305,-255.642C882.904,-256.114 885.48,-256.57 888,-257 915.997,-261.783 946.965,-266.327 973.813,-270.03"/>
<polygon fill="#9a32cd" stroke="#9a32cd" points="880.704,-252.156 870.23,-253.757 879.416,-259.036 880.704,-252.156"/>
<text text-anchor="middle" x="922" y="-271" font-family="Helvetica,sans-Serif" font-size="10.00"> myTurtle</text>
</g>
<!-- Node4 -->
<g id="node4" class="node"><title>Node4</title>
<polygon fill="white" stroke="#bfbfbf" points="541,-0.5 541,-19.5 609,-19.5 609,-0.5 541,-0.5"/>
<text text-anchor="middle" x="575" y="-7.5" font-family="Helvetica,sans-Serif" font-size="10.00">ImageView</text>
</g>
<!-- Node4&#45;&gt;Node3 -->
<g id="edge3" class="edge"><title>Node4&#45;&gt;Node3</title>
<path fill="none" stroke="midnightblue" d="M619.36,-5.14212C661.882,-2.88529 725.989,-6.54236 766,-42 825.134,-94.4042 827.262,-201.969 826.426,-235.079"/>
<polygon fill="midnightblue" stroke="midnightblue" points="619.056,-1.65453 609.308,-5.80647 619.517,-8.6393 619.056,-1.65453"/>
</g>
<!-- Node5 -->
<g id="node5" class="node"><title>Node5</title>
<polygon fill="white" stroke="#bfbfbf" points="548,-328.5 548,-347.5 602,-347.5 602,-328.5 548,-328.5"/>
<text text-anchor="middle" x="575" y="-335.5" font-family="Helvetica,sans-Serif" font-size="10.00">Point2D</text>
</g>
<!-- Node5&#45;&gt;Node3 -->
<g id="edge5" class="edge"><title>Node5&#45;&gt;Node3</title>
<path fill="none" stroke="#9a32cd" stroke-dasharray="5,2" d="M612.231,-338.415C652.086,-337.439 716.981,-331.536 766,-306 789.714,-293.647 809.743,-268.508 819.546,-254.67"/>
<polygon fill="#9a32cd" stroke="#9a32cd" points="612.12,-334.916 602.175,-338.569 612.227,-341.915 612.12,-334.916"/>
<text text-anchor="middle" x="716" y="-338" font-family="Helvetica,sans-Serif" font-size="10.00"> myLocation</text>
</g>
<!-- Node6&#45;&gt;Node3 -->
<g id="edge6" class="edge"><title>Node6&#45;&gt;Node3</title>
<path fill="none" stroke="#9a32cd" stroke-dasharray="5,2" d="M1014.7,-265.338C998.039,-258.044 976.308,-249.804 956,-246 927.713,-240.701 895.29,-240.507 870.154,-241.61"/>
<polygon fill="#9a32cd" stroke="#9a32cd" points="1013.33,-268.556 1023.88,-269.483 1016.21,-262.177 1013.33,-268.556"/>
<text text-anchor="middle" x="922" y="-249" font-family="Helvetica,sans-Serif" font-size="10.00"> myImageBox</text>
</g>
<!-- Node7 -->
<g id="node7" class="node"><title>Node7</title>
<polygon fill="white" stroke="#bfbfbf" points="3,-330 3,-360 129,-360 129,-330 3,-330"/>
<text text-anchor="start" x="11" y="-348" font-family="Helvetica,sans-Serif" font-size="10.00">javafx::scene::control</text>
<text text-anchor="middle" x="66" y="-337" font-family="Helvetica,sans-Serif" font-size="10.00">::ComboBox&lt; String &gt;</text>
</g>
<!-- Node7&#45;&gt;Node6 -->
<g id="edge7" class="edge"><title>Node7&#45;&gt;Node6</title>
<path fill="none" stroke="midnightblue" d="M108.315,-364.222C156.053,-384.639 237.485,-414 311,-414 311,-414 311,-414 828,-414 922.32,-414 1009.19,-319.663 1035.15,-288.709"/>
<polygon fill="midnightblue" stroke="midnightblue" points="109.508,-360.924 98.9418,-360.142 106.714,-367.343 109.508,-360.924"/>
</g>
<!-- Node11 -->
<g id="node11" class="node"><title>Node11</title>
<g id="a_node11"><a xlink:href="../../d6/da0/class_pen_1_1_pen_type_box.html" target="_top" xlink:title="Pen.PenTypeBox">
<polygon fill="white" stroke="black" points="264.5,-290.5 264.5,-309.5 359.5,-309.5 359.5,-290.5 264.5,-290.5"/>
<text text-anchor="middle" x="312" y="-297.5" font-family="Helvetica,sans-Serif" font-size="10.00">Pen.PenTypeBox</text>
</a>
</g>
</g>
<!-- Node7&#45;&gt;Node11 -->
<g id="edge14" class="edge"><title>Node7&#45;&gt;Node11</title>
<path fill="none" stroke="midnightblue" d="M139.281,-331.669C179.723,-324.211 228.958,-315.131 264.322,-308.609"/>
<polygon fill="midnightblue" stroke="midnightblue" points="138.402,-328.272 129.203,-333.528 139.672,-335.156 138.402,-328.272"/>
</g>
<!-- Node14 -->
<g id="node14" class="node"><title>Node14</title>
<g id="a_node14"><a xlink:href="../../df/d6f/class_pen_1_1_pen_color_box.html" target="_top" xlink:title="Pen.PenColorBox">
<polygon fill="white" stroke="black" points="263,-328.5 263,-347.5 361,-347.5 361,-328.5 263,-328.5"/>
<text text-anchor="middle" x="312" y="-335.5" font-family="Helvetica,sans-Serif" font-size="10.00">Pen.PenColorBox</text>
</a>
</g>
</g>
<!-- Node7&#45;&gt;Node14 -->
<g id="edge18" class="edge"><title>Node7&#45;&gt;Node14</title>
<path fill="none" stroke="midnightblue" d="M139.397,-342.923C179.228,-341.78 227.56,-340.394 262.768,-339.384"/>
<polygon fill="midnightblue" stroke="midnightblue" points="139.098,-339.43 129.203,-343.215 139.299,-346.427 139.098,-339.43"/>
</g>
<!-- Node8 -->
<g id="node8" class="node"><title>Node8</title>
<g id="a_node8"><a xlink:href="../../dc/ded/class_turtle_view_1_1_active_ring.html" target="_top" xlink:title="TurtleView.ActiveRing">
<polygon fill="white" stroke="black" points="517,-366.5 517,-385.5 633,-385.5 633,-366.5 517,-366.5"/>
<text text-anchor="middle" x="575" y="-373.5" font-family="Helvetica,sans-Serif" font-size="10.00">TurtleView.ActiveRing</text>
</a>
</g>
</g>
<!-- Node8&#45;&gt;Node3 -->
<g id="edge9" class="edge"><title>Node8&#45;&gt;Node3</title>
<path fill="none" stroke="#9a32cd" stroke-dasharray="5,2" d="M643.214,-380.9C682.114,-380.488 730.284,-374.112 766,-350 800.802,-326.505 817.847,-275.634 823.639,-254.502"/>
<polygon fill="#9a32cd" stroke="#9a32cd" points="643.031,-377.399 633.023,-380.875 643.014,-384.399 643.031,-377.399"/>
<text text-anchor="middle" x="716" y="-382" font-family="Helvetica,sans-Serif" font-size="10.00"> myRing</text>
</g>
<!-- Node9 -->
<g id="node9" class="node"><title>Node9</title>
<polygon fill="white" stroke="#bfbfbf" points="290.5,-366.5 290.5,-385.5 333.5,-385.5 333.5,-366.5 290.5,-366.5"/>
<text text-anchor="middle" x="312" y="-373.5" font-family="Helvetica,sans-Serif" font-size="10.00">Circle</text>
</g>
<!-- Node9&#45;&gt;Node8 -->
<g id="edge10" class="edge"><title>Node9&#45;&gt;Node8</title>
<path fill="none" stroke="midnightblue" d="M343.937,-376C386.426,-376 463.612,-376 516.782,-376"/>
<polygon fill="midnightblue" stroke="midnightblue" points="343.918,-372.5 333.918,-376 343.917,-379.5 343.918,-372.5"/>
</g>
<!-- Node10&#45;&gt;Node3 -->
<g id="edge11" class="edge"><title>Node10&#45;&gt;Node3</title>
<path fill="none" stroke="#9a32cd" stroke-dasharray="5,2" d="M631.366,-225.637C669.339,-227.144 720.828,-229.943 766,-235 771.772,-235.646 777.834,-236.476 783.793,-237.382"/>
<polygon fill="#9a32cd" stroke="#9a32cd" points="631.156,-222.127 621.03,-225.246 630.891,-229.122 631.156,-222.127"/>
<text text-anchor="middle" x="716" y="-238" font-family="Helvetica,sans-Serif" font-size="10.00"> myPenOptions</text>
</g>
<!-- Node11&#45;&gt;Node10 -->
<g id="edge13" class="edge"><title>Node11&#45;&gt;Node10</title>
<path fill="none" stroke="#9a32cd" stroke-dasharray="5,2" d="M369.975,-299.228C405.163,-296.385 449.937,-288.307 484,-267 495.304,-259.929 490.94,-250.447 502,-243 510.042,-237.584 519.552,-233.711 528.979,-230.941"/>
<polygon fill="#9a32cd" stroke="#9a32cd" points="369.59,-295.746 359.854,-299.924 370.071,-302.729 369.59,-295.746"/>
<text text-anchor="middle" x="437" y="-300" font-family="Helvetica,sans-Serif" font-size="10.00"> myTypeBox</text>
</g>
<!-- Node12 -->
<g id="node12" class="node"><title>Node12</title>
<polygon fill="white" stroke="#bfbfbf" points="12.5,-279 12.5,-309 119.5,-309 119.5,-279 12.5,-279"/>
<text text-anchor="start" x="20.5" y="-297" font-family="Helvetica,sans-Serif" font-size="10.00">Map&lt; String, List&lt;</text>
<text text-anchor="middle" x="66" y="-286" font-family="Helvetica,sans-Serif" font-size="10.00"> Double &gt; &gt;</text>
</g>
<!-- Node12&#45;&gt;Node11 -->
<g id="edge15" class="edge"><title>Node12&#45;&gt;Node11</title>
<path fill="none" stroke="#9a32cd" stroke-dasharray="5,2" d="M129.988,-293.503C161.272,-293.478 199.637,-293.782 234,-295 243.773,-295.346 254.234,-295.902 264.195,-296.519"/>
<polygon fill="#9a32cd" stroke="#9a32cd" points="129.66,-290.003 119.666,-293.523 129.673,-297.003 129.66,-290.003"/>
<text text-anchor="middle" x="192" y="-298" font-family="Helvetica,sans-Serif" font-size="10.00"> myMap</text>
</g>
<!-- Node13 -->
<g id="node13" class="node"><title>Node13</title>
<polygon fill="white" stroke="#bfbfbf" points="280,-252.5 280,-271.5 344,-271.5 344,-252.5 280,-252.5"/>
<text text-anchor="middle" x="312" y="-259.5" font-family="Helvetica,sans-Serif" font-size="10.00">CheckBox</text>
</g>
<!-- Node13&#45;&gt;Node10 -->
<g id="edge16" class="edge"><title>Node13&#45;&gt;Node10</title>
<path fill="none" stroke="#9a32cd" stroke-dasharray="5,2" d="M354.435,-256.36C389.081,-251.602 439.79,-244.541 484,-238 498.548,-235.848 514.403,-233.412 528.696,-231.182"/>
<polygon fill="#9a32cd" stroke="#9a32cd" points="353.656,-252.934 344.224,-257.76 354.606,-259.869 353.656,-252.934"/>
<text text-anchor="middle" x="437" y="-255" font-family="Helvetica,sans-Serif" font-size="10.00"> myDownBox</text>
</g>
<!-- Node14&#45;&gt;Node10 -->
<g id="edge17" class="edge"><title>Node14&#45;&gt;Node10</title>
<path fill="none" stroke="#9a32cd" stroke-dasharray="5,2" d="M371.45,-344.252C408.093,-344.864 453.919,-339.097 484,-312 507.548,-290.788 479.621,-265.442 502,-243 509.212,-235.768 518.829,-231.19 528.68,-228.317"/>
<polygon fill="#9a32cd" stroke="#9a32cd" points="371.488,-340.752 361.379,-343.923 371.259,-347.748 371.488,-340.752"/>
<text text-anchor="middle" x="437" y="-347" font-family="Helvetica,sans-Serif" font-size="10.00"> myColorBox</text>
</g>
<!-- Node15 -->
<g id="node15" class="node"><title>Node15</title>
<polygon fill="white" stroke="#bfbfbf" points="6.5,-437.5 6.5,-456.5 125.5,-456.5 125.5,-437.5 6.5,-437.5"/>
<text text-anchor="middle" x="66" y="-444.5" font-family="Helvetica,sans-Serif" font-size="10.00">Map&lt; String, Color &gt;</text>
</g>
<!-- Node15&#45;&gt;Node14 -->
<g id="edge19" class="edge"><title>Node15&#45;&gt;Node14</title>
<path fill="none" stroke="#9a32cd" stroke-dasharray="5,2" d="M93.676,-432.538C129.157,-413.649 194.141,-380.255 252,-357 260.487,-353.589 269.843,-350.348 278.554,-347.541"/>
<polygon fill="#9a32cd" stroke="#9a32cd" points="91.6455,-429.655 84.4812,-437.46 94.9493,-435.826 91.6455,-429.655"/>
<text text-anchor="middle" x="192" y="-406" font-family="Helvetica,sans-Serif" font-size="10.00"> myMap</text>
</g>
<!-- Node16 -->
<g id="node16" class="node"><title>Node16</title>
<g id="a_node16"><a xlink:href="../../d4/dc3/class_pen_1_1_pen_thickness_box.html" target="_top" xlink:title="Pen.PenThicknessBox">
<polygon fill="white" stroke="black" points="252,-210.5 252,-229.5 372,-229.5 372,-210.5 252,-210.5"/>
<text text-anchor="middle" x="312" y="-217.5" font-family="Helvetica,sans-Serif" font-size="10.00">Pen.PenThicknessBox</text>
</a>
</g>
</g>
<!-- Node16&#45;&gt;Node10 -->
<g id="edge20" class="edge"><title>Node16&#45;&gt;Node10</title>
<path fill="none" stroke="#9a32cd" stroke-dasharray="5,2" d="M382.506,-221.065C428.883,-221.776 488.521,-222.69 528.826,-223.308"/>
<polygon fill="#9a32cd" stroke="#9a32cd" points="382.277,-217.561 372.225,-220.908 382.17,-224.561 382.277,-217.561"/>
<text text-anchor="middle" x="437" y="-226" font-family="Helvetica,sans-Serif" font-size="10.00"> myThickBox</text>
</g>
<!-- Node17 -->
<g id="node17" class="node"><title>Node17</title>
<polygon fill="white" stroke="#bfbfbf" points="0.5,-205 0.5,-235 131.5,-235 131.5,-205 0.5,-205"/>
<text text-anchor="start" x="8.5" y="-223" font-family="Helvetica,sans-Serif" font-size="10.00">javafx::scene::control</text>
<text text-anchor="middle" x="66" y="-212" font-family="Helvetica,sans-Serif" font-size="10.00">::ComboBox&lt; Double &gt;</text>
</g>
<!-- Node17&#45;&gt;Node16 -->
<g id="edge21" class="edge"><title>Node17&#45;&gt;Node16</title>
<path fill="none" stroke="midnightblue" d="M142.002,-220C177.291,-220 218.773,-220 251.808,-220"/>
<polygon fill="midnightblue" stroke="midnightblue" points="141.747,-216.5 131.747,-220 141.747,-223.5 141.747,-216.5"/>
</g>
<!-- Node18 -->
<g id="node18" class="node"><title>Node18</title>
<polygon fill="white" stroke="#bfbfbf" points="21.5,-132.5 21.5,-151.5 110.5,-151.5 110.5,-132.5 21.5,-132.5"/>
<text text-anchor="middle" x="66" y="-139.5" font-family="Helvetica,sans-Serif" font-size="10.00">List&lt; Double &gt;</text>
</g>
<!-- Node18&#45;&gt;Node16 -->
<g id="edge22" class="edge"><title>Node18&#45;&gt;Node16</title>
<path fill="none" stroke="#9a32cd" stroke-dasharray="5,2" d="M106.518,-154.633C155.358,-170.245 237.367,-196.462 281.218,-210.48"/>
<polygon fill="#9a32cd" stroke="#9a32cd" points="107.51,-151.276 96.9192,-151.564 105.379,-157.943 107.51,-151.276"/>
<text text-anchor="middle" x="192" y="-198" font-family="Helvetica,sans-Serif" font-size="10.00"> myList</text>
</g>
<!-- Node19 -->
<g id="node19" class="node"><title>Node19</title>
<g id="a_node19"><a xlink:href="../../df/daf/class_pen_1_1_pen.html" target="_top" xlink:title="Pen.Pen">
<polygon fill="white" stroke="black" points="284,-46.5 284,-65.5 340,-65.5 340,-46.5 284,-46.5"/>
<text text-anchor="middle" x="312" y="-53.5" font-family="Helvetica,sans-Serif" font-size="10.00">Pen.Pen</text>
</a>
</g>
</g>
<!-- Node18&#45;&gt;Node19 -->
<g id="edge24" class="edge"><title>Node18&#45;&gt;Node19</title>
<path fill="none" stroke="#9a32cd" stroke-dasharray="5,2" d="M103.766,-129.099C137.67,-117.13 189.353,-98.6985 234,-82 242.04,-78.993 243.911,-77.8724 252,-75 262.343,-71.3269 273.811,-67.5645 283.865,-64.3671"/>
<polygon fill="#9a32cd" stroke="#9a32cd" points="102.537,-125.822 94.2694,-132.447 104.864,-132.423 102.537,-125.822"/>
<text text-anchor="middle" x="192" y="-148" font-family="Helvetica,sans-Serif" font-size="10.00"> DASHED</text>
<text text-anchor="middle" x="192" y="-137" font-family="Helvetica,sans-Serif" font-size="10.00">SOLID</text>
<text text-anchor="middle" x="192" y="-126" font-family="Helvetica,sans-Serif" font-size="10.00">myLineType</text>
<text text-anchor="middle" x="192" y="-115" font-family="Helvetica,sans-Serif" font-size="10.00">DOTTED</text>
</g>
<!-- Node19&#45;&gt;Node3 -->
<g id="edge26" class="edge"><title>Node19&#45;&gt;Node3</title>
<path fill="none" stroke="#9a32cd" stroke-dasharray="5,2" d="M350.143,-52.7534C433.333,-47.473 637.385,-45.8333 766,-141 799.345,-165.674 817.105,-214.831 823.36,-235.498"/>
<polygon fill="#9a32cd" stroke="#9a32cd" points="349.883,-49.2629 340.148,-53.4436 350.365,-56.2463 349.883,-49.2629"/>
<text text-anchor="middle" x="575" y="-85" font-family="Helvetica,sans-Serif" font-size="10.00"> myPen</text>
</g>
<!-- Node19&#45;&gt;Node10 -->
<g id="edge23" class="edge"><title>Node19&#45;&gt;Node10</title>
<path fill="none" stroke="#9a32cd" stroke-dasharray="5,2" d="M349.816,-62.2827C357.892,-65.0855 365.855,-69.1387 372,-75 388.487,-90.7259 375.083,-105.778 390,-123 390.772,-123.891 510.599,-189.377 556.442,-214.414"/>
<polygon fill="#9a32cd" stroke="#9a32cd" points="350.603,-58.8667 340.024,-59.4466 348.655,-65.5904 350.603,-58.8667"/>
<text text-anchor="middle" x="437" y="-177" font-family="Helvetica,sans-Serif" font-size="10.00"> myPen</text>
</g>
<!-- Node20 -->
<g id="node20" class="node"><title>Node20</title>
<polygon fill="white" stroke="#bfbfbf" points="45.5,-46.5 45.5,-65.5 86.5,-65.5 86.5,-46.5 45.5,-46.5"/>
<text text-anchor="middle" x="66" y="-53.5" font-family="Helvetica,sans-Serif" font-size="10.00">Color</text>
</g>
<!-- Node20&#45;&gt;Node19 -->
<g id="edge25" class="edge"><title>Node20&#45;&gt;Node19</title>
<path fill="none" stroke="#9a32cd" stroke-dasharray="5,2" d="M96.854,-56C144.63,-56 237.566,-56 283.684,-56"/>
<polygon fill="#9a32cd" stroke="#9a32cd" points="96.5551,-52.5001 86.5551,-56 96.5551,-59.5001 96.5551,-52.5001"/>
<text text-anchor="middle" x="192" y="-70" font-family="Helvetica,sans-Serif" font-size="10.00"> DEFAULT_COLOR</text>
<text text-anchor="middle" x="192" y="-59" font-family="Helvetica,sans-Serif" font-size="10.00">myColor</text>
</g>
<!-- Node21 -->
<g id="node21" class="node"><title>Node21</title>
<polygon fill="white" stroke="#bfbfbf" points="528.5,-290.5 528.5,-309.5 621.5,-309.5 621.5,-290.5 528.5,-290.5"/>
<text text-anchor="middle" x="575" y="-297.5" font-family="Helvetica,sans-Serif" font-size="10.00">List&lt; Point2D &gt;</text>
</g>
<!-- Node21&#45;&gt;Node3 -->
<g id="edge27" class="edge"><title>Node21&#45;&gt;Node3</title>
<path fill="none" stroke="#9a32cd" stroke-dasharray="5,2" d="M632.045,-295.273C670.318,-291.119 721.887,-283.694 766,-271 780.292,-266.887 795.668,-260.176 807.277,-254.601"/>
<polygon fill="#9a32cd" stroke="#9a32cd" points="631.204,-291.842 621.62,-296.359 631.929,-298.804 631.204,-291.842"/>
<text text-anchor="middle" x="716" y="-294" font-family="Helvetica,sans-Serif" font-size="10.00"> nextLocations</text>
</g>
<!-- Node22 -->
<g id="node22" class="node"><title>Node22</title>
<polygon fill="white" stroke="#bfbfbf" points="529,-252.5 529,-271.5 621,-271.5 621,-252.5 529,-252.5"/>
<text text-anchor="middle" x="575" y="-259.5" font-family="Helvetica,sans-Serif" font-size="10.00">List&lt; Polyline &gt;</text>
</g>
<!-- Node22&#45;&gt;Node3 -->
<g id="edge28" class="edge"><title>Node22&#45;&gt;Node3</title>
<path fill="none" stroke="#9a32cd" stroke-dasharray="5,2" d="M631.392,-258.233C677.468,-255.1 742.068,-250.707 783.976,-247.858"/>
<polygon fill="#9a32cd" stroke="#9a32cd" points="631.013,-254.751 621.273,-258.921 631.488,-261.735 631.013,-254.751"/>
<text text-anchor="middle" x="716" y="-259" font-family="Helvetica,sans-Serif" font-size="10.00"> myTrail</text>
</g>
<!-- Node23 -->
<g id="node23" class="node"><title>Node23</title>
<polygon fill="white" stroke="#bfbfbf" points="291,-84.5 291,-103.5 333,-103.5 333,-84.5 291,-84.5"/>
<text text-anchor="middle" x="312" y="-91.5" font-family="Helvetica,sans-Serif" font-size="10.00">Label</text>
</g>
<!-- Node23&#45;&gt;Node1 -->
<g id="edge29" class="edge"><title>Node23&#45;&gt;Node1</title>
<path fill="none" stroke="#9a32cd" stroke-dasharray="5,2" d="M343.313,-86.8445C378.348,-80.0179 437.187,-73.0514 484,-90 520.336,-103.156 552.312,-138.097 566.384,-155.239"/>
<polygon fill="#9a32cd" stroke="#9a32cd" points="342.325,-83.4748 333.244,-88.932 343.746,-90.3291 342.325,-83.4748"/>
<text text-anchor="middle" x="437" y="-115" font-family="Helvetica,sans-Serif" font-size="10.00"> turtleIndexLabel</text>
<text text-anchor="middle" x="437" y="-104" font-family="Helvetica,sans-Serif" font-size="10.00">turtleDirectionLabel</text>
<text text-anchor="middle" x="437" y="-93" font-family="Helvetica,sans-Serif" font-size="10.00">turtlePositionLabel</text>
</g>
</g>
</svg>
