<?xml version="1.0" encoding="UTF-8" standalone="no"?>
<!DOCTYPE svg PUBLIC "-//W3C//DTD SVG 1.1//EN"
 "http://www.w3.org/Graphics/SVG/1.1/DTD/svg11.dtd">
<!-- Generated by graphviz version 2.36.0 (20140111.2315)
 -->
<!-- Title: Pen.PenThicknessBox Pages: 1 -->
<svg width="245pt" height="108pt"
 viewBox="0.00 0.00 245.00 108.00" xmlns="http://www.w3.org/2000/svg" xmlns:xlink="http://www.w3.org/1999/xlink">
<g id="graph0" class="graph" transform="scale(1 1) rotate(0) translate(4 104)">
<title>Pen.PenThicknessBox</title>
<polygon fill="white" stroke="none" points="-4,4 -4,-104 241,-104 241,4 -4,4"/>
<!-- Node1 -->
<g id="node1" class="node"><title>Node1</title>
<polygon fill="#bfbfbf" stroke="black" points="69,-0.5 69,-19.5 189,-19.5 189,-0.5 69,-0.5"/>
<text text-anchor="middle" x="129" y="-7.5" font-family="Helvetica,sans-Serif" font-size="10.00">Pen.PenThicknessBox</text>
</g>
<!-- Node2 -->
<g id="node2" class="node"><title>Node2</title>
<polygon fill="white" stroke="#bfbfbf" points="-0.5,-69 -0.5,-99 130.5,-99 130.5,-69 -0.5,-69"/>
<text text-anchor="start" x="7.5" y="-87" font-family="Helvetica,sans-Serif" font-size="10.00">javafx::scene::control</text>
<text text-anchor="middle" x="65" y="-76" font-family="Helvetica,sans-Serif" font-size="10.00">::ComboBox&lt; Double &gt;</text>
</g>
<!-- Node2&#45;&gt;Node1 -->
<g id="edge1" class="edge"><title>Node2&#45;&gt;Node1</title>
<path fill="none" stroke="midnightblue" d="M84.5065,-61.0551C96.8574,-47.1605 112.154,-29.952 121.214,-19.7589"/>
<polygon fill="midnightblue" stroke="midnightblue" points="81.6721,-58.9757 77.6443,-68.7751 86.904,-63.6263 81.6721,-58.9757"/>
</g>
<!-- Node3 -->
<g id="node3" class="node"><title>Node3</title>
<polygon fill="white" stroke="#bfbfbf" points="148.5,-74.5 148.5,-93.5 237.5,-93.5 237.5,-74.5 148.5,-74.5"/>
<text text-anchor="middle" x="193" y="-81.5" font-family="Helvetica,sans-Serif" font-size="10.00">List&lt; Double &gt;</text>
</g>
<!-- Node3&#45;&gt;Node1 -->
<g id="edge2" class="edge"><title>Node3&#45;&gt;Node1</title>
<path fill="none" stroke="#9a32cd" stroke-dasharray="5,2" d="M178.49,-66.6767C165.47,-52.0292 146.874,-31.1086 136.583,-19.531"/>
<polygon fill="#9a32cd" stroke="#9a32cd" points="176.147,-69.3091 185.407,-74.4579 181.379,-64.6585 176.147,-69.3091"/>
<text text-anchor="middle" x="179.5" y="-41.5" font-family="Helvetica,sans-Serif" font-size="10.00"> myList</text>
</g>
</g>
</svg>
