<?xml version="1.0" encoding="UTF-8" standalone="no"?>
<!DOCTYPE svg PUBLIC "-//W3C//DTD SVG 1.1//EN"
 "http://www.w3.org/Graphics/SVG/1.1/DTD/svg11.dtd">
<!-- Generated by graphviz version 2.36.0 (20140111.2315)
 -->
<!-- Title: Pen.Pen.setPenUp Pages: 1 -->
<svg width="474pt" height="38pt"
 viewBox="0.00 0.00 474.00 38.00" xmlns="http://www.w3.org/2000/svg" xmlns:xlink="http://www.w3.org/1999/xlink">
<g id="graph0" class="graph" transform="scale(1 1) rotate(0) translate(4 34)">
<title>Pen.Pen.setPenUp</title>
<polygon fill="white" stroke="none" points="-4,4 -4,-34 470,-34 470,4 -4,4"/>
<!-- Node1 -->
<g id="node1" class="node"><title>Node1</title>
<polygon fill="#bfbfbf" stroke="black" points="0.5,-5.5 0.5,-24.5 105.5,-24.5 105.5,-5.5 0.5,-5.5"/>
<text text-anchor="middle" x="53" y="-12.5" font-family="Helvetica,sans-Serif" font-size="10.00">Pen.Pen.setPenUp</text>
</g>
<!-- Node2 -->
<g id="node2" class="node"><title>Node2</title>
<g id="a_node2"><a xlink:href="../../d1/de0/class_backend_1_1_turtle.html#ae04834eebc1d060aa4ad63fad24cec09" target="_top" xlink:title="Backend.Turtle.setPenUp">
<polygon fill="white" stroke="black" points="142,-5.5 142,-24.5 278,-24.5 278,-5.5 142,-5.5"/>
<text text-anchor="middle" x="210" y="-12.5" font-family="Helvetica,sans-Serif" font-size="10.00">Backend.Turtle.setPenUp</text>
</a>
</g>
</g>
<!-- Node1&#45;&gt;Node2 -->
<g id="edge1" class="edge"><title>Node1&#45;&gt;Node2</title>
<path fill="none" stroke="midnightblue" d="M115.884,-15C124.436,-15 133.254,-15 141.895,-15"/>
<polygon fill="midnightblue" stroke="midnightblue" points="115.613,-11.5001 105.613,-15 115.613,-18.5001 115.613,-11.5001"/>
</g>
<!-- Node3 -->
<g id="node3" class="node"><title>Node3</title>
<g id="a_node3"><a xlink:href="../../d6/da9/class_nodes_1_1turtlecommands_1_1_pen_up_node.html#a0b7cdb709e76f90435f3f4e0fa8708fb" target="_top" xlink:title="Nodes.turtlecommands.Pen\lUpNode.update">
<polygon fill="white" stroke="black" points="314.5,-0 314.5,-30 465.5,-30 465.5,-0 314.5,-0"/>
<text text-anchor="start" x="322.5" y="-18" font-family="Helvetica,sans-Serif" font-size="10.00">Nodes.turtlecommands.Pen</text>
<text text-anchor="middle" x="390" y="-7" font-family="Helvetica,sans-Serif" font-size="10.00">UpNode.update</text>
</a>
</g>
</g>
<!-- Node2&#45;&gt;Node3 -->
<g id="edge2" class="edge"><title>Node2&#45;&gt;Node3</title>
<path fill="none" stroke="midnightblue" d="M288.129,-15C296.801,-15 305.625,-15 314.266,-15"/>
<polygon fill="midnightblue" stroke="midnightblue" points="288.041,-11.5001 278.041,-15 288.04,-18.5001 288.041,-11.5001"/>
</g>
</g>
</svg>
