<?xml version="1.0" encoding="UTF-8" standalone="no"?>
<!DOCTYPE svg PUBLIC "-//W3C//DTD SVG 1.1//EN"
 "http://www.w3.org/Graphics/SVG/1.1/DTD/svg11.dtd">
<!-- Generated by graphviz version 2.36.0 (20140111.2315)
 -->
<!-- Title: Pen.Pen.isDown Pages: 1 -->
<svg width="470pt" height="38pt"
 viewBox="0.00 0.00 470.00 38.00" xmlns="http://www.w3.org/2000/svg" xmlns:xlink="http://www.w3.org/1999/xlink">
<g id="graph0" class="graph" transform="scale(1 1) rotate(0) translate(4 34)">
<title>Pen.Pen.isDown</title>
<polygon fill="white" stroke="none" points="-4,4 -4,-34 466,-34 466,4 -4,4"/>
<!-- Node1 -->
<g id="node1" class="node"><title>Node1</title>
<polygon fill="#bfbfbf" stroke="black" points="0,-5.5 0,-24.5 92,-24.5 92,-5.5 0,-5.5"/>
<text text-anchor="middle" x="46" y="-12.5" font-family="Helvetica,sans-Serif" font-size="10.00">Pen.Pen.isDown</text>
</g>
<!-- Node2 -->
<g id="node2" class="node"><title>Node2</title>
<g id="a_node2"><a xlink:href="../../d1/de0/class_backend_1_1_turtle.html#aaf448975d00a26f4742fa3690a1e4b12" target="_top" xlink:title="Backend.Turtle.penStatus">
<polygon fill="white" stroke="black" points="128.5,-5.5 128.5,-24.5 267.5,-24.5 267.5,-5.5 128.5,-5.5"/>
<text text-anchor="middle" x="198" y="-12.5" font-family="Helvetica,sans-Serif" font-size="10.00">Backend.Turtle.penStatus</text>
</a>
</g>
</g>
<!-- Node1&#45;&gt;Node2 -->
<g id="edge1" class="edge"><title>Node1&#45;&gt;Node2</title>
<path fill="none" stroke="midnightblue" d="M102.206,-15C110.747,-15 119.656,-15 128.446,-15"/>
<polygon fill="midnightblue" stroke="midnightblue" points="102.005,-11.5001 92.0049,-15 102.005,-18.5001 102.005,-11.5001"/>
</g>
<!-- Node3 -->
<g id="node3" class="node"><title>Node3</title>
<g id="a_node3"><a xlink:href="../../d2/daf/class_nodes_1_1turtlecommands_1_1_is_pen_down_node.html#a2b49236de9892ab00f5b79dde9c65bee" target="_top" xlink:title="Nodes.turtlecommands.IsPen\lDownNode.update">
<polygon fill="white" stroke="black" points="304,-0 304,-30 462,-30 462,-0 304,-0"/>
<text text-anchor="start" x="312" y="-18" font-family="Helvetica,sans-Serif" font-size="10.00">Nodes.turtlecommands.IsPen</text>
<text text-anchor="middle" x="383" y="-7" font-family="Helvetica,sans-Serif" font-size="10.00">DownNode.update</text>
</a>
</g>
</g>
<!-- Node2&#45;&gt;Node3 -->
<g id="edge2" class="edge"><title>Node2&#45;&gt;Node3</title>
<path fill="none" stroke="midnightblue" d="M277.698,-15C286.324,-15 295.104,-15 303.724,-15"/>
<polygon fill="midnightblue" stroke="midnightblue" points="277.663,-11.5001 267.663,-15 277.663,-18.5001 277.663,-11.5001"/>
</g>
</g>
</svg>
