<?xml version="1.0" encoding="UTF-8" standalone="no"?>
<!DOCTYPE svg PUBLIC "-//W3C//DTD SVG 1.1//EN"
 "http://www.w3.org/Graphics/SVG/1.1/DTD/svg11.dtd">
<!-- Generated by graphviz version 2.36.0 (20140111.2315)
 -->
<!-- Title: Pen.Pen.setPenDown Pages: 1 -->
<svg width="500pt" height="38pt"
 viewBox="0.00 0.00 500.00 38.00" xmlns="http://www.w3.org/2000/svg" xmlns:xlink="http://www.w3.org/1999/xlink">
<g id="graph0" class="graph" transform="scale(1 1) rotate(0) translate(4 34)">
<title>Pen.Pen.setPenDown</title>
<polygon fill="white" stroke="none" points="-4,4 -4,-34 496,-34 496,4 -4,4"/>
<!-- Node1 -->
<g id="node1" class="node"><title>Node1</title>
<polygon fill="#bfbfbf" stroke="black" points="0,-5.5 0,-24.5 118,-24.5 118,-5.5 0,-5.5"/>
<text text-anchor="middle" x="59" y="-12.5" font-family="Helvetica,sans-Serif" font-size="10.00">Pen.Pen.setPenDown</text>
</g>
<!-- Node2 -->
<g id="node2" class="node"><title>Node2</title>
<g id="a_node2"><a xlink:href="../../d1/de0/class_backend_1_1_turtle.html#a82807d8d40eef2fb8c1c120b4e6ab310" target="_top" xlink:title="Backend.Turtle.setPenDown">
<polygon fill="white" stroke="black" points="154.5,-5.5 154.5,-24.5 303.5,-24.5 303.5,-5.5 154.5,-5.5"/>
<text text-anchor="middle" x="229" y="-12.5" font-family="Helvetica,sans-Serif" font-size="10.00">Backend.Turtle.setPenDown</text>
</a>
</g>
</g>
<!-- Node1&#45;&gt;Node2 -->
<g id="edge1" class="edge"><title>Node1&#45;&gt;Node2</title>
<path fill="none" stroke="midnightblue" d="M128.554,-15C137.081,-15 145.828,-15 154.426,-15"/>
<polygon fill="midnightblue" stroke="midnightblue" points="128.287,-11.5001 118.287,-15 128.287,-18.5001 128.287,-11.5001"/>
</g>
<!-- Node3 -->
<g id="node3" class="node"><title>Node3</title>
<g id="a_node3"><a xlink:href="../../d0/d04/class_nodes_1_1turtlecommands_1_1_pen_down_node.html#af84a5ba5b4cb6e0e1204a6a56306e96c" target="_top" xlink:title="Nodes.turtlecommands.Pen\lDownNode.update">
<polygon fill="white" stroke="black" points="340.5,-0 340.5,-30 491.5,-30 491.5,-0 340.5,-0"/>
<text text-anchor="start" x="348.5" y="-18" font-family="Helvetica,sans-Serif" font-size="10.00">Nodes.turtlecommands.Pen</text>
<text text-anchor="middle" x="416" y="-7" font-family="Helvetica,sans-Serif" font-size="10.00">DownNode.update</text>
</a>
</g>
</g>
<!-- Node2&#45;&gt;Node3 -->
<g id="edge2" class="edge"><title>Node2&#45;&gt;Node3</title>
<path fill="none" stroke="midnightblue" d="M313.65,-15C322.566,-15 331.593,-15 340.395,-15"/>
<polygon fill="midnightblue" stroke="midnightblue" points="313.649,-11.5001 303.648,-15 313.648,-18.5001 313.649,-11.5001"/>
</g>
</g>
</svg>
