<?xml version="1.0" encoding="UTF-8" standalone="no"?>
<!DOCTYPE svg PUBLIC "-//W3C//DTD SVG 1.1//EN"
 "http://www.w3.org/Graphics/SVG/1.1/DTD/svg11.dtd">
<!-- Generated by graphviz version 2.36.0 (20140111.2315)
 -->
<!-- Title: Nodes.turtlecommands.PenDownNode.update Pages: 1 -->
<svg width="500pt" height="38pt"
 viewBox="0.00 0.00 500.00 38.00" xmlns="http://www.w3.org/2000/svg" xmlns:xlink="http://www.w3.org/1999/xlink">
<g id="graph0" class="graph" transform="scale(1 1) rotate(0) translate(4 34)">
<title>Nodes.turtlecommands.PenDownNode.update</title>
<polygon fill="white" stroke="none" points="-4,4 -4,-34 496,-34 496,4 -4,4"/>
<!-- Node1 -->
<g id="node1" class="node"><title>Node1</title>
<polygon fill="#bfbfbf" stroke="black" points="0.5,-0 0.5,-30 151.5,-30 151.5,-0 0.5,-0"/>
<text text-anchor="start" x="8.5" y="-18" font-family="Helvetica,sans-Serif" font-size="10.00">Nodes.turtlecommands.Pen</text>
<text text-anchor="middle" x="76" y="-7" font-family="Helvetica,sans-Serif" font-size="10.00">DownNode.update</text>
</g>
<!-- Node2 -->
<g id="node2" class="node"><title>Node2</title>
<g id="a_node2"><a xlink:href="../../d1/de0/class_backend_1_1_turtle.html#a82807d8d40eef2fb8c1c120b4e6ab310" target="_top" xlink:title="Backend.Turtle.setPenDown">
<polygon fill="white" stroke="black" points="188.5,-5.5 188.5,-24.5 337.5,-24.5 337.5,-5.5 188.5,-5.5"/>
<text text-anchor="middle" x="263" y="-12.5" font-family="Helvetica,sans-Serif" font-size="10.00">Backend.Turtle.setPenDown</text>
</a>
</g>
</g>
<!-- Node1&#45;&gt;Node2 -->
<g id="edge1" class="edge"><title>Node1&#45;&gt;Node2</title>
<path fill="none" stroke="midnightblue" d="M151.713,-15C160.363,-15 169.228,-15 177.99,-15"/>
<polygon fill="midnightblue" stroke="midnightblue" points="178.21,-18.5001 188.21,-15 178.21,-11.5001 178.21,-18.5001"/>
</g>
<!-- Node3 -->
<g id="node3" class="node"><title>Node3</title>
<g id="a_node3"><a xlink:href="../../df/daf/class_pen_1_1_pen.html#a1ad7b16024fb804791f3fef1d0e17f0c" target="_top" xlink:title="Pen.Pen.setPenDown">
<polygon fill="white" stroke="black" points="374,-5.5 374,-24.5 492,-24.5 492,-5.5 374,-5.5"/>
<text text-anchor="middle" x="433" y="-12.5" font-family="Helvetica,sans-Serif" font-size="10.00">Pen.Pen.setPenDown</text>
</a>
</g>
</g>
<!-- Node2&#45;&gt;Node3 -->
<g id="edge2" class="edge"><title>Node2&#45;&gt;Node3</title>
<path fill="none" stroke="midnightblue" d="M337.687,-15C346.274,-15 355.007,-15 363.52,-15"/>
<polygon fill="midnightblue" stroke="midnightblue" points="363.769,-18.5001 373.769,-15 363.769,-11.5001 363.769,-18.5001"/>
</g>
</g>
</svg>
