<?xml version="1.0" encoding="UTF-8" standalone="no"?>
<!DOCTYPE svg PUBLIC "-//W3C//DTD SVG 1.1//EN"
 "http://www.w3.org/Graphics/SVG/1.1/DTD/svg11.dtd">
<!-- Generated by graphviz version 2.36.0 (20140111.2315)
 -->
<!-- Title: Nodes.turtlecommands.SetPositionNode.update Pages: 1 -->
<!--zoomable 316 -->
<svg id="main" version="1.1" xmlns="http://www.w3.org/2000/svg" xmlns:xlink="http://www.w3.org/1999/xlink" xml:space="preserve" onload="init(evt)">
<style type="text/css"><![CDATA[
.edge:hover path { stroke: red; }
.edge:hover polygon { stroke: red; fill: red; }
]]></style>
<script type="text/javascript"><![CDATA[
var edges = document.getElementsByTagName('g');
if (edges && edges.length) {
  for (var i=0;i<edges.length;i++) {
    if (edges[i].id.substr(0,4)=='edge') {
      edges[i].setAttribute('class','edge');
    }
  }
}
]]></script>
        <defs>
                <circle id="rim" cx="0" cy="0" r="7"/>
                <circle id="rim2" cx="0" cy="0" r="3.5"/>
                <g id="zoomPlus">
                        <use xlink:href="#rim" fill="#404040">
                                <set attributeName="fill" to="#808080" begin="zoomplus.mouseover" end="zoomplus.mouseout"/>
                        </use>
                        <path d="M-4,0h8M0,-4v8" fill="none" stroke="white" stroke-width="1.5" pointer-events="none"/>
                </g>
                <g id="zoomMin">
                        <use xlink:href="#rim" fill="#404040">
                                <set attributeName="fill" to="#808080" begin="zoomminus.mouseover" end="zoomminus.mouseout"/>
                        </use>
                        <path d="M-4,0h8" fill="none" stroke="white" stroke-width="1.5" pointer-events="none"/>
                </g>
                <g id="dirArrow">
                        <path fill="none" stroke="white" stroke-width="1.5" d="M0,-3.0v7 M-2.5,-0.5L0,-3.0L2.5,-0.5"/>
                </g>
               <g id="resetDef">
                       <use xlink:href="#rim2" fill="#404040">
                               <set attributeName="fill" to="#808080" begin="reset.mouseover" end="reset.mouseout"/>
                       </use>
               </g>
        </defs>

<script type="text/javascript">
var viewWidth = 1224;
var viewHeight = 316;
var sectionId = 'dynsection-2';
</script>
<script xlink:href="../../svgpan.js"/>
<svg id="graph" class="graph">
<g id="viewport">
<title>Nodes.turtlecommands.SetPositionNode.update</title>
<polygon fill="white" stroke="none" points="-4,4 -4,-312 1220,-312 1220,4 -4,4"/>
<!-- Node1 -->
<g id="node1" class="node"><title>Node1</title>
<polygon fill="#bfbfbf" stroke="black" points="0.5,-93 0.5,-123 149.5,-123 149.5,-93 0.5,-93"/>
<text text-anchor="start" x="8.5" y="-111" font-family="Helvetica,sans-Serif" font-size="10.00">Nodes.turtlecommands.Set</text>
<text text-anchor="middle" x="75" y="-100" font-family="Helvetica,sans-Serif" font-size="10.00">PositionNode.update</text>
</g>
<!-- Node2 -->
<g id="node2" class="node"><title>Node2</title>
<g id="a_node2"><a xlink:href="../../d1/de0/class_backend_1_1_turtle.html#ad5f5520cb6970723e121a8d17f2c0a5c" target="_top" xlink:title="Backend.Turtle.addLocation">
<polygon fill="white" stroke="black" points="200,-193.5 200,-212.5 348,-212.5 348,-193.5 200,-193.5"/>
<text text-anchor="middle" x="274" y="-200.5" font-family="Helvetica,sans-Serif" font-size="10.00">Backend.Turtle.addLocation</text>
</a>
</g>
</g>
<!-- Node1&#45;&gt;Node2 -->
<g id="edge1" class="edge"><title>Node1&#45;&gt;Node2</title>
<path fill="none" stroke="midnightblue" d="M107.215,-123.053C144.762,-141.159 207.294,-171.314 243.881,-188.958"/>
<polygon fill="midnightblue" stroke="midnightblue" points="242.504,-192.179 253.031,-193.371 245.544,-185.874 242.504,-192.179"/>
</g>
<!-- Node11 -->
<g id="node11" class="node"><title>Node11</title>
<g id="a_node11"><a xlink:href="../../d1/de0/class_backend_1_1_turtle.html#a33957258db9a7205d470c5a2d22b89af" target="_top" xlink:title="Backend.Turtle.getLocation">
<polygon fill="white" stroke="black" points="1070,-136.5 1070,-155.5 1216,-155.5 1216,-136.5 1070,-136.5"/>
<text text-anchor="middle" x="1143" y="-143.5" font-family="Helvetica,sans-Serif" font-size="10.00">Backend.Turtle.getLocation</text>
</a>
</g>
</g>
<!-- Node1&#45;&gt;Node11 -->
<g id="edge16" class="edge"><title>Node1&#45;&gt;Node11</title>
<path fill="none" stroke="midnightblue" d="M149.68,-108C232.111,-108 369.622,-108 488,-108 488,-108 488,-108 709,-108 853.691,-108 890.286,-110.215 1034,-127 1050.6,-128.939 1068.51,-131.782 1084.89,-134.681"/>
<polygon fill="midnightblue" stroke="midnightblue" points="1084.4,-138.149 1094.86,-136.486 1085.64,-131.261 1084.4,-138.149"/>
</g>
<!-- Node13 -->
<g id="node13" class="node"><title>Node13</title>
<g id="a_node13"><a xlink:href="../../de/d3e/class_turtle_view_1_1_point_converter.html#a88e94febc045d8717ec2d41522b9ebcf" target="_top" xlink:title="TurtleView.PointConverter.convert\lUserToActualPoint">
<polygon fill="white" stroke="black" points="186,-49 186,-79 362,-79 362,-49 186,-49"/>
<text text-anchor="start" x="194" y="-67" font-family="Helvetica,sans-Serif" font-size="10.00">TurtleView.PointConverter.convert</text>
<text text-anchor="middle" x="274" y="-56" font-family="Helvetica,sans-Serif" font-size="10.00">UserToActualPoint</text>
</a>
</g>
</g>
<!-- Node1&#45;&gt;Node13 -->
<g id="edge13" class="edge"><title>Node1&#45;&gt;Node13</title>
<path fill="none" stroke="midnightblue" d="M143.245,-92.9808C160.11,-89.214 178.339,-85.1426 195.653,-81.2756"/>
<polygon fill="midnightblue" stroke="midnightblue" points="196.727,-84.6219 205.724,-79.0262 195.201,-77.7902 196.727,-84.6219"/>
</g>
<!-- Node3 -->
<g id="node3" class="node"><title>Node3</title>
<g id="a_node3"><a xlink:href="../../d5/d67/class_front_end_1_1_boundary.html#a0431407e4d8e1dee03220aba60caef08" target="_top" xlink:title="FrontEnd.Boundary.checkBoundary">
<polygon fill="white" stroke="black" points="398,-231.5 398,-250.5 580,-250.5 580,-231.5 398,-231.5"/>
<text text-anchor="middle" x="489" y="-238.5" font-family="Helvetica,sans-Serif" font-size="10.00">FrontEnd.Boundary.checkBoundary</text>
</a>
</g>
</g>
<!-- Node2&#45;&gt;Node3 -->
<g id="edge2" class="edge"><title>Node2&#45;&gt;Node3</title>
<path fill="none" stroke="midnightblue" d="M328.474,-212.54C357.592,-217.735 393.811,-224.196 424.374,-229.649"/>
<polygon fill="midnightblue" stroke="midnightblue" points="424.045,-233.145 434.504,-231.456 425.274,-226.254 424.045,-233.145"/>
</g>
<!-- Node4 -->
<g id="node4" class="node"><title>Node4</title>
<g id="a_node4"><a xlink:href="../../d1/de0/class_backend_1_1_turtle.html#a94cbed3c9c0c33e1ea8e8b3c51c26c73" target="_top" xlink:title="Backend.Turtle.move">
<polygon fill="white" stroke="black" points="431,-193.5 431,-212.5 547,-212.5 547,-193.5 431,-193.5"/>
<text text-anchor="middle" x="489" y="-200.5" font-family="Helvetica,sans-Serif" font-size="10.00">Backend.Turtle.move</text>
</a>
</g>
</g>
<!-- Node2&#45;&gt;Node4 -->
<g id="edge3" class="edge"><title>Node2&#45;&gt;Node4</title>
<path fill="none" stroke="midnightblue" d="M348.005,-203C371.608,-203 397.655,-203 420.817,-203"/>
<polygon fill="midnightblue" stroke="midnightblue" points="420.892,-206.5 430.892,-203 420.892,-199.5 420.892,-206.5"/>
</g>
<!-- Node5 -->
<g id="node5" class="node"><title>Node5</title>
<g id="a_node5"><a xlink:href="../../dc/ded/class_turtle_view_1_1_active_ring.html#ae05a085760f46b9f8e6927001c363e39" target="_top" xlink:title="TurtleView.ActiveRing.update">
<polygon fill="white" stroke="black" points="632,-231.5 632,-250.5 784,-250.5 784,-231.5 632,-231.5"/>
<text text-anchor="middle" x="708" y="-238.5" font-family="Helvetica,sans-Serif" font-size="10.00">TurtleView.ActiveRing.update</text>
</a>
</g>
</g>
<!-- Node4&#45;&gt;Node5 -->
<g id="edge4" class="edge"><title>Node4&#45;&gt;Node5</title>
<path fill="none" stroke="midnightblue" d="M544.478,-212.54C574.272,-217.757 611.363,-224.253 642.585,-229.72"/>
<polygon fill="midnightblue" stroke="midnightblue" points="642.046,-233.179 652.499,-231.456 643.253,-226.284 642.046,-233.179"/>
</g>
<!-- Node6 -->
<g id="node6" class="node"><title>Node6</title>
<g id="a_node6"><a xlink:href="../../d9/d38/class_turtle_view_1_1_turtle_information.html#ad65201793ce738f9c6d6e592271c14e1" target="_top" xlink:title="TurtleView.TurtleInformation.update">
<polygon fill="white" stroke="black" points="616.5,-193.5 616.5,-212.5 799.5,-212.5 799.5,-193.5 616.5,-193.5"/>
<text text-anchor="middle" x="708" y="-200.5" font-family="Helvetica,sans-Serif" font-size="10.00">TurtleView.TurtleInformation.update</text>
</a>
</g>
</g>
<!-- Node4&#45;&gt;Node6 -->
<g id="edge5" class="edge"><title>Node4&#45;&gt;Node6</title>
<path fill="none" stroke="midnightblue" d="M547.014,-203C565.169,-203 585.827,-203 606.127,-203"/>
<polygon fill="midnightblue" stroke="midnightblue" points="606.372,-206.5 616.372,-203 606.372,-199.5 606.372,-206.5"/>
</g>
<!-- Node7 -->
<g id="node7" class="node"><title>Node7</title>
<g id="a_node7"><a xlink:href="../../d9/d38/class_turtle_view_1_1_turtle_information.html#aca65258778dade3baa31e0d5ec643b3b" target="_top" xlink:title="TurtleView.TurtleInformation.emptyInfo">
<polygon fill="white" stroke="black" points="836.5,-288.5 836.5,-307.5 1033.5,-307.5 1033.5,-288.5 836.5,-288.5"/>
<text text-anchor="middle" x="935" y="-295.5" font-family="Helvetica,sans-Serif" font-size="10.00">TurtleView.TurtleInformation.emptyInfo</text>
</a>
</g>
</g>
<!-- Node6&#45;&gt;Node7 -->
<g id="edge6" class="edge"><title>Node6&#45;&gt;Node7</title>
<path fill="none" stroke="midnightblue" d="M781.781,-212.532C788.24,-215.027 794.431,-218.135 800,-222 824.616,-239.083 811.262,-262.094 836,-279 838.79,-280.907 841.724,-282.633 844.763,-284.196"/>
<polygon fill="midnightblue" stroke="midnightblue" points="843.602,-287.511 854.159,-288.409 846.466,-281.124 843.602,-287.511"/>
</g>
<!-- Node8 -->
<g id="node8" class="node"><title>Node8</title>
<g id="a_node8"><a xlink:href="../../d1/de0/class_backend_1_1_turtle.html#adc7cb6cc95ee918547d2b18d8bb20183" target="_top" xlink:title="Backend.Turtle.getID">
<polygon fill="white" stroke="black" points="877.5,-250.5 877.5,-269.5 992.5,-269.5 992.5,-250.5 877.5,-250.5"/>
<text text-anchor="middle" x="935" y="-257.5" font-family="Helvetica,sans-Serif" font-size="10.00">Backend.Turtle.getID</text>
</a>
</g>
</g>
<!-- Node6&#45;&gt;Node8 -->
<g id="edge7" class="edge"><title>Node6&#45;&gt;Node8</title>
<path fill="none" stroke="midnightblue" d="M766.96,-212.562C778.083,-215.106 789.523,-218.226 800,-222 817.021,-228.131 818.935,-234.991 836,-241 845.91,-244.49 856.623,-247.392 867.202,-249.79"/>
<polygon fill="midnightblue" stroke="midnightblue" points="866.763,-253.275 877.273,-251.936 868.222,-246.428 866.763,-253.275"/>
</g>
<!-- Node9 -->
<g id="node9" class="node"><title>Node9</title>
<g id="a_node9"><a xlink:href="../../d9/d38/class_turtle_view_1_1_turtle_information.html#a15bd13ad05cabb76c0861d0ab42722ef" target="_top" xlink:title="TurtleView.TurtleInformation.truncate">
<polygon fill="white" stroke="black" points="840,-212.5 840,-231.5 1030,-231.5 1030,-212.5 840,-212.5"/>
<text text-anchor="middle" x="935" y="-219.5" font-family="Helvetica,sans-Serif" font-size="10.00">TurtleView.TurtleInformation.truncate</text>
</a>
</g>
</g>
<!-- Node6&#45;&gt;Node9 -->
<g id="edge8" class="edge"><title>Node6&#45;&gt;Node9</title>
<path fill="none" stroke="midnightblue" d="M799.544,-210.646C809.526,-211.489 819.749,-212.352 829.88,-213.208"/>
<polygon fill="midnightblue" stroke="midnightblue" points="829.71,-216.706 839.969,-214.06 830.299,-209.731 829.71,-216.706"/>
</g>
<!-- Node10 -->
<g id="node10" class="node"><title>Node10</title>
<g id="a_node10"><a xlink:href="../../d1/de0/class_backend_1_1_turtle.html#a715f94909b1ba74dc9e4f9eb4fd91e10" target="_top" xlink:title="Backend.Turtle.getXCord">
<polygon fill="white" stroke="black" points="868.5,-174.5 868.5,-193.5 1001.5,-193.5 1001.5,-174.5 868.5,-174.5"/>
<text text-anchor="middle" x="935" y="-181.5" font-family="Helvetica,sans-Serif" font-size="10.00">Backend.Turtle.getXCord</text>
</a>
</g>
</g>
<!-- Node6&#45;&gt;Node10 -->
<g id="edge9" class="edge"><title>Node6&#45;&gt;Node10</title>
<path fill="none" stroke="midnightblue" d="M799.544,-195.354C819.003,-193.711 839.375,-191.991 858.206,-190.4"/>
<polygon fill="midnightblue" stroke="midnightblue" points="858.525,-193.886 868.195,-189.557 857.936,-186.911 858.525,-193.886"/>
</g>
<!-- Node12 -->
<g id="node12" class="node"><title>Node12</title>
<g id="a_node12"><a xlink:href="../../d1/de0/class_backend_1_1_turtle.html#a692174eccea232fc58e725cff6f50359" target="_top" xlink:title="Backend.Turtle.getYCord">
<polygon fill="white" stroke="black" points="869,-136.5 869,-155.5 1001,-155.5 1001,-136.5 869,-136.5"/>
<text text-anchor="middle" x="935" y="-143.5" font-family="Helvetica,sans-Serif" font-size="10.00">Backend.Turtle.getYCord</text>
</a>
</g>
</g>
<!-- Node6&#45;&gt;Node12 -->
<g id="edge11" class="edge"><title>Node6&#45;&gt;Node12</title>
<path fill="none" stroke="midnightblue" d="M737.779,-193.498C763.374,-185.261 801.918,-173.381 836,-165 846.869,-162.327 858.491,-159.794 869.794,-157.5"/>
<polygon fill="midnightblue" stroke="midnightblue" points="870.492,-160.93 879.618,-155.548 869.128,-154.064 870.492,-160.93"/>
</g>
<!-- Node10&#45;&gt;Node11 -->
<g id="edge10" class="edge"><title>Node10&#45;&gt;Node11</title>
<path fill="none" stroke="midnightblue" d="M987.717,-174.46C1015.76,-169.288 1050.6,-162.86 1080.08,-157.422"/>
<polygon fill="midnightblue" stroke="midnightblue" points="1081.06,-160.8 1090.26,-155.544 1079.79,-153.916 1081.06,-160.8"/>
</g>
<!-- Node12&#45;&gt;Node11 -->
<g id="edge12" class="edge"><title>Node12&#45;&gt;Node11</title>
<path fill="none" stroke="midnightblue" d="M1001.18,-146C1019.75,-146 1040.22,-146 1059.67,-146"/>
<polygon fill="midnightblue" stroke="midnightblue" points="1059.73,-149.5 1069.73,-146 1059.73,-142.5 1059.73,-149.5"/>
</g>
<!-- Node14 -->
<g id="node14" class="node"><title>Node14</title>
<g id="a_node14"><a xlink:href="../../de/d3e/class_turtle_view_1_1_point_converter.html#ac71ac226b80010680a67fdeb56f538af" target="_top" xlink:title="TurtleView.PointConverter.convert\lUserToActualX">
<polygon fill="white" stroke="black" points="401,-49 401,-79 577,-79 577,-49 401,-49"/>
<text text-anchor="start" x="409" y="-67" font-family="Helvetica,sans-Serif" font-size="10.00">TurtleView.PointConverter.convert</text>
<text text-anchor="middle" x="489" y="-56" font-family="Helvetica,sans-Serif" font-size="10.00">UserToActualX</text>
</a>
</g>
</g>
<!-- Node13&#45;&gt;Node14 -->
<g id="edge14" class="edge"><title>Node13&#45;&gt;Node14</title>
<path fill="none" stroke="midnightblue" d="M362.25,-64C371.615,-64 381.186,-64 390.659,-64"/>
<polygon fill="midnightblue" stroke="midnightblue" points="390.886,-67.5001 400.886,-64 390.886,-60.5001 390.886,-67.5001"/>
</g>
<!-- Node15 -->
<g id="node15" class="node"><title>Node15</title>
<g id="a_node15"><a xlink:href="../../de/d3e/class_turtle_view_1_1_point_converter.html#ad02a24b86b9d916f627a7a125b4de02d" target="_top" xlink:title="TurtleView.PointConverter.convert\lUserToActualY">
<polygon fill="white" stroke="black" points="401,-0 401,-30 577,-30 577,-0 401,-0"/>
<text text-anchor="start" x="409" y="-18" font-family="Helvetica,sans-Serif" font-size="10.00">TurtleView.PointConverter.convert</text>
<text text-anchor="middle" x="489" y="-7" font-family="Helvetica,sans-Serif" font-size="10.00">UserToActualY</text>
</a>
</g>
</g>
<!-- Node13&#45;&gt;Node15 -->
<g id="edge15" class="edge"><title>Node13&#45;&gt;Node15</title>
<path fill="none" stroke="midnightblue" d="M340.355,-48.9654C363.253,-43.6976 389.151,-37.7399 412.791,-32.3016"/>
<polygon fill="midnightblue" stroke="midnightblue" points="413.808,-35.6591 422.769,-30.0062 412.239,-28.8373 413.808,-35.6591"/>
</g>
</g>
</svg>
        <g id="navigator" transform="translate(0 0)" fill="#404254">
                <rect fill="#f2f5e9" fill-opacity="0.5" stroke="#606060" stroke-width=".5" x="0" y="0" width="60" height="60"/>
                <use id="zoomplus" xlink:href="#zoomPlus" x="17" y="9" onmousedown="handleZoom(evt,'in')"/>
                <use id="zoomminus" xlink:href="#zoomMin" x="42" y="9" onmousedown="handleZoom(evt,'out')"/>
                <use id="reset" xlink:href="#resetDef" x="30" y="36" onmousedown="handleReset()"/>
                <g id="arrowUp" xlink:href="#dirArrow" transform="translate(30 24)" onmousedown="handlePan(0,-1)">
                  <use xlink:href="#rim" fill="#404040">
                        <set attributeName="fill" to="#808080" begin="arrowUp.mouseover" end="arrowUp.mouseout"/>
                  </use>
                  <path fill="none" stroke="white" stroke-width="1.5" d="M0,-3.0v7 M-2.5,-0.5L0,-3.0L2.5,-0.5"/>
                </g>
                <g id="arrowRight" xlink:href="#dirArrow" transform="rotate(90) translate(36 -43)" onmousedown="handlePan(1,0)">
                  <use xlink:href="#rim" fill="#404040">
                        <set attributeName="fill" to="#808080" begin="arrowRight.mouseover" end="arrowRight.mouseout"/>
                  </use>
                  <path fill="none" stroke="white" stroke-width="1.5" d="M0,-3.0v7 M-2.5,-0.5L0,-3.0L2.5,-0.5"/>
                </g>
                <g id="arrowDown" xlink:href="#dirArrow" transform="rotate(180) translate(-30 -48)" onmousedown="handlePan(0,1)">
                  <use xlink:href="#rim" fill="#404040">
                        <set attributeName="fill" to="#808080" begin="arrowDown.mouseover" end="arrowDown.mouseout"/>
                  </use>
                  <path fill="none" stroke="white" stroke-width="1.5" d="M0,-3.0v7 M-2.5,-0.5L0,-3.0L2.5,-0.5"/>
                </g>
                <g id="arrowLeft" xlink:href="#dirArrow" transform="rotate(270) translate(-36 17)" onmousedown="handlePan(-1,0)">
                  <use xlink:href="#rim" fill="#404040">
                        <set attributeName="fill" to="#808080" begin="arrowLeft.mouseover" end="arrowLeft.mouseout"/>
                  </use>
                  <path fill="none" stroke="white" stroke-width="1.5" d="M0,-3.0v7 M-2.5,-0.5L0,-3.0L2.5,-0.5"/>
                </g>
        </g>
        <svg viewBox="0 0 15 15" width="100%" height="30px" preserveAspectRatio="xMaxYMin meet">
         <g id="arrow_out" transform="scale(0.3 0.3)">
          <a xlink:href="class_nodes_1_1turtlecommands_1_1_set_position_node_a5c752365147093605e4591ecbd0ededd_cgraph_org.svg" target="_base">
           <rect id="button" ry="5" rx="5" y="6" x="6" height="38" width="38"
                fill="#f2f5e9" fill-opacity="0.5" stroke="#606060" stroke-width="1.0"/>
           <path id="arrow"
             d="M 11.500037,31.436501 C 11.940474,20.09759 22.043105,11.32322 32.158766,21.979434 L 37.068811,17.246167 C 37.068811,17.246167 37.088388,32 37.088388,32 L 22.160133,31.978069 C 22.160133,31.978069 26.997745,27.140456 26.997745,27.140456 C 18.528582,18.264221 13.291696,25.230495 11.500037,31.436501 z"
             style="fill:#404040;"/>
          </a>
         </g>
        </svg>
</svg>
