<?xml version="1.0" encoding="UTF-8" standalone="no"?>
<!DOCTYPE svg PUBLIC "-//W3C//DTD SVG 1.1//EN"
 "http://www.w3.org/Graphics/SVG/1.1/DTD/svg11.dtd">
<!-- Generated by graphviz version 2.36.0 (20140111.2315)
 -->
<!-- Title: Nodes.turtlecommands.IsPenDownNode.update Pages: 1 -->
<svg width="470pt" height="38pt"
 viewBox="0.00 0.00 470.00 38.00" xmlns="http://www.w3.org/2000/svg" xmlns:xlink="http://www.w3.org/1999/xlink">
<g id="graph0" class="graph" transform="scale(1 1) rotate(0) translate(4 34)">
<title>Nodes.turtlecommands.IsPenDownNode.update</title>
<polygon fill="white" stroke="none" points="-4,4 -4,-34 466,-34 466,4 -4,4"/>
<!-- Node1 -->
<g id="node1" class="node"><title>Node1</title>
<polygon fill="#bfbfbf" stroke="black" points="0,-0 0,-30 158,-30 158,-0 0,-0"/>
<text text-anchor="start" x="8" y="-18" font-family="Helvetica,sans-Serif" font-size="10.00">Nodes.turtlecommands.IsPen</text>
<text text-anchor="middle" x="79" y="-7" font-family="Helvetica,sans-Serif" font-size="10.00">DownNode.update</text>
</g>
<!-- Node2 -->
<g id="node2" class="node"><title>Node2</title>
<g id="a_node2"><a xlink:href="../../d1/de0/class_backend_1_1_turtle.html#aaf448975d00a26f4742fa3690a1e4b12" target="_top" xlink:title="Backend.Turtle.penStatus">
<polygon fill="white" stroke="black" points="194.5,-5.5 194.5,-24.5 333.5,-24.5 333.5,-5.5 194.5,-5.5"/>
<text text-anchor="middle" x="264" y="-12.5" font-family="Helvetica,sans-Serif" font-size="10.00">Backend.Turtle.penStatus</text>
</a>
</g>
</g>
<!-- Node1&#45;&gt;Node2 -->
<g id="edge1" class="edge"><title>Node1&#45;&gt;Node2</title>
<path fill="none" stroke="midnightblue" d="M158.139,-15C166.797,-15 175.619,-15 184.284,-15"/>
<polygon fill="midnightblue" stroke="midnightblue" points="184.365,-18.5001 194.365,-15 184.365,-11.5001 184.365,-18.5001"/>
</g>
<!-- Node3 -->
<g id="node3" class="node"><title>Node3</title>
<g id="a_node3"><a xlink:href="../../df/daf/class_pen_1_1_pen.html#a17bb6f9550700e0a5149606b28601cff" target="_top" xlink:title="Pen.Pen.isDown">
<polygon fill="white" stroke="black" points="370,-5.5 370,-24.5 462,-24.5 462,-5.5 370,-5.5"/>
<text text-anchor="middle" x="416" y="-12.5" font-family="Helvetica,sans-Serif" font-size="10.00">Pen.Pen.isDown</text>
</a>
</g>
</g>
<!-- Node2&#45;&gt;Node3 -->
<g id="edge2" class="edge"><title>Node2&#45;&gt;Node3</title>
<path fill="none" stroke="midnightblue" d="M333.854,-15C342.505,-15 351.266,-15 359.672,-15"/>
<polygon fill="midnightblue" stroke="midnightblue" points="359.719,-18.5001 369.718,-15 359.718,-11.5001 359.719,-18.5001"/>
</g>
</g>
</svg>
