<?xml version="1.0" encoding="UTF-8" standalone="no"?>
<!DOCTYPE svg PUBLIC "-//W3C//DTD SVG 1.1//EN"
 "http://www.w3.org/Graphics/SVG/1.1/DTD/svg11.dtd">
<!-- Generated by graphviz version 2.36.0 (20140111.2315)
 -->
<!-- Title: FrontEnd.ArrowKeyHandler.makeInstruction Pages: 1 -->
<svg width="546pt" height="38pt"
 viewBox="0.00 0.00 546.00 38.00" xmlns="http://www.w3.org/2000/svg" xmlns:xlink="http://www.w3.org/1999/xlink">
<g id="graph0" class="graph" transform="scale(1 1) rotate(0) translate(4 34)">
<title>FrontEnd.ArrowKeyHandler.makeInstruction</title>
<polygon fill="white" stroke="none" points="-4,4 -4,-34 542,-34 542,4 -4,4"/>
<!-- Node1 -->
<g id="node1" class="node"><title>Node1</title>
<polygon fill="#bfbfbf" stroke="black" points="0,-0 0,-30 172,-30 172,-0 0,-0"/>
<text text-anchor="start" x="8" y="-18" font-family="Helvetica,sans-Serif" font-size="10.00">FrontEnd.ArrowKeyHandler.make</text>
<text text-anchor="middle" x="86" y="-7" font-family="Helvetica,sans-Serif" font-size="10.00">Instruction</text>
</g>
<!-- Node2 -->
<g id="node2" class="node"><title>Node2</title>
<g id="a_node2"><a xlink:href="../../df/dec/class_front_end_1_1_view.html#a87ed355b9c89f962145ec0c1b158a5e3" target="_top" xlink:title="FrontEnd.View.sendArrowCommand">
<polygon fill="white" stroke="black" points="208,-5.5 208,-24.5 394,-24.5 394,-5.5 208,-5.5"/>
<text text-anchor="middle" x="301" y="-12.5" font-family="Helvetica,sans-Serif" font-size="10.00">FrontEnd.View.sendArrowCommand</text>
</a>
</g>
</g>
<!-- Node1&#45;&gt;Node2 -->
<g id="edge1" class="edge"><title>Node1&#45;&gt;Node2</title>
<path fill="none" stroke="midnightblue" d="M182.326,-15C190.759,-15 199.286,-15 207.694,-15"/>
<polygon fill="midnightblue" stroke="midnightblue" points="182.102,-11.5001 172.102,-15 182.101,-18.5001 182.102,-11.5001"/>
</g>
<!-- Node3 -->
<g id="node3" class="node"><title>Node3</title>
<g id="a_node3"><a xlink:href="../../df/dec/class_front_end_1_1_view.html#a079d7e899ded516b169dc6e66da79e1e" target="_top" xlink:title="FrontEnd.View.View">
<polygon fill="white" stroke="black" points="430.5,-5.5 430.5,-24.5 537.5,-24.5 537.5,-5.5 430.5,-5.5"/>
<text text-anchor="middle" x="484" y="-12.5" font-family="Helvetica,sans-Serif" font-size="10.00">FrontEnd.View.View</text>
</a>
</g>
</g>
<!-- Node2&#45;&gt;Node3 -->
<g id="edge2" class="edge"><title>Node2&#45;&gt;Node3</title>
<path fill="none" stroke="midnightblue" d="M404.235,-15C413.179,-15 421.967,-15 430.243,-15"/>
<polygon fill="midnightblue" stroke="midnightblue" points="404.091,-11.5001 394.091,-15 404.091,-18.5001 404.091,-11.5001"/>
</g>
</g>
</svg>
