<?xml version="1.0" encoding="UTF-8" standalone="no"?>
<!DOCTYPE svg PUBLIC "-//W3C//DTD SVG 1.1//EN"
 "http://www.w3.org/Graphics/SVG/1.1/DTD/svg11.dtd">
<!-- Generated by graphviz version 2.36.0 (20140111.2315)
 -->
<!-- Title: Nodes.loops.LoopNode Pages: 1 -->
<svg width="309pt" height="140pt"
 viewBox="0.00 0.00 309.00 140.00" xmlns="http://www.w3.org/2000/svg" xmlns:xlink="http://www.w3.org/1999/xlink">
<g id="graph0" class="graph" transform="scale(1 1) rotate(0) translate(4 136)">
<title>Nodes.loops.LoopNode</title>
<polygon fill="white" stroke="none" points="-4,4 -4,-136 305,-136 305,4 -4,4"/>
<!-- Node1 -->
<g id="node1" class="node"><title>Node1</title>
<polygon fill="#bfbfbf" stroke="black" points="89,-56.5 89,-75.5 217,-75.5 217,-56.5 89,-56.5"/>
<text text-anchor="middle" x="153" y="-63.5" font-family="Helvetica,sans-Serif" font-size="10.00">Nodes.loops.LoopNode</text>
</g>
<!-- Node3 -->
<g id="node3" class="node"><title>Node3</title>
<g id="a_node3"><a xlink:href="../../da/d0c/class_nodes_1_1loops_1_1_do_times_node.html" target="_top" xlink:title="Nodes.loops.DoTimesNode">
<polygon fill="white" stroke="black" points="0,-0.5 0,-19.5 146,-19.5 146,-0.5 0,-0.5"/>
<text text-anchor="middle" x="73" y="-7.5" font-family="Helvetica,sans-Serif" font-size="10.00">Nodes.loops.DoTimesNode</text>
</a>
</g>
</g>
<!-- Node1&#45;&gt;Node3 -->
<g id="edge2" class="edge"><title>Node1&#45;&gt;Node3</title>
<path fill="none" stroke="midnightblue" d="M131.699,-50.6221C117.085,-40.7574 98.1732,-27.9919 85.8215,-19.6545"/>
<polygon fill="midnightblue" stroke="midnightblue" points="129.9,-53.6302 140.147,-56.324 133.816,-47.8282 129.9,-53.6302"/>
</g>
<!-- Node4 -->
<g id="node4" class="node"><title>Node4</title>
<g id="a_node4"><a xlink:href="../../d8/dcb/class_nodes_1_1loops_1_1_repeat_node.html" target="_top" xlink:title="Nodes.loops.RepeatNode">
<polygon fill="white" stroke="black" points="164.5,-0.5 164.5,-19.5 301.5,-19.5 301.5,-0.5 164.5,-0.5"/>
<text text-anchor="middle" x="233" y="-7.5" font-family="Helvetica,sans-Serif" font-size="10.00">Nodes.loops.RepeatNode</text>
</a>
</g>
</g>
<!-- Node1&#45;&gt;Node4 -->
<g id="edge3" class="edge"><title>Node1&#45;&gt;Node4</title>
<path fill="none" stroke="midnightblue" d="M174.301,-50.6221C188.915,-40.7574 207.827,-27.9919 220.179,-19.6545"/>
<polygon fill="midnightblue" stroke="midnightblue" points="172.184,-47.8282 165.853,-56.324 176.1,-53.6302 172.184,-47.8282"/>
</g>
<!-- Node2 -->
<g id="node2" class="node"><title>Node2</title>
<g id="a_node2"><a xlink:href="../../df/dac/class_nodes_1_1_node.html" target="_top" xlink:title="Nodes.Node">
<polygon fill="white" stroke="black" points="115,-112.5 115,-131.5 191,-131.5 191,-112.5 115,-112.5"/>
<text text-anchor="middle" x="153" y="-119.5" font-family="Helvetica,sans-Serif" font-size="10.00">Nodes.Node</text>
</a>
</g>
</g>
<!-- Node2&#45;&gt;Node1 -->
<g id="edge1" class="edge"><title>Node2&#45;&gt;Node1</title>
<path fill="none" stroke="midnightblue" d="M153,-101.805C153,-92.9102 153,-82.7798 153,-75.7511"/>
<polygon fill="midnightblue" stroke="midnightblue" points="149.5,-102.083 153,-112.083 156.5,-102.083 149.5,-102.083"/>
</g>
</g>
</svg>
