<?xml version="1.0" encoding="UTF-8" standalone="no"?>
<!DOCTYPE svg PUBLIC "-//W3C//DTD SVG 1.1//EN"
 "http://www.w3.org/Graphics/SVG/1.1/DTD/svg11.dtd">
<!-- Generated by graphviz version 2.36.0 (20140111.2315)
 -->
<!-- Title: Pen.PenOptions.setUpBoxes Pages: 1 -->
<svg width="362pt" height="142pt"
 viewBox="0.00 0.00 362.00 142.00" xmlns="http://www.w3.org/2000/svg" xmlns:xlink="http://www.w3.org/1999/xlink">
<g id="graph0" class="graph" transform="scale(1 1) rotate(0) translate(4 138)">
<title>Pen.PenOptions.setUpBoxes</title>
<polygon fill="white" stroke="none" points="-4,4 -4,-138 358,-138 358,4 -4,4"/>
<!-- Node1 -->
<g id="node1" class="node"><title>Node1</title>
<polygon fill="#bfbfbf" stroke="black" points="0.5,-57.5 0.5,-76.5 153.5,-76.5 153.5,-57.5 0.5,-57.5"/>
<text text-anchor="middle" x="77" y="-64.5" font-family="Helvetica,sans-Serif" font-size="10.00">Pen.PenOptions.setUpBoxes</text>
</g>
<!-- Node2 -->
<g id="node2" class="node"><title>Node2</title>
<g id="a_node2"><a xlink:href="../../df/d6f/class_pen_1_1_pen_color_box.html#aae318791bb01d9f125e699369cffd643" target="_top" xlink:title="Pen.PenColorBox.getColor">
<polygon fill="white" stroke="black" points="201,-114.5 201,-133.5 343,-133.5 343,-114.5 201,-114.5"/>
<text text-anchor="middle" x="272" y="-121.5" font-family="Helvetica,sans-Serif" font-size="10.00">Pen.PenColorBox.getColor</text>
</a>
</g>
</g>
<!-- Node1&#45;&gt;Node2 -->
<g id="edge1" class="edge"><title>Node1&#45;&gt;Node2</title>
<path fill="none" stroke="midnightblue" d="M104.025,-76.6285C126.581,-84.781 160.192,-96.4688 190,-105 198.576,-107.454 207.728,-109.83 216.68,-112.023"/>
<polygon fill="midnightblue" stroke="midnightblue" points="216.119,-115.488 226.659,-114.415 217.75,-108.68 216.119,-115.488"/>
</g>
<!-- Node3 -->
<g id="node3" class="node"><title>Node3</title>
<g id="a_node3"><a xlink:href="../../d4/dc3/class_pen_1_1_pen_thickness_box.html#a5a8dce4904334b70944157f8baa627ba" target="_top" xlink:title="Pen.PenThicknessBox.getThick">
<polygon fill="white" stroke="black" points="190.5,-76.5 190.5,-95.5 353.5,-95.5 353.5,-76.5 190.5,-76.5"/>
<text text-anchor="middle" x="272" y="-83.5" font-family="Helvetica,sans-Serif" font-size="10.00">Pen.PenThicknessBox.getThick</text>
</a>
</g>
</g>
<!-- Node1&#45;&gt;Node3 -->
<g id="edge2" class="edge"><title>Node1&#45;&gt;Node3</title>
<path fill="none" stroke="midnightblue" d="M153.725,-74.4548C162.472,-75.3159 171.458,-76.2005 180.377,-77.0786"/>
<polygon fill="midnightblue" stroke="midnightblue" points="180.107,-80.5688 190.402,-78.0655 180.793,-73.6025 180.107,-80.5688"/>
</g>
<!-- Node4 -->
<g id="node4" class="node"><title>Node4</title>
<g id="a_node4"><a xlink:href="../../d6/da0/class_pen_1_1_pen_type_box.html#a9ec2bbedf921132cc8fbdff14fa54b9d" target="_top" xlink:title="Pen.PenTypeBox.getType">
<polygon fill="white" stroke="black" points="205,-38.5 205,-57.5 339,-57.5 339,-38.5 205,-38.5"/>
<text text-anchor="middle" x="272" y="-45.5" font-family="Helvetica,sans-Serif" font-size="10.00">Pen.PenTypeBox.getType</text>
</a>
</g>
</g>
<!-- Node1&#45;&gt;Node4 -->
<g id="edge3" class="edge"><title>Node1&#45;&gt;Node4</title>
<path fill="none" stroke="midnightblue" d="M153.725,-59.5452C167.189,-58.2197 181.221,-56.8384 194.701,-55.5113"/>
<polygon fill="midnightblue" stroke="midnightblue" points="195.275,-58.9718 204.884,-54.5088 194.589,-52.0055 195.275,-58.9718"/>
</g>
<!-- Node5 -->
<g id="node5" class="node"><title>Node5</title>
<g id="a_node5"><a xlink:href="../../d0/d46/class_pen_1_1_pen_options.html#adf61f6a4dcdcd610c14ee7ac69bc68c2" target="_top" xlink:title="Pen.PenOptions.updatePen">
<polygon fill="white" stroke="black" points="198.5,-0.5 198.5,-19.5 345.5,-19.5 345.5,-0.5 198.5,-0.5"/>
<text text-anchor="middle" x="272" y="-7.5" font-family="Helvetica,sans-Serif" font-size="10.00">Pen.PenOptions.updatePen</text>
</a>
</g>
</g>
<!-- Node1&#45;&gt;Node5 -->
<g id="edge4" class="edge"><title>Node1&#45;&gt;Node5</title>
<path fill="none" stroke="midnightblue" d="M104.025,-57.3715C126.581,-49.219 160.192,-37.5312 190,-29 198.576,-26.5455 207.728,-24.1695 216.68,-21.977"/>
<polygon fill="midnightblue" stroke="midnightblue" points="217.75,-25.3196 226.659,-19.5851 216.119,-18.5124 217.75,-25.3196"/>
</g>
</g>
</svg>
