<?xml version="1.0" encoding="UTF-8" standalone="no"?>
<!DOCTYPE svg PUBLIC "-//W3C//DTD SVG 1.1//EN"
 "http://www.w3.org/Graphics/SVG/1.1/DTD/svg11.dtd">
<!-- Generated by graphviz version 2.36.0 (20140111.2315)
 -->
<!-- Title: Pen.PenOptions.changePen Pages: 1 -->
<svg width="854pt" height="87pt"
 viewBox="0.00 0.00 854.00 87.00" xmlns="http://www.w3.org/2000/svg" xmlns:xlink="http://www.w3.org/1999/xlink">
<g id="graph0" class="graph" transform="scale(1 1) rotate(0) translate(4 83)">
<title>Pen.PenOptions.changePen</title>
<polygon fill="white" stroke="none" points="-4,4 -4,-83 850,-83 850,4 -4,4"/>
<!-- Node1 -->
<g id="node1" class="node"><title>Node1</title>
<polygon fill="#bfbfbf" stroke="black" points="0.5,-32.5 0.5,-51.5 149.5,-51.5 149.5,-32.5 0.5,-32.5"/>
<text text-anchor="middle" x="75" y="-39.5" font-family="Helvetica,sans-Serif" font-size="10.00">Pen.PenOptions.changePen</text>
</g>
<!-- Node2 -->
<g id="node2" class="node"><title>Node2</title>
<g id="a_node2"><a xlink:href="../../d4/d8a/class_turtle_view_1_1_turtle_window.html#a55f7ffa346d2ced8f9e831efc900d0c0" target="_top" xlink:title="TurtleView.TurtleWindow.click">
<polygon fill="white" stroke="black" points="186.5,-32.5 186.5,-51.5 335.5,-51.5 335.5,-32.5 186.5,-32.5"/>
<text text-anchor="middle" x="261" y="-39.5" font-family="Helvetica,sans-Serif" font-size="10.00">TurtleView.TurtleWindow.click</text>
</a>
</g>
</g>
<!-- Node1&#45;&gt;Node2 -->
<g id="edge1" class="edge"><title>Node1&#45;&gt;Node2</title>
<path fill="none" stroke="midnightblue" d="M159.533,-42C168.462,-42 177.498,-42 186.302,-42"/>
<polygon fill="midnightblue" stroke="midnightblue" points="159.515,-38.5001 149.515,-42 159.515,-45.5001 159.515,-38.5001"/>
</g>
<!-- Node3 -->
<g id="node3" class="node"><title>Node3</title>
<g id="a_node3"><a xlink:href="../../d4/d8a/class_turtle_view_1_1_turtle_window.html#a82959fc46f81f3a875e126b5ecd6325d" target="_top" xlink:title="TurtleView.TurtleWindow.\lTurtleWindow">
<polygon fill="white" stroke="black" points="568.5,-49 568.5,-79 697.5,-79 697.5,-49 568.5,-49"/>
<text text-anchor="start" x="576.5" y="-67" font-family="Helvetica,sans-Serif" font-size="10.00">TurtleView.TurtleWindow.</text>
<text text-anchor="middle" x="633" y="-56" font-family="Helvetica,sans-Serif" font-size="10.00">TurtleWindow</text>
</a>
</g>
</g>
<!-- Node2&#45;&gt;Node3 -->
<g id="edge2" class="edge"><title>Node2&#45;&gt;Node3</title>
<path fill="none" stroke="midnightblue" d="M345.736,-46.9789C413.312,-50.9969 506.942,-56.5641 568.461,-60.222"/>
<polygon fill="midnightblue" stroke="midnightblue" points="345.733,-43.4726 335.542,-46.3728 345.317,-50.4603 345.733,-43.4726"/>
</g>
<!-- Node4 -->
<g id="node4" class="node"><title>Node4</title>
<g id="a_node4"><a xlink:href="../../d4/d8a/class_turtle_view_1_1_turtle_window.html#ab6961d80a7e356af4e9206478608ed40" target="_top" xlink:title="TurtleView.TurtleWindow.make\lTurtle">
<polygon fill="white" stroke="black" points="372,-5 372,-35 528,-35 528,-5 372,-5"/>
<text text-anchor="start" x="380" y="-23" font-family="Helvetica,sans-Serif" font-size="10.00">TurtleView.TurtleWindow.make</text>
<text text-anchor="middle" x="450" y="-12" font-family="Helvetica,sans-Serif" font-size="10.00">Turtle</text>
</a>
</g>
</g>
<!-- Node2&#45;&gt;Node4 -->
<g id="edge3" class="edge"><title>Node2&#45;&gt;Node4</title>
<path fill="none" stroke="midnightblue" d="M345.73,-32.1494C354.386,-31.131 363.155,-30.0994 371.736,-29.0899"/>
<polygon fill="midnightblue" stroke="midnightblue" points="345.161,-28.6921 335.639,-33.3366 345.979,-35.6441 345.161,-28.6921"/>
</g>
<!-- Node4&#45;&gt;Node3 -->
<g id="edge6" class="edge"><title>Node4&#45;&gt;Node3</title>
<path fill="none" stroke="midnightblue" d="M522.929,-37.4855C538.568,-41.2873 554.981,-45.277 570.188,-48.9738"/>
<polygon fill="midnightblue" stroke="midnightblue" points="523.327,-33.9805 512.784,-35.0192 521.674,-40.7824 523.327,-33.9805"/>
</g>
<!-- Node5 -->
<g id="node5" class="node"><title>Node5</title>
<g id="a_node5"><a xlink:href="../../df/dec/class_front_end_1_1_view.html#affad60393f506692d02f9dc2525780d2" target="_top" xlink:title="FrontEnd.View.makeTurtle\lButton">
<polygon fill="white" stroke="black" points="564,-0 564,-30 702,-30 702,-0 564,-0"/>
<text text-anchor="start" x="572" y="-18" font-family="Helvetica,sans-Serif" font-size="10.00">FrontEnd.View.makeTurtle</text>
<text text-anchor="middle" x="633" y="-7" font-family="Helvetica,sans-Serif" font-size="10.00">Button</text>
</a>
</g>
</g>
<!-- Node4&#45;&gt;Node5 -->
<g id="edge4" class="edge"><title>Node4&#45;&gt;Node5</title>
<path fill="none" stroke="midnightblue" d="M538.146,-17.5926C546.802,-17.3535 555.5,-17.1133 563.92,-16.8807"/>
<polygon fill="midnightblue" stroke="midnightblue" points="537.922,-14.0974 528.023,-17.8723 538.116,-21.0947 537.922,-14.0974"/>
</g>
<!-- Node6 -->
<g id="node6" class="node"><title>Node6</title>
<g id="a_node6"><a xlink:href="../../df/dec/class_front_end_1_1_view.html#a079d7e899ded516b169dc6e66da79e1e" target="_top" xlink:title="FrontEnd.View.View">
<polygon fill="white" stroke="black" points="738.5,-5.5 738.5,-24.5 845.5,-24.5 845.5,-5.5 738.5,-5.5"/>
<text text-anchor="middle" x="792" y="-12.5" font-family="Helvetica,sans-Serif" font-size="10.00">FrontEnd.View.View</text>
</a>
</g>
</g>
<!-- Node5&#45;&gt;Node6 -->
<g id="edge5" class="edge"><title>Node5&#45;&gt;Node6</title>
<path fill="none" stroke="midnightblue" d="M712.636,-15C721.372,-15 730.105,-15 738.404,-15"/>
<polygon fill="midnightblue" stroke="midnightblue" points="712.406,-11.5001 702.406,-15 712.406,-18.5001 712.406,-11.5001"/>
</g>
</g>
</svg>
