<?xml version="1.0" encoding="UTF-8" standalone="no"?>
<!DOCTYPE svg PUBLIC "-//W3C//DTD SVG 1.1//EN"
 "http://www.w3.org/Graphics/SVG/1.1/DTD/svg11.dtd">
<!-- Generated by graphviz version 2.36.0 (20140111.2315)
 -->
<!-- Title: Pen.PenOptions.PenOptions Pages: 1 -->
<svg width="548pt" height="142pt"
 viewBox="0.00 0.00 548.00 142.00" xmlns="http://www.w3.org/2000/svg" xmlns:xlink="http://www.w3.org/1999/xlink">
<g id="graph0" class="graph" transform="scale(1 1) rotate(0) translate(4 138)">
<title>Pen.PenOptions.PenOptions</title>
<polygon fill="white" stroke="none" points="-4,4 -4,-138 544,-138 544,4 -4,4"/>
<!-- Node1 -->
<g id="node1" class="node"><title>Node1</title>
<polygon fill="#bfbfbf" stroke="black" points="0,-57.5 0,-76.5 150,-76.5 150,-57.5 0,-57.5"/>
<text text-anchor="middle" x="75" y="-64.5" font-family="Helvetica,sans-Serif" font-size="10.00">Pen.PenOptions.PenOptions</text>
</g>
<!-- Node2 -->
<g id="node2" class="node"><title>Node2</title>
<g id="a_node2"><a xlink:href="../../d0/d46/class_pen_1_1_pen_options.html#ad4c2effd79623294227f7dd777c02a31" target="_top" xlink:title="Pen.PenOptions.setUpBoxes">
<polygon fill="white" stroke="black" points="186.5,-57.5 186.5,-76.5 339.5,-76.5 339.5,-57.5 186.5,-57.5"/>
<text text-anchor="middle" x="263" y="-64.5" font-family="Helvetica,sans-Serif" font-size="10.00">Pen.PenOptions.setUpBoxes</text>
</a>
</g>
</g>
<!-- Node1&#45;&gt;Node2 -->
<g id="edge1" class="edge"><title>Node1&#45;&gt;Node2</title>
<path fill="none" stroke="midnightblue" d="M150.047,-67C158.639,-67 167.456,-67 176.189,-67"/>
<polygon fill="midnightblue" stroke="midnightblue" points="176.382,-70.5001 186.382,-67 176.382,-63.5001 176.382,-70.5001"/>
</g>
<!-- Node3 -->
<g id="node3" class="node"><title>Node3</title>
<g id="a_node3"><a xlink:href="../../d4/dc3/class_pen_1_1_pen_thickness_box.html#a5a8dce4904334b70944157f8baa627ba" target="_top" xlink:title="Pen.PenThicknessBox.getThick">
<polygon fill="white" stroke="black" points="376.5,-114.5 376.5,-133.5 539.5,-133.5 539.5,-114.5 376.5,-114.5"/>
<text text-anchor="middle" x="458" y="-121.5" font-family="Helvetica,sans-Serif" font-size="10.00">Pen.PenThicknessBox.getThick</text>
</a>
</g>
</g>
<!-- Node2&#45;&gt;Node3 -->
<g id="edge2" class="edge"><title>Node2&#45;&gt;Node3</title>
<path fill="none" stroke="midnightblue" d="M290.025,-76.6285C312.581,-84.781 346.192,-96.4688 376,-105 384.576,-107.454 393.728,-109.83 402.68,-112.023"/>
<polygon fill="midnightblue" stroke="midnightblue" points="402.119,-115.488 412.659,-114.415 403.75,-108.68 402.119,-115.488"/>
</g>
<!-- Node4 -->
<g id="node4" class="node"><title>Node4</title>
<g id="a_node4"><a xlink:href="../../df/d6f/class_pen_1_1_pen_color_box.html#aae318791bb01d9f125e699369cffd643" target="_top" xlink:title="Pen.PenColorBox.getColor">
<polygon fill="white" stroke="black" points="387,-76.5 387,-95.5 529,-95.5 529,-76.5 387,-76.5"/>
<text text-anchor="middle" x="458" y="-83.5" font-family="Helvetica,sans-Serif" font-size="10.00">Pen.PenColorBox.getColor</text>
</a>
</g>
</g>
<!-- Node2&#45;&gt;Node4 -->
<g id="edge3" class="edge"><title>Node2&#45;&gt;Node4</title>
<path fill="none" stroke="midnightblue" d="M339.725,-74.4548C351.853,-75.6487 364.441,-76.8879 376.672,-78.092"/>
<polygon fill="midnightblue" stroke="midnightblue" points="376.549,-81.5968 386.844,-79.0934 377.235,-74.6305 376.549,-81.5968"/>
</g>
<!-- Node5 -->
<g id="node5" class="node"><title>Node5</title>
<g id="a_node5"><a xlink:href="../../d0/d46/class_pen_1_1_pen_options.html#adf61f6a4dcdcd610c14ee7ac69bc68c2" target="_top" xlink:title="Pen.PenOptions.updatePen">
<polygon fill="white" stroke="black" points="384.5,-38.5 384.5,-57.5 531.5,-57.5 531.5,-38.5 384.5,-38.5"/>
<text text-anchor="middle" x="458" y="-45.5" font-family="Helvetica,sans-Serif" font-size="10.00">Pen.PenOptions.updatePen</text>
</a>
</g>
</g>
<!-- Node2&#45;&gt;Node5 -->
<g id="edge4" class="edge"><title>Node2&#45;&gt;Node5</title>
<path fill="none" stroke="midnightblue" d="M339.725,-59.5452C351.078,-58.4275 362.834,-57.2702 374.324,-56.1391"/>
<polygon fill="midnightblue" stroke="midnightblue" points="374.726,-59.6166 384.335,-55.1536 374.04,-52.6502 374.726,-59.6166"/>
</g>
<!-- Node6 -->
<g id="node6" class="node"><title>Node6</title>
<g id="a_node6"><a xlink:href="../../d6/da0/class_pen_1_1_pen_type_box.html#a9ec2bbedf921132cc8fbdff14fa54b9d" target="_top" xlink:title="Pen.PenTypeBox.getType">
<polygon fill="white" stroke="black" points="391,-0.5 391,-19.5 525,-19.5 525,-0.5 391,-0.5"/>
<text text-anchor="middle" x="458" y="-7.5" font-family="Helvetica,sans-Serif" font-size="10.00">Pen.PenTypeBox.getType</text>
</a>
</g>
</g>
<!-- Node2&#45;&gt;Node6 -->
<g id="edge5" class="edge"><title>Node2&#45;&gt;Node6</title>
<path fill="none" stroke="midnightblue" d="M290.025,-57.3715C312.581,-49.219 346.192,-37.5312 376,-29 384.576,-26.5455 393.728,-24.1695 402.68,-21.977"/>
<polygon fill="midnightblue" stroke="midnightblue" points="403.75,-25.3196 412.659,-19.5851 402.119,-18.5124 403.75,-25.3196"/>
</g>
</g>
</svg>
