<?xml version="1.0" encoding="UTF-8" standalone="no"?>
<!DOCTYPE svg PUBLIC "-//W3C//DTD SVG 1.1//EN"
 "http://www.w3.org/Graphics/SVG/1.1/DTD/svg11.dtd">
<!-- Generated by graphviz version 2.36.0 (20140111.2315)
 -->
<!-- Title: Pen.PenOptions.updatePen Pages: 1 -->
<svg width="532pt" height="28pt"
 viewBox="0.00 0.00 532.00 28.00" xmlns="http://www.w3.org/2000/svg" xmlns:xlink="http://www.w3.org/1999/xlink">
<g id="graph0" class="graph" transform="scale(1 1) rotate(0) translate(4 24)">
<title>Pen.PenOptions.updatePen</title>
<polygon fill="white" stroke="none" points="-4,4 -4,-24 528,-24 528,4 -4,4"/>
<!-- Node1 -->
<g id="node1" class="node"><title>Node1</title>
<polygon fill="#bfbfbf" stroke="black" points="0.5,-0.5 0.5,-19.5 147.5,-19.5 147.5,-0.5 0.5,-0.5"/>
<text text-anchor="middle" x="74" y="-7.5" font-family="Helvetica,sans-Serif" font-size="10.00">Pen.PenOptions.updatePen</text>
</g>
<!-- Node2 -->
<g id="node2" class="node"><title>Node2</title>
<g id="a_node2"><a xlink:href="../../d0/d46/class_pen_1_1_pen_options.html#ad4c2effd79623294227f7dd777c02a31" target="_top" xlink:title="Pen.PenOptions.setUpBoxes">
<polygon fill="white" stroke="black" points="184.5,-0.5 184.5,-19.5 337.5,-19.5 337.5,-0.5 184.5,-0.5"/>
<text text-anchor="middle" x="261" y="-7.5" font-family="Helvetica,sans-Serif" font-size="10.00">Pen.PenOptions.setUpBoxes</text>
</a>
</g>
</g>
<!-- Node1&#45;&gt;Node2 -->
<g id="edge1" class="edge"><title>Node1&#45;&gt;Node2</title>
<path fill="none" stroke="midnightblue" d="M157.843,-10C166.643,-10 175.56,-10 184.273,-10"/>
<polygon fill="midnightblue" stroke="midnightblue" points="157.586,-6.5001 147.586,-10 157.586,-13.5001 157.586,-6.5001"/>
</g>
<!-- Node3 -->
<g id="node3" class="node"><title>Node3</title>
<g id="a_node3"><a xlink:href="../../d0/d46/class_pen_1_1_pen_options.html#a22f4c921bf17a31fe2a83ae2ebbb8421" target="_top" xlink:title="Pen.PenOptions.PenOptions">
<polygon fill="white" stroke="black" points="374,-0.5 374,-19.5 524,-19.5 524,-0.5 374,-0.5"/>
<text text-anchor="middle" x="449" y="-7.5" font-family="Helvetica,sans-Serif" font-size="10.00">Pen.PenOptions.PenOptions</text>
</a>
</g>
</g>
<!-- Node2&#45;&gt;Node3 -->
<g id="edge2" class="edge"><title>Node2&#45;&gt;Node3</title>
<path fill="none" stroke="midnightblue" d="M347.828,-10C356.543,-10 365.344,-10 373.92,-10"/>
<polygon fill="midnightblue" stroke="midnightblue" points="347.653,-6.5001 337.653,-10 347.653,-13.5001 347.653,-6.5001"/>
</g>
</g>
</svg>
