<?xml version="1.0" encoding="UTF-8" standalone="no"?>
<!DOCTYPE svg PUBLIC "-//W3C//DTD SVG 1.1//EN"
 "http://www.w3.org/Graphics/SVG/1.1/DTD/svg11.dtd">
<!-- Generated by graphviz version 2.36.0 (20140111.2315)
 -->
<!-- Title: Nodes.turtlecommands.BackwardNode.update Pages: 1 -->
<!--zoomable 180 -->
<svg id="main" version="1.1" xmlns="http://www.w3.org/2000/svg" xmlns:xlink="http://www.w3.org/1999/xlink" xml:space="preserve" onload="init(evt)">
<style type="text/css"><![CDATA[
.edge:hover path { stroke: red; }
.edge:hover polygon { stroke: red; fill: red; }
]]></style>
<script type="text/javascript"><![CDATA[
var edges = document.getElementsByTagName('g');
if (edges && edges.length) {
  for (var i=0;i<edges.length;i++) {
    if (edges[i].id.substr(0,4)=='edge') {
      edges[i].setAttribute('class','edge');
    }
  }
}
]]></script>
        <defs>
                <circle id="rim" cx="0" cy="0" r="7"/>
                <circle id="rim2" cx="0" cy="0" r="3.5"/>
                <g id="zoomPlus">
                        <use xlink:href="#rim" fill="#404040">
                                <set attributeName="fill" to="#808080" begin="zoomplus.mouseover" end="zoomplus.mouseout"/>
                        </use>
                        <path d="M-4,0h8M0,-4v8" fill="none" stroke="white" stroke-width="1.5" pointer-events="none"/>
                </g>
                <g id="zoomMin">
                        <use xlink:href="#rim" fill="#404040">
                                <set attributeName="fill" to="#808080" begin="zoomminus.mouseover" end="zoomminus.mouseout"/>
                        </use>
                        <path d="M-4,0h8" fill="none" stroke="white" stroke-width="1.5" pointer-events="none"/>
                </g>
                <g id="dirArrow">
                        <path fill="none" stroke="white" stroke-width="1.5" d="M0,-3.0v7 M-2.5,-0.5L0,-3.0L2.5,-0.5"/>
                </g>
               <g id="resetDef">
                       <use xlink:href="#rim2" fill="#404040">
                               <set attributeName="fill" to="#808080" begin="reset.mouseover" end="reset.mouseout"/>
                       </use>
               </g>
        </defs>

<script type="text/javascript">
var viewWidth = 1230;
var viewHeight = 180;
var sectionId = 'dynsection-2';
</script>
<script xlink:href="../../svgpan.js"/>
<svg id="graph" class="graph">
<g id="viewport">
<title>Nodes.turtlecommands.BackwardNode.update</title>
<polygon fill="white" stroke="none" points="-4,4 -4,-176 1226,-176 1226,4 -4,4"/>
<!-- Node1 -->
<g id="node1" class="node"><title>Node1</title>
<polygon fill="#bfbfbf" stroke="black" points="0.5,-90 0.5,-120 179.5,-120 179.5,-90 0.5,-90"/>
<text text-anchor="start" x="8.5" y="-108" font-family="Helvetica,sans-Serif" font-size="10.00">Nodes.turtlecommands.Backward</text>
<text text-anchor="middle" x="90" y="-97" font-family="Helvetica,sans-Serif" font-size="10.00">Node.update</text>
</g>
<!-- Node2 -->
<g id="node2" class="node"><title>Node2</title>
<g id="a_node2"><a xlink:href="../../d1/de0/class_backend_1_1_turtle.html#ad5f5520cb6970723e121a8d17f2c0a5c" target="_top" xlink:title="Backend.Turtle.addLocation">
<polygon fill="white" stroke="black" points="218,-114.5 218,-133.5 366,-133.5 366,-114.5 218,-114.5"/>
<text text-anchor="middle" x="292" y="-121.5" font-family="Helvetica,sans-Serif" font-size="10.00">Backend.Turtle.addLocation</text>
</a>
</g>
</g>
<!-- Node1&#45;&gt;Node2 -->
<g id="edge1" class="edge"><title>Node1&#45;&gt;Node2</title>
<path fill="none" stroke="midnightblue" d="M179.596,-113.417C188.958,-114.306 198.454,-115.208 207.751,-116.091"/>
<polygon fill="midnightblue" stroke="midnightblue" points="207.46,-119.579 217.746,-117.041 208.122,-112.611 207.46,-119.579"/>
</g>
<!-- Node13 -->
<g id="node13" class="node"><title>Node13</title>
<g id="a_node13"><a xlink:href="../../d1/de0/class_backend_1_1_turtle.html#a0b22f8773c7d4f8b57177df1b8b2ae0d" target="_top" xlink:title="Backend.Turtle.nextLocation">
<polygon fill="white" stroke="black" points="216.5,-76.5 216.5,-95.5 367.5,-95.5 367.5,-76.5 216.5,-76.5"/>
<text text-anchor="middle" x="292" y="-83.5" font-family="Helvetica,sans-Serif" font-size="10.00">Backend.Turtle.nextLocation</text>
</a>
</g>
</g>
<!-- Node1&#45;&gt;Node13 -->
<g id="edge13" class="edge"><title>Node1&#45;&gt;Node13</title>
<path fill="none" stroke="midnightblue" d="M179.596,-96.5833C188.383,-95.7486 197.288,-94.9026 206.037,-94.0715"/>
<polygon fill="midnightblue" stroke="midnightblue" points="206.594,-97.5344 216.218,-93.1043 205.932,-90.5658 206.594,-97.5344"/>
</g>
<!-- Node3 -->
<g id="node3" class="node"><title>Node3</title>
<g id="a_node3"><a xlink:href="../../d5/d67/class_front_end_1_1_boundary.html#a0431407e4d8e1dee03220aba60caef08" target="_top" xlink:title="FrontEnd.Boundary.checkBoundary">
<polygon fill="white" stroke="black" points="404,-133.5 404,-152.5 586,-152.5 586,-133.5 404,-133.5"/>
<text text-anchor="middle" x="495" y="-140.5" font-family="Helvetica,sans-Serif" font-size="10.00">FrontEnd.Boundary.checkBoundary</text>
</a>
</g>
</g>
<!-- Node2&#45;&gt;Node3 -->
<g id="edge2" class="edge"><title>Node2&#45;&gt;Node3</title>
<path fill="none" stroke="midnightblue" d="M366.134,-130.913C375.119,-131.763 384.42,-132.642 393.719,-133.521"/>
<polygon fill="midnightblue" stroke="midnightblue" points="393.508,-137.016 403.793,-134.473 394.166,-130.047 393.508,-137.016"/>
</g>
<!-- Node4 -->
<g id="node4" class="node"><title>Node4</title>
<g id="a_node4"><a xlink:href="../../d1/de0/class_backend_1_1_turtle.html#a94cbed3c9c0c33e1ea8e8b3c51c26c73" target="_top" xlink:title="Backend.Turtle.move">
<polygon fill="white" stroke="black" points="437,-95.5 437,-114.5 553,-114.5 553,-95.5 437,-95.5"/>
<text text-anchor="middle" x="495" y="-102.5" font-family="Helvetica,sans-Serif" font-size="10.00">Backend.Turtle.move</text>
</a>
</g>
</g>
<!-- Node2&#45;&gt;Node4 -->
<g id="edge3" class="edge"><title>Node2&#45;&gt;Node4</title>
<path fill="none" stroke="midnightblue" d="M366.134,-117.087C386.016,-115.207 407.445,-113.182 426.97,-111.336"/>
<polygon fill="midnightblue" stroke="midnightblue" points="427.363,-114.815 436.989,-110.389 426.704,-107.846 427.363,-114.815"/>
</g>
<!-- Node5 -->
<g id="node5" class="node"><title>Node5</title>
<g id="a_node5"><a xlink:href="../../dc/ded/class_turtle_view_1_1_active_ring.html#ae05a085760f46b9f8e6927001c363e39" target="_top" xlink:title="TurtleView.ActiveRing.update">
<polygon fill="white" stroke="black" points="638,-114.5 638,-133.5 790,-133.5 790,-114.5 638,-114.5"/>
<text text-anchor="middle" x="714" y="-121.5" font-family="Helvetica,sans-Serif" font-size="10.00">TurtleView.ActiveRing.update</text>
</a>
</g>
</g>
<!-- Node4&#45;&gt;Node5 -->
<g id="edge4" class="edge"><title>Node4&#45;&gt;Node5</title>
<path fill="none" stroke="midnightblue" d="M553.014,-109.992C575.86,-111.992 602.671,-114.34 627.744,-116.535"/>
<polygon fill="midnightblue" stroke="midnightblue" points="627.726,-120.047 637.993,-117.433 628.337,-113.074 627.726,-120.047"/>
</g>
<!-- Node6 -->
<g id="node6" class="node"><title>Node6</title>
<g id="a_node6"><a xlink:href="../../d9/d38/class_turtle_view_1_1_turtle_information.html#ad65201793ce738f9c6d6e592271c14e1" target="_top" xlink:title="TurtleView.TurtleInformation.update">
<polygon fill="white" stroke="black" points="622.5,-76.5 622.5,-95.5 805.5,-95.5 805.5,-76.5 622.5,-76.5"/>
<text text-anchor="middle" x="714" y="-83.5" font-family="Helvetica,sans-Serif" font-size="10.00">TurtleView.TurtleInformation.update</text>
</a>
</g>
</g>
<!-- Node4&#45;&gt;Node6 -->
<g id="edge5" class="edge"><title>Node4&#45;&gt;Node6</title>
<path fill="none" stroke="midnightblue" d="M553.014,-100.008C571.252,-98.4111 592.016,-96.5931 612.405,-94.8078"/>
<polygon fill="midnightblue" stroke="midnightblue" points="612.716,-98.2942 622.372,-93.9352 612.105,-91.3208 612.716,-98.2942"/>
</g>
<!-- Node7 -->
<g id="node7" class="node"><title>Node7</title>
<g id="a_node7"><a xlink:href="../../d9/d38/class_turtle_view_1_1_turtle_information.html#aca65258778dade3baa31e0d5ec643b3b" target="_top" xlink:title="TurtleView.TurtleInformation.emptyInfo">
<polygon fill="white" stroke="black" points="842.5,-152.5 842.5,-171.5 1039.5,-171.5 1039.5,-152.5 842.5,-152.5"/>
<text text-anchor="middle" x="941" y="-159.5" font-family="Helvetica,sans-Serif" font-size="10.00">TurtleView.TurtleInformation.emptyInfo</text>
</a>
</g>
</g>
<!-- Node6&#45;&gt;Node7 -->
<g id="edge6" class="edge"><title>Node6&#45;&gt;Node7</title>
<path fill="none" stroke="midnightblue" d="M783.73,-95.6175C791.499,-98.0703 799.095,-101.145 806,-105 826.314,-116.339 821.605,-131.806 842,-143 846.195,-145.302 850.624,-147.329 855.19,-149.113"/>
<polygon fill="midnightblue" stroke="midnightblue" points="854.124,-152.448 864.719,-152.443 856.434,-145.84 854.124,-152.448"/>
</g>
<!-- Node8 -->
<g id="node8" class="node"><title>Node8</title>
<g id="a_node8"><a xlink:href="../../d1/de0/class_backend_1_1_turtle.html#adc7cb6cc95ee918547d2b18d8bb20183" target="_top" xlink:title="Backend.Turtle.getID">
<polygon fill="white" stroke="black" points="883.5,-114.5 883.5,-133.5 998.5,-133.5 998.5,-114.5 883.5,-114.5"/>
<text text-anchor="middle" x="941" y="-121.5" font-family="Helvetica,sans-Serif" font-size="10.00">Backend.Turtle.getID</text>
</a>
</g>
</g>
<!-- Node6&#45;&gt;Node8 -->
<g id="edge7" class="edge"><title>Node6&#45;&gt;Node8</title>
<path fill="none" stroke="midnightblue" d="M771.487,-95.54C802.379,-100.757 840.837,-107.253 873.21,-112.72"/>
<polygon fill="midnightblue" stroke="midnightblue" points="873.047,-116.242 883.49,-114.456 874.213,-109.34 873.047,-116.242"/>
</g>
<!-- Node9 -->
<g id="node9" class="node"><title>Node9</title>
<g id="a_node9"><a xlink:href="../../d9/d38/class_turtle_view_1_1_turtle_information.html#a15bd13ad05cabb76c0861d0ab42722ef" target="_top" xlink:title="TurtleView.TurtleInformation.truncate">
<polygon fill="white" stroke="black" points="846,-76.5 846,-95.5 1036,-95.5 1036,-76.5 846,-76.5"/>
<text text-anchor="middle" x="941" y="-83.5" font-family="Helvetica,sans-Serif" font-size="10.00">TurtleView.TurtleInformation.truncate</text>
</a>
</g>
</g>
<!-- Node6&#45;&gt;Node9 -->
<g id="edge8" class="edge"><title>Node6&#45;&gt;Node9</title>
<path fill="none" stroke="midnightblue" d="M805.544,-86C815.526,-86 825.749,-86 835.88,-86"/>
<polygon fill="midnightblue" stroke="midnightblue" points="835.969,-89.5001 845.969,-86 835.969,-82.5001 835.969,-89.5001"/>
</g>
<!-- Node10 -->
<g id="node10" class="node"><title>Node10</title>
<g id="a_node10"><a xlink:href="../../d1/de0/class_backend_1_1_turtle.html#a715f94909b1ba74dc9e4f9eb4fd91e10" target="_top" xlink:title="Backend.Turtle.getXCord">
<polygon fill="white" stroke="black" points="874.5,-38.5 874.5,-57.5 1007.5,-57.5 1007.5,-38.5 874.5,-38.5"/>
<text text-anchor="middle" x="941" y="-45.5" font-family="Helvetica,sans-Serif" font-size="10.00">Backend.Turtle.getXCord</text>
</a>
</g>
</g>
<!-- Node6&#45;&gt;Node10 -->
<g id="edge9" class="edge"><title>Node6&#45;&gt;Node10</title>
<path fill="none" stroke="midnightblue" d="M771.487,-76.46C802.379,-71.2426 840.837,-64.7475 873.21,-59.28"/>
<polygon fill="midnightblue" stroke="midnightblue" points="874.213,-62.6604 883.49,-57.5439 873.047,-55.7581 874.213,-62.6604"/>
</g>
<!-- Node12 -->
<g id="node12" class="node"><title>Node12</title>
<g id="a_node12"><a xlink:href="../../d1/de0/class_backend_1_1_turtle.html#a692174eccea232fc58e725cff6f50359" target="_top" xlink:title="Backend.Turtle.getYCord">
<polygon fill="white" stroke="black" points="875,-0.5 875,-19.5 1007,-19.5 1007,-0.5 875,-0.5"/>
<text text-anchor="middle" x="941" y="-7.5" font-family="Helvetica,sans-Serif" font-size="10.00">Backend.Turtle.getYCord</text>
</a>
</g>
</g>
<!-- Node6&#45;&gt;Node12 -->
<g id="edge11" class="edge"><title>Node6&#45;&gt;Node12</title>
<path fill="none" stroke="midnightblue" d="M732.988,-76.3266C757.138,-63.7161 801.68,-41.7684 842,-29 850.675,-26.2527 859.915,-23.8331 869.122,-21.7223"/>
<polygon fill="midnightblue" stroke="midnightblue" points="870.047,-25.1028 879.072,-19.5522 868.555,-18.2636 870.047,-25.1028"/>
</g>
<!-- Node11 -->
<g id="node11" class="node"><title>Node11</title>
<g id="a_node11"><a xlink:href="../../d1/de0/class_backend_1_1_turtle.html#a33957258db9a7205d470c5a2d22b89af" target="_top" xlink:title="Backend.Turtle.getLocation">
<polygon fill="white" stroke="black" points="1076,-19.5 1076,-38.5 1222,-38.5 1222,-19.5 1076,-19.5"/>
<text text-anchor="middle" x="1149" y="-26.5" font-family="Helvetica,sans-Serif" font-size="10.00">Backend.Turtle.getLocation</text>
</a>
</g>
</g>
<!-- Node10&#45;&gt;Node11 -->
<g id="edge10" class="edge"><title>Node10&#45;&gt;Node11</title>
<path fill="none" stroke="midnightblue" d="M1007.75,-41.936C1026.2,-40.2344 1046.49,-38.3627 1065.77,-36.5845"/>
<polygon fill="midnightblue" stroke="midnightblue" points="1066.11,-40.0682 1075.74,-35.6645 1065.46,-33.0978 1066.11,-40.0682"/>
</g>
<!-- Node12&#45;&gt;Node11 -->
<g id="edge12" class="edge"><title>Node12&#45;&gt;Node11</title>
<path fill="none" stroke="midnightblue" d="M1007.18,-16.0117C1025.75,-17.7245 1046.22,-19.6129 1065.67,-21.4067"/>
<polygon fill="midnightblue" stroke="midnightblue" points="1065.45,-24.9014 1075.73,-22.3347 1066.1,-17.931 1065.45,-24.9014"/>
</g>
</g>
</svg>
        <g id="navigator" transform="translate(0 0)" fill="#404254">
                <rect fill="#f2f5e9" fill-opacity="0.5" stroke="#606060" stroke-width=".5" x="0" y="0" width="60" height="60"/>
                <use id="zoomplus" xlink:href="#zoomPlus" x="17" y="9" onmousedown="handleZoom(evt,'in')"/>
                <use id="zoomminus" xlink:href="#zoomMin" x="42" y="9" onmousedown="handleZoom(evt,'out')"/>
                <use id="reset" xlink:href="#resetDef" x="30" y="36" onmousedown="handleReset()"/>
                <g id="arrowUp" xlink:href="#dirArrow" transform="translate(30 24)" onmousedown="handlePan(0,-1)">
                  <use xlink:href="#rim" fill="#404040">
                        <set attributeName="fill" to="#808080" begin="arrowUp.mouseover" end="arrowUp.mouseout"/>
                  </use>
                  <path fill="none" stroke="white" stroke-width="1.5" d="M0,-3.0v7 M-2.5,-0.5L0,-3.0L2.5,-0.5"/>
                </g>
                <g id="arrowRight" xlink:href="#dirArrow" transform="rotate(90) translate(36 -43)" onmousedown="handlePan(1,0)">
                  <use xlink:href="#rim" fill="#404040">
                        <set attributeName="fill" to="#808080" begin="arrowRight.mouseover" end="arrowRight.mouseout"/>
                  </use>
                  <path fill="none" stroke="white" stroke-width="1.5" d="M0,-3.0v7 M-2.5,-0.5L0,-3.0L2.5,-0.5"/>
                </g>
                <g id="arrowDown" xlink:href="#dirArrow" transform="rotate(180) translate(-30 -48)" onmousedown="handlePan(0,1)">
                  <use xlink:href="#rim" fill="#404040">
                        <set attributeName="fill" to="#808080" begin="arrowDown.mouseover" end="arrowDown.mouseout"/>
                  </use>
                  <path fill="none" stroke="white" stroke-width="1.5" d="M0,-3.0v7 M-2.5,-0.5L0,-3.0L2.5,-0.5"/>
                </g>
                <g id="arrowLeft" xlink:href="#dirArrow" transform="rotate(270) translate(-36 17)" onmousedown="handlePan(-1,0)">
                  <use xlink:href="#rim" fill="#404040">
                        <set attributeName="fill" to="#808080" begin="arrowLeft.mouseover" end="arrowLeft.mouseout"/>
                  </use>
                  <path fill="none" stroke="white" stroke-width="1.5" d="M0,-3.0v7 M-2.5,-0.5L0,-3.0L2.5,-0.5"/>
                </g>
        </g>
        <svg viewBox="0 0 15 15" width="100%" height="30px" preserveAspectRatio="xMaxYMin meet">
         <g id="arrow_out" transform="scale(0.3 0.3)">
          <a xlink:href="class_nodes_1_1turtlecommands_1_1_backward_node_a8ebd60d8ab28acb66aef1fd9ba59d5c7_cgraph_org.svg" target="_base">
           <rect id="button" ry="5" rx="5" y="6" x="6" height="38" width="38"
                fill="#f2f5e9" fill-opacity="0.5" stroke="#606060" stroke-width="1.0"/>
           <path id="arrow"
             d="M 11.500037,31.436501 C 11.940474,20.09759 22.043105,11.32322 32.158766,21.979434 L 37.068811,17.246167 C 37.068811,17.246167 37.088388,32 37.088388,32 L 22.160133,31.978069 C 22.160133,31.978069 26.997745,27.140456 26.997745,27.140456 C 18.528582,18.264221 13.291696,25.230495 11.500037,31.436501 z"
             style="fill:#404040;"/>
          </a>
         </g>
        </svg>
</svg>
