<?xml version="1.0" encoding="UTF-8" standalone="no"?>
<!DOCTYPE svg PUBLIC "-//W3C//DTD SVG 1.1//EN"
 "http://www.w3.org/Graphics/SVG/1.1/DTD/svg11.dtd">
<!-- Generated by graphviz version 2.36.0 (20140111.2315)
 -->
<!-- Title: Pen.PenColorBox Pages: 1 -->
<svg width="271pt" height="108pt"
 viewBox="0.00 0.00 271.00 108.00" xmlns="http://www.w3.org/2000/svg" xmlns:xlink="http://www.w3.org/1999/xlink">
<g id="graph0" class="graph" transform="scale(1 1) rotate(0) translate(4 104)">
<title>Pen.PenColorBox</title>
<polygon fill="white" stroke="none" points="-4,4 -4,-104 267,-104 267,4 -4,4"/>
<!-- Node1 -->
<g id="node1" class="node"><title>Node1</title>
<polygon fill="#bfbfbf" stroke="black" points="84,-0.5 84,-19.5 182,-19.5 182,-0.5 84,-0.5"/>
<text text-anchor="middle" x="133" y="-7.5" font-family="Helvetica,sans-Serif" font-size="10.00">Pen.PenColorBox</text>
</g>
<!-- Node2 -->
<g id="node2" class="node"><title>Node2</title>
<polygon fill="white" stroke="#bfbfbf" points="0,-69 0,-99 126,-99 126,-69 0,-69"/>
<text text-anchor="start" x="8" y="-87" font-family="Helvetica,sans-Serif" font-size="10.00">javafx::scene::control</text>
<text text-anchor="middle" x="63" y="-76" font-family="Helvetica,sans-Serif" font-size="10.00">::ComboBox&lt; String &gt;</text>
</g>
<!-- Node2&#45;&gt;Node1 -->
<g id="edge1" class="edge"><title>Node2&#45;&gt;Node1</title>
<path fill="none" stroke="midnightblue" d="M83.9574,-61.4438C97.5307,-47.4827 114.482,-30.0473 124.484,-19.7589"/>
<polygon fill="midnightblue" stroke="midnightblue" points="81.2911,-59.1654 76.8297,-68.7751 86.3101,-64.0449 81.2911,-59.1654"/>
</g>
<!-- Node3 -->
<g id="node3" class="node"><title>Node3</title>
<polygon fill="white" stroke="#bfbfbf" points="144.5,-74.5 144.5,-93.5 263.5,-93.5 263.5,-74.5 144.5,-74.5"/>
<text text-anchor="middle" x="204" y="-81.5" font-family="Helvetica,sans-Serif" font-size="10.00">Map&lt; String, Color &gt;</text>
</g>
<!-- Node3&#45;&gt;Node1 -->
<g id="edge2" class="edge"><title>Node3&#45;&gt;Node1</title>
<path fill="none" stroke="#9a32cd" stroke-dasharray="5,2" d="M188.307,-67.0857C173.846,-52.421 152.936,-31.2168 141.412,-19.531"/>
<polygon fill="#9a32cd" stroke="#9a32cd" points="186.063,-69.7951 195.577,-74.4579 191.047,-64.88 186.063,-69.7951"/>
<text text-anchor="middle" x="190.5" y="-41.5" font-family="Helvetica,sans-Serif" font-size="10.00"> myMap</text>
</g>
</g>
</svg>
