<?xml version="1.0" encoding="UTF-8" standalone="no"?>
<!DOCTYPE svg PUBLIC "-//W3C//DTD SVG 1.1//EN"
 "http://www.w3.org/Graphics/SVG/1.1/DTD/svg11.dtd">
<!-- Generated by graphviz version 2.36.0 (20140111.2315)
 -->
<!-- Title: Nodes.conditionals.ConditionalNode Pages: 1 -->
<svg width="196pt" height="174pt"
 viewBox="0.00 0.00 196.00 174.00" xmlns="http://www.w3.org/2000/svg" xmlns:xlink="http://www.w3.org/1999/xlink">
<g id="graph0" class="graph" transform="scale(1 1) rotate(0) translate(4 170)">
<title>Nodes.conditionals.ConditionalNode</title>
<polygon fill="white" stroke="none" points="-4,4 -4,-170 192,-170 192,4 -4,4"/>
<!-- Node1 -->
<g id="node1" class="node"><title>Node1</title>
<polygon fill="#bfbfbf" stroke="black" points="-0.5,-0.5 -0.5,-19.5 188.5,-19.5 188.5,-0.5 -0.5,-0.5"/>
<text text-anchor="middle" x="94" y="-7.5" font-family="Helvetica,sans-Serif" font-size="10.00">Nodes.conditionals.ConditionalNode</text>
</g>
<!-- Node2 -->
<g id="node2" class="node"><title>Node2</title>
<g id="a_node2"><a xlink:href="../../df/dac/class_nodes_1_1_node.html" target="_top" xlink:title="Nodes.Node">
<polygon fill="white" stroke="black" points="56,-78.5 56,-97.5 132,-97.5 132,-78.5 56,-78.5"/>
<text text-anchor="middle" x="94" y="-85.5" font-family="Helvetica,sans-Serif" font-size="10.00">Nodes.Node</text>
</a>
</g>
</g>
<!-- Node2&#45;&gt;Node1 -->
<g id="edge1" class="edge"><title>Node2&#45;&gt;Node1</title>
<path fill="none" stroke="midnightblue" d="M92.4399,-68.3825C92.2572,-65.5753 92.1003,-62.7126 92,-60 91.6386,-50.2289 91.6386,-47.7711 92,-38 92.2293,-31.7998 92.7539,-24.8151 93.2083,-19.5033"/>
<polygon fill="midnightblue" stroke="midnightblue" points="88.9607,-68.7906 93.2083,-78.4967 95.9406,-68.2602 88.9607,-68.7906"/>
</g>
<!-- Node2&#45;&gt;Node1 -->
<g id="edge4" class="edge"><title>Node2&#45;&gt;Node1</title>
<path fill="none" stroke="#9a32cd" stroke-dasharray="5,2" d="M94,-68.2239C94,-52.6974 94,-31.3582 94,-19.6165"/>
<polygon fill="#9a32cd" stroke="#9a32cd" points="90.5001,-68.2818 94,-78.2818 97.5001,-68.2819 90.5001,-68.2818"/>
<text text-anchor="middle" x="106.5" y="-52" font-family="Helvetica,sans-Serif" font-size="10.00"> right</text>
<text text-anchor="middle" x="106.5" y="-41" font-family="Helvetica,sans-Serif" font-size="10.00">left</text>
</g>
<!-- Node2&#45;&gt;Node2 -->
<g id="edge3" class="edge"><title>Node2&#45;&gt;Node2</title>
<path fill="none" stroke="#9a32cd" stroke-dasharray="5,2" d="M142.289,-93.1765C147.006,-92.1327 150,-90.4072 150,-88 150,-84.1484 142.335,-82.0421 132.214,-81.681"/>
<polygon fill="#9a32cd" stroke="#9a32cd" points="141.756,-89.7144 132.214,-94.319 142.545,-96.6698 141.756,-89.7144"/>
<text text-anchor="middle" x="167.5" y="-85.5" font-family="Helvetica,sans-Serif" font-size="10.00"> parent</text>
</g>
<!-- Node3 -->
<g id="node3" class="node"><title>Node3</title>
<polygon fill="white" stroke="#bfbfbf" points="24,-146.5 24,-165.5 164,-165.5 164,-146.5 24,-146.5"/>
<text text-anchor="middle" x="94" y="-153.5" font-family="Helvetica,sans-Serif" font-size="10.00">ArrayList&lt; Nodes.Node &gt;</text>
</g>
<!-- Node3&#45;&gt;Node2 -->
<g id="edge2" class="edge"><title>Node3&#45;&gt;Node2</title>
<path fill="none" stroke="#9a32cd" stroke-dasharray="5,2" d="M94,-136.041C94,-123.472 94,-107.563 94,-97.8411"/>
<polygon fill="#9a32cd" stroke="#9a32cd" points="90.5001,-136.372 94,-146.372 97.5001,-136.372 90.5001,-136.372"/>
<text text-anchor="middle" x="123" y="-119.5" font-family="Helvetica,sans-Serif" font-size="10.00"> myChildren</text>
</g>
</g>
</svg>
