<?xml version="1.0" encoding="UTF-8" standalone="no"?>
<!DOCTYPE svg PUBLIC "-//W3C//DTD SVG 1.1//EN"
 "http://www.w3.org/Graphics/SVG/1.1/DTD/svg11.dtd">
<!-- Generated by graphviz version 2.36.0 (20140111.2315)
 -->
<!-- Title: Nodes.booleans.BooleanNode Pages: 1 -->
<svg width="179pt" height="174pt"
 viewBox="0.00 0.00 179.00 174.00" xmlns="http://www.w3.org/2000/svg" xmlns:xlink="http://www.w3.org/1999/xlink">
<g id="graph0" class="graph" transform="scale(1 1) rotate(0) translate(4 170)">
<title>Nodes.booleans.BooleanNode</title>
<polygon fill="white" stroke="none" points="-4,4 -4,-170 175,-170 175,4 -4,4"/>
<!-- Node1 -->
<g id="node1" class="node"><title>Node1</title>
<polygon fill="#bfbfbf" stroke="black" points="-0.5,-0.5 -0.5,-19.5 160.5,-19.5 160.5,-0.5 -0.5,-0.5"/>
<text text-anchor="middle" x="80" y="-7.5" font-family="Helvetica,sans-Serif" font-size="10.00">Nodes.booleans.BooleanNode</text>
</g>
<!-- Node2 -->
<g id="node2" class="node"><title>Node2</title>
<g id="a_node2"><a xlink:href="../../df/dac/class_nodes_1_1_node.html" target="_top" xlink:title="Nodes.Node">
<polygon fill="white" stroke="black" points="42,-78.5 42,-97.5 118,-97.5 118,-78.5 42,-78.5"/>
<text text-anchor="middle" x="80" y="-85.5" font-family="Helvetica,sans-Serif" font-size="10.00">Nodes.Node</text>
</a>
</g>
</g>
<!-- Node2&#45;&gt;Node1 -->
<g id="edge1" class="edge"><title>Node2&#45;&gt;Node1</title>
<path fill="none" stroke="midnightblue" d="M78.4399,-68.3825C78.2572,-65.5753 78.1003,-62.7126 78,-60 77.6386,-50.2289 77.6386,-47.7711 78,-38 78.2293,-31.7998 78.7539,-24.8151 79.2083,-19.5033"/>
<polygon fill="midnightblue" stroke="midnightblue" points="74.9607,-68.7906 79.2083,-78.4967 81.9406,-68.2602 74.9607,-68.7906"/>
</g>
<!-- Node2&#45;&gt;Node1 -->
<g id="edge4" class="edge"><title>Node2&#45;&gt;Node1</title>
<path fill="none" stroke="#9a32cd" stroke-dasharray="5,2" d="M80,-68.2239C80,-52.6974 80,-31.3582 80,-19.6165"/>
<polygon fill="#9a32cd" stroke="#9a32cd" points="76.5001,-68.2818 80,-78.2818 83.5001,-68.2819 76.5001,-68.2818"/>
<text text-anchor="middle" x="92.5" y="-52" font-family="Helvetica,sans-Serif" font-size="10.00"> right</text>
<text text-anchor="middle" x="92.5" y="-41" font-family="Helvetica,sans-Serif" font-size="10.00">left</text>
</g>
<!-- Node2&#45;&gt;Node2 -->
<g id="edge3" class="edge"><title>Node2&#45;&gt;Node2</title>
<path fill="none" stroke="#9a32cd" stroke-dasharray="5,2" d="M128.289,-93.1765C133.006,-92.1327 136,-90.4072 136,-88 136,-84.1484 128.335,-82.0421 118.214,-81.681"/>
<polygon fill="#9a32cd" stroke="#9a32cd" points="127.756,-89.7144 118.214,-94.319 128.545,-96.6698 127.756,-89.7144"/>
<text text-anchor="middle" x="153.5" y="-85.5" font-family="Helvetica,sans-Serif" font-size="10.00"> parent</text>
</g>
<!-- Node3 -->
<g id="node3" class="node"><title>Node3</title>
<polygon fill="white" stroke="#bfbfbf" points="10,-146.5 10,-165.5 150,-165.5 150,-146.5 10,-146.5"/>
<text text-anchor="middle" x="80" y="-153.5" font-family="Helvetica,sans-Serif" font-size="10.00">ArrayList&lt; Nodes.Node &gt;</text>
</g>
<!-- Node3&#45;&gt;Node2 -->
<g id="edge2" class="edge"><title>Node3&#45;&gt;Node2</title>
<path fill="none" stroke="#9a32cd" stroke-dasharray="5,2" d="M80,-136.041C80,-123.472 80,-107.563 80,-97.8411"/>
<polygon fill="#9a32cd" stroke="#9a32cd" points="76.5001,-136.372 80,-146.372 83.5001,-136.372 76.5001,-136.372"/>
<text text-anchor="middle" x="109" y="-119.5" font-family="Helvetica,sans-Serif" font-size="10.00"> myChildren</text>
</g>
</g>
</svg>
