<?xml version="1.0" encoding="UTF-8" standalone="no"?>
<!DOCTYPE svg PUBLIC "-//W3C//DTD SVG 1.1//EN"
 "http://www.w3.org/Graphics/SVG/1.1/DTD/svg11.dtd">
<!-- Generated by graphviz version 2.36.0 (20140111.2315)
 -->
<!-- Title: Nodes.math.OneChildNode Pages: 1 -->
<svg width="172pt" height="232pt"
 viewBox="0.00 0.00 172.00 232.00" xmlns="http://www.w3.org/2000/svg" xmlns:xlink="http://www.w3.org/1999/xlink">
<g id="graph0" class="graph" transform="scale(1 1) rotate(0) translate(4 228)">
<title>Nodes.math.OneChildNode</title>
<polygon fill="white" stroke="none" points="-4,4 -4,-228 168,-228 168,4 -4,4"/>
<!-- Node1 -->
<g id="node1" class="node"><title>Node1</title>
<polygon fill="#bfbfbf" stroke="black" points="-0.5,-0.5 -0.5,-19.5 146.5,-19.5 146.5,-0.5 -0.5,-0.5"/>
<text text-anchor="middle" x="73" y="-7.5" font-family="Helvetica,sans-Serif" font-size="10.00">Nodes.math.OneChildNode</text>
</g>
<!-- Node2 -->
<g id="node2" class="node"><title>Node2</title>
<g id="a_node2"><a xlink:href="../../de/d80/class_nodes_1_1math_1_1_math_node.html" target="_top" xlink:title="Nodes.math.MathNode">
<polygon fill="white" stroke="black" points="9,-58.5 9,-77.5 137,-77.5 137,-58.5 9,-58.5"/>
<text text-anchor="middle" x="73" y="-65.5" font-family="Helvetica,sans-Serif" font-size="10.00">Nodes.math.MathNode</text>
</a>
</g>
</g>
<!-- Node2&#45;&gt;Node1 -->
<g id="edge1" class="edge"><title>Node2&#45;&gt;Node1</title>
<path fill="none" stroke="midnightblue" d="M73,-47.953C73,-38.2875 73,-27.0312 73,-19.5052"/>
<polygon fill="midnightblue" stroke="midnightblue" points="69.5001,-48.25 73,-58.25 76.5001,-48.25 69.5001,-48.25"/>
</g>
<!-- Node3 -->
<g id="node3" class="node"><title>Node3</title>
<g id="a_node3"><a xlink:href="../../df/dac/class_nodes_1_1_node.html" target="_top" xlink:title="Nodes.Node">
<polygon fill="white" stroke="black" points="35,-136.5 35,-155.5 111,-155.5 111,-136.5 35,-136.5"/>
<text text-anchor="middle" x="73" y="-143.5" font-family="Helvetica,sans-Serif" font-size="10.00">Nodes.Node</text>
</a>
</g>
</g>
<!-- Node3&#45;&gt;Node2 -->
<g id="edge2" class="edge"><title>Node3&#45;&gt;Node2</title>
<path fill="none" stroke="midnightblue" d="M71.4399,-126.382C71.2572,-123.575 71.1003,-120.713 71,-118 70.6386,-108.229 70.6386,-105.771 71,-96 71.2293,-89.7998 71.7539,-82.8151 72.2083,-77.5033"/>
<polygon fill="midnightblue" stroke="midnightblue" points="67.9607,-126.791 72.2083,-136.497 74.9406,-126.26 67.9607,-126.791"/>
</g>
<!-- Node3&#45;&gt;Node2 -->
<g id="edge5" class="edge"><title>Node3&#45;&gt;Node2</title>
<path fill="none" stroke="#9a32cd" stroke-dasharray="5,2" d="M73,-126.224C73,-110.697 73,-89.3582 73,-77.6165"/>
<polygon fill="#9a32cd" stroke="#9a32cd" points="69.5001,-126.282 73,-136.282 76.5001,-126.282 69.5001,-126.282"/>
<text text-anchor="middle" x="85.5" y="-110" font-family="Helvetica,sans-Serif" font-size="10.00"> right</text>
<text text-anchor="middle" x="85.5" y="-99" font-family="Helvetica,sans-Serif" font-size="10.00">left</text>
</g>
<!-- Node3&#45;&gt;Node3 -->
<g id="edge4" class="edge"><title>Node3&#45;&gt;Node3</title>
<path fill="none" stroke="#9a32cd" stroke-dasharray="5,2" d="M121.289,-151.176C126.006,-150.133 129,-148.407 129,-146 129,-142.148 121.335,-140.042 111.214,-139.681"/>
<polygon fill="#9a32cd" stroke="#9a32cd" points="120.756,-147.714 111.214,-152.319 121.545,-154.67 120.756,-147.714"/>
<text text-anchor="middle" x="146.5" y="-143.5" font-family="Helvetica,sans-Serif" font-size="10.00"> parent</text>
</g>
<!-- Node4 -->
<g id="node4" class="node"><title>Node4</title>
<polygon fill="white" stroke="#bfbfbf" points="3,-204.5 3,-223.5 143,-223.5 143,-204.5 3,-204.5"/>
<text text-anchor="middle" x="73" y="-211.5" font-family="Helvetica,sans-Serif" font-size="10.00">ArrayList&lt; Nodes.Node &gt;</text>
</g>
<!-- Node4&#45;&gt;Node3 -->
<g id="edge3" class="edge"><title>Node4&#45;&gt;Node3</title>
<path fill="none" stroke="#9a32cd" stroke-dasharray="5,2" d="M73,-194.041C73,-181.472 73,-165.563 73,-155.841"/>
<polygon fill="#9a32cd" stroke="#9a32cd" points="69.5001,-194.372 73,-204.372 76.5001,-194.372 69.5001,-194.372"/>
<text text-anchor="middle" x="102" y="-177.5" font-family="Helvetica,sans-Serif" font-size="10.00"> myChildren</text>
</g>
</g>
</svg>
