<?xml version="1.0" encoding="UTF-8" standalone="no"?>
<!DOCTYPE svg PUBLIC "-//W3C//DTD SVG 1.1//EN"
 "http://www.w3.org/Graphics/SVG/1.1/DTD/svg11.dtd">
<!-- Generated by graphviz version 2.36.0 (20140111.2315)
 -->
<!-- Title: FrontEnd.HistoryBox Pages: 1 -->
<svg width="335pt" height="164pt"
 viewBox="0.00 0.00 335.00 164.00" xmlns="http://www.w3.org/2000/svg" xmlns:xlink="http://www.w3.org/1999/xlink">
<g id="graph0" class="graph" transform="scale(1 1) rotate(0) translate(4 160)">
<title>FrontEnd.HistoryBox</title>
<polygon fill="white" stroke="none" points="-4,4 -4,-160 331,-160 331,4 -4,4"/>
<!-- Node1 -->
<g id="node1" class="node"><title>Node1</title>
<polygon fill="#bfbfbf" stroke="black" points="89.5,-0.5 89.5,-19.5 202.5,-19.5 202.5,-0.5 89.5,-0.5"/>
<text text-anchor="middle" x="146" y="-7.5" font-family="Helvetica,sans-Serif" font-size="10.00">FrontEnd.HistoryBox</text>
</g>
<!-- Node2 -->
<g id="node2" class="node"><title>Node2</title>
<polygon fill="white" stroke="#bfbfbf" points="0,-68.5 0,-87.5 58,-87.5 58,-68.5 0,-68.5"/>
<text text-anchor="middle" x="29" y="-75.5" font-family="Helvetica,sans-Serif" font-size="10.00">TextArea</text>
</g>
<!-- Node2&#45;&gt;Node1 -->
<g id="edge1" class="edge"><title>Node2&#45;&gt;Node1</title>
<path fill="none" stroke="midnightblue" d="M53.2153,-63.3401C76.5027,-50.2036 110.991,-30.7487 130.701,-19.6305"/>
<polygon fill="midnightblue" stroke="midnightblue" points="51.2859,-60.41 44.2957,-68.3717 54.7251,-66.5068 51.2859,-60.41"/>
</g>
<!-- Node3 -->
<g id="node3" class="node"><title>Node3</title>
<g id="a_node3"><a xlink:href="../../de/d8a/class_front_end_1_1_user_commands.html" target="_top" xlink:title="FrontEnd.UserCommands">
<polygon fill="white" stroke="black" points="76,-68.5 76,-87.5 216,-87.5 216,-68.5 76,-68.5"/>
<text text-anchor="middle" x="146" y="-75.5" font-family="Helvetica,sans-Serif" font-size="10.00">FrontEnd.UserCommands</text>
</a>
</g>
</g>
<!-- Node3&#45;&gt;Node1 -->
<g id="edge2" class="edge"><title>Node3&#45;&gt;Node1</title>
<path fill="none" stroke="#9a32cd" stroke-dasharray="5,2" d="M146,-58.0413C146,-45.4724 146,-29.5631 146,-19.8411"/>
<polygon fill="#9a32cd" stroke="#9a32cd" points="142.5,-58.3716 146,-68.3717 149.5,-58.3717 142.5,-58.3716"/>
<text text-anchor="middle" x="181.5" y="-41.5" font-family="Helvetica,sans-Serif" font-size="10.00"> myComboBox</text>
</g>
<!-- Node4 -->
<g id="node4" class="node"><title>Node4</title>
<polygon fill="white" stroke="#bfbfbf" points="53.5,-136.5 53.5,-155.5 124.5,-155.5 124.5,-136.5 53.5,-136.5"/>
<text text-anchor="middle" x="89" y="-143.5" font-family="Helvetica,sans-Serif" font-size="10.00">Observable</text>
</g>
<!-- Node4&#45;&gt;Node3 -->
<g id="edge3" class="edge"><title>Node4&#45;&gt;Node3</title>
<path fill="none" stroke="midnightblue" d="M103.095,-128.68C114.238,-115.777 129.368,-98.2575 138.364,-87.8411"/>
<polygon fill="midnightblue" stroke="midnightblue" points="100.339,-126.516 96.4518,-136.372 105.637,-131.091 100.339,-126.516"/>
</g>
<!-- Node5 -->
<g id="node5" class="node"><title>Node5</title>
<polygon fill="white" stroke="#bfbfbf" points="143,-136.5 143,-155.5 263,-155.5 263,-136.5 143,-136.5"/>
<text text-anchor="middle" x="203" y="-143.5" font-family="Helvetica,sans-Serif" font-size="10.00">ComboBox&lt; String &gt;</text>
</g>
<!-- Node5&#45;&gt;Node3 -->
<g id="edge4" class="edge"><title>Node5&#45;&gt;Node3</title>
<path fill="none" stroke="#9a32cd" stroke-dasharray="5,2" d="M188.905,-128.68C177.762,-115.777 162.632,-98.2575 153.636,-87.8411"/>
<polygon fill="#9a32cd" stroke="#9a32cd" points="186.363,-131.091 195.548,-136.372 191.661,-126.516 186.363,-131.091"/>
<text text-anchor="middle" x="215.5" y="-109.5" font-family="Helvetica,sans-Serif" font-size="10.00"> myComboBox</text>
</g>
<!-- Node6 -->
<g id="node6" class="node"><title>Node6</title>
<polygon fill="white" stroke="#bfbfbf" points="234,-68.5 234,-87.5 318,-87.5 318,-68.5 234,-68.5"/>
<text text-anchor="middle" x="276" y="-75.5" font-family="Helvetica,sans-Serif" font-size="10.00">List&lt; String &gt;</text>
</g>
<!-- Node6&#45;&gt;Node1 -->
<g id="edge5" class="edge"><title>Node6&#45;&gt;Node1</title>
<path fill="none" stroke="#9a32cd" stroke-dasharray="5,2" d="M257.723,-62.1345C247.388,-54.2291 233.97,-44.772 221,-38 206.647,-30.5062 189.748,-24.2225 175.628,-19.6081"/>
<polygon fill="#9a32cd" stroke="#9a32cd" points="255.574,-64.8973 265.602,-68.317 259.895,-59.3903 255.574,-64.8973"/>
<text text-anchor="middle" x="284" y="-41.5" font-family="Helvetica,sans-Serif" font-size="10.00"> commandHistory</text>
</g>
</g>
</svg>
