<?xml version="1.0" encoding="UTF-8" standalone="no"?>
<!DOCTYPE svg PUBLIC "-//W3C//DTD SVG 1.1//EN"
 "http://www.w3.org/Graphics/SVG/1.1/DTD/svg11.dtd">
<!-- Generated by graphviz version 2.36.0 (20140111.2315)
 -->
<!-- Title: Nodes.loops.DoTimesNode Pages: 1 -->
<svg width="172pt" height="212pt"
 viewBox="0.00 0.00 172.00 212.00" xmlns="http://www.w3.org/2000/svg" xmlns:xlink="http://www.w3.org/1999/xlink">
<g id="graph0" class="graph" transform="scale(1 1) rotate(0) translate(4 208)">
<title>Nodes.loops.DoTimesNode</title>
<polygon fill="white" stroke="none" points="-4,4 -4,-208 168,-208 168,4 -4,4"/>
<!-- Node1 -->
<g id="node1" class="node"><title>Node1</title>
<polygon fill="#bfbfbf" stroke="black" points="0,-0.5 0,-19.5 146,-19.5 146,-0.5 0,-0.5"/>
<text text-anchor="middle" x="73" y="-7.5" font-family="Helvetica,sans-Serif" font-size="10.00">Nodes.loops.DoTimesNode</text>
</g>
<!-- Node2 -->
<g id="node2" class="node"><title>Node2</title>
<g id="a_node2"><a xlink:href="../../d8/d90/class_nodes_1_1loops_1_1_loop_node.html" target="_top" xlink:title="Nodes.loops.LoopNode">
<polygon fill="white" stroke="black" points="9,-58.5 9,-77.5 137,-77.5 137,-58.5 9,-58.5"/>
<text text-anchor="middle" x="73" y="-65.5" font-family="Helvetica,sans-Serif" font-size="10.00">Nodes.loops.LoopNode</text>
</a>
</g>
</g>
<!-- Node2&#45;&gt;Node1 -->
<g id="edge1" class="edge"><title>Node2&#45;&gt;Node1</title>
<path fill="none" stroke="midnightblue" d="M73,-47.953C73,-38.2875 73,-27.0312 73,-19.5052"/>
<polygon fill="midnightblue" stroke="midnightblue" points="69.5001,-48.25 73,-58.25 76.5001,-48.25 69.5001,-48.25"/>
</g>
<!-- Node3 -->
<g id="node3" class="node"><title>Node3</title>
<g id="a_node3"><a xlink:href="../../df/dac/class_nodes_1_1_node.html" target="_top" xlink:title="Nodes.Node">
<polygon fill="white" stroke="black" points="35,-116.5 35,-135.5 111,-135.5 111,-116.5 35,-116.5"/>
<text text-anchor="middle" x="73" y="-123.5" font-family="Helvetica,sans-Serif" font-size="10.00">Nodes.Node</text>
</a>
</g>
</g>
<!-- Node3&#45;&gt;Node2 -->
<g id="edge2" class="edge"><title>Node3&#45;&gt;Node2</title>
<path fill="none" stroke="midnightblue" d="M73,-105.953C73,-96.2875 73,-85.0312 73,-77.5052"/>
<polygon fill="midnightblue" stroke="midnightblue" points="69.5001,-106.25 73,-116.25 76.5001,-106.25 69.5001,-106.25"/>
</g>
<!-- Node3&#45;&gt;Node3 -->
<g id="edge4" class="edge"><title>Node3&#45;&gt;Node3</title>
<path fill="none" stroke="#9a32cd" stroke-dasharray="5,2" d="M121.289,-130.263C126.006,-129.403 129,-127.982 129,-126 129,-122.828 121.335,-121.094 111.214,-120.796"/>
<polygon fill="#9a32cd" stroke="#9a32cd" points="120.845,-126.789 111.214,-131.204 121.496,-133.759 120.845,-126.789"/>
<text text-anchor="middle" x="146.5" y="-123.5" font-family="Helvetica,sans-Serif" font-size="10.00"> parent</text>
</g>
<!-- Node4 -->
<g id="node4" class="node"><title>Node4</title>
<polygon fill="white" stroke="#bfbfbf" points="3,-184.5 3,-203.5 143,-203.5 143,-184.5 3,-184.5"/>
<text text-anchor="middle" x="73" y="-191.5" font-family="Helvetica,sans-Serif" font-size="10.00">ArrayList&lt; Nodes.Node &gt;</text>
</g>
<!-- Node4&#45;&gt;Node3 -->
<g id="edge3" class="edge"><title>Node4&#45;&gt;Node3</title>
<path fill="none" stroke="#9a32cd" stroke-dasharray="5,2" d="M73,-174.041C73,-161.472 73,-145.563 73,-135.841"/>
<polygon fill="#9a32cd" stroke="#9a32cd" points="69.5001,-174.372 73,-184.372 76.5001,-174.372 69.5001,-174.372"/>
<text text-anchor="middle" x="102" y="-157.5" font-family="Helvetica,sans-Serif" font-size="10.00"> myChildren</text>
</g>
</g>
</svg>
