<?xml version="1.0" encoding="UTF-8" standalone="no"?>
<!DOCTYPE svg PUBLIC "-//W3C//DTD SVG 1.1//EN"
 "http://www.w3.org/Graphics/SVG/1.1/DTD/svg11.dtd">
<!-- Generated by graphviz version 2.36.0 (20140111.2315)
 -->
<!-- Title: TurtleView.TurtleInformation.TurtleInformation Pages: 1 -->
<svg width="1016pt" height="180pt"
 viewBox="0.00 0.00 1016.00 180.00" xmlns="http://www.w3.org/2000/svg" xmlns:xlink="http://www.w3.org/1999/xlink">
<g id="graph0" class="graph" transform="scale(1 1) rotate(0) translate(4 176)">
<title>TurtleView.TurtleInformation.TurtleInformation</title>
<polygon fill="white" stroke="none" points="-4,4 -4,-176 1012,-176 1012,4 -4,4"/>
<!-- Node1 -->
<g id="node1" class="node"><title>Node1</title>
<polygon fill="#bfbfbf" stroke="black" points="0.5,-71 0.5,-101 149.5,-101 149.5,-71 0.5,-71"/>
<text text-anchor="start" x="8.5" y="-89" font-family="Helvetica,sans-Serif" font-size="10.00">TurtleView.TurtleInformation.</text>
<text text-anchor="middle" x="75" y="-78" font-family="Helvetica,sans-Serif" font-size="10.00">TurtleInformation</text>
</g>
<!-- Node2 -->
<g id="node2" class="node"><title>Node2</title>
<g id="a_node2"><a xlink:href="../../d9/d38/class_turtle_view_1_1_turtle_information.html#a3a64e1f1313c0c4f30a93c1fcc5f36c1" target="_top" xlink:title="TurtleView.TurtleInformation.change\lTurtle">
<polygon fill="white" stroke="black" points="186.5,-71 186.5,-101 371.5,-101 371.5,-71 186.5,-71"/>
<text text-anchor="start" x="194.5" y="-89" font-family="Helvetica,sans-Serif" font-size="10.00">TurtleView.TurtleInformation.change</text>
<text text-anchor="middle" x="279" y="-78" font-family="Helvetica,sans-Serif" font-size="10.00">Turtle</text>
</a>
</g>
</g>
<!-- Node1&#45;&gt;Node2 -->
<g id="edge1" class="edge"><title>Node1&#45;&gt;Node2</title>
<path fill="none" stroke="midnightblue" d="M149.784,-86C158.382,-86 167.264,-86 176.156,-86"/>
<polygon fill="midnightblue" stroke="midnightblue" points="176.183,-89.5001 186.183,-86 176.183,-82.5001 176.183,-89.5001"/>
</g>
<!-- Node3 -->
<g id="node3" class="node"><title>Node3</title>
<g id="a_node3"><a xlink:href="../../d9/d38/class_turtle_view_1_1_turtle_information.html#ad65201793ce738f9c6d6e592271c14e1" target="_top" xlink:title="TurtleView.TurtleInformation.update">
<polygon fill="white" stroke="black" points="408.5,-76.5 408.5,-95.5 591.5,-95.5 591.5,-76.5 408.5,-76.5"/>
<text text-anchor="middle" x="500" y="-83.5" font-family="Helvetica,sans-Serif" font-size="10.00">TurtleView.TurtleInformation.update</text>
</a>
</g>
</g>
<!-- Node2&#45;&gt;Node3 -->
<g id="edge2" class="edge"><title>Node2&#45;&gt;Node3</title>
<path fill="none" stroke="midnightblue" d="M371.607,-86C380.463,-86 389.481,-86 398.418,-86"/>
<polygon fill="midnightblue" stroke="midnightblue" points="398.462,-89.5001 408.462,-86 398.462,-82.5001 398.462,-89.5001"/>
</g>
<!-- Node4 -->
<g id="node4" class="node"><title>Node4</title>
<g id="a_node4"><a xlink:href="../../d9/d38/class_turtle_view_1_1_turtle_information.html#aca65258778dade3baa31e0d5ec643b3b" target="_top" xlink:title="TurtleView.TurtleInformation.emptyInfo">
<polygon fill="white" stroke="black" points="628.5,-152.5 628.5,-171.5 825.5,-171.5 825.5,-152.5 628.5,-152.5"/>
<text text-anchor="middle" x="727" y="-159.5" font-family="Helvetica,sans-Serif" font-size="10.00">TurtleView.TurtleInformation.emptyInfo</text>
</a>
</g>
</g>
<!-- Node3&#45;&gt;Node4 -->
<g id="edge3" class="edge"><title>Node3&#45;&gt;Node4</title>
<path fill="none" stroke="midnightblue" d="M518.988,-95.6734C543.138,-108.284 587.68,-130.232 628,-143 636.675,-145.747 645.915,-148.167 655.122,-150.278"/>
<polygon fill="midnightblue" stroke="midnightblue" points="654.555,-153.736 665.072,-152.448 656.047,-146.897 654.555,-153.736"/>
</g>
<!-- Node5 -->
<g id="node5" class="node"><title>Node5</title>
<g id="a_node5"><a xlink:href="../../d1/de0/class_backend_1_1_turtle.html#adc7cb6cc95ee918547d2b18d8bb20183" target="_top" xlink:title="Backend.Turtle.getID">
<polygon fill="white" stroke="black" points="669.5,-114.5 669.5,-133.5 784.5,-133.5 784.5,-114.5 669.5,-114.5"/>
<text text-anchor="middle" x="727" y="-121.5" font-family="Helvetica,sans-Serif" font-size="10.00">Backend.Turtle.getID</text>
</a>
</g>
</g>
<!-- Node3&#45;&gt;Node5 -->
<g id="edge4" class="edge"><title>Node3&#45;&gt;Node5</title>
<path fill="none" stroke="midnightblue" d="M557.487,-95.54C588.379,-100.757 626.837,-107.253 659.21,-112.72"/>
<polygon fill="midnightblue" stroke="midnightblue" points="659.047,-116.242 669.49,-114.456 660.213,-109.34 659.047,-116.242"/>
</g>
<!-- Node6 -->
<g id="node6" class="node"><title>Node6</title>
<g id="a_node6"><a xlink:href="../../d9/d38/class_turtle_view_1_1_turtle_information.html#a15bd13ad05cabb76c0861d0ab42722ef" target="_top" xlink:title="TurtleView.TurtleInformation.truncate">
<polygon fill="white" stroke="black" points="632,-76.5 632,-95.5 822,-95.5 822,-76.5 632,-76.5"/>
<text text-anchor="middle" x="727" y="-83.5" font-family="Helvetica,sans-Serif" font-size="10.00">TurtleView.TurtleInformation.truncate</text>
</a>
</g>
</g>
<!-- Node3&#45;&gt;Node6 -->
<g id="edge5" class="edge"><title>Node3&#45;&gt;Node6</title>
<path fill="none" stroke="midnightblue" d="M591.544,-86C601.526,-86 611.749,-86 621.88,-86"/>
<polygon fill="midnightblue" stroke="midnightblue" points="621.969,-89.5001 631.969,-86 621.969,-82.5001 621.969,-89.5001"/>
</g>
<!-- Node7 -->
<g id="node7" class="node"><title>Node7</title>
<g id="a_node7"><a xlink:href="../../d1/de0/class_backend_1_1_turtle.html#a715f94909b1ba74dc9e4f9eb4fd91e10" target="_top" xlink:title="Backend.Turtle.getXCord">
<polygon fill="white" stroke="black" points="660.5,-38.5 660.5,-57.5 793.5,-57.5 793.5,-38.5 660.5,-38.5"/>
<text text-anchor="middle" x="727" y="-45.5" font-family="Helvetica,sans-Serif" font-size="10.00">Backend.Turtle.getXCord</text>
</a>
</g>
</g>
<!-- Node3&#45;&gt;Node7 -->
<g id="edge6" class="edge"><title>Node3&#45;&gt;Node7</title>
<path fill="none" stroke="midnightblue" d="M557.487,-76.46C588.379,-71.2426 626.837,-64.7475 659.21,-59.28"/>
<polygon fill="midnightblue" stroke="midnightblue" points="660.213,-62.6604 669.49,-57.5439 659.047,-55.7581 660.213,-62.6604"/>
</g>
<!-- Node9 -->
<g id="node9" class="node"><title>Node9</title>
<g id="a_node9"><a xlink:href="../../d1/de0/class_backend_1_1_turtle.html#a692174eccea232fc58e725cff6f50359" target="_top" xlink:title="Backend.Turtle.getYCord">
<polygon fill="white" stroke="black" points="661,-0.5 661,-19.5 793,-19.5 793,-0.5 661,-0.5"/>
<text text-anchor="middle" x="727" y="-7.5" font-family="Helvetica,sans-Serif" font-size="10.00">Backend.Turtle.getYCord</text>
</a>
</g>
</g>
<!-- Node3&#45;&gt;Node9 -->
<g id="edge8" class="edge"><title>Node3&#45;&gt;Node9</title>
<path fill="none" stroke="midnightblue" d="M518.988,-76.3266C543.138,-63.7161 587.68,-41.7684 628,-29 636.675,-26.2527 645.915,-23.8331 655.122,-21.7223"/>
<polygon fill="midnightblue" stroke="midnightblue" points="656.047,-25.1028 665.072,-19.5522 654.555,-18.2636 656.047,-25.1028"/>
</g>
<!-- Node8 -->
<g id="node8" class="node"><title>Node8</title>
<g id="a_node8"><a xlink:href="../../d1/de0/class_backend_1_1_turtle.html#a33957258db9a7205d470c5a2d22b89af" target="_top" xlink:title="Backend.Turtle.getLocation">
<polygon fill="white" stroke="black" points="862,-19.5 862,-38.5 1008,-38.5 1008,-19.5 862,-19.5"/>
<text text-anchor="middle" x="935" y="-26.5" font-family="Helvetica,sans-Serif" font-size="10.00">Backend.Turtle.getLocation</text>
</a>
</g>
</g>
<!-- Node7&#45;&gt;Node8 -->
<g id="edge7" class="edge"><title>Node7&#45;&gt;Node8</title>
<path fill="none" stroke="midnightblue" d="M793.746,-41.936C812.196,-40.2344 832.489,-38.3627 851.769,-36.5845"/>
<polygon fill="midnightblue" stroke="midnightblue" points="852.107,-40.0682 861.743,-35.6645 851.464,-33.0978 852.107,-40.0682"/>
</g>
<!-- Node9&#45;&gt;Node8 -->
<g id="edge9" class="edge"><title>Node9&#45;&gt;Node8</title>
<path fill="none" stroke="midnightblue" d="M793.18,-16.0117C811.749,-17.7245 832.224,-19.6129 851.673,-21.4067"/>
<polygon fill="midnightblue" stroke="midnightblue" points="851.455,-24.9014 861.734,-22.3347 852.098,-17.931 851.455,-24.9014"/>
</g>
</g>
</svg>
