<?xml version="1.0" encoding="UTF-8" standalone="no"?>
<!DOCTYPE svg PUBLIC "-//W3C//DTD SVG 1.1//EN"
 "http://www.w3.org/Graphics/SVG/1.1/DTD/svg11.dtd">
<!-- Generated by graphviz version 2.36.0 (20140111.2315)
 -->
<!-- Title: TurtleView.TurtleInformation.truncate Pages: 1 -->
<svg width="1368pt" height="327pt"
 viewBox="0.00 0.00 1368.00 327.00" xmlns="http://www.w3.org/2000/svg" xmlns:xlink="http://www.w3.org/1999/xlink">
<g id="graph0" class="graph" transform="scale(1 1) rotate(0) translate(4 323)">
<title>TurtleView.TurtleInformation.truncate</title>
<polygon fill="white" stroke="none" points="-4,4 -4,-323 1364,-323 1364,4 -4,4"/>
<!-- Node1 -->
<g id="node1" class="node"><title>Node1</title>
<polygon fill="#bfbfbf" stroke="black" points="0,-98.5 0,-117.5 190,-117.5 190,-98.5 0,-98.5"/>
<text text-anchor="middle" x="95" y="-105.5" font-family="Helvetica,sans-Serif" font-size="10.00">TurtleView.TurtleInformation.truncate</text>
</g>
<!-- Node2 -->
<g id="node2" class="node"><title>Node2</title>
<g id="a_node2"><a xlink:href="../../d9/d38/class_turtle_view_1_1_turtle_information.html#ad65201793ce738f9c6d6e592271c14e1" target="_top" xlink:title="TurtleView.TurtleInformation.update">
<polygon fill="white" stroke="black" points="226.5,-98.5 226.5,-117.5 409.5,-117.5 409.5,-98.5 226.5,-98.5"/>
<text text-anchor="middle" x="318" y="-105.5" font-family="Helvetica,sans-Serif" font-size="10.00">TurtleView.TurtleInformation.update</text>
</a>
</g>
</g>
<!-- Node1&#45;&gt;Node2 -->
<g id="edge1" class="edge"><title>Node1&#45;&gt;Node2</title>
<path fill="none" stroke="midnightblue" d="M200.205,-108C208.891,-108 217.63,-108 226.205,-108"/>
<polygon fill="midnightblue" stroke="midnightblue" points="200.044,-104.5 190.044,-108 200.044,-111.5 200.044,-104.5"/>
</g>
<!-- Node3 -->
<g id="node3" class="node"><title>Node3</title>
<g id="a_node3"><a xlink:href="../../d1/de0/class_backend_1_1_turtle.html#a94cbed3c9c0c33e1ea8e8b3c51c26c73" target="_top" xlink:title="Backend.Turtle.move">
<polygon fill="white" stroke="black" points="481,-147.5 481,-166.5 597,-166.5 597,-147.5 481,-147.5"/>
<text text-anchor="middle" x="539" y="-154.5" font-family="Helvetica,sans-Serif" font-size="10.00">Backend.Turtle.move</text>
</a>
</g>
</g>
<!-- Node2&#45;&gt;Node3 -->
<g id="edge2" class="edge"><title>Node2&#45;&gt;Node3</title>
<path fill="none" stroke="midnightblue" d="M371.318,-119.706C409.206,-128.183 459.79,-139.501 495.26,-147.437"/>
<polygon fill="midnightblue" stroke="midnightblue" points="372.008,-116.274 361.485,-117.506 370.48,-123.105 372.008,-116.274"/>
</g>
<!-- Node10 -->
<g id="node10" class="node"><title>Node10</title>
<g id="a_node10"><a xlink:href="../../df/dec/class_front_end_1_1_view.html#afa6c660ce1c2e6493f471b5344638d5b" target="_top" xlink:title="FrontEnd.View.updateTurtleInfo">
<polygon fill="white" stroke="black" points="458,-98.5 458,-117.5 620,-117.5 620,-98.5 458,-98.5"/>
<text text-anchor="middle" x="539" y="-105.5" font-family="Helvetica,sans-Serif" font-size="10.00">FrontEnd.View.updateTurtleInfo</text>
</a>
</g>
</g>
<!-- Node2&#45;&gt;Node10 -->
<g id="edge9" class="edge"><title>Node2&#45;&gt;Node10</title>
<path fill="none" stroke="midnightblue" d="M419.844,-108C432.606,-108 445.526,-108 457.905,-108"/>
<polygon fill="midnightblue" stroke="midnightblue" points="419.657,-104.5 409.657,-108 419.656,-111.5 419.657,-104.5"/>
</g>
<!-- Node14 -->
<g id="node14" class="node"><title>Node14</title>
<g id="a_node14"><a xlink:href="../../d9/d38/class_turtle_view_1_1_turtle_information.html#a3a64e1f1313c0c4f30a93c1fcc5f36c1" target="_top" xlink:title="TurtleView.TurtleInformation.change\lTurtle">
<polygon fill="white" stroke="black" points="446.5,-49 446.5,-79 631.5,-79 631.5,-49 446.5,-49"/>
<text text-anchor="start" x="454.5" y="-67" font-family="Helvetica,sans-Serif" font-size="10.00">TurtleView.TurtleInformation.change</text>
<text text-anchor="middle" x="539" y="-56" font-family="Helvetica,sans-Serif" font-size="10.00">Turtle</text>
</a>
</g>
</g>
<!-- Node2&#45;&gt;Node14 -->
<g id="edge13" class="edge"><title>Node2&#45;&gt;Node14</title>
<path fill="none" stroke="midnightblue" d="M376.392,-96.4691C402.877,-91.148 434.666,-84.7613 463.016,-79.0654"/>
<polygon fill="midnightblue" stroke="midnightblue" points="375.634,-93.0514 366.52,-98.4527 377.013,-99.9142 375.634,-93.0514"/>
</g>
<!-- Node4 -->
<g id="node4" class="node"><title>Node4</title>
<g id="a_node4"><a xlink:href="../../d1/de0/class_backend_1_1_turtle.html#ad5f5520cb6970723e121a8d17f2c0a5c" target="_top" xlink:title="Backend.Turtle.addLocation">
<polygon fill="white" stroke="black" points="670,-196.5 670,-215.5 818,-215.5 818,-196.5 670,-196.5"/>
<text text-anchor="middle" x="744" y="-203.5" font-family="Helvetica,sans-Serif" font-size="10.00">Backend.Turtle.addLocation</text>
</a>
</g>
</g>
<!-- Node3&#45;&gt;Node4 -->
<g id="edge3" class="edge"><title>Node3&#45;&gt;Node4</title>
<path fill="none" stroke="midnightblue" d="M589.641,-168.982C624.664,-177.436 670.95,-188.609 703.478,-196.46"/>
<polygon fill="midnightblue" stroke="midnightblue" points="590.164,-165.508 579.622,-166.564 588.522,-172.313 590.164,-165.508"/>
</g>
<!-- Node9 -->
<g id="node9" class="node"><title>Node9</title>
<g id="a_node9"><a xlink:href="../../d1/de0/class_backend_1_1_turtle.html#a98cc72272199855ddfd7588b23bb5a4f" target="_top" xlink:title="Backend.Turtle.Turtle">
<polygon fill="white" stroke="black" points="686.5,-147.5 686.5,-166.5 801.5,-166.5 801.5,-147.5 686.5,-147.5"/>
<text text-anchor="middle" x="744" y="-154.5" font-family="Helvetica,sans-Serif" font-size="10.00">Backend.Turtle.Turtle</text>
</a>
</g>
</g>
<!-- Node3&#45;&gt;Node9 -->
<g id="edge8" class="edge"><title>Node3&#45;&gt;Node9</title>
<path fill="none" stroke="midnightblue" d="M607.111,-157C632.769,-157 661.753,-157 686.341,-157"/>
<polygon fill="midnightblue" stroke="midnightblue" points="607.087,-153.5 597.087,-157 607.087,-160.5 607.087,-153.5"/>
</g>
<!-- Node5 -->
<g id="node5" class="node"><title>Node5</title>
<g id="a_node5"><a xlink:href="../../dc/db0/class_nodes_1_1turtlecommands_1_1_backward_node.html#a8ebd60d8ab28acb66aef1fd9ba59d5c7" target="_top" xlink:title="Nodes.turtlecommands.Backward\lNode.update">
<polygon fill="white" stroke="black" points="856.5,-289 856.5,-319 1035.5,-319 1035.5,-289 856.5,-289"/>
<text text-anchor="start" x="864.5" y="-307" font-family="Helvetica,sans-Serif" font-size="10.00">Nodes.turtlecommands.Backward</text>
<text text-anchor="middle" x="946" y="-296" font-family="Helvetica,sans-Serif" font-size="10.00">Node.update</text>
</a>
</g>
</g>
<!-- Node4&#45;&gt;Node5 -->
<g id="edge4" class="edge"><title>Node4&#45;&gt;Node5</title>
<path fill="none" stroke="midnightblue" d="M764.919,-221.848C786.321,-238.198 821.877,-263.442 856,-279 864.178,-282.729 873.037,-286.022 881.887,-288.893"/>
<polygon fill="midnightblue" stroke="midnightblue" points="766.967,-219.007 756.919,-215.646 762.677,-224.539 766.967,-219.007"/>
</g>
<!-- Node6 -->
<g id="node6" class="node"><title>Node6</title>
<g id="a_node6"><a xlink:href="../../d4/dd2/class_nodes_1_1turtlecommands_1_1_home_node.html#ab3bbeb66894a4c93c40e651457efe097" target="_top" xlink:title="Nodes.turtlecommands.Home\lNode.update">
<polygon fill="white" stroke="black" points="865,-240 865,-270 1027,-270 1027,-240 865,-240"/>
<text text-anchor="start" x="873" y="-258" font-family="Helvetica,sans-Serif" font-size="10.00">Nodes.turtlecommands.Home</text>
<text text-anchor="middle" x="946" y="-247" font-family="Helvetica,sans-Serif" font-size="10.00">Node.update</text>
</a>
</g>
</g>
<!-- Node4&#45;&gt;Node6 -->
<g id="edge5" class="edge"><title>Node4&#45;&gt;Node6</title>
<path fill="none" stroke="midnightblue" d="M794.038,-218.014C821.061,-224.635 854.862,-232.916 883.625,-239.963"/>
<polygon fill="midnightblue" stroke="midnightblue" points="794.582,-214.544 784.037,-215.564 792.917,-221.343 794.582,-214.544"/>
</g>
<!-- Node7 -->
<g id="node7" class="node"><title>Node7</title>
<g id="a_node7"><a xlink:href="../../d1/dd7/class_nodes_1_1turtlecommands_1_1_set_position_node.html#a5c752365147093605e4591ecbd0ededd" target="_top" xlink:title="Nodes.turtlecommands.Set\lPositionNode.update">
<polygon fill="white" stroke="black" points="871.5,-191 871.5,-221 1020.5,-221 1020.5,-191 871.5,-191"/>
<text text-anchor="start" x="879.5" y="-209" font-family="Helvetica,sans-Serif" font-size="10.00">Nodes.turtlecommands.Set</text>
<text text-anchor="middle" x="946" y="-198" font-family="Helvetica,sans-Serif" font-size="10.00">PositionNode.update</text>
</a>
</g>
</g>
<!-- Node4&#45;&gt;Node7 -->
<g id="edge6" class="edge"><title>Node4&#45;&gt;Node7</title>
<path fill="none" stroke="midnightblue" d="M828.371,-206C842.677,-206 857.45,-206 871.475,-206"/>
<polygon fill="midnightblue" stroke="midnightblue" points="828.054,-202.5 818.054,-206 828.054,-209.5 828.054,-202.5"/>
</g>
<!-- Node8 -->
<g id="node8" class="node"><title>Node8</title>
<g id="a_node8"><a xlink:href="../../d8/ddb/class_nodes_1_1turtlecommands_1_1_forward_node.html#a4c29ece57a41db2da90359e0193fcb04" target="_top" xlink:title="Nodes.turtlecommands.Forward\lNode.update">
<polygon fill="white" stroke="black" points="861,-142 861,-172 1031,-172 1031,-142 861,-142"/>
<text text-anchor="start" x="869" y="-160" font-family="Helvetica,sans-Serif" font-size="10.00">Nodes.turtlecommands.Forward</text>
<text text-anchor="middle" x="946" y="-149" font-family="Helvetica,sans-Serif" font-size="10.00">Node.update</text>
</a>
</g>
</g>
<!-- Node4&#45;&gt;Node8 -->
<g id="edge7" class="edge"><title>Node4&#45;&gt;Node8</title>
<path fill="none" stroke="midnightblue" d="M794.038,-193.986C821.061,-187.365 854.862,-179.084 883.625,-172.037"/>
<polygon fill="midnightblue" stroke="midnightblue" points="792.917,-190.657 784.037,-196.436 794.582,-197.456 792.917,-190.657"/>
</g>
<!-- Node11 -->
<g id="node11" class="node"><title>Node11</title>
<g id="a_node11"><a xlink:href="../../dd/d2e/class_front_end_1_1_controller.html#a0ad45a00bc5c4475d3b1c6a4dbf74a91" target="_top" xlink:title="FrontEnd.Controller.interpret">
<polygon fill="white" stroke="black" points="668,-98.5 668,-117.5 820,-117.5 820,-98.5 668,-98.5"/>
<text text-anchor="middle" x="744" y="-105.5" font-family="Helvetica,sans-Serif" font-size="10.00">FrontEnd.Controller.interpret</text>
</a>
</g>
</g>
<!-- Node10&#45;&gt;Node11 -->
<g id="edge10" class="edge"><title>Node10&#45;&gt;Node11</title>
<path fill="none" stroke="midnightblue" d="M630.27,-108C642.869,-108 655.701,-108 667.978,-108"/>
<polygon fill="midnightblue" stroke="midnightblue" points="630.231,-104.5 620.231,-108 630.231,-111.5 630.231,-104.5"/>
</g>
<!-- Node12 -->
<g id="node12" class="node"><title>Node12</title>
<g id="a_node12"><a xlink:href="../../dd/d2e/class_front_end_1_1_controller.html#a41885f349a8f334750e26d685a8981d2" target="_top" xlink:title="FrontEnd.Controller.execute\lCommand">
<polygon fill="white" stroke="black" points="871.5,-93 871.5,-123 1020.5,-123 1020.5,-93 871.5,-93"/>
<text text-anchor="start" x="879.5" y="-111" font-family="Helvetica,sans-Serif" font-size="10.00">FrontEnd.Controller.execute</text>
<text text-anchor="middle" x="946" y="-100" font-family="Helvetica,sans-Serif" font-size="10.00">Command</text>
</a>
</g>
</g>
<!-- Node11&#45;&gt;Node12 -->
<g id="edge11" class="edge"><title>Node11&#45;&gt;Node12</title>
<path fill="none" stroke="midnightblue" d="M830.347,-108C843.94,-108 857.902,-108 871.199,-108"/>
<polygon fill="midnightblue" stroke="midnightblue" points="830.042,-104.5 820.042,-108 830.042,-111.5 830.042,-104.5"/>
</g>
<!-- Node13 -->
<g id="node13" class="node"><title>Node13</title>
<g id="a_node13"><a xlink:href="../../dd/d2e/class_front_end_1_1_controller.html#a29be9ff259428dbe97eebe3ec9a13ac5" target="_top" xlink:title="FrontEnd.Controller.update">
<polygon fill="white" stroke="black" points="1072,-98.5 1072,-117.5 1216,-117.5 1216,-98.5 1072,-98.5"/>
<text text-anchor="middle" x="1144" y="-105.5" font-family="Helvetica,sans-Serif" font-size="10.00">FrontEnd.Controller.update</text>
</a>
</g>
</g>
<!-- Node12&#45;&gt;Node13 -->
<g id="edge12" class="edge"><title>Node12&#45;&gt;Node13</title>
<path fill="none" stroke="midnightblue" d="M1030.91,-108C1044.59,-108 1058.64,-108 1071.97,-108"/>
<polygon fill="midnightblue" stroke="midnightblue" points="1030.54,-104.5 1020.54,-108 1030.54,-111.5 1030.54,-104.5"/>
</g>
<!-- Node15 -->
<g id="node15" class="node"><title>Node15</title>
<g id="a_node15"><a xlink:href="../../d4/d8a/class_turtle_view_1_1_turtle_window.html#a55f7ffa346d2ced8f9e831efc900d0c0" target="_top" xlink:title="TurtleView.TurtleWindow.click">
<polygon fill="white" stroke="black" points="669.5,-54.5 669.5,-73.5 818.5,-73.5 818.5,-54.5 669.5,-54.5"/>
<text text-anchor="middle" x="744" y="-61.5" font-family="Helvetica,sans-Serif" font-size="10.00">TurtleView.TurtleWindow.click</text>
</a>
</g>
</g>
<!-- Node14&#45;&gt;Node15 -->
<g id="edge14" class="edge"><title>Node14&#45;&gt;Node15</title>
<path fill="none" stroke="midnightblue" d="M641.776,-64C651.074,-64 660.369,-64 669.349,-64"/>
<polygon fill="midnightblue" stroke="midnightblue" points="641.701,-60.5001 631.701,-64 641.701,-67.5001 641.701,-60.5001"/>
</g>
<!-- Node20 -->
<g id="node20" class="node"><title>Node20</title>
<g id="a_node20"><a xlink:href="../../d9/d38/class_turtle_view_1_1_turtle_information.html#a9358bcce384b1f845cdf75190c4072e7" target="_top" xlink:title="TurtleView.TurtleInformation.\lTurtleInformation">
<polygon fill="white" stroke="black" points="669.5,-5 669.5,-35 818.5,-35 818.5,-5 669.5,-5"/>
<text text-anchor="start" x="677.5" y="-23" font-family="Helvetica,sans-Serif" font-size="10.00">TurtleView.TurtleInformation.</text>
<text text-anchor="middle" x="744" y="-12" font-family="Helvetica,sans-Serif" font-size="10.00">TurtleInformation</text>
</a>
</g>
</g>
<!-- Node14&#45;&gt;Node20 -->
<g id="edge20" class="edge"><title>Node14&#45;&gt;Node20</title>
<path fill="none" stroke="midnightblue" d="M619.17,-46.8399C637.159,-42.941 656.132,-38.8286 673.675,-35.0262"/>
<polygon fill="midnightblue" stroke="midnightblue" points="618.325,-43.4418 609.293,-48.9808 619.808,-50.283 618.325,-43.4418"/>
</g>
<!-- Node16 -->
<g id="node16" class="node"><title>Node16</title>
<g id="a_node16"><a xlink:href="../../d4/d8a/class_turtle_view_1_1_turtle_window.html#a82959fc46f81f3a875e126b5ecd6325d" target="_top" xlink:title="TurtleView.TurtleWindow.\lTurtleWindow">
<polygon fill="white" stroke="black" points="1079.5,-49 1079.5,-79 1208.5,-79 1208.5,-49 1079.5,-49"/>
<text text-anchor="start" x="1087.5" y="-67" font-family="Helvetica,sans-Serif" font-size="10.00">TurtleView.TurtleWindow.</text>
<text text-anchor="middle" x="1144" y="-56" font-family="Helvetica,sans-Serif" font-size="10.00">TurtleWindow</text>
</a>
</g>
</g>
<!-- Node15&#45;&gt;Node16 -->
<g id="edge15" class="edge"><title>Node15&#45;&gt;Node16</title>
<path fill="none" stroke="midnightblue" d="M829.249,-64C903.992,-64 1011.54,-64 1079.31,-64"/>
<polygon fill="midnightblue" stroke="midnightblue" points="828.928,-60.5001 818.928,-64 828.928,-67.5001 828.928,-60.5001"/>
</g>
<!-- Node17 -->
<g id="node17" class="node"><title>Node17</title>
<g id="a_node17"><a xlink:href="../../d4/d8a/class_turtle_view_1_1_turtle_window.html#ab6961d80a7e356af4e9206478608ed40" target="_top" xlink:title="TurtleView.TurtleWindow.make\lTurtle">
<polygon fill="white" stroke="black" points="868,-5 868,-35 1024,-35 1024,-5 868,-5"/>
<text text-anchor="start" x="876" y="-23" font-family="Helvetica,sans-Serif" font-size="10.00">TurtleView.TurtleWindow.make</text>
<text text-anchor="middle" x="946" y="-12" font-family="Helvetica,sans-Serif" font-size="10.00">Turtle</text>
</a>
</g>
</g>
<!-- Node15&#45;&gt;Node17 -->
<g id="edge16" class="edge"><title>Node15&#45;&gt;Node17</title>
<path fill="none" stroke="midnightblue" d="M798.375,-52.2576C822.367,-46.9793 850.973,-40.686 876.521,-35.0654"/>
<polygon fill="midnightblue" stroke="midnightblue" points="797.411,-48.8857 788.397,-54.4527 798.916,-55.7222 797.411,-48.8857"/>
</g>
<!-- Node17&#45;&gt;Node16 -->
<g id="edge19" class="edge"><title>Node17&#45;&gt;Node16</title>
<path fill="none" stroke="midnightblue" d="M1023.72,-37.2226C1042.14,-41.3585 1061.62,-45.731 1079.37,-49.7166"/>
<polygon fill="midnightblue" stroke="midnightblue" points="1024.43,-33.7947 1013.9,-35.0192 1022.89,-40.6247 1024.43,-33.7947"/>
</g>
<!-- Node18 -->
<g id="node18" class="node"><title>Node18</title>
<g id="a_node18"><a xlink:href="../../df/dec/class_front_end_1_1_view.html#affad60393f506692d02f9dc2525780d2" target="_top" xlink:title="FrontEnd.View.makeTurtle\lButton">
<polygon fill="white" stroke="black" points="1075,-0 1075,-30 1213,-30 1213,-0 1075,-0"/>
<text text-anchor="start" x="1083" y="-18" font-family="Helvetica,sans-Serif" font-size="10.00">FrontEnd.View.makeTurtle</text>
<text text-anchor="middle" x="1144" y="-7" font-family="Helvetica,sans-Serif" font-size="10.00">Button</text>
</a>
</g>
</g>
<!-- Node17&#45;&gt;Node18 -->
<g id="edge17" class="edge"><title>Node17&#45;&gt;Node18</title>
<path fill="none" stroke="midnightblue" d="M1034.45,-17.769C1047.98,-17.424 1061.77,-17.0722 1074.79,-16.74"/>
<polygon fill="midnightblue" stroke="midnightblue" points="1034.09,-14.2771 1024.18,-18.031 1034.27,-21.2748 1034.09,-14.2771"/>
</g>
<!-- Node19 -->
<g id="node19" class="node"><title>Node19</title>
<g id="a_node19"><a xlink:href="../../df/dec/class_front_end_1_1_view.html#a079d7e899ded516b169dc6e66da79e1e" target="_top" xlink:title="FrontEnd.View.View">
<polygon fill="white" stroke="black" points="1252.5,-5.5 1252.5,-24.5 1359.5,-24.5 1359.5,-5.5 1252.5,-5.5"/>
<text text-anchor="middle" x="1306" y="-12.5" font-family="Helvetica,sans-Serif" font-size="10.00">FrontEnd.View.View</text>
</a>
</g>
</g>
<!-- Node18&#45;&gt;Node19 -->
<g id="edge18" class="edge"><title>Node18&#45;&gt;Node19</title>
<path fill="none" stroke="midnightblue" d="M1223.5,-15C1233.3,-15 1243.13,-15 1252.4,-15"/>
<polygon fill="midnightblue" stroke="midnightblue" points="1223.32,-11.5001 1213.32,-15 1223.32,-18.5001 1223.32,-11.5001"/>
</g>
</g>
</svg>
