<?xml version="1.0" encoding="UTF-8" standalone="no"?>
<!DOCTYPE svg PUBLIC "-//W3C//DTD SVG 1.1//EN"
 "http://www.w3.org/Graphics/SVG/1.1/DTD/svg11.dtd">
<!-- Generated by graphviz version 2.36.0 (20140111.2315)
 -->
<!-- Title: TurtleView.TurtleInformation.changeTurtle Pages: 1 -->
<svg width="890pt" height="104pt"
 viewBox="0.00 0.00 890.00 104.00" xmlns="http://www.w3.org/2000/svg" xmlns:xlink="http://www.w3.org/1999/xlink">
<g id="graph0" class="graph" transform="scale(1 1) rotate(0) translate(4 100)">
<title>TurtleView.TurtleInformation.changeTurtle</title>
<polygon fill="white" stroke="none" points="-4,4 -4,-100 886,-100 886,4 -4,4"/>
<!-- Node1 -->
<g id="node1" class="node"><title>Node1</title>
<polygon fill="#bfbfbf" stroke="black" points="0.5,-22 0.5,-52 185.5,-52 185.5,-22 0.5,-22"/>
<text text-anchor="start" x="8.5" y="-40" font-family="Helvetica,sans-Serif" font-size="10.00">TurtleView.TurtleInformation.change</text>
<text text-anchor="middle" x="93" y="-29" font-family="Helvetica,sans-Serif" font-size="10.00">Turtle</text>
</g>
<!-- Node2 -->
<g id="node2" class="node"><title>Node2</title>
<g id="a_node2"><a xlink:href="../../d4/d8a/class_turtle_view_1_1_turtle_window.html#a55f7ffa346d2ced8f9e831efc900d0c0" target="_top" xlink:title="TurtleView.TurtleWindow.click">
<polygon fill="white" stroke="black" points="222.5,-49.5 222.5,-68.5 371.5,-68.5 371.5,-49.5 222.5,-49.5"/>
<text text-anchor="middle" x="297" y="-56.5" font-family="Helvetica,sans-Serif" font-size="10.00">TurtleView.TurtleWindow.click</text>
</a>
</g>
</g>
<!-- Node1&#45;&gt;Node2 -->
<g id="edge1" class="edge"><title>Node1&#45;&gt;Node2</title>
<path fill="none" stroke="midnightblue" d="M195.675,-48.0735C204.66,-49.0521 213.637,-50.0298 222.323,-50.9758"/>
<polygon fill="midnightblue" stroke="midnightblue" points="195.864,-44.5735 185.544,-46.9701 195.106,-51.5323 195.864,-44.5735"/>
</g>
<!-- Node7 -->
<g id="node7" class="node"><title>Node7</title>
<g id="a_node7"><a xlink:href="../../d9/d38/class_turtle_view_1_1_turtle_information.html#a9358bcce384b1f845cdf75190c4072e7" target="_top" xlink:title="TurtleView.TurtleInformation.\lTurtleInformation">
<polygon fill="white" stroke="black" points="222.5,-0 222.5,-30 371.5,-30 371.5,-0 222.5,-0"/>
<text text-anchor="start" x="230.5" y="-18" font-family="Helvetica,sans-Serif" font-size="10.00">TurtleView.TurtleInformation.</text>
<text text-anchor="middle" x="297" y="-7" font-family="Helvetica,sans-Serif" font-size="10.00">TurtleInformation</text>
</a>
</g>
</g>
<!-- Node1&#45;&gt;Node7 -->
<g id="edge7" class="edge"><title>Node1&#45;&gt;Node7</title>
<path fill="none" stroke="midnightblue" d="M195.675,-25.9265C204.66,-24.9479 213.637,-23.9702 222.323,-23.0242"/>
<polygon fill="midnightblue" stroke="midnightblue" points="195.106,-22.4677 185.544,-27.0299 195.864,-29.4265 195.106,-22.4677"/>
</g>
<!-- Node3 -->
<g id="node3" class="node"><title>Node3</title>
<g id="a_node3"><a xlink:href="../../d4/d8a/class_turtle_view_1_1_turtle_window.html#a82959fc46f81f3a875e126b5ecd6325d" target="_top" xlink:title="TurtleView.TurtleWindow.\lTurtleWindow">
<polygon fill="white" stroke="black" points="604.5,-66 604.5,-96 733.5,-96 733.5,-66 604.5,-66"/>
<text text-anchor="start" x="612.5" y="-84" font-family="Helvetica,sans-Serif" font-size="10.00">TurtleView.TurtleWindow.</text>
<text text-anchor="middle" x="669" y="-73" font-family="Helvetica,sans-Serif" font-size="10.00">TurtleWindow</text>
</a>
</g>
</g>
<!-- Node2&#45;&gt;Node3 -->
<g id="edge2" class="edge"><title>Node2&#45;&gt;Node3</title>
<path fill="none" stroke="midnightblue" d="M381.736,-63.9789C449.312,-67.9969 542.942,-73.5641 604.461,-77.222"/>
<polygon fill="midnightblue" stroke="midnightblue" points="381.733,-60.4726 371.542,-63.3728 381.317,-67.4603 381.733,-60.4726"/>
</g>
<!-- Node4 -->
<g id="node4" class="node"><title>Node4</title>
<g id="a_node4"><a xlink:href="../../d4/d8a/class_turtle_view_1_1_turtle_window.html#ab6961d80a7e356af4e9206478608ed40" target="_top" xlink:title="TurtleView.TurtleWindow.make\lTurtle">
<polygon fill="white" stroke="black" points="408,-22 408,-52 564,-52 564,-22 408,-22"/>
<text text-anchor="start" x="416" y="-40" font-family="Helvetica,sans-Serif" font-size="10.00">TurtleView.TurtleWindow.make</text>
<text text-anchor="middle" x="486" y="-29" font-family="Helvetica,sans-Serif" font-size="10.00">Turtle</text>
</a>
</g>
</g>
<!-- Node2&#45;&gt;Node4 -->
<g id="edge3" class="edge"><title>Node2&#45;&gt;Node4</title>
<path fill="none" stroke="midnightblue" d="M381.73,-49.1494C390.386,-48.131 399.155,-47.0994 407.736,-46.0899"/>
<polygon fill="midnightblue" stroke="midnightblue" points="381.161,-45.6921 371.639,-50.3366 381.979,-52.6441 381.161,-45.6921"/>
</g>
<!-- Node4&#45;&gt;Node3 -->
<g id="edge6" class="edge"><title>Node4&#45;&gt;Node3</title>
<path fill="none" stroke="midnightblue" d="M558.929,-54.4855C574.568,-58.2873 590.981,-62.277 606.188,-65.9738"/>
<polygon fill="midnightblue" stroke="midnightblue" points="559.327,-50.9805 548.784,-52.0192 557.674,-57.7824 559.327,-50.9805"/>
</g>
<!-- Node5 -->
<g id="node5" class="node"><title>Node5</title>
<g id="a_node5"><a xlink:href="../../df/dec/class_front_end_1_1_view.html#affad60393f506692d02f9dc2525780d2" target="_top" xlink:title="FrontEnd.View.makeTurtle\lButton">
<polygon fill="white" stroke="black" points="600,-17 600,-47 738,-47 738,-17 600,-17"/>
<text text-anchor="start" x="608" y="-35" font-family="Helvetica,sans-Serif" font-size="10.00">FrontEnd.View.makeTurtle</text>
<text text-anchor="middle" x="669" y="-24" font-family="Helvetica,sans-Serif" font-size="10.00">Button</text>
</a>
</g>
</g>
<!-- Node4&#45;&gt;Node5 -->
<g id="edge4" class="edge"><title>Node4&#45;&gt;Node5</title>
<path fill="none" stroke="midnightblue" d="M574.146,-34.5926C582.802,-34.3535 591.5,-34.1133 599.92,-33.8807"/>
<polygon fill="midnightblue" stroke="midnightblue" points="573.922,-31.0974 564.023,-34.8723 574.116,-38.0947 573.922,-31.0974"/>
</g>
<!-- Node6 -->
<g id="node6" class="node"><title>Node6</title>
<g id="a_node6"><a xlink:href="../../df/dec/class_front_end_1_1_view.html#a079d7e899ded516b169dc6e66da79e1e" target="_top" xlink:title="FrontEnd.View.View">
<polygon fill="white" stroke="black" points="774.5,-22.5 774.5,-41.5 881.5,-41.5 881.5,-22.5 774.5,-22.5"/>
<text text-anchor="middle" x="828" y="-29.5" font-family="Helvetica,sans-Serif" font-size="10.00">FrontEnd.View.View</text>
</a>
</g>
</g>
<!-- Node5&#45;&gt;Node6 -->
<g id="edge5" class="edge"><title>Node5&#45;&gt;Node6</title>
<path fill="none" stroke="midnightblue" d="M748.636,-32C757.372,-32 766.105,-32 774.404,-32"/>
<polygon fill="midnightblue" stroke="midnightblue" points="748.406,-28.5001 738.406,-32 748.406,-35.5001 748.406,-28.5001"/>
</g>
</g>
</svg>
