<?xml version="1.0" encoding="UTF-8" standalone="no"?>
<!DOCTYPE svg PUBLIC "-//W3C//DTD SVG 1.1//EN"
 "http://www.w3.org/Graphics/SVG/1.1/DTD/svg11.dtd">
<!-- Generated by graphviz version 2.36.0 (20140111.2315)
 -->
<!-- Title: TurtleView.TurtleInformation.emptyInfo Pages: 1 -->
<svg width="1376pt" height="327pt"
 viewBox="0.00 0.00 1376.00 327.00" xmlns="http://www.w3.org/2000/svg" xmlns:xlink="http://www.w3.org/1999/xlink">
<g id="graph0" class="graph" transform="scale(1 1) rotate(0) translate(4 323)">
<title>TurtleView.TurtleInformation.emptyInfo</title>
<polygon fill="white" stroke="none" points="-4,4 -4,-323 1372,-323 1372,4 -4,4"/>
<!-- Node1 -->
<g id="node1" class="node"><title>Node1</title>
<polygon fill="#bfbfbf" stroke="black" points="0.5,-98.5 0.5,-117.5 197.5,-117.5 197.5,-98.5 0.5,-98.5"/>
<text text-anchor="middle" x="99" y="-105.5" font-family="Helvetica,sans-Serif" font-size="10.00">TurtleView.TurtleInformation.emptyInfo</text>
</g>
<!-- Node2 -->
<g id="node2" class="node"><title>Node2</title>
<g id="a_node2"><a xlink:href="../../d9/d38/class_turtle_view_1_1_turtle_information.html#ad65201793ce738f9c6d6e592271c14e1" target="_top" xlink:title="TurtleView.TurtleInformation.update">
<polygon fill="white" stroke="black" points="234.5,-98.5 234.5,-117.5 417.5,-117.5 417.5,-98.5 234.5,-98.5"/>
<text text-anchor="middle" x="326" y="-105.5" font-family="Helvetica,sans-Serif" font-size="10.00">TurtleView.TurtleInformation.update</text>
</a>
</g>
</g>
<!-- Node1&#45;&gt;Node2 -->
<g id="edge1" class="edge"><title>Node1&#45;&gt;Node2</title>
<path fill="none" stroke="midnightblue" d="M207.768,-108C216.705,-108 225.683,-108 234.474,-108"/>
<polygon fill="midnightblue" stroke="midnightblue" points="207.707,-104.5 197.707,-108 207.707,-111.5 207.707,-104.5"/>
</g>
<!-- Node3 -->
<g id="node3" class="node"><title>Node3</title>
<g id="a_node3"><a xlink:href="../../d1/de0/class_backend_1_1_turtle.html#a94cbed3c9c0c33e1ea8e8b3c51c26c73" target="_top" xlink:title="Backend.Turtle.move">
<polygon fill="white" stroke="black" points="489,-147.5 489,-166.5 605,-166.5 605,-147.5 489,-147.5"/>
<text text-anchor="middle" x="547" y="-154.5" font-family="Helvetica,sans-Serif" font-size="10.00">Backend.Turtle.move</text>
</a>
</g>
</g>
<!-- Node2&#45;&gt;Node3 -->
<g id="edge2" class="edge"><title>Node2&#45;&gt;Node3</title>
<path fill="none" stroke="midnightblue" d="M379.318,-119.706C417.206,-128.183 467.79,-139.501 503.26,-147.437"/>
<polygon fill="midnightblue" stroke="midnightblue" points="380.008,-116.274 369.485,-117.506 378.48,-123.105 380.008,-116.274"/>
</g>
<!-- Node10 -->
<g id="node10" class="node"><title>Node10</title>
<g id="a_node10"><a xlink:href="../../df/dec/class_front_end_1_1_view.html#afa6c660ce1c2e6493f471b5344638d5b" target="_top" xlink:title="FrontEnd.View.updateTurtleInfo">
<polygon fill="white" stroke="black" points="466,-98.5 466,-117.5 628,-117.5 628,-98.5 466,-98.5"/>
<text text-anchor="middle" x="547" y="-105.5" font-family="Helvetica,sans-Serif" font-size="10.00">FrontEnd.View.updateTurtleInfo</text>
</a>
</g>
</g>
<!-- Node2&#45;&gt;Node10 -->
<g id="edge9" class="edge"><title>Node2&#45;&gt;Node10</title>
<path fill="none" stroke="midnightblue" d="M427.844,-108C440.606,-108 453.526,-108 465.905,-108"/>
<polygon fill="midnightblue" stroke="midnightblue" points="427.657,-104.5 417.657,-108 427.656,-111.5 427.657,-104.5"/>
</g>
<!-- Node14 -->
<g id="node14" class="node"><title>Node14</title>
<g id="a_node14"><a xlink:href="../../d9/d38/class_turtle_view_1_1_turtle_information.html#a3a64e1f1313c0c4f30a93c1fcc5f36c1" target="_top" xlink:title="TurtleView.TurtleInformation.change\lTurtle">
<polygon fill="white" stroke="black" points="454.5,-49 454.5,-79 639.5,-79 639.5,-49 454.5,-49"/>
<text text-anchor="start" x="462.5" y="-67" font-family="Helvetica,sans-Serif" font-size="10.00">TurtleView.TurtleInformation.change</text>
<text text-anchor="middle" x="547" y="-56" font-family="Helvetica,sans-Serif" font-size="10.00">Turtle</text>
</a>
</g>
</g>
<!-- Node2&#45;&gt;Node14 -->
<g id="edge13" class="edge"><title>Node2&#45;&gt;Node14</title>
<path fill="none" stroke="midnightblue" d="M384.392,-96.4691C410.877,-91.148 442.666,-84.7613 471.016,-79.0654"/>
<polygon fill="midnightblue" stroke="midnightblue" points="383.634,-93.0514 374.52,-98.4527 385.013,-99.9142 383.634,-93.0514"/>
</g>
<!-- Node4 -->
<g id="node4" class="node"><title>Node4</title>
<g id="a_node4"><a xlink:href="../../d1/de0/class_backend_1_1_turtle.html#ad5f5520cb6970723e121a8d17f2c0a5c" target="_top" xlink:title="Backend.Turtle.addLocation">
<polygon fill="white" stroke="black" points="678,-196.5 678,-215.5 826,-215.5 826,-196.5 678,-196.5"/>
<text text-anchor="middle" x="752" y="-203.5" font-family="Helvetica,sans-Serif" font-size="10.00">Backend.Turtle.addLocation</text>
</a>
</g>
</g>
<!-- Node3&#45;&gt;Node4 -->
<g id="edge3" class="edge"><title>Node3&#45;&gt;Node4</title>
<path fill="none" stroke="midnightblue" d="M597.641,-168.982C632.664,-177.436 678.95,-188.609 711.478,-196.46"/>
<polygon fill="midnightblue" stroke="midnightblue" points="598.164,-165.508 587.622,-166.564 596.522,-172.313 598.164,-165.508"/>
</g>
<!-- Node9 -->
<g id="node9" class="node"><title>Node9</title>
<g id="a_node9"><a xlink:href="../../d1/de0/class_backend_1_1_turtle.html#a98cc72272199855ddfd7588b23bb5a4f" target="_top" xlink:title="Backend.Turtle.Turtle">
<polygon fill="white" stroke="black" points="694.5,-147.5 694.5,-166.5 809.5,-166.5 809.5,-147.5 694.5,-147.5"/>
<text text-anchor="middle" x="752" y="-154.5" font-family="Helvetica,sans-Serif" font-size="10.00">Backend.Turtle.Turtle</text>
</a>
</g>
</g>
<!-- Node3&#45;&gt;Node9 -->
<g id="edge8" class="edge"><title>Node3&#45;&gt;Node9</title>
<path fill="none" stroke="midnightblue" d="M615.111,-157C640.769,-157 669.753,-157 694.341,-157"/>
<polygon fill="midnightblue" stroke="midnightblue" points="615.087,-153.5 605.087,-157 615.087,-160.5 615.087,-153.5"/>
</g>
<!-- Node5 -->
<g id="node5" class="node"><title>Node5</title>
<g id="a_node5"><a xlink:href="../../dc/db0/class_nodes_1_1turtlecommands_1_1_backward_node.html#a8ebd60d8ab28acb66aef1fd9ba59d5c7" target="_top" xlink:title="Nodes.turtlecommands.Backward\lNode.update">
<polygon fill="white" stroke="black" points="864.5,-289 864.5,-319 1043.5,-319 1043.5,-289 864.5,-289"/>
<text text-anchor="start" x="872.5" y="-307" font-family="Helvetica,sans-Serif" font-size="10.00">Nodes.turtlecommands.Backward</text>
<text text-anchor="middle" x="954" y="-296" font-family="Helvetica,sans-Serif" font-size="10.00">Node.update</text>
</a>
</g>
</g>
<!-- Node4&#45;&gt;Node5 -->
<g id="edge4" class="edge"><title>Node4&#45;&gt;Node5</title>
<path fill="none" stroke="midnightblue" d="M772.919,-221.848C794.321,-238.198 829.877,-263.442 864,-279 872.178,-282.729 881.037,-286.022 889.887,-288.893"/>
<polygon fill="midnightblue" stroke="midnightblue" points="774.967,-219.007 764.919,-215.646 770.677,-224.539 774.967,-219.007"/>
</g>
<!-- Node6 -->
<g id="node6" class="node"><title>Node6</title>
<g id="a_node6"><a xlink:href="../../d4/dd2/class_nodes_1_1turtlecommands_1_1_home_node.html#ab3bbeb66894a4c93c40e651457efe097" target="_top" xlink:title="Nodes.turtlecommands.Home\lNode.update">
<polygon fill="white" stroke="black" points="873,-240 873,-270 1035,-270 1035,-240 873,-240"/>
<text text-anchor="start" x="881" y="-258" font-family="Helvetica,sans-Serif" font-size="10.00">Nodes.turtlecommands.Home</text>
<text text-anchor="middle" x="954" y="-247" font-family="Helvetica,sans-Serif" font-size="10.00">Node.update</text>
</a>
</g>
</g>
<!-- Node4&#45;&gt;Node6 -->
<g id="edge5" class="edge"><title>Node4&#45;&gt;Node6</title>
<path fill="none" stroke="midnightblue" d="M802.038,-218.014C829.061,-224.635 862.862,-232.916 891.625,-239.963"/>
<polygon fill="midnightblue" stroke="midnightblue" points="802.582,-214.544 792.037,-215.564 800.917,-221.343 802.582,-214.544"/>
</g>
<!-- Node7 -->
<g id="node7" class="node"><title>Node7</title>
<g id="a_node7"><a xlink:href="../../d1/dd7/class_nodes_1_1turtlecommands_1_1_set_position_node.html#a5c752365147093605e4591ecbd0ededd" target="_top" xlink:title="Nodes.turtlecommands.Set\lPositionNode.update">
<polygon fill="white" stroke="black" points="879.5,-191 879.5,-221 1028.5,-221 1028.5,-191 879.5,-191"/>
<text text-anchor="start" x="887.5" y="-209" font-family="Helvetica,sans-Serif" font-size="10.00">Nodes.turtlecommands.Set</text>
<text text-anchor="middle" x="954" y="-198" font-family="Helvetica,sans-Serif" font-size="10.00">PositionNode.update</text>
</a>
</g>
</g>
<!-- Node4&#45;&gt;Node7 -->
<g id="edge6" class="edge"><title>Node4&#45;&gt;Node7</title>
<path fill="none" stroke="midnightblue" d="M836.371,-206C850.677,-206 865.45,-206 879.475,-206"/>
<polygon fill="midnightblue" stroke="midnightblue" points="836.054,-202.5 826.054,-206 836.054,-209.5 836.054,-202.5"/>
</g>
<!-- Node8 -->
<g id="node8" class="node"><title>Node8</title>
<g id="a_node8"><a xlink:href="../../d8/ddb/class_nodes_1_1turtlecommands_1_1_forward_node.html#a4c29ece57a41db2da90359e0193fcb04" target="_top" xlink:title="Nodes.turtlecommands.Forward\lNode.update">
<polygon fill="white" stroke="black" points="869,-142 869,-172 1039,-172 1039,-142 869,-142"/>
<text text-anchor="start" x="877" y="-160" font-family="Helvetica,sans-Serif" font-size="10.00">Nodes.turtlecommands.Forward</text>
<text text-anchor="middle" x="954" y="-149" font-family="Helvetica,sans-Serif" font-size="10.00">Node.update</text>
</a>
</g>
</g>
<!-- Node4&#45;&gt;Node8 -->
<g id="edge7" class="edge"><title>Node4&#45;&gt;Node8</title>
<path fill="none" stroke="midnightblue" d="M802.038,-193.986C829.061,-187.365 862.862,-179.084 891.625,-172.037"/>
<polygon fill="midnightblue" stroke="midnightblue" points="800.917,-190.657 792.037,-196.436 802.582,-197.456 800.917,-190.657"/>
</g>
<!-- Node11 -->
<g id="node11" class="node"><title>Node11</title>
<g id="a_node11"><a xlink:href="../../dd/d2e/class_front_end_1_1_controller.html#a0ad45a00bc5c4475d3b1c6a4dbf74a91" target="_top" xlink:title="FrontEnd.Controller.interpret">
<polygon fill="white" stroke="black" points="676,-98.5 676,-117.5 828,-117.5 828,-98.5 676,-98.5"/>
<text text-anchor="middle" x="752" y="-105.5" font-family="Helvetica,sans-Serif" font-size="10.00">FrontEnd.Controller.interpret</text>
</a>
</g>
</g>
<!-- Node10&#45;&gt;Node11 -->
<g id="edge10" class="edge"><title>Node10&#45;&gt;Node11</title>
<path fill="none" stroke="midnightblue" d="M638.27,-108C650.869,-108 663.701,-108 675.978,-108"/>
<polygon fill="midnightblue" stroke="midnightblue" points="638.231,-104.5 628.231,-108 638.231,-111.5 638.231,-104.5"/>
</g>
<!-- Node12 -->
<g id="node12" class="node"><title>Node12</title>
<g id="a_node12"><a xlink:href="../../dd/d2e/class_front_end_1_1_controller.html#a41885f349a8f334750e26d685a8981d2" target="_top" xlink:title="FrontEnd.Controller.execute\lCommand">
<polygon fill="white" stroke="black" points="879.5,-93 879.5,-123 1028.5,-123 1028.5,-93 879.5,-93"/>
<text text-anchor="start" x="887.5" y="-111" font-family="Helvetica,sans-Serif" font-size="10.00">FrontEnd.Controller.execute</text>
<text text-anchor="middle" x="954" y="-100" font-family="Helvetica,sans-Serif" font-size="10.00">Command</text>
</a>
</g>
</g>
<!-- Node11&#45;&gt;Node12 -->
<g id="edge11" class="edge"><title>Node11&#45;&gt;Node12</title>
<path fill="none" stroke="midnightblue" d="M838.347,-108C851.94,-108 865.902,-108 879.199,-108"/>
<polygon fill="midnightblue" stroke="midnightblue" points="838.042,-104.5 828.042,-108 838.042,-111.5 838.042,-104.5"/>
</g>
<!-- Node13 -->
<g id="node13" class="node"><title>Node13</title>
<g id="a_node13"><a xlink:href="../../dd/d2e/class_front_end_1_1_controller.html#a29be9ff259428dbe97eebe3ec9a13ac5" target="_top" xlink:title="FrontEnd.Controller.update">
<polygon fill="white" stroke="black" points="1080,-98.5 1080,-117.5 1224,-117.5 1224,-98.5 1080,-98.5"/>
<text text-anchor="middle" x="1152" y="-105.5" font-family="Helvetica,sans-Serif" font-size="10.00">FrontEnd.Controller.update</text>
</a>
</g>
</g>
<!-- Node12&#45;&gt;Node13 -->
<g id="edge12" class="edge"><title>Node12&#45;&gt;Node13</title>
<path fill="none" stroke="midnightblue" d="M1038.91,-108C1052.59,-108 1066.64,-108 1079.97,-108"/>
<polygon fill="midnightblue" stroke="midnightblue" points="1038.54,-104.5 1028.54,-108 1038.54,-111.5 1038.54,-104.5"/>
</g>
<!-- Node15 -->
<g id="node15" class="node"><title>Node15</title>
<g id="a_node15"><a xlink:href="../../d4/d8a/class_turtle_view_1_1_turtle_window.html#a55f7ffa346d2ced8f9e831efc900d0c0" target="_top" xlink:title="TurtleView.TurtleWindow.click">
<polygon fill="white" stroke="black" points="677.5,-54.5 677.5,-73.5 826.5,-73.5 826.5,-54.5 677.5,-54.5"/>
<text text-anchor="middle" x="752" y="-61.5" font-family="Helvetica,sans-Serif" font-size="10.00">TurtleView.TurtleWindow.click</text>
</a>
</g>
</g>
<!-- Node14&#45;&gt;Node15 -->
<g id="edge14" class="edge"><title>Node14&#45;&gt;Node15</title>
<path fill="none" stroke="midnightblue" d="M649.776,-64C659.074,-64 668.369,-64 677.349,-64"/>
<polygon fill="midnightblue" stroke="midnightblue" points="649.701,-60.5001 639.701,-64 649.701,-67.5001 649.701,-60.5001"/>
</g>
<!-- Node20 -->
<g id="node20" class="node"><title>Node20</title>
<g id="a_node20"><a xlink:href="../../d9/d38/class_turtle_view_1_1_turtle_information.html#a9358bcce384b1f845cdf75190c4072e7" target="_top" xlink:title="TurtleView.TurtleInformation.\lTurtleInformation">
<polygon fill="white" stroke="black" points="677.5,-5 677.5,-35 826.5,-35 826.5,-5 677.5,-5"/>
<text text-anchor="start" x="685.5" y="-23" font-family="Helvetica,sans-Serif" font-size="10.00">TurtleView.TurtleInformation.</text>
<text text-anchor="middle" x="752" y="-12" font-family="Helvetica,sans-Serif" font-size="10.00">TurtleInformation</text>
</a>
</g>
</g>
<!-- Node14&#45;&gt;Node20 -->
<g id="edge20" class="edge"><title>Node14&#45;&gt;Node20</title>
<path fill="none" stroke="midnightblue" d="M627.17,-46.8399C645.159,-42.941 664.132,-38.8286 681.675,-35.0262"/>
<polygon fill="midnightblue" stroke="midnightblue" points="626.325,-43.4418 617.293,-48.9808 627.808,-50.283 626.325,-43.4418"/>
</g>
<!-- Node16 -->
<g id="node16" class="node"><title>Node16</title>
<g id="a_node16"><a xlink:href="../../d4/d8a/class_turtle_view_1_1_turtle_window.html#a82959fc46f81f3a875e126b5ecd6325d" target="_top" xlink:title="TurtleView.TurtleWindow.\lTurtleWindow">
<polygon fill="white" stroke="black" points="1087.5,-49 1087.5,-79 1216.5,-79 1216.5,-49 1087.5,-49"/>
<text text-anchor="start" x="1095.5" y="-67" font-family="Helvetica,sans-Serif" font-size="10.00">TurtleView.TurtleWindow.</text>
<text text-anchor="middle" x="1152" y="-56" font-family="Helvetica,sans-Serif" font-size="10.00">TurtleWindow</text>
</a>
</g>
</g>
<!-- Node15&#45;&gt;Node16 -->
<g id="edge15" class="edge"><title>Node15&#45;&gt;Node16</title>
<path fill="none" stroke="midnightblue" d="M837.249,-64C911.992,-64 1019.54,-64 1087.31,-64"/>
<polygon fill="midnightblue" stroke="midnightblue" points="836.928,-60.5001 826.928,-64 836.928,-67.5001 836.928,-60.5001"/>
</g>
<!-- Node17 -->
<g id="node17" class="node"><title>Node17</title>
<g id="a_node17"><a xlink:href="../../d4/d8a/class_turtle_view_1_1_turtle_window.html#ab6961d80a7e356af4e9206478608ed40" target="_top" xlink:title="TurtleView.TurtleWindow.make\lTurtle">
<polygon fill="white" stroke="black" points="876,-5 876,-35 1032,-35 1032,-5 876,-5"/>
<text text-anchor="start" x="884" y="-23" font-family="Helvetica,sans-Serif" font-size="10.00">TurtleView.TurtleWindow.make</text>
<text text-anchor="middle" x="954" y="-12" font-family="Helvetica,sans-Serif" font-size="10.00">Turtle</text>
</a>
</g>
</g>
<!-- Node15&#45;&gt;Node17 -->
<g id="edge16" class="edge"><title>Node15&#45;&gt;Node17</title>
<path fill="none" stroke="midnightblue" d="M806.375,-52.2576C830.367,-46.9793 858.973,-40.686 884.521,-35.0654"/>
<polygon fill="midnightblue" stroke="midnightblue" points="805.411,-48.8857 796.397,-54.4527 806.916,-55.7222 805.411,-48.8857"/>
</g>
<!-- Node17&#45;&gt;Node16 -->
<g id="edge19" class="edge"><title>Node17&#45;&gt;Node16</title>
<path fill="none" stroke="midnightblue" d="M1031.72,-37.2226C1050.14,-41.3585 1069.62,-45.731 1087.37,-49.7166"/>
<polygon fill="midnightblue" stroke="midnightblue" points="1032.43,-33.7947 1021.9,-35.0192 1030.89,-40.6247 1032.43,-33.7947"/>
</g>
<!-- Node18 -->
<g id="node18" class="node"><title>Node18</title>
<g id="a_node18"><a xlink:href="../../df/dec/class_front_end_1_1_view.html#affad60393f506692d02f9dc2525780d2" target="_top" xlink:title="FrontEnd.View.makeTurtle\lButton">
<polygon fill="white" stroke="black" points="1083,-0 1083,-30 1221,-30 1221,-0 1083,-0"/>
<text text-anchor="start" x="1091" y="-18" font-family="Helvetica,sans-Serif" font-size="10.00">FrontEnd.View.makeTurtle</text>
<text text-anchor="middle" x="1152" y="-7" font-family="Helvetica,sans-Serif" font-size="10.00">Button</text>
</a>
</g>
</g>
<!-- Node17&#45;&gt;Node18 -->
<g id="edge17" class="edge"><title>Node17&#45;&gt;Node18</title>
<path fill="none" stroke="midnightblue" d="M1042.45,-17.769C1055.98,-17.424 1069.77,-17.0722 1082.79,-16.74"/>
<polygon fill="midnightblue" stroke="midnightblue" points="1042.09,-14.2771 1032.18,-18.031 1042.27,-21.2748 1042.09,-14.2771"/>
</g>
<!-- Node19 -->
<g id="node19" class="node"><title>Node19</title>
<g id="a_node19"><a xlink:href="../../df/dec/class_front_end_1_1_view.html#a079d7e899ded516b169dc6e66da79e1e" target="_top" xlink:title="FrontEnd.View.View">
<polygon fill="white" stroke="black" points="1260.5,-5.5 1260.5,-24.5 1367.5,-24.5 1367.5,-5.5 1260.5,-5.5"/>
<text text-anchor="middle" x="1314" y="-12.5" font-family="Helvetica,sans-Serif" font-size="10.00">FrontEnd.View.View</text>
</a>
</g>
</g>
<!-- Node18&#45;&gt;Node19 -->
<g id="edge18" class="edge"><title>Node18&#45;&gt;Node19</title>
<path fill="none" stroke="midnightblue" d="M1231.5,-15C1241.3,-15 1251.13,-15 1260.4,-15"/>
<polygon fill="midnightblue" stroke="midnightblue" points="1231.32,-11.5001 1221.32,-15 1231.32,-18.5001 1231.32,-11.5001"/>
</g>
</g>
</svg>
