<?xml version="1.0" encoding="UTF-8" standalone="no"?>
<!DOCTYPE svg PUBLIC "-//W3C//DTD SVG 1.1//EN"
 "http://www.w3.org/Graphics/SVG/1.1/DTD/svg11.dtd">
<!-- Generated by graphviz version 2.36.0 (20140111.2315)
 -->
<!-- Title: TurtleView.TurtleInformation.update Pages: 1 -->
<svg width="608pt" height="180pt"
 viewBox="0.00 0.00 608.00 180.00" xmlns="http://www.w3.org/2000/svg" xmlns:xlink="http://www.w3.org/1999/xlink">
<g id="graph0" class="graph" transform="scale(1 1) rotate(0) translate(4 176)">
<title>TurtleView.TurtleInformation.update</title>
<polygon fill="white" stroke="none" points="-4,4 -4,-176 604,-176 604,4 -4,4"/>
<!-- Node1 -->
<g id="node1" class="node"><title>Node1</title>
<polygon fill="#bfbfbf" stroke="black" points="0.5,-76.5 0.5,-95.5 183.5,-95.5 183.5,-76.5 0.5,-76.5"/>
<text text-anchor="middle" x="92" y="-83.5" font-family="Helvetica,sans-Serif" font-size="10.00">TurtleView.TurtleInformation.update</text>
</g>
<!-- Node2 -->
<g id="node2" class="node"><title>Node2</title>
<g id="a_node2"><a xlink:href="../../d9/d38/class_turtle_view_1_1_turtle_information.html#aca65258778dade3baa31e0d5ec643b3b" target="_top" xlink:title="TurtleView.TurtleInformation.emptyInfo">
<polygon fill="white" stroke="black" points="220.5,-152.5 220.5,-171.5 417.5,-171.5 417.5,-152.5 220.5,-152.5"/>
<text text-anchor="middle" x="319" y="-159.5" font-family="Helvetica,sans-Serif" font-size="10.00">TurtleView.TurtleInformation.emptyInfo</text>
</a>
</g>
</g>
<!-- Node1&#45;&gt;Node2 -->
<g id="edge1" class="edge"><title>Node1&#45;&gt;Node2</title>
<path fill="none" stroke="midnightblue" d="M110.988,-95.6734C135.138,-108.284 179.68,-130.232 220,-143 228.675,-145.747 237.915,-148.167 247.122,-150.278"/>
<polygon fill="midnightblue" stroke="midnightblue" points="246.555,-153.736 257.072,-152.448 248.047,-146.897 246.555,-153.736"/>
</g>
<!-- Node3 -->
<g id="node3" class="node"><title>Node3</title>
<g id="a_node3"><a xlink:href="../../d1/de0/class_backend_1_1_turtle.html#adc7cb6cc95ee918547d2b18d8bb20183" target="_top" xlink:title="Backend.Turtle.getID">
<polygon fill="white" stroke="black" points="261.5,-114.5 261.5,-133.5 376.5,-133.5 376.5,-114.5 261.5,-114.5"/>
<text text-anchor="middle" x="319" y="-121.5" font-family="Helvetica,sans-Serif" font-size="10.00">Backend.Turtle.getID</text>
</a>
</g>
</g>
<!-- Node1&#45;&gt;Node3 -->
<g id="edge2" class="edge"><title>Node1&#45;&gt;Node3</title>
<path fill="none" stroke="midnightblue" d="M149.487,-95.54C180.379,-100.757 218.837,-107.253 251.21,-112.72"/>
<polygon fill="midnightblue" stroke="midnightblue" points="251.047,-116.242 261.49,-114.456 252.213,-109.34 251.047,-116.242"/>
</g>
<!-- Node4 -->
<g id="node4" class="node"><title>Node4</title>
<g id="a_node4"><a xlink:href="../../d1/de0/class_backend_1_1_turtle.html#a715f94909b1ba74dc9e4f9eb4fd91e10" target="_top" xlink:title="Backend.Turtle.getXCord">
<polygon fill="white" stroke="black" points="252.5,-76.5 252.5,-95.5 385.5,-95.5 385.5,-76.5 252.5,-76.5"/>
<text text-anchor="middle" x="319" y="-83.5" font-family="Helvetica,sans-Serif" font-size="10.00">Backend.Turtle.getXCord</text>
</a>
</g>
</g>
<!-- Node1&#45;&gt;Node4 -->
<g id="edge3" class="edge"><title>Node1&#45;&gt;Node4</title>
<path fill="none" stroke="midnightblue" d="M183.544,-86C202.914,-86 223.187,-86 241.945,-86"/>
<polygon fill="midnightblue" stroke="midnightblue" points="242.195,-89.5001 252.195,-86 242.195,-82.5001 242.195,-89.5001"/>
</g>
<!-- Node6 -->
<g id="node6" class="node"><title>Node6</title>
<g id="a_node6"><a xlink:href="../../d1/de0/class_backend_1_1_turtle.html#a692174eccea232fc58e725cff6f50359" target="_top" xlink:title="Backend.Turtle.getYCord">
<polygon fill="white" stroke="black" points="253,-38.5 253,-57.5 385,-57.5 385,-38.5 253,-38.5"/>
<text text-anchor="middle" x="319" y="-45.5" font-family="Helvetica,sans-Serif" font-size="10.00">Backend.Turtle.getYCord</text>
</a>
</g>
</g>
<!-- Node1&#45;&gt;Node6 -->
<g id="edge5" class="edge"><title>Node1&#45;&gt;Node6</title>
<path fill="none" stroke="midnightblue" d="M149.487,-76.46C180.379,-71.2426 218.837,-64.7475 251.21,-59.28"/>
<polygon fill="midnightblue" stroke="midnightblue" points="252.213,-62.6604 261.49,-57.5439 251.047,-55.7581 252.213,-62.6604"/>
</g>
<!-- Node7 -->
<g id="node7" class="node"><title>Node7</title>
<g id="a_node7"><a xlink:href="../../d9/d38/class_turtle_view_1_1_turtle_information.html#a15bd13ad05cabb76c0861d0ab42722ef" target="_top" xlink:title="TurtleView.TurtleInformation.truncate">
<polygon fill="white" stroke="black" points="224,-0.5 224,-19.5 414,-19.5 414,-0.5 224,-0.5"/>
<text text-anchor="middle" x="319" y="-7.5" font-family="Helvetica,sans-Serif" font-size="10.00">TurtleView.TurtleInformation.truncate</text>
</a>
</g>
</g>
<!-- Node1&#45;&gt;Node7 -->
<g id="edge7" class="edge"><title>Node1&#45;&gt;Node7</title>
<path fill="none" stroke="midnightblue" d="M110.988,-76.3266C135.138,-63.7161 179.68,-41.7684 220,-29 228.675,-26.2527 237.915,-23.8331 247.122,-21.7223"/>
<polygon fill="midnightblue" stroke="midnightblue" points="248.047,-25.1028 257.072,-19.5522 246.555,-18.2636 248.047,-25.1028"/>
</g>
<!-- Node5 -->
<g id="node5" class="node"><title>Node5</title>
<g id="a_node5"><a xlink:href="../../d1/de0/class_backend_1_1_turtle.html#a33957258db9a7205d470c5a2d22b89af" target="_top" xlink:title="Backend.Turtle.getLocation">
<polygon fill="white" stroke="black" points="454,-57.5 454,-76.5 600,-76.5 600,-57.5 454,-57.5"/>
<text text-anchor="middle" x="527" y="-64.5" font-family="Helvetica,sans-Serif" font-size="10.00">Backend.Turtle.getLocation</text>
</a>
</g>
</g>
<!-- Node4&#45;&gt;Node5 -->
<g id="edge4" class="edge"><title>Node4&#45;&gt;Node5</title>
<path fill="none" stroke="midnightblue" d="M385.746,-79.936C404.196,-78.2344 424.489,-76.3627 443.769,-74.5845"/>
<polygon fill="midnightblue" stroke="midnightblue" points="444.107,-78.0682 453.743,-73.6645 443.464,-71.0978 444.107,-78.0682"/>
</g>
<!-- Node6&#45;&gt;Node5 -->
<g id="edge6" class="edge"><title>Node6&#45;&gt;Node5</title>
<path fill="none" stroke="midnightblue" d="M385.18,-54.0117C403.749,-55.7245 424.224,-57.6129 443.673,-59.4067"/>
<polygon fill="midnightblue" stroke="midnightblue" points="443.455,-62.9014 453.734,-60.3347 444.098,-55.931 443.455,-62.9014"/>
</g>
</g>
</svg>
