<?xml version="1.0" encoding="UTF-8" standalone="no"?>
<!DOCTYPE svg PUBLIC "-//W3C//DTD SVG 1.1//EN"
 "http://www.w3.org/Graphics/SVG/1.1/DTD/svg11.dtd">
<!-- Generated by graphviz version 2.36.0 (20140111.2315)
 -->
<!-- Title: TurtleView.TurtleInformation.update Pages: 1 -->
<svg width="1142pt" height="327pt"
 viewBox="0.00 0.00 1142.00 327.00" xmlns="http://www.w3.org/2000/svg" xmlns:xlink="http://www.w3.org/1999/xlink">
<g id="graph0" class="graph" transform="scale(1 1) rotate(0) translate(4 323)">
<title>TurtleView.TurtleInformation.update</title>
<polygon fill="white" stroke="none" points="-4,4 -4,-323 1138,-323 1138,4 -4,4"/>
<!-- Node1 -->
<g id="node1" class="node"><title>Node1</title>
<polygon fill="#bfbfbf" stroke="black" points="0.5,-108.5 0.5,-127.5 183.5,-127.5 183.5,-108.5 0.5,-108.5"/>
<text text-anchor="middle" x="92" y="-115.5" font-family="Helvetica,sans-Serif" font-size="10.00">TurtleView.TurtleInformation.update</text>
</g>
<!-- Node2 -->
<g id="node2" class="node"><title>Node2</title>
<g id="a_node2"><a xlink:href="../../d9/d38/class_turtle_view_1_1_turtle_information.html#a3a64e1f1313c0c4f30a93c1fcc5f36c1" target="_top" xlink:title="TurtleView.TurtleInformation.change\lTurtle">
<polygon fill="white" stroke="black" points="220.5,-186 220.5,-216 405.5,-216 405.5,-186 220.5,-186"/>
<text text-anchor="start" x="228.5" y="-204" font-family="Helvetica,sans-Serif" font-size="10.00">TurtleView.TurtleInformation.change</text>
<text text-anchor="middle" x="313" y="-193" font-family="Helvetica,sans-Serif" font-size="10.00">Turtle</text>
</a>
</g>
</g>
<!-- Node1&#45;&gt;Node2 -->
<g id="edge1" class="edge"><title>Node1&#45;&gt;Node2</title>
<path fill="none" stroke="midnightblue" d="M127.562,-131.099C166.911,-146.012 231.074,-170.329 272.404,-185.993"/>
<polygon fill="midnightblue" stroke="midnightblue" points="128.713,-127.792 118.122,-127.521 126.233,-134.338 128.713,-127.792"/>
</g>
<!-- Node9 -->
<g id="node9" class="node"><title>Node9</title>
<g id="a_node9"><a xlink:href="../../d1/de0/class_backend_1_1_turtle.html#a94cbed3c9c0c33e1ea8e8b3c51c26c73" target="_top" xlink:title="Backend.Turtle.move">
<polygon fill="white" stroke="black" points="255,-108.5 255,-127.5 371,-127.5 371,-108.5 255,-108.5"/>
<text text-anchor="middle" x="313" y="-115.5" font-family="Helvetica,sans-Serif" font-size="10.00">Backend.Turtle.move</text>
</a>
</g>
</g>
<!-- Node1&#45;&gt;Node9 -->
<g id="edge9" class="edge"><title>Node1&#45;&gt;Node9</title>
<path fill="none" stroke="midnightblue" d="M193.894,-118C214.846,-118 236.221,-118 254.924,-118"/>
<polygon fill="midnightblue" stroke="midnightblue" points="193.657,-114.5 183.657,-118 193.656,-121.5 193.657,-114.5"/>
</g>
<!-- Node16 -->
<g id="node16" class="node"><title>Node16</title>
<g id="a_node16"><a xlink:href="../../df/dec/class_front_end_1_1_view.html#afa6c660ce1c2e6493f471b5344638d5b" target="_top" xlink:title="FrontEnd.View.updateTurtleInfo">
<polygon fill="white" stroke="black" points="232,-51.5 232,-70.5 394,-70.5 394,-51.5 232,-51.5"/>
<text text-anchor="middle" x="313" y="-58.5" font-family="Helvetica,sans-Serif" font-size="10.00">FrontEnd.View.updateTurtleInfo</text>
</a>
</g>
</g>
<!-- Node1&#45;&gt;Node16 -->
<g id="edge16" class="edge"><title>Node1&#45;&gt;Node16</title>
<path fill="none" stroke="midnightblue" d="M139.551,-105.884C180.039,-95.3461 237.913,-80.283 275.225,-70.5716"/>
<polygon fill="midnightblue" stroke="midnightblue" points="138.452,-102.553 129.656,-108.459 140.215,-109.328 138.452,-102.553"/>
</g>
<!-- Node3 -->
<g id="node3" class="node"><title>Node3</title>
<g id="a_node3"><a xlink:href="../../d4/d8a/class_turtle_view_1_1_turtle_window.html#a55f7ffa346d2ced8f9e831efc900d0c0" target="_top" xlink:title="TurtleView.TurtleWindow.click">
<polygon fill="white" stroke="black" points="443.5,-250.5 443.5,-269.5 592.5,-269.5 592.5,-250.5 443.5,-250.5"/>
<text text-anchor="middle" x="518" y="-257.5" font-family="Helvetica,sans-Serif" font-size="10.00">TurtleView.TurtleWindow.click</text>
</a>
</g>
</g>
<!-- Node2&#45;&gt;Node3 -->
<g id="edge2" class="edge"><title>Node2&#45;&gt;Node3</title>
<path fill="none" stroke="midnightblue" d="M375.596,-218.902C411.302,-229.28 454.845,-241.935 484.098,-250.437"/>
<polygon fill="midnightblue" stroke="midnightblue" points="376.33,-215.471 365.751,-216.041 374.377,-222.193 376.33,-215.471"/>
</g>
<!-- Node8 -->
<g id="node8" class="node"><title>Node8</title>
<g id="a_node8"><a xlink:href="../../d9/d38/class_turtle_view_1_1_turtle_information.html#a9358bcce384b1f845cdf75190c4072e7" target="_top" xlink:title="TurtleView.TurtleInformation.\lTurtleInformation">
<polygon fill="white" stroke="black" points="443.5,-186 443.5,-216 592.5,-216 592.5,-186 443.5,-186"/>
<text text-anchor="start" x="451.5" y="-204" font-family="Helvetica,sans-Serif" font-size="10.00">TurtleView.TurtleInformation.</text>
<text text-anchor="middle" x="518" y="-193" font-family="Helvetica,sans-Serif" font-size="10.00">TurtleInformation</text>
</a>
</g>
</g>
<!-- Node2&#45;&gt;Node8 -->
<g id="edge8" class="edge"><title>Node2&#45;&gt;Node8</title>
<path fill="none" stroke="midnightblue" d="M415.776,-201C425.074,-201 434.369,-201 443.349,-201"/>
<polygon fill="midnightblue" stroke="midnightblue" points="415.701,-197.5 405.701,-201 415.701,-204.5 415.701,-197.5"/>
</g>
<!-- Node4 -->
<g id="node4" class="node"><title>Node4</title>
<g id="a_node4"><a xlink:href="../../d4/d8a/class_turtle_view_1_1_turtle_window.html#a82959fc46f81f3a875e126b5ecd6325d" target="_top" xlink:title="TurtleView.TurtleWindow.\lTurtleWindow">
<polygon fill="white" stroke="black" points="853.5,-289 853.5,-319 982.5,-319 982.5,-289 853.5,-289"/>
<text text-anchor="start" x="861.5" y="-307" font-family="Helvetica,sans-Serif" font-size="10.00">TurtleView.TurtleWindow.</text>
<text text-anchor="middle" x="918" y="-296" font-family="Helvetica,sans-Serif" font-size="10.00">TurtleWindow</text>
</a>
</g>
</g>
<!-- Node3&#45;&gt;Node4 -->
<g id="edge3" class="edge"><title>Node3&#45;&gt;Node4</title>
<path fill="none" stroke="midnightblue" d="M566.415,-271.818C585.987,-276.287 608.973,-281.01 630,-284 706.4,-294.864 795.117,-299.9 853.457,-302.185"/>
<polygon fill="midnightblue" stroke="midnightblue" points="567.053,-268.373 556.52,-269.515 565.466,-275.191 567.053,-268.373"/>
</g>
<!-- Node5 -->
<g id="node5" class="node"><title>Node5</title>
<g id="a_node5"><a xlink:href="../../d4/d8a/class_turtle_view_1_1_turtle_window.html#ab6961d80a7e356af4e9206478608ed40" target="_top" xlink:title="TurtleView.TurtleWindow.make\lTurtle">
<polygon fill="white" stroke="black" points="642,-245 642,-275 798,-275 798,-245 642,-245"/>
<text text-anchor="start" x="650" y="-263" font-family="Helvetica,sans-Serif" font-size="10.00">TurtleView.TurtleWindow.make</text>
<text text-anchor="middle" x="720" y="-252" font-family="Helvetica,sans-Serif" font-size="10.00">Turtle</text>
</a>
</g>
</g>
<!-- Node3&#45;&gt;Node5 -->
<g id="edge4" class="edge"><title>Node3&#45;&gt;Node5</title>
<path fill="none" stroke="midnightblue" d="M602.883,-260C615.799,-260 629.084,-260 641.845,-260"/>
<polygon fill="midnightblue" stroke="midnightblue" points="602.621,-256.5 592.621,-260 602.621,-263.5 602.621,-256.5"/>
</g>
<!-- Node5&#45;&gt;Node4 -->
<g id="edge7" class="edge"><title>Node5&#45;&gt;Node4</title>
<path fill="none" stroke="midnightblue" d="M797.719,-277.223C816.142,-281.358 835.62,-285.731 853.374,-289.717"/>
<polygon fill="midnightblue" stroke="midnightblue" points="798.428,-273.795 787.904,-275.019 796.894,-280.625 798.428,-273.795"/>
</g>
<!-- Node6 -->
<g id="node6" class="node"><title>Node6</title>
<g id="a_node6"><a xlink:href="../../df/dec/class_front_end_1_1_view.html#affad60393f506692d02f9dc2525780d2" target="_top" xlink:title="FrontEnd.View.makeTurtle\lButton">
<polygon fill="white" stroke="black" points="849,-240 849,-270 987,-270 987,-240 849,-240"/>
<text text-anchor="start" x="857" y="-258" font-family="Helvetica,sans-Serif" font-size="10.00">FrontEnd.View.makeTurtle</text>
<text text-anchor="middle" x="918" y="-247" font-family="Helvetica,sans-Serif" font-size="10.00">Button</text>
</a>
</g>
</g>
<!-- Node5&#45;&gt;Node6 -->
<g id="edge5" class="edge"><title>Node5&#45;&gt;Node6</title>
<path fill="none" stroke="midnightblue" d="M808.454,-257.769C821.977,-257.424 835.771,-257.072 848.79,-256.74"/>
<polygon fill="midnightblue" stroke="midnightblue" points="808.09,-254.277 798.183,-258.031 808.269,-261.275 808.09,-254.277"/>
</g>
<!-- Node7 -->
<g id="node7" class="node"><title>Node7</title>
<g id="a_node7"><a xlink:href="../../df/dec/class_front_end_1_1_view.html#a079d7e899ded516b169dc6e66da79e1e" target="_top" xlink:title="FrontEnd.View.View">
<polygon fill="white" stroke="black" points="1026.5,-245.5 1026.5,-264.5 1133.5,-264.5 1133.5,-245.5 1026.5,-245.5"/>
<text text-anchor="middle" x="1080" y="-252.5" font-family="Helvetica,sans-Serif" font-size="10.00">FrontEnd.View.View</text>
</a>
</g>
</g>
<!-- Node6&#45;&gt;Node7 -->
<g id="edge6" class="edge"><title>Node6&#45;&gt;Node7</title>
<path fill="none" stroke="midnightblue" d="M997.495,-255C1007.3,-255 1017.13,-255 1026.4,-255"/>
<polygon fill="midnightblue" stroke="midnightblue" points="997.319,-251.5 987.319,-255 997.318,-258.5 997.319,-251.5"/>
</g>
<!-- Node10 -->
<g id="node10" class="node"><title>Node10</title>
<g id="a_node10"><a xlink:href="../../d1/de0/class_backend_1_1_turtle.html#ad5f5520cb6970723e121a8d17f2c0a5c" target="_top" xlink:title="Backend.Turtle.addLocation">
<polygon fill="white" stroke="black" points="444,-118.5 444,-137.5 592,-137.5 592,-118.5 444,-118.5"/>
<text text-anchor="middle" x="518" y="-125.5" font-family="Helvetica,sans-Serif" font-size="10.00">Backend.Turtle.addLocation</text>
</a>
</g>
</g>
<!-- Node9&#45;&gt;Node10 -->
<g id="edge10" class="edge"><title>Node9&#45;&gt;Node10</title>
<path fill="none" stroke="midnightblue" d="M381.334,-121.317C401.316,-122.301 423.297,-123.384 443.641,-124.386"/>
<polygon fill="midnightblue" stroke="midnightblue" points="381.247,-117.809 371.087,-120.812 380.903,-124.8 381.247,-117.809"/>
</g>
<!-- Node15 -->
<g id="node15" class="node"><title>Node15</title>
<g id="a_node15"><a xlink:href="../../d1/de0/class_backend_1_1_turtle.html#a98cc72272199855ddfd7588b23bb5a4f" target="_top" xlink:title="Backend.Turtle.Turtle">
<polygon fill="white" stroke="black" points="460.5,-80.5 460.5,-99.5 575.5,-99.5 575.5,-80.5 460.5,-80.5"/>
<text text-anchor="middle" x="518" y="-87.5" font-family="Helvetica,sans-Serif" font-size="10.00">Backend.Turtle.Turtle</text>
</a>
</g>
</g>
<!-- Node9&#45;&gt;Node15 -->
<g id="edge15" class="edge"><title>Node9&#45;&gt;Node15</title>
<path fill="none" stroke="midnightblue" d="M381.111,-108.743C406.769,-105.204 435.753,-101.207 460.341,-97.815"/>
<polygon fill="midnightblue" stroke="midnightblue" points="380.515,-105.292 371.087,-110.126 381.472,-112.227 380.515,-105.292"/>
</g>
<!-- Node11 -->
<g id="node11" class="node"><title>Node11</title>
<g id="a_node11"><a xlink:href="../../dc/db0/class_nodes_1_1turtlecommands_1_1_backward_node.html#a8ebd60d8ab28acb66aef1fd9ba59d5c7" target="_top" xlink:title="Nodes.turtlecommands.Backward\lNode.update">
<polygon fill="white" stroke="black" points="630.5,-196 630.5,-226 809.5,-226 809.5,-196 630.5,-196"/>
<text text-anchor="start" x="638.5" y="-214" font-family="Helvetica,sans-Serif" font-size="10.00">Nodes.turtlecommands.Backward</text>
<text text-anchor="middle" x="720" y="-203" font-family="Helvetica,sans-Serif" font-size="10.00">Node.update</text>
</a>
</g>
</g>
<!-- Node10&#45;&gt;Node11 -->
<g id="edge11" class="edge"><title>Node10&#45;&gt;Node11</title>
<path fill="none" stroke="midnightblue" d="M543.376,-142.623C565.414,-155.381 599.052,-173.723 630,-186 639.1,-189.61 648.917,-192.919 658.592,-195.866"/>
<polygon fill="midnightblue" stroke="midnightblue" points="545.081,-139.565 534.683,-137.531 541.542,-145.606 545.081,-139.565"/>
</g>
<!-- Node12 -->
<g id="node12" class="node"><title>Node12</title>
<g id="a_node12"><a xlink:href="../../d4/dd2/class_nodes_1_1turtlecommands_1_1_home_node.html#ab3bbeb66894a4c93c40e651457efe097" target="_top" xlink:title="Nodes.turtlecommands.Home\lNode.update">
<polygon fill="white" stroke="black" points="639,-147 639,-177 801,-177 801,-147 639,-147"/>
<text text-anchor="start" x="647" y="-165" font-family="Helvetica,sans-Serif" font-size="10.00">Nodes.turtlecommands.Home</text>
<text text-anchor="middle" x="720" y="-154" font-family="Helvetica,sans-Serif" font-size="10.00">Node.update</text>
</a>
</g>
</g>
<!-- Node10&#45;&gt;Node12 -->
<g id="edge12" class="edge"><title>Node10&#45;&gt;Node12</title>
<path fill="none" stroke="midnightblue" d="M584.916,-139.206C602.129,-142.132 620.871,-145.318 638.738,-148.355"/>
<polygon fill="midnightblue" stroke="midnightblue" points="585.422,-135.742 574.977,-137.516 584.249,-142.643 585.422,-135.742"/>
</g>
<!-- Node13 -->
<g id="node13" class="node"><title>Node13</title>
<g id="a_node13"><a xlink:href="../../d1/dd7/class_nodes_1_1turtlecommands_1_1_set_position_node.html#a5c752365147093605e4591ecbd0ededd" target="_top" xlink:title="Nodes.turtlecommands.Set\lPositionNode.update">
<polygon fill="white" stroke="black" points="645.5,-98 645.5,-128 794.5,-128 794.5,-98 645.5,-98"/>
<text text-anchor="start" x="653.5" y="-116" font-family="Helvetica,sans-Serif" font-size="10.00">Nodes.turtlecommands.Set</text>
<text text-anchor="middle" x="720" y="-105" font-family="Helvetica,sans-Serif" font-size="10.00">PositionNode.update</text>
</a>
</g>
</g>
<!-- Node10&#45;&gt;Node13 -->
<g id="edge13" class="edge"><title>Node10&#45;&gt;Node13</title>
<path fill="none" stroke="midnightblue" d="M602.371,-121.747C616.677,-120.674 631.45,-119.566 645.475,-118.514"/>
<polygon fill="midnightblue" stroke="midnightblue" points="601.764,-118.283 592.054,-122.521 602.287,-125.263 601.764,-118.283"/>
</g>
<!-- Node14 -->
<g id="node14" class="node"><title>Node14</title>
<g id="a_node14"><a xlink:href="../../d8/ddb/class_nodes_1_1turtlecommands_1_1_forward_node.html#a4c29ece57a41db2da90359e0193fcb04" target="_top" xlink:title="Nodes.turtlecommands.Forward\lNode.update">
<polygon fill="white" stroke="black" points="635,-49 635,-79 805,-79 805,-49 635,-49"/>
<text text-anchor="start" x="643" y="-67" font-family="Helvetica,sans-Serif" font-size="10.00">Nodes.turtlecommands.Forward</text>
<text text-anchor="middle" x="720" y="-56" font-family="Helvetica,sans-Serif" font-size="10.00">Node.update</text>
</a>
</g>
</g>
<!-- Node10&#45;&gt;Node14 -->
<g id="edge14" class="edge"><title>Node10&#45;&gt;Node14</title>
<path fill="none" stroke="midnightblue" d="M575.297,-115.574C581.69,-113.624 588.044,-111.435 594,-109 611.146,-101.99 612.908,-95.1405 630,-88 637.974,-84.6687 646.544,-81.6749 655.104,-79.0245"/>
<polygon fill="midnightblue" stroke="midnightblue" points="573.921,-112.327 565.268,-118.442 575.845,-119.057 573.921,-112.327"/>
</g>
<!-- Node17 -->
<g id="node17" class="node"><title>Node17</title>
<g id="a_node17"><a xlink:href="../../dd/d2e/class_front_end_1_1_controller.html#a0ad45a00bc5c4475d3b1c6a4dbf74a91" target="_top" xlink:title="FrontEnd.Controller.interpret">
<polygon fill="white" stroke="black" points="442,-42.5 442,-61.5 594,-61.5 594,-42.5 442,-42.5"/>
<text text-anchor="middle" x="518" y="-49.5" font-family="Helvetica,sans-Serif" font-size="10.00">FrontEnd.Controller.interpret</text>
</a>
</g>
</g>
<!-- Node16&#45;&gt;Node17 -->
<g id="edge17" class="edge"><title>Node16&#45;&gt;Node17</title>
<path fill="none" stroke="midnightblue" d="M404.27,-56.9979C416.869,-56.4393 429.701,-55.8704 441.978,-55.3261"/>
<polygon fill="midnightblue" stroke="midnightblue" points="404.066,-53.5034 394.231,-57.443 404.376,-60.4965 404.066,-53.5034"/>
</g>
<!-- Node18 -->
<g id="node18" class="node"><title>Node18</title>
<g id="a_node18"><a xlink:href="../../dd/d2e/class_front_end_1_1_controller.html#a41885f349a8f334750e26d685a8981d2" target="_top" xlink:title="FrontEnd.Controller.execute\lCommand">
<polygon fill="white" stroke="black" points="645.5,-0 645.5,-30 794.5,-30 794.5,-0 645.5,-0"/>
<text text-anchor="start" x="653.5" y="-18" font-family="Helvetica,sans-Serif" font-size="10.00">FrontEnd.Controller.execute</text>
<text text-anchor="middle" x="720" y="-7" font-family="Helvetica,sans-Serif" font-size="10.00">Command</text>
</a>
</g>
</g>
<!-- Node17&#45;&gt;Node18 -->
<g id="edge18" class="edge"><title>Node17&#45;&gt;Node18</title>
<path fill="none" stroke="midnightblue" d="M580.368,-40.6468C600.92,-36.8448 624.044,-32.5669 645.43,-28.6104"/>
<polygon fill="midnightblue" stroke="midnightblue" points="579.701,-37.2108 570.505,-42.4716 580.975,-44.094 579.701,-37.2108"/>
</g>
<!-- Node19 -->
<g id="node19" class="node"><title>Node19</title>
<g id="a_node19"><a xlink:href="../../dd/d2e/class_front_end_1_1_controller.html#a29be9ff259428dbe97eebe3ec9a13ac5" target="_top" xlink:title="FrontEnd.Controller.update">
<polygon fill="white" stroke="black" points="846,-5.5 846,-24.5 990,-24.5 990,-5.5 846,-5.5"/>
<text text-anchor="middle" x="918" y="-12.5" font-family="Helvetica,sans-Serif" font-size="10.00">FrontEnd.Controller.update</text>
</a>
</g>
</g>
<!-- Node18&#45;&gt;Node19 -->
<g id="edge19" class="edge"><title>Node18&#45;&gt;Node19</title>
<path fill="none" stroke="midnightblue" d="M804.91,-15C818.589,-15 832.641,-15 845.972,-15"/>
<polygon fill="midnightblue" stroke="midnightblue" points="804.541,-11.5001 794.541,-15 804.541,-18.5001 804.541,-11.5001"/>
</g>
</g>
</svg>
