<?xml version="1.0" encoding="UTF-8" standalone="no"?>
<!DOCTYPE svg PUBLIC "-//W3C//DTD SVG 1.1//EN"
 "http://www.w3.org/Graphics/SVG/1.1/DTD/svg11.dtd">
<!-- Generated by graphviz version 2.36.0 (20140111.2315)
 -->
<!-- Title: FrontEnd.UserVariablesStorage Pages: 1 -->
<svg width="253pt" height="96pt"
 viewBox="0.00 0.00 253.00 96.00" xmlns="http://www.w3.org/2000/svg" xmlns:xlink="http://www.w3.org/1999/xlink">
<g id="graph0" class="graph" transform="scale(1 1) rotate(0) translate(4 92)">
<title>FrontEnd.UserVariablesStorage</title>
<polygon fill="white" stroke="none" points="-4,4 -4,-92 249,-92 249,4 -4,4"/>
<!-- Node1 -->
<g id="node1" class="node"><title>Node1</title>
<polygon fill="#bfbfbf" stroke="black" points="31,-0.5 31,-19.5 197,-19.5 197,-0.5 31,-0.5"/>
<text text-anchor="middle" x="114" y="-7.5" font-family="Helvetica,sans-Serif" font-size="10.00">FrontEnd.UserVariablesStorage</text>
</g>
<!-- Node2 -->
<g id="node2" class="node"><title>Node2</title>
<polygon fill="white" stroke="#bfbfbf" points="0,-68.5 0,-87.5 84,-87.5 84,-68.5 0,-68.5"/>
<text text-anchor="middle" x="42" y="-75.5" font-family="Helvetica,sans-Serif" font-size="10.00">List&lt; String &gt;</text>
</g>
<!-- Node2&#45;&gt;Node1 -->
<g id="edge1" class="edge"><title>Node2&#45;&gt;Node1</title>
<path fill="none" stroke="#9a32cd" stroke-dasharray="5,2" d="M38.3414,-58.357C37.9809,-51.4059 38.888,-43.8024 43,-38 49.1,-29.3922 58.3211,-23.5276 68.1169,-19.5323"/>
<polygon fill="#9a32cd" stroke="#9a32cd" points="34.8877,-58.9377 39.673,-68.3903 41.8269,-58.0167 34.8877,-58.9377"/>
<text text-anchor="middle" x="103.5" y="-41.5" font-family="Helvetica,sans-Serif" font-size="10.00"> MY_DEFAULT_VARIABLES</text>
</g>
<!-- Node3 -->
<g id="node3" class="node"><title>Node3</title>
<polygon fill="white" stroke="#bfbfbf" points="126,-68.5 126,-87.5 246,-87.5 246,-68.5 126,-68.5"/>
<text text-anchor="middle" x="186" y="-75.5" font-family="Helvetica,sans-Serif" font-size="10.00">ComboBox&lt; String &gt;</text>
</g>
<!-- Node3&#45;&gt;Node1 -->
<g id="edge2" class="edge"><title>Node3&#45;&gt;Node1</title>
<path fill="none" stroke="#9a32cd" stroke-dasharray="5,2" d="M178.4,-58.7653C174.798,-51.669 169.964,-43.8544 164,-38 156.115,-30.2596 145.559,-24.124 136.179,-19.6707"/>
<polygon fill="#9a32cd" stroke="#9a32cd" points="175.437,-60.7019 182.784,-68.3362 181.802,-57.7869 175.437,-60.7019"/>
<text text-anchor="middle" x="209.5" y="-41.5" font-family="Helvetica,sans-Serif" font-size="10.00"> myComboBox</text>
</g>
</g>
</svg>
