<?xml version="1.0" encoding="UTF-8" standalone="no"?>
<!DOCTYPE svg PUBLIC "-//W3C//DTD SVG 1.1//EN"
 "http://www.w3.org/Graphics/SVG/1.1/DTD/svg11.dtd">
<!-- Generated by graphviz version 2.36.0 (20140111.2315)
 -->
<!-- Title: TurtleView.ActiveRing.update Pages: 1 -->
<svg width="712pt" height="185pt"
 viewBox="0.00 0.00 712.00 185.00" xmlns="http://www.w3.org/2000/svg" xmlns:xlink="http://www.w3.org/1999/xlink">
<g id="graph0" class="graph" transform="scale(1 1) rotate(0) translate(4 181)">
<title>TurtleView.ActiveRing.update</title>
<polygon fill="white" stroke="none" points="-4,4 -4,-181 708,-181 708,4 -4,4"/>
<!-- Node1 -->
<g id="node1" class="node"><title>Node1</title>
<polygon fill="#bfbfbf" stroke="black" points="0,-59.5 0,-78.5 152,-78.5 152,-59.5 0,-59.5"/>
<text text-anchor="middle" x="76" y="-66.5" font-family="Helvetica,sans-Serif" font-size="10.00">TurtleView.ActiveRing.update</text>
</g>
<!-- Node2 -->
<g id="node2" class="node"><title>Node2</title>
<g id="a_node2"><a xlink:href="../../d1/de0/class_backend_1_1_turtle.html#a94cbed3c9c0c33e1ea8e8b3c51c26c73" target="_top" xlink:title="Backend.Turtle.move">
<polygon fill="white" stroke="black" points="188,-59.5 188,-78.5 304,-78.5 304,-59.5 188,-59.5"/>
<text text-anchor="middle" x="246" y="-66.5" font-family="Helvetica,sans-Serif" font-size="10.00">Backend.Turtle.move</text>
</a>
</g>
</g>
<!-- Node1&#45;&gt;Node2 -->
<g id="edge1" class="edge"><title>Node1&#45;&gt;Node2</title>
<path fill="none" stroke="midnightblue" d="M162.29,-69C170.934,-69 179.561,-69 187.802,-69"/>
<polygon fill="midnightblue" stroke="midnightblue" points="162.155,-65.5001 152.155,-69 162.155,-72.5001 162.155,-65.5001"/>
</g>
<!-- Node3 -->
<g id="node3" class="node"><title>Node3</title>
<g id="a_node3"><a xlink:href="../../d1/de0/class_backend_1_1_turtle.html#ad5f5520cb6970723e121a8d17f2c0a5c" target="_top" xlink:title="Backend.Turtle.addLocation">
<polygon fill="white" stroke="black" points="340,-78.5 340,-97.5 488,-97.5 488,-78.5 340,-78.5"/>
<text text-anchor="middle" x="414" y="-85.5" font-family="Helvetica,sans-Serif" font-size="10.00">Backend.Turtle.addLocation</text>
</a>
</g>
</g>
<!-- Node2&#45;&gt;Node3 -->
<g id="edge2" class="edge"><title>Node2&#45;&gt;Node3</title>
<path fill="none" stroke="midnightblue" d="M314.292,-76.7021C322.737,-77.6687 331.407,-78.6611 339.935,-79.6372"/>
<polygon fill="midnightblue" stroke="midnightblue" points="314.461,-73.1987 304.128,-75.5387 313.665,-80.1533 314.461,-73.1987"/>
</g>
<!-- Node8 -->
<g id="node8" class="node"><title>Node8</title>
<g id="a_node8"><a xlink:href="../../d1/de0/class_backend_1_1_turtle.html#a98cc72272199855ddfd7588b23bb5a4f" target="_top" xlink:title="Backend.Turtle.Turtle">
<polygon fill="white" stroke="black" points="356.5,-40.5 356.5,-59.5 471.5,-59.5 471.5,-40.5 356.5,-40.5"/>
<text text-anchor="middle" x="414" y="-47.5" font-family="Helvetica,sans-Serif" font-size="10.00">Backend.Turtle.Turtle</text>
</a>
</g>
</g>
<!-- Node2&#45;&gt;Node8 -->
<g id="edge7" class="edge"><title>Node2&#45;&gt;Node8</title>
<path fill="none" stroke="midnightblue" d="M314.177,-61.3111C328.161,-59.7104 342.768,-58.0386 356.329,-56.4864"/>
<polygon fill="midnightblue" stroke="midnightblue" points="313.665,-57.8467 304.128,-62.4613 314.461,-64.8013 313.665,-57.8467"/>
</g>
<!-- Node4 -->
<g id="node4" class="node"><title>Node4</title>
<g id="a_node4"><a xlink:href="../../dc/db0/class_nodes_1_1turtlecommands_1_1_backward_node.html#a8ebd60d8ab28acb66aef1fd9ba59d5c7" target="_top" xlink:title="Nodes.turtlecommands.Backward\lNode.update">
<polygon fill="white" stroke="black" points="524.5,-147 524.5,-177 703.5,-177 703.5,-147 524.5,-147"/>
<text text-anchor="start" x="532.5" y="-165" font-family="Helvetica,sans-Serif" font-size="10.00">Nodes.turtlecommands.Backward</text>
<text text-anchor="middle" x="614" y="-154" font-family="Helvetica,sans-Serif" font-size="10.00">Node.update</text>
</a>
</g>
</g>
<!-- Node3&#45;&gt;Node4 -->
<g id="edge3" class="edge"><title>Node3&#45;&gt;Node4</title>
<path fill="none" stroke="midnightblue" d="M442.936,-101.946C464.679,-112.458 495.798,-126.764 524,-137 533.806,-140.559 544.37,-143.923 554.675,-146.96"/>
<polygon fill="midnightblue" stroke="midnightblue" points="444.461,-98.7955 433.939,-97.5535 441.39,-105.086 444.461,-98.7955"/>
</g>
<!-- Node5 -->
<g id="node5" class="node"><title>Node5</title>
<g id="a_node5"><a xlink:href="../../d4/dd2/class_nodes_1_1turtlecommands_1_1_home_node.html#ab3bbeb66894a4c93c40e651457efe097" target="_top" xlink:title="Nodes.turtlecommands.Home\lNode.update">
<polygon fill="white" stroke="black" points="533,-98 533,-128 695,-128 695,-98 533,-98"/>
<text text-anchor="start" x="541" y="-116" font-family="Helvetica,sans-Serif" font-size="10.00">Nodes.turtlecommands.Home</text>
<text text-anchor="middle" x="614" y="-105" font-family="Helvetica,sans-Serif" font-size="10.00">Node.update</text>
</a>
</g>
</g>
<!-- Node3&#45;&gt;Node5 -->
<g id="edge4" class="edge"><title>Node3&#45;&gt;Node5</title>
<path fill="none" stroke="midnightblue" d="M498.156,-98.4995C509.628,-99.948 521.392,-101.433 532.809,-102.875"/>
<polygon fill="midnightblue" stroke="midnightblue" points="498.525,-95.0184 488.165,-97.238 497.648,-101.963 498.525,-95.0184"/>
</g>
<!-- Node6 -->
<g id="node6" class="node"><title>Node6</title>
<g id="a_node6"><a xlink:href="../../d1/dd7/class_nodes_1_1turtlecommands_1_1_set_position_node.html#a5c752365147093605e4591ecbd0ededd" target="_top" xlink:title="Nodes.turtlecommands.Set\lPositionNode.update">
<polygon fill="white" stroke="black" points="539.5,-49 539.5,-79 688.5,-79 688.5,-49 539.5,-49"/>
<text text-anchor="start" x="547.5" y="-67" font-family="Helvetica,sans-Serif" font-size="10.00">Nodes.turtlecommands.Set</text>
<text text-anchor="middle" x="614" y="-56" font-family="Helvetica,sans-Serif" font-size="10.00">PositionNode.update</text>
</a>
</g>
</g>
<!-- Node3&#45;&gt;Node6 -->
<g id="edge5" class="edge"><title>Node3&#45;&gt;Node6</title>
<path fill="none" stroke="midnightblue" d="M498.483,-77.8809C512.1,-76.2303 526.119,-74.531 539.474,-72.9122"/>
<polygon fill="midnightblue" stroke="midnightblue" points="497.671,-74.4535 488.165,-79.1315 498.514,-81.4026 497.671,-74.4535"/>
</g>
<!-- Node7 -->
<g id="node7" class="node"><title>Node7</title>
<g id="a_node7"><a xlink:href="../../d8/ddb/class_nodes_1_1turtlecommands_1_1_forward_node.html#a4c29ece57a41db2da90359e0193fcb04" target="_top" xlink:title="Nodes.turtlecommands.Forward\lNode.update">
<polygon fill="white" stroke="black" points="529,-0 529,-30 699,-30 699,-0 529,-0"/>
<text text-anchor="start" x="537" y="-18" font-family="Helvetica,sans-Serif" font-size="10.00">Nodes.turtlecommands.Forward</text>
<text text-anchor="middle" x="614" y="-7" font-family="Helvetica,sans-Serif" font-size="10.00">Node.update</text>
</a>
</g>
</g>
<!-- Node3&#45;&gt;Node7 -->
<g id="edge6" class="edge"><title>Node3&#45;&gt;Node7</title>
<path fill="none" stroke="midnightblue" d="M473.367,-75.2233C478.42,-73.3979 483.367,-71.3324 488,-69 506.351,-59.7617 505.738,-49.4142 524,-40 531.418,-36.1759 539.495,-32.8739 547.656,-30.0396"/>
<polygon fill="midnightblue" stroke="midnightblue" points="471.98,-71.995 463.574,-78.4446 474.167,-78.6445 471.98,-71.995"/>
</g>
</g>
</svg>
