<?xml version="1.0" encoding="UTF-8" standalone="no"?>
<!DOCTYPE svg PUBLIC "-//W3C//DTD SVG 1.1//EN"
 "http://www.w3.org/Graphics/SVG/1.1/DTD/svg11.dtd">
<!-- Generated by graphviz version 2.36.0 (20140111.2315)
 -->
<!-- Title: Backend.Parser.convert Pages: 1 -->
<svg width="1020pt" height="38pt"
 viewBox="0.00 0.00 1020.00 38.00" xmlns="http://www.w3.org/2000/svg" xmlns:xlink="http://www.w3.org/1999/xlink">
<g id="graph0" class="graph" transform="scale(1 1) rotate(0) translate(4 34)">
<title>Backend.Parser.convert</title>
<polygon fill="white" stroke="none" points="-4,4 -4,-34 1016,-34 1016,4 -4,4"/>
<!-- Node1 -->
<g id="node1" class="node"><title>Node1</title>
<polygon fill="#bfbfbf" stroke="black" points="0.5,-5.5 0.5,-24.5 129.5,-24.5 129.5,-5.5 0.5,-5.5"/>
<text text-anchor="middle" x="65" y="-12.5" font-family="Helvetica,sans-Serif" font-size="10.00">Backend.Parser.convert</text>
</g>
<!-- Node2 -->
<g id="node2" class="node"><title>Node2</title>
<g id="a_node2"><a xlink:href="../../da/de9/class_backend_1_1_parser.html#a3fc5e64b991a86b2efc668961650202e" target="_top" xlink:title="Backend.Parser.newInfo">
<polygon fill="white" stroke="black" points="166.5,-5.5 166.5,-24.5 295.5,-24.5 295.5,-5.5 166.5,-5.5"/>
<text text-anchor="middle" x="231" y="-12.5" font-family="Helvetica,sans-Serif" font-size="10.00">Backend.Parser.newInfo</text>
</a>
</g>
</g>
<!-- Node1&#45;&gt;Node2 -->
<g id="edge1" class="edge"><title>Node1&#45;&gt;Node2</title>
<path fill="none" stroke="midnightblue" d="M140.073,-15C148.828,-15 157.704,-15 166.298,-15"/>
<polygon fill="midnightblue" stroke="midnightblue" points="139.876,-11.5001 129.876,-15 139.876,-18.5001 139.876,-11.5001"/>
</g>
<!-- Node3 -->
<g id="node3" class="node"><title>Node3</title>
<g id="a_node3"><a xlink:href="../../da/d3c/class_backend_1_1_model.html#a3b4294a767985d6585d71cfe0293fba2" target="_top" xlink:title="Backend.Model.makeTreeand\lAddValues">
<polygon fill="white" stroke="black" points="332.5,-0 332.5,-30 489.5,-30 489.5,-0 332.5,-0"/>
<text text-anchor="start" x="340.5" y="-18" font-family="Helvetica,sans-Serif" font-size="10.00">Backend.Model.makeTreeand</text>
<text text-anchor="middle" x="411" y="-7" font-family="Helvetica,sans-Serif" font-size="10.00">AddValues</text>
</a>
</g>
</g>
<!-- Node2&#45;&gt;Node3 -->
<g id="edge2" class="edge"><title>Node2&#45;&gt;Node3</title>
<path fill="none" stroke="midnightblue" d="M305.755,-15C314.583,-15 323.618,-15 332.497,-15"/>
<polygon fill="midnightblue" stroke="midnightblue" points="305.508,-11.5001 295.508,-15 305.508,-18.5001 305.508,-11.5001"/>
</g>
<!-- Node4 -->
<g id="node4" class="node"><title>Node4</title>
<g id="a_node4"><a xlink:href="../../da/d3c/class_backend_1_1_model.html#a972866b8540ea6b615e3c80b0ad1f9c6" target="_top" xlink:title="Backend.Model.parse">
<polygon fill="white" stroke="black" points="526.5,-5.5 526.5,-24.5 645.5,-24.5 645.5,-5.5 526.5,-5.5"/>
<text text-anchor="middle" x="586" y="-12.5" font-family="Helvetica,sans-Serif" font-size="10.00">Backend.Model.parse</text>
</a>
</g>
</g>
<!-- Node3&#45;&gt;Node4 -->
<g id="edge3" class="edge"><title>Node3&#45;&gt;Node4</title>
<path fill="none" stroke="midnightblue" d="M499.773,-15C508.755,-15 517.719,-15 526.277,-15"/>
<polygon fill="midnightblue" stroke="midnightblue" points="499.644,-11.5001 489.644,-15 499.644,-18.5001 499.644,-11.5001"/>
</g>
<!-- Node5 -->
<g id="node5" class="node"><title>Node5</title>
<g id="a_node5"><a xlink:href="../../dd/d2e/class_front_end_1_1_controller.html#a41885f349a8f334750e26d685a8981d2" target="_top" xlink:title="FrontEnd.Controller.execute\lCommand">
<polygon fill="white" stroke="black" points="682.5,-0 682.5,-30 831.5,-30 831.5,-0 682.5,-0"/>
<text text-anchor="start" x="690.5" y="-18" font-family="Helvetica,sans-Serif" font-size="10.00">FrontEnd.Controller.execute</text>
<text text-anchor="middle" x="757" y="-7" font-family="Helvetica,sans-Serif" font-size="10.00">Command</text>
</a>
</g>
</g>
<!-- Node4&#45;&gt;Node5 -->
<g id="edge4" class="edge"><title>Node4&#45;&gt;Node5</title>
<path fill="none" stroke="midnightblue" d="M655.762,-15C664.501,-15 673.473,-15 682.285,-15"/>
<polygon fill="midnightblue" stroke="midnightblue" points="655.634,-11.5001 645.634,-15 655.634,-18.5001 655.634,-11.5001"/>
</g>
<!-- Node6 -->
<g id="node6" class="node"><title>Node6</title>
<g id="a_node6"><a xlink:href="../../dd/d2e/class_front_end_1_1_controller.html#a29be9ff259428dbe97eebe3ec9a13ac5" target="_top" xlink:title="FrontEnd.Controller.update">
<polygon fill="white" stroke="black" points="868,-5.5 868,-24.5 1012,-24.5 1012,-5.5 868,-5.5"/>
<text text-anchor="middle" x="940" y="-12.5" font-family="Helvetica,sans-Serif" font-size="10.00">FrontEnd.Controller.update</text>
</a>
</g>
</g>
<!-- Node5&#45;&gt;Node6 -->
<g id="edge5" class="edge"><title>Node5&#45;&gt;Node6</title>
<path fill="none" stroke="midnightblue" d="M841.771,-15C850.468,-15 859.249,-15 867.789,-15"/>
<polygon fill="midnightblue" stroke="midnightblue" points="841.62,-11.5001 831.62,-15 841.62,-18.5001 841.62,-11.5001"/>
</g>
</g>
</svg>
