<?xml version="1.0" encoding="UTF-8" standalone="no"?>
<!DOCTYPE svg PUBLIC "-//W3C//DTD SVG 1.1//EN"
 "http://www.w3.org/Graphics/SVG/1.1/DTD/svg11.dtd">
<!-- Generated by graphviz version 2.36.0 (20140111.2315)
 -->
<!-- Title: Backend.Parser.convertResourceBundleToMap Pages: 1 -->
<svg width="1064pt" height="38pt"
 viewBox="0.00 0.00 1064.00 38.00" xmlns="http://www.w3.org/2000/svg" xmlns:xlink="http://www.w3.org/1999/xlink">
<g id="graph0" class="graph" transform="scale(1 1) rotate(0) translate(4 34)">
<title>Backend.Parser.convertResourceBundleToMap</title>
<polygon fill="white" stroke="none" points="-4,4 -4,-34 1060,-34 1060,4 -4,4"/>
<!-- Node1 -->
<g id="node1" class="node"><title>Node1</title>
<polygon fill="#bfbfbf" stroke="black" points="0.5,-0 0.5,-30 173.5,-30 173.5,-0 0.5,-0"/>
<text text-anchor="start" x="8.5" y="-18" font-family="Helvetica,sans-Serif" font-size="10.00">Backend.Parser.convertResource</text>
<text text-anchor="middle" x="87" y="-7" font-family="Helvetica,sans-Serif" font-size="10.00">BundleToMap</text>
</g>
<!-- Node2 -->
<g id="node2" class="node"><title>Node2</title>
<g id="a_node2"><a xlink:href="../../da/de9/class_backend_1_1_parser.html#a3fc5e64b991a86b2efc668961650202e" target="_top" xlink:title="Backend.Parser.newInfo">
<polygon fill="white" stroke="black" points="210.5,-5.5 210.5,-24.5 339.5,-24.5 339.5,-5.5 210.5,-5.5"/>
<text text-anchor="middle" x="275" y="-12.5" font-family="Helvetica,sans-Serif" font-size="10.00">Backend.Parser.newInfo</text>
</a>
</g>
</g>
<!-- Node1&#45;&gt;Node2 -->
<g id="edge1" class="edge"><title>Node1&#45;&gt;Node2</title>
<path fill="none" stroke="midnightblue" d="M183.839,-15C192.866,-15 201.857,-15 210.472,-15"/>
<polygon fill="midnightblue" stroke="midnightblue" points="183.65,-11.5001 173.65,-15 183.65,-18.5001 183.65,-11.5001"/>
</g>
<!-- Node3 -->
<g id="node3" class="node"><title>Node3</title>
<g id="a_node3"><a xlink:href="../../da/d3c/class_backend_1_1_model.html#a3b4294a767985d6585d71cfe0293fba2" target="_top" xlink:title="Backend.Model.makeTreeand\lAddValues">
<polygon fill="white" stroke="black" points="376.5,-0 376.5,-30 533.5,-30 533.5,-0 376.5,-0"/>
<text text-anchor="start" x="384.5" y="-18" font-family="Helvetica,sans-Serif" font-size="10.00">Backend.Model.makeTreeand</text>
<text text-anchor="middle" x="455" y="-7" font-family="Helvetica,sans-Serif" font-size="10.00">AddValues</text>
</a>
</g>
</g>
<!-- Node2&#45;&gt;Node3 -->
<g id="edge2" class="edge"><title>Node2&#45;&gt;Node3</title>
<path fill="none" stroke="midnightblue" d="M349.755,-15C358.583,-15 367.618,-15 376.497,-15"/>
<polygon fill="midnightblue" stroke="midnightblue" points="349.508,-11.5001 339.508,-15 349.508,-18.5001 349.508,-11.5001"/>
</g>
<!-- Node4 -->
<g id="node4" class="node"><title>Node4</title>
<g id="a_node4"><a xlink:href="../../da/d3c/class_backend_1_1_model.html#a972866b8540ea6b615e3c80b0ad1f9c6" target="_top" xlink:title="Backend.Model.parse">
<polygon fill="white" stroke="black" points="570.5,-5.5 570.5,-24.5 689.5,-24.5 689.5,-5.5 570.5,-5.5"/>
<text text-anchor="middle" x="630" y="-12.5" font-family="Helvetica,sans-Serif" font-size="10.00">Backend.Model.parse</text>
</a>
</g>
</g>
<!-- Node3&#45;&gt;Node4 -->
<g id="edge3" class="edge"><title>Node3&#45;&gt;Node4</title>
<path fill="none" stroke="midnightblue" d="M543.773,-15C552.755,-15 561.719,-15 570.277,-15"/>
<polygon fill="midnightblue" stroke="midnightblue" points="543.644,-11.5001 533.644,-15 543.644,-18.5001 543.644,-11.5001"/>
</g>
<!-- Node5 -->
<g id="node5" class="node"><title>Node5</title>
<g id="a_node5"><a xlink:href="../../dd/d2e/class_front_end_1_1_controller.html#a41885f349a8f334750e26d685a8981d2" target="_top" xlink:title="FrontEnd.Controller.execute\lCommand">
<polygon fill="white" stroke="black" points="726.5,-0 726.5,-30 875.5,-30 875.5,-0 726.5,-0"/>
<text text-anchor="start" x="734.5" y="-18" font-family="Helvetica,sans-Serif" font-size="10.00">FrontEnd.Controller.execute</text>
<text text-anchor="middle" x="801" y="-7" font-family="Helvetica,sans-Serif" font-size="10.00">Command</text>
</a>
</g>
</g>
<!-- Node4&#45;&gt;Node5 -->
<g id="edge4" class="edge"><title>Node4&#45;&gt;Node5</title>
<path fill="none" stroke="midnightblue" d="M699.762,-15C708.501,-15 717.473,-15 726.285,-15"/>
<polygon fill="midnightblue" stroke="midnightblue" points="699.634,-11.5001 689.634,-15 699.634,-18.5001 699.634,-11.5001"/>
</g>
<!-- Node6 -->
<g id="node6" class="node"><title>Node6</title>
<g id="a_node6"><a xlink:href="../../dd/d2e/class_front_end_1_1_controller.html#a29be9ff259428dbe97eebe3ec9a13ac5" target="_top" xlink:title="FrontEnd.Controller.update">
<polygon fill="white" stroke="black" points="912,-5.5 912,-24.5 1056,-24.5 1056,-5.5 912,-5.5"/>
<text text-anchor="middle" x="984" y="-12.5" font-family="Helvetica,sans-Serif" font-size="10.00">FrontEnd.Controller.update</text>
</a>
</g>
</g>
<!-- Node5&#45;&gt;Node6 -->
<g id="edge5" class="edge"><title>Node5&#45;&gt;Node6</title>
<path fill="none" stroke="midnightblue" d="M885.771,-15C894.468,-15 903.249,-15 911.789,-15"/>
<polygon fill="midnightblue" stroke="midnightblue" points="885.62,-11.5001 875.62,-15 885.62,-18.5001 885.62,-11.5001"/>
</g>
</g>
</svg>
