<?xml version="1.0" encoding="UTF-8" standalone="no"?>
<!DOCTYPE svg PUBLIC "-//W3C//DTD SVG 1.1//EN"
 "http://www.w3.org/Graphics/SVG/1.1/DTD/svg11.dtd">
<!-- Generated by graphviz version 2.36.0 (20140111.2315)
 -->
<!-- Title: Backend.Parser.newInfo Pages: 1 -->
<svg width="348pt" height="77pt"
 viewBox="0.00 0.00 348.00 77.00" xmlns="http://www.w3.org/2000/svg" xmlns:xlink="http://www.w3.org/1999/xlink">
<g id="graph0" class="graph" transform="scale(1 1) rotate(0) translate(4 73)">
<title>Backend.Parser.newInfo</title>
<polygon fill="white" stroke="none" points="-4,4 -4,-73 344,-73 344,4 -4,4"/>
<!-- Node1 -->
<g id="node1" class="node"><title>Node1</title>
<polygon fill="#bfbfbf" stroke="black" points="0.5,-27.5 0.5,-46.5 129.5,-46.5 129.5,-27.5 0.5,-27.5"/>
<text text-anchor="middle" x="65" y="-34.5" font-family="Helvetica,sans-Serif" font-size="10.00">Backend.Parser.newInfo</text>
</g>
<!-- Node2 -->
<g id="node2" class="node"><title>Node2</title>
<g id="a_node2"><a xlink:href="../../da/de9/class_backend_1_1_parser.html#a57ac3fe734297dc7b65d56ab69a19fc6" target="_top" xlink:title="Backend.Parser.convert">
<polygon fill="white" stroke="black" points="188.5,-49.5 188.5,-68.5 317.5,-68.5 317.5,-49.5 188.5,-49.5"/>
<text text-anchor="middle" x="253" y="-56.5" font-family="Helvetica,sans-Serif" font-size="10.00">Backend.Parser.convert</text>
</a>
</g>
</g>
<!-- Node1&#45;&gt;Node2 -->
<g id="edge1" class="edge"><title>Node1&#45;&gt;Node2</title>
<path fill="none" stroke="midnightblue" d="M129.75,-44.5404C145.278,-46.377 162.017,-48.3569 177.978,-50.2447"/>
<polygon fill="midnightblue" stroke="midnightblue" points="177.991,-53.7706 188.333,-51.4695 178.813,-46.819 177.991,-53.7706"/>
</g>
<!-- Node3 -->
<g id="node3" class="node"><title>Node3</title>
<g id="a_node3"><a xlink:href="../../da/de9/class_backend_1_1_parser.html#af7a0fc52eb5fe8714367d85241ba9e84" target="_top" xlink:title="Backend.Parser.convertResource\lBundleToMap">
<polygon fill="white" stroke="black" points="166.5,-0 166.5,-30 339.5,-30 339.5,-0 166.5,-0"/>
<text text-anchor="start" x="174.5" y="-18" font-family="Helvetica,sans-Serif" font-size="10.00">Backend.Parser.convertResource</text>
<text text-anchor="middle" x="253" y="-7" font-family="Helvetica,sans-Serif" font-size="10.00">BundleToMap</text>
</a>
</g>
</g>
<!-- Node1&#45;&gt;Node3 -->
<g id="edge2" class="edge"><title>Node1&#45;&gt;Node3</title>
<path fill="none" stroke="midnightblue" d="M129.75,-29.4596C138.308,-28.4474 147.234,-27.3917 156.194,-26.3319"/>
<polygon fill="midnightblue" stroke="midnightblue" points="156.788,-29.7862 166.307,-25.1357 155.965,-22.8346 156.788,-29.7862"/>
</g>
</g>
</svg>
