<?xml version="1.0" encoding="UTF-8" standalone="no"?>
<!DOCTYPE svg PUBLIC "-//W3C//DTD SVG 1.1//EN"
 "http://www.w3.org/Graphics/SVG/1.1/DTD/svg11.dtd">
<!-- Generated by graphviz version 2.36.0 (20140111.2315)
 -->
<!-- Title: FrontEndCommands.ClearCommand Pages: 1 -->
<svg width="226pt" height="154pt"
 viewBox="0.00 0.00 226.00 154.00" xmlns="http://www.w3.org/2000/svg" xmlns:xlink="http://www.w3.org/1999/xlink">
<g id="graph0" class="graph" transform="scale(1 1) rotate(0) translate(4 150)">
<title>FrontEndCommands.ClearCommand</title>
<polygon fill="white" stroke="none" points="-4,4 -4,-150 222,-150 222,4 -4,4"/>
<!-- Node1 -->
<g id="node1" class="node"><title>Node1</title>
<polygon fill="#bfbfbf" stroke="black" points="17,-0.5 17,-19.5 209,-19.5 209,-0.5 17,-0.5"/>
<text text-anchor="middle" x="113" y="-7.5" font-family="Helvetica,sans-Serif" font-size="10.00">FrontEndCommands.ClearCommand</text>
</g>
<!-- Node2 -->
<g id="node2" class="node"><title>Node2</title>
<g id="a_node2"><a xlink:href="../../de/d36/class_front_end_commands_1_1_super_command.html" target="_top" xlink:title="FrontEndCommands.SuperCommand">
<polygon fill="white" stroke="black" points="15,-58.5 15,-77.5 211,-77.5 211,-58.5 15,-58.5"/>
<text text-anchor="middle" x="113" y="-65.5" font-family="Helvetica,sans-Serif" font-size="10.00">FrontEndCommands.SuperCommand</text>
</a>
</g>
</g>
<!-- Node2&#45;&gt;Node1 -->
<g id="edge1" class="edge"><title>Node2&#45;&gt;Node1</title>
<path fill="none" stroke="midnightblue" d="M113,-47.953C113,-38.2875 113,-27.0312 113,-19.5052"/>
<polygon fill="midnightblue" stroke="midnightblue" points="109.5,-48.25 113,-58.25 116.5,-48.25 109.5,-48.25"/>
</g>
<!-- Node3 -->
<g id="node3" class="node"><title>Node3</title>
<polygon fill="white" stroke="#bfbfbf" points="-0.5,-126.5 -0.5,-145.5 70.5,-145.5 70.5,-126.5 -0.5,-126.5"/>
<text text-anchor="middle" x="35" y="-133.5" font-family="Helvetica,sans-Serif" font-size="10.00">Observable</text>
</g>
<!-- Node3&#45;&gt;Node2 -->
<g id="edge2" class="edge"><title>Node3&#45;&gt;Node2</title>
<path fill="none" stroke="midnightblue" d="M52.9939,-119.774C68.3466,-106.784 89.8894,-88.5551 102.551,-77.8411"/>
<polygon fill="midnightblue" stroke="midnightblue" points="50.5702,-117.24 45.1971,-126.372 55.0918,-122.584 50.5702,-117.24"/>
</g>
<!-- Node4 -->
<g id="node4" class="node"><title>Node4</title>
<polygon fill="white" stroke="#bfbfbf" points="88.5,-126.5 88.5,-145.5 137.5,-145.5 137.5,-126.5 88.5,-126.5"/>
<text text-anchor="middle" x="113" y="-133.5" font-family="Helvetica,sans-Serif" font-size="10.00">Button</text>
</g>
<!-- Node4&#45;&gt;Node2 -->
<g id="edge3" class="edge"><title>Node4&#45;&gt;Node2</title>
<path fill="none" stroke="#9a32cd" stroke-dasharray="5,2" d="M113,-116.041C113,-103.472 113,-87.5631 113,-77.8411"/>
<polygon fill="#9a32cd" stroke="#9a32cd" points="109.5,-116.372 113,-126.372 116.5,-116.372 109.5,-116.372"/>
<text text-anchor="middle" x="138.5" y="-99.5" font-family="Helvetica,sans-Serif" font-size="10.00"> myButton</text>
</g>
<!-- Node5 -->
<g id="node5" class="node"><title>Node5</title>
<polygon fill="white" stroke="#bfbfbf" points="166,-126.5 166,-145.5 208,-145.5 208,-126.5 166,-126.5"/>
<text text-anchor="middle" x="187" y="-133.5" font-family="Helvetica,sans-Serif" font-size="10.00">HBox</text>
</g>
<!-- Node5&#45;&gt;Node2 -->
<g id="edge4" class="edge"><title>Node5&#45;&gt;Node2</title>
<path fill="none" stroke="#9a32cd" stroke-dasharray="5,2" d="M179.448,-116.716C175.853,-109.613 171.011,-101.806 165,-96 156.806,-88.085 145.828,-81.9276 136.071,-77.505"/>
<polygon fill="#9a32cd" stroke="#9a32cd" points="176.484,-118.655 183.813,-126.306 182.855,-115.754 176.484,-118.655"/>
<text text-anchor="middle" x="196" y="-99.5" font-family="Helvetica,sans-Serif" font-size="10.00"> myHBox</text>
</g>
</g>
</svg>
