<?xml version="1.0" encoding="UTF-8" standalone="no"?>
<!DOCTYPE svg PUBLIC "-//W3C//DTD SVG 1.1//EN"
 "http://www.w3.org/Graphics/SVG/1.1/DTD/svg11.dtd">
<!-- Generated by graphviz version 2.36.0 (20140111.2315)
 -->
<!-- Title: Nodes.math.RemainderNode Pages: 1 -->
<svg width="176pt" height="290pt"
 viewBox="0.00 0.00 176.00 290.00" xmlns="http://www.w3.org/2000/svg" xmlns:xlink="http://www.w3.org/1999/xlink">
<g id="graph0" class="graph" transform="scale(1 1) rotate(0) translate(4 286)">
<title>Nodes.math.RemainderNode</title>
<polygon fill="white" stroke="none" points="-4,4 -4,-286 172,-286 172,4 -4,4"/>
<!-- Node1 -->
<g id="node1" class="node"><title>Node1</title>
<polygon fill="#bfbfbf" stroke="black" points="-0.5,-0.5 -0.5,-19.5 154.5,-19.5 154.5,-0.5 -0.5,-0.5"/>
<text text-anchor="middle" x="77" y="-7.5" font-family="Helvetica,sans-Serif" font-size="10.00">Nodes.math.RemainderNode</text>
</g>
<!-- Node2 -->
<g id="node2" class="node"><title>Node2</title>
<g id="a_node2"><a xlink:href="../../d9/d91/class_nodes_1_1math_1_1_two_child_node.html" target="_top" xlink:title="Nodes.math.TwoChildNode">
<polygon fill="white" stroke="black" points="5,-58.5 5,-77.5 149,-77.5 149,-58.5 5,-58.5"/>
<text text-anchor="middle" x="77" y="-65.5" font-family="Helvetica,sans-Serif" font-size="10.00">Nodes.math.TwoChildNode</text>
</a>
</g>
</g>
<!-- Node2&#45;&gt;Node1 -->
<g id="edge1" class="edge"><title>Node2&#45;&gt;Node1</title>
<path fill="none" stroke="midnightblue" d="M77,-47.953C77,-38.2875 77,-27.0312 77,-19.5052"/>
<polygon fill="midnightblue" stroke="midnightblue" points="73.5001,-48.25 77,-58.25 80.5001,-48.25 73.5001,-48.25"/>
</g>
<!-- Node3 -->
<g id="node3" class="node"><title>Node3</title>
<g id="a_node3"><a xlink:href="../../de/d80/class_nodes_1_1math_1_1_math_node.html" target="_top" xlink:title="Nodes.math.MathNode">
<polygon fill="white" stroke="black" points="13,-116.5 13,-135.5 141,-135.5 141,-116.5 13,-116.5"/>
<text text-anchor="middle" x="77" y="-123.5" font-family="Helvetica,sans-Serif" font-size="10.00">Nodes.math.MathNode</text>
</a>
</g>
</g>
<!-- Node3&#45;&gt;Node2 -->
<g id="edge2" class="edge"><title>Node3&#45;&gt;Node2</title>
<path fill="none" stroke="midnightblue" d="M77,-105.953C77,-96.2875 77,-85.0312 77,-77.5052"/>
<polygon fill="midnightblue" stroke="midnightblue" points="73.5001,-106.25 77,-116.25 80.5001,-106.25 73.5001,-106.25"/>
</g>
<!-- Node4 -->
<g id="node4" class="node"><title>Node4</title>
<g id="a_node4"><a xlink:href="../../df/dac/class_nodes_1_1_node.html" target="_top" xlink:title="Nodes.Node">
<polygon fill="white" stroke="black" points="39,-194.5 39,-213.5 115,-213.5 115,-194.5 39,-194.5"/>
<text text-anchor="middle" x="77" y="-201.5" font-family="Helvetica,sans-Serif" font-size="10.00">Nodes.Node</text>
</a>
</g>
</g>
<!-- Node4&#45;&gt;Node3 -->
<g id="edge3" class="edge"><title>Node4&#45;&gt;Node3</title>
<path fill="none" stroke="midnightblue" d="M75.4399,-184.382C75.2572,-181.575 75.1003,-178.713 75,-176 74.6386,-166.229 74.6386,-163.771 75,-154 75.2293,-147.8 75.7539,-140.815 76.2083,-135.503"/>
<polygon fill="midnightblue" stroke="midnightblue" points="71.9607,-184.791 76.2083,-194.497 78.9406,-184.26 71.9607,-184.791"/>
</g>
<!-- Node4&#45;&gt;Node3 -->
<g id="edge6" class="edge"><title>Node4&#45;&gt;Node3</title>
<path fill="none" stroke="#9a32cd" stroke-dasharray="5,2" d="M77,-184.224C77,-168.697 77,-147.358 77,-135.616"/>
<polygon fill="#9a32cd" stroke="#9a32cd" points="73.5001,-184.282 77,-194.282 80.5001,-184.282 73.5001,-184.282"/>
<text text-anchor="middle" x="89.5" y="-168" font-family="Helvetica,sans-Serif" font-size="10.00"> right</text>
<text text-anchor="middle" x="89.5" y="-157" font-family="Helvetica,sans-Serif" font-size="10.00">left</text>
</g>
<!-- Node4&#45;&gt;Node4 -->
<g id="edge5" class="edge"><title>Node4&#45;&gt;Node4</title>
<path fill="none" stroke="#9a32cd" stroke-dasharray="5,2" d="M125.289,-209.176C130.006,-208.133 133,-206.407 133,-204 133,-200.148 125.335,-198.042 115.214,-197.681"/>
<polygon fill="#9a32cd" stroke="#9a32cd" points="124.756,-205.714 115.214,-210.319 125.545,-212.67 124.756,-205.714"/>
<text text-anchor="middle" x="150.5" y="-201.5" font-family="Helvetica,sans-Serif" font-size="10.00"> parent</text>
</g>
<!-- Node5 -->
<g id="node5" class="node"><title>Node5</title>
<polygon fill="white" stroke="#bfbfbf" points="7,-262.5 7,-281.5 147,-281.5 147,-262.5 7,-262.5"/>
<text text-anchor="middle" x="77" y="-269.5" font-family="Helvetica,sans-Serif" font-size="10.00">ArrayList&lt; Nodes.Node &gt;</text>
</g>
<!-- Node5&#45;&gt;Node4 -->
<g id="edge4" class="edge"><title>Node5&#45;&gt;Node4</title>
<path fill="none" stroke="#9a32cd" stroke-dasharray="5,2" d="M77,-252.041C77,-239.472 77,-223.563 77,-213.841"/>
<polygon fill="#9a32cd" stroke="#9a32cd" points="73.5001,-252.372 77,-262.372 80.5001,-252.372 73.5001,-252.372"/>
<text text-anchor="middle" x="106" y="-235.5" font-family="Helvetica,sans-Serif" font-size="10.00"> myChildren</text>
</g>
</g>
</svg>
