<?xml version="1.0" encoding="UTF-8" standalone="no"?>
<!DOCTYPE svg PUBLIC "-//W3C//DTD SVG 1.1//EN"
 "http://www.w3.org/Graphics/SVG/1.1/DTD/svg11.dtd">
<!-- Generated by graphviz version 2.36.0 (20140111.2315)
 -->
<!-- Title: Nodes.multipleTurtlecommands.MultipleTurtlesNode Pages: 1 -->
<svg width="178pt" height="164pt"
 viewBox="0.00 0.00 178.00 164.00" xmlns="http://www.w3.org/2000/svg" xmlns:xlink="http://www.w3.org/1999/xlink">
<g id="graph0" class="graph" transform="scale(1 1) rotate(0) translate(4 160)">
<title>Nodes.multipleTurtlecommands.MultipleTurtlesNode</title>
<polygon fill="white" stroke="none" points="-4,4 -4,-160 174,-160 174,4 -4,4"/>
<!-- Node1 -->
<g id="node1" class="node"><title>Node1</title>
<polygon fill="#bfbfbf" stroke="black" points="-0.5,-69 -0.5,-99 170.5,-99 170.5,-69 -0.5,-69"/>
<text text-anchor="start" x="7.5" y="-87" font-family="Helvetica,sans-Serif" font-size="10.00">Nodes.multipleTurtlecommands.</text>
<text text-anchor="middle" x="85" y="-76" font-family="Helvetica,sans-Serif" font-size="10.00">MultipleTurtlesNode</text>
</g>
<!-- Node3 -->
<g id="node3" class="node"><title>Node3</title>
<g id="a_node3"><a xlink:href="../../d8/d24/class_nodes_1_1multiple_turtlecommands_1_1_tell_node.html" target="_top" xlink:title="Nodes.multipleTurtlecommands.\lTellNode">
<polygon fill="white" stroke="black" points="-0.5,-1 -0.5,-31 170.5,-31 170.5,-1 -0.5,-1"/>
<text text-anchor="start" x="7.5" y="-19" font-family="Helvetica,sans-Serif" font-size="10.00">Nodes.multipleTurtlecommands.</text>
<text text-anchor="middle" x="85" y="-8" font-family="Helvetica,sans-Serif" font-size="10.00">TellNode</text>
</a>
</g>
</g>
<!-- Node1&#45;&gt;Node3 -->
<g id="edge2" class="edge"><title>Node1&#45;&gt;Node3</title>
<path fill="none" stroke="midnightblue" d="M85,-58.5322C85,-49.3606 85,-39.2449 85,-31.2931"/>
<polygon fill="midnightblue" stroke="midnightblue" points="81.5001,-58.6789 85,-68.679 88.5001,-58.679 81.5001,-58.6789"/>
</g>
<!-- Node2 -->
<g id="node2" class="node"><title>Node2</title>
<g id="a_node2"><a xlink:href="../../df/dac/class_nodes_1_1_node.html" target="_top" xlink:title="Nodes.Node">
<polygon fill="white" stroke="black" points="47,-136.5 47,-155.5 123,-155.5 123,-136.5 47,-136.5"/>
<text text-anchor="middle" x="85" y="-143.5" font-family="Helvetica,sans-Serif" font-size="10.00">Nodes.Node</text>
</a>
</g>
</g>
<!-- Node2&#45;&gt;Node1 -->
<g id="edge1" class="edge"><title>Node2&#45;&gt;Node1</title>
<path fill="none" stroke="midnightblue" d="M85,-126.371C85,-117.585 85,-107.272 85,-99.1408"/>
<polygon fill="midnightblue" stroke="midnightblue" points="81.5001,-126.403 85,-136.403 88.5001,-126.403 81.5001,-126.403"/>
</g>
</g>
</svg>
