<?xml version="1.0" encoding="UTF-8" standalone="no"?>
<!DOCTYPE svg PUBLIC "-//W3C//DTD SVG 1.1//EN"
 "http://www.w3.org/Graphics/SVG/1.1/DTD/svg11.dtd">
<!-- Generated by graphviz version 2.36.0 (20140111.2315)
 -->
<!-- Title: Nodes.turtlecommands.RightNode.update Pages: 1 -->
<svg width="334pt" height="66pt"
 viewBox="0.00 0.00 334.00 66.00" xmlns="http://www.w3.org/2000/svg" xmlns:xlink="http://www.w3.org/1999/xlink">
<g id="graph0" class="graph" transform="scale(1 1) rotate(0) translate(4 62)">
<title>Nodes.turtlecommands.RightNode.update</title>
<polygon fill="white" stroke="none" points="-4,4 -4,-62 330,-62 330,4 -4,4"/>
<!-- Node1 -->
<g id="node1" class="node"><title>Node1</title>
<polygon fill="#bfbfbf" stroke="black" points="0.5,-14 0.5,-44 157.5,-44 157.5,-14 0.5,-14"/>
<text text-anchor="start" x="8.5" y="-32" font-family="Helvetica,sans-Serif" font-size="10.00">Nodes.turtlecommands.Right</text>
<text text-anchor="middle" x="79" y="-21" font-family="Helvetica,sans-Serif" font-size="10.00">Node.update</text>
</g>
<!-- Node2 -->
<g id="node2" class="node"><title>Node2</title>
<g id="a_node2"><a xlink:href="../../d1/de0/class_backend_1_1_turtle.html#a0750b978634bf49bbc7e640e15e22777" target="_top" xlink:title="Backend.Turtle.getAngle">
<polygon fill="white" stroke="black" points="194,-38.5 194,-57.5 326,-57.5 326,-38.5 194,-38.5"/>
<text text-anchor="middle" x="260" y="-45.5" font-family="Helvetica,sans-Serif" font-size="10.00">Backend.Turtle.getAngle</text>
</a>
</g>
</g>
<!-- Node1&#45;&gt;Node2 -->
<g id="edge1" class="edge"><title>Node1&#45;&gt;Node2</title>
<path fill="none" stroke="midnightblue" d="M157.731,-37.2508C166.411,-38.1721 175.242,-39.1095 183.888,-40.0272"/>
<polygon fill="midnightblue" stroke="midnightblue" points="183.62,-43.5184 193.934,-41.0935 184.359,-36.5575 183.62,-43.5184"/>
</g>
<!-- Node3 -->
<g id="node3" class="node"><title>Node3</title>
<g id="a_node3"><a xlink:href="../../d1/de0/class_backend_1_1_turtle.html#a8b2127f59e8089449229ab93a0ac8ce3" target="_top" xlink:title="Backend.Turtle.setAngle">
<polygon fill="white" stroke="black" points="194.5,-0.5 194.5,-19.5 325.5,-19.5 325.5,-0.5 194.5,-0.5"/>
<text text-anchor="middle" x="260" y="-7.5" font-family="Helvetica,sans-Serif" font-size="10.00">Backend.Turtle.setAngle</text>
</a>
</g>
</g>
<!-- Node1&#45;&gt;Node3 -->
<g id="edge2" class="edge"><title>Node1&#45;&gt;Node3</title>
<path fill="none" stroke="midnightblue" d="M157.731,-20.7492C166.547,-19.8135 175.518,-18.8613 184.293,-17.9298"/>
<polygon fill="midnightblue" stroke="midnightblue" points="184.91,-21.3841 194.485,-16.848 184.171,-14.4232 184.91,-21.3841"/>
</g>
</g>
</svg>
