<?xml version="1.0" encoding="UTF-8" standalone="no"?>
<!DOCTYPE svg PUBLIC "-//W3C//DTD SVG 1.1//EN"
 "http://www.w3.org/Graphics/SVG/1.1/DTD/svg11.dtd">
<!-- Generated by graphviz version 2.36.0 (20140111.2315)
 -->
<!-- Title: Pen.PenThicknessBox.getThick Pages: 1 -->
<svg width="548pt" height="28pt"
 viewBox="0.00 0.00 548.00 28.00" xmlns="http://www.w3.org/2000/svg" xmlns:xlink="http://www.w3.org/1999/xlink">
<g id="graph0" class="graph" transform="scale(1 1) rotate(0) translate(4 24)">
<title>Pen.PenThicknessBox.getThick</title>
<polygon fill="white" stroke="none" points="-4,4 -4,-24 544,-24 544,4 -4,4"/>
<!-- Node1 -->
<g id="node1" class="node"><title>Node1</title>
<polygon fill="#bfbfbf" stroke="black" points="0.5,-0.5 0.5,-19.5 163.5,-19.5 163.5,-0.5 0.5,-0.5"/>
<text text-anchor="middle" x="82" y="-7.5" font-family="Helvetica,sans-Serif" font-size="10.00">Pen.PenThicknessBox.getThick</text>
</g>
<!-- Node2 -->
<g id="node2" class="node"><title>Node2</title>
<g id="a_node2"><a xlink:href="../../d0/d46/class_pen_1_1_pen_options.html#ad4c2effd79623294227f7dd777c02a31" target="_top" xlink:title="Pen.PenOptions.setUpBoxes">
<polygon fill="white" stroke="black" points="200.5,-0.5 200.5,-19.5 353.5,-19.5 353.5,-0.5 200.5,-0.5"/>
<text text-anchor="middle" x="277" y="-7.5" font-family="Helvetica,sans-Serif" font-size="10.00">Pen.PenOptions.setUpBoxes</text>
</a>
</g>
</g>
<!-- Node1&#45;&gt;Node2 -->
<g id="edge1" class="edge"><title>Node1&#45;&gt;Node2</title>
<path fill="none" stroke="midnightblue" d="M173.991,-10C182.77,-10 191.61,-10 200.219,-10"/>
<polygon fill="midnightblue" stroke="midnightblue" points="173.731,-6.5001 163.731,-10 173.731,-13.5001 173.731,-6.5001"/>
</g>
<!-- Node3 -->
<g id="node3" class="node"><title>Node3</title>
<g id="a_node3"><a xlink:href="../../d0/d46/class_pen_1_1_pen_options.html#a22f4c921bf17a31fe2a83ae2ebbb8421" target="_top" xlink:title="Pen.PenOptions.PenOptions">
<polygon fill="white" stroke="black" points="390,-0.5 390,-19.5 540,-19.5 540,-0.5 390,-0.5"/>
<text text-anchor="middle" x="465" y="-7.5" font-family="Helvetica,sans-Serif" font-size="10.00">Pen.PenOptions.PenOptions</text>
</a>
</g>
</g>
<!-- Node2&#45;&gt;Node3 -->
<g id="edge2" class="edge"><title>Node2&#45;&gt;Node3</title>
<path fill="none" stroke="midnightblue" d="M363.828,-10C372.543,-10 381.344,-10 389.92,-10"/>
<polygon fill="midnightblue" stroke="midnightblue" points="363.653,-6.5001 353.653,-10 363.653,-13.5001 363.653,-6.5001"/>
</g>
</g>
</svg>
