<?xml version="1.0" encoding="UTF-8" standalone="no"?>
<!DOCTYPE svg PUBLIC "-//W3C//DTD SVG 1.1//EN"
 "http://www.w3.org/Graphics/SVG/1.1/DTD/svg11.dtd">
<!-- Generated by graphviz version 2.36.0 (20140111.2315)
 -->
<!-- Title: TurtleView.GridCheckBox.GridCheckBox Pages: 1 -->
<svg width="532pt" height="38pt"
 viewBox="0.00 0.00 532.00 38.00" xmlns="http://www.w3.org/2000/svg" xmlns:xlink="http://www.w3.org/1999/xlink">
<g id="graph0" class="graph" transform="scale(1 1) rotate(0) translate(4 34)">
<title>TurtleView.GridCheckBox.GridCheckBox</title>
<polygon fill="white" stroke="none" points="-4,4 -4,-34 528,-34 528,4 -4,4"/>
<!-- Node1 -->
<g id="node1" class="node"><title>Node1</title>
<polygon fill="#bfbfbf" stroke="black" points="0,-0 0,-30 136,-30 136,-0 0,-0"/>
<text text-anchor="start" x="8" y="-18" font-family="Helvetica,sans-Serif" font-size="10.00">TurtleView.GridCheckBox.</text>
<text text-anchor="middle" x="68" y="-7" font-family="Helvetica,sans-Serif" font-size="10.00">GridCheckBox</text>
</g>
<!-- Node2 -->
<g id="node2" class="node"><title>Node2</title>
<g id="a_node2"><a xlink:href="../../d1/df4/class_turtle_view_1_1_grid_check_box.html#a188089390fabac094e62bf3877912b9f" target="_top" xlink:title="TurtleView.GridCheckBox.handle">
<polygon fill="white" stroke="black" points="172,-5.5 172,-24.5 340,-24.5 340,-5.5 172,-5.5"/>
<text text-anchor="middle" x="256" y="-12.5" font-family="Helvetica,sans-Serif" font-size="10.00">TurtleView.GridCheckBox.handle</text>
</a>
</g>
</g>
<!-- Node1&#45;&gt;Node2 -->
<g id="edge1" class="edge"><title>Node1&#45;&gt;Node2</title>
<path fill="none" stroke="midnightblue" d="M136.15,-15C144.452,-15 153.052,-15 161.657,-15"/>
<polygon fill="midnightblue" stroke="midnightblue" points="161.742,-18.5001 171.742,-15 161.742,-11.5001 161.742,-18.5001"/>
</g>
<!-- Node3 -->
<g id="node3" class="node"><title>Node3</title>
<g id="a_node3"><a xlink:href="../../d4/d8a/class_turtle_view_1_1_turtle_window.html#a79c23d4889ccd4b3af548d501f68e15b" target="_top" xlink:title="TurtleView.TurtleWindow.grid\lLines">
<polygon fill="white" stroke="black" points="376.5,-0 376.5,-30 523.5,-30 523.5,-0 376.5,-0"/>
<text text-anchor="start" x="384.5" y="-18" font-family="Helvetica,sans-Serif" font-size="10.00">TurtleView.TurtleWindow.grid</text>
<text text-anchor="middle" x="450" y="-7" font-family="Helvetica,sans-Serif" font-size="10.00">Lines</text>
</a>
</g>
</g>
<!-- Node2&#45;&gt;Node3 -->
<g id="edge2" class="edge"><title>Node2&#45;&gt;Node3</title>
<path fill="none" stroke="midnightblue" d="M340.097,-15C348.766,-15 357.577,-15 366.242,-15"/>
<polygon fill="midnightblue" stroke="midnightblue" points="366.329,-18.5001 376.329,-15 366.329,-11.5001 366.329,-18.5001"/>
</g>
</g>
</svg>
