<?xml version="1.0" encoding="UTF-8" standalone="no"?>
<!DOCTYPE svg PUBLIC "-//W3C//DTD SVG 1.1//EN"
 "http://www.w3.org/Graphics/SVG/1.1/DTD/svg11.dtd">
<!-- Generated by graphviz version 2.36.0 (20140111.2315)
 -->
<!-- Title: FrontEndCommands.AmountCommand Pages: 1 -->
<svg width="332pt" height="164pt"
 viewBox="0.00 0.00 332.00 164.00" xmlns="http://www.w3.org/2000/svg" xmlns:xlink="http://www.w3.org/1999/xlink">
<g id="graph0" class="graph" transform="scale(1 1) rotate(0) translate(4 160)">
<title>FrontEndCommands.AmountCommand</title>
<polygon fill="white" stroke="none" points="-4,4 -4,-160 328,-160 328,4 -4,4"/>
<!-- Node1 -->
<g id="node1" class="node"><title>Node1</title>
<polygon fill="#bfbfbf" stroke="black" points="118,-0.5 118,-19.5 324,-19.5 324,-0.5 118,-0.5"/>
<text text-anchor="middle" x="221" y="-7.5" font-family="Helvetica,sans-Serif" font-size="10.00">FrontEndCommands.AmountCommand</text>
</g>
<!-- Node2 -->
<g id="node2" class="node"><title>Node2</title>
<g id="a_node2"><a xlink:href="../../de/d36/class_front_end_commands_1_1_super_command.html" target="_top" xlink:title="FrontEndCommands.SuperCommand">
<polygon fill="white" stroke="black" points="15,-68.5 15,-87.5 211,-87.5 211,-68.5 15,-68.5"/>
<text text-anchor="middle" x="113" y="-75.5" font-family="Helvetica,sans-Serif" font-size="10.00">FrontEndCommands.SuperCommand</text>
</a>
</g>
</g>
<!-- Node2&#45;&gt;Node1 -->
<g id="edge1" class="edge"><title>Node2&#45;&gt;Node1</title>
<path fill="none" stroke="midnightblue" d="M135.928,-62.9883C157.413,-49.8584 188.846,-30.6498 206.877,-19.6305"/>
<polygon fill="midnightblue" stroke="midnightblue" points="133.827,-60.1706 127.119,-68.3717 137.477,-66.1436 133.827,-60.1706"/>
</g>
<!-- Node3 -->
<g id="node3" class="node"><title>Node3</title>
<polygon fill="white" stroke="#bfbfbf" points="-0.5,-136.5 -0.5,-155.5 70.5,-155.5 70.5,-136.5 -0.5,-136.5"/>
<text text-anchor="middle" x="35" y="-143.5" font-family="Helvetica,sans-Serif" font-size="10.00">Observable</text>
</g>
<!-- Node3&#45;&gt;Node2 -->
<g id="edge2" class="edge"><title>Node3&#45;&gt;Node2</title>
<path fill="none" stroke="midnightblue" d="M52.9939,-129.774C68.3466,-116.784 89.8894,-98.5551 102.551,-87.8411"/>
<polygon fill="midnightblue" stroke="midnightblue" points="50.5702,-127.24 45.1971,-136.372 55.0918,-132.584 50.5702,-127.24"/>
</g>
<!-- Node4 -->
<g id="node4" class="node"><title>Node4</title>
<polygon fill="white" stroke="#bfbfbf" points="88.5,-136.5 88.5,-155.5 137.5,-155.5 137.5,-136.5 88.5,-136.5"/>
<text text-anchor="middle" x="113" y="-143.5" font-family="Helvetica,sans-Serif" font-size="10.00">Button</text>
</g>
<!-- Node4&#45;&gt;Node2 -->
<g id="edge3" class="edge"><title>Node4&#45;&gt;Node2</title>
<path fill="none" stroke="#9a32cd" stroke-dasharray="5,2" d="M113,-126.041C113,-113.472 113,-97.5631 113,-87.8411"/>
<polygon fill="#9a32cd" stroke="#9a32cd" points="109.5,-126.372 113,-136.372 116.5,-126.372 109.5,-126.372"/>
<text text-anchor="middle" x="138.5" y="-109.5" font-family="Helvetica,sans-Serif" font-size="10.00"> myButton</text>
</g>
<!-- Node5 -->
<g id="node5" class="node"><title>Node5</title>
<polygon fill="white" stroke="#bfbfbf" points="166,-136.5 166,-155.5 208,-155.5 208,-136.5 166,-136.5"/>
<text text-anchor="middle" x="187" y="-143.5" font-family="Helvetica,sans-Serif" font-size="10.00">HBox</text>
</g>
<!-- Node5&#45;&gt;Node2 -->
<g id="edge4" class="edge"><title>Node5&#45;&gt;Node2</title>
<path fill="none" stroke="#9a32cd" stroke-dasharray="5,2" d="M179.448,-126.716C175.853,-119.613 171.011,-111.806 165,-106 156.806,-98.085 145.828,-91.9276 136.071,-87.505"/>
<polygon fill="#9a32cd" stroke="#9a32cd" points="176.484,-128.655 183.813,-136.306 182.855,-125.754 176.484,-128.655"/>
<text text-anchor="middle" x="197" y="-109.5" font-family="Helvetica,sans-Serif" font-size="10.00"> myHBox</text>
</g>
<!-- Node6 -->
<g id="node6" class="node"><title>Node6</title>
<polygon fill="white" stroke="#bfbfbf" points="229,-68.5 229,-87.5 285,-87.5 285,-68.5 229,-68.5"/>
<text text-anchor="middle" x="257" y="-75.5" font-family="Helvetica,sans-Serif" font-size="10.00">TextField</text>
</g>
<!-- Node6&#45;&gt;Node1 -->
<g id="edge5" class="edge"><title>Node6&#45;&gt;Node1</title>
<path fill="none" stroke="#9a32cd" stroke-dasharray="5,2" d="M247.489,-59.563C240.517,-46.7815 231.342,-29.9599 225.822,-19.8411"/>
<polygon fill="#9a32cd" stroke="#9a32cd" points="244.432,-61.2687 252.294,-68.3717 250.578,-57.9167 244.432,-61.2687"/>
<text text-anchor="middle" x="270.5" y="-41.5" font-family="Helvetica,sans-Serif" font-size="10.00"> myAmount</text>
</g>
</g>
</svg>
