<?xml version="1.0" encoding="UTF-8" standalone="no"?>
<!DOCTYPE svg PUBLIC "-//W3C//DTD SVG 1.1//EN"
 "http://www.w3.org/Graphics/SVG/1.1/DTD/svg11.dtd">
<!-- Generated by graphviz version 2.36.0 (20140111.2315)
 -->
<!-- Title: Nodes.turtlecommands.HomeNode.update Pages: 1 -->
<!--zoomable 316 -->
<svg id="main" version="1.1" xmlns="http://www.w3.org/2000/svg" xmlns:xlink="http://www.w3.org/1999/xlink" xml:space="preserve" onload="init(evt)">
<style type="text/css"><![CDATA[
.edge:hover path { stroke: red; }
.edge:hover polygon { stroke: red; fill: red; }
]]></style>
<script type="text/javascript"><![CDATA[
var edges = document.getElementsByTagName('g');
if (edges && edges.length) {
  for (var i=0;i<edges.length;i++) {
    if (edges[i].id.substr(0,4)=='edge') {
      edges[i].setAttribute('class','edge');
    }
  }
}
]]></script>
        <defs>
                <circle id="rim" cx="0" cy="0" r="7"/>
                <circle id="rim2" cx="0" cy="0" r="3.5"/>
                <g id="zoomPlus">
                        <use xlink:href="#rim" fill="#404040">
                                <set attributeName="fill" to="#808080" begin="zoomplus.mouseover" end="zoomplus.mouseout"/>
                        </use>
                        <path d="M-4,0h8M0,-4v8" fill="none" stroke="white" stroke-width="1.5" pointer-events="none"/>
                </g>
                <g id="zoomMin">
                        <use xlink:href="#rim" fill="#404040">
                                <set attributeName="fill" to="#808080" begin="zoomminus.mouseover" end="zoomminus.mouseout"/>
                        </use>
                        <path d="M-4,0h8" fill="none" stroke="white" stroke-width="1.5" pointer-events="none"/>
                </g>
                <g id="dirArrow">
                        <path fill="none" stroke="white" stroke-width="1.5" d="M0,-3.0v7 M-2.5,-0.5L0,-3.0L2.5,-0.5"/>
                </g>
               <g id="resetDef">
                       <use xlink:href="#rim2" fill="#404040">
                               <set attributeName="fill" to="#808080" begin="reset.mouseover" end="reset.mouseout"/>
                       </use>
               </g>
        </defs>

<script type="text/javascript">
var viewWidth = 1236;
var viewHeight = 316;
var sectionId = 'dynsection-2';
</script>
<script xlink:href="../../svgpan.js"/>
<svg id="graph" class="graph">
<g id="viewport">
<title>Nodes.turtlecommands.HomeNode.update</title>
<polygon fill="white" stroke="none" points="-4,4 -4,-312 1232,-312 1232,4 -4,4"/>
<!-- Node1 -->
<g id="node1" class="node"><title>Node1</title>
<polygon fill="#bfbfbf" stroke="black" points="0,-93 0,-123 162,-123 162,-93 0,-93"/>
<text text-anchor="start" x="8" y="-111" font-family="Helvetica,sans-Serif" font-size="10.00">Nodes.turtlecommands.Home</text>
<text text-anchor="middle" x="81" y="-100" font-family="Helvetica,sans-Serif" font-size="10.00">Node.update</text>
</g>
<!-- Node2 -->
<g id="node2" class="node"><title>Node2</title>
<g id="a_node2"><a xlink:href="../../d1/de0/class_backend_1_1_turtle.html#ad5f5520cb6970723e121a8d17f2c0a5c" target="_top" xlink:title="Backend.Turtle.addLocation">
<polygon fill="white" stroke="black" points="212,-193.5 212,-212.5 360,-212.5 360,-193.5 212,-193.5"/>
<text text-anchor="middle" x="286" y="-200.5" font-family="Helvetica,sans-Serif" font-size="10.00">Backend.Turtle.addLocation</text>
</a>
</g>
</g>
<!-- Node1&#45;&gt;Node2 -->
<g id="edge1" class="edge"><title>Node1&#45;&gt;Node2</title>
<path fill="none" stroke="midnightblue" d="M114.166,-123.053C152.856,-141.159 217.293,-171.314 254.994,-188.958"/>
<polygon fill="midnightblue" stroke="midnightblue" points="253.882,-192.302 264.423,-193.371 256.85,-185.962 253.882,-192.302"/>
</g>
<!-- Node11 -->
<g id="node11" class="node"><title>Node11</title>
<g id="a_node11"><a xlink:href="../../d1/de0/class_backend_1_1_turtle.html#a33957258db9a7205d470c5a2d22b89af" target="_top" xlink:title="Backend.Turtle.getLocation">
<polygon fill="white" stroke="black" points="1082,-136.5 1082,-155.5 1228,-155.5 1228,-136.5 1082,-136.5"/>
<text text-anchor="middle" x="1155" y="-143.5" font-family="Helvetica,sans-Serif" font-size="10.00">Backend.Turtle.getLocation</text>
</a>
</g>
</g>
<!-- Node1&#45;&gt;Node11 -->
<g id="edge16" class="edge"><title>Node1&#45;&gt;Node11</title>
<path fill="none" stroke="midnightblue" d="M162.133,-108C246.276,-108 382.438,-108 500,-108 500,-108 500,-108 721,-108 865.691,-108 902.286,-110.215 1046,-127 1062.6,-128.939 1080.51,-131.782 1096.89,-134.681"/>
<polygon fill="midnightblue" stroke="midnightblue" points="1096.4,-138.149 1106.86,-136.486 1097.64,-131.261 1096.4,-138.149"/>
</g>
<!-- Node13 -->
<g id="node13" class="node"><title>Node13</title>
<g id="a_node13"><a xlink:href="../../de/d3e/class_turtle_view_1_1_point_converter.html#a88e94febc045d8717ec2d41522b9ebcf" target="_top" xlink:title="TurtleView.PointConverter.convert\lUserToActualPoint">
<polygon fill="white" stroke="black" points="198,-49 198,-79 374,-79 374,-49 198,-49"/>
<text text-anchor="start" x="206" y="-67" font-family="Helvetica,sans-Serif" font-size="10.00">TurtleView.PointConverter.convert</text>
<text text-anchor="middle" x="286" y="-56" font-family="Helvetica,sans-Serif" font-size="10.00">UserToActualPoint</text>
</a>
</g>
</g>
<!-- Node1&#45;&gt;Node13 -->
<g id="edge13" class="edge"><title>Node1&#45;&gt;Node13</title>
<path fill="none" stroke="midnightblue" d="M151.293,-92.9808C168.834,-89.1788 187.807,-85.0664 205.797,-81.1672"/>
<polygon fill="midnightblue" stroke="midnightblue" points="206.643,-84.5652 215.675,-79.0262 205.16,-77.724 206.643,-84.5652"/>
</g>
<!-- Node3 -->
<g id="node3" class="node"><title>Node3</title>
<g id="a_node3"><a xlink:href="../../d5/d67/class_front_end_1_1_boundary.html#a0431407e4d8e1dee03220aba60caef08" target="_top" xlink:title="FrontEnd.Boundary.checkBoundary">
<polygon fill="white" stroke="black" points="410,-231.5 410,-250.5 592,-250.5 592,-231.5 410,-231.5"/>
<text text-anchor="middle" x="501" y="-238.5" font-family="Helvetica,sans-Serif" font-size="10.00">FrontEnd.Boundary.checkBoundary</text>
</a>
</g>
</g>
<!-- Node2&#45;&gt;Node3 -->
<g id="edge2" class="edge"><title>Node2&#45;&gt;Node3</title>
<path fill="none" stroke="midnightblue" d="M340.474,-212.54C369.592,-217.735 405.811,-224.196 436.374,-229.649"/>
<polygon fill="midnightblue" stroke="midnightblue" points="436.045,-233.145 446.504,-231.456 437.274,-226.254 436.045,-233.145"/>
</g>
<!-- Node4 -->
<g id="node4" class="node"><title>Node4</title>
<g id="a_node4"><a xlink:href="../../d1/de0/class_backend_1_1_turtle.html#a94cbed3c9c0c33e1ea8e8b3c51c26c73" target="_top" xlink:title="Backend.Turtle.move">
<polygon fill="white" stroke="black" points="443,-193.5 443,-212.5 559,-212.5 559,-193.5 443,-193.5"/>
<text text-anchor="middle" x="501" y="-200.5" font-family="Helvetica,sans-Serif" font-size="10.00">Backend.Turtle.move</text>
</a>
</g>
</g>
<!-- Node2&#45;&gt;Node4 -->
<g id="edge3" class="edge"><title>Node2&#45;&gt;Node4</title>
<path fill="none" stroke="midnightblue" d="M360.005,-203C383.608,-203 409.655,-203 432.817,-203"/>
<polygon fill="midnightblue" stroke="midnightblue" points="432.892,-206.5 442.892,-203 432.892,-199.5 432.892,-206.5"/>
</g>
<!-- Node5 -->
<g id="node5" class="node"><title>Node5</title>
<g id="a_node5"><a xlink:href="../../dc/ded/class_turtle_view_1_1_active_ring.html#ae05a085760f46b9f8e6927001c363e39" target="_top" xlink:title="TurtleView.ActiveRing.update">
<polygon fill="white" stroke="black" points="644,-231.5 644,-250.5 796,-250.5 796,-231.5 644,-231.5"/>
<text text-anchor="middle" x="720" y="-238.5" font-family="Helvetica,sans-Serif" font-size="10.00">TurtleView.ActiveRing.update</text>
</a>
</g>
</g>
<!-- Node4&#45;&gt;Node5 -->
<g id="edge4" class="edge"><title>Node4&#45;&gt;Node5</title>
<path fill="none" stroke="midnightblue" d="M556.478,-212.54C586.272,-217.757 623.363,-224.253 654.585,-229.72"/>
<polygon fill="midnightblue" stroke="midnightblue" points="654.046,-233.179 664.499,-231.456 655.253,-226.284 654.046,-233.179"/>
</g>
<!-- Node6 -->
<g id="node6" class="node"><title>Node6</title>
<g id="a_node6"><a xlink:href="../../d9/d38/class_turtle_view_1_1_turtle_information.html#ad65201793ce738f9c6d6e592271c14e1" target="_top" xlink:title="TurtleView.TurtleInformation.update">
<polygon fill="white" stroke="black" points="628.5,-193.5 628.5,-212.5 811.5,-212.5 811.5,-193.5 628.5,-193.5"/>
<text text-anchor="middle" x="720" y="-200.5" font-family="Helvetica,sans-Serif" font-size="10.00">TurtleView.TurtleInformation.update</text>
</a>
</g>
</g>
<!-- Node4&#45;&gt;Node6 -->
<g id="edge5" class="edge"><title>Node4&#45;&gt;Node6</title>
<path fill="none" stroke="midnightblue" d="M559.014,-203C577.169,-203 597.827,-203 618.127,-203"/>
<polygon fill="midnightblue" stroke="midnightblue" points="618.372,-206.5 628.372,-203 618.372,-199.5 618.372,-206.5"/>
</g>
<!-- Node7 -->
<g id="node7" class="node"><title>Node7</title>
<g id="a_node7"><a xlink:href="../../d9/d38/class_turtle_view_1_1_turtle_information.html#aca65258778dade3baa31e0d5ec643b3b" target="_top" xlink:title="TurtleView.TurtleInformation.emptyInfo">
<polygon fill="white" stroke="black" points="848.5,-288.5 848.5,-307.5 1045.5,-307.5 1045.5,-288.5 848.5,-288.5"/>
<text text-anchor="middle" x="947" y="-295.5" font-family="Helvetica,sans-Serif" font-size="10.00">TurtleView.TurtleInformation.emptyInfo</text>
</a>
</g>
</g>
<!-- Node6&#45;&gt;Node7 -->
<g id="edge6" class="edge"><title>Node6&#45;&gt;Node7</title>
<path fill="none" stroke="midnightblue" d="M793.781,-212.532C800.24,-215.027 806.431,-218.135 812,-222 836.616,-239.083 823.262,-262.094 848,-279 850.79,-280.907 853.724,-282.633 856.763,-284.196"/>
<polygon fill="midnightblue" stroke="midnightblue" points="855.602,-287.511 866.159,-288.409 858.466,-281.124 855.602,-287.511"/>
</g>
<!-- Node8 -->
<g id="node8" class="node"><title>Node8</title>
<g id="a_node8"><a xlink:href="../../d1/de0/class_backend_1_1_turtle.html#adc7cb6cc95ee918547d2b18d8bb20183" target="_top" xlink:title="Backend.Turtle.getID">
<polygon fill="white" stroke="black" points="889.5,-250.5 889.5,-269.5 1004.5,-269.5 1004.5,-250.5 889.5,-250.5"/>
<text text-anchor="middle" x="947" y="-257.5" font-family="Helvetica,sans-Serif" font-size="10.00">Backend.Turtle.getID</text>
</a>
</g>
</g>
<!-- Node6&#45;&gt;Node8 -->
<g id="edge7" class="edge"><title>Node6&#45;&gt;Node8</title>
<path fill="none" stroke="midnightblue" d="M778.96,-212.562C790.083,-215.106 801.523,-218.226 812,-222 829.021,-228.131 830.935,-234.991 848,-241 857.91,-244.49 868.623,-247.392 879.202,-249.79"/>
<polygon fill="midnightblue" stroke="midnightblue" points="878.763,-253.275 889.273,-251.936 880.222,-246.428 878.763,-253.275"/>
</g>
<!-- Node9 -->
<g id="node9" class="node"><title>Node9</title>
<g id="a_node9"><a xlink:href="../../d9/d38/class_turtle_view_1_1_turtle_information.html#a15bd13ad05cabb76c0861d0ab42722ef" target="_top" xlink:title="TurtleView.TurtleInformation.truncate">
<polygon fill="white" stroke="black" points="852,-212.5 852,-231.5 1042,-231.5 1042,-212.5 852,-212.5"/>
<text text-anchor="middle" x="947" y="-219.5" font-family="Helvetica,sans-Serif" font-size="10.00">TurtleView.TurtleInformation.truncate</text>
</a>
</g>
</g>
<!-- Node6&#45;&gt;Node9 -->
<g id="edge8" class="edge"><title>Node6&#45;&gt;Node9</title>
<path fill="none" stroke="midnightblue" d="M811.544,-210.646C821.526,-211.489 831.749,-212.352 841.88,-213.208"/>
<polygon fill="midnightblue" stroke="midnightblue" points="841.71,-216.706 851.969,-214.06 842.299,-209.731 841.71,-216.706"/>
</g>
<!-- Node10 -->
<g id="node10" class="node"><title>Node10</title>
<g id="a_node10"><a xlink:href="../../d1/de0/class_backend_1_1_turtle.html#a715f94909b1ba74dc9e4f9eb4fd91e10" target="_top" xlink:title="Backend.Turtle.getXCord">
<polygon fill="white" stroke="black" points="880.5,-174.5 880.5,-193.5 1013.5,-193.5 1013.5,-174.5 880.5,-174.5"/>
<text text-anchor="middle" x="947" y="-181.5" font-family="Helvetica,sans-Serif" font-size="10.00">Backend.Turtle.getXCord</text>
</a>
</g>
</g>
<!-- Node6&#45;&gt;Node10 -->
<g id="edge9" class="edge"><title>Node6&#45;&gt;Node10</title>
<path fill="none" stroke="midnightblue" d="M811.544,-195.354C831.003,-193.711 851.375,-191.991 870.206,-190.4"/>
<polygon fill="midnightblue" stroke="midnightblue" points="870.525,-193.886 880.195,-189.557 869.936,-186.911 870.525,-193.886"/>
</g>
<!-- Node12 -->
<g id="node12" class="node"><title>Node12</title>
<g id="a_node12"><a xlink:href="../../d1/de0/class_backend_1_1_turtle.html#a692174eccea232fc58e725cff6f50359" target="_top" xlink:title="Backend.Turtle.getYCord">
<polygon fill="white" stroke="black" points="881,-136.5 881,-155.5 1013,-155.5 1013,-136.5 881,-136.5"/>
<text text-anchor="middle" x="947" y="-143.5" font-family="Helvetica,sans-Serif" font-size="10.00">Backend.Turtle.getYCord</text>
</a>
</g>
</g>
<!-- Node6&#45;&gt;Node12 -->
<g id="edge11" class="edge"><title>Node6&#45;&gt;Node12</title>
<path fill="none" stroke="midnightblue" d="M749.779,-193.498C775.374,-185.261 813.918,-173.381 848,-165 858.869,-162.327 870.491,-159.794 881.794,-157.5"/>
<polygon fill="midnightblue" stroke="midnightblue" points="882.492,-160.93 891.618,-155.548 881.128,-154.064 882.492,-160.93"/>
</g>
<!-- Node10&#45;&gt;Node11 -->
<g id="edge10" class="edge"><title>Node10&#45;&gt;Node11</title>
<path fill="none" stroke="midnightblue" d="M999.717,-174.46C1027.76,-169.288 1062.6,-162.86 1092.08,-157.422"/>
<polygon fill="midnightblue" stroke="midnightblue" points="1093.06,-160.8 1102.26,-155.544 1091.79,-153.916 1093.06,-160.8"/>
</g>
<!-- Node12&#45;&gt;Node11 -->
<g id="edge12" class="edge"><title>Node12&#45;&gt;Node11</title>
<path fill="none" stroke="midnightblue" d="M1013.18,-146C1031.75,-146 1052.22,-146 1071.67,-146"/>
<polygon fill="midnightblue" stroke="midnightblue" points="1071.73,-149.5 1081.73,-146 1071.73,-142.5 1071.73,-149.5"/>
</g>
<!-- Node14 -->
<g id="node14" class="node"><title>Node14</title>
<g id="a_node14"><a xlink:href="../../de/d3e/class_turtle_view_1_1_point_converter.html#ac71ac226b80010680a67fdeb56f538af" target="_top" xlink:title="TurtleView.PointConverter.convert\lUserToActualX">
<polygon fill="white" stroke="black" points="413,-49 413,-79 589,-79 589,-49 413,-49"/>
<text text-anchor="start" x="421" y="-67" font-family="Helvetica,sans-Serif" font-size="10.00">TurtleView.PointConverter.convert</text>
<text text-anchor="middle" x="501" y="-56" font-family="Helvetica,sans-Serif" font-size="10.00">UserToActualX</text>
</a>
</g>
</g>
<!-- Node13&#45;&gt;Node14 -->
<g id="edge14" class="edge"><title>Node13&#45;&gt;Node14</title>
<path fill="none" stroke="midnightblue" d="M374.25,-64C383.615,-64 393.186,-64 402.659,-64"/>
<polygon fill="midnightblue" stroke="midnightblue" points="402.886,-67.5001 412.886,-64 402.886,-60.5001 402.886,-67.5001"/>
</g>
<!-- Node15 -->
<g id="node15" class="node"><title>Node15</title>
<g id="a_node15"><a xlink:href="../../de/d3e/class_turtle_view_1_1_point_converter.html#ad02a24b86b9d916f627a7a125b4de02d" target="_top" xlink:title="TurtleView.PointConverter.convert\lUserToActualY">
<polygon fill="white" stroke="black" points="413,-0 413,-30 589,-30 589,-0 413,-0"/>
<text text-anchor="start" x="421" y="-18" font-family="Helvetica,sans-Serif" font-size="10.00">TurtleView.PointConverter.convert</text>
<text text-anchor="middle" x="501" y="-7" font-family="Helvetica,sans-Serif" font-size="10.00">UserToActualY</text>
</a>
</g>
</g>
<!-- Node13&#45;&gt;Node15 -->
<g id="edge15" class="edge"><title>Node13&#45;&gt;Node15</title>
<path fill="none" stroke="midnightblue" d="M352.355,-48.9654C375.253,-43.6976 401.151,-37.7399 424.791,-32.3016"/>
<polygon fill="midnightblue" stroke="midnightblue" points="425.808,-35.6591 434.769,-30.0062 424.239,-28.8373 425.808,-35.6591"/>
</g>
</g>
</svg>
        <g id="navigator" transform="translate(0 0)" fill="#404254">
                <rect fill="#f2f5e9" fill-opacity="0.5" stroke="#606060" stroke-width=".5" x="0" y="0" width="60" height="60"/>
                <use id="zoomplus" xlink:href="#zoomPlus" x="17" y="9" onmousedown="handleZoom(evt,'in')"/>
                <use id="zoomminus" xlink:href="#zoomMin" x="42" y="9" onmousedown="handleZoom(evt,'out')"/>
                <use id="reset" xlink:href="#resetDef" x="30" y="36" onmousedown="handleReset()"/>
                <g id="arrowUp" xlink:href="#dirArrow" transform="translate(30 24)" onmousedown="handlePan(0,-1)">
                  <use xlink:href="#rim" fill="#404040">
                        <set attributeName="fill" to="#808080" begin="arrowUp.mouseover" end="arrowUp.mouseout"/>
                  </use>
                  <path fill="none" stroke="white" stroke-width="1.5" d="M0,-3.0v7 M-2.5,-0.5L0,-3.0L2.5,-0.5"/>
                </g>
                <g id="arrowRight" xlink:href="#dirArrow" transform="rotate(90) translate(36 -43)" onmousedown="handlePan(1,0)">
                  <use xlink:href="#rim" fill="#404040">
                        <set attributeName="fill" to="#808080" begin="arrowRight.mouseover" end="arrowRight.mouseout"/>
                  </use>
                  <path fill="none" stroke="white" stroke-width="1.5" d="M0,-3.0v7 M-2.5,-0.5L0,-3.0L2.5,-0.5"/>
                </g>
                <g id="arrowDown" xlink:href="#dirArrow" transform="rotate(180) translate(-30 -48)" onmousedown="handlePan(0,1)">
                  <use xlink:href="#rim" fill="#404040">
                        <set attributeName="fill" to="#808080" begin="arrowDown.mouseover" end="arrowDown.mouseout"/>
                  </use>
                  <path fill="none" stroke="white" stroke-width="1.5" d="M0,-3.0v7 M-2.5,-0.5L0,-3.0L2.5,-0.5"/>
                </g>
                <g id="arrowLeft" xlink:href="#dirArrow" transform="rotate(270) translate(-36 17)" onmousedown="handlePan(-1,0)">
                  <use xlink:href="#rim" fill="#404040">
                        <set attributeName="fill" to="#808080" begin="arrowLeft.mouseover" end="arrowLeft.mouseout"/>
                  </use>
                  <path fill="none" stroke="white" stroke-width="1.5" d="M0,-3.0v7 M-2.5,-0.5L0,-3.0L2.5,-0.5"/>
                </g>
        </g>
        <svg viewBox="0 0 15 15" width="100%" height="30px" preserveAspectRatio="xMaxYMin meet">
         <g id="arrow_out" transform="scale(0.3 0.3)">
          <a xlink:href="class_nodes_1_1turtlecommands_1_1_home_node_ab3bbeb66894a4c93c40e651457efe097_cgraph_org.svg" target="_base">
           <rect id="button" ry="5" rx="5" y="6" x="6" height="38" width="38"
                fill="#f2f5e9" fill-opacity="0.5" stroke="#606060" stroke-width="1.0"/>
           <path id="arrow"
             d="M 11.500037,31.436501 C 11.940474,20.09759 22.043105,11.32322 32.158766,21.979434 L 37.068811,17.246167 C 37.068811,17.246167 37.088388,32 37.088388,32 L 22.160133,31.978069 C 22.160133,31.978069 26.997745,27.140456 26.997745,27.140456 C 18.528582,18.264221 13.291696,25.230495 11.500037,31.436501 z"
             style="fill:#404040;"/>
          </a>
         </g>
        </svg>
</svg>
