<?xml version="1.0" encoding="UTF-8" standalone="no"?>
<!DOCTYPE svg PUBLIC "-//W3C//DTD SVG 1.1//EN"
 "http://www.w3.org/Graphics/SVG/1.1/DTD/svg11.dtd">
<!-- Generated by graphviz version 2.36.0 (20140111.2315)
 -->
<!-- Title: Nodes.turtlecommands.YCoordinateNode Pages: 1 -->
<svg width="222pt" height="208pt"
 viewBox="0.00 0.00 222.00 208.00" xmlns="http://www.w3.org/2000/svg" xmlns:xlink="http://www.w3.org/1999/xlink">
<g id="graph0" class="graph" transform="scale(1 1) rotate(0) translate(4 204)">
<title>Nodes.turtlecommands.YCoordinateNode</title>
<polygon fill="white" stroke="none" points="-4,4 -4,-204 218,-204 218,4 -4,4"/>
<!-- Node1 -->
<g id="node1" class="node"><title>Node1</title>
<polygon fill="#bfbfbf" stroke="black" points="-0.5,-0.5 -0.5,-19.5 214.5,-19.5 214.5,-0.5 -0.5,-0.5"/>
<text text-anchor="middle" x="107" y="-7.5" font-family="Helvetica,sans-Serif" font-size="10.00">Nodes.turtlecommands.YCoordinateNode</text>
</g>
<!-- Node2 -->
<g id="node2" class="node"><title>Node2</title>
<g id="a_node2"><a xlink:href="../../d6/dfd/class_nodes_1_1turtlecommands_1_1_zero_children_node.html" target="_top" xlink:title="Nodes.turtlecommands.Zero\lChildrenNode">
<polygon fill="white" stroke="black" points="29,-57 29,-87 185,-87 185,-57 29,-57"/>
<text text-anchor="start" x="37" y="-75" font-family="Helvetica,sans-Serif" font-size="10.00">Nodes.turtlecommands.Zero</text>
<text text-anchor="middle" x="107" y="-64" font-family="Helvetica,sans-Serif" font-size="10.00">ChildrenNode</text>
</a>
</g>
</g>
<!-- Node2&#45;&gt;Node1 -->
<g id="edge1" class="edge"><title>Node2&#45;&gt;Node1</title>
<path fill="none" stroke="midnightblue" d="M107,-46.5858C107,-37.0743 107,-26.7864 107,-19.7305"/>
<polygon fill="midnightblue" stroke="midnightblue" points="103.5,-46.7808 107,-56.7808 110.5,-46.7809 103.5,-46.7808"/>
</g>
<!-- Node3 -->
<g id="node3" class="node"><title>Node3</title>
<g id="a_node3"><a xlink:href="../../dc/d38/class_nodes_1_1turtlecommands_1_1_command_node.html" target="_top" xlink:title="Nodes.turtlecommands.CommandNode">
<polygon fill="white" stroke="black" points="2.5,-124.5 2.5,-143.5 211.5,-143.5 211.5,-124.5 2.5,-124.5"/>
<text text-anchor="middle" x="107" y="-131.5" font-family="Helvetica,sans-Serif" font-size="10.00">Nodes.turtlecommands.CommandNode</text>
</a>
</g>
</g>
<!-- Node3&#45;&gt;Node2 -->
<g id="edge2" class="edge"><title>Node3&#45;&gt;Node2</title>
<path fill="none" stroke="midnightblue" d="M107,-114.371C107,-105.585 107,-95.2721 107,-87.1408"/>
<polygon fill="midnightblue" stroke="midnightblue" points="103.5,-114.403 107,-124.403 110.5,-114.403 103.5,-114.403"/>
</g>
<!-- Node4 -->
<g id="node4" class="node"><title>Node4</title>
<g id="a_node4"><a xlink:href="../../df/dac/class_nodes_1_1_node.html" target="_top" xlink:title="Nodes.Node">
<polygon fill="white" stroke="black" points="69,-180.5 69,-199.5 145,-199.5 145,-180.5 69,-180.5"/>
<text text-anchor="middle" x="107" y="-187.5" font-family="Helvetica,sans-Serif" font-size="10.00">Nodes.Node</text>
</a>
</g>
</g>
<!-- Node4&#45;&gt;Node3 -->
<g id="edge3" class="edge"><title>Node4&#45;&gt;Node3</title>
<path fill="none" stroke="midnightblue" d="M107,-169.805C107,-160.91 107,-150.78 107,-143.751"/>
<polygon fill="midnightblue" stroke="midnightblue" points="103.5,-170.083 107,-180.083 110.5,-170.083 103.5,-170.083"/>
</g>
</g>
</svg>
