<?xml version="1.0" encoding="UTF-8" standalone="no"?>
<!DOCTYPE svg PUBLIC "-//W3C//DTD SVG 1.1//EN"
 "http://www.w3.org/Graphics/SVG/1.1/DTD/svg11.dtd">
<!-- Generated by graphviz version 2.36.0 (20140111.2315)
 -->
<!-- Title: FrontEnd.Workspace.Workspace Pages: 1 -->
<svg width="362pt" height="66pt"
 viewBox="0.00 0.00 362.00 66.00" xmlns="http://www.w3.org/2000/svg" xmlns:xlink="http://www.w3.org/1999/xlink">
<g id="graph0" class="graph" transform="scale(1 1) rotate(0) translate(4 62)">
<title>FrontEnd.Workspace.Workspace</title>
<polygon fill="white" stroke="none" points="-4,4 -4,-62 358,-62 358,4 -4,4"/>
<!-- Node1 -->
<g id="node1" class="node"><title>Node1</title>
<polygon fill="#bfbfbf" stroke="black" points="0.5,-19.5 0.5,-38.5 167.5,-38.5 167.5,-19.5 0.5,-19.5"/>
<text text-anchor="middle" x="84" y="-26.5" font-family="Helvetica,sans-Serif" font-size="10.00">FrontEnd.Workspace.Workspace</text>
</g>
<!-- Node2 -->
<g id="node2" class="node"><title>Node2</title>
<g id="a_node2"><a xlink:href="../../df/dec/class_front_end_1_1_view.html#ac237fc18e728a533bfd341048dac2419" target="_top" xlink:title="FrontEnd.View.addController">
<polygon fill="white" stroke="black" points="204,-38.5 204,-57.5 354,-57.5 354,-38.5 204,-38.5"/>
<text text-anchor="middle" x="279" y="-45.5" font-family="Helvetica,sans-Serif" font-size="10.00">FrontEnd.View.addController</text>
</a>
</g>
</g>
<!-- Node1&#45;&gt;Node2 -->
<g id="edge1" class="edge"><title>Node1&#45;&gt;Node2</title>
<path fill="none" stroke="midnightblue" d="M167.689,-37.1404C176.293,-37.9874 185.046,-38.8491 193.668,-39.6979"/>
<polygon fill="midnightblue" stroke="midnightblue" points="193.417,-43.19 203.712,-40.6866 194.103,-36.2237 193.417,-43.19"/>
</g>
<!-- Node3 -->
<g id="node3" class="node"><title>Node3</title>
<g id="a_node3"><a xlink:href="../../df/dec/class_front_end_1_1_view.html#ac3b55b037c85dd6c42359df78daad14c" target="_top" xlink:title="FrontEnd.View.getScene">
<polygon fill="white" stroke="black" points="213.5,-0.5 213.5,-19.5 344.5,-19.5 344.5,-0.5 213.5,-0.5"/>
<text text-anchor="middle" x="279" y="-7.5" font-family="Helvetica,sans-Serif" font-size="10.00">FrontEnd.View.getScene</text>
</a>
</g>
</g>
<!-- Node1&#45;&gt;Node3 -->
<g id="edge2" class="edge"><title>Node1&#45;&gt;Node3</title>
<path fill="none" stroke="midnightblue" d="M167.689,-20.8596C179.48,-19.6989 191.551,-18.5105 203.18,-17.3657"/>
<polygon fill="midnightblue" stroke="midnightblue" points="203.658,-20.8357 213.267,-16.3727 202.972,-13.8694 203.658,-20.8357"/>
</g>
</g>
</svg>
