<?xml version="1.0" encoding="UTF-8" standalone="no"?>
<!DOCTYPE svg PUBLIC "-//W3C//DTD SVG 1.1//EN"
 "http://www.w3.org/Graphics/SVG/1.1/DTD/svg11.dtd">
<!-- Generated by graphviz version 2.36.0 (20140111.2315)
 -->
<!-- Title: FrontEnd.Console Pages: 1 -->
<svg width="152pt" height="96pt"
 viewBox="0.00 0.00 152.00 96.00" xmlns="http://www.w3.org/2000/svg" xmlns:xlink="http://www.w3.org/1999/xlink">
<g id="graph0" class="graph" transform="scale(1 1) rotate(0) translate(4 92)">
<title>FrontEnd.Console</title>
<polygon fill="white" stroke="none" points="-4,4 -4,-92 148,-92 148,4 -4,4"/>
<!-- Node1 -->
<g id="node1" class="node"><title>Node1</title>
<polygon fill="#bfbfbf" stroke="black" points="19,-0.5 19,-19.5 119,-19.5 119,-0.5 19,-0.5"/>
<text text-anchor="middle" x="69" y="-7.5" font-family="Helvetica,sans-Serif" font-size="10.00">FrontEnd.Console</text>
</g>
<!-- Node2 -->
<g id="node2" class="node"><title>Node2</title>
<polygon fill="white" stroke="#bfbfbf" points="0,-68.5 0,-87.5 58,-87.5 58,-68.5 0,-68.5"/>
<text text-anchor="middle" x="29" y="-75.5" font-family="Helvetica,sans-Serif" font-size="10.00">TextArea</text>
</g>
<!-- Node2&#45;&gt;Node1 -->
<g id="edge1" class="edge"><title>Node2&#45;&gt;Node1</title>
<path fill="none" stroke="midnightblue" d="M39.5679,-59.563C47.3143,-46.7815 57.5091,-29.9599 63.6417,-19.8411"/>
<polygon fill="midnightblue" stroke="midnightblue" points="36.4192,-58.0056 34.2293,-68.3717 42.4056,-61.6337 36.4192,-58.0056"/>
</g>
<!-- Node3 -->
<g id="node3" class="node"><title>Node3</title>
<polygon fill="white" stroke="#bfbfbf" points="76,-68.5 76,-87.5 144,-87.5 144,-68.5 76,-68.5"/>
<text text-anchor="middle" x="110" y="-75.5" font-family="Helvetica,sans-Serif" font-size="10.00">Dimension</text>
</g>
<!-- Node3&#45;&gt;Node1 -->
<g id="edge2" class="edge"><title>Node3&#45;&gt;Node1</title>
<path fill="none" stroke="#9a32cd" stroke-dasharray="5,2" d="M99.1679,-59.563C91.2279,-46.7815 80.7781,-29.9599 74.4922,-19.8411"/>
<polygon fill="#9a32cd" stroke="#9a32cd" points="96.39,-61.7241 104.64,-68.3717 102.336,-58.0303 96.39,-61.7241"/>
<text text-anchor="middle" x="106" y="-41.5" font-family="Helvetica,sans-Serif" font-size="10.00"> SIZE</text>
</g>
</g>
</svg>
