<?xml version="1.0" encoding="UTF-8" standalone="no"?>
<!DOCTYPE svg PUBLIC "-//W3C//DTD SVG 1.1//EN"
 "http://www.w3.org/Graphics/SVG/1.1/DTD/svg11.dtd">
<!-- Generated by graphviz version 2.36.0 (20140111.2315)
 -->
<!-- Title: Nodes.math.ProductNode Pages: 1 -->
<svg width="171pt" height="290pt"
 viewBox="0.00 0.00 171.00 290.00" xmlns="http://www.w3.org/2000/svg" xmlns:xlink="http://www.w3.org/1999/xlink">
<g id="graph0" class="graph" transform="scale(1 1) rotate(0) translate(4 286)">
<title>Nodes.math.ProductNode</title>
<polygon fill="white" stroke="none" points="-4,4 -4,-286 167,-286 167,4 -4,4"/>
<!-- Node1 -->
<g id="node1" class="node"><title>Node1</title>
<polygon fill="#bfbfbf" stroke="black" points="1.5,-0.5 1.5,-19.5 142.5,-19.5 142.5,-0.5 1.5,-0.5"/>
<text text-anchor="middle" x="72" y="-7.5" font-family="Helvetica,sans-Serif" font-size="10.00">Nodes.math.ProductNode</text>
</g>
<!-- Node2 -->
<g id="node2" class="node"><title>Node2</title>
<g id="a_node2"><a xlink:href="../../d9/d91/class_nodes_1_1math_1_1_two_child_node.html" target="_top" xlink:title="Nodes.math.TwoChildNode">
<polygon fill="white" stroke="black" points="0,-58.5 0,-77.5 144,-77.5 144,-58.5 0,-58.5"/>
<text text-anchor="middle" x="72" y="-65.5" font-family="Helvetica,sans-Serif" font-size="10.00">Nodes.math.TwoChildNode</text>
</a>
</g>
</g>
<!-- Node2&#45;&gt;Node1 -->
<g id="edge1" class="edge"><title>Node2&#45;&gt;Node1</title>
<path fill="none" stroke="midnightblue" d="M72,-47.953C72,-38.2875 72,-27.0312 72,-19.5052"/>
<polygon fill="midnightblue" stroke="midnightblue" points="68.5001,-48.25 72,-58.25 75.5001,-48.25 68.5001,-48.25"/>
</g>
<!-- Node3 -->
<g id="node3" class="node"><title>Node3</title>
<g id="a_node3"><a xlink:href="../../de/d80/class_nodes_1_1math_1_1_math_node.html" target="_top" xlink:title="Nodes.math.MathNode">
<polygon fill="white" stroke="black" points="8,-116.5 8,-135.5 136,-135.5 136,-116.5 8,-116.5"/>
<text text-anchor="middle" x="72" y="-123.5" font-family="Helvetica,sans-Serif" font-size="10.00">Nodes.math.MathNode</text>
</a>
</g>
</g>
<!-- Node3&#45;&gt;Node2 -->
<g id="edge2" class="edge"><title>Node3&#45;&gt;Node2</title>
<path fill="none" stroke="midnightblue" d="M72,-105.953C72,-96.2875 72,-85.0312 72,-77.5052"/>
<polygon fill="midnightblue" stroke="midnightblue" points="68.5001,-106.25 72,-116.25 75.5001,-106.25 68.5001,-106.25"/>
</g>
<!-- Node4 -->
<g id="node4" class="node"><title>Node4</title>
<g id="a_node4"><a xlink:href="../../df/dac/class_nodes_1_1_node.html" target="_top" xlink:title="Nodes.Node">
<polygon fill="white" stroke="black" points="34,-194.5 34,-213.5 110,-213.5 110,-194.5 34,-194.5"/>
<text text-anchor="middle" x="72" y="-201.5" font-family="Helvetica,sans-Serif" font-size="10.00">Nodes.Node</text>
</a>
</g>
</g>
<!-- Node4&#45;&gt;Node3 -->
<g id="edge3" class="edge"><title>Node4&#45;&gt;Node3</title>
<path fill="none" stroke="midnightblue" d="M70.4399,-184.382C70.2572,-181.575 70.1003,-178.713 70,-176 69.6386,-166.229 69.6386,-163.771 70,-154 70.2293,-147.8 70.7539,-140.815 71.2083,-135.503"/>
<polygon fill="midnightblue" stroke="midnightblue" points="66.9607,-184.791 71.2083,-194.497 73.9406,-184.26 66.9607,-184.791"/>
</g>
<!-- Node4&#45;&gt;Node3 -->
<g id="edge6" class="edge"><title>Node4&#45;&gt;Node3</title>
<path fill="none" stroke="#9a32cd" stroke-dasharray="5,2" d="M72,-184.224C72,-168.697 72,-147.358 72,-135.616"/>
<polygon fill="#9a32cd" stroke="#9a32cd" points="68.5001,-184.282 72,-194.282 75.5001,-184.282 68.5001,-184.282"/>
<text text-anchor="middle" x="84.5" y="-168" font-family="Helvetica,sans-Serif" font-size="10.00"> right</text>
<text text-anchor="middle" x="84.5" y="-157" font-family="Helvetica,sans-Serif" font-size="10.00">left</text>
</g>
<!-- Node4&#45;&gt;Node4 -->
<g id="edge5" class="edge"><title>Node4&#45;&gt;Node4</title>
<path fill="none" stroke="#9a32cd" stroke-dasharray="5,2" d="M120.289,-209.176C125.006,-208.133 128,-206.407 128,-204 128,-200.148 120.335,-198.042 110.214,-197.681"/>
<polygon fill="#9a32cd" stroke="#9a32cd" points="119.756,-205.714 110.214,-210.319 120.545,-212.67 119.756,-205.714"/>
<text text-anchor="middle" x="145.5" y="-201.5" font-family="Helvetica,sans-Serif" font-size="10.00"> parent</text>
</g>
<!-- Node5 -->
<g id="node5" class="node"><title>Node5</title>
<polygon fill="white" stroke="#bfbfbf" points="2,-262.5 2,-281.5 142,-281.5 142,-262.5 2,-262.5"/>
<text text-anchor="middle" x="72" y="-269.5" font-family="Helvetica,sans-Serif" font-size="10.00">ArrayList&lt; Nodes.Node &gt;</text>
</g>
<!-- Node5&#45;&gt;Node4 -->
<g id="edge4" class="edge"><title>Node5&#45;&gt;Node4</title>
<path fill="none" stroke="#9a32cd" stroke-dasharray="5,2" d="M72,-252.041C72,-239.472 72,-223.563 72,-213.841"/>
<polygon fill="#9a32cd" stroke="#9a32cd" points="68.5001,-252.372 72,-262.372 75.5001,-252.372 68.5001,-252.372"/>
<text text-anchor="middle" x="101" y="-235.5" font-family="Helvetica,sans-Serif" font-size="10.00"> myChildren</text>
</g>
</g>
</svg>
